<?xml version="1.0" encoding="UTF-8" standalone="no"?>
<svg
   version="1.2"
   width="1080"
   height="1080"
   viewBox="-73.9904 7.1118 7.3666999999999945 4.0338"
   stroke-linecap="round"
   stroke-linejoin="round"
   id="svg5"
   sodipodi:docname="AC-Meso.svg"
   inkscape:version="1.2 (dc2aedaf03, 2022-05-15)"
   xmlns:inkscape="http://www.inkscape.org/namespaces/inkscape"
   xmlns:sodipodi="http://sodipodi.sourceforge.net/DTD/sodipodi-0.dtd"
   xmlns="http://www.w3.org/2000/svg"
   xmlns:svg="http://www.w3.org/2000/svg">
  <defs
     id="defs9" />
  <sodipodi:namedview
     id="namedview7"
     pagecolor="#ffffff"
     bordercolor="#000000"
     borderopacity="0.25"
     inkscape:showpageshadow="2"
     inkscape:pageopacity="0.0"
     inkscape:pagecheckerboard="0"
     inkscape:deskcolor="#d1d1d1"
     showgrid="false"
     inkscape:zoom="0.7537037"
     inkscape:cx="540.66339"
     inkscape:cy="540.66339"
     inkscape:window-width="1920"
     inkscape:window-height="1001"
     inkscape:window-x="-9"
     inkscape:window-y="-9"
     inkscape:window-maximized="1"
     inkscape:current-layer="svg5" />
  <path
     id="1202"
     d="M-668103,-98180l-668,292l-1576,690l-639,280l-364,159l-345,151l-536,234l-346,152l-678,297l-5,2l-911,150l-998,164l-1340,607l-1146,518l-652,295l-505,229l-956,433l-585,264l-1846,835l-1345,609l-1490,674l-127,58l-1215,549l-96,44l-595,511l-729,625l-226,194l-1191,1021l-389,334l-351,300l-666,571l-214,184l-372,318l-426,365l-499,427l-435,373l-298,255l-233,199l-704,602l-174,149l-469,401l-8,-24l20,-32l0,-10l-20,-11l8,-26l-15,-9l-2,-31l-14,-19l9,-15l-3,-27l-8,-5l-21,4l-9,-4l-6,-14l21,-25l2,-31l-7,-14l-27,-23l-13,-1l4,-15l-17,-11l-12,-25l-46,-37l-11,-3h-30l-22,-16l-79,-85l-36,-31l-14,-15l0,-9l12,-24l-5,-22l-72,-58l-8,-19l0,-22h-26l-11,-5l8,-18l-3,-13h-13l-11,8l-6,-16l-11,-1l-5,-16l-34,-13l-8,-19l-31,-34l-27,-42l-23,-51l-16,-20l-3,-29l-13,-18l-13,-27l-11,-35l-8,-62l0,-87l10,-21l9,-37l0,-35l-11,-42l-13,-20l-16,-11l-27,-12l-8,-18l1,-27l-10,-21l-13,-12l-17,-26l0,-44l-10,-17l-28,-24l-13,-16l-6,-21l-4,-34l-27,-26l1,-23l-18,-30l-20,-23l-31,-38l-38,-34l-9,-27l-4,-34l-15,-30l-10,-34l-5,-53l-21,-21l-31,-17l-11,-16l23,-64l1,-72l-29,-74l-15,-23l-18,-32l-15,-15l-21,-10l-53,-83l-15,-36l-26,-118l-4,-52l-1,-77l-12,-68l-12,-14l-15,-8l-44,-8l-17,-16l-7,-51l-10,-13l-26,-19l-33,-8l-30,-13l-21,15h-25l-19,-4l-57,-23l-30,-5l-12,-14l-7,-28l-4,-28l-17,-18l-54,-2l-30,-3l-27,-10l-19,-26l-13,-25l-15,-36l-21,-17h-50l-32,9l-40,-8h-46l-61,-19l-62,2l-22,11l-401,-505l-262,-312l-374,-214l-108,-245l-211,-307l-83,-192l-128,-345l-101,-267l-134,-236l-254,-133l-1670,-114l-580,-47l-1034,61l-739,23l-516,16l-461,-188l-9,-12l-368,-346l-344,-674l-157,-182l-459,-29l-289,-316l-325,-548l-119,-200l-551,-571l-20,-361l-104,-67l82,-638l-621,52l-411,-440l-358,-64l-204,-269l-650,1l-266,-334l-202,-255l-485,-283l-57,-503l-510,-323l-377,-238l-337,-577l-96,-399l-130,-106l125,-283l-111,-370l227,-118l26,9l13,-8l36,-3l9,9l15,-8l16,18l16,6l8,-4l15,7h14l33,16l8,24l-5,7l22,18l15,2l13,11l1,11l20,5l17,-16l14,3l21,-6l14,-14l25,8l16,-7l9,11l17,1l33,18l19,20l18,-19h9l9,-13l13,5l18,-14l30,-4l21,8l0,14l34,-2l13,-12l49,16l15,-2l8,-8l19,-5l25,5l15,-2l17,-10l27,-2l23,14l12,-2l12,15l2,16l16,25l-19,17l11,10l-3,17l-26,23l7,10h13l2,18l18,21l-12,20l8,3l-17,25l15,5l5,24l21,26l25,3l5,6l-10,25l26,28l2,10l29,34l5,16l-14,9l14,9l9,33l-6,13l25,30l16,32l10,3l11,24l2,24l15,18l22,1l-6,23l27,-13l8,13l20,5l-2,16l20,12l-2,33l17,-1l3,-37l18,15l23,45l36,15l-1,19l18,14l19,-22l2,-18l10,3l5,15l-14,17l43,-4l23,10l14,-14h17l32,-18l13,14l7,21l42,3l19,-6h40l24,18l-15,11l-2,15l20,-9l21,10l10,32l14,7l-2,10l17,24l22,15l-7,21l15,5l15,-2l7,15l24,-2l3,9l-3,28l29,2l-5,18l34,30l-5,14h14l24,15l11,-13l14,44l11,8l-19,19l12,22l-3,23l36,13l1,13l11,8l4,13l-3,23l23,15l-2,13l21,12l-10,24l27,10l27,-9l34,14l1,15l-11,19l13,10l-5,34l13,5l21,-6l10,8l-4,26l12,30l14,-10l14,2l11,13l5,16l-4,14l12,4l-11,15l22,39h10l19,-8l19,15l8,18l22,12l29,4l10,6l1,28h17l7,14l48,10l30,-11l1,-25l9,2l8,15l32,13l12,-18l23,6l16,27l-2,28l9,18l0,13l11,19l-13,31l15,4l15,-7l-4,-16l23,-21l24,4l10,12l-10,18l6,8l20,-17l23,-2l17,5l-2,18l10,4l14,-3l11,-16l11,-7l12,5l-9,11l-1,16l14,-1l9,-14l13,-5l5,14l0,19l10,7l23,-4l16,-9l31,-31l15,5l29,23l18,-15l15,13l14,39l23,-11l14,1l-13,39l35,18l4,10l-13,16l0,11l-11,12l16,24l39,10l9,19l10,-13l14,12l-2,12l-14,8l-23,-3l-3,15l27,15l-9,34l28,10l18,11l9,-7l12,8l0,18l8,5l26,-21h7l18,16l-5,22l29,19h10l45,-9l4,16l-21,22l-3,21l9,5l30,-21l25,-3l9,-12l26,-13l17,17l-21,7l-3,15l24,13l5,25l9,14l-4,20l-12,22l4,17l-5,14l-17,13l1,12l14,10l1,9l-24,3l11,13l20,-2l7,11l-27,29l3,8l18,-4l21,-9l8,5l-22,23l6,15l25,39l23,24l-5,11l-39,-1l-7,6l16,15h17l9,16l-2,34l6,10l19,-2l0,-19l14,-6l33,15l14,17l14,-1l24,12l14,-15l7,-40l20,1l47,-37l-9,-11l12,-13l7,28l11,8l18,-8l28,37l2,9l-22,20l17,10l11,17l-25,-2l-14,14l8,10l13,-8l26,-3l6,8l-4,14l12,9l13,-8l14,10l3,16l11,37l20,18l12,-13l20,-2l42,26l7,18l27,-4l0,-18l6,-5l12,22l11,31l28,3l19,-4l11,6l16,22l-2,29l23,8l11,-14l13,-4l11,5l0,11l-11,11l13,10l20,8l22,1l2,-20l31,-5l14,10l-12,18l-16,-14l-7,6l3,14l14,7l36,8h25l3,12l22,1l-6,15l31,31l31,15l-2,18l6,12l17,-7l-11,-34l3,-25h21l-10,26l6,14l17,-1l7,12l13,39l11,2l39,-21l8,16l-25,3l-15,14l5,17l19,22l12,6l-3,-29l15,-6l20,18l3,9l-5,56l6,16l-5,11l-16,3l-5,8l5,24l8,4l19,-20l7,6l-3,19l15,4l18,-8l9,-16l25,8l-1,16l-29,1l-6,18l32,10l10,-2l37,-34l11,-20l13,6l-11,26l8,24l13,15l21,-9h10l11,20l-17,10l-26,11l-11,14l7,41l34,5l1,9l-7,42l9,6l52,5l12,5l9,18l-2,32l4,24l10,11h19l9,-8l23,-39l12,-14l10,4l0,15l-16,29l0,9l22,12l31,9l-13,37l6,30l18,14l-12,22l22,9l21,-10l6,-17l8,-2l12,23l10,7l7,-20l9,-11l20,-1l-2,15l11,8l14,-27l8,-2l14,11l-8,30l-15,7l1,8l26,7l-7,19h-17l11,49l6,13l-12,18l8,18l13,14l49,5l32,-33l-5,-9l-18,-6l11,-12l21,21l33,24l9,15l23,23l17,2l14,-9l12,14l9,24l11,2l20,-16l2,-26l14,-2l7,16l0,12l-16,28l11,16l27,-19l9,7l-8,25l28,-2l1,-24l16,39l11,8l20,-10l-4,-18l9,-18l22,-4l20,20l28,-14h12l11,-12l12,4l10,33l5,37l22,-2l17,-33l14,-6l34,-8l11,-11l-19,-39l11,-5l75,58l29,24l15,21l6,-5l8,-26l-28,-22l-13,-17l11,-16l20,-9l11,1l-1,17l51,9l-7,51l17,9l19,5l36,14l26,24l17,7l12,-4l19,11l12,-2l18,-12l-9,-17l0,-14l15,-1l18,10l29,9l11,13l13,-3l2,-11l-14,-32l19,-6l-3,-58l1,-42l-3,-12l-24,-28l-28,-13l-43,-9l-50,-4l-15,-5l-13,-13l5,-25l21,-35l24,-32l16,-18l16,-30l3,-16l-11,-18l-28,-9l-42,5l-6,9l-1,21l-8,43l-20,21l-26,4l-21,-2l-15,-6l-6,-12l-6,-54l-9,-44l-3,-28l2,-23l15,-23l21,-21l30,-23l36,-9l13,-17l1,-23l-4,-14l-21,-29l-6,-27l-1,-64l3,-28l-7,-23l-12,-11l-23,-10l-21,8l-18,31l-32,26l-27,5l-23,-11l-12,-13l-1,-19l14,-42l-21,-24l-6,-17l-14,-10l-45,8l-23,-8l-21,-14l-18,-24l-14,-25l-6,-41l11,-45l13,-8l21,-2l28,2l13,-5l17,-19l6,-15l-1,-17l-7,-21l-24,-27l-31,-16l-41,-6l-63,-1l-18,2l-25,13l-54,70l-18,6l-23,-7l-2,-11l14,-17l17,-26l3,-34l-8,-26l-14,-27l-20,-55l-23,-31l2,-12l9,-7l81,-13l22,-9l27,-28l21,-41l16,-28l-1,-25l-5,-10l-37,-36l-26,-10l-41,4l-16,6l-30,20l-19,30l-7,23l-20,27l-15,12l-15,-1l-19,-31l-23,-22l-24,-3l-24,5l-20,17l7,26l20,36l7,22l-1,23l-10,31l-16,25l-23,15l-21,6l-32,-9l-38,-34l-12,-16l-13,-35l-2,-20l2,-32l45,-22l23,-18l19,-22l6,-13l39,-20l14,-28l-15,-54l7,-11l-5,-16l2,-17l-18,-2l-26,-10l3,-14l21,7l26,-4l1,-14l10,-17l-12,-15l0,-11l-16,-9l6,-16l-5,-10l-2,-23l-20,-33l-16,1l-10,-14l-17,-2l-37,-28l-5,-9l15,-10l-6,-17l15,-11l-4,-13l29,-24l17,-9l-11,-13l8,-31l-12,-20l6,-10l13,9l10,-5l-8,-39l15,1l8,-11l2,-20l14,-3l-5,-32l23,-23l24,-19l-21,-21l4,-15l20,1l5,-14l11,-11l17,3l7,-47l13,-7l-1,-13l13,-7l14,12l6,-8l-6,-14l6,-16l-4,-19l20,-36l6,-18l18,1l-4,-13l20,-2l-5,-23l19,-4l12,-20l-4,-14l19,1l12,-17h8l7,22l17,4l6,-16l12,-1l10,11l31,-11l19,3l17,-20l-5,-19l13,-15l6,-30l18,-29l19,12l7,-11l35,-21l-1,-17l12,-6l2,-33l14,-13l3,-33l21,-16l-10,-11l20,-27l-9,-9l18,-15l-2,-13l13,-4l4,-17l-10,-5l8,-34l9,6l10,-9l6,-21l-9,-5l2,-18l29,-8l9,-13l29,-16l-12,-16l-25,-6l-6,-20l11,-1l12,-15l-13,-29l9,-19l-17,-6l5,-10l-10,-14l-27,-19l8,-17l-21,-9l-11,-20l8,-7l12,-26l1,-11l-12,-15l3,-15l11,-22l-15,-10l-24,-29l-26,-4l-8,-9l1,-60l11,-6l12,-19l-2,-12l15,-13l-11,-16l10,-9l-7,-11l-2,-16l-10,-1l1,-14l-19,-3l-5,-15l-27,-21l-4,-16l-17,-7l-10,-18l5,-8l-13,-21l-17,-7l-5,-9l-13,-2l-17,-35h-8l-15,-16l-2,-13l-14,-2l-13,-15l-9,5l-20,-10l-18,5l-25,17l-6,11l-29,8l-14,12l-18,7l-6,16l-24,9l-10,24l-21,10l-20,-11l1,-9l-29,-13l-14,-11l4,-13l-18,-1l-12,-10l-3,-23l0,-33l6,-8l-7,-34l-17,-10l-8,-18l-10,-10l5,-10l-8,-12l-11,-38l-22,7l-6,-4l-29,19l-27,6l-2,6h-46l-26,-4l-14,-5l-34,-27l-9,-12l-2,-33l-14,-17l-2,-45l-4,-15l-18,-8l-32,-5l-11,-14l-22,-10l-5,-10l13,-34l2,-35l15,-46l0,-2470l-3,-162l-2,-1329l8,-1352l-2,-614l-1,-849l-3,-1956l0,-93l0,-963l0,-996l-1,-889l909,648l7,37l32,-10l21,-11l30,-22l9,-15l17,-62l12,-23l36,-38l27,-17l25,-9l42,-5l10,-5l-1,-20l8,-2l17,-26l15,-17l5,-17l25,-20l38,-16l16,6l26,-9l16,6l12,-16l15,-1l0,-12l10,-9l24,-11l10,-27l11,-17l13,-5l-1,-13l12,-12l9,-2l7,-29l11,-15l2,-32l19,-5l21,-29l20,-6l8,7l20,-20l7,-12l27,-9l20,-20l16,-3l1,-9l18,-11l6,3l23,-9l-1,-11l7,-20h11l10,-28l17,-17l-6,-8l22,-22l6,-28l16,-11l1,-15l11,-21l17,-8l-2,-22l6,-5l-2,-20l7,-7l-3,-13l16,-13l18,-30l-5,-13l-12,-12l-2,-12l-20,-32l14,-11l-1,-14l13,-5l11,-25l17,-8l27,-2l21,5l24,-5l12,17l20,-4l10,9l8,-19l13,6l17,-2l21,-11l33,-13l13,8l12,-11l22,-6l-2,-12l19,-9l15,-26l13,-3l10,16l14,-14l7,7l28,16l20,-8l24,4l42,-9h15l15,-16l16,-1l10,6l9,-8l20,-8l3,-13l13,3l3,-17l9,-13l-5,-17l5,-17l16,-11l17,-3l10,-16l31,-12l23,27l17,-15l27,1l10,-13l39,7l30,2l19,-3l15,10l12,2l20,-15l15,-34l1,-16l30,-2l22,-15l19,2l10,-6l38,11l11,-13l12,-5l19,16l27,2l10,8l28,2l32,-7l16,-16l19,4l21,-5l17,-12l12,5l17,-17l20,1l41,-5l37,22l23,-4l11,24l27,9l40,-8l1,15l22,13l21,6l17,21l21,31l13,-4l20,16l13,3l25,-8l23,-18l13,-4l42,-1l9,16l24,-3l16,9l16,26l-6,16l12,12l34,-7l25,-10l19,25l9,5l17,-4l17,10l63,1l20,7l19,19l11,-6l4,-18l15,-6l42,-1l10,-12l30,-15l9,7l0,14l9,11l28,-6l28,-13l40,13l14,-3l18,-25l12,-3l26,31l12,-1l13,-9l27,-9h28l8,-15l19,-8h32l17,22l42,14l21,16l8,17l0,27l14,4l27,-2l16,-6l24,12l34,6l11,37l19,-1l19,-13l3,-14l9,-4l34,23l18,2l20,13l13,-8l4,-10l21,-16l25,2l9,11l-14,40l5,9l19,7l5,10l-1,16l10,4l21,-13l22,27h27l39,9h19l41,23l-8,16l-20,16l-1,11l15,13l15,3l13,-5l54,-8l9,2l10,15l2,20l14,33l11,21l15,10l40,19l5,10l32,5l24,-4l15,9l25,39l16,-2l19,-10l9,6l-1,19l-16,49l-5,39l14,13l26,8l29,5l19,7l16,-1l25,-33l14,-3l4,9l-3,34l-10,33l12,17l20,12l18,5l12,-3l8,-13l9,-33l16,-3l6,9l8,35l13,13l24,1l10,-9l1,-14l-14,-32l2,-17l13,-10l14,15l-2,16l12,3l38,-17l20,-2l13,-7l14,-27l27,2l28,14l4,14l-9,29l-1,14l14,4l30,-14l50,11l33,23l27,11l11,17l5,23l10,7l52,-13h16l29,20l-5,21l-20,4l8,47l18,-2l36,-22l15,-13l24,-28l18,6l-2,36l2,14l47,28l18,3l19,-2l26,-11l11,3l12,16l51,51l16,20h6l39,-27l15,8l31,-2l23,53l-2,40l-6,21l16,24l27,1l14,-10l-5,-28l8,-10l31,-6l14,-8l11,4l13,15l-2,27l-9,34l4,33l19,20l18,-13l5,-24l10,-19l43,-10l28,25l16,3l11,10l-4,9l3,17l30,9l14,9l12,14l49,-7l10,11l-36,19l-11,14l2,8l30,8l7,-3l8,-26l12,-3l21,17l9,17l2,21l-16,25l1,13l15,5l46,25l16,2l13,-6l41,-11l19,8l60,43l45,-20l36,2l23,-17l1,-15l-12,-43l7,-15l23,-11h24l11,4l11,17l-9,46l9,15l43,27l29,-10l52,7l26,22l15,3l42,-21l58,-9l62,-16l51,5l17,-7l17,-46l18,-12l11,2l19,16l44,26l46,2l16,-50l5,-24l17,-7l17,23l14,47l11,24l7,6l32,3l31,-7l34,-2l13,-11l12,-29l9,-11l44,16l27,4l14,-16l-18,-33l7,-10l30,4l30,2l18,-3l20,4l20,16l79,21l12,16l-1,21l42,-7l24,-6l51,5l12,-12l-1,-10l14,-36l8,-7l32,-14l18,9l15,35l20,12l14,-1l22,-23l21,-14l18,-24l12,-5l46,12l11,6l23,30l21,11l19,-14l0,-21l-11,-8l-30,-9l-23,-41l15,-15l66,-17l19,-1l13,7l10,24l18,-2l22,-42l22,-30l35,-14l8,-23l11,-14l22,-17l17,-34l9,-55l49,-24l13,-9l1,-11l-10,-10l-16,-41l4,-15l16,-16l19,-5l22,7l70,40l30,30l16,23l10,5l36,-19l8,-45l0,-44l24,-13l22,6l28,22l20,6l9,9l14,32l13,11l26,17l25,10l14,-14l-6,-12l-4,-24l5,-16l12,-8l9,2l11,41l6,7l30,20l30,15l30,-5l11,2l33,32l36,6l22,9l49,-13l24,-13l11,3l22,31l22,22l24,17l25,23l59,2l35,-8l44,-6l41,-21l71,-16l40,18l33,28l28,14l22,17l21,1l37,-13l15,-20l9,-25l11,-16l19,-14l18,4l5,9l-7,17l-28,23l-7,17l6,42l4,7l32,17l35,12l16,1l33,11l34,20l19,-8l1,-14l23,-44l15,-7l22,19l26,36l6,27l76,-13l23,-7l15,-10l20,-28l14,-1l31,19l27,-14l33,-10l33,-17l36,-1l27,12l13,-3l-4,-55l29,-7l26,3l35,10l11,13l-12,46l-11,16l-4,18l2,29l19,18l22,10l64,11l34,-13l26,1l29,12l28,-1l17,-12l8,-13l28,-3l34,-19l21,-23l19,-6l32,9l17,13l7,15l0,27l6,13l15,-4l17,-19l-7,-32l1,-22l23,-25l21,-31l22,-21l13,7l32,8l32,-1l38,-21l21,-26l14,-1l16,19l2,18l-22,34l-4,22l13,6l31,6l13,-5l9,-11l38,-36l29,-12h37l15,8l20,34l16,-4l18,-23h10l13,61l1,20l-5,26l3,18l40,16l35,2l64,6l31,5l14,-8l26,-23l21,-14l15,8l31,27l1,10l-8,42l3,22l18,9l22,10l44,2l18,-3l13,-16l4,-27l-6,-27l2,-17l11,-30l8,-6l15,5l13,39l21,21l17,26l34,-9l16,-15l8,-48l8,-31l28,-48l11,-11l27,-5l18,20l-1,13l-15,12l-16,1l-12,8l-10,17l0,33l14,6l40,10l33,-3l5,-18l-15,-11l-10,-20l2,-7l22,-14l9,-17l17,-2l30,24h11l21,-20l-5,-22l5,-68l7,-30l13,-16l15,-4l10,6l6,17l-1,36l6,28l-4,31l-15,36l3,6l34,19l27,-8l37,-7l32,-18l28,-33l24,-3l14,15l-8,24l-22,21l-8,15l25,18l27,2l16,-4l-2,-10l14,-15l25,13l11,-1l15,-15l-23,-69l3,-21l33,-34l17,-6l4,9l3,60l16,24l24,19l11,1l12,-12l4,-16l-3,-31l24,-26l23,-11l13,2l13,15l5,74l-3,24l10,31l13,1l22,-9l11,-63l4,-9l15,-8l40,1l26,4l45,-11l19,-19l23,-13h21l46,19l60,-36l15,-3l42,8l10,12l-3,19l-10,12l4,14l21,5l18,-7l40,-41l17,-47l10,-17l14,-2l22,18l10,19l-4,9l-34,14l-9,7l-4,21l3,19l14,6l27,19l32,4l32,-3l19,4l49,-10l22,9l30,20l11,2l15,-9l2,-23l-11,-17l-15,-7l-35,10l-14,-1l-6,-19l7,-12l34,-21l45,-8l21,-7l28,-6l42,-5l25,12l25,28l13,41l3,29l15,5l26,-28l33,-42l15,-16l49,-3l20,-40l11,-32l10,-19l14,-1l31,22l43,41l21,11l40,25l13,4l27,-1l37,-18l25,-6h14l16,16l17,9l15,-21l9,-32l15,-25l32,-12l86,-19l4,-11l-1,-27l6,-10l29,-16l17,-5l34,-1l10,7l21,47l23,37l23,19l20,1l13,-8l0,-18l-38,-27l-20,-28l8,-20l8,-4l36,15l59,12l12,-9l-1,-12l-55,-35l-14,-15l2,-16l29,-8l69,26l27,13l23,-12l0,-20l-14,-17l10,-15l13,19l25,14l41,35l23,12l19,4l30,-10l12,-21l0,-39l-11,-28l-7,-33l1,-12l13,-8h17l15,16l25,51l9,24l22,10l41,-14l14,-19l22,-61l8,-6l27,2l30,11l50,41l37,33l18,25l30,-7l25,-21l20,-32h18l24,44l32,43l10,2l20,-18l8,-17l0,-55l5,-16l10,-9l22,-8l21,-32l10,-28l7,-6l30,14l18,17l17,22l29,59l33,4l4,-13l-10,-9l-10,-20l-1,-19l9,-10l20,-2l34,3l36,38l11,7l10,-5l8,-38l15,-35l14,-16l14,-6l18,3l35,39l13,1l0,-37l-8,-17l0,-12l21,-38l20,-8l10,4l24,20l17,7l44,1l21,-17l7,-10l3,-22l-4,-15l-20,-11l-24,-19l-9,-18l15,-8l28,-4l37,8l12,-6l4,-11l17,-20l13,-21l22,-11l10,10l12,32l11,16l14,4l17,-8l-3,-29l2,-24l12,-20l11,-7h15l64,21l8,7l-1,16l-15,12l-18,43l-1,32l19,10l15,-2l25,9l17,9l11,15l50,49l21,12l33,7l24,-5l16,-26l21,-21l29,4l18,11l38,16l14,-11l-19,-49l-31,-40l5,-22l6,-11l17,-10l70,-1l6,-11l-9,-47l0,-18l18,-9l30,14l31,21l19,24l14,24l41,-9l6,-10l4,-59l5,-8l43,9l11,-28l5,-33l12,-2l9,13l16,35h14l39,-47l42,-36l28,-3l18,15l14,32l13,40l16,16l56,35l18,21l9,-1l26,-30l37,-25l1,-46l34,-26l46,-23l15,-2l18,8l14,40l1,16l-10,14l-19,16l-18,-3l-2,-10l1,-33l-18,-11l-22,14l-6,8l-7,41l20,26l10,4l33,-8l63,6l9,-8l1,-31l23,-14l43,-6l50,-20l7,1l10,32l2,17l-7,33l-9,19l0,16l37,19l23,21l23,32l13,36l9,11l28,10l33,3l17,-12l11,-41l-11,-15l-15,6l-21,-2l-4,-13l30,-21l36,-7l18,8l27,73l10,14l11,-4l19,-16l41,-15l5,-17l-4,-18l-12,-9l-27,7l-12,-9l7,-22l20,-34l17,-5l20,5l13,15l11,22h14l13,-16l22,-10h16l27,13l11,11l5,15l11,4l73,-4l7,8l-17,11l-54,18l-18,20l5,13h58l30,-5l10,2l30,46l37,1l28,-4l2,-12l-9,-13l-55,-30l-6,-9l8,-29l12,-7l50,8l17,-2l12,-22l-10,-26l-8,-52l-1,-17l6,-19l13,-14l20,2l10,17l-16,41l3,38l4,10l28,13l16,12l7,24l18,7l15,-9l-11,-31l2,-19l7,-8l18,-6h17l27,7l22,-21l62,37l16,6l32,28l13,2l9,-12l-21,-16l-2,-11l18,-32l8,-23l-18,-13h-29l-18,-16l-6,-45l16,-19l23,6l10,20l2,27l9,12l43,34l15,6l21,-3l18,-8l7,-16l-5,-10l-35,-45l3,-21l13,-10l14,4l-1,-16l-11,-10l-15,6l-5,-13l-27,-5l-2,-9l19,-6l4,-21l10,3l4,-20l-22,-22l15,-10l-1,-30l5,-18l-19,-19l-34,1l-31,-18l-9,-17l1,-17l-9,-24l-26,-3l-7,-25l-10,-5l-8,-16l2,-15l33,-8l10,-11l20,-13l4,-14l-27,-16l-7,-9l-12,-33l0,-17l-11,-12l0,-10l15,-18l8,-19l25,-40l24,-1l12,-5l12,-21l-2,-10l-14,-27l-7,-22l11,-17l29,-5l31,-14l11,-21l13,-15l4,-20l14,-25l22,-19l26,-10l11,7l1,12l12,8l50,8l19,-14l9,-15l22,-16l29,-25l53,-26l5,-10l-4,-22l0,-31l-10,-16l0,-28l14,-22l27,-22l15,-18l10,-19l21,-26l21,-41l5,-25l-1,-27l-9,-43l-27,-30l-13,-18l-2,-29l1012,200l719,142l4,25l-6,39l2,31l16,32l15,19l27,21l32,14l60,14l31,11l47,21l17,16l18,30l28,33l21,16l46,60l22,44l1,44l12,15l13,8l20,4l26,20l18,23l36,24l52,41l13,4h24l29,17l15,-5l19,-17l21,-7l30,12l35,10l21,2l21,-8l9,6l14,25l19,8l27,2l18,7l25,-7l33,1l51,-2l8,3l9,32l22,13l13,14l10,33l7,11l22,8l5,15l11,11l16,3l32,-11l11,-26l17,-33l22,-20l28,-3l23,5l22,11h14l21,-25l29,-13l9,-12l-9,-28l10,-17l20,-9l2,-21l14,-17l19,-3l29,12l31,7l34,20l20,20l25,31l20,44l5,36l-4,27l-18,25l-7,28l19,44l9,27l13,21l18,17l55,27l30,18l75,31l82,41l53,11l35,9l22,-6l29,10l12,-2l14,-23h10l10,13l51,-25l-4,-31l17,-14l17,-5l29,1l22,16l20,7l14,12l19,32l8,28l20,30l14,9l52,16l33,14l7,6l22,31l16,9l77,10l34,-2l18,5l26,18l20,4l30,-24l20,-1l17,9l35,4l19,10l40,36l11,21l-1,27l25,17l31,26l17,4l13,-9l9,3l19,19l29,11l10,8l35,49l25,40l31,25l31,5l48,23l23,24l1,22l5,9l15,8l11,16l3,19l17,22l2,14l11,13l3,21l-8,20l10,12l-11,11l17,40l4,19l-14,10l16,7l10,12l10,30l-22,38l14,15l1,15h12l11,9l0,13l19,21l-9,22h14l8,12l10,-2l19,9l5,15l13,14l11,4l9,16l15,-5l10,4l22,-2l19,8l16,23l-3,13l6,17l-5,10l17,13l-8,12l4,14l18,13l2,16l-10,9l13,18l-10,16l-9,32l7,7l-13,19l5,13l12,6l17,-5l0,12l34,41l6,2l0,24l17,8l8,23l-5,18l10,45l-11,18l8,7l1,13l16,-8l15,9l15,-4l11,9l29,5l12,-9l26,7l10,9l-1,21l38,15l2,12l9,10l-3,23l11,8l22,8l-8,17l8,15l8,2l2,19l9,7l-2,15l28,12l5,9l20,-11l6,14l13,3l9,11l-4,14l12,3l26,17l20,6l-8,17l14,9l16,18l2,18l14,11l21,2l-7,16l7,16l25,-3l8,12l14,-2l6,12l17,3l3,13l29,15l0,28l13,2l2,11l11,9l7,27l21,-5l24,21l12,4l16,15l-5,12l18,3l-3,12l11,18l21,5l5,17l20,3l9,11l-8,8l9,14l-2,15l19,6l39,24l9,26l-7,13l15,23l10,-7l12,11l25,3l13,10l10,-7l15,19l12,3l25,47h19l-6,14l7,12l-14,8l7,9l-11,15l6,28l-18,13l-3,15l15,27l13,-1l4,18l18,8l-11,8l10,14l-11,19l9,12l31,23l-3,9l21,6l4,11l-17,6l-9,21l-26,25l5,10l-8,15l-18,-7l-9,9l-4,20l7,14l-6,35l-12,18l6,10l-9,11l9,18l-4,17l-13,2l-1,22l30,20l-5,15l7,28l-5,31l13,-9l14,-1l16,20l-19,18l45,21l16,-8l22,23l-25,21l3,15l22,-6l12,11l17,-6l14,24l8,22l16,-3l-6,25l11,6l24,21l28,20l3,-14l23,16l15,19l-18,20l6,9l22,1l-6,15l5,16l12,7l20,-7l24,6l14,-7l41,6l22,24l-2,13l-16,7l25,21l8,12l12,-1l9,23l25,-5l12,10l16,43l29,-23l15,8l38,-4l15,22l7,-8l11,11l41,-1l6,17l23,-3l-3,23l27,1l12,12l9,-5l11,9l-7,12l16,6l-9,11l-21,-10l-12,25l23,3l-16,18l11,15l19,-8l3,10l16,-7l3,-14l19,9l14,15l9,2l12,15l-10,25l40,7l38,5l-3,-13l13,-5l6,18l-5,16l22,4l7,-6l26,-4l44,-19l19,13l10,18l10,-2l-4,-17l5,-10l27,5l19,-5l5,-17l32,19l6,-12l11,-1l5,-17l14,6l13,-21l27,-13l19,2l15,-6l1,-23l17,-5l13,-23l6,13l18,-19l7,15l18,18l14,-2l9,7l-5,28l16,11l23,-5l25,5l0,15l24,17l2,20l33,4l25,-5l15,-17l5,18l17,-7l1,-15l14,-6l13,1l9,16l9,-12l30,3l18,-27l9,10l22,-15l37,1l6,-14l20,19l15,-2l18,-9l25,17l19,4l3,8l32,13l19,-3l16,4l15,-9l27,22l29,8l-8,26l5,10l17,-4l6,18l8,8l-2,16l38,-3l18,6l8,-13l19,-2l5,-17l19,15l12,-14l14,1l-5,-21l12,1l7,-11l10,6l9,-7l24,28l12,9l-5,17l-12,10l37,1l1,8l20,9l8,-6l23,-2l12,6l10,-13l17,4l16,-3l0,-10l19,-30l19,9l4,10l17,-2l9,6l29,5l6,14l30,1l12,-17l13,-11l10,1l5,-16l29,-3l0,-26l18,8l11,-30l16,23l20,-8l14,4l41,-5l0,-33l22,-1l9,-6l18,9l10,-1l22,25l13,-1l3,-12l29,-22l16,-3l33,19l18,-9l5,-25l25,3l3,-17l20,-9l12,2l3,-15l19,-2l-3,-17l-10,-11l-2,-16l12,-16l18,3l6,-10l28,14l6,16l21,11l11,-11l-5,-7l5,-19l14,3l11,-27l14,-5l3,-12l16,1l16,-19l31,7l-3,-18l20,-11l-1,-14l12,-2l-3,-13l21,5l10,-14l18,-8l6,14l19,-2l2,-15l11,-11l11,-2l5,21l11,-8l16,-1l5,6l19,-18l-2,-18l21,2l-4,-12l11,-11h22l8,-30l17,-2l17,9l12,-21l19,8l10,-6l3,-17l19,3l-2,12l15,12l11,1l4,12l11,3l32,-18l6,-26h13l-2,-20l11,-10l-13,-15l0,-17l17,-10l20,7l13,-6l5,-17l16,10l28,-10l5,14l11,-1l-9,-19l11,-20l-2,-30l8,-22l-8,-19l8,-8l35,4l28,-21l11,-2l5,-26l9,13l28,-6l7,-11l16,-2l20,21l-6,18l5,16l20,13l12,-8l14,-22l9,-1l6,-13l21,17h18l19,14l19,2l12,10l41,-17l10,-22l6,15l-8,26l18,5l-26,16l17,6l12,17l-5,21l22,1l56,187l73,239l19,31l15,50l23,81l22,74l5,42l60,198l15,46l36,-4l13,-8l34,-36l74,-46l7,-1l21,12l29,24l84,79l20,8l10,14l19,16l6,14l0,18l19,12l21,28l-4,34l13,51l1,33l55,45l55,31l99,48l46,56l34,217l14,64l10,7l33,7l11,13l5,44l22,36l24,20l24,6l31,-7l113,50l32,19l61,40l11,13l49,59l68,37l57,19l43,28l69,15l70,26l13,2l54,-13l25,6l50,45l17,26l198,104l33,20l43,19l102,24l46,62l77,63l67,1l41,9l34,-8l37,11l21,14l11,-6l17,6l24,27l14,9l13,1l15,10l15,17l0,15l13,12l-5,17l-7,7l6,25l8,4l10,31l-6,12l20,19l-8,10l24,23l11,2l10,14l28,-4l7,-11l20,-5l26,1l25,17l16,3l14,22l12,11l-3,13l2,24l12,6l3,10l-18,16l9,12l-9,21l-4,21l-6,6l2,29l-14,10l-2,23l14,18l-2,17l-12,15l-16,4l-10,21l-16,3l-4,-10l-16,5l-13,12l-7,18l4,10l-6,19l6,9l25,15l1,22l11,10l25,6l4,13l37,20l-4,14l10,22l14,-3l16,10l15,22l-5,9l18,20l27,-9l17,3l9,15l31,-14l-1,-20l14,-11l10,-20l13,11l-6,12l15,12l9,-18l20,-21l11,-1l3,15l20,-4l3,-7l37,-15l-13,-29l17,-16l23,31l19,-21l25,17l26,4l20,-2l-2,15l25,18l-4,7l11,13l14,-10l20,-7l14,1l8,-34l-2,-21l6,-19l33,-8l1,-31l4,-8l29,-10l-10,-16l7,-11l28,14l2,-13l17,6l3,21l-15,12l-7,29l0,20l-14,5l6,22l12,7l18,25l25,-1l13,-7l2,14l20,4l-1,12l21,2l27,-19l0,16l24,-2l12,-15l42,-15l0,-31l23,5l12,-12l16,11l7,14l14,11l10,-15l24,2l23,-4l3,11l12,2l2,13l10,22l25,-5l10,9l9,-16l19,6l0,20l-11,13l14,12l0,17l-15,-7l-4,17l-8,6l-17,-4l-26,12l9,11l-15,16l0,11l14,2l4,26l-9,11l-22,12l5,8l21,8l7,9l-9,30l5,23l13,15l-15,22l12,12l-24,16l-5,16h-15l-1,11l8,13l-30,1l0,12l-20,3l-25,13l-3,15l-10,18l4,20l8,3l6,25h11l10,47l16,9l11,-12l8,29h-15l2,16l8,5l26,-5l17,13l8,17h25l10,-8l14,2l18,-7l7,-14l27,-12l9,6l15,-1l4,-20l20,8l2,22l18,-9l4,7l26,2l4,-7l-9,-17l10,-13h24l13,13l9,-2l4,20l16,6l3,11l39,6l17,-4l22,-13l29,-3l17,-6l-1,-24l28,-4l7,-13l11,9l15,-4l5,-21l17,-3l2,-24l26,-2l-9,-32l20,13l15,1l3,20l22,2l18,9l9,-1l22,10l17,-5l33,27l17,4l6,18l9,4l28,-2l13,4l-4,26l18,23l34,-1l13,9l0,13l48,3l15,5l12,-8l29,-2l11,15l15,-5l27,-24l-1,-21l13,-28l15,-7l6,23l8,6l18,-6l1,-18l9,-11l15,-8l0,17l7,11l13,3l19,-3l15,2l15,-11l25,4l11,10l12,-13l12,4l6,-11l11,7l36,-20l-10,-11l7,-17l34,-19l4,-14l-4,-16l15,-3l-6,-15l3,-14h19l-3,-33l12,-8l22,22l15,-2l28,-13l32,-1l39,13l36,5l41,24l22,24l-4,28l22,11l31,1l10,7l14,-8l21,3l10,11l42,15l17,25l10,-5l-2,-15l19,-13l11,2l12,38l17,13l16,23l-9,33l10,7l12,-4l17,-35l13,3l7,31l8,3l17,-17l21,3l17,9l3,10l-16,20l-17,4l-11,9l-17,21l-9,3l-41,-8l-14,9l-2,24l17,19l18,36l-4,27l4,8l34,24l62,32l16,17l21,-7l25,-15l17,-3l24,2l55,16l18,27l34,-4l8,9l2,21l11,5l47,-13l0,31l7,13l14,-2l14,-10h25l15,-12l25,-1l18,-7l-6,-23l-14,-15l10,-12l40,1l11,9l7,16l10,1l14,-12l16,-4l19,30l7,20l9,4l31,-16l15,4l18,11l49,19l32,14l24,21l14,5l17,-12l14,1l8,10l2,17l11,7l19,-6l23,11l-4,13l-21,2l-21,9l-7,14l21,45l35,18l25,2l11,-11l11,4l2,30l4,7l20,3l19,-4l22,-23l14,2l8,24l11,22l19,29l9,3l48,-20l13,6l-1,27l5,9l21,-9l37,2l-5,-17l5,-16l19,-5l31,43l20,12l8,13l-1,35l10,19l15,4l24,18l6,10l-15,61l-6,42l2,24l14,9l10,-5l17,5l14,4l18,-11l15,-3l18,10l11,19l-4,49l7,5l22,-9l31,15l0,23l-29,22l-27,-1l-12,-5l-9,-13l-12,-6l-25,13l-3,15l16,23l1,19l6,9l44,5l7,6l-2,19l-10,11l-1,13l14,8l-5,12l-32,6l-5,9l7,14l2,27l35,6l8,-14l-13,-24l8,-18l16,1l12,8l20,23l22,11l29,24l14,26l20,-17l34,-3l16,5l-11,23l-30,25l-25,3l-2,17l20,4l29,14l8,21l13,3l19,-20l-6,-13h-23l-9,-6l-2,-17l28,-14l14,2l28,-5l11,2l15,18l31,21l2,9l-6,25l32,22l7,-7l-1,-17l9,-11l27,-12l0,-10l-16,-2l-10,-21l4,-12l27,7l29,24l19,21l3,12l-2,32l14,69l17,31l5,28l19,27l0,15l-12,15l2,39l10,16l38,30l26,10l53,-13l13,12l-17,38l-2,25l6,7l31,-15l15,15l26,10l15,12l11,20l36,-19l24,4l20,-2l8,-5l18,-27l10,-4l20,20l-2,58l-5,18l-11,15l-27,19l-32,5l-8,13l2,31l12,8l17,-1l16,8l9,-5l1,-21l16,-11l26,6l6,12l-8,13l-10,40l9,4l39,-11l23,-12l15,10l-2,29l19,13l35,-6l6,16l-18,14l8,24l-9,18l7,11l-3,18l-10,15l7,9l27,4l7,-3l7,-23l27,-19l18,-4l6,7l-5,37l-2,49l2,28l14,36l16,3l10,-17l-15,-34l2,-28l11,-16l17,-1l16,12l18,21l2,10l-20,34l20,41l12,-7l17,-35l9,-7l21,-3l10,6l21,65l-4,14l-21,2l-12,17l0,11l19,26l2,11l-34,30l9,18l13,12l16,4l14,-4l46,-42l11,7l3,13l25,-3l21,1l49,-12l22,16l5,13l17,-7l-2,-14l-23,-15l5,-21l22,-1l11,15l11,1l46,-6l9,3l27,26l24,1l7,14l-11,34l-11,14l-3,13l5,16l-4,16l-10,12l2,13l23,10l23,4l20,22l-3,10l-22,12l-1,15l16,17l26,15l45,-11h25l30,12l33,40l9,28l8,10l48,23l13,2l32,-5l13,12l-9,29l13,12l20,-9l21,19l-2,7l-34,16l-18,23l5,17l25,8l25,5l14,9l8,25l24,36l29,10l18,1l9,10l-5,24l16,10l8,13l15,6l34,6l47,30l21,4l64,-38l9,9l2,38l-14,20l-6,30l22,21l34,7l20,12l12,14l3,32l-8,21l10,16l22,8l38,-7l23,-12l19,-3l6,11l2,24l10,29l9,10l15,-9l20,-6l24,-16l28,-4l24,17l25,32l15,24l16,36l-10,18l2,9l24,16l35,15l16,-5l40,-26l19,-3l18,15l1,11l-28,12l-1,17l6,14l32,28l21,3l6,-6l5,-25l17,-21l13,1l16,17l12,6l36,-5l14,8l32,32l11,7l25,8l25,3l10,5l-1,18l-7,18l50,9l36,-1l38,10h14l29,-22l14,-5l18,6l1,22l-9,21l0,22l-16,17l1,15l27,10l23,-4l20,-11l7,-19l12,4l1,15l-8,32l0,13l26,41h27l6,16l-24,6l-5,24l20,64l17,16h14l18,6l17,12l12,-8l10,-30l-3,-16l10,-9l14,5l-2,31l16,25l16,-11l-11,-41l2,-14l20,-23l26,-17l50,-7l5,-14l-14,-9l2,-11l17,3l22,-8l14,4l1,28l5,40l9,26l27,31l5,24l12,-3l5,-12l14,4l28,16l8,12l-5,28l-13,7h-18l-37,11l-14,12l-19,5l0,20l8,24l25,22l32,-2l19,2l13,12l-32,56l-47,3l-11,9l9,17l34,29l23,13l50,12l2,14l-14,8l-22,35l4,16l-197,86l-561,245l-329,143l-747,326Z"
     transform="matrix(1.0000002e-4,0,0,-1.0000002e-4,-1.87e-6,2.1321302e-8)" />
  <path
     id="1201"
     d="M-721695,-76006l-1004,117l-886,104l-453,53l-760,89l-602,71l-448,52l-449,163l-343,124l-492,178l-1871,678l-990,359l-555,201l-1107,400l-170,62l-1105,399l-2746,993l-1594,576l-112,40l-634,229l2,-9l47,-67l46,-45l6,-25l-28,-38l12,-25l76,-86l35,-9l43,-33l5,-53l19,-54l92,-70l67,-110l27,-168l15,-69l19,-31l47,-59l39,-31l123,-54l85,-55l101,-130l9,-23l-21,-60l-8,-154l1,-96l48,-102l73,-83l30,-49l17,-51l-9,-82l-40,-60l-51,-56l-30,-62l-63,-71l-106,-64l-181,-85l-85,-28l-85,-10l40,65l8,61l-21,21l-47,14l-37,-1l-99,-40l-73,-46l-73,-37l-47,27l-91,41l-92,20l-62,-1l-63,-14l-132,-75l-95,-29l-29,-48l-47,-171l-30,-48l-40,-37l-27,-11l-69,-39l-137,47l-65,-18l-128,17l-40,34l-53,87l-121,137l-25,7l-29,-12l-59,-96l-14,10l-72,139l-23,16l-55,4l-48,-22l-28,-43l-9,-82l40,-43l13,-64l32,-73l97,-168l73,-149l102,-133l10,-27l30,-262l28,-86l26,-37l27,-13l-99,-123l-30,-92l-6,-74l-87,-193l-17,-59l-43,-68l-26,-11l-93,-9l-94,-34l-55,-7l-108,19l-25,-9l-28,-47l13,-74l13,-115l45,-113l26,-4l79,10l45,-17l101,-93l76,-92l82,-128l50,-32l51,-62l95,-50l143,-114l127,-26l75,-43l17,-21l4,-24l1,-145l10,-50l60,-67l62,-91l157,-66l30,3l47,26l30,1l24,-10l19,-20l32,-107l66,-78l68,-163l39,-50l71,-38l55,-14l229,3l264,-77l44,-19l154,-17l79,-85l100,-59l89,-74l79,-28l88,-49l30,-77l7,-18l90,-34l19,-136l0,-64l-14,-96l-36,-149l4,-82l26,-81l6,-47l-4,-27l-34,-97l-69,-57l-40,-73l-60,-56l-90,-29l-290,28l-27,13l-26,40l-91,93l-22,8l-25,-3l-61,-33l11,-93l48,-88l83,-106l4,-23l-55,-28l-120,-21l-17,-18l-2,-34l13,-29l118,-103l80,-82l44,-118l-9,-107l9,-67l12,-22l19,-14l56,-17l35,-35l14,-47l16,-19l25,-11l45,40l15,50l54,4l65,-11l71,9l62,-3l51,-36l38,-76l31,-120l36,-90l26,-100l34,-54l126,-4l55,13l84,44l36,-5l60,-47l52,-64l78,-74l31,-69l4,-110l-32,-75l-40,-64l-28,-35l12,-22l11,-22l68,-22l87,-62l34,-49l51,-120l131,-109l87,-254l-39,-73l-21,-122l13,-113l42,-106l5,-86l-11,-53l-1,-83l-60,-118l-27,-84l34,-4l102,-9l38,-27l0,-31l33,-42l9,-77l20,-42l77,-18l36,-37l22,-100l16,-16l32,-70l26,-19l104,-69l39,-72l3,-74l-36,-103l-4,-74l28,-65l55,-63l21,-43l0,-27l-50,-138l-31,-56l8,-113l77,-59l20,-48l40,-32l71,-102l97,-77l23,-14l102,2l41,-8l40,12l7,-23l-9,-54l23,-46l18,-14l98,-14l142,-50l49,-28l51,-12l20,-16l12,-25l23,-10l90,-48l119,51l92,-36l57,-86l10,-150l40,-132l73,-199l78,-23l48,14l50,58l22,-44l22,2l22,27l51,5l48,-19l49,-4l82,-49l118,35l41,-47l-8,-36l-3,-11l47,-50l-9,-210l6,-146l-37,-105l-25,-125l-2,-124l-31,-184l-39,-78l-15,-132l-7,-46l-4,-56l26,-136l19,-21h25l174,37l50,-11l16,-19l14,-47l-15,-93l15,-20l27,-1l69,32l24,-22l-22,-43l44,-144l71,-108l55,-47l90,-30l115,-83l70,-13l43,-39l52,-44l100,7l61,19l99,48l54,9l81,-20l86,-50l49,-10l187,-73l105,-56l102,-78l130,-150l18,-44l30,-159l-1,-82l-5,-84l82,-103l20,-13l51,-36l31,-37l60,-83l22,-51l-2,-237l18,-50l10,-21l90,-99l57,-46l124,-37h22l17,-20l5,-180l63,-89l29,-79l40,-159l81,-133l80,-69l50,-15l191,18l152,7l96,-40l45,-30l17,-47l53,-80l31,-100l57,-114l46,-140l38,-70l44,-42l65,-26l153,-24l68,-30l13,-24l-29,-73l-94,-89l-45,-18l-38,-32l16,-54l70,-95l22,-81l8,-131l33,-156l18,-66l-53,-54l-6,-25l8,-103l14,-48l1,-102l-18,-51l-12,-73l-59,-140l-117,-184l-72,-12l-87,-68l-59,-49l-154,-46l-71,-32l-49,-43l-28,-46l-3,-51l11,-23l44,-36l159,-28l13,-5l3,-13l-14,-21l-61,-53l-24,-39l-39,-30l-116,-126l-30,-68l-39,-32l-139,-71l-50,-7l-85,107l-28,9l-49,-19l-44,-35l-139,-77l-72,-61l-54,-171l-31,-45l-130,-93l-34,-40l0,-27l10,-22l61,-110l33,-37l3,-52l-17,-18l-48,-15l-123,-22l-84,-28l-113,-93l-81,-115l-93,-176l-70,-33l-223,-58l-20,-12l-26,-57l-12,-198l-17,-61l-51,-51l-110,-76l-17,-21l-6,-41h41h2241h76h1566h206h792l10,-6l18,-1l11,-17l-5,-23l-18,2l11,-48l12,-10l11,-18l29,-33l-12,-22l6,-6l28,3l27,-10l4,-23l7,-7l18,2l9,8l7,22l20,21l13,-10l11,-30l-5,-10l-23,-10l-1,-17l22,5l22,27h10l3,-21l-14,-24l6,-16l11,-3l20,5l1,11l-9,22l5,6l32,7l28,-20l11,-16l9,13l-19,16l0,12l21,10l16,2l8,-9l-2,-18l28,4l12,-10l-3,-10l-21,-1l3,-14l12,5l9,-16l35,8l0,14l54,1l16,-8l-13,-39l18,16l13,-2l-10,-29l11,-3l10,15l12,-8l-1,-16l10,-13l2,-20l16,-1l18,10l25,4l2,-16l-14,-15l2,-7l21,-14l15,-5l7,6l11,54l5,7l17,-1l39,-21l15,-1l5,10l-11,12l24,8l-14,13l38,8l8,-12l25,-9l15,6l14,-10l43,-3l11,22l20,9l11,-12l-4,-7l-17,4l-2,-16l14,-8l11,-15l16,8l-13,12l5,14l15,-14l18,4l11,-19l-14,-6l-14,-12l4,-10l20,12l5,-15l8,-6l22,14l6,-10l-6,-17l7,-4l20,7l11,15l27,12l20,-30l11,-7h15l12,17l19,-5l8,-17l15,-4l6,-20l20,-4l13,-8l38,16l14,-5l9,8l14,-3l7,-22h31l6,-19h19l17,-5l28,2l19,39l12,2l7,-11l-13,-7l-17,-33l10,-27h20l17,-8l8,12l24,1l18,8l-4,19l21,8l-5,-24l3,-36l12,-5l15,17l22,12l13,-2l7,-48l-14,-24l0,-14l13,-9l13,58l13,16l26,4l8,-3l2,-15l-13,-28l7,-9l13,3l7,46l11,2l8,-13l16,-15l16,1l2,15l14,1l24,9l13,-14l-9,-10l18,-20l-12,-10l-2,-13l30,-2l5,11l-3,19l35,-1l-12,-22l4,-16l14,4l15,-10l22,-2l-2,-21l-6,-12l9,-8l15,7l16,2l23,-19l-15,-4l-10,-11l6,-20l-9,-21l20,2l26,-15l10,12l11,-11l-16,-28l22,-18l38,-9l11,11l-4,24l18,36l6,2l24,-19l10,5l7,16h11l13,-19l39,-6l8,10l-5,14l19,31l14,4l20,-7l18,-26l13,-5l11,6l-2,20l16,4l3,20l17,-1l15,-9l15,13l17,-6l-2,-17l20,-21l18,-6l30,-28l15,2l0,21l27,-10l-1,16l6,18l13,-8l-4,-19l15,-12l28,14l19,-11l8,-13l10,15l14,6l10,-3l-1,-20l13,-3l0,18l15,10l21,-10l-3,-20l20,-1l14,-7l17,-16l8,6l-14,14l8,13l25,-4l16,14l-25,5l-8,12l15,4l51,30l13,-23h18l6,11l-4,13l13,3l-1,26l12,13l10,-2l5,-14l-4,-25l3,-9l19,-4l-5,-18l8,-10l27,9l9,-1l8,17l24,11l40,-6l-1,-20l-6,-14l12,-9l13,41l21,15l34,-4l9,-18l19,-8l29,2l10,14l15,4l7,18l22,26l18,-5l-2,-14l13,-9l2,-18l12,-4l18,9l14,-10l23,-9l7,-17l8,-29l10,-9l29,19l15,-2l34,-28l11,-29l12,-5l29,10l20,10l1,-24l16,-11l21,-9l13,11l8,-10l14,14l15,-1l5,14l21,-3l0,21l6,12l27,-3l18,-27l6,-15l5,-31l17,12l14,-4l10,12l16,9l15,-23l12,13l7,-13l16,-11l3,-10l-14,-14l27,-3l3,-18l8,-4l11,10l15,2l8,-19l25,-7l7,-7l26,-12l6,-16l-2,-11l-6,-10l10,-8l0,-24l19,-10l-2,-27l-22,-12l9,-12l-3,-16l14,-15l21,15l13,-2l4,-19l1,-47l10,-10l16,3l1,-21l17,-12l8,-12l-4,-22l8,-2l13,17l16,-10l1,-26l8,-16l24,-24l21,-4l9,-15l11,-8l38,-10l23,-2l12,21l-4,18l17,4l18,9l18,-6l1,15l49,20l-7,21l6,9h19l21,-9l11,-10l8,15l28,-15l23,-1l14,-27l9,-3l-2,-23h14l15,-8l5,12l12,8l7,-12l4,-25l-1,-23l13,-14l-15,-16l9,-11l-4,-11l-18,-22h20l-1,-15l-13,1l-17,-22l6,-9l15,-2l3,-26l-13,-22l-1,-16l-12,-3l6,-16l-1,-32l16,-12l-1,-14l-21,-3l22,-62l-11,-7l-17,-1l14,-28l-10,-8l-2,-25l-8,-33l26,-18l-13,-8l-5,-13l18,-25l-1,-7l-20,-11l-18,-26l-7,-27l6,-11l17,-11l17,-28l8,-1l10,-18l14,-1l13,-10l8,-15l34,-19l12,-22l18,-15l14,-1l12,-16l17,-14l38,8l5,11l-2,22l10,7l27,-2l21,12l17,-1l24,-8l14,-9l7,-42l-7,-11l7,-11l-26,-24l0,-22l-11,-16l7,-12l-18,-7l6,-60l-9,-11l-18,-2l-6,-15l-1,-52l7,-17l14,-18l6,-20l22,-6l9,-15l-1,-13l18,-2l8,-24l14,-1l16,10l25,-8l6,-16l-2,-32l-13,-15l-12,-32l-2,-37l1,-27l-21,-44l-16,-21l23,-41l5,-27l-14,-76l-83,-134l-44,-66l-12,-58l4,-27l28,-45l-22,-48l-49,-62l-17,-51l-2,-26l22,-46l44,-29l27,-6l54,7l46,-16l30,-67l32,-41l22,-11l91,25l37,-1l41,-18l54,-36l64,-53l54,-14l77,14l143,-55l118,-24l173,-93l51,-56l19,-21l-7,-51l-36,-76l-85,-89l-17,-75l34,-37l27,-7l18,-24l25,-74l-9,-127l9,-56l29,-48l115,-122l-21,-51l-96,-104l-16,-48l-27,-44l-96,-73l-11,-48l-67,-73l-3,-72l8,-51l11,-21l42,-32l76,-3l8,-139l41,-71l1,-31l-18,-50l-49,-55l-72,-46l-93,-44l-18,-17l-9,-72l11,-80h1566h531h1087h699h730h610h726h710h827h545l85,103l49,47l66,-45l27,15l18,114l44,35l96,11l163,-137l49,-55l97,-8l83,28l81,43l61,-2l32,11l112,57l120,2l44,64l16,78l65,19l62,-45l129,-28l167,29l51,192l118,90l65,185l60,22l13,67l84,227l55,41l32,87l306,204l25,24l20,6l68,4l19,-6l94,-10l26,5l32,3l16,5l1,29l17,16l7,17l28,6l31,20l16,18l37,13h24l11,8l13,24l17,16l11,27l26,20l8,27l-227,118l111,370l-125,283l130,106l96,399l337,577l377,238l510,323l57,503l485,283l202,255l266,334l650,-1l204,269l358,64l411,440l621,-52l-82,638l104,67l20,361l551,571l119,200l325,548l289,316l459,29l157,182l344,674l368,346l9,12l461,188l516,-16l739,-23l1034,-61l580,47l1670,114l254,133l134,236l101,267l128,345l83,192l211,307l108,245l374,214l262,312l401,505l22,-11l62,-2l61,19h46l40,8l32,-9h50l21,17l15,36l13,25l19,26l27,10l30,3l54,2l17,18l4,28l7,28l12,14l30,5l57,23l19,4h25l21,-15l30,13l33,8l26,19l10,13l7,51l17,16l44,8l15,8l12,14l12,68l1,77l4,52l26,118l15,36l53,83l21,10l15,15l18,32l15,23l29,74l-1,72l-23,64l11,16l31,17l21,21l5,53l10,34l15,30l4,34l9,27l38,34l31,38l20,23l18,30l-1,23l27,26l4,34l6,21l13,16l28,24l10,17l0,44l17,26l13,12l10,21l-1,27l8,18l27,12l16,11l13,20l11,42l0,35l-9,37l-10,21l0,87l8,62l11,35l13,27l13,18l3,29l16,20l23,51l27,42l31,34l8,19l34,13l5,16l11,1l6,16l11,-8h13l3,13l-8,18l11,5h26l0,22l8,19l72,58l5,22l-12,24l0,9l14,15l36,31l79,85l22,16h30l11,3l46,37l12,25l17,11l-4,15l13,1l27,23l7,14l-2,31l-21,25l6,14l9,4l21,-4l8,5l3,27l-9,15l14,19l2,31l15,9l-8,26l20,11l0,10l-20,32l8,24l-544,465l-342,293l-541,462l-344,294l-1803,1540l-1877,1600l-656,560l-1181,135l-629,72l-993,114l-1767,203l-32,3l-942,109l-497,57l-416,48l-345,40l-616,71l-798,92l-386,44l-557,65l-1176,135l-2900,336l-32,4l-234,27l-2406,279l-769,90l-698,81l-989,115l-541,63l-126,15l-1197,140l-918,107Z"
     transform="matrix(1.0000002e-4,0,0,-1.0000002e-4,-1.87e-6,2.1321302e-8)" />
</svg>
