<?xml version="1.0"?><svg xmlns="http://www.w3.org/2000/svg" version="1.2" baseProfile="tiny" width="1080" height="1080" viewBox="-38.2376 8.8131 3.0855999999999995 1.6873000000000005" stroke-linecap="round" stroke-linejoin="round"><g id="UF27ME" transform="scale(0.0001,-0.0001)"><path id="2701" d="M-380121,-91560l-28,-1l-59,9l-50,-3l-15,-11l-19,-21l-3,-58l-27,-4l-123,-39l-17,-1l-73,12l-35,1l-18,-17l-17,-22l-34,-23l-22,-4l-88,29l-44,8l-33,-1l-97,-21l-29,-23l-26,-37l-9,-6l-39,-9l-21,-44l-94,-94l-13,-44l-25,-16l-13,-18l-31,-19l-61,-54l-68,-49l-44,-13l-13,-12l-30,-17l-11,-30l-10,-12l-26,-84l-36,-41l-41,-75l-1,-77l0,-51l-10,-50l0,-24l-6,-12l-27,-37l-51,-38l-78,-138l-60,-62l-121,-46l-114,-10l-175,-156l-170,-173l11,-14l44,-46l49,-70l36,-41l87,-61l68,-71l25,-35l20,-92l18,-30l15,-36l27,-35l31,-20l2,-8l-16,-48l1,-11l16,-28l-67,-45l-10,-15l-10,-28l-8,-40l-13,-95l2,-20l22,-11l114,-31l37,-7l36,-17l26,-5l36,4l32,-49l38,-17l38,-29l23,-9l73,-46l14,-13l10,-17l9,-1l26,12l68,28l27,17l62,-10l55,1l87,-28l34,-8l34,50l13,11l45,6l122,-14l88,-21l25,-1l57,-12l19,-7l38,-28l37,-41l19,-43l2,-14l-5,-27l9,-21l17,4l85,-11l15,-7l4,-20l52,-25l39,-26l34,-16l20,1l38,23l13,4l32,-11h30l77,-31l5,-14l0,-18l18,-27l12,-7l43,-1l35,-20l17,-23l1,-14l7,-15l46,-67l25,-50l24,-21l10,-16l-43,-73l-10,-42l-1,-42l40,-31l69,-70l31,-23l40,2l75,-43l37,-6l52,1l126,-21l81,-47l128,-31l30,-12l38,-25l19,-8l43,-14l53,-12l29,4l42,14l141,71l18,6l16,-3l13,-18l29,-63l21,-23l92,-54l85,-61l47,-49l77,-39l86,-55l36,-21l17,-13l47,-39l9,-12l13,-40l-2,-20l5,-18l19,-26h13l80,36l40,-4l16,-12l18,-48l51,-40l7,-36l8,-17l27,-31l54,-49l67,-40l19,-16l16,-22l10,-24l6,-38l-9,-9l5,-31l5,-9l27,-19l5,-8l1,-21l14,-4l22,14l47,11l50,16l46,23l26,5l11,9l24,9l49,14l41,25l26,4l39,12l14,-1l40,-9l25,3l21,-6l49,-20l21,-4l51,-14l34,1l17,-8l31,1l33,-4l17,8l16,1l12,-7l21,-26l16,-11l24,-7l29,-17l41,-29l33,-13l28,-19l35,-8l26,-16l21,-9l32,-25l48,-42l31,-30l10,-15l12,-38l23,-46l22,-48l6,-19l35,-56l18,-20l26,-47l11,-14l38,-25l46,-19l20,-5l40,-1l15,-7l9,-11l22,-50l16,-20l30,-20l46,-24l43,-35l50,-27l16,-14l39,-17l26,-16l29,-13l32,-19l53,-27l49,-33l51,-46l53,-49l41,-27l53,-18l99,-14l48,4l55,-11l72,-2l33,-8l31,-2l50,4l60,-8l77,-20l45,-16l63,-2l38,-5l72,4l35,6l34,-4l27,-7l50,1l33,6l71,-4l71,-16l41,-12l50,-9l149,-37l64,-20l49,-24l16,-14l42,-20h47l14,5h26l36,-5l27,-10l19,-15l46,-58l27,-19l20,-28l30,-31l21,-15l60,-2l60,-11l84,-36l30,-11l72,-21l65,-11l38,-3l36,-11l25,-14l28,-27l23,-32l14,-33l18,-28l25,-27l13,-5l33,-37l53,-68l31,-28l40,-23l43,-11l13,-7l12,-15l39,-21l30,-9l30,-26l16,-7h19l21,10l14,7l36,10l43,-9l20,-8l58,-51l25,-26l22,-17l16,-22l19,-19l32,-20l40,-13l21,-17l10,-16l8,-33l19,-41l15,-53l26,-45l35,-50l11,-23l4,-35l-1,-67l15,-35l22,-29l29,-27l15,-9l26,-11l38,-11l42,-2l42,1l17,-2l46,-19l28,-3l32,3l82,25l63,11l35,2l77,-6l46,-22l30,-6l31,4l41,18l19,17l21,14l43,7l27,-4l23,-25l37,-23l32,-23l27,-14l46,-19l38,-36l32,-39l20,-14l32,-7l24,41l15,11l7,17l9,6l16,34l-2,24l11,38l-6,13l7,10l1,21l31,26l9,-4l35,12l-10,16l-4,22l12,23l-3,7l8,16l-6,32l5,12l-6,8l2,20l14,18l11,2l1,15l16,18l29,-2l33,18l8,12l-6,34l-1,38l4,13l-5,22l20,19l-4,25l8,22l15,-1l10,12l628,395l23,1l0,46l27,65l13,24l20,48l0,13l26,13l14,1l16,-7l18,1l24,7l18,17l9,16l-3,53l9,22l23,29l18,27l18,3l21,-1l18,3l6,19l30,27l22,14l18,2l24,-6l15,26l3,49l-9,14l-4,30l1,42l-9,39l10,19l-14,63l-6,9l5,26l0,30l9,18l13,5l24,41l16,11l40,28l33,8l25,30l-10,33l-1,19l-11,16l7,23l35,20h8l21,12l10,31l-3,12l9,36l16,16h11l15,-12l26,-9l13,11l5,11l1,28l8,33l10,20l6,23l-1,12l9,28l-2,22l9,14l27,9l17,2l14,16l-6,26l11,41l27,14l4,6l27,11l3,19l-7,10l-3,31l2,16l16,33l11,1l8,23l-10,17l-14,14l-6,16l6,15l84,14l15,11l-4,15l-16,13l-19,22l-3,14l3,14l36,41l38,17l38,10l70,-20l34,-3l23,7l15,-2l21,17l28,-12l41,-1l37,-13l13,-1l27,11l16,7l18,14l6,14l-5,17l-13,13l-21,11l-10,25l8,17l40,12l9,9l6,18l43,45l14,5l26,-7l17,1l8,11l3,31l-3,27l3,13l0,11l13,8l47,-11l19,5l22,23l21,36l8,48l14,17l33,20l21,25l11,5l52,8l36,19l45,34l22,31l18,17l19,-10l22,-22l30,-5l10,17l-17,35l2,15l24,29l23,16l14,15l-2,34l24,7l19,12l10,14l-1,20l-16,63l-8,13l-24,7l-13,10l-9,20l21,33l4,37l-11,18l-11,-4l-57,5l-23,-51h-19l-25,-8l-20,-13l-7,-14l-3,-39l-16,-12l-40,-12l-10,7l-22,5l-52,3l-21,10l-85,103l-73,22l-28,11l-92,29l-55,13l-20,-8l-10,-9l-25,22l-9,17l-9,4l-55,9l-4,5l-635,362l3,25l-10,15l-11,1l-7,23l-2,22l-7,24l-15,9l-47,41l-9,-2l-13,21l11,20l-36,28l-10,18l-29,-1l-21,13l-2,19l-16,7l-11,19l-6,40l-5,4l-2,27l-24,8l-11,9l-7,27l-13,12l-19,6l-13,15l-39,26l-15,15l-9,23l19,32l1,15l-12,13l-13,26l5,6l-14,47l-5,6l-1,33l6,26l-191,-35l11,10l84,245l22,62l8,43l16,34l7,62l21,26l222,-37l64,-10l146,150l-28,10l-89,18l-121,39l-34,58l-60,75l-39,94l-17,60l-22,40l-37,42l-42,17l-38,-1l-75,-21l-36,-1l-21,4l-20,10l-33,33l-23,33l-14,12l-8,-3l-20,-55l-3,-46l-18,43l-23,90l-2,68l36,61l11,95l-61,77l-40,69l-53,47l-55,62l-126,99l-79,23l-96,54l-83,-22l-98,-121l-36,-71l-125,-80l-102,-26l-39,-27l-78,-23l-51,33l3,67l5,27l-11,50l14,62l41,49l34,29l22,39l-13,19l-384,227l-23,-19l-17,-5l-42,2l-10,-6l-14,-19l-33,-9l-40,-52l-41,-17l-25,-29l-76,-67l-39,-26l3,33l-4,28l5,20l29,11l6,6l12,35l4,14l-16,19l-20,13l-6,48l4,56l-10,10l0,43l-12,21l-19,8l-25,4l-17,35l3,13l-24,21l-16,32l-22,28l16,28l20,16l-20,23l-19,47l-15,8l-7,18l-37,29l-23,32l-45,51l-22,15l-6,27l0,21l-40,-1l-16,8l-28,24l-53,23l-15,2l-7,8l-4,14l-20,8l-14,15l-56,125l-87,154l-71,39l-74,95l-4,25l8,24l0,22l-37,36l-4,18l-27,26l-46,-9l-18,-7l-38,8l-32,25l-15,16l-11,21l-9,51l-242,280l-328,269h-25l-17,-11l-3,15l-9,11l9,30l-2,24l-18,13l-28,7l-14,-4l-21,42l-20,20l-21,9l-27,21l-21,1l-8,10l-26,16l-40,-4l-34,3l-12,-7l-22,2l-39,-5l-28,10l-18,-1l-37,9l-27,17h-30l-28,13l-38,4l-15,9l-27,-1l-42,6l-60,23l-20,2l-92,56l-30,5l-23,29l-13,6l-15,-7l-13,-12h-16l-29,-11l-19,-14l-4,9l11,20l2,29l-14,16l0,16l-8,22l-14,14l3,16l-15,43l4,3l-4,26l-17,27l-31,28l-25,11l-10,-4l-7,-12l-13,-5h-16l-10,8h-18l-16,10l-16,2l-19,-3l-22,-25l-14,16l-33,21l-15,12l-14,11l-13,19l-13,3l-38,2l-66,-3l-63,-7l-24,-19l-38,-37l-26,-23l-11,-17l-39,-14h-92l-34,-1l-77,11l-36,9l-11,-1l-32,5l-19,1l-58,7l-14,-3l-15,-15l-69,-96l-28,-53l-19,-24l-34,-24l-48,-23l-45,-35l-17,-1l-32,-21l-9,-22l-10,-2l-29,-17l-25,-7h-12l-21,-7l-12,7l-13,25l9,35l1,20l-6,6l-20,4l-7,11l-17,4l-11,-9h-12l-17,-10l-34,-5l-26,7l-12,12l-17,4l3,24l-3,18l4,11l-7,16l-12,-1l-23,-13l-53,-18l-20,-16l-56,-24l-32,-20l-45,-23l-20,47l-17,15l-2,20l-10,14l-23,-10l-20,-22l-6,8l-24,4l-9,-9l-24,-6l-7,10l7,10l-17,29l-4,20l27,-6l11,11l7,23l31,5l16,-4l6,9l27,8l0,9l33,24l7,-6l45,-2l7,4l46,13l16,10l-175,189l-9,29l12,17l-14,22l-26,9l-12,13l-17,2l-11,15h-15l-1,36l-12,10l13,25l-5,19l-1,23l-6,3l-3,26l-17,24l-12,32l-7,10l0,18l-10,5l-15,21l-20,14l1,10l-20,21l-8,-4l-30,28l-30,21l-25,26l-7,22l-15,72l1,17h-18l-18,10l-14,17l-12,33l-12,-3l-19,4l-3,29l21,16l-1,14l-11,23l-18,30l-11,-12l-21,1l-13,12l-13,-3l-15,19l-9,18h-12l-16,53l6,25l-19,11l3,25l-13,24l-12,33l-37,7l1,14l-10,11l-17,38l-16,15l-10,42l-40,-14l-16,-3l-20,-23l-7,-3l-16,-32l-6,-6l-52,17l-25,-2l-17,-14l-13,-18l-17,-13l-8,-17l-11,-3l-53,-2l-12,-24l-2,-14l8,-18l-3,-9l-36,-9l-23,-22l2,-26l-8,-20l-18,-11l-37,-11l-25,4l-35,-12l-19,-3l-34,1l-17,-10l-27,-28l-27,-17l-50,-14l-15,-7l-13,-13l-10,-26l15,-54l11,-28l18,-16l8,-18l-5,-24l5,-61l-37,-47l-27,-22l-6,-19l-21,-16l-6,-21l8,-12l-30,-22l-13,-18l15,-19l59,-44l9,3l-20,-54l-42,-151l-27,-69l-49,-186l-69,-64l-43,-71l-28,-82l-107,-86l-34,-29l-53,-2l-20,3l-31,-18l-20,-21l1,-17l10,-19l29,-37l4,-19l-20,-65l-4,-43l-7,-16l-27,-33l-17,-4l-11,6l-18,28l-21,22l-21,3l-16,-5l-14,-16l-35,-10l-40,-4l-46,-19l-8,-8l-8,-20l-6,-82l-8,-10l-45,-37l-49,-49l-12,-6l-18,-24l-95,-75l-59,-73l-20,-15l-17,-38l-31,-42l4,-21l-6,-20l-19,-5l-32,-31l-28,-7l-10,-9l-2,-24l-16,-36l1,-27l-16,-52l-27,-43l-40,-45l-7,-5l-65,-21l-24,-16l-3,-14l5,-26l-8,-27l-37,-39l-7,-13l-11,-54l-7,-16l-1,-29l-5,-16l-27,-16l-34,-5l-8,-18l-20,-21l-35,-17l-27,1l-58,31l-59,-22l-13,2l-23,-7l-20,-11h-11Z" /><path id="2703" d="M-363427,-97385l-1,-14l-9,-24l-19,-22l-20,-45l-10,3l-42,22l-49,-27l-17,-15l-4,-12l-11,-3l-1,-11l35,4l15,-14l14,2l11,-41l-16,-19l-24,-39l-12,-40l-9,-13l-36,29l-4,-6l-62,17l-100,-15l-76,-44l-64,-31l-72,-88l-22,15l-26,4l-56,28l-31,9l-324,-42l-13,22l-22,-13l-29,3l-6,-11l-27,-4l-33,-12l-16,-17l-10,1l-13,13l-15,-28l0,-17l15,-10l-5,-31l-28,-34l-1,-39l-11,-19l-2,-12l-17,-21l-30,17l-26,-4l-5,4l-497,-3l-272,-359l9,-7l35,-9l19,-2l19,-7l35,-3l20,-15l35,-15l20,-12l36,-7l28,-9l21,-21l3,-9l31,-32l17,-12l24,-29l25,-16l46,24l12,9l19,7l24,1l18,-10l31,-68l32,-24l7,-13l2,-49l5,-22l-9,-28l4,-32l-13,-33l0,-23l-9,-38l-12,-19l2,-29l13,-20l6,-45l13,-28l28,-29l42,-65l17,-31l6,-35l2,-65l8,-15l22,-8l48,-31l12,-30l14,-7l36,-8l19,-30l-1,-49l-6,-18l0,-23l-13,-56l-13,-24l-12,-2l-22,-19l-13,-19l-11,-12l7,-23l22,-35l17,-9l13,-28l16,-22l5,-19l-8,-28l0,-16l-5,-18l3,-24l-6,-21l6,-10l-4,-37l-10,-16l9,-12l-6,-17l3,-22l-8,-19l3,-8l-14,-11l-28,-1l-19,-18l-6,-26l-14,-35l-22,-17l-12,-30l-19,-26l3,-26l-9,-4l6,-30l24,-39l19,-11l40,-5h53l6,-18l15,-4l11,-12l46,1l30,4l22,-2l30,12l6,-8l14,4l12,-25l-364,-388l-28,5l-33,-4l-27,13l-13,-11l-81,22l-6,32l5,31l-9,64l-20,60l-25,6l-7,30l6,20l-20,38l-585,26l-753,33l8,23l18,-5l3,7l-5,31l4,57l-11,26l-13,11l-15,6l3,20l-3,37l15,8l11,-11l3,-16l23,-16l11,35l15,15l11,28l9,8l-9,23l-9,4l-25,-8l-32,9l-10,20l8,31l18,38l23,1l27,24l1,21l-12,5l-28,37l-3,12l15,12l-22,17l-41,9l-20,11l-31,31l-21,16l-22,8l-16,19l-24,11l-9,9l-24,11l-20,1l-32,6l-3,12l-52,22h-18l-56,15l-7,-8l-125,-232l-58,-88l-9,-23l7,-51l-7,-53l16,-64l2,-22l-80,-261l-9,2l-4,-83l-125,-118l-19,-68l-33,-27l-30,-42l0,-28l-5,-20l-21,-24l-14,-7l-47,-3l-19,-12l-54,-52l-3,-25l-12,-25l-37,-30l-19,-3l-25,-25l-54,-71l-9,-26l-5,-52l-11,-30l-14,-15l-14,-14l-62,-10l-61,-50l-4,-8l-30,-21l-50,-13l-43,-36l-26,-12l-34,-27l-103,-29l-135,-122l-16,-13l-14,-20l-16,-13l-26,-3l-36,-24l-12,-2l-12,-21l-11,-1l-11,-13l-9,-32l-11,-14l-68,-45l15,-44l24,-47l16,-13l16,-16l54,-29l22,-17l15,-22l9,-28l6,-32l12,-30l17,-22l35,-28l37,-12l25,-14l56,-14l54,7l56,16l21,-2l17,-13l10,-18l15,-47l13,-24l25,-26l19,-13l29,-9l51,-1l67,16l20,-2l53,-11l56,9l29,16l27,5l27,-12l38,-4l29,-17l50,-47l29,-35l58,-55l23,-35l54,-103l63,-89l8,-3l59,-23l65,-9l20,-4l44,-19l61,-8l40,-4l57,4l21,4l59,13l25,3l54,14h24l46,-7l36,1l16,5l64,40l16,17l23,40l43,38l45,24l45,1l22,-3l44,-8l30,-12l19,-11l11,-11l18,-37l20,-27l46,-47l25,-28l25,-45l22,-36l8,-38l14,-36l32,-43l41,-40l51,-44l40,-28l27,-26l21,-13l64,-60l24,-23l19,-26l10,-30l7,-41l10,-30l15,-25l8,-21l7,-45l22,-77l0,-40l-3,-41l-7,-48l4,-24l47,-70l22,-48l9,-70l-6,-61l-8,-75l-10,-53l-3,-71l-6,-35l-27,-73l7,-18l9,-19l35,-34l40,-30l39,-19l49,-13l35,-15l62,-16l57,-6l103,-1l19,1l87,-10l66,8l63,32l62,34l25,13l37,19l109,65l37,38l20,15l35,10l32,-10l84,-42l31,-23l47,-50l66,-41l64,-49l31,-35l28,-45l28,-49l36,-97l56,-128l24,-41l16,-48l21,-47l31,-80l46,-70l31,-29l51,-35l15,5l16,13l20,31l37,74l25,46l66,114l32,51l28,42l79,127l18,33l36,73l29,51l7,20l99,184l52,87l28,51l52,81l51,75l26,40l47,63l29,34l57,61l24,14l37,5l15,14l7,26l38,34l5,13l-7,14l-52,46l-22,36l-8,31l-6,58l0,47l9,67l6,25l16,50l11,28l48,94l27,45l29,44l48,65l73,89l76,79l63,61l26,22l15,13l142,106l57,55l27,32l74,97l29,36l38,43l63,58l59,45l133,86l59,41l34,29l20,21l12,22l47,90l36,57l72,89l37,35l63,48l36,22l14,7l12,13l-9,5l1,13l9,14h14l14,-13l24,16l35,7l29,-3l17,-7l26,-29l-1,-21l20,16l19,47l37,66l9,20l46,65l23,23l28,15l28,7l10,8l7,18l17,17l21,11l1,18l10,22l8,32l18,38l12,21l17,18l22,46l25,43l55,78l22,26l20,19l30,22l48,24l27,8l81,38l25,5l17,-5l25,-3l21,1l29,7l28,38l17,5l15,22l14,13l20,12l25,-1l11,15l-2,23l2,27l15,19l12,30l42,46l24,18l9,11l15,31l19,19l-1,7l8,1l39,51l17,39l20,29l29,51l32,54l24,46l39,78l32,61l31,50l50,71l37,42l10,18l35,55l22,28l46,49l32,40l20,32l40,48l10,26l31,56l13,30l32,61l36,80l3,5l33,44l49,56l84,143l29,53l53,87l30,39l36,33l77,60l31,27l50,48l30,18l28,24l25,27l7,12l7,64l8,20l-2,18l4,18l12,20l-11,37l-2,40l6,21l18,31l19,8h14l33,29l23,5l43,29l40,49l14,23l22,26l33,51l18,30l36,70l90,143l71,103l16,18l22,30l60,72l30,43l21,18l20,9l19,20l14,29l23,35l31,52l18,20l27,25l45,52l35,58l2,19l8,29l-7,13l-8,27l8,3l9,-15l13,-2l17,19l9,19l40,41l36,27l17,16l5,22l-19,2l-10,18l9,23l15,3l9,-5l31,4l16,-6l15,4l17,-14l19,18l39,43l46,52l45,44l25,16l21,28l19,21l30,27l33,24l29,16l15,14l24,38l21,18l35,25l68,41l28,13l46,14l28,6l55,3l57,-15l36,-21l7,-8l-21,-41l19,-10l-13,-25l-41,17l-11,-11l45,-18l15,-3l16,13l30,57l23,22l33,53l35,40l17,11l37,10h22l52,-10l5,-11l14,14l3,10l-26,46l-3,36l-6,34l-11,34l1,18l15,38l5,63l5,22l39,105l22,43l64,88l12,14l32,28l32,65l28,31l32,25l24,21l28,14l10,28l23,18l36,42l12,12l22,40l8,34l19,27l14,8l5,19l19,5l27,12l13,17l10,23l15,17l28,24l53,39l17,9l54,22l30,18l21,7l29,5l24,16l-6,14l16,9l10,21l6,27l10,14l27,29l34,29l47,26l36,7l39,-4l21,-9l14,17l6,65l0,23l8,32l22,39l6,16l48,38l15,28l16,21l17,12l33,16l25,31l16,13l36,18l15,14l48,33l18,17l21,26l6,36l0,27l19,30l-4,6l39,30l13,3l55,52l31,44l22,24l41,32l24,-4l14,1l14,24l-5,45l4,17l16,25l29,31l29,15l20,8l42,-3l23,7l20,36l0,16l6,14l23,24l37,49l32,33l14,10l-20,7l-24,15l6,18l36,2l16,15l17,54l2,22l9,24l1,27l-5,24l-2,31l2,33l11,39l11,28l19,43l14,24l48,80l37,49l57,58l40,44l26,24l43,52l22,30l37,33l27,13l19,4l64,6l31,16l14,-1l17,10l16,5l13,51l3,29l15,25l19,18l38,25l22,9l31,8l24,4l80,4l13,9l1,10l-14,11l-15,3l-20,19l5,15l36,9l41,36l38,29l51,17l31,12l24,14l17,18l5,32l10,35l6,10l29,14l23,18l9,32l6,9l38,35l64,31l34,30l15,27l18,19l25,20l38,49l63,61l32,39l17,33l29,41l10,25l16,23l29,34l24,47l25,29l0,13l-3,10l14,8l62,47l21,28l12,31l6,24l21,38l11,11l5,32l9,21l29,57l7,10l21,16l18,9l31,6l36,11l14,7l49,61l26,50l14,34l14,41l26,42l-8,69l6,35l-8,50l7,4l11,-9h24l21,-6l22,21l19,36l1,16l-14,34l-5,26l4,42l12,34l9,41l16,30l32,35l9,5l47,3l31,13l10,9l9,18l3,46l8,21l72,96l19,37l4,16l3,45l9,39l12,24l38,29l7,10l24,21l34,19l9,11l53,113l-7,23l-8,10l9,1l10,26l0,45l-3,34l6,47l5,14l20,31l21,26l11,25l32,32l6,24l25,42l6,20l15,16l4,13l6,50l10,27l22,36l41,56l19,21l25,18l45,47l21,26l35,35l23,9l22,22l45,25l43,47l37,30l36,20l5,8l15,37l16,30l14,16l9,26l12,48l23,59l14,38l5,43l15,66l21,62l25,38l25,31l39,41l28,32l30,50l-7,18l-20,-1l-7,14l14,6l-12,24l-7,41l4,8l-5,19l-60,45l-8,9l-20,10l-13,18l-22,21l-29,19l-30,2l-25,16h-21l-28,7l-43,-19l-25,2l-17,13l-20,-3l-38,5l-22,9l-25,-8h-25l-37,-26h-12l-11,-10l-18,10l-5,19l-14,3l-14,-6l-9,5l-24,1l-26,-7l-20,19l-34,3l-16,16h-13l-12,9l-20,6l-7,-3l-27,11l-28,5l-31,-5l-18,-9l-38,-9h-16l-47,-22l-23,17l-20,4l-37,18l-21,19l-23,8l-19,-4l-19,18l-25,6l-16,11l-19,1l-26,22l-25,2l-25,-8l-51,-8l-631,159l-438,109l-33,-7l-21,2l-18,15l-38,48l-19,16l-3,11l9,29l-21,4l-22,18l-31,-2l-13,-20l-11,-4l-18,2l-9,20l-27,1l-11,-18l-7,-2l-29,13l-24,1l-27,11l-29,-42l-11,-7l-39,-7l-17,13l-27,-11l-24,1l-29,-7l-26,13l-14,-5l-23,2l-33,21l-7,11l-7,31l3,24l-12,17l-18,18l-20,-2l-16,7l14,9l3,12l15,5l7,18l-13,25l-3,12l22,14l-20,24l-23,-12l-11,6l8,17l-7,13l-25,9l-6,-30l-15,-11l-26,-1l-34,-23l-24,-3l-5,-11l3,-27l-13,-25l-41,-1l-20,-11l-14,2l-39,19l-10,-4l-13,-26l-15,20l-15,-5l-15,18l-1,48l-6,-1l-17,-21l-16,1l-17,11l-11,26l-44,11l-25,-10l-6,10l-13,-4l-19,11l-8,-19l-19,-17l-65,-36l-18,-33l-26,-10l-14,12l-11,32l-7,40l-6,4l-35,-7l-11,-9l-39,-30l-4,-16l-13,12l-13,-9l3,-17l-19,-12l-37,-7l-17,4l-13,-7l-9,-15l-20,-13l-13,3l-8,-10l-16,14l-21,-2l-1,-13l-22,-20l-15,-5l-9,-62l-18,-12l-21,9l-32,-14l-22,-2l-29,-11l-19,-19l-34,-10l-21,-14l-17,-28l-44,-32l-9,-12l-4,-38l-8,-11l-16,-7l-30,-4l-35,-26l-22,-5l-28,17h-10l-35,-9l-65,-45l-6,-20l-17,-14l1,-13l-9,-20l-87,-57l-58,-13l-64,-4l-23,7h-54l-44,19l-11,-3l-34,-22l-22,-68l-69,-55l-12,-14l-36,-4l-26,-15l-20,1l-15,14l-36,-5l-30,-10l-46,-23l-82,-58h-77l-37,16l-20,2l-46,-19l-50,-28l-131,-24l-65,-33l-20,-15l-35,-5l-36,25l-25,24l-43,23l-21,19h-22l-35,10l-24,-3l-26,11l-16,2l-50,72l-20,7l-15,-4l-13,11l27,62l11,12l1,15l-15,6l-15,45l-16,15l15,31l7,6l24,52l3,15l19,23l11,57l-12,19l10,22l-10,11l-20,-12l-15,-15l-8,1l-19,54l-23,10l-21,35l-13,-2l-9,-18l-8,-3l-30,31l-15,26l-17,-2l-10,-22l-18,-2l-4,-15l-18,-25l-34,-26l-14,-25l-13,-10l-24,-1l-13,4l-43,27l-40,5h-23l-8,-5l-25,-64l10,-49l-12,-16l-9,-1l-8,7l-32,12h-11l-12,-14l-10,-3l-15,15h-17l-31,-15l-23,-27l-25,4l-24,7h-17l-11,29l-30,26l-22,36l-30,20l-14,2l-11,16l-30,9l-30,-7l-50,-2l-22,-5l-14,5l-36,-7l-14,-11l-38,-20l-27,-4l-18,5l-20,12l-19,19l-16,41l-19,11l-28,-43l-8,-26l-12,-12l-58,-8l-29,20l-17,-1l-50,-63l-13,-30l-20,-62l-13,-15l-1,-24l-7,-20l-25,-19l-89,1l-93,-11l-20,-7l-52,-43l-9,-17l-25,-6l-29,-14l-35,14l-15,-11l-10,-14l-3,-27l-5,-9l2,-22l-9,-12l-18,-7l-27,-6l-15,26l-12,7l-45,-17l-45,-6l-19,-19l-26,-6l-19,18l-23,-6l-35,-7l-37,-27l-35,-3l-13,-24l-50,-29l-95,6l-115,44l-69,-4l-133,-36l-107,-10l-66,-23l-28,-25l-67,-78l-19,-35l-11,-34l-22,-38l-37,-46l-41,-32l-44,-22l-101,-30l-124,-14l-92,-20l-18,-9l-30,-25l-9,-16l-7,-28l-9,-53l2,-55l11,-58l17,-42l22,-21l84,-26l40,-18l16,-14l44,-53l19,-44l-22,-21l-33,-44l7,-19l-4,-11l-17,2l-26,-10l-13,-42l9,-12l26,-21l1,-10l-30,-22l-6,-22l-28,-17l-33,-41l-26,-20l-35,-38l-59,-16l-52,-5l-17,-12l-9,-27l-18,-6l-40,-4l-49,-20l-15,6l-16,21l-14,-3l-15,-17l-12,11l-22,-5l-15,8l-15,1l-48,-14l-45,-21l-17,-2l-18,9l-26,23l-12,-5l-27,-29l-55,-19l-34,5l-25,13l-9,-3l-28,-19l-7,-21l-11,-46l-31,-82l6,-52l-41,-48l-18,2l-16,-17l-71,-5l-32,6l-13,-3l3,-32l-18,-60l9,-39l-58,-85l-35,-32l-7,-14l-40,-40l-28,33l-17,8l-45,4l-63,-7l-39,-29l-111,2l-16,-15l7,-27l-2,-18l9,-27l48,-49l15,-25l-29,-51l1,-24l32,-39l22,-36l1,-36l7,-30l-74,-258l16,-4l5,-10l-2,-13l4,-27l-11,-7l-36,4l-10,15l-8,-10l-22,1l7,14l-7,12l-12,1l-8,16l-11,5l-25,-10l-28,-1l-63,-28l-1,-26l-11,-7l-16,2l-14,-10l-15,1l-20,15l-15,2l-10,-27l-19,-18l-21,14l-19,-10l-21,-1l-21,-21l-17,2l-8,14l-3,46l-9,1l-20,-21l-1,-38l-4,-16l-39,-22l-18,-5l-12,-15l-23,-13l-14,-42l2,-17l-23,-12l-14,-53l-12,-30l-19,-17l-24,-13l-33,-10l-37,-22h-26l-30,22l-41,14l-28,20l-25,2l-9,-21l4,-19l32,-38l20,-40l3,-17l-3,-16l-12,-6l-18,-1l-6,-25l-19,-2l-12,13l22,-33l27,-32l1,-33l13,-13l6,-20l11,-19l11,-10l1,-23l35,-22l19,-3l7,-12l-5,-52l15,-27l24,-180l6,-16l-2,-16l8,-19l-10,-11l8,-9l12,11l16,-16l23,-11l15,6l13,-8l19,17l13,-15l2,-15l-10,-17l15,-17l-9,-16l1,-13l-14,-18l-13,-13l-18,-2l-102,-6l-104,-297l-155,-444l-3,-21l6,-6l-4,-26l6,-9l-8,-14l4,-24l-5,-2l-3,-39l10,-13l1,-14l-10,-5l9,-36l22,-3l5,-19l-30,-6l-8,5l-13,28l-27,27l-25,17l-11,23l-152,-509l500,-392l-160,-47l17,-124l107,-116l30,-179l22,-9l16,-12l14,-2l23,5l32,28l12,-8l19,-22l26,-10l11,-18l21,-18l12,3l23,-11l6,10l43,-1l6,-11l14,7l7,-16l-7,-11l19,-5l18,-11l102,33l34,-4l371,7l144,82l202,263l-58,-302l83,-487l268,-369l-197,42l-286,24l-60,-186l-39,-112l-49,18l-332,127l0,15l-20,20l-8,27l-12,6l-13,-5l-4,12l-31,-2l-12,-17h-18l-13,-12l-17,-1l-12,-7l-9,-16l-27,-29l-30,1l-28,-6l-31,-26l-44,27l-304,32l7,13l23,15l21,-5l5,20l12,11l-3,18l6,13l-24,24l6,11l-14,19l-18,-1l-12,8l-417,-106l35,-259l78,-66l-134,-130l27,-19l25,-6l7,-8l9,-15l34,-22l38,-15l8,-8l23,-61l7,-7l8,-25l-3,-20l12,-9l-1,-31l13,-27l11,-5l3,-13l-3,-60l-11,-18l0,-23l6,-25l20,-54l0,-21l5,-7l28,-7l15,-10l19,6l5,-22l18,-11l18,-15h9l20,-27l19,-12l25,-11l22,-5l22,-9l13,5l12,-14l14,-5l14,-12l-12,-31l1,-31l-3,-22l7,-17l-4,-23l7,-47l8,-24l-7,-23l-2,-31l9,-4Z" /><path id="2702" d="M-368371,-95318l11,-18l-4,-37l-21,-33l9,-20l13,-10l24,-7l8,-13l16,-63l1,-20l-10,-14l-19,-12l-24,-7l2,-34l-14,-15l-23,-16l-24,-29l-2,-15l17,-35l-10,-17l-30,5l-22,22l-19,10l-18,-17l-22,-31l-45,-34l-36,-19l-52,-8l-11,-5l-21,-25l-33,-20l-14,-17l-8,-48l-21,-36l-22,-23l-19,-5l-47,11l-13,-8l0,-11l-3,-13l3,-27l-3,-31l-8,-11l-17,-1l-26,7l-14,-5l-43,-45l-6,-18l-9,-9l-40,-12l-8,-17l10,-25l21,-11l13,-13l5,-17l-6,-14l-18,-14l-16,-7l-27,-11l-13,1l-37,13l-41,1l-28,12l-21,-17l-15,2l-23,-7l-34,3l-70,20l-38,-10l-38,-17l-36,-41l-3,-14l3,-14l19,-22l16,-13l4,-15l-15,-11l-84,-14l-6,-15l6,-16l14,-14l10,-17l-8,-23l-11,-1l-16,-33l-2,-16l3,-31l7,-10l-3,-19l-27,-11l-4,-6l-27,-14l-11,-41l6,-26l-14,-16l-17,-2l-27,-9l-9,-14l2,-22l-9,-28l1,-12l-6,-23l-10,-20l-8,-33l-1,-28l-5,-11l-13,-11l-26,9l-15,12h-11l-16,-16l-9,-36l3,-12l-10,-31l-21,-12h-8l-35,-20l-7,-23l11,-16l1,-19l10,-33l-25,-30l-33,-8l-40,-28l-16,-11l-24,-41l-13,-5l-9,-18l0,-30l-5,-26l6,-9l14,-63l-10,-19l9,-39l-1,-42l4,-30l9,-14l-3,-49l-15,-26l-24,6l-18,-2l-22,-14l-30,-27l-6,-19l-18,-3l-21,1l-18,-3l-18,-27l-23,-29l-9,-22l3,-53l-9,-16l-18,-17l-24,-7l-18,-1l-16,7l-14,-1l-26,-13l0,-13l-20,-48l-13,-24l-27,-65l0,-46l-23,-1l-628,-395l-10,-12l-15,1l-8,-22l4,-25l-20,-19l5,-22l-4,-13l1,-38l6,-34l-8,-12l-33,-18l-29,2l-16,-18l-1,-15l-11,-2l-14,-18l-2,-20l6,-8l-5,-12l6,-32l-8,-16l3,-7l-12,-23l4,-22l10,-16l-35,-12l-9,4l-31,-26l-1,-21l-7,-10l6,-13l-11,-38l2,-24l-16,-34l-9,-6l-7,-17l-15,-11l-24,-41l26,-14l29,-33l22,-18l50,-22l50,-14l22,-17l19,-22l12,-25l19,-54l14,-23l12,-14l35,-28l23,-12l68,-24l78,-59l13,-32l18,-30l66,-66l28,-10l-16,-12l52,-51l19,-17l29,-71l26,-19l31,-6l56,11l28,-1l35,-14l22,-17l58,-19l28,-4l35,-1l20,5l24,10l122,46l55,5l35,13l31,16l10,8l32,36l15,9l30,4l19,-15l31,-17l27,-43l33,-33l24,-12l26,-7l46,10l18,-3l51,-25l28,-25l24,-48l13,-22l9,-26l5,-31l16,-63l32,-56l16,-45l4,-43l5,-20l2,-46l-1,-27l-6,-44l-17,-84l-14,-88l3,-17l13,-33l23,-24l35,-64l8,-21l13,-40l-3,-11l-2,-30l11,-73l8,-24l11,-16l13,-10l32,-17l51,-29l40,-35l22,-31l12,-23l7,-66l8,-35l8,-22l42,-59l31,-30l12,-20l6,-36l10,-37l10,-19l28,-29l30,5l46,3l39,-10l55,-5l19,-13l9,-14l9,-41l10,-12l17,-5l14,4l40,1l67,5l18,5h27l15,-6l13,-15l7,-25l10,-21l6,-29l23,-23l33,-20l50,-45l19,-32l15,-41l19,-62l68,45l11,14l9,32l11,13l11,1l12,21l12,2l36,24l26,3l16,13l14,20l16,13l135,122l103,29l34,27l26,12l43,36l50,13l30,21l4,8l61,50l62,10l14,14l14,15l11,30l5,52l9,26l54,71l25,25l19,3l37,30l12,25l3,25l54,52l19,12l47,3l14,7l21,24l5,20l0,28l30,42l33,27l19,68l125,118l4,83l9,-2l80,261l-2,22l-16,64l7,53l-7,51l9,23l58,88l125,232l7,8l56,-15h18l52,-22l3,-12l32,-6l20,-1l24,-11l9,-9l24,-11l16,-19l22,-8l21,-16l31,-31l20,-11l41,-9l22,-17l-15,-12l3,-12l28,-37l12,-5l-1,-21l-27,-24l-23,-1l-18,-38l-8,-31l10,-20l32,-9l25,8l9,-4l9,-23l-9,-8l-11,-28l-15,-15l-11,-35l-23,16l-3,16l-11,11l-15,-8l3,-37l-3,-20l15,-6l13,-11l11,-26l-4,-57l5,-31l-3,-7l-18,5l-8,-23l753,-33l585,-26l20,-38l-6,-20l7,-30l25,-6l20,-60l9,-64l-5,-31l6,-32l81,-22l13,11l27,-13l33,4l28,-5l364,388l-12,25l-14,-4l-6,8l-30,-12l-22,2l-30,-4l-46,-1l-11,12l-15,4l-6,18h-53l-40,5l-19,11l-24,39l-6,30l9,4l-3,26l19,26l12,30l22,17l14,35l6,26l19,18l28,1l14,11l-3,8l8,19l-3,22l6,17l-9,12l10,16l4,37l-6,10l6,21l-3,24l5,18l0,16l8,28l-5,19l-16,22l-13,28l-17,9l-22,35l-7,23l11,12l13,19l22,19l12,2l13,24l13,56l0,23l6,18l1,49l-19,30l-36,8l-14,7l-12,30l-48,31l-22,8l-8,15l-2,65l-6,35l-17,31l-42,65l-28,29l-13,28l-6,45l-13,20l-2,29l12,19l9,38l0,23l13,33l-4,32l9,28l-5,22l-2,49l-7,13l-32,24l-31,68l-18,10l-24,-1l-19,-7l-12,-9l-46,-24l-25,16l-24,29l-17,12l-31,32l-3,9l-21,21l-28,9l-36,7l-20,12l-35,15l-20,15l-35,3l-19,7l-19,2l-35,9l-9,7l272,359l497,3l5,-4l26,4l30,-17l17,21l2,12l11,19l1,39l28,34l5,31l-15,10l0,17l15,28l13,-13l10,-1l16,17l33,12l27,4l6,11l29,-3l22,13l13,-22l324,42l31,-9l56,-28l26,-4l22,-15l72,88l64,31l76,44l100,15l62,-17l4,6l36,-29l9,13l12,40l24,39l16,19l-11,41l-14,-2l-15,14l-35,-4l1,11l11,3l4,12l17,15l49,27l42,-22l10,-3l20,45l19,22l9,24l1,14l-9,4l2,31l7,23l-8,24l-7,47l4,23l-7,17l3,22l-1,31l12,31l-14,12l-14,5l-12,14l-13,-5l-22,9l-22,5l-25,11l-19,12l-20,27h-9l-18,15l-18,11l-5,22l-19,-6l-15,10l-28,7l-5,7l0,21l-20,54l-6,25l0,23l11,18l3,60l-3,13l-11,5l-13,27l1,31l-12,9l3,20l-8,25l-7,7l-23,61l-8,8l-38,15l-34,22l-9,15l-7,8l-25,6l-27,19l134,130l-78,66l-35,259l417,106l12,-8l18,1l14,-19l-6,-11l24,-24l-6,-13l3,-18l-12,-11l-5,-20l-21,5l-23,-15l-7,-13l304,-32l44,-27l31,26l28,6l30,-1l27,29l9,16l12,7l17,1l13,12h18l12,17l31,2l4,-12l13,5l12,-6l8,-27l20,-20l0,-15l332,-127l49,-18l39,112l60,186l286,-24l197,-42l-268,369l-83,487l58,302l-202,-263l-144,-82l-371,-7l-34,4l-102,-33l-18,11l-19,5l7,11l-7,16l-14,-7l-6,11l-43,1l-6,-10l-23,11l-12,-3l-21,18l-11,18l-26,10l-19,22l-12,8l-32,-28l-23,-5l-14,2l-16,12l-22,9l-30,179l-107,116l-17,124l160,47l-500,392l152,509l11,-23l25,-17l27,-27l13,-28l8,-5l30,6l-5,19l-22,3l-9,36l10,5l-1,14l-10,13l3,39l5,2l-4,24l8,14l-6,9l4,26l-6,6l3,21l155,444l104,297l102,6l18,2l13,13l14,18l-1,13l9,16l-15,17l10,17l-2,15l-13,15l-19,-17l-13,8l-15,-6l-23,11l-16,16l-12,-11l-8,9l10,11l-8,19l2,16l-6,16l-24,180l-15,27l5,52l-7,12l-19,3l-35,22l-1,23l-11,10l-11,19l-6,20l-13,13l-1,33l-27,32l-22,33l-24,1l-19,-33l-55,-10l-52,22l-32,34l-18,3l-44,-30l-55,-9l-16,-30l-26,-13l-17,-2l-79,6l-33,11l-15,24l-25,3l-19,-11l-25,-24l-26,-43l-14,-12l-45,1l-23,10l-23,26l-8,42l5,33l14,17l0,11l-15,8l-34,5l-21,17l-15,6h-52l-24,-15l-1,-33l-12,-20l-39,-12l-30,-42l-11,-7l-40,-1l-16,-6l-10,-18l15,-25l1,-24l-12,-5l-30,-2l-16,-7l-22,-46l-8,-9l-60,-14l-19,-12l-10,-13l-16,-5l-18,3l-13,-4l-11,12l-16,5l-28,29l-7,-6l-23,-7l-26,3l-7,-14l-7,-30l3,-10l-15,-33l8,-12l-8,-25l-17,2l-12,-18l11,-27l-4,-21l16,-22l-9,-12l-16,5l-27,-4l-18,-22l-13,-4l-17,21l-4,-9l12,-15l-536,-174l-186,-100l0,-26l-12,-23l0,-20l-7,-28l-7,-72l2,-13l10,-12l3,-25l15,-15l-13,-26l8,-14l37,17l14,-12l-6,-15l6,-7l25,-5l3,-13l-29,-17l11,-19l-8,-12l0,-31l-9,-7l-18,5h-17l-15,-6l-21,-15l-5,17l-10,1l-16,-27h-39l-11,-10h-19l-7,-24l-10,-1l-52,34l-25,-7l-5,-19l-39,5l-25,-20l-22,6l-5,-7l5,-19l-19,-7l-16,8l-7,20l-10,9l7,31l-10,18l-42,-10l-19,29l-9,20l-1,19l20,23l-13,11l-29,-23l-14,-6l-3,-22l-28,22h-10l-16,-12l5,-39l-4,-1l-9,-5h-21l-6,5l2,26l-4,9h-32l-18,6l-9,8l-13,38l11,18l-7,5l-38,-2l-25,12l-1,22l-7,15l-21,17h-14l-27,-12l-9,2l-27,26l-22,1l-15,-19l-28,-15l-16,4l-26,16l-28,2l-45,7l-13,12l-9,24l-23,-6l-28,31l-38,21l-23,18l-18,9l-18,15l-7,22l-11,22l-105,34l-621,215l-350,-89l-392,-82l-37,4l-11,30l-34,29l-26,46l-36,18l-28,-3l-28,33l-17,-5l-7,7l-60,29h-14l-17,13l-38,4l-17,-6l-21,-56l-47,-21l50,-6l-49,-18l-101,-48l-81,24l-29,-17l-129,-132l-21,-29l-23,-58l-33,-48l-4,-17l2,-35l-7,-34l-45,-47l-5,-25l5,-18l18,-16l22,-12l19,-25l-1,-30l-13,-43l-30,-38l-47,-34l-51,-17l-15,-12l-13,-29l-5,-29l16,-55l64,-88l-7,-16l-22,-28l-35,-30l-35,-29l-37,-20l-25,-7l-59,5l-31,12l-30,26l-28,31l-80,66l-69,69l-34,28l-146,-150l-64,10l-222,37l-21,-26l-7,-62l-16,-34l-8,-43l-22,-62l-84,-245l-11,-10l191,35l-6,-26l1,-33l5,-6l14,-47l-5,-6l13,-26l12,-13l-1,-15l-19,-32l9,-23l15,-15l39,-26l13,-15l19,-6l13,-12l7,-27l11,-9l24,-8l2,-27l5,-4l6,-40l11,-19l16,-7l2,-19l21,-13l29,1l10,-18l36,-28l-11,-20l13,-21l9,2l47,-41l15,-9l7,-24l2,-22l7,-23l11,-1l10,-15l-3,-25l635,-362l4,-5l55,-9l9,-4l9,-17l25,-22l10,9l20,8l55,-13l92,-29l28,-11l73,-22l85,-103l21,-10l52,-3l22,-5l10,-7l40,12l16,12l3,39l7,14l20,13l25,8h19l23,51l57,-5l11,4Z" /></g></svg>