<?xml version="1.0" encoding="UTF-8" standalone="no"?>
<svg
   version="1.2"
   width="1080"
   height="1080"
   viewBox="-54.8763 -4.5088 5.000599999999999 5.745"
   stroke-linecap="round"
   stroke-linejoin="round"
   id="svg5"
   sodipodi:docname="APMeso.svg"
   inkscape:version="1.2 (dc2aedaf03, 2022-05-15)"
   xmlns:inkscape="http://www.inkscape.org/namespaces/inkscape"
   xmlns:sodipodi="http://sodipodi.sourceforge.net/DTD/sodipodi-0.dtd"
   xmlns="http://www.w3.org/2000/svg"
   xmlns:svg="http://www.w3.org/2000/svg">
  <defs
     id="defs9" />
  <sodipodi:namedview
     id="namedview7"
     pagecolor="#ffffff"
     bordercolor="#000000"
     borderopacity="0.25"
     inkscape:showpageshadow="2"
     inkscape:pageopacity="0.0"
     inkscape:pagecheckerboard="0"
     inkscape:deskcolor="#d1d1d1"
     showgrid="false"
     inkscape:zoom="0.7537037"
     inkscape:cx="540.66339"
     inkscape:cy="540.66339"
     inkscape:window-width="1920"
     inkscape:window-height="1001"
     inkscape:window-x="-9"
     inkscape:window-y="-9"
     inkscape:window-maximized="1"
     inkscape:current-layer="svg5" />
  <path
     id="1602"
     d="M-520158,24365l-25,-17l-33,-5l-37,8l-25,11l-31,-2l-35,3l-29,10l-31,17l-25,2l-20,-11l-13,-21l-4,-54l-12,-36l3,-25l-2,-63l-8,-46l-11,-37l-2,-33l-14,-48l-15,-17l-22,-18l-13,-27l-16,-26l-21,-16l-33,2l-33,16l-24,2l-39,9l-39,29l-82,45l-27,28l-42,52l-16,-31l-3,-25l-18,-51l-48,-2l-27,17l-33,12l-38,2l-32,-9l-32,-37l-17,-17l-11,-20l3,-25l15,-18l51,-24l6,-21l-20,-17l-57,-5l-25,-23l-12,-33l-12,-21l-2,-57l5,-23l13,-30l25,-33l17,-37l-8,-27l-22,-24l-28,-11l-20,-45l-22,-38l-16,-21l2,-24l6,-31l-17,-25l-21,-25l-26,-14l-26,-29l-18,-14l-35,-13l-30,4l-33,-13l-17,-19l-15,-26l6,-44l22,-44l6,-30l-15,-25l-17,-19l-19,-14l-53,-20l-40,6l-19,20l-22,14l-26,8l-50,3l-18,-17l-16,-26l-18,-15l-27,-32l-7,-30l10,-43l22,-43l12,-41l-12,-24l-30,4l-14,19l-42,11l-13,-30l-3,-34l1,-29l-14,-31l-9,-55l-21,-16l-35,2l-37,45l-28,8l-33,-6l-67,-46l-31,7l-58,41l-41,-1l-25,-7l-21,-30l-14,-64l-22,-43l-26,-24l-65,-33l-27,-31l-7,-32l15,-34l34,-47l11,-38l-15,-101l-12,-41l-14,-40l12,-51l27,-22l31,-2l28,3l37,9l26,-3l34,-27l42,-54l19,-20l19,-29l-4,-33l-26,-8l-89,28l-22,16l-22,24l-27,19l-32,-1l-24,-14l-21,-28l6,-71l-20,-20l-11,-33l-11,-50l-20,-27l-37,-16l-65,-16l-31,-13l-13,-23l-19,-20l-26,4l-21,-11l-15,-19l-60,-7l-61,19l-38,-1l-28,-12l-19,-13l-40,-13l-63,1l-101,23l-31,13l-31,-4l-67,-19l-23,1l-34,-6l-53,-30l-32,-48l-9,-21l-17,-21l-15,-36l-37,5l-23,26l-21,-15l-17,-31l-15,-39l-8,-53l-21,-20l-23,-29l2,-34l-14,-19l-28,-10l-15,19l-24,-9l-21,-29l-32,-41l-30,-28l-25,-3l-25,-15l-43,-47l-33,-28l-35,-4l-35,2l-20,-13l-25,-12l-31,-22l-37,-22l-14,-17l-20,-36l-9,-31l-8,-44l14,-17l27,-9l15,-19l-4,-27l-14,-22l-12,-34l-3,-38l8,-71l6,-25l28,-78l17,-33l7,-39l1,-32l-7,-26l-17,-29l-27,-8l-20,20l-21,47l-19,19l-28,6l-28,-15l-16,-20l-26,9l-14,19l-23,17l-54,35l-24,19l-39,3l-33,-1l-26,-9l-23,-14l-37,-2l-24,-7l-4,-53l-33,-11l-35,-4l-25,4l-22,26l-24,12l-26,2l-37,-2l-47,-18l-24,-2l-36,12l-21,16l-35,14l-25,-1l-28,-6l-60,-78l-29,-32l-26,-16l-23,-4l-67,-3l-26,-5l-55,-28l-25,-22l-16,-49l-20,-21l-27,-4h-41l-39,-4l-51,-38l-21,-9l-27,14l-11,20l-2,37l1,26l-19,24l-45,-42l-30,-12l-29,6l-36,15l-24,1l-31,-9l-72,-27l-38,-3h-32l-10,-22l36,-47l4,-22l-25,-23l-23,3l-31,33l-28,18l-25,6l-60,-4l-21,10l-19,32l1,33l-10,27l-25,2l2,27l-14,29l-52,16l-77,41l-25,11l-24,14l-26,26l-8,27l-20,34l-15,37l-15,32l-24,22l-28,11l-24,-2l-44,-56l-19,-15l-22,6l-13,27l-10,34l-28,23l-17,22l-23,9l-87,-32l-26,-5l-33,9l-1,32l29,55l14,23l3,27l-28,16l-29,-17l-26,-20l-30,-13l-22,-14l-23,7l-18,23l-26,9l-53,-22l-59,-13l-57,-5l-34,7l-25,14l-19,14l-10,29l-19,25l-30,12l-70,-7l-54,-12h-59l-47,-26l-30,-10l-23,4l-17,29l2,49l-14,22l-58,-9l-24,7l-59,-43l-32,6l-56,21l-26,1l-23,-14l-19,-16l-30,-15l-38,-1l-47,40l-19,30l-22,25l-20,15l-28,15l-25,6l-31,-2l-70,-12l-34,-3l-31,6l-34,-15l-35,-37l-9,-23l-4,-46l-12,-22l16,-30l64,8l21,-6l-5,-30l-14,-21l-13,-31l9,-34l21,-29l-14,-33l-32,-54l-7,-25l-12,-20l-18,-22l-24,-14l-29,-9l-25,3l-26,15l-42,33l-24,11l-27,4l-22,-8l-22,-13l-18,-20l-17,-34l1,-41l-8,-24l-24,-19l-40,8l-87,51l-37,11l-29,4l-23,-4l-33,-17l-27,-20l-22,-46l-17,-30l-44,-41l-10,-24l16,-24l-11,-27l-27,15l-17,-17l18,-29l19,-16l15,-49l-25,-28l-17,-21l1,-25l9,-29l12,-26l7,-96l7,-35l9,-25l17,-31l10,-29l0,-22l-14,-19l-26,-13l-20,-14l-30,-11l-21,-17l-14,-20l0,-29l-12,-19l-48,-4l-7,-21l3,-27l-18,-16l-22,8l-37,65l-19,12l-52,-6l-23,-8l-46,-28l-56,-8l-50,9l-51,23l-18,14l-31,11l-30,3l-31,-2l-33,4l-56,-8l-26,-8l-29,-2l-48,3l-27,6l-48,16l-24,12l-21,16l-12,71l-38,82l-13,36l-33,47l-44,14l-94,7l-31,4l-62,-7l-47,-13l-55,-21l-26,-26l-34,-22l-36,-56l-13,-26l-19,-50l-42,-122l-31,-12l-21,-16l-29,-11l-30,4l-35,18l-22,22l-25,37l-6,24l-13,23l-35,87l-73,110l-29,20l-33,11l-36,1l-74,13l-24,9l-15,17l-17,31l-1,23l-15,55l-9,138l-33,47l-49,28l-71,28l-15,17l-14,48l-6,53l2,22l-4,35l6,25l-1,47l-13,60l-23,57l0,58l-7,68l10,80l23,59l8,54l-2,60l-41,93l-63,37l-54,8l-83,24l-38,21l-34,13l-40,33l-62,62l-26,15l-21,6l-23,-7l-84,36l-46,44l-60,36l-64,20l-55,6l-30,-3l-38,12l-88,40l-43,22l-96,61l-30,15l-82,83l-55,34l-92,79l-73,95l-20,59l-48,30l-30,76l21,46l49,36l4,29l-4,39l2,27l8,33l17,39l-25,18l35,19l49,-5l40,-10l42,48l25,73l-2,71l7,40l-12,40l17,20l64,-64l34,17l37,40l46,25l40,42l49,15l32,20l0,30l-13,35l-24,33l-15,32l-112,-23l-162,32l-13,35l25,83l-12,21l-38,8l-59,58l-28,-1l-29,22l-53,109l-56,-4l-39,11l-25,-15l-28,9l-84,56l-21,22l-35,76l-34,14l-15,34l-5,97l-31,42l-32,31l-36,-27l-38,-9l-28,10l-23,33l-24,58l-57,14l-44,-3l-38,-31l-33,12l-46,-35l17,-43l0,-36l-17,-76l-24,-52l-29,-38l-23,-42l-96,-28l-36,-25l-50,-69l-35,2l-49,-7l-47,3l-13,-39l-24,-41l-25,-27l-39,-2l-37,8l-26,-9l-39,-50l-26,-24l-118,-19l-68,-76l-32,3l-44,36l-44,10l-34,16l-55,42l-62,-11l-22,-11l0,-29l7,-30l34,-60l30,-1l26,-6l16,-25l25,-5l15,-31l-6,-58l-37,-32l-144,-44l-27,16l-26,27l-70,39l-46,-8l-54,-31l-70,17l-30,-11l-45,4l-68,34l-35,11l-54,-24l-18,-19l-7,-22l-34,-23l-27,2l-32,13l-35,-19l-34,22l-27,-12h-29l-14,26l-36,-1l-24,25l-29,39l-58,16l-16,27l-76,13h-30l-22,-13l-9,-23l-29,-3l-25,23l-11,21l-52,34l-29,27l-22,51l-32,17l-31,4l-25,-15l-31,19l-23,-6l-20,-25l-7,-27l0,-27l-43,-1l-20,18l-13,35l-36,9l-68,-30h-29l-26,20l-48,3l-56,-9l-34,2l-40,13l-9,23l2,25l28,39l0,33l13,19l-4,40l-79,-27l-18,30l-9,27l-29,4l-45,-3l-54,-32l-55,-11l17,-42l-32,-24h-25l-35,36l6,27l-20,18l-13,21l-5,27l3,32l-29,16l-39,-5l-83,-27l-58,34l-25,-4l-36,5l-22,15l-52,3l-22,-11l-12,-27l-22,-16l-72,3l-90,35l-4,32l4,24l-20,12l23,29l29,6l27,14l22,4l18,-20l23,11l-4,32l-21,24l-6,57l16,27l20,11l54,14l22,23l30,63l22,24l-2,26l-45,-30l-25,14l-24,25l-14,23l-42,50l-32,-5l-31,-29l-38,5l-50,45l21,11l54,16h24l27,27l18,34l-24,23l-68,-9l-60,10h-36l-25,22l-67,16l-36,-6l-21,-14l-4,-33l-29,-7l-79,-2l-68,-80l-24,-6l-39,14l-24,-5l-39,-55l-20,-20l-41,6l-22,-14l-14,-22l-2,-24l5,-36l-17,-61l-51,-16l-50,-6l-81,10l-22,-15l-9,-39l-11,-22l35,-41l18,-14l25,5l23,-2l18,16l45,-3l26,-27l20,-50l11,-50l-33,-5l-58,11l-52,-42l-23,8l-52,-34l-34,-9l-20,-22l-18,16l-56,-1l-29,11l-16,19l-4,29l-23,36l-29,13l-43,-69l-20,-15l-54,47l-23,-1l-24,-7l-29,9l-50,-1l-27,-22l-21,-57l-11,-19l0,-24l16,-24l4,-29l-9,-28l-21,-13l-20,-36l36,-49l-34,-24l-38,44l-23,-1l-5,-22l-32,-57l-24,5l-7,-48l-23,-19l-86,32l-13,32l5,42l18,20l-6,41l-27,16l-39,1l-43,-24l-27,7l-44,64l-23,-1l-14,-19l-22,-19l-3,-25l30,-13l6,-32l-26,-20l-29,-61l40,-76l0,-36l-7,-37l31,-38l-33,-49l-37,-20l3,-101l-33,-14l-50,18l-23,25l-27,-3l-52,-20l-33,6l-30,-5l-34,-44l-18,-51l-25,-12l-43,14l-60,12l-48,24l-45,-13l-20,-24l-47,-37l-1879,-512l-2475,311l-1651,1273l-605,-102l-299,344l58,498l14,356l-591,247l-534,-325l-749,-53l-40,-70l16,-114l23,-31l47,-33l-3,-31l19,-29l32,-23l40,-26l11,-38l37,-32l55,-54l60,-56l22,-31l64,-66l41,-50l40,-35l88,-104l45,-31l30,-30l20,-36l19,-75l6,-50l49,-78l40,-34l20,-53l-16,-32l-62,-18l-7,-35l-45,-63l2,-32l41,-46l-23,-23l-39,-14l-8,-33l3,-30l-18,-72l-3,-35l3,-30l12,-36l16,-26l61,-62l21,-34l15,-50l36,-30l18,-42l69,-61l18,-23l32,-66l31,-21l34,-10l17,-24l-4,-36l32,-59l29,-19l21,-26l25,-16l-4,-40l7,-63l-19,-28l-48,-16l1,-32l15,-35l-39,-8l-26,-23l-43,-22l-45,-14l30,-47l-33,-54l-34,-17l-45,-10l18,-52l-27,-25l-30,-13l-32,-23l-21,-40l-4,-35l-29,-3l-24,-34l3,-44l24,-22l-19,-38l-27,-22l-10,-35l16,-43l2,-34l16,-32l11,-40l-27,-27l-28,-15l-36,-29l11,-32l26,-31l-14,-30l35,-30l-11,-45l32,-32l-3,-44l-32,-25l-27,-29l9,-43l-16,-39l31,-43l26,-17l11,-31l-4,-42l-8,-36l-23,-18l-18,-47l40,-20l35,-116l43,-55l45,-35l2,-33l24,-28l14,-34l29,-8l16,-29l34,-18l22,-22l119,-34l7,-28l-8,-42l-1,-46l-31,-13l2,-49l81,4l80,-46l16,-36l6,-34l-25,-36l4,-33l-42,-1l17,-31l-22,-37l-29,-30l-15,-65l-19,-28l-47,-6l26,-55l-12,-93l10,-51l36,-39l-8,-48l5,-43l40,-20l-6,-68l-17,-31l7,-32l44,-23l29,-50l18,-43l13,-52l-3,-35l-7,-28l16,-69l4,-44l-8,-35l-3,-36l31,-44l16,-43l46,6l8,-39l33,3l-11,-32l3,-40l66,-1l-45,-72l-53,-56l-51,-22l-18,-28l38,-84l-56,-46l-19,-34l6,-40l11,-31l63,-43l2,-30l14,-76l55,7l25,-26l46,-4l61,4l24,-26l52,-2l81,12l41,-4l41,4l17,34l53,-22l8,-34l22,-22l50,8l31,-15l51,17l29,-5l49,-27l105,34l91,26l31,-22l49,-9l29,28l44,6l42,24l40,29l22,33l34,-7l75,-6h33l52,26l46,27l33,-27l43,-17l62,5l35,-25l35,-5l53,22l19,45l30,1l-2,-69l43,-11l26,-22l95,-12l114,-35l63,7l29,-25l36,-7l24,-22l30,-45l11,-44l81,-30l35,4l38,-51l35,12l33,16l38,-15l21,-27l47,4l27,34l29,6l9,42l45,-13l25,-21l31,1l33,-7l7,42l42,3l16,32l34,-25l42,16l42,-7l44,-1l42,-9l35,-14l63,-11l48,40l51,23l45,-10l23,-28l70,7l23,17l47,8l57,-39l56,-66l52,-41l28,42l-2,32l57,48l-1,30l15,33l39,-5l40,-41l71,-18l30,-1l29,-20l51,-11l-1,-38l10,-29l31,-9l35,2l14,-34l-19,-27l32,-8l24,22l25,-18l70,36l38,-12l24,-51l32,-1l33,-6l50,17l26,26l29,-39l-69,-32l-1,-5l36,-41l45,-1l25,-21l24,-34l72,22l33,-54l55,11l28,21l12,-30l-25,-45l-51,-34l-28,-10l-16,-32l36,-9l87,-1l56,28l39,-3l38,-21l-28,-33l25,-51l14,-39l-35,-16l38,-23l27,-35l-8,-29l-2,-53l56,23l43,14l45,-1l25,-19l24,-58l64,-4l38,19l41,-16l13,-54l4,-53l53,-29l38,-56l53,-32l39,8l72,-54l20,-34l10,-57l24,-81l43,-36l21,-33l37,31l-9,112l7,71l18,74l36,44l38,-7l28,-55l-5,-39l72,-40l65,-2l55,-10l44,-35l38,18l18,27l32,-32l22,-83l-9,-38l56,-2l40,-12l30,-32l-24,-29l-13,-39l28,-13l27,-28l23,-33l26,-23l5,-56l-48,-18l-40,-31l30,-56l56,-4l16,-45l26,-49l26,32l49,33l91,26l1,-63l-48,-63l-37,-30l-45,-82l-26,-86l30,-70l29,-4l66,16l62,-19l26,-67l36,-34l25,-57l55,-84l-31,-80l-13,-46l23,-44l15,-38l-2,-53l-20,-36l-13,-46l22,-37l37,-19l48,-7l-10,42l-4,50l102,61l26,-18l42,-45l65,-12l39,10l63,51l57,66l45,-40l75,-29l34,6l34,69l-64,100l73,-10l73,42l40,-3l28,-24l23,-49l24,-33l20,-43l-14,-48l-21,-51l-5,-55l17,-58l23,-52l20,-26l28,-10l85,42l28,-10l25,-46l48,-11l35,39l23,45l32,37l32,-7l53,-19l27,-19l14,-28l-8,-61l12,-30l51,25l54,8l37,-29l47,-17l64,25l29,-37l-13,-39l-34,-39l2,-78l-80,-39l-21,-27l1,-59l21,-19l32,9l126,59l20,34l9,29l2,32l19,51l54,15l93,-29l38,1l30,-5l14,-27l-9,-62l23,-28l26,-13l66,-20l33,1l40,-47l-6,-38l-66,-120l-39,-119l22,-53l28,-18l45,42l20,26l30,4l86,-19l50,-17l47,-27l43,36l64,11l27,-42l-32,-28l-63,-8l-17,-48l25,-19l64,25l35,3l96,-7l35,-26l37,-17l35,-4l52,2l50,10l28,14l17,24l3,30l-24,48l-45,34l-44,26l-37,29l-27,29l23,55l48,26h31l33,9l53,7l58,-44l30,-15l35,-9l32,-35l20,-58l28,-45l34,-28l27,-13l30,-19l65,-10l21,24l8,29l1,33l26,39l31,-48l43,-90l50,-35l60,-3l86,-42l32,-3l9,57l0,38l36,24l32,8l54,25l38,39l2,90l-8,35l-24,29l-33,26l-24,48l33,35l36,1l67,-52l56,-11l50,-7l31,-19l10,-48l-23,-50l-49,-31l-36,-29l-30,-34l-38,-73l-7,-39l2,-38l24,-47l73,-50l27,-11l58,38l82,41l45,-14l6,-37l0,-37l19,-45l39,-3l60,-2l37,11l20,21l9,33l-4,33l7,66l11,47l23,67l25,42l26,27l49,16l35,-7l22,-21l33,-64l9,-67l-5,-39l-32,-49l-10,-34l2,-48l14,-48l0,-67l-29,-47l-27,-21l-56,-41l-84,-35l17,-45l104,-88l30,-12l28,-6l33,6l20,33l29,61l38,30l147,40l59,-2l109,36l65,34l41,-28l26,-40l43,-41l64,-42l71,-58l30,5l22,20l11,48l5,51l44,6l52,-11l58,-7l29,-10l34,-27l37,-39l21,-43l26,-60l9,-50l-5,-32l-33,-35l-34,-19l-40,-14l-81,-13l-45,-11l-45,-24l-14,-42l5,-55l29,-105l25,-58l40,-45l60,-13l59,-4l32,-8l33,-16l38,-26l43,-56l29,-67l-14,-47l-16,-38l-43,-75l-32,-34l-55,-51l-70,-83l10,-70l29,-48l34,-43l51,-22l40,1l47,14l63,33l98,67l61,30l100,20l86,62l107,64l38,7l62,-32l128,-41l80,-8l41,2l51,24l17,30l15,58l40,-6l9,-59l-5,-109l8,-44l11,-27l23,-35l22,-47l23,-78l27,-22l90,-48l27,-19l43,-67l26,-79l-7,-89l-12,-39l-19,-81l-22,-44l-23,-28l-31,-22l-46,-14l-40,-4l-52,2l-53,19l-81,44h-51l-46,-24l-55,-42l-35,-35l-38,-53l-20,-46l-3,-62l18,-69l18,-102l1,-330l13,-33l18,-29l53,-39l46,-15l41,-29l27,-33l10,-64l3,-52l21,-29l51,-18l29,-43l23,-53l9,-48l-28,-10l-20,-25l-37,-56l15,-53l3,-50l-1,-60l-3,-42l17,-69l40,-30l53,-1l39,-31l28,-42l-14,-48l-6,-55l21,-151l-23,-43l-7,-49l27,-129l-5,-52l77,-70l43,-31l51,-15l57,-56l25,-16l138,-70l42,-37l27,-11l41,-26l29,-44l36,-34l47,-18l26,-18l87,-47l169,-80l84,-48l113,-82l148,-133l22,-40l34,-32l32,-42l14,-48l25,-46l43,-13l73,-64l21,-26l60,-54l133,-81l28,-10l47,-25l106,-78l93,-41l39,-34l12,-47l23,-43l46,25l42,-16l79,-58l27,-39l-15,-47l6,-46l40,-30l-1,-47l51,-21l33,-37l17,-26l25,-21l52,-12l29,-13l65,-54l33,-58l30,-39l13,-49l0,-50l29,-97l30,-35l40,-32l30,-2l48,28l28,14l52,3l27,-14l42,-39l20,-40l40,-25l49,-16l6,-45l-29,-43l-7,-49l-28,-44l-23,-43l-15,-50l-8,-46l15,-50l-25,-41l-18,-41l-10,-48l-22,-39l-37,-39l-39,-32l-38,-83l-35,-30l-40,-47l-25,-25l-32,-42l-12,-47l-17,-46l-11,-102l-22,-43l-13,-131l8,-28l40,-41l18,-44l-2,-104l-37,-98l-69,-66l-37,-28l24,-41l7,-46l-30,-42l-42,-84l-30,-75l47,-31l56,-24l33,-36l11,-44l-34,-97l-10,-52l-25,-77l-19,-47l-38,-72l17,-103l8,-32l28,-46l32,-73l1,-84l-14,-55l6,-34l-13,-45l-141,-168l3,-46l10,-28l29,-51l37,-34l10,-32l21,-26l40,-37l45,-17l45,-27l28,-35l51,-134l18,-24l28,-21l23,-45l3,-134l-4,-34l18,-41l4,-49l30,-40l98,-62l97,-35l17,-47l18,-35l23,-21l75,-99l37,-41l8,-32l-118,-217l-5,-56l20,-22l22,-39l1,-33l16,-69l20,-62l23,-90l19,-49l36,-32l30,-2l43,-33l49,-57l39,-55l22,-49l23,-30l69,-28l65,-61l46,-33l26,-83l32,-57l22,-30l32,-17l13,-26l8,-33l1,-17l22,-112l25,-69l47,-82l76,-48l57,-14l49,-35l12,-46l-18,-51l-13,-54l-6,-86l-15,-85l1,-31l24,-38l32,-33l25,-45l32,-42l28,-17l49,-5l65,-29l43,-32l18,-22l61,-96l14,-53l-10,-57l-5,-49l4,-50l-3,-32l5,-73l17,-148l16,-80l9,-31l16,-96l20,-67l14,-31l36,-58l40,-45l33,-88l34,-125l41,-126l40,-93l15,-47l41,-70l23,-51l14,-59l13,-77l19,-55l39,-33l86,-17l43,-23l28,-21l91,-32l64,4l59,32l46,43l53,33l50,9l51,1l76,-21l62,-26l33,-9l31,-19l67,-95l32,-81l30,-130l25,-53l43,-25l53,-41l100,-59l113,-85l132,-84l144,-101l26,-23l146,-97l20,-21l11,-27l8,-37l1,-39l-4,-34l8,-54l16,-34l58,-62l84,-82l56,-42l66,-43l52,-44l34,-14l32,-18l57,6l60,-1l36,-6l45,-26l46,-43l30,-44l29,-73l17,-29l25,-183l-1,-74l-8,-36l-25,-86l-24,-45l-24,-30l-29,-66l-32,-57l-20,-71l-6,-81l13,-57l38,-57l35,-33l38,-48l51,-84l10,-32l9,-54l-24,-42l-14,-38l-18,-29l-24,-31l-59,-45l-76,-107l-20,-63l8,-33l49,-66l40,-31l20,-50l-4,-33l-11,-31l-22,-34l-11,-31l4,-63l28,-48l104,-151l55,-23l31,-8l46,-33l17,-24l-4,-52l-21,-79l20,-59l75,-86l34,-64l77,-102l92,-156l43,-31l38,-39l27,-19l64,-3l98,-8l70,42l71,56l59,34l72,31l95,22l253,17h38l72,16l48,-10l29,-23l42,-39l31,-50l18,-38l39,-124l3,-65l15,-51l43,-65l12,-70l4,-99l15,-149l-9,-55l-33,-37l-15,-30l33,-15l18,-82l3,-59l64,-94l23,-42l20,-102l23,-83l2,-116l-7,-78l-39,-161l-111,-211l-53,-76l-34,-97l-11,-65l-1,-44l30,-91l28,-38l-81,-103l-85,-74l-65,-75l-17,-23l-28,-70l8,-80l25,-47l19,-15l19,-7l87,-7l51,-1l37,5l31,1l58,19l93,50l50,22l62,12l63,16l27,14l47,13l85,29l51,26l20,24l15,36l43,22l78,-23l34,-16l43,-34l12,-36l66,-66l59,-24l64,-45l33,-43l42,-37l33,-50l29,-54l30,-40l20,-48l-1,-56l-9,-91l-25,-161l-38,-40l-18,-2l-39,5l-29,1l-35,-8l-29,-13l-32,-7l-26,-12l-27,-22l-24,-25l-33,-39l-18,-58l3,-55l5,-34l21,-47l10,-19l23,-24l85,-69l49,-65l12,-62l-1,-128l6,-140l17,-37l20,-66l1,-53l-5,-41l-19,-69l-21,-26l-47,-48l-39,-48l-17,-48l9,-55l13,-27l23,-18l46,-1l51,24l85,56l63,11l83,-37l43,-42l45,-25l173,-55l33,-8l43,-23l62,-72l22,-56l17,-57l34,-98l28,-56l31,-91l27,-58l31,-45l32,-8l62,15l108,10l68,-15l50,-2l52,-16l61,-39l43,-35l55,-22l66,-14l77,-5l66,8l82,23l56,5l65,-8l97,-61l69,-22l74,-5l107,19l162,6l89,29l53,-5l47,-9l65,-31l42,-41l35,-45l36,-34l44,-27l37,-4l61,12l29,12l87,10l50,-4l37,-38l3,-32l25,-88l25,-53l8,-37l31,-85l6,-36l-9,-49l-18,-67l-13,-100l2,-47l-4,-56l11,-31l22,-30l56,-49l33,-19l143,-32l94,-38l46,-11l103,-2l29,4l27,16l31,36l44,113l-5,50l-22,30l-45,74l-23,35l-64,75l-9,31l-1,39l20,29l69,61l74,35l35,11l33,22l34,1l77,19l32,-2l54,-22l44,26l55,3l68,-12l81,-28l53,-2l31,42l10,31l0,77l-18,77l-45,114l-7,30l6,57l28,42l23,21l30,13l103,8l51,-17l43,-35l18,-33l18,-53l-11,-77l-5,-23l-23,-87l0,-65l14,-39l30,-39l26,-16l30,-7l37,1l28,8l25,28l22,33l59,151l54,101l24,34l50,18l31,-7l47,-45l32,-56l66,-84l112,-105l53,-30l46,-14l53,1l299,45l76,21l53,7l55,-1l159,16l87,4l103,52l103,43l40,33l61,39l-10,28l45,29l25,23l69,80l101,102l76,71l80,65l104,95l44,38l84,80l71,62l52,54l39,45l11,34l76,137l35,69l10,32l10,66l6,165l-15,80l-27,73l-3,96l0,43l5,35l-3,46l-21,158l-13,170l-23,181l1,34l16,129l12,68l22,91l-9,68l-2,188l6,131l12,63l9,30l7,119l-2,33l2,61l21,47l-1,33l4,34l15,54l8,109l1,15l42,87l49,63l29,29l41,107l18,35l33,36l57,89l15,34l72,112l53,106l35,51l50,86l46,56l62,97l31,40l79,149l117,175l50,84l239,273l42,37l93,96l55,50l133,115l131,131l39,50l30,35l11,17l31,40l44,30l98,91l34,20l39,16l69,47l21,22l15,30l27,37l22,24l39,35l95,113l70,63l63,91l34,66l33,41l41,63l82,138l30,77l11,37l32,150l15,103l14,47l16,29l40,47l129,96l80,97l172,174l102,113l41,50l18,32l6,56l-1,37l21,101l7,68l41,181l6,53l30,74l37,115l18,35l70,115l49,72l20,36l53,63l38,37l80,49l81,28l44,35l24,60l36,48l69,137l84,111l17,29l32,36l38,62l68,88l57,85l16,29l12,35l162,244l60,126l116,158l37,35l33,57h48l35,16l78,34l46,10l73,24l74,35l61,22l32,5l129,8h74l36,5l62,20l151,26l81,6l52,9l135,53l27,29l46,-5l75,14l41,11l49,27l70,46l32,29l58,83l57,64l146,180l92,141l39,51l29,50l63,86l65,62l33,42h70l36,38l47,95l23,63l48,101l41,60l17,20l45,44l61,45l32,31l60,45l133,88l120,70l131,64l130,34l79,17l104,33l100,23l79,24l229,51l67,23l58,10l138,43l138,33l54,11l187,58l180,75l48,14l185,95l112,81l58,30l31,27l46,27l112,90l66,56l106,69l147,107l75,58l203,204l31,33l128,142l84,89l45,30l39,32l84,77l71,37l34,10l59,75l106,121l134,217l103,150l31,58l55,133l30,59l52,141l45,72l58,111l51,83l28,97l5,46l16,71l83,189l30,49l13,46l10,74l14,55l146,183l34,55l46,97l52,129l49,182l1,133l14,82l25,97l63,169l25,51l24,79l38,102l28,58l84,142l17,43l29,48l51,56l63,59l152,117l120,93l110,72l112,76l171,127l114,67l75,34l111,41l113,32l109,23l126,35l220,49l131,26l109,11l50,13l167,30l-30,220l0,11l-21,108l37,69l71,61l87,31l155,20l208,47l93,15l127,-47l197,49l168,50l50,8l109,46l36,20l66,82l191,210l92,89l140,143l117,131l66,88l48,68l28,68l23,39l34,25l57,30l158,59l49,28l21,18l15,31l8,29l0,25l-14,38l-23,48l-24,42l-44,51l-59,52l133,325l2,6l145,22l77,20l101,58l72,57l25,23l29,19l31,35l33,33l32,48l11,37l27,59l33,41l94,69l86,78l56,41l100,61l40,40l22,93l18,119l11,123l-10,190l21,115l-4,44l-23,59l2,233l30,579l-24,46l-27,29l-35,22l-28,34l-14,40l-17,54l5,147l-8,41l-24,25l-13,274l-264,-44l-207,-39l-242,-64l-150,-38l-128,-16l-214,-36l-197,-24l-74,12l-117,13l-63,1l-32,-3l-57,-9l-65,-24l-153,-47l-155,-33l-69,-12l-45,2l-54,10l-46,14l-23,17l-36,40l-21,36l-22,45l-14,67l-2,35l7,48l21,78l29,57l33,86l21,47l26,50l24,38l48,62l14,28l5,81l7,60l0,118l-3,43l-7,36l-19,47l-28,46l-31,59l-55,36l-54,2l-60,-14l-66,-26l-53,-12h-69l-118,21l-136,29l-211,23l-72,-9l-71,-22l-74,-26l-85,-21l-79,-24l-47,-24l-98,-9l-66,-14l-45,-19l-36,-24l-38,-31l-69,-71l-48,-64l-42,-76l-36,-77l-14,-45l-3,-31l5,-35l50,-155l38,-80l52,-74l45,-74l41,-47l26,-55l7,-45l-21,-109l-26,-50l-34,-36l-42,-31l-48,-31l-31,-35l-31,-41l-19,-38l-19,-50l-12,-19l-35,-23l-45,-10l-53,7l-38,-5l-26,-11l-107,-43l-31,-3l-83,8l-35,17l-36,2l-15,-5l-39,-19l-30,7l-27,24l-48,63l-32,36l-34,31l-44,33l-66,43l-23,9l-26,4l-55,-7l-52,-12l-33,-10l-36,-16l-23,-3l-59,1l-16,-2l-40,-4l-27,-8l-32,-15l-37,-27l-57,-49l-83,-76l-78,-91l-14,-14l-12,-19l-9,-29l-18,-89l-18,-63l-13,-27l-25,-63l-14,-54l-3,-31l3,-25l7,-35l12,-74l8,-64l5,-55l-4,-35l-25,-68l-29,-51l-31,-41l-36,-38l-44,-41l-113,-73l-95,-44l-31,-20l-72,-62l-45,-28l-53,-30l-18,-8l-40,-3l-36,17l-21,18l-15,22l-12,24l-9,29l-1,43l9,114l-4,22l-8,16l-32,45l-62,67l-28,39l-27,47l-27,13l-31,-2l-32,-12l-32,-29l-19,-26l-42,-68l-19,-23l-38,-22l-51,-7l-35,14l-20,17l-13,19l-12,25l-18,54l-30,47l-15,13l-26,14l-32,5h-22l-29,-6l-38,-15l-65,-30l-31,-9l-26,-2l-61,2l-16,-4l-24,-15l-37,-40l-18,-23l-19,-37l-6,-24l-1,-24l6,-46l6,-25l21,-61l31,-65l49,-68l14,-22l15,-54l-4,-43l-12,-26l-19,-21l-36,-24l-25,-9l-42,-11l-97,-8h-27l-23,6l-38,22l-33,36l-22,32l-52,98l-31,42l-60,58l-25,17l-38,17l-57,10l-25,-6l-51,-32l-27,-21l-67,-68l-25,-19l-43,-25l-52,-15l-60,-5l-37,5l-45,8l-56,15l-36,4l-40,-4l-79,-30l-45,-25l-66,-24l-51,-7l-59,-4l-46,-8l-49,-13l-50,-9l-53,-28l-32,-30l-23,-30l-21,-33l-39,-85l-28,-73l-8,-30l0,-53l6,-26l28,-55l15,-21l13,-33l1,-44l-4,-16l-30,-45l-15,-12l-39,-37l-23,-15l-57,-22l-61,-16l-56,-11l-62,-19l-67,-18l-41,-8h-25l-42,8l-43,13l-34,6l-23,11l-25,32l-16,58l-1,34l-8,33l-24,58l-15,32l-14,33l-15,29l-31,27l-13,9l-30,8l-25,4l-33,1l-45,-5l-30,-10l-41,-2l-51,5l-50,1l-62,-2l-68,-23l-44,7l-41,16l-29,17h-26l-27,-16l-19,-18l-55,-35l-42,-36l-16,-9l-37,-3l-23,5l-71,9l-20,1l-28,-3l-35,-15l-68,-61l-21,-36l-4,-31l1,-17l11,-17l18,-41l6,-21l3,-33l-7,-37l-11,-17l-29,-27l-47,-29l-16,-24l-5,-19l-8,-61l-6,-30l-26,8l-5,18l-2,27l11,15l9,23l-3,14l-11,9l-35,8l-18,13l-8,-7l1,-16l-12,-4l-20,8l-7,20l18,2l-1,17l-25,15l-15,16l-6,17l8,10l18,-5l9,9l-4,27l4,14l-13,9l-39,-10l-17,9l-3,20l22,1l21,28l-13,18l-24,5l-1,10l9,19l-9,13l-35,12l0,19l-18,10l-18,26l3,16l10,12h11l32,31l6,16l19,19l-2,10l-18,17l-26,2l-17,6l-15,-3l-8,-13l-33,-5l-11,26l-50,5l-7,16l-4,35l11,22l20,7l11,13l1,12l-11,5l-2,22l-15,25h-21l-35,20l-14,5l-3,-13l-13,-1l-11,20l-8,3l-15,-10l-38,-8l-14,9l1,12l29,8l-24,32l-20,11l-2,18l-22,3l-13,16l-38,-18l-26,1l-3,14l-12,3l-31,-10l-11,3l11,19l-6,7l-19,-9l-7,-16l-17,10l-3,11l9,16l-16,3l-1,-16l-21,7l10,20l-14,6l-22,-3l-36,8l-28,-13l-15,17l-19,-3l-5,-16l-30,-2l-10,-17l-12,9l-7,-11l-31,3l-18,-18l-37,-1l-7,-16l-44,-17l-28,-25l-28,-1l-16,2l-6,-7l6,-19l-9,-6l-28,13l-28,-22l-22,4l-26,1l-15,26l-14,-4l-6,18l-15,-8l-27,27l-16,4l-4,32l-16,1l-7,25l-15,3l3,10l-15,4l-15,13l-20,-3l-19,23l-24,44l-7,3l-13,-13l-23,3l-13,6l-15,-15l-15,21l-30,-1l-17,10l-15,1l-17,10l-18,4l-4,-8l-22,-6l-17,11l-6,18h-30l-8,-8l-28,5l-20,-3l-18,-18l6,-10l1,-20l-20,-10l-35,-28l4,-18l-5,-26l-7,1l-18,-13l-8,-17l-10,-6l-14,-27l-19,-25l-12,-30l-21,-23l-22,-31l-7,-16l-7,-32l-1,-22l-6,-16l-27,-19l-32,-6l-15,-9l-32,-41l-18,-32l-15,-36l-33,-48l-41,-39l-5,-14l-4,-32l-17,-43l-11,-10l-28,-14l-16,-12l-11,-15l-12,-34l-21,-16l-9,-13l-15,-1l-7,16l4,44l-6,16l-29,32l-20,15l-3,18l3,19l16,37l-5,32l-20,8l-12,-5l-43,-37l-12,-3l-29,7l-10,6l-18,28l-13,16l-16,11l-22,9l-28,-7l-27,-22l-24,-7l-11,2l-21,21l-18,6l-25,-4l-27,-25l-14,-4l-95,-5l-13,2l-20,24l-3,30l-7,9l-21,7l-14,26l-8,32l-8,15l-32,21l-23,-4l-10,-9l-7,-32l-5,-37l-14,-10l-17,-1l-43,4l-33,-23l-14,-2l-31,3l-62,-4l-55,19l-19,2l-30,-8l-36,-22l-8,-13l-4,-44l-9,-27l-73,-35l-5,-25l25,-28l12,-22l7,-23l0,-36l-5,-32l-16,-25l-32,-12l-27,-14l-14,-3l-21,7l-8,9l-3,37l-7,21l-18,13l-10,1l-100,-40l-37,9l-31,50l-21,30l0,29l13,29l7,8l29,15l6,22l-13,34l-28,23l-24,11l-14,19l-12,5l-30,-6l-26,-2l-14,7l-20,26l-16,29l-1,10l9,25l-9,15l-19,5l-50,43l-14,36l4,63l24,467l-30,29l-30,17l-33,11l-32,14l-50,5l-17,8l-17,22l-7,4l-78,10l-54,12l-36,5l-65,1l-70,16l-46,3l-35,13l-43,34l-26,39l-6,15l-32,48l-22,9l-11,15l-3,16l-18,23l17,25l22,53l20,15l33,49l31,32l40,15l16,-2l15,15l10,21l15,13l12,-4l23,-34l14,3l2,18l20,46l2,29l5,29l-2,26l10,17l29,10l6,13l-9,13l-20,11l-18,2l-4,14l5,17l18,10l21,5l14,13l-1,26l6,25l18,20l4,16l-6,27l-25,28l0,19l6,24l32,72l1,47l2,32l-8,61l5,17l-5,39l0,19l11,15l15,5l17,-4l14,3l31,20l8,10l7,23l-1,17l-6,19l5,55l-4,33l-6,16l-1,29l-6,8l-29,-1l-13,24l-9,36l13,14l-4,43l-6,19l8,23l0,21l-5,14l-12,14l-25,23l0,33l11,24l-12,10l-50,26l-29,22l-4,9l8,21l14,11l23,12l35,11l28,-4l8,16l-1,38l12,17l24,4l30,-15l10,-1l21,42l19,18l-2,35l9,25l11,1l21,-13l18,8l64,19l23,18l23,5l32,-8h18l25,13l17,21l30,32l13,7l3,11l-12,22l-42,36l-4,16l10,16l5,35l18,15l27,60l24,44l8,25l26,57l11,42l18,32l19,60l-300,3l-819,6l-4897,-70l-36,24l-17,6l-29,23l-12,6l-26,-18l-36,-8l-16,3l-33,15l-18,17l-18,26l4,26l25,30l24,47l5,24l-8,21l-10,15l-2,15l5,30l-4,42l5,17l-15,39l0,18l9,20l25,28l13,28l-1,24l-19,17l-27,-2l-28,13l-18,5l-32,22l-26,22l-8,18l-13,50l5,50l-11,27l-17,18l-23,9l-23,18l-7,20l-11,17l-20,17l2,56l12,33l-5,8l-28,7l-8,-2l-22,11l-11,9l-9,-1l-7,15l3,19l7,3l34,-1l11,5l9,18l28,22l2,20l-5,23l-12,24l-13,14l-30,9l-17,16l-1,16l11,18l2,21l-21,32l-6,21l5,18l-7,20l-11,8l-7,15l8,21l16,10l29,24l10,16l0,24l-20,34l4,9l43,11l23,-1l21,12l6,10l-15,26l0,16l15,12l39,-26l10,10l0,22l14,14l-6,26l-17,22l-18,16l2,16l-25,8l-35,-10l-25,-3l-13,13l-7,21l14,26l4,32l8,11l10,1l49,-29l37,19l16,23l3,30l17,9l20,-7l10,9l-3,33l8,28l26,36l-7,21l-12,12l-23,10l-46,9l-11,12l2,20l11,25l3,20l-8,34l-6,12l-12,2l-13,-13h-14l-14,12l-40,-5l17,36l-4,40l-17,26l-4,28l2,23l-7,18l1,16l13,35l14,45l0,11l-17,27l1,27l15,11l15,33l9,14l-11,7l-25,7l-8,20l5,16l-2,25l-12,20l-23,27l-3,15l4,21l8,16l14,11l9,19l-6,25l-16,27l6,18l-8,26l3,9l40,2l15,16l20,-4l20,25l0,18l-5,19l9,34l29,61l20,16l13,19l-4,29l11,17l1,44l5,27l-8,25l2,10l21,15l-5,26l6,17l-6,55l-9,14l-2,30l-23,23l1,13l12,10l-1,19l-19,5l-14,-4l-12,-17l-17,-8h-18l-7,8l-9,25l3,18l16,28l-7,14l-15,12l-1,12l-13,37l-21,16l-21,-4l-18,4l-11,9l-3,11l-23,42l-6,17l-20,22l12,25l8,30l-3,41l16,27l14,-14l15,10l-6,19l-29,5l-26,-13l-16,7l-27,35l-5,16l-5,40l5,37l-12,23l-7,33l-1,18l-10,14l4,18l19,2l18,11l5,15l-2,15l-9,11l-1,19l5,20l17,19l17,32l0,30l-7,26l1,21l7,21l-4,13h-19l-10,6l-2,32l7,17l-9,44l4,15l-14,16l-8,19l4,13l21,32l-3,29l-42,22l-2,27l12,12l-2,27l5,21h17l17,5l2,18l-4,29l12,17l8,22l1,19l6,11l8,28l-7,20l-8,9l-38,12l-5,16l3,25l12,21l11,43l13,20l-15,33l-18,3l-9,-23l-9,-12l-17,7l-14,15l-9,24l4,11l17,7l16,12l14,19l-13,51l8,9l16,-4l12,11l-15,38l0,36l-13,21l-26,7l2,15l18,5l28,23l2,12l-8,13l3,14l-7,20l11,14l6,16l0,21l-12,9l-8,20l11,20l-3,39l-3,8l-20,13l1,27l20,24l-13,22l-16,17l8,16l-6,14l-17,11l-4,23l-20,4l-8,-13l5,-16l-9,-14l-17,3l-1,13l12,21l10,10l39,22l23,35l-9,20l5,15l18,29l18,19l7,-6l23,3l8,-9l6,-17l9,5l17,39l2,25l9,40l17,14l17,3l34,-7l21,6l9,9l7,24l2,23l-6,32l9,21l1,35l-13,20l28,15l11,15l3,11l-5,21l7,23l15,15l17,9l51,32l14,15l13,21l17,20l6,14l-25,80l-28,43l0,9l14,23l-2,14l-8,20l2,14l-13,27l-1,40l-12,31l-1,21l11,21l0,39l-11,14l-6,26l11,15l14,8l12,-3l19,-13l1,28l10,30l34,48l6,15l-2,18l-51,9l-15,12l1,9l50,31l5,11l1,26l8,25l23,20l22,7l2,12l-5,18l11,23l-4,8l-21,13l4,13l15,3l-2,21l5,54l23,19l8,13l8,27l1,28l6,14l15,16l-1,14l-26,2l-16,7l-30,32l-12,41l10,40l14,27l4,18l-7,27l-8,15l-31,25l-4,11l8,23l-6,35l0,30l4,20l-26,27l19,33l-6,33l8,24l1,13l-7,23l-14,2l-9,34l-6,7l8,24l-12,3l-20,-4l-24,14l-6,37l-25,21l-14,28l-2,36l-7,19l-23,10l-9,-17l0,42l3,31l-26,3l-8,28l-3,27l-16,5l2,13l16,17l6,42l-10,24l2,35l-4,28l-7,15l-22,22l-8,23l4,45l16,7l-4,24l-21,-7l-8,-16l-15,4l-9,25l11,20l-2,22l-11,30l-12,17l11,11l19,29l-18,22l-10,24l-10,5l3,18l-3,24l4,11l-10,18l-2,16l7,41l20,27l-7,53l9,18l12,4l7,12l-8,34l-13,10l4,30l-16,21l3,7l-6,24l-7,14l-21,11l1,22l-6,12l26,28l18,-3l6,35l-5,26l-2,29l6,18l-8,27l3,22l14,14l5,22l-2,9l-14,14l1,21l-4,8l-32,20l-8,14l-7,21l-12,21l-2,33l-5,15l-12,13l-28,18l-22,8l-26,15l-40,33l-24,10l-32,29l-16,28l-9,58l-3,36l7,49l2,48l7,42l22,31l31,63l51,25l12,23l10,49l39,57l14,31l7,24l30,53l-2,30l-8,24l1,41l39,56l25,26l0,44l-7,31l-10,23l-2,26l8,77l-4,82l5,71l-6,26l-18,20l-9,38l9,23l26,14l-13,31l-3,24l3,30l-15,22l-22,16l-15,26l10,44l10,25l18,28l0,41l-5,36l10,20l27,-3l25,4l87,38l30,-4l27,-9l21,9l20,22l13,26l2,45Z"
     transform="matrix(1.0000002e-4,0,0,-1.0000002e-4,4.1666659e-8,0)" />
  <path
     id="1601"
     d="M-504501,21092l-25,8l-27,24l-21,3l-30,-25l-59,-81l-21,-21l-28,-10l-25,-2l-101,26l-17,-5l-13,-12l-17,-27l-23,-24l-31,-18l-25,-2l-25,1l-53,13l-31,-38l-9,-24l-14,-51l-6,-51l-1,-47l4,-53l-3,-52l-7,-53l-19,-34l-2,-49l-7,-23l13,-10l-13,-27l-15,-44l-19,-38l-2,-16l3,-38l-14,-30l-7,-54l-8,-34l-4,-43l0,-40l-9,-37l8,-41l35,-19l67,2l45,-4l38,-23l33,-24l45,-74l16,-38l11,-36l6,-46l-3,-68l5,-36l25,-38l28,-31l23,-35l39,-39l72,-129l28,-60l33,-83l21,-73l23,-83l28,-95l20,-56l17,-40l24,-44l35,-45l48,-37l36,-24l33,-25l42,-21l42,-14l34,-5l77,12l141,35l78,27l95,32l67,34l53,30l45,31l29,24l35,35l51,43l50,48l116,130l101,111l23,29l37,55l11,22l32,41l32,48l8,18l3,49l-3,14l5,16l-4,36l-12,58l-17,61l-18,43l-22,35l-18,22l-7,19l-20,21l-22,18l-20,6l1,21l-31,4l-27,25l-6,19l7,20l-13,10l-9,-12l-16,-5l-21,4l-17,7l-20,54l-10,63l-14,6l-6,12l-1,32l-26,20l-9,13l-15,9l-38,9l-11,6l-14,30l3,33l15,31l1,10l-17,63l-7,58l11,66l-1,32l14,36l-2,25l-10,26l-14,19l-38,32l-21,12l-30,39l-16,3l-11,-9l-33,-7l-20,6l-33,17l-6,89l-42,60l-5,24l-37,11l-24,24l-3,31l-7,37l-9,24l-21,38l-32,28l-34,35l-46,6h-56l-57,-15l-84,14l-76,7l-10,-1l-42,-26l-46,-6h-30M-506840,21437l-13,67l12,21l15,38l14,55l4,53l-11,81l-24,87l-23,72l-53,104l-129,226l-78,87l-23,19l-27,11l-24,5l-45,80l3,14l-3,30l-8,40l0,30l4,53l12,40l18,130l0,34l-7,39l0,24l-10,23l-28,45l-48,63l-39,31l-32,32l-25,19l-13,33l-11,38l-2,20l-15,19l-4,19l11,36l1,42l-13,69l-3,56l-8,15l3,31l-10,13l8,22l-2,27l-25,77l-14,27l-70,55l-4,46l0,29l6,31l2,46l7,24l-14,24l-17,55l-20,45l-20,31l-29,35l-17,18l-6,17l-1,56l21,149l0,70l-9,68l-14,59l-14,42l-20,43l-44,58l-72,76l-8,39l-32,110l-20,51l-28,56l-14,18l-34,23l-42,18l-56,5l-32,-3l-33,5l-26,-3l-105,98l-3,19l9,47l28,82l-10,28l-31,37l-54,56l-5,24l20,69l-1,49l-15,57l-16,81l-22,74l-12,30l-36,37l-55,96l0,32l6,25l14,8l7,13l3,18l-1,113l-3,74l-15,132l-7,39l-8,35l-23,18l-40,17l-34,7l-16,7l-4,25l16,17l-1,34l7,17l0,20l-7,31l-16,40l-86,137l-27,34l-45,36l-37,3l-14,-4l-20,40l1,26l-39,198l23,38l5,88l-4,90l-3,57l-6,35l-12,28l-14,20l-32,29l-39,31l-79,53l-31,-6l-5,184l-3,66l-12,44l-11,26l-10,12l-32,24l-16,-1l-12,25l-5,17l-30,33l-37,34l-77,43l-21,2l-125,100l-3,18l-23,75l-31,64l-12,13l-18,14l-5,10l9,32l25,23l11,24l5,47l-10,43l-12,73l10,55l13,45l1,39l-10,32l-5,37l-9,17l-89,120l-21,47l-115,224l-15,47l-7,17l-24,23l-3,14l-15,8l-35,32l-3,10l2,25l-4,19l-30,91l-16,66l-9,23l-10,12l-17,5l6,42l-7,67l3,26l-8,69l-8,61l-12,59l-24,54l4,22l-1,23l-16,65l-19,41l-67,118l-77,102l-28,16l3,34l-5,20l-31,73l-2,15l5,17l-10,48l1,11l9,34l26,16l20,17l13,5l-4,17l-10,14l3,16l-9,18l-13,41l17,18l21,10l5,18l-6,16l3,11l-69,110l-41,59l-19,17l-46,27l-11,37l-30,53l-45,90l-40,91l-1,37l-3,12l11,33l2,17l-3,32l-8,24l9,22l9,13l6,22l1,27l-2,29l-8,39l-6,12l6,13l23,4l7,6l35,69l10,15l7,30l7,80l-4,18l1,50l5,13l10,84l6,36l-4,60l-20,60l-13,27l-75,182l-22,36l-32,35l-4,29l-22,23l0,37l-5,14l-21,17l-35,118l-74,166l-41,150l-131,368l-42,103l-46,188l-71,256l-14,111l-58,201l-5,83l-34,165l-1,25l8,21l66,53l9,10l47,71l22,60l32,59l3,30l36,164l1,198l36,244l16,154l-4,62l-40,258l0,100l-7,85l-8,41l-17,4l2,65l9,19l-1,16l-19,53l-5,21l15,42l15,69l1,80l-26,384l-9,491l4,47l25,212l11,195l-17,103l20,19l1,13l-10,59l1,42l12,15l1,19l-30,82l15,43l15,17l-7,25l7,77l5,21l15,11l-4,16l19,170l22,277l-8,52l-15,50l-21,48l-38,49l-32,36l-39,22l-24,2l-20,7l-15,14l-20,-5l-68,-7l-65,-18l-40,-26l-11,-3l-16,15l-269,54l-285,57l-7,32l7,22l-11,23l6,35l1,42l10,17l-13,34l-2,17l3,19l9,12l-6,12l4,52l-4,28l19,40l-32,46l15,15l2,14l-2,70l6,21l8,12l-5,25l13,23l-8,19l4,14l-7,9l15,39l-12,36l5,15l-1,28l-8,19l18,7l0,16l-17,26l24,58l2,17l-12,80l-11,40l-12,30l-15,19l-4,50l-6,29l-1,23l7,20l-2,16l-25,44l5,19l-10,37l12,30l-5,50l-19,9l-17,76l-5,13l4,15l-21,28l-5,25l14,7l-9,27l-37,82l10,30l-12,8l-10,15l-29,62l-12,31l0,12l10,9l-1,17l-16,17l-6,40l-5,15l-24,45l-3,31l-11,41l-26,25l-76,146h-13l-3,11l17,17l-2,9l-21,41l-54,77l-9,30l-34,30l-54,76l-36,65l-46,67l-56,70l5,4l-40,52h-10l-20,15l9,16l-4,20l-8,11l-32,23l-12,20l-23,28l-11,25l-18,20l-21,14l-53,128l-26,19l4,30l-47,40l4,19l-71,67l-7,37l-138,109l-224,237l-127,190l5,19l-40,12l-21,32l-137,95l-145,164l-82,52l-4,24l-107,94l-88,119l-57,36l-57,40h-19l-37,44l-47,42l-59,59l-86,64l-26,14l-16,16l-50,32l-40,34l-21,9l-286,241l-116,91l-33,2l-34,16l-161,81l-30,5l-1259,612l-148,-228l-96,-153l-74,-169l56,-303l-102,-294l-52,-280l24,-334l76,-229l199,-425l88,-151l78,-118l96,-148l42,-158l-30,-147l-94,-91l-37,-97l-7,-43l-5,-44l-7,-103l-7,-240l-46,-170l-15,-133l-20,-114l-13,-81l-7,-40l-16,-61l-32,-56l-14,-43l-7,-42l-15,-54l-16,-23l-18,-18l-79,-57l-21,-17l-31,-40l-31,-23l-33,-11l-23,-5l-38,-16l-31,-19l-48,-26l-23,-6l-55,-25l-14,-9l-39,-46l-26,-18l-48,-10l-31,-11l-86,-45l-43,-33l-25,-12l-39,-15l-39,-10l-42,-19l-17,-10l-81,-65l-36,-20l-9,-8l-18,-31l-27,-35l-17,-15l-113,-76l-18,-19l-21,-32l-13,-25l-13,-48l-2,-23l3,-68l-10,-85l25,-41l3,-24l-9,-45l0,-103l-13,-44l-36,-86l-47,-99l-35,-60l-19,-50l-23,-43l-13,-14l-33,-26l-11,-18l-27,-26l-61,-54l-20,-11l-48,-12l-9,-7l-15,-24l-4,-29l3,-34l-10,-29l-77,-59l-26,-12l-32,-9l-32,-28l-36,-49l-19,-19l-35,-28l-73,-55l-5,-25l-15,-37l-56,-46l-35,-60l-7,-19l-2,-23l-12,-34l-11,-18l-20,-23l-13,-10l-29,-7l-40,6l-34,-17l-6,-40l-12,-11l1,-16l-12,-3l-18,5l-21,13l-33,11l-34,9l-30,20h-21l-18,-19l3,-41l10,-14l29,-14l27,-1l18,-24l0,-30l-21,-21l-50,1l-15,-29l-38,-2l-20,-14l-21,2l-37,22l-17,1l-20,-11l-12,-15l0,-27l4,-23l-14,-22l-33,-18l-10,-13l-2,-17l12,-19l18,-12l15,-23l11,-26l6,-38l2,-43l3,-8l20,-22l18,-25l-4,-15l-19,-25l-14,-26l-4,-18l13,-57l-9,-34l-19,-39l-10,-12l-23,-9l-30,1l-45,10l-16,-30l-15,-9l-18,5l-24,13l-28,-4l-35,5l-11,7l-21,5l-27,-2l-38,-19l-13,-22l6,-31l-5,-15l-14,-7l-21,6l-16,-3l-39,-25l-29,-29l-37,-23l-9,-25l-2,-39l-16,-55l-19,-11l-4,-24l3,-21l-4,-27l-11,-29l-30,-44l-27,-15l-13,-23l-7,-21l-5,-41l-12,-36l-3,-37l13,-33l3,-33l-9,-23l-21,-36l-27,-20l-9,-33l21,-21l7,-38l16,-19l0,-21l10,-35l0,-12l-7,-14l-34,-38l-33,-49l-27,-34l-14,-8l-9,-18l-21,-30l-15,-8l-20,-18l-35,-40l-27,-28l-69,-60l-10,-14l-17,-39l-28,-35l-26,-62l-27,-44l-30,-36l-12,-35l-24,-37l-28,-62l-31,-44l-54,-105l-33,-48l-34,-61l-6,-19l-21,-47l-25,-45l-13,-14l-30,-10l-50,1l-20,-6l-10,-8l-15,-21l1,-35l11,-12l20,-17l-1,-18l-15,-39l-16,-28l-49,-41l-17,-34l-37,-17l-29,-10l-8,-19l-15,-22l-23,-47l-14,-18l-12,-39l10,-50l-13,-27l-1,-44l-8,-12l-48,-23l-30,-37l-37,-24l-20,-23l-26,-66l-15,-27l-5,-25l1,-25l-8,-25l-32,-11l-14,-26l-10,-10l-14,-30l-8,-29l-22,-26l-28,-52l-25,-31l-19,-45l-18,-28l-33,-68l-21,-50l-16,-28l-24,-33l-6,-20l-23,-37l-26,-22l-22,-41l-8,-44l-24,-42l-22,-43l-17,-23l-25,-49l-28,-46l-41,-29l-35,-39l-15,-31l-24,-35l-2,-30l5,-25l-5,-15l-31,-38l-14,-10l-36,-17l-23,-18l-21,-21l-13,-26l-13,-52l-8,-23l-16,-10l-9,-14l3,-15l24,-23l8,-17l-3,-27l-14,-27l-33,-11l-38,-33l-21,-15l-31,-33l-4,-24l-18,-35l-13,-16l-39,-26l-25,-49l-26,-39l-9,-26l-24,-32l-43,-55l0,-33l-5,-9l-22,-16l-15,-21l-9,-21l-21,-21l-22,-28l-10,-17l-17,-10l-40,-4l-22,-18l-12,-1l-30,16l-13,26l7,10l-7,22l0,29l-10,15l-21,17l-36,10l-36,4l-17,7h-15l-17,-8l-10,-11l-7,-21l4,-34l-11,-13l-40,-28l-16,-5l-22,-19l-15,-27l-21,-15l-29,-5l-21,-8l-24,-28l-19,-2l-20,-23l-26,-4l-26,-15l-3,-17l-1,-46l-5,-29l-20,-50l-14,-23l-30,-43l-29,-56l-3,-23l2,-27l16,-59l2,-22l-2,-25l15,-42l3,-20l-8,-39l-11,-12l-20,-1l-38,15l-32,7h-22l-24,-11l-33,-30l-29,-7l-34,6l-27,1l-15,6h-18l-11,-21l7,-14l14,-12l0,-14l-19,-45l-14,2l1,-28l-5,-10l0,-19l-22,-43l-25,-28l-24,-14l-5,-27l13,-4l18,-13l8,-28l5,-2l24,18l26,-30l-8,-25l-22,-15h-29l-34,6l-22,-7l-9,1l-28,20l-15,-1l-12,-13l-2,-19l-24,-31l-10,-21l0,-15l15,-35l21,-15l39,-14l32,12l29,-4l11,-10l0,-24l-45,-66l-24,-25l-7,-32l3,-75l12,-28l16,-20l27,-11l7,-20l11,-11l30,-13l37,-27l46,-42l9,-14l-1,-20l-8,-38l-8,-20l-26,-28l-17,-24l-17,-37l-16,-27l-10,-28l-22,-34l-27,-23l-7,-28l-28,-41l-8,-19l-4,-34l-28,-46l-10,-27l-18,-24l-8,-16l-3,-18l5,-14l-4,-15l-14,-15l-27,-19l-38,-13l-17,-12l-11,-44l-3,-23l1,-37l-28,-65l-2,-49l-16,-16l-23,-17l-9,-11l1,-24l27,-47l-1,-20l-15,-39l-6,-19l-27,-49l-9,-29l-34,-53l-6,-15l-26,-51l-6,-21l-17,-37l-20,-11l-72,-16l-13,-23l2,-9l29,-19l8,-23l-13,-44l-17,-28l-23,-17l-5,-28l11,-18l40,-25l7,-15l2,-37l13,-17l66,10l26,28l13,-1l8,-8l-1,-30l-5,-19l-12,-17l-42,-47l-10,-16l-25,-25l-20,-32l-9,-10l-8,-26l-16,-9l-32,-5l-31,6l-12,-6l-18,1l-15,8l-21,31l-10,1l-25,-16l-11,-13l-5,-13l-1,-27l-18,-10h-16l-33,10l-17,-1l-17,-7l-19,-16l-8,-13l-7,-31l-22,-52l-33,-52l-11,-15l-15,-40l-30,-22l-8,-26l-4,-28l-15,-17l-32,-50l-12,-31l-35,-38l-12,-43l-14,-38l-26,-32l-7,-19l-7,-47l-15,-43l-19,-20l-8,-34l-9,-19l-22,-22l-43,-76l-22,-45l-29,-34l-7,-21l-45,-69l-2,-41l-4,-27l-9,-23l-28,-30l-5,-17l2,-34l22,-58l-1,-10l-12,-13l2,-16l18,-21l-3,-14l-47,-14l-18,-13l-11,-29l2,-14l12,-12l25,-14l-5,-17l-29,-61l-9,-32l-20,-21l-7,-15l-4,-24l-18,-34l-22,-28l-8,-19l-12,-8l-24,-5l-13,-12l-28,-35l-9,-15l2,-44l-33,-43l-10,-16l-9,-38l-24,-46l-2,-13l9,-18l-8,-21l-13,-6l-19,-35l-26,-4l-12,-13l-9,-24l-18,-10l-11,-20l-3,-14l-13,-9l-4,-16l9,-34l0,-23l-20,-22l-9,-27l-26,-46l-24,-30l-5,-25l17,-18l-3,-13l-26,-29l-4,-14l1,-26l-21,-14l-20,-1l-18,14l-6,10l-28,9l-34,6l-19,-11l-19,-21l-25,-1l-15,-7l-6,-11l5,-28l-48,-51l-8,-15l-1,-16l8,-18l17,-17l18,-32l18,-6l40,3l10,-7l6,-16l4,-37l12,-29l-11,-26l-9,-35l-9,-14l-26,1l-23,-25l2,-12l41,-24l32,-9l20,-12l12,-13l34,-17l17,-24l24,-21l4,-9l11,-56l7,-11l0,-30l14,-14l8,-22l3,-23l-8,-18l-24,-15l-35,-42l-19,-41l-20,-37l-6,-22l6,-24l15,-7l6,-12l-12,-20l-10,-3l-21,6l-35,19l-33,14l-22,-1l-15,-6l-41,-40l-13,-18l-13,-29l-17,-13l-20,-8l-4,-9l7,-31l18,-34l22,-16l1,-32l7,-45l13,-23l19,-4l12,12l11,-1l10,-14l-7,-17l-19,-16l-6,-14l7,-23l1,-31l-15,-14l-57,1l-19,-18l-33,-9l-11,-6l-17,-25l-28,-26l-14,-23l-20,-11l-15,-13l-14,-25l-45,-33l-22,-24l-13,-28l-12,-7l-19,-1l-10,-9l-6,-14l4,-17l11,-12l-6,-14l-17,-1l-12,-10l-18,-39l-12,-16l-3,-43l-22,-16l-14,-3l-30,12l-28,2l-10,-11h-16l-18,9l-22,-9l-26,-2l-42,3l-17,-9l-32,-51l-6,-48l7,-28l9,-8l35,-15l20,-19l39,-24l9,-14l1,-16l-19,-21l-24,-12l-10,-9l-1,-16l-7,-11l-21,-4l-50,8l-13,-2l-11,-11l-32,5l-12,-34l-12,-6l-9,6l-2,36l-12,5l-29,-13l-5,-16l6,-29l-7,-9l-11,3l-21,-20l-5,-14l-34,-16l-17,-13l-3,-11l10,-26l-1,-14l20,-25l-1,-14l-8,-15l5,-22l-8,-22l-31,-22l-26,-35l-17,-17l-17,-27l-16,-17l-16,-24l-12,-28l-2,-20l7,-6l20,-2l16,-28l-8,-42l-23,-18l-1,-31l-6,-11l-8,-34l-19,-14l-3,-16l12,-7l-9,-44l-17,-8l-12,8l-12,-1l-38,-10l-8,-6l-9,-26l-12,-6l-25,-2l-24,15l-39,2l-60,-33l-27,6l-9,-3l-24,-22l-48,-18l-39,-8l-16,-12l-23,-5l-30,-22l-23,-2l-40,-33l-23,-36l-15,-5l-11,-13l8,-37l14,-25l-6,-9l-18,-7l-29,-4l-37,-19l-55,-13l-25,-2l-12,-12l-4,-18l-20,2l-11,13l-13,1l-27,-34l-24,-19l-26,-10l-16,-18l-30,-8l-7,-5l-42,-16l-20,-10h-16l-41,-15l-2,-32l-17,-11l-15,27l-19,-9l-13,-17l-2,-12l-16,-31l-28,-7l-12,11l-2,13l-12,13l-13,-6l-10,-15l-3,-20l-7,-18l-17,-23l-15,12l-19,2l-8,-5l-49,-54l-20,-12l-23,10l-22,-11l-22,-20l-1,-17l-23,-7l-23,8l-17,-5l-41,-30l-28,-3l-40,-19l-29,6l-16,-12l-45,-8l-19,-1l-24,-6l-27,1l-4,-30h-19l-26,14l-27,1l-7,-23l0,-15l10,-6l18,-2l7,-7l2,-22l12,-13l-2,-11l-60,-11l-25,9l-17,-11l-25,-8l-20,-2l-30,26l-20,2l-9,-9l4,-22l33,-18l-3,-16l-14,-6l3,-17l14,-3l-2,-23l29,5l10,-5l-6,-22l-20,-21l0,-24l-24,-13l-38,-6l-16,-14l-14,7l-24,1l-16,-7l-4,-12l-14,-3l-12,13h-12l-12,-21l4,-19l8,-12l-4,-28l-17,-14l6,-43l-11,-19l-12,-10l-20,4l7,-18l16,-6l-24,-33l-18,-4h-47l-15,4h-24l0,-18l22,-37l2,-28l-18,-15l2,-15l-7,-17l0,-18l16,-14l4,-21l-6,-8l-53,-23l-10,-25l4,-17l-10,-32l-7,-12l-21,-5l-12,-22l-13,-39l-27,-32l-24,-71l-8,-30l12,-23l-35,21l-10,12l-14,-2l-14,-13l-10,7l-14,32l-12,4l-22,-2l-25,3l-12,9l-11,-11l0,-16l-9,-1l-27,4l-10,-5l-30,13l-4,-21l-11,3l-17,34l-18,10h-10l-21,-29l-24,-15l2,-22l9,-32l-6,-15l3,-23l-26,-19l-16,-1l-14,-16l-13,4l-40,-9l-13,-12l-15,1l-29,-18l-19,-7l-12,15l-16,9l-11,-14l-22,-1l-12,-10l-16,2l-23,-8l-16,4l-22,-4l-35,-1l-9,-7l0,-15l-16,-15h-19l-12,-8l-12,15l-28,-14l-9,8l-22,-1l-5,30l-8,10l-28,-4l-8,10l-21,14l-2,7l-18,13l-7,17h-14l-24,-9l-15,11l-14,1l-6,10l-17,-3l-12,-18l-26,23l-18,-14l-22,15l-3,11l-18,1l-18,11l-42,-1l-16,12h-20l-8,11h-20l-20,22l-11,5l-22,-8l-9,8l-38,-15l-8,9l-18,1l-6,17l-51,11l-30,11l-27,-3l-9,17l-22,29h-13l-27,19l-2,23l-6,8l-12,-4l-25,6l-19,9l-29,26l-55,37l-46,34l-50,22l-51,1l-69,6l-30,9l-131,-17l-54,-8h-90l-65,-2l-52,3l-54,-18l-42,-21l-72,-12l-76,-21l-32,6l-49,-8l-42,-3l-26,-11l-28,-23l-44,-16l-44,4l-32,-1l-38,-9l-32,9l-86,-3l-8,-27l-34,-9l-29,-18l-21,20l-31,-22l-31,17l-19,18l-28,7l-12,30l-34,46l-27,2l-38,17l-32,3l-31,-24l-6,-33l-1,-29h-27l-31,-5l-32,-8l-8,-29l-15,-33l-35,-22l-41,-5l-41,12l-33,15l-30,26l-23,-20l16,-39l-26,-22l20,-59l73,-95l92,-79l55,-34l82,-83l30,-15l96,-61l43,-22l88,-40l38,-12l30,3l55,-6l64,-20l60,-36l46,-44l84,-36l23,7l21,-6l26,-15l62,-62l40,-33l34,-13l38,-21l83,-24l54,-8l63,-37l41,-93l2,-60l-8,-54l-23,-59l-10,-80l7,-68l0,-58l23,-57l13,-60l1,-47l-6,-25l4,-35l-2,-22l6,-53l14,-48l15,-17l71,-28l49,-28l33,-47l9,-138l15,-55l1,-23l17,-31l15,-17l24,-9l74,-13l36,-1l33,-11l29,-20l73,-110l35,-87l13,-23l6,-24l25,-37l22,-22l35,-18l30,-4l29,11l21,16l31,12l42,122l19,50l13,26l36,56l34,22l26,26l55,21l47,13l62,7l31,-4l94,-7l44,-14l33,-47l13,-36l38,-82l12,-71l21,-16l24,-12l48,-16l27,-6l48,-3l29,2l26,8l56,8l33,-4l31,2l30,-3l31,-11l18,-14l51,-23l50,-9l56,8l46,28l23,8l52,6l19,-12l37,-65l22,-8l18,16l-3,27l7,21l48,4l12,19l0,29l14,20l21,17l30,11l20,14l26,13l14,19l0,22l-10,29l-17,31l-9,25l-7,35l-7,96l-12,26l-9,29l-1,25l17,21l25,28l-15,49l-19,16l-18,29l17,17l27,-15l11,27l-16,24l10,24l44,41l17,30l22,46l27,20l33,17l23,4l29,-4l37,-11l87,-51l40,-8l24,19l8,24l-1,41l17,34l18,20l22,13l22,8l27,-4l24,-11l42,-33l26,-15l25,-3l29,9l24,14l18,22l12,20l7,25l32,54l14,33l-21,29l-9,34l13,31l14,21l5,30l-21,6l-64,-8l-16,30l12,22l4,46l9,23l35,37l34,15l31,-6l34,3l70,12l31,2l25,-6l28,-15l20,-15l22,-25l19,-30l47,-40l38,1l30,15l19,16l23,14l26,-1l56,-21l32,-6l59,43l24,-7l58,9l14,-22l-2,-49l17,-29l23,-4l30,10l47,26h59l54,12l70,7l30,-12l19,-25l10,-29l19,-14l25,-14l34,-7l57,5l59,13l53,22l26,-9l18,-23l23,-7l22,14l30,13l26,20l29,17l28,-16l-3,-27l-14,-23l-29,-55l1,-32l33,-9l26,5l87,32l23,-9l17,-22l28,-23l10,-34l13,-27l22,-6l19,15l44,56l24,2l28,-11l24,-22l15,-32l15,-37l20,-34l8,-27l26,-26l24,-14l25,-11l77,-41l52,-16l14,-29l-2,-27l25,-2l10,-27l-1,-33l19,-32l21,-10l60,4l25,-6l28,-18l31,-33l23,-3l25,23l-4,22l-36,47l10,22h32l38,3l72,27l31,9l24,-1l36,-15l29,-6l30,12l45,42l19,-24l-1,-26l2,-37l11,-20l27,-14l21,9l51,38l39,4h41l27,4l20,21l16,49l25,22l55,28l26,5l67,3l23,4l26,16l29,32l60,78l28,6l25,1l35,-14l21,-16l36,-12l24,2l47,18l37,2l26,-2l24,-12l22,-26l25,-4l35,4l33,11l4,53l24,7l37,2l23,14l26,9l33,1l39,-3l24,-19l54,-35l23,-17l14,-19l26,-9l16,20l28,15l28,-6l19,-19l21,-47l20,-20l27,8l17,29l7,26l-1,32l-7,39l-17,33l-28,78l-6,25l-8,71l3,38l12,34l14,22l4,27l-15,19l-27,9l-14,17l8,44l9,31l20,36l14,17l37,22l31,22l25,12l20,13l35,-2l35,4l33,28l43,47l25,15l25,3l30,28l32,41l21,29l24,9l15,-19l28,10l14,19l-2,34l23,29l21,20l8,53l15,39l17,31l21,15l23,-26l37,-5l15,36l17,21l9,21l32,48l53,30l34,6l23,-1l67,19l31,4l31,-13l101,-23l63,-1l40,13l19,13l28,12l38,1l61,-19l60,7l15,19l21,11l26,-4l19,20l13,23l31,13l65,16l37,16l20,27l11,50l11,33l20,20l-6,71l21,28l24,14l32,1l27,-19l22,-24l22,-16l89,-28l26,8l4,33l-19,29l-19,20l-42,54l-34,27l-26,3l-37,-9l-28,-3l-31,2l-27,22l-12,51l14,40l12,41l15,101l-11,38l-34,47l-15,34l7,32l27,31l65,33l26,24l22,43l14,64l21,30l25,7l41,1l58,-41l31,-7l67,46l33,6l28,-8l37,-45l35,-2l21,16l9,55l14,31l-1,29l3,34l13,30l42,-11l14,-19l30,-4l12,24l-12,41l-22,43l-10,43l7,30l27,32l18,15l16,26l18,17l50,-3l26,-8l22,-14l19,-20l40,-6l53,20l19,14l17,19l15,25l-6,30l-22,44l-6,44l15,26l17,19l33,13l30,-4l35,13l18,14l26,29l26,14l21,25l17,25l-6,31l-2,24l16,21l22,38l20,45l28,11l22,24l8,27l-17,37l-25,33l-13,30l-5,23l2,57l12,21l12,33l25,23l57,5l20,17l-6,21l-51,24l-15,18l-3,25l11,20l17,17l32,37l32,9l38,-2l33,-12l27,-17l48,2l18,51l3,25l16,31l42,-52l27,-28l82,-45l39,-29l39,-9l24,-2l33,-16l33,-2l21,16l16,26l13,27l22,18l15,17l14,48l2,33l11,37l8,46l2,63l-3,25l12,36l4,54l13,21l20,11l25,-2l31,-17l29,-10l35,-3l31,2l25,-11l37,-8l33,5l25,17l-2,-45l-13,-26l-20,-22l-21,-9l-27,9l-30,4l-87,-38l-25,-4l-27,3l-10,-20l5,-36l0,-41l-18,-28l-10,-25l-10,-44l15,-26l22,-16l15,-22l-3,-30l3,-24l13,-31l-26,-14l-9,-23l9,-38l18,-20l6,-26l-5,-71l4,-82l-8,-77l2,-26l10,-23l7,-31l0,-44l-25,-26l-39,-56l-1,-41l8,-24l2,-30l-30,-53l-7,-24l-14,-31l-39,-57l-10,-49l-12,-23l-51,-25l-31,-63l-22,-31l-7,-42l-2,-48l-7,-49l3,-36l9,-58l16,-28l32,-29l24,-10l40,-33l26,-15l22,-8l28,-18l12,-13l5,-15l2,-33l12,-21l7,-21l8,-14l32,-20l4,-8l-1,-21l14,-14l2,-9l-5,-22l-14,-14l-3,-22l8,-27l-6,-18l2,-29l5,-26l-6,-35l-18,3l-26,-28l6,-12l-1,-22l21,-11l7,-14l6,-24l-3,-7l16,-21l-4,-30l13,-10l8,-34l-7,-12l-12,-4l-9,-18l7,-53l-20,-27l-7,-41l2,-16l10,-18l-4,-11l3,-24l-3,-18l10,-5l10,-24l18,-22l-19,-29l-11,-11l12,-17l11,-30l2,-22l-11,-20l9,-25l15,-4l8,16l21,7l4,-24l-16,-7l-4,-45l8,-23l22,-22l7,-15l4,-28l-2,-35l10,-24l-6,-42l-16,-17l-2,-13l16,-5l3,-27l8,-28l26,-3l-3,-31l0,-42l9,17l23,-10l7,-19l2,-36l14,-28l25,-21l6,-37l24,-14l20,4l12,-3l-8,-24l6,-7l9,-34l14,-2l7,-23l-1,-13l-8,-24l6,-33l-19,-33l26,-27l-4,-20l0,-30l6,-35l-8,-23l4,-11l31,-25l8,-15l7,-27l-4,-18l-14,-27l-10,-40l12,-41l30,-32l16,-7l26,-2l1,-14l-15,-16l-6,-14l-1,-28l-8,-27l-8,-13l-23,-19l-5,-54l2,-21l-15,-3l-4,-13l21,-13l4,-8l-11,-23l5,-18l-2,-12l-22,-7l-23,-20l-8,-25l-1,-26l-5,-11l-50,-31l-1,-9l15,-12l51,-9l2,-18l-6,-15l-34,-48l-10,-30l-1,-28l-19,13l-12,3l-14,-8l-11,-15l6,-26l11,-14l0,-39l-11,-21l1,-21l12,-31l1,-40l13,-27l-2,-14l8,-20l2,-14l-14,-23l0,-9l28,-43l25,-80l-6,-14l-17,-20l-13,-21l-14,-15l-51,-32l-17,-9l-15,-15l-7,-23l5,-21l-3,-11l-11,-15l-28,-15l13,-20l-1,-35l-9,-21l6,-32l-2,-23l-7,-24l-9,-9l-21,-6l-34,7l-17,-3l-17,-14l-9,-40l-2,-25l-17,-39l-9,-5l-6,17l-8,9l-23,-3l-7,6l-18,-19l-18,-29l-5,-15l9,-20l-23,-35l-39,-22l-10,-10l-12,-21l1,-13l17,-3l9,14l-5,16l8,13l20,-4l4,-23l17,-11l6,-14l-8,-16l16,-17l13,-22l-20,-24l-1,-27l20,-13l3,-8l3,-39l-11,-20l8,-20l12,-9l0,-21l-6,-16l-11,-14l7,-20l-3,-14l8,-13l-2,-12l-28,-23l-18,-5l-2,-15l26,-7l13,-21l0,-36l15,-38l-12,-11l-16,4l-8,-9l13,-51l-14,-19l-16,-12l-17,-7l-4,-11l9,-24l14,-15l17,-7l9,12l9,23l18,-3l15,-33l-13,-20l-11,-43l-12,-21l-3,-25l5,-16l38,-12l8,-9l7,-20l-8,-28l-6,-11l-1,-19l-8,-22l-12,-17l4,-29l-2,-18l-17,-5h-17l-5,-21l2,-27l-12,-12l2,-27l42,-22l3,-29l-21,-32l-4,-13l8,-19l14,-16l-4,-15l9,-44l-7,-17l2,-32l10,-6h19l4,-13l-7,-21l-1,-21l7,-26l0,-30l-17,-32l-17,-19l-5,-20l1,-19l9,-11l2,-15l-5,-15l-18,-11l-19,-2l-4,-18l10,-14l1,-18l7,-33l12,-23l-5,-37l5,-40l5,-16l27,-35l16,-7l26,13l29,-5l6,-19l-15,-10l-14,14l-16,-27l3,-41l-8,-30l-12,-25l20,-22l6,-17l23,-42l3,-11l11,-9l18,-4l21,4l21,-16l13,-37l1,-12l15,-12l7,-14l-16,-28l-3,-18l9,-25l7,-8h18l17,8l12,17l14,4l19,-5l1,-19l-12,-10l-1,-13l23,-23l2,-30l9,-14l6,-55l-6,-17l5,-26l-21,-15l-2,-10l8,-25l-5,-27l-1,-44l-11,-17l4,-29l-13,-19l-20,-16l-29,-61l-9,-34l5,-19l0,-18l-20,-25l-20,4l-15,-16l-40,-2l-3,-9l8,-26l-6,-18l16,-27l6,-25l-9,-19l-14,-11l-8,-16l-4,-21l3,-15l23,-27l12,-20l2,-25l-5,-16l8,-20l25,-7l11,-7l-9,-14l-15,-33l-15,-11l-1,-27l17,-27l0,-11l-14,-45l-13,-35l-1,-16l7,-18l-2,-23l4,-28l17,-26l4,-40l-17,-36l40,5l14,-12h14l13,13l12,-2l6,-12l8,-34l-3,-20l-11,-25l-2,-20l11,-12l46,-9l23,-10l12,-12l7,-21l-26,-36l-8,-28l3,-33l-10,-9l-20,7l-17,-9l-3,-30l-16,-23l-37,-19l-49,29l-10,-1l-8,-11l-4,-32l-14,-26l7,-21l13,-13l25,3l35,10l25,-8l-2,-16l18,-16l17,-22l6,-26l-14,-14l0,-22l-10,-10l-39,26l-15,-12l0,-16l15,-26l-6,-10l-21,-12l-23,1l-43,-11l-4,-9l20,-34l0,-24l-10,-16l-29,-24l-16,-10l-8,-21l7,-15l11,-8l7,-20l-5,-18l6,-21l21,-32l-2,-21l-11,-18l1,-16l17,-16l30,-9l13,-14l12,-24l5,-23l-2,-20l-28,-22l-9,-18l-11,-5l-34,1l-7,-3l-3,-19l7,-15l9,1l11,-9l22,-11l8,2l28,-7l5,-8l-12,-33l-2,-56l20,-17l11,-17l7,-20l23,-18l23,-9l17,-18l11,-27l-5,-50l13,-50l8,-18l26,-22l32,-22l18,-5l28,-13l27,2l19,-17l1,-24l-13,-28l-25,-28l-9,-20l0,-18l15,-39l-5,-17l4,-42l-5,-30l2,-15l10,-15l8,-21l-5,-24l-24,-47l-25,-30l-4,-26l18,-26l18,-17l33,-15l16,-3l36,8l26,18l12,-6l29,-23l17,-6l36,-24l4897,70l819,-6l300,-3l-19,-60l-18,-32l-11,-42l-26,-57l-8,-25l-24,-44l-27,-60l-18,-15l-5,-35l-10,-16l4,-16l42,-36l12,-22l-3,-11l-13,-7l-30,-32l-17,-21l-25,-13h-18l-32,8l-23,-5l-23,-18l-64,-19l-18,-8l-21,13l-11,-1l-9,-25l2,-35l-19,-18l-21,-42l-10,1l-30,15l-24,-4l-12,-17l1,-38l-8,-16l-28,4l-35,-11l-23,-12l-14,-11l-8,-21l4,-9l29,-22l50,-26l12,-10l-11,-24l0,-33l25,-23l12,-14l5,-14l0,-21l-8,-23l6,-19l4,-43l-13,-14l9,-36l13,-24l29,1l6,-8l1,-29l6,-16l4,-33l-5,-55l6,-19l1,-17l-7,-23l-8,-10l-31,-20l-14,-3l-17,4l-15,-5l-11,-15l0,-19l5,-39l-5,-17l8,-61l-2,-32l-1,-47l-32,-72l-6,-24l0,-19l25,-28l6,-27l-4,-16l-18,-20l-6,-25l1,-26l-14,-13l-21,-5l-18,-10l-5,-17l4,-14l18,-2l20,-11l9,-13l-6,-13l-29,-10l-10,-17l2,-26l-5,-29l-2,-29l-20,-46l-2,-18l-14,-3l-23,34l-12,4l-15,-13l-10,-21l-15,-15l-16,2l-40,-15l-31,-32l-33,-49l-20,-15l-22,-53l-17,-25l18,-23l3,-16l11,-15l22,-9l32,-48l6,-15l26,-39l43,-34l35,-13l46,-3l70,-16l65,-1l36,-5l54,-12l78,-10l7,-4l17,-22l17,-8l50,-5l32,-14l33,-11l30,-17l30,-29l-24,-467l-4,-63l14,-36l50,-43l19,-5l9,-15l-9,-25l1,-10l16,-29l20,-26l14,-7l26,2l30,6l12,-5l14,-19l24,-11l28,-23l13,-34l-6,-22l-29,-15l-7,-8l-13,-29l0,-29l21,-30l31,-50l37,-9l100,40l10,-1l18,-13l7,-21l3,-37l8,-9l21,-7l14,3l27,14l32,12l16,25l5,32l0,36l-7,23l-12,22l-25,28l5,25l73,35l9,27l4,44l8,13l36,22l30,8l19,-2l55,-19l62,4l31,-3l14,2l33,23l43,-4l17,1l14,10l5,37l7,32l10,9l23,4l32,-21l8,-15l8,-32l14,-26l21,-7l7,-9l3,-30l20,-24l13,-2l95,5l14,4l27,25l25,4l18,-6l21,-21l11,-2l24,7l27,22l28,7l22,-9l16,-11l13,-16l18,-28l10,-6l29,-7l12,3l43,37l12,5l20,-8l5,-32l-16,-37l-3,-19l3,-18l20,-15l29,-32l6,-16l-4,-44l7,-16l15,1l9,13l21,16l12,34l11,15l16,12l28,14l11,10l17,43l4,32l5,14l41,39l33,48l15,36l18,32l32,41l15,9l32,6l27,19l6,16l1,22l7,32l7,16l22,31l21,23l12,30l19,25l14,27l10,6l8,17l18,13l7,-1l5,26l-4,18l35,28l20,10l-1,20l-6,10l18,18l20,3l28,-5l8,8h30l6,-18l17,-11l22,6l4,8l18,-4l17,-10l15,-1l17,-10l30,1l15,-21l15,15l13,-6l23,-3l13,13l7,-3l24,-44l19,-23l20,3l15,-13l15,-4l-3,-10l15,-3l7,-25l16,-1l4,-32l16,-4l27,-27l15,8l6,-18l14,4l15,-26l26,-1l22,-4l28,22l28,-13l9,6l-6,19l6,7l16,-2l28,1l28,25l44,17l7,16l37,1l18,18l31,-3l7,11l12,-9l10,17l30,2l5,16l19,3l15,-17l28,13l36,-8l22,3l14,-6l-10,-20l21,-7l1,16l16,-3l-9,-16l3,-11l17,-10l7,16l19,9l6,-7l-11,-19l11,-3l31,10l12,-3l3,-14l26,-1l38,18l13,-16l22,-3l2,-18l20,-11l24,-32l-29,-8l-1,-12l14,-9l38,8l15,10l8,-3l11,-20l13,1l3,13l14,-5l35,-20h21l15,-25l2,-22l11,-5l-1,-12l-11,-13l-20,-7l-11,-22l4,-35l7,-16l50,-5l11,-26l33,5l8,13l15,3l17,-6l26,-2l18,-17l2,-10l-19,-19l-6,-16l-32,-31h-11l-10,-12l-3,-16l18,-26l18,-10l0,-19l35,-12l9,-13l-9,-19l1,-10l24,-5l13,-18l-21,-28l-22,-1l3,-20l17,-9l39,10l13,-9l-4,-14l4,-27l-9,-9l-18,5l-8,-10l6,-17l15,-16l25,-15l1,-17l-18,-2l7,-20l20,-8l12,4l-1,16l8,7l18,-13l35,-8l11,-9l3,-14l-9,-23l-11,-15l2,-27l5,-18l26,-8l6,30l8,61l5,19l16,24l47,29l29,27l11,17l7,37l-3,33l-6,21l-18,41l-11,17l-1,17l4,31l21,36l68,61l35,15l28,3l20,-1l71,-9l23,-5l37,3l16,9l42,36l55,35l19,18l27,16h26l29,-17l41,-16l44,-7l68,23l62,2l50,-1l51,-5l41,2l30,10l45,5l33,-1l25,-4l30,-8l13,-9l31,-27l15,-29l14,-33l15,-32l24,-58l8,-33l1,-34l16,-58l25,-32l23,-11l34,-6l43,-13l42,-8h25l41,8l67,18l62,19l56,11l61,16l57,22l23,15l39,37l15,12l30,45l4,16l-1,44l-13,33l-15,21l-28,55l-6,26l0,53l8,30l28,73l39,85l21,33l23,30l32,30l53,28l50,9l49,13l46,8l59,4l51,7l66,24l45,25l79,30l40,4l36,-4l56,-15l45,-8l37,-5l60,5l52,15l43,25l25,19l67,68l27,21l51,32l25,6l57,-10l38,-17l25,-17l60,-58l31,-42l52,-98l22,-32l33,-36l38,-22l23,-6h27l97,8l42,11l25,9l36,24l19,21l12,26l4,43l-15,54l-14,22l-49,68l-31,65l-21,61l-6,25l-6,46l1,24l6,24l19,37l18,23l37,40l24,15l16,4l61,-2l26,2l31,9l65,30l38,15l29,6h22l32,-5l26,-14l15,-13l30,-47l18,-54l12,-25l13,-19l20,-17l35,-14l51,7l38,22l19,23l42,68l19,26l32,29l32,12l31,2l27,-13l27,-47l28,-39l62,-67l32,-45l8,-16l4,-22l-9,-114l1,-43l9,-29l12,-24l15,-22l21,-18l36,-17l40,3l18,8l53,30l45,28l72,62l31,20l95,44l113,73l44,41l36,38l31,41l29,51l25,68l4,35l-5,55l-8,64l-12,74l-7,35l-3,25l3,31l14,54l25,63l13,27l18,63l18,89l9,29l12,19l14,14l78,91l83,76l57,49l37,27l32,15l27,8l40,4l16,2l59,-1l23,3l36,16l33,10l52,12l55,7l26,-4l23,-9l66,-43l44,-33l34,-31l32,-36l48,-63l27,-24l30,-7l39,19l15,5l36,-2l35,-17l83,-8l31,3l107,43l26,11l38,5l53,-7l45,10l35,23l12,19l19,50l19,38l31,41l31,35l48,31l42,31l34,36l26,50l21,109l-7,45l-26,55l-41,47l-45,74l-52,74l-38,80l-50,155l-5,35l3,31l14,45l36,77l42,76l48,64l69,71l38,31l36,24l45,19l66,14l98,9l47,24l79,24l85,21l74,26l71,22l72,9l211,-23l136,-29l118,-21h69l53,12l66,26l60,14l54,-2l55,-36l31,-59l28,-46l19,-47l7,-36l3,-43l0,-118l-7,-60l-5,-81l-14,-28l-48,-62l-24,-38l-26,-50l-21,-47l-33,-86l-29,-57l-21,-78l-7,-48l2,-35l14,-67l22,-45l21,-36l36,-40l23,-17l46,-14l54,-10l45,-2l69,12l155,33l153,47l65,24l57,9l32,3l63,-1l117,-13l74,-12l197,24l214,36l128,16l150,38l242,64l207,39l264,44l-27,553l44,70l36,86l20,69l13,6l34,57l33,76l27,80l16,129l12,108l3,59l-2,59l-11,42l-14,24l3,29l28,19l16,27l-2,70l4,102l17,99l8,64l1,74l-6,79l-2,120l-11,145l-15,81l-22,68l-4,91l0,112l-9,47l-10,42l-28,73l-19,64l-23,68l-15,20l-24,18l0,46l9,34l-49,158l-20,111l-15,88l-9,29l7,48l11,-2l10,39l2,74l-4,65l-17,49l-3,33l-33,142l-34,118l-11,134l-26,106l-26,48l-36,22l-21,102l17,43l-13,59l-33,55l-53,59l-136,106l-153,98l-378,192l-134,76l-97,66l-132,66l-187,74l-296,118l-117,32l-400,144l-265,147l-71,18l-111,6l-97,-9l-107,-25l-365,-14l-114,13l-191,24l-157,-39l-97,-7l-349,75l-67,-5l-271,-102l-151,-36l-270,-8l-140,15l-92,27l-34,41l-38,20l-97,27l-42,17l-219,160l-83,76l-295,425l-29,34l-11,38l-171,416l-36,43l-38,58l-26,17l-38,14l-120,63l-66,64l-247,338l-63,148l-64,205l-27,60l-18,97l4,95l-5,16l2,21l12,38l8,34l-3,28l-25,48l-31,44l-57,58l-37,42l12,9l-59,74l-55,32l-5,21l-22,5l-82,51l-22,32l-62,56l1,19l-20,5l-19,13l-102,53l-64,45l-80,46l-38,18l-56,24l-15,1l-21,103M-505088,21852l-49,1l-14,-13l-16,5l-33,-8l-32,-16l-8,-25l-41,-30l-13,-33l-31,-28l-46,-35l-33,-20l-36,-29l-26,-32l-18,-30l-9,-29l-8,-13l-23,-14l37,-10l41,5l27,-13l49,-37l28,-19l24,-22l23,-24l25,-43l18,-47l13,-43l17,-14l18,-20l63,-136l28,-46l36,-35l41,-18l38,-12l44,-7l20,8l17,12l29,42l26,20l39,-2l28,-7l40,-16l24,-1l18,5l23,15l23,27l42,56l43,31l21,4l21,-5l52,-25l8,3l51,31l66,14l51,1l33,-3l28,4l25,9l17,23l14,25l5,51l-4,30l-14,34l-3,21l-20,19l12,35l-4,7l-23,9l7,29l-5,5l-31,4l-25,24l-10,38l-12,23l0,18l-20,16h-42l-5,9l3,20l-20,2l-5,11l6,17l-4,10l-16,10l-14,3l-27,-22l-40,12l-19,12l-7,14l-32,21l-24,11l-3,23l4,13l-4,13l-39,48l-20,11l-18,13l-20,-19l-35,2l-24,-4l-28,-14l-26,-4l-14,8l-23,28l-12,-11l-24,8l-17,1l-28,-18l-64,9l-32,-2l-31,5l-42,16Z"
     transform="matrix(1.0000002e-4,0,0,-1.0000002e-4,4.1666659e-8,0)" />
</svg>
