<?xml version="1.0" encoding="UTF-8" standalone="no"?>
<svg
   version="1.2"
   width="1080"
   height="1080"
   viewBox="-41.4235 2.7843 4.1708 5.0739"
   stroke-linecap="round"
   stroke-linejoin="round"
   id="svg10"
   sodipodi:docname="CEMeso.svg"
   inkscape:version="1.2 (dc2aedaf03, 2022-05-15)"
   xmlns:inkscape="http://www.inkscape.org/namespaces/inkscape"
   xmlns:sodipodi="http://sodipodi.sourceforge.net/DTD/sodipodi-0.dtd"
   xmlns="http://www.w3.org/2000/svg"
   xmlns:svg="http://www.w3.org/2000/svg">
  <defs
     id="defs14" />
  <sodipodi:namedview
     id="namedview12"
     pagecolor="#ffffff"
     bordercolor="#000000"
     borderopacity="0.25"
     inkscape:showpageshadow="2"
     inkscape:pageopacity="0.0"
     inkscape:pagecheckerboard="0"
     inkscape:deskcolor="#d1d1d1"
     showgrid="false"
     inkscape:zoom="0.7537037"
     inkscape:cx="540.66339"
     inkscape:cy="540.66339"
     inkscape:window-width="1920"
     inkscape:window-height="1001"
     inkscape:window-x="-9"
     inkscape:window-y="-9"
     inkscape:window-maximized="1"
     inkscape:current-layer="svg10" />
  <path
     id="2307"
     d="M-398901,-73398l38,5l28,12l87,56l82,33l26,15l63,23l96,3l83,-40l111,-33l46,6l58,27l29,4l34,-15l55,-2l28,3l29,-3l38,-14l29,-3l49,1l88,23l42,17l158,17l74,-3l117,-2l52,-16l85,-28l214,-66l87,-44l126,-82l136,-81l182,-138l74,-86l61,-149l54,-110l28,-85l13,-66l12,-37l23,-14l33,1l78,13l68,19l32,-4l63,-46l61,-37h51l46,24l69,21l10,1l24,-9l15,-11l13,-38l56,-201l22,-67l50,-121l47,-82l44,-24l25,-8l27,-9l68,23l58,37l90,62l95,55l44,17l53,13l31,-18l18,-21l51,-33l27,-11l24,-3h118l34,18l42,13l72,-16l24,-33l16,-59l10,-215l-16,-43l-124,-144l-70,-64l-47,-23l-11,-8l-22,-27l-5,-16l2,-40l8,-27l9,-17l21,-26l47,-79l10,-100l11,-56l9,-40l10,-23l19,-6l48,12l56,-14l93,31l33,7l127,-15l61,-71l55,-60l4,-54l22,-108l10,-14l11,-5h90l31,-3l72,-12l61,-18h13l58,1l21,-5l31,-24l48,-8l34,-24l26,-36l5,-15l15,-46l88,-29l39,-32l52,-12l74,-44l13,-13l31,-77l37,-24l106,-47l27,-25l66,-5l34,-5l18,-21l10,-39l17,-39l13,-8l33,20l46,9l89,-19l50,7l114,41l21,2l39,-49l11,-50l125,-75l31,-62l-4,-45l26,-26l-26,-23l17,-38l-20,-17l-22,-65l84,-4l15,5l25,29l21,33l34,18h25l20,11h16l59,-11l22,18l56,19l66,36l38,-27l37,-33l49,-16l39,-2l18,-16l26,-37l42,-30l23,-39l12,-3l22,2l33,-31l34,-25l23,-2l13,15l16,-17l29,-12l43,-4l26,8l18,-11l26,5l50,-12l29,-3l14,-5l41,-30l26,-14l28,-32l21,-46l28,-43l10,-30l30,-47l40,-36l15,-24l90,-76l30,-34l16,-54l22,-54l23,-47l-3,-42l-15,-49l3,-25l6,-15l33,-36l15,-27l19,-72l18,-27l21,-46l0,-21l-8,-40l-10,-24l-5,-32l3,-18l46,-95l2,-36l-4,-15l-14,-19l-35,-29l-27,-39l-7,-38l11,-31l24,-43l17,-6l16,8l27,43l16,14l135,72l43,26l27,24l21,27l16,34l34,105l14,19l26,17l30,-1l29,-4l75,-6l67,-15l48,-30l25,3l12,12l19,44l5,23l12,18l23,19l13,3l16,5l27,-7l19,-13l13,-22l30,-72l21,-109l20,-36l20,-20l66,-2l44,-37l82,-21h29l18,6l20,23l9,2l43,-28l43,2l31,8l8,6l23,20l6,19l-2,20l-7,11l-44,35l-10,19l6,20l68,42l41,41l7,21l4,89l15,15l36,19l30,32l48,88l2,35l-9,14l-44,40l-12,34l-1,14l17,46l37,54l-2,34l-10,36l6,31l20,25l23,6l23,-8l9,2l65,50l42,1l32,-9l21,-37l20,-2l9,16l-1,32l-29,65l18,23l8,4l29,-1l19,-8l7,-8l31,-4l46,17h20l12,-8l21,-29l23,-19l21,2l10,9l40,12h25l38,8l8,15l-6,53l2,27l17,41l-3,26l-16,31l3,31l11,17l56,42l9,20l2,22l34,34l30,2l23,-23l35,-10l32,-1l22,-19l17,11l21,-4l20,-12l36,-33l125,8l18,-9l37,9l35,37l26,11l29,53l17,36l-10,29l15,24l0,9l19,23l-4,61l4,28l-8,18l-27,13l-8,28l-6,9l-43,34l-1,10l31,50l15,75l18,11l21,-4l27,-30l9,-17l21,-1l24,12l21,3l27,-6l35,-12l40,3l12,7l17,1l9,-26l9,-4l19,6l27,19l24,12l6,8l13,47l30,2l13,-11l21,4l22,14l19,19l21,3l7,8l46,16l33,4l22,-10l39,-27h33l33,-7l25,5l17,-8l9,4l-1,42l6,8l-3,30l8,39l31,42l3,22l30,17l4,8l-6,20l-17,12l7,21l44,3l38,32l30,17l17,21l28,3l33,-3l10,18l15,32l1,56l-6,42l-24,18l4,16l38,-2l8,5l7,41l-10,19l-8,31l20,13l20,6l-11,27l1,20l8,20l-9,32l2,9l15,6l2,9l24,14l32,27l37,-2l28,-9l24,-4l60,3l27,10l31,25l32,40l26,41l27,13l133,10l40,24l19,4l-5,20l-27,11l-6,18l15,18l26,16l7,20l7,6l6,20l-3,21l-30,23l-2,20l7,18l30,37l1,11l14,86l-2,32l-22,17l-11,28l1,11l13,10l44,13l25,24l7,19l-1,12l-19,13l-6,17l7,25l27,28l-12,29l2,13l32,45l46,53l34,6l11,8l28,34l3,33l-3,15l-25,17l-11,15l-10,23l-7,34l-47,39l-8,47l-45,17l-1,6l14,27l32,18l36,3l108,-26l53,-2l48,35l11,3l22,-5l43,1l40,-7l23,4l5,40l-12,51l-18,39l80,46l17,14l11,47l35,8l39,-6l23,-11l10,16l-17,54l26,79l-11,35l-16,13l-12,4l-27,1l-56,-10l-5,8l8,33l38,69l11,34l18,10l25,2l15,6l10,12l26,65l29,55l-1,23l-8,30l3,12l16,24l27,22l35,41l32,55l32,43l13,15l20,14l28,44l7,22l0,35l14,20l21,6l8,12l20,65l20,29l9,29l-2,56l-25,43l-1,28l9,39l7,11l37,17l37,59l22,6l14,29l4,39l28,20l9,36l-2,33l-17,22l2,18l-20,18l-1,20l-32,18l-10,25l1,31l-8,24l4,49l8,12l-7,11l-47,-8l-16,6l-30,23l-17,36l-11,45l5,36l22,51l2,33l-28,30l-29,11h-12l-45,-25l-144,-42l-53,-23l-46,-2l-51,10l-23,11l-26,23l-5,55l-6,12l-17,9l-1,18l-9,3l-39,-24l-38,33l-62,34l-10,50l-18,31l-18,20l3,55l-9,36l-25,33l2,39l31,67l-21,35l-29,23l-22,2l-31,-4l-42,-20l-23,-3l-27,48l-29,21l-5,20l-15,11l-11,4l-23,-3l-22,-10l-50,15h-45l-55,-25l-35,-1l-39,6l-18,-8l-10,-29l-9,-7l-59,23l-20,-4l-40,-25l14,71l25,22l1,26l8,23l36,10l17,24l11,34l-1,16l-9,9l-49,12l-25,20l-2,22l8,9l20,11l47,7l10,6l14,23l4,23l0,96l-10,55l-6,7l-12,33l-2,16l5,18l45,60l31,23l18,76l50,34l8,14l13,33l21,36l4,15l1,47l19,47l-12,17l-22,52l-19,17l-50,21l-22,26l-11,25l-4,39l-11,22l-11,11l-32,7l-14,16l1,9l18,26l3,11l-3,27l40,36l12,21l9,30l-6,34l-40,15l-66,22l-94,38l-20,20l-9,33l17,29l-4,29l-35,22l-74,27l-36,18l-48,34l-64,21l-135,49l-27,16l-35,37l-39,29l-35,13l-32,6l-36,46l-9,4l-58,-17l-10,1l-30,23h-10l-23,23l-1,7l41,31l63,5l28,10l8,9l21,69l25,16l42,49l-2,22l-8,7l-29,10l-7,21l-12,16l1,20l20,22l-10,19l-15,14l-18,7h-60l-10,3l-25,18l-42,40l-16,29l5,32l11,17l30,14l26,24l27,7l5,10l-9,29l-14,16l-8,33l-13,14l-16,6l-12,28l36,12l-1,87l-13,26l-50,31l2,4l-32,30l-68,18l-19,-17l-17,2l-56,17l-5,5l15,83l-29,20l10,40l14,23l54,20l25,18l22,80l-8,43l2,39l-31,12l-22,-2l-65,43l-83,-3l-186,-15l-33,15l-26,59l-9,8l-98,-7h-50l-51,-11l-37,-13l-42,-4l-85,12l-50,24l-19,2l-27,-36l-18,-6l-43,9l-33,12l-25,12l-57,6l-79,-5l-202,-25l-68,-9l-22,-6l-108,3l-73,-21l-33,-24l-28,-10l-62,-9l-25,7l-24,22l-52,16l-41,8h-42l-16,-13h-25l-21,16l-38,4l-17,-14l1,-23l24,-35l-105,-1l-69,-23l-33,-29l-17,-2l-59,2l-54,-31l-25,-5l-9,-10l2,-28l-27,-37l-10,-27l-22,-26l-3,-13l5,-38l-18,-6l-135,-18l-72,-25l-10,-18l16,-42l-22,-22l-37,2l-83,-25l-38,-8l-37,-48l-46,-10l-11,-8l16,-10l15,-18l-10,-16l-25,-13l-40,-29l10,-16l21,-18l-15,-2l-18,7l-43,-18l-44,9l-30,-7l-43,-41l4,-7h29l7,-13l-22,-32l-12,-24l-25,-8l-31,-39l-17,-26l-30,-33l-8,-63l-8,-12l-24,-18l-25,-7l-90,207l-506,70l1,299l-193,422l-31,3l-31,-11l-16,-13l-16,-3l-29,-34l-18,-25l-23,-14l-23,-7l-17,-27l-8,-5l-27,6l-26,-8l-27,9l-22,4l-21,-6l-34,-16l-10,-10l-17,-2l-20,-11l-24,-8l-31,4l-48,-6h-286l-725,-241l-28,-2l-18,-9l-38,-25l-38,-12l-35,-17l-17,-19l-73,-22l-22,-4l-20,2l-17,8l-19,2l-34,-2l-33,-18l-19,-25l-36,-19l-25,-4l-29,-2l-23,4l-38,-2l-237,273l-645,-29l24,25l17,36l15,26l-8,10l-1,12l7,15l-7,14l-30,18l-18,4l-8,12l-15,34l-1,13l55,43l17,33l32,1l11,10l11,26l-6,15l-22,20l-7,11l0,20l5,12l-5,9l-21,16l6,27l-3,51l-28,13l-19,53l-11,21l-11,-5l-51,-42l-15,-23l-17,-16l-14,-1l-34,22l-42,9l23,41l2,29l-27,16l-20,25l-16,41l-7,44l6,20l-13,55l-26,-2l-21,35l-19,16l-15,4l-10,11l30,26l-3,25l32,62l19,70l-1,23l-9,29l-15,13l-6,35l18,51h-29l-17,7l-290,79l-29,-22l-15,-54l-18,-19l-45,30l-18,-20l-593,-119l-38,-37l-13,-30l-27,-10l-29,5l1,15l-17,6l-12,17l-31,22l-18,-8l-3,-16l-27,-39l-23,8l-28,-12l-25,-23l-40,-24l-21,-6l-55,35l-9,15l10,40l1,15l-20,5l-29,-20l-23,-9l103,-271l-40,9l-17,-6l-10,-13l0,-12l-51,-25l-17,4l-31,-11l-36,-1l-17,-9l-1,19l-9,5l-14,-2l-9,-14l-27,-21l-10,-1l-14,-10l-43,-12l-20,3l-10,-7l-13,9l-4,20l9,20l0,17l-10,15l1,30l-8,33l-22,11l0,18l-8,64l-9,17l-21,14l-18,34l15,19l32,12l3,19l-16,2l-20,14l-47,18l-23,6l-12,12l14,24l-22,30l-22,-6l-21,2l-30,-1l-14,-4l-23,2l-26,9l-5,-5l-7,-34l-11,-5l-4,-15l-21,3l-24,-24l-13,1l-10,-24l-15,15l-13,-3l-2,-22l-17,1l-11,-15l-12,-2l-25,-17l-7,-26l5,-32l-494,32l-198,71l-432,158l-250,120l-306,39l-38,-30l-69,-51l-58,-40l-44,-37l-51,-28l-46,-18l-60,-30l-39,-26l-19,-15l-19,-22l-62,-57l-72,-43l-18,-16l-34,-1l-40,-7l-25,-42l-10,-10l-31,-15l-40,-28h-22l-30,17l-13,30l-29,15l-14,19l-9,6l-16,22l-19,11l-26,-9l-24,-2l-27,-15l-51,-19l-52,-46l-54,-20h-39l-24,-3l-23,-8l-76,-10l-17,-7l-14,-13l-52,-38l-35,-29l-18,-45l-1,-29l-8,-36l12,-26l30,-33l9,-14l-6,-8l-68,-34l-27,-12l-44,-21l-43,-36l-73,-23l-60,59l-41,41l-597,161l17,119l11,28l20,13l66,34l26,6l1,7l-23,24l4,10l20,3l21,9l1,18l-37,25l-47,-10l-6,7l-19,97l-24,34l-29,26l-31,11l-106,-35l-28,-16l-36,-23l-15,1l-7,14l-2,23l3,76l-4,31l-18,41l-69,121l-21,18l-21,2l-20,-5l-134,-113l-54,-33l-90,-17l-98,-6l-157,4l-45,-6l-22,-16l-24,-35l-50,-47l-18,-3l-49,7l-38,-46l-7,-16l-3,-26l-18,-17l-12,-2l-121,24l-29,2l-22,-8l-14,-21l-41,-72l-27,-37l-17,3l-47,-3l-26,13l-3,72l-8,17l-13,9l-11,17l-17,73l-20,18h-26l-19,-10l-17,-18l-18,-26l-14,-42l-2,-30l-10,-18l-37,-20l-72,-16l-23,-2l-114,20l-23,12l-19,40l-23,2l-14,-18l-4,-89l-11,-11h-21l-20,18l-75,2l-65,36l-1,-48l-81,-75l-42,-55l-14,-28l-17,-49l-11,-14l-99,-54l-52,-45l-19,-31l-35,-82l-32,-43l-50,-38l-47,-12l-80,-37l-17,-35l1,-78l11,-93l-5,-25l-34,-53l-9,-32l-2,-62l13,-64l20,-34l29,-39l8,-22l0,-45l20,-128l5,-19l-46,-113l2,-102l16,-76l-31,-95l5,-175l12,-28l49,-13l80,-3l47,-14l41,-46l8,-16l-14,-9l-54,-21l-123,-74l-26,3l-1,-31l-11,3l-50,29l-34,-2l-12,-10l3,-17l35,-46l51,-51l29,-16l3,-19l-11,-25l-32,-29l-47,-33l-77,-80l-10,-78l-44,-67l-47,-86l-44,-49l-16,-24l-100,-91l-11,-36l1,-28l-149,-170l-44,-77l5,-28l39,-55l9,-62l-28,-116l-85,-248l9,-127l-5,-9l-60,-55l-15,-102l-15,-59l-18,-61l-42,-135l-4,-26l-3,-69l-26,-58l-22,-248l5,-107l29,-102l8,-140l-6,-24l-21,-60l-39,-58l-47,-43l-8,-6l71,-18l63,-25l35,-21l63,-31l136,-85l40,-28l67,-54l271,-164l155,-61l226,-14l107,1l64,3l64,12l147,46l118,68l28,31l27,52l14,30l18,66l15,35l40,40l14,10l74,54l86,52l29,38l10,25l41,64l28,26l16,-3l63,29l19,-5l80,5l43,-3l26,10l100,8l49,-2l110,-14l50,-2l28,-17l45,-35l82,-75l55,-43l126,-155l86,-78l69,-47l182,-121l80,-31l72,-18l95,-34l92,-32l47,-19l194,-79l99,-25l178,-6l225,-6l110,3l161,11l93,5l59,5l307,42l84,14l54,6l53,24l14,13l180,73l146,64l85,32l87,47l58,20l69,38l52,24l109,29l50,9l58,-11l69,-14l76,-1Z"
     transform="matrix(9.9999992e-5,0,0,-9.9999992e-5,-1.4338888e-7,0)" />
  <path
     id="2302"
     d="M-386188,-41635l-11,-3l-2,-12l-31,-7l-4,8l-21,5l-5,8l-18,-7l-13,9l-23,-1l-17,13l-40,7l-15,6l-30,27l-21,-12l-18,2l-56,-7l-9,14l-13,8l-33,-4l-17,1l-16,-6l-16,-19l-14,-12l-13,-1l-11,21l-11,-9l-24,-10l-13,-1l-17,11l-11,-3l-5,-17l-26,-16l-14,-18l4,-10l-44,-16l-10,7l-19,-18l-15,2l-9,19l-17,-4l-6,-9l-18,-8l-22,2l-25,-17l-17,-5l-4,-24l-14,-15l-3,-14l-27,-24l-21,-12l-13,-31l-10,-10l-24,-14l-14,-1l-13,7l-11,-10l4,-14l-15,-1l-19,-10l-7,2l-10,16l23,141l-40,48l-300,94l-75,17l-189,-53l-132,203l-17,15l-7,24l5,32l20,6l11,-10l32,6l26,44l34,2l17,5l17,-14l21,-8l38,37h141l65,353l-16,12l-6,18l15,6l-17,15l-5,11l5,16l-17,7l-11,-4l-28,36l-4,12l11,7l-5,26l-9,6h-16l4,22l-23,16l-10,-23l2,-27l-17,-39l-39,-36l-23,-53l-5,-50l-12,-14l-29,2l-9,-8l-38,25l-27,10l-33,-6l-252,139l-13,-6l-28,3l-24,-34l-10,-6l-171,121l-15,-14l-16,-28l-2,-21l2,-25l-31,-49l4,-20l-3,-34l-6,-15l-3,-27l5,-12l8,-38l-5,-32l-28,-4l-20,-15l-14,-1l-27,10l-13,-5l-8,-14l-16,-5l-22,23l-24,4l-42,2l-15,-5l6,-10l39,-9l22,-7l7,-16l-4,-11l-11,-7l-34,-3l-10,-8l-14,-44l-2,-32l-8,-7l-13,4l-18,39l-21,6l-14,16l5,12l-9,13l-12,5l-12,-7l-26,-8l-32,-16l-19,6l-23,1l36,58l-5,13l-13,-1l-9,-7h-13l-16,7l-7,15l3,27l-14,2l-4,-12l-34,-28l-3,-16l-164,40l7,-57l-29,-72l-19,-18l-32,-17l-26,3l-12,6l-10,22l-35,22l-18,21l-5,14l1,51l-18,18l-33,10l-125,-3l6,33l-17,4l-11,29l-12,-39l-10,-19l-15,-5l-23,13l-8,28l-19,9l-21,-16l-11,5l4,26l14,8l-7,9l32,15l3,17l-19,26l10,31l-16,18l2,33l-9,13l-42,9l1,46l11,-1l19,7l8,9l-276,284l-193,526l600,471l-20,3l-14,19l-1,42l-8,19l-21,5l-6,10l-42,11l-1,16l8,21l-14,4l-12,18l-17,6l-1,14l-23,24l-18,3l3,29l9,11l3,18l19,13l9,17l-13,28l-12,13l1,13l-13,12l5,21h-19l-22,45l-13,5l-5,20l-14,20l-10,-1l-9,-14l-9,11l-28,-7l-14,15l-24,-2l-3,12l-20,12l14,18l6,25l-2,30l-7,17l7,13l-20,5l-11,8l9,14l-12,8l5,23l-16,10l-11,-11l-9,13l12,14l-16,16l-4,29l-13,-6l-10,22l15,18l-6,10l4,17l8,12l17,-9l1,21l-12,15l-24,6l-9,21l4,13l-22,11l-7,13l-20,2l-13,19l-27,18l-10,15l3,24l-16,14l15,56l-14,14l2,29l16,15l7,24l12,12l13,-5l32,39l32,21l32,48l15,39l5,58l2,108l-3,45l2,47l13,54l30,62l29,24l90,25l30,14l65,41l1,20l10,12l-5,19l7,26l-5,9l-16,11l7,47l9,16l8,61l-12,15l-2,11l13,8l-7,14l-5,24l8,25l-3,12l10,6l7,26l-10,9l8,23l14,3l19,24l-10,11l8,16l-16,12l-10,25l-14,2l-20,-21l-32,14l-5,19l13,18l5,27l-3,13l-16,6l213,288l28,1l37,22l22,3l106,-40l-4,31l9,48l17,57l13,12l-1,13l-9,18l368,-187l208,480l289,666l58,53l195,170l-19,22l-8,14l-20,15l-10,13l-10,-5l-4,-16l-28,-3l-31,-15l-38,-5l-52,1l-91,9l-101,27l-44,20l-84,62l-26,22l-32,33l-34,40l-48,41l-59,56l-58,51l-18,19l-41,27l-30,-7l-21,3l-7,5l-61,2l-8,-7l-24,7l-39,28l-25,27l-42,56l-38,65l-28,55l-36,84l-40,85l-14,28l-19,57l-14,34l-15,24l-21,27l-13,1l-22,20l-16,8l-12,21l-22,25l-31,31l-10,4l-17,23l-20,34l-23,24l-4,10l-29,42l-19,14l-17,28l-42,39l-37,49l-19,10l-37,31l-38,22l-12,15l-20,8l-22,4l-22,14l-12,16l-31,16l-8,-4l-48,13l-24,-8l-22,6l-21,-3l-9,-13l-31,-4l-19,-12l-14,-29l-10,-5l-47,-8l-41,6l-21,-11h-27l-17,-9l-1,-17l-42,-39l-11,-1l-41,5l-4,-11h-34l-44,-7l-37,13l-57,25l-30,11l-19,2l-16,8l-24,19l-18,4l-54,30l-54,48l-39,31l-48,52l-29,37l-121,184l-46,89l-25,62l-23,40l-23,14l-21,9l-22,-6l-19,10l-32,1l-32,7l-32,-13l-14,-2l-24,3l-19,-10l-29,1l-31,14l-25,15l-59,50l-55,25l-28,28l-56,63l-5,10l-21,25l-13,11l-88,124l-94,164l-18,33l-6,18l-8,5l-10,22l-34,28l-13,14l-34,56l-6,15l-27,22l-19,24l-10,18l-25,23l-9,21l-21,29l-24,23l-82,103l-27,23l-9,16l-10,6l-16,21l-26,22l-16,9l-28,5l-32,18l-38,31l-82,82l-3,9l-14,4l-54,33l-32,13l-16,3l-54,1l-55,-20l-15,-2l-31,3l-72,28l-34,9l-48,9l-36,17l-42,33l-47,32l-29,1l-20,-3l-29,10l-55,37l-40,17l-27,22l-51,32l-51,53l-31,44l-29,51l-28,24l-52,15l-40,23l-37,8l-38,5l-40,-3l-31,-19l-17,-20l-39,-21l-41,-4l-21,-12l5,-24l-4,-7l-21,4l-65,45l-25,2l-21,9l-41,12l-26,19l-29,26l-16,21l-35,35l-34,46l-18,17l-86,56l-17,3l-26,-4l-13,4l-50,30l-22,11l-22,20l-17,8l-20,-1l-38,15l-28,-4l-21,2l-31,10l-28,-6l-27,11l-53,11l-66,40l-27,18l-30,30l-61,84l-22,22l-23,39l-13,14l-57,19l-64,36l-31,20l-51,14l-29,17l-36,26l-30,18l-33,6l-28,15l-46,39l-29,37l-28,32l-49,28l-36,29l-36,32l-47,32l-7,-1l-34,9l-27,19l-14,3l-32,-1l-16,3l-28,-6l-21,8l-49,35l-17,9l-30,-14l-33,-6l-35,9l-79,30l-22,14l-21,19l-37,46l-26,42l-30,42l-37,64l-17,43l-21,27l-11,22l-19,61l-11,16l-6,18l-19,20l-95,45l-16,1l-36,12l-25,12l-41,-1l-24,-7l-14,-28l-22,-13l-27,-7l-41,4l-25,7l-42,24l-29,28l-19,20l-49,60l-38,54l-18,29l-9,8l-24,1l-12,5l-70,40h-40l-42,-30l-26,-10l-39,-7l-41,3l-32,10l-35,15l-27,-2l-34,4l-20,14l8,-27l7,-7l48,-19l48,-6l15,-6l15,-19l1,-40l-12,-46l-10,-6l-305,-211l-452,-313l-352,-244l-481,-333l12,-9l15,-19l-1,-17l8,-29l-12,-20l0,-15l11,-2l3,-14l-2,-29l2,-14l-9,-46l-2,-27l6,-44l-10,-28l4,-14l-28,-14l-5,-30l2,-16l14,-7l1,-15l-10,-2l-6,-40l-20,-4l-1,-20l-9,-4l-4,-22l-12,-8l2,-16l-11,-18h-14l-15,8l2,-18l-15,-10l-15,-26l16,-18l-30,-13l-5,6l-19,-13l0,-8l-18,-14h-9l-10,-16l-18,1l-19,-19l-27,-18l-8,-10l-18,-6l-12,-35l-12,-10l12,-8l-14,-22l-12,-6l-24,-35l11,-37l-6,-9l8,-11l13,-2l0,-10l38,-18l25,-9l13,7l17,-24l-8,-4l13,-24l-2,-13l13,-7l-3,-14l-18,3l-1,-16l-35,-37l-2,-11l10,-11l-2,-16l-8,-7l30,-27l11,-23l-6,-10l-15,3l-15,-55l-23,-10l0,-27l-5,-33l-21,-10l1,-14l-20,-10l-23,-35l2,-12l-7,-14l11,-13l-8,-19l-17,-6l-9,-39l1,-29l-12,-4l-22,-7l-11,-19l7,-21l14,-13l-11,-24l7,-5l-19,-19l7,-8l-17,-25l-16,4l-22,-12l-12,-13l5,-8l-12,-15l-29,1l-1,-8l-30,-19l3,-17l-12,-4l6,-25l-9,-33l-19,-4l-7,-15l3,-36l-10,-7l9,-18l-4,-17l-13,-2l0,-13l-15,-3l-17,8l2,-18l-15,1l-7,-7l-2,-12l31,-21l-1,-12l-26,-12l-18,-4l4,-21l-5,-20l-14,-7l-11,-23l-2,-37l-6,-21l-21,-29l-17,-2l-10,-15l-14,-4l-14,-24l-18,-14l-21,1l-25,-16l-22,-1l-4,-9l4,-22l-7,-10l-16,1l-30,-22l-47,-21l-24,-6l-11,-8l-26,10l-48,-37l-24,-35l-14,-5l-8,-15l-14,-5l-16,-20l-24,10l-9,-10l5,-40l-4,-11l4,-37l4,-12l-5,-18l-11,-6l11,-16l-16,-28l-12,-1l-20,-14l10,-25l-19,-10l-2,-11l16,-28l4,-15l-19,-17l-2,-15l-14,-8l-10,-20l12,-10l-9,-15l11,-13l-7,-22l-9,-5l-11,-34l-13,-13l-9,3l-29,-28l-6,-34h-10l-8,-20l-16,-20l10,-6l-1,-12l-13,-13l2,-11l-15,-3l-20,4l-12,-17l-17,-9l2,-7l-20,-23l-22,1l-18,-15l-27,9l-3,-7l-33,-23l-6,-16l-21,-17l-6,-10h315l9,-9l26,-2l35,-16l37,-8l56,2l55,12l55,3l23,8l29,5l60,29l66,18h22l94,-13l14,1l36,-17l9,-1l54,-15l28,-4l57,2l65,-24l31,-10l17,2l40,-14l44,-7l15,4l359,-86l35,-3l26,-6l26,-13l15,-3l37,1l100,-17l74,-14l219,-33l257,-43l-3,-9l-29,-20l-4,-21l10,-22l-2,-17l13,-32l-7,-29l14,-15l0,-8l-23,-19l1,-26l4,-16l-4,-13l8,-22l16,-10l10,-11l26,-6l-5,-16l19,-7l-9,-28l6,-30l19,-7l1,-31l24,-35l2,-25l20,-15l10,-19l-3,-14l22,-31l15,-41l10,-16l-9,-26l2,-24l21,-16l9,-23l15,-19l2,-18l12,-9l7,-19l4,-26l-5,-14l8,-21l-1,-22l-5,-12l2,-18l23,-9l4,-27l32,-24l16,-25l10,-2l0,-31l-8,-16l13,-25l-4,-13l-32,-19l3,-21l-11,-17l-17,-6l-6,-19l19,-25l10,-42l8,-16l-83,-45l-94,3l7,-14l18,-18l14,-20l21,-13l27,-11l23,-17l16,-3l4,-10l27,-16l12,-2l14,-11l12,-25l23,-24l39,-27l11,-16l5,-18l24,-27l12,-17l7,-3l13,-22l18,-18l16,-22l33,-55l55,-49l9,-2l26,-31l13,-23l20,-11l12,-18l18,-14l15,-5l33,-44l6,-24l-4,-19l15,15l4,33l16,9l11,23l-6,22l1,23l-10,14l1,13l-8,12l26,17l2,10l-12,27l14,10l1,26l-8,24l-7,6l9,13l8,21l2,20l25,11l6,15l24,9l0,-12l9,-35l0,-15l9,-17l8,-26l9,-15l6,-53l9,-51l-10,-56l-2,-44l-10,-29l-1,-26l-9,-16l-17,-17l-4,-9l7,-20l-15,-20l-12,-85l-18,-43l-13,-4l-9,-75l6,-46l5,-9l19,-9l3,-20l30,-11l14,-9l11,-15l8,-2l26,-23l6,-11l10,-54l53,-33l-5,-16l-5,-41l7,-5l-6,-26l13,-52l16,-36l2,-12l-4,-29l6,-22l1,-26l11,-12l-5,-46l4,-28l-5,-13l4,-14l9,-5l1,-13l16,-23l6,-25l19,2l-1,-16l18,-18l9,-2l6,-17l9,-2l18,-18l13,-7l14,9l25,-29l26,-12l17,-2l24,6l25,1l15,-11l9,-37l1,-18l43,-35l-6,-23l8,-16l7,-45l9,-23l-8,-43l5,-20l3,-35l18,-39l5,-21l8,-3l4,-18l16,-4l20,-44l3,-29l6,-15l8,-39l8,-12l8,-46l16,-9l-23,1l-33,8l-25,-1l-23,-35l-24,-3l-16,15l-20,6l-20,-15l-34,-2l1,-26l-7,-13l-40,-43l-26,-15l-59,12l-39,5l-7,-7l-12,-30l-25,-19l-19,-5l-45,33l-25,-8l-1,-15l7,-19l-3,-39l-71,-57l-54,-16l-30,-43l-14,-31l-14,-14l1,-19l-24,-14l4,-24l5,-9l-11,-34l-19,-19l-12,-6l-35,21l-12,-7l-9,-14l30,-53l42,-33l14,-27l13,-7l-9,-19l-16,-5l-29,1l-6,8l-15,-6l7,-38l30,-35l3,-15l-23,-32l11,-24l38,-12l10,-6l18,-25l-5,-17l-24,-16l-2,-22l1,-28l-8,-13l-21,-11l-10,-22l1,-18l22,-18l14,-3l18,-43l1,-51l11,-16l-12,-36l8,-12l13,-7l28,-52l10,-44l-2,-5l-36,-4l-23,-17l-4,-11l5,-12l-18,-15l-33,-10l1,-15l21,-1l2,-7l-14,-17l-3,-25l-10,-7l5,-19l-2,-16l7,-19l-33,-6l-11,-17l8,-28l16,-11l14,11l32,9l13,-12l6,-29l25,-9l10,-7l0,-51l7,-24l8,-7l6,-25l-3,-28l23,-24l0,-8l-17,-13l6,-19l-5,-36l13,-8l17,11l17,-18l-4,-27l-10,-21l-27,-12h-20l-19,-13l-11,-47l12,-35l26,-14l34,2l19,-6l16,-18l32,-1l14,9l8,-5l19,-28l11,-24l17,-8l4,-23l9,-8l5,-18l26,-15l4,-15l-8,-9l5,-26l14,-4l-11,-36l24,-8l0,-19l9,-15l1,-16l11,-30l26,-25l9,-5l4,-18l0,-28l-6,-11l12,-16l3,-54l18,-7l-1,-12l15,-10l-7,-18l2,-34l36,-23l-5,-17l17,-8l15,-13l-46,7l-18,8h-30l-56,45l-20,-10l-7,-35l-7,-8l-66,-17l-27,-28l-33,-16l-20,-13l-55,-24l4,-25l-19,-70l1,-38l-18,-7l-19,38l-10,6l-29,4l-39,35l-28,-5l-12,-15l-10,-47l-16,-9l-69,-4l-19,-13l-19,-25l-16,-5h-26l-23,-14l-24,-40l-13,-32l-12,-21l-32,-31l-11,-23l2,-25l-5,-27l-22,-14l-20,-9l-14,-11l-6,-11l0,-22l7,-42l-13,-35l-2,-43l-5,-26l-1,-42l-3,-23l-12,-9l-44,8l-43,-1l-15,-7l-29,-38l-20,-49l-1,-62l13,-12l-5,-20l-22,-29l-26,-18l-19,-10l-6,-14l-25,-6l-50,-40l-20,-35l0,-18l6,-7l42,-22l18,-24l12,-31l2,-44l32,-68l21,-30l15,-30l9,-27l11,-12l-3,-30l12,-35l1,-23l11,-48l26,-52l26,-58l22,-18l57,-9l42,-21l21,-2l27,-18l6,-10l2,-23l37,-21l19,-5l19,-22l31,-17l1,-33l4,-11l41,-28l27,-31l-19,-16l-7,-24l-15,-11l-22,-7l-10,-7l-7,-16l6,-20l13,-14l23,-7l4,-14l-13,-17l-26,-11l-9,-10l-8,-26l13,-19l11,-7l11,-29l33,-31l-4,-29l5,-6l24,2l37,-16l2,-28l-14,-47l0,-34h-24l-24,16l-11,-8l6,-13l-8,-17l1,-12l16,-19l2,-9l-6,-22l-13,-17l-11,-23l1,-15l23,-22l34,-27l10,-12l11,-39l12,-12l27,-4l33,-1l92,-25l19,-8l-7,-20l-33,-29l-15,-9l-2,-15l18,-31l-2,-19l9,-9l14,-26l-1,-47l-9,-33l-11,-12l2,-14l26,-21l2,-13l-12,-16l-10,-6l-27,-4l-37,-25l-43,6l-15,14l-5,16l-13,-8l-3,-29l-17,-43l-2,-16l6,-17l-7,-24l-25,-16l-4,-17l-19,-20l-12,4l-46,-30l-13,-1l-29,13l-30,21l-30,8l-29,-17l-20,-4l-3,-13l12,-5l2,-13l-10,-17l13,-23l2,-13l15,-12l20,-2l23,-25l4,-14l-5,-12l11,-20l21,-14l48,-54l-17,-18l-8,-30l1,-17l41,-30l17,-20l2,-8l-12,-30l-4,-19l38,-6l19,-38l10,-31l-3,-26l-27,-10l-12,-13l11,-47l-2,-27l-12,-36l8,-19l80,-40l2,-5l-19,-33l1,-17l14,-17l35,-17l8,-12l4,-21l-19,-27l-19,-10l-22,2l-30,-20l-25,-9l-16,-14l-12,-34l-32,-10l-26,7l-36,18l-14,10l-11,-12l4,-14l-2,-15l-14,-34l-33,-15l-46,-28l-5,-7l-2,-31l19,-27l-3,-37l-22,-15l-30,-45l-25,-8l-54,-46l-4,-20l7,-14l24,-19l14,-21l-7,-13l7,-22l62,-3l12,-4l16,-22l40,-11l37,-29l-1,-25l17,-9l84,21l23,16l57,9l37,-19l23,-1l48,13l76,-22l66,-10l31,-13l10,-17l14,-47l15,-23l30,-15l0,-41l11,-23l17,-20l15,-12l31,2l7,-21l-1,-48l8,-16l-10,-25l-28,-17l-22,-5l-20,-16l-30,-19l-43,-20l-17,-26l-22,-10l-11,-13l-38,-23l-15,-18l-14,-3l-15,-12l-30,-32l-36,-12l-24,-15l-27,4l-45,-1l-29,-15l-13,-17l-18,-10l-6,-9l-15,-44l-14,-9l-36,-13l-21,-15l-18,-22l-40,-23l-39,-14l-23,-38l-43,-36l-38,-10l-23,-21l-21,-13l-2,-11l6,-17l1,-24l-8,-20l-17,-23l0,-10l15,-24l39,-31l44,-4l17,3l25,11l20,-10l46,-1l23,-22l21,3l9,27l20,11l18,-16l36,-61l8,-3l41,3l35,-11l28,-3h40l27,3l40,-17l4,-18l-36,-21l-7,-13l-19,-15l-39,-18l-11,-22l-28,-7l15,-20l6,-17l16,-11h29l14,-5l28,-21l21,-36l49,-28l-4,-8l-42,-13l-11,-8l-30,-31l-13,-7l-20,3l-41,-2l-3,-20l15,-25l-16,-28l-3,-14l15,-39l-15,-39l-21,-34l-10,-47l-8,-20l0,-13l10,-9l55,-31l10,-8l-6,-23l-24,-29l-42,-38l-36,-40l-8,-30l1,-12l12,-17l28,-25l10,-30l9,-11l23,-18l18,-9l11,-14l340,46l265,130l368,5l532,-174l656,241l433,-1h770l185,75l40,-75l18,-24l7,-24l-5,-11l4,-31l-11,-10l-8,-20l36,-18l17,4l24,17l33,10l14,22l27,10l33,6l19,13l19,-2l4,15l17,10l8,21l27,7l12,13l22,6l5,15l25,30l34,11l12,22l17,-5l37,10h13l10,22l17,5l7,17l33,10l10,9l24,-26l22,23l17,-1l5,9l19,9l17,26l15,42l-3,14l5,15l35,17l1,33l6,10l15,5l1,14l10,14l12,147l8,103l9,12l37,12l6,8l26,8l-4,31l13,15l18,33l25,9l8,9l14,3l19,-7l28,14l11,-4l15,22l22,-24l12,-4l8,7l19,3l16,-5l46,10l22,2l7,-5l21,1l22,28l26,10l21,15l32,-8l11,-7l19,3l7,8l12,-2l21,-31l10,-29l24,-9l20,-23l56,-4l29,7l14,-1l10,-11l16,-1l9,7l39,19l30,-13l46,-2l16,4l6,28l13,38l7,8l17,3l13,-4l12,-25l16,-17l15,-8h21l36,-11l40,11h23l10,-10l-5,-18l5,-18l10,-6l28,4l8,17l45,33l7,11l3,25l9,27l15,8l28,5l12,13l20,4l14,10l5,12l-1,16l6,13l30,13l33,5l18,7l17,-1l51,16l34,-14l14,2l15,28l10,4l25,-10l36,19l20,5l10,-2l47,11l30,16h19l8,-21l-8,-42l1,-20l20,-31l19,-18l21,-15l0,-24l10,-6l51,24l33,13l6,17l13,14l16,4l9,-23l12,-19l10,-27l21,-8l10,18l48,30l45,-4l38,8l18,1l12,-5l14,-20l22,-40l2,-19l10,-23l37,-15l19,-24l19,-8h16l23,17l64,33l23,33l9,19l16,21l25,17l24,-3l22,2l26,7l28,-6l30,-15l18,-19l10,-6l34,-2l26,4l-4,20l14,18l32,-14l11,-11l14,-3l16,5h26l24,-4l16,-15l14,-34l22,-29l27,-7l25,5l22,10l21,27l24,7l17,-4l14,-18l3,-33l9,-16l56,2l13,-3l13,-13l45,-29l14,-14l4,-21l1,-44l-12,-24l0,-12l10,-7l25,-1l27,6l64,38l123,14l15,-54l12,-21l-2,-36l-13,-40l28,-34l-4,-26l-21,-14l-93,-93l-26,-36l-16,-46l1,-8l15,-11l27,-45l12,-15l22,-13l9,-13l12,-6l25,1l17,-19l15,-48l31,-32l5,-29l-2,-29l3,-16l18,-25l3,-8l-5,-23l3,-24l20,-5l25,11l20,3l34,-7l34,-3l34,7l22,1l19,6l8,14l7,24l11,13l14,5l17,23l19,10l38,12l27,35l23,25l11,16l23,11l21,4l-3,19l-34,39l0,11l21,5l32,-3l85,-20l15,25l27,24l13,6l18,1l10,10l12,34l9,111l48,27l7,21l-23,16l-1,11l14,37l20,30l29,2l18,14l31,32l41,36l43,41l11,2l40,-6l54,-35l16,-5l29,-3l36,1l18,19l13,1l19,-9l36,22l27,-9l25,-16l23,-7l26,1l47,-10h13l12,9l-2,14l12,36l0,12l19,21l37,18l25,27l14,46l-1,26l10,21l9,5l29,-2l27,2l36,10l22,17l5,9l13,50l15,7l25,-16l14,6l0,25l-9,30l8,39l7,7l44,16l19,12l11,-21l24,-23l10,-1l25,14l12,27l7,27l13,22l26,-3l41,-14l26,1l37,9l22,10l47,25l36,13l31,6l34,1l64,-4l78,-14h29l25,55l37,22l47,17l70,-10l3,-5l18,-137l9,-15l38,-12l8,-12l12,-59l1,-39l17,-24l34,-27l0,-16l-24,-15l-8,-19l7,-22l22,-14l69,-34l21,-2l17,-11l9,-16l5,-31l9,-15l30,-23h8l21,30l6,16l12,8l27,4l11,-13l31,-66l14,-26l7,-43l27,-58l54,-2l27,2l41,-17l30,-23l20,-6l33,-18l0,-15l-17,-7h-21l-7,-22l9,-23l5,-26l10,-23l21,4l32,-15l12,12l23,2l26,10l34,22l11,-7l26,-5l4,17l16,14l18,6l41,37l12,4l7,12l17,13l18,7l2,15l30,14l8,-4l40,11l9,20l13,6l6,12l26,10l17,3l4,22h12l8,-10l17,8l11,28l10,12l16,3l15,11l22,3l16,7l26,-5l9,-19l8,-1l28,-17l48,8l15,13l13,-11l32,-13l11,22l43,-18l23,6l5,-8l26,-16l3,-5l38,-9l24,-14l23,-19l24,-6l26,5l25,-6l17,7l6,-10l9,31l13,9l16,20l56,20l14,14l9,35l14,25l24,19l40,2l11,4l15,23l2,26l18,24l18,13l26,12l16,13l59,9l29,8l35,-8l13,7l23,4l8,-8l12,5l41,6l20,-4l24,23l13,4l18,16l10,2l21,-11l7,-26l16,-23l14,-1l17,-14l29,-7l36,7l12,15l28,2l11,7l-8,29l7,24l12,13l16,-1l9,6l-3,12l17,11l23,7l14,-1l33,24l7,-7l22,2l8,20l37,52l8,18l23,12l32,25h15l9,10l-1,25l-18,17l2,16l19,9l15,14l8,18l19,11l27,5l15,30l12,10l38,16l15,16l-4,43l-7,10l-12,26l4,13l28,15l39,11l15,25l11,11l18,-3l28,7l14,25l-9,25l18,15l12,-9l29,-11l18,7l7,26l-37,25l2,7l25,8l30,-2l25,2l30,9l30,5l17,-2l31,4l10,6l-6,22l1,15l-11,20l-7,41l1,21l19,19l12,26l-15,8l16,33l-10,22l1,52l16,17l22,34l-2,22l-21,2l-8,9l8,22l-1,11l-25,24l-14,21l-4,15l-15,3l-29,16l-27,5l-28,-3l-5,57l-4,22l5,19l30,10l14,20l22,6l29,17l21,7l19,14l39,17l18,16l8,23l-1,48l16,-6l4,-21l11,-16l98,-71l81,-31l167,-34l10,-3l117,-92l27,-10l29,-23l8,-14l9,-34l21,-17l77,-41l69,-44l100,-44l427,-232l17,-17l20,-39l20,-20l146,-84l31,-17l129,-128l116,-115l49,-65l60,18l14,-4l80,16l38,3l16,7l30,-7l18,11l45,35l42,5l46,-25l16,1l47,-17l52,12l22,-14l22,-5l15,3l20,-10l22,25l14,1l14,-6l24,2l52,-1l33,5l13,9l2,10l-8,27l-26,35l-2,27l89,99l84,34l31,10l33,35l27,10l38,-24l23,-23l30,-13h30l29,-4l24,6l10,19l37,-12l12,-13l31,-5l24,3l11,14l16,5l9,12l15,4l13,12h20l22,-10l16,6l43,-11l9,-27l26,-19l22,2l19,-9l12,-19l22,-8l32,-6l8,13l12,-5l21,32l-2,18l35,4l25,-4l13,10l41,-8l7,-22l30,3l-4,-22l17,-5l31,5l-5,16l10,2l30,25l8,15l35,-1l17,20l18,13l14,1l2,13l13,10l-15,10l16,17l3,8l17,5l-6,34l-20,30l-15,7l-11,43l-3,19l-21,21l-10,15l9,20l-9,4l5,14l39,10l10,-8l19,1l16,10l7,20l0,20l10,2l0,16l-14,45l16,12l8,22l-20,8l28,45l34,20l22,33l20,-10l15,18l20,-3l15,20l33,2l14,9l-1,21l3,44l-12,6l4,25l-34,7l-15,29l2,12l-4,17l6,6l4,26l13,29l36,21l-4,18l3,15l-8,18l-11,8l9,19l2,21l18,18l8,1l15,17l12,2l-3,16l-8,1l-6,19l7,20l32,11l23,46l5,32l-7,32l-9,65l-10,10l-14,-3l-19,-20l-17,-3l-12,14l-11,35l-33,23l7,28l8,65l-26,22l-20,21l-16,50l-26,63l-21,73l50,60l37,27l70,17l33,11l37,21l32,33l24,35l-14,37l-10,45l71,46l24,-4l98,22l72,-30l35,10l75,-3l23,-11l40,-33l-20,-29l15,-46l15,-2l7,-21l23,1l31,23l4,15l-8,26l17,-4l16,13l11,-7l-12,-21l8,-13l22,-11l14,-3l7,49h28l19,-19l10,23l22,9l7,-14l-4,-16l-35,-27l14,-18l7,-2l20,23l12,3l14,-17l16,15l5,24l13,5l10,-8l4,-17l16,-5l29,20l7,7l-6,13l-12,8l-30,7l6,15l27,6l0,13l-30,16l15,9l29,-11l14,-22l7,-6l16,3l15,12l18,4l30,-2l22,11l11,-4l12,-18l14,-1l11,8l71,13l16,-2l2,-15l-14,-10l-12,-29l7,-9l30,4l21,-2l18,35l26,20l15,2l19,-4l45,-19l30,-28l19,1l7,8l2,42l18,9l18,-12l14,-3l13,9l1,20l-13,14l-64,28l-18,10l-12,15l-10,23l-24,22l-27,4l-27,-3l-28,20l-39,13l-16,14l-6,17l-21,-5l-41,12l-29,15l-23,21l-61,47l-36,26l-49,31l-14,14l-29,16l-25,21l-94,73l-21,18l-80,63l-24,21l-68,46l-45,42l-58,59l-80,69l-92,93l-21,23l-18,11l-71,60l-150,123l-37,36l-59,63l-94,101l-45,52l-47,58l-9,4l-20,-4l-9,4l-62,46l-22,12l-26,3l-32,13l-30,19l-18,16l-80,82l-31,36l-43,43l-69,84l-13,11l-36,7l-31,20l-23,20l-27,32l-21,17l-57,63l-14,19l-47,56l-32,29l-26,12l-27,24l-29,29l-51,60l-26,34l-40,37l-27,28l-95,88l-17,19l-31,27l-10,12l-53,49l-29,17l-53,49l-49,58l-9,13l-88,117l-48,72l-57,92l-39,73l-12,24l-16,22l-10,-1l-14,-6l-10,12l7,8l1,16l8,6l-26,28l-12,20l-42,33l-22,27l-60,85l-29,40l-49,75l-30,42l-16,17l-14,24l-17,14l-12,-17l-9,16l14,13l-3,15l-12,19l-22,26l-54,75l-22,27l-56,23l-31,22l-4,8l-19,14l-41,44l-36,57l-59,76l-29,44l-36,46l-9,-7l-12,1l-24,-6l17,-46l-5,-8l-15,3l-16,-8l-4,-32l-22,-35l9,-15l-9,-11l-18,4l-9,8l-14,-4l-22,-3l-3,-26l-15,-8l-5,7l-43,-13l-22,-13l-33,2l-26,-5l-37,10l-29,-3l-5,9l-30,1l-6,5l-25,4l-6,-8l-22,-5l-26,4l-27,9l-19,2l-7,16l-39,21l-16,2l-24,-10l-16,1l-17,8l-9,-4l-37,8l2,9l-15,20l-30,12l-28,22l-33,4l-3,6l-58,22l-15,-3l-6,8l-17,7l-9,-23l10,-17l-17,-32l-13,-2l-16,-22l-11,16l-21,6l3,-124l-28,-4l-23,3l-10,14l4,38l-10,-5l-54,-38l-30,-7l-9,-7l-22,-38l-23,-16l-13,-16l9,-11l-26,-63l-55,-14l-206,-184l-22,-129l-94,-666l-56,-399l-54,-381l-248,-68l-15,8h-31l-56,-14l-44,-6l-22,-5l-29,-1l-17,7l-15,11l-20,4l-17,-3l-9,-17l-12,-71l-10,-17l-38,-2l-33,-28l-66,-12l-21,-7l-23,-2l-134,64l-162,77l-23,2l-19,-8l-52,5l-91,18l-45,16l-37,16l-29,5l-11,-3l-21,-37l-19,-17l-17,-10l-19,-1l-13,6l-30,8h-31l-35,-10l-31,-19l-18,-6l-36,-5l-38,2l-56,17l-25,11h-21l-13,-6l-24,-26l-439,526l-21,55l-1,14l-11,30l-17,40l3,17l8,8l-5,30Z"
     transform="matrix(9.9999992e-5,0,0,-9.9999992e-5,-1.4338888e-7,0)" />
  <path
     id="2301"
     d="M-399075,-32736l12,4l-1,29l9,39l17,6l8,19l-11,13l7,14l-2,12l23,35l20,10l-1,14l21,10l5,33l0,27l23,10l15,55l15,-3l6,10l-11,23l-30,27l8,7l2,16l-10,11l2,11l35,37l1,16l18,-3l3,14l-13,7l2,13l-13,24l8,4l-17,24l-13,-7l-25,9l-38,18l0,10l-13,2l-8,11l6,9l-11,37l24,35l12,6l14,22l-12,8l12,10l12,35l18,6l8,10l27,18l19,19l18,-1l10,16h9l18,14l0,8l19,13l5,-6l30,13l-16,18l15,26l15,10l-2,18l15,-8h14l11,18l-2,16l12,8l4,22l9,4l1,20l20,4l6,40l10,2l-1,15l-14,7l-2,16l5,30l28,14l-4,14l10,28l-6,44l2,27l9,46l-2,14l2,29l-3,14l-11,2l0,15l12,20l-8,29l1,17l-15,19l-12,9l481,333l352,244l452,313l305,211l10,6l12,46l-1,40l-15,19l-15,6l-48,6l-48,19l-7,7l-8,27l-24,24l-50,16l-41,24l-27,20l-57,53l-8,11l-46,30l-33,18l-38,41l-45,40l-33,21l-81,65l-69,45l-59,25l-40,24l-21,5l-24,-3l-21,-17l-20,6l-33,58l-20,18l-55,18l-40,27l-52,42l-39,11l-39,27l-70,54l-23,20l-60,60l-45,39l-82,66l-114,82l-34,18l-48,17l-24,-8l-16,22l-16,12l-35,13l-26,-4l-10,8l-39,60l-20,23l-33,24l-44,26l-114,57l-109,47l-20,-8l-17,9l-17,-5l-11,-18l5,-14l27,1l17,-3l16,-10l35,-8l52,-7l9,-7l42,-6l38,-33l21,-26l25,-11l37,-38l44,-20l26,-3l7,-19l-16,-1l-48,13l-34,28l-20,25l-121,44l-44,19l-16,-8l-25,13l-5,6l-19,3l-35,20l-26,7l-14,10l-42,18l-27,5l-23,22l-20,7l-31,15h-7l-20,18l-23,13l-23,17l-71,40l-40,16l-16,11l-39,35l-9,-1l-44,30l-92,39l-99,35l-46,16l-5,-7l38,-18l15,-14l49,-34l10,-16l-11,-3l-17,12l-28,12l-18,10l-23,5l-37,4l-18,-1l-18,7l-15,-8l-32,11l-34,1l-89,23l-50,15l-41,7l-11,-17l29,-17l20,1l25,-9l0,-8l-35,3l-31,11l-7,8l-34,14l-19,4l-17,-5l-4,-11l-16,10l-8,-9l-17,-4l-32,18l-29,22h-31l-56,27l-37,9l-18,-1l-26,-11l7,-27l-20,13l-26,7l-25,-7l-11,7l-37,-1l2,-11l-24,-26l-19,-10l-15,24l7,13l-25,26l-34,22l-23,9l-92,31l-43,13l-32,-1l-56,6l-66,2l-31,-15l-3,14l-13,17l-59,13l-39,-10l-11,-9h-27l-19,-7l-41,-7l0,-12h14l23,13h18l16,-28l-13,-6l-21,9l-5,-26l13,-22l-4,-9l-19,5l-3,-17l-11,-10l-5,-19l-42,-12l-43,15l-21,14l-21,7l-19,12l-4,21l-15,1l-1,-12l-15,-7l-25,26l-47,42l-51,33l-32,30l-36,21l-31,16l-9,14l-14,6l-26,42l-5,4l-31,-7l-32,4l-62,3l-36,8l-31,-10l-44,7l-39,-3l-53,8l-92,-1l-33,-3l-46,-13l-8,-20l-7,-6l-65,8l-102,18l-15,5h-25l-93,16l-89,7l-35,-4l-32,10l-60,-1l-61,8l-37,3h-88l-67,7l-81,6l-44,6l-84,1l-60,-2l-39,-5l-95,-22l-73,-11l-51,-11l-27,-8l-29,-5l-138,-11l-59,-3l-99,3l-72,3l-109,10l-45,11h-54l-48,7l-49,11l-100,34l-58,25l-44,13l-31,15l-106,41l-93,45l-63,33l-93,44l-30,-3l-25,-19l-39,-2l-15,-8l-28,-4l-14,-15l-16,-4l-10,-10l-38,3l-13,-20l7,-14l10,-38l-8,-19l-35,-43l-32,-48l-24,-30l-12,-19l-41,-39l-28,-20l-53,-26l-33,-10l-26,-12l-30,-3l-31,-16l-25,-5l-37,-11l-40,1l-15,-22l-16,-16l-19,-5l-12,-14l-47,-25l-51,-21l-69,-20l-25,1l-53,14l-12,-27l-17,-30l4,-10l74,-2l3,-10h-22l-32,-4l-45,-17l-31,2l-15,9l-6,22l-29,28l-30,12l-26,-5l-71,-35l10,-9h-84l-62,-13l-29,-2l-42,-15l-18,-1l-77,2l-41,7l-44,15l-26,7l-28,12l-20,4l-33,11l-40,-14l-49,-10h-19l-47,-6l-6,-19l-24,-8l-21,-22l4,43l-41,1l-15,3l-22,-5l-9,7l-22,-9l-2,-9l-19,-7l-34,-5l-28,-1l-89,5l-110,-19l-45,-2l-67,6l-59,12l-22,-3l-63,5l-19,6l-34,-3l-42,-13l-15,-7l-15,5l-7,-8l-31,-5l-30,-12l-10,-11l-21,-9l-24,-16l-27,-29l-16,-22l-57,-45l-21,-14l-47,-25l-51,-28l-58,-17l-41,-14l-56,-11l-50,-7l-74,-9l-33,1l-29,-7l-52,-26l-13,-10l-15,-27l-20,2l-9,32l-20,30l-15,15l2,30h-27l-6,18l-1,22l-16,8l14,12l-32,24l-12,14l4,12l-5,21l-15,4l-12,24l-17,8l-2,12l-9,4l-6,-14l3,-12l-5,-19l-9,-13l-37,-3l-53,11l-29,13l-11,-10l-31,2l-38,-5l-21,-10l-24,-3l-84,4l-31,9l-6,9l-19,10l-16,-7l-7,9l-11,-10l7,-11l-3,-46l-5,-20l-12,-15l-36,-25l-27,-12l-46,-10l-40,-5h-76l-24,6l-43,-2l-47,9l-10,-1l-60,14l-23,3l-38,-4l-22,-18l-20,-49l-34,-18l-31,-12l-25,-7l-20,-1l-22,-7l-58,-7l-27,-9l-40,1l-8,8l-31,1l-21,-7l-14,8l-18,-8l-17,-12l-34,-11l-16,-22l-11,-7l-79,-17l-58,-9l-61,5l-29,8l-31,-9h-24l-41,3l-36,-12l-24,-4l-16,4l-39,-13l-67,4l-55,-8l-107,-7l-88,6h-56l-56,7l-28,12l-22,14l-42,7l-18,-5l-8,-9l-13,-3l-23,7l-16,11l-21,4l-4,-6l21,-39l6,-16l33,-33l9,-14l-5,4l-69,32l-23,25l-16,30l-17,58l-13,11l-16,-10l-1,-17l-57,-42l-56,-8l-54,8l-36,-3l-62,7l-13,-4h-27l-61,9l-42,15l-21,-4l-21,3l-29,10h-23l-89,23l-13,-7l-33,4l-14,-17l-15,-7l-8,-12l-25,-8l-35,4l-58,14l-25,9l-17,-2l-27,-19l-17,-2l-40,1l-75,12l-60,14l-32,-2l-54,-13l-69,3l-48,7l-74,16l-23,2l-56,27l-20,2l-24,-5l-65,-23l-17,-8l-34,-27l-26,-29l-66,-59l-13,-22l-29,-14l-53,-38l-82,-38l-24,-15l-43,-17l-18,-19l-127,-62l0,-1l15,-138l5,-22l-1,-29l-10,-49l0,-66l17,-54l46,-45l128,-56l57,-9l55,-1l116,4l57,-18l27,-11l9,-18l1,-81l10,-18l17,-45l26,-47l27,-43l45,-69l2,-33l10,-93l20,-59l11,-20l11,-11l31,-4l14,-11l2,-10l-5,-24l-8,-16l-19,14l-27,-7l-12,-13l1,-21l22,-13l-3,-17l-14,-17l-5,-25l-13,-14l-6,-30l-13,-12l-13,-1l-10,-9l-1,-16l-8,-11l-3,-22l7,-15l1,-17l23,-31l-10,-22l1,-33l-9,-16l-2,-17l18,-18l20,-10l8,-12l-19,-46l25,-21l3,-18l-7,-23l-1,-54l-7,-6h-18l-11,-16l-19,-11l-25,-2l-21,-8l-19,-13l-3,-40l-38,-29l-11,6l-22,-7l-9,-11l-39,-5l-37,6l-14,-3l-6,-9l7,-15l11,-9l3,-44l-20,-11l-1,-11l8,-12l-2,-11l-13,-9l-10,3l-15,-16l-6,-17l-28,8l-9,-4l2,-18l-13,-15l6,-19l-38,-11l-8,-14l5,-10l-22,-29l-48,-19l-9,-18l-16,-12l-38,-21l-18,-36l-16,-21l-33,-21l-10,-12l-3,-29l2,-19l-28,-29l-12,-22l-5,-22l-29,-24l-9,1l-1,-17l15,-25l-4,-41l6,-26l9,-15l-14,-42l13,-6l24,-19l-1,-15l-380,-644l-354,-599l12,-24l-7,-42l-28,-52l-21,-27l-3,-16l25,-45l1,-28l-25,-32l-80,-55l-38,-45l-14,-72l-7,-20l-8,-27l-25,-47l-56,-71l-2,-36l19,-25h29l44,20l86,59l13,4l17,-2l36,-12l-1,-13l-22,-24l0,-20l9,-10l16,-33l-3,-7l7,-26l-11,-77l-6,-7l16,-29l33,31l20,4l12,-4l17,-21l29,-20l5,-8l7,-71l2,-33l-10,-28l-3,-38l4,-23l12,4l7,14l15,6l11,25l25,20l20,9l26,24l40,2l10,8l25,2l9,9l30,-4l14,-9l4,17l-1,34l18,10l7,12l22,1l12,14l17,-1l13,14l19,5l11,-5l25,21l11,6l16,-10l9,-17l203,23l-7,-405l-23,-199l73,-378l167,-81l-21,-4l-35,-20l-30,-6l-30,-13l-60,-14l-15,-24l-2,-22l-19,-9l-19,-49l4,-15l-12,-102l6,-33l-3,-14l2,-26l-7,-36l15,-35l-1,-20l-17,-24l-38,-26l-4,-47l-53,-78l-25,-7l-25,7l-9,-12l-13,5l-13,-8l-18,12l-30,3l-29,-19l-29,-13l-40,3l-17,-12h-30l-10,-21l-15,-16l-23,-23l-17,-38l-1,-48l7,-23l26,-36l60,-47l48,-20l79,-8l23,-9l21,-18l10,-18l126,-342l-4,-65l6,-21l-18,-71l-11,-73l-9,-23l-24,-47l0,-27l-12,-61l-15,-39l9,-30l-10,-17l-3,-27l-20,-14l-13,2l4,-22l16,-26l64,-24l11,-8l24,-18l29,-5l24,-10l40,-5l17,10l39,2l92,18l78,-27l91,-22l31,-12l16,-13l31,-48l37,-37l76,-27l134,-2l29,3l52,-33l28,-33l20,-10l36,-1l25,-18l10,-30l2,-20l-4,-21l-9,-8l-78,-14l-47,-12l-12,-9l-43,-57l-11,-29l-15,-65l-13,-69l-2,-57l3,-56l7,-50l57,-78l10,-31l-3,-16l-85,-138l-22,-28l-60,-52l-48,-55l-49,-32l-93,-93l-46,-38l-43,-46l-21,-31l18,2l23,-33l15,-8l10,7l17,37l31,3l15,30l12,-2l20,-28l20,-13h13l24,22l10,1l11,-11l17,-46l1,-37l14,-18l17,-8l13,-13l-6,-41l27,-26l-4,-14l9,-24l-23,-40l3,-21l33,-45l-1,-16l-9,-7l9,-15l56,-13l13,-8l3,-39l8,-16l35,-26l19,-30l59,-64l10,-22l19,-88l-10,-31l4,-19l36,-22l27,-30l34,-25l23,-43l7,-5l26,-1l11,-8l87,-298l-87,-266l-24,16l-30,-13l5,-28l-44,-22l-6,-11l2,-18l-10,-14l-5,-21l-15,-7l-22,6l-6,-5l-3,-32l6,-12l-1,-22l-26,-15l-9,-12l-15,-8l18,-33l1,-38l-6,-24l15,-19l6,-26l1,-27l14,-2l17,-31l34,-32l4,-23l-7,-15l-43,-28l-8,-23l-49,-44l-12,-4l-22,3l-15,-12l-11,-20l-1,-29l-11,-22l20,-23l26,-7h19l99,70l94,19l41,17l24,-14l15,2l8,13l80,29l34,-16l18,2l29,13l27,18l38,41h17l20,-19l32,-4l10,17l30,14l31,4l26,-8l7,-12l-16,-52l18,-23l13,-10l47,-11l42,-37l30,-6l53,13l35,1l67,-32l102,-19l94,16l35,-2l63,-17l17,1l19,7l60,-43l14,-11l4,-25l-7,-28l0,-28l-9,-20l-23,-23l-94,-62l-14,-11l-7,-25l4,-22l55,-61l4,-20l-6,-30l-54,-115l-5,-55l-8,-31l-55,-76l-27,-120l-23,-41l-14,-26l-23,-6l10,-14l78,-61l62,-76l28,-56l-5,-36l-10,-22l14,-38l17,-17l6,-20l21,-23l27,-47l7,-5l63,-12l55,-27l88,-11l31,8l30,-4l-72,-102l-10,-13l-368,-517l168,-730l-9,-26l6,-39l13,-38l0,-20l-13,-55l-7,-27l-1,-36l-45,-46l-12,-6l-16,-1l-59,-42l-1,-14l-19,-14l-5,-12l1,-27l-13,-30l-44,-40l-6,-52l-31,-31l-14,-25l-25,-26l-8,-9l-24,-65l-57,-41l-20,-28l-18,-58l1,-10l18,-19l9,-19l5,-109l-11,-33l3,-18l-4,-25l-15,-44l-26,-40l-13,-36l-61,-91l-44,-80l-15,-16l-3,-20l9,-37l13,-25l-7,-23l-6,-38l-14,-16l-6,-22l9,-47l0,-36l-5,-21l-29,-68l-31,-49l-38,-46l-14,-26l-1,-22l11,-83l-8,-85l-17,-78l-29,-49l-23,-13l-25,-31l-37,-20l-16,-16l-24,-87l-5,-50l-8,-15l-1,-31l-8,-21l-36,-13l-21,-26l-15,-60l-59,-88l-49,-15l-53,-1l-37,-11l-25,5l-28,12l-16,-14l-2,-16l27,-21l21,-14l29,-9l83,-6l45,-13l8,-11l2,-19l-5,-32l-15,-58l-39,-76l-42,-62l-23,-52l0,-14l28,-75l13,-24l36,-10l23,-26l61,-52l98,-53l47,-40l36,-59l40,-47l48,-73l33,-28l15,-31l61,-34l27,8l18,-7l11,-16l0,-16l-15,-23l-57,-24l-48,-61l-20,-47l-31,-22l-26,-28l-34,-58l-55,-71l-121,-108l-33,-49l-24,-17l-35,-16l-22,-56l-17,-22l-33,-23l-31,-27l-26,-51l2,-22l23,-32l-10,-23l-36,-23l-49,-20l-22,-26l-44,-32l-1,-24l26,-28l59,-32l37,-8l43,-30l71,-19l55,5l44,-7l41,-11l40,-30l8,-18l-1,-35l-19,-30l-38,-24l-69,-20l-24,-18l-9,-12l-9,-60l-5,-11l-45,-31l-26,-36l-9,-32l2,-24l6,-25l-2,-31l-17,-15l-64,-36l-9,-13l-14,-62l25,-101l13,-161l-5,-19l-20,-38l-27,-36l-47,-35l-3,-24l89,-107l70,-64l56,-42l-8,-24l-39,-51l-19,-32l-2,-40l8,-27l72,-110l40,-71l6,-41l-1,-56l10,-20l10,-8l25,-3l63,12l23,-16l4,-16l-8,-40l1,-7l37,-29l21,-8l18,7l17,33l1,24l16,20l-7,17l7,21l24,2l27,-24l24,-1l21,-8l36,-28l17,-25l35,-16l2,-25l26,-38l22,-48l33,-32l27,-21l20,-23l27,-69l66,-83l36,-65l34,-42l20,-7l24,6l20,18l36,56l12,6l14,-3l11,-10l7,-55l-4,-25l1,-20l13,-23l35,-47l14,-11l63,-25l17,-20l12,-46l-7,-30l1,-25l4,-13l14,-16l1,-8l-11,-20l-5,-21l711,-2l-9,27l-13,18l1,26l7,25l15,22l-5,18l26,34l4,21l30,38l5,28l5,12l-2,30l7,22l4,31l-10,16l42,35l-4,13l8,25l-8,13l4,19l20,5l5,10l-8,21l21,33l-1,14l15,18l3,26l11,8l3,39l16,-2l18,6l7,14l17,8l13,12l5,17l-1,15l10,10l12,-3l17,-11l-2,18l11,15l9,21l12,5l21,24l56,46l13,5l5,11l13,10l-13,34l51,15l2,11l-17,10l-10,13l12,4l8,19l14,7l24,-4l8,14l-4,26l10,5l22,-7l3,9l-6,22l16,15l17,26l11,-5l12,8l-4,22l8,7l15,-3l27,4l6,10l-3,18l11,13l18,3l16,-4l27,18l9,-3l12,9l0,22l8,9l15,-1l8,22l14,6l10,14l9,1l5,-16l13,-3l16,21l5,12l18,24l14,6l14,17l29,20l19,-8l15,-1l27,29l26,9l6,21l13,7l22,-5l23,20l9,3l19,24l22,-7l42,-5l30,3l22,-11l2,-12l17,-4l17,9l10,-4l25,12l9,-1l41,21l14,15l37,28l25,28l26,7l8,9l39,10l33,-1l53,47l51,9l26,14h18l27,-18l31,-7l73,51l-86,34l26,25l4,11l20,17l-2,25l-34,17l6,31l-27,37l3,18l12,21l6,21l18,16l11,38l-37,22l5,29l17,32l-16,13l16,36l1,16l-8,4l6,25h-12l-71,169l8,1l15,-12l13,-18l22,4l1,14l-20,35l-3,14l12,15l23,48l-31,32l-5,43l0,53l6,10l22,20l5,36l-10,11l-6,39l-11,33l-9,44l-3,30l4,9l22,21l24,10l16,12l26,31l24,53l17,28l20,21l5,13l5,33l-10,21l-18,8l-10,10l-4,17l0,41l-11,54l2,18l15,-19l14,-9l14,-3l38,1l14,3l37,32l16,-6l21,-28l35,3l22,-5l39,-20l15,-14l17,9l68,13l21,-11l36,9l21,3l20,-3l16,21l16,9h21l8,18l11,13l67,21l16,15l8,-2l12,17h20l20,-12l19,-19l27,5l27,-4l29,2l27,-26l13,-6l20,-2l16,15l8,-15l11,-7l18,29l12,-2l5,15l16,1l45,-16l14,-3l14,20l22,9l25,-13l23,11l33,12l16,-13l17,-3l2,-22l16,-6l18,2l22,-13l33,17l10,10l22,1l34,-14l31,1l4,14l21,-6l14,7l8,-7l10,-20l20,-16l0,-22l624,101l96,187l335,652l11,-9l4,-17l15,-15h22l15,5l21,13h16l34,20l22,-2l28,8l11,-1l20,9l7,13l14,1l11,10l5,19l19,20l28,21l6,17l-7,19l14,14l18,6l9,15l5,29l24,12l-4,13l12,7l9,24l-7,6l15,13l-5,44l3,24l19,20l-9,16h14l3,32l14,31l-27,16l-16,34l2,22l-2,21l12,17l1,11l-10,27l10,24l-18,27l785,501l485,-208l796,-205l16,-19l13,-24l20,6l14,-3l28,-21l30,-28l32,-34l20,-17l-1,-18l22,-23l15,-27l0,-23l6,-9l20,-5l24,-20l37,-19l17,-24l41,-11l47,14l12,-2l8,-13l14,4l31,-7l23,-2l35,-9l17,4l0,29l20,4l31,19l25,-10l22,-13l36,-38l23,-10h16l22,15l26,13l17,18l25,6l2,-21l7,-17l-3,-32l21,-14h26l21,-19l1,-18l-14,-53l-9,-10l13,-26l10,-9l-19,-8l-9,-35l-7,-13l-21,-7l-19,5l-23,18l-7,-14l10,-18l0,-29l-26,-5l-19,-13l-16,-1l-21,-39l-2,-19l-42,7l-7,-19l-26,-32l9,-16l0,-69l16,-29l-2,-22l-27,-12l-55,-2l-42,-7l-23,-9l-6,-12l1,-24l-5,-14l18,-20l-28,-36l-2,-28l-12,-10l-30,-8l-29,-1l-18,-8l8,-17l22,-16l5,-10l-6,-16l17,-11l5,-15l-5,-16l21,-9l26,4l24,-9l12,-23l26,-21l0,-13l17,-15l-2,-21l30,-26l17,-1l1,-10l-18,-37l3,-11l14,-20l-9,-31l17,-9l35,7l20,-2l16,-8l34,-1l12,-10l0,-14l-38,-39l-2,-22l-12,-20l-13,-11l-5,-15l-1,-40l12,-12l32,-12l17,-31l17,-18l30,-12l10,-22l-1,-19l-13,-28l-26,-11h-27l-13,-16l-26,2l-3,-13l9,-15l16,-12l44,-20l26,-6l13,-22l37,-34l25,2l8,-10l16,-9l34,-27l-10,-15l18,-16l17,-21l32,-5l9,-10l27,-11l29,-21l-16,-14l-15,-5l14,-38l22,-17l24,-8l26,-33l12,-10l-10,-38l5,-13l39,-22l14,-22l9,-5l19,2l33,-19l8,-1l43,8h30l33,-9l40,2l18,-2l30,-20l55,-9l19,-8l24,1l41,-34l-1,-24l31,-9l22,-11l19,-6l28,-18l19,1l42,-11l14,-8l18,3l30,14l14,20l48,-18l8,2l3,25l7,14l10,-3l35,-38l21,9l14,20l36,7l17,25l9,-13l19,-14l22,1l15,-9l14,-19l33,-8l5,-21l13,-8l0,-17l19,-27l9,3l18,22l11,1l54,-43l16,-20l1,-32l16,-21l6,-17l22,-15l15,4l24,19l13,6l27,3l20,-2l17,-8l17,-14l28,-16l17,-19l162,649l604,312l642,-87l691,-94l-24,-396l37,-28l13,-3l18,-18l30,-15l33,-27l1,-22l-10,-15l5,-12h14l21,-7l28,-2l16,-7l24,3l5,13l17,10l45,-10l10,-6l30,8l24,-11l46,-5l18,8l12,-11l12,1l3,11l28,13l1,17l12,37l-7,28l13,10l-1,15l46,33l23,-2l8,16l-4,24h-16l-14,14l12,23l-6,14l6,11l-12,10l14,25l15,10l31,29h12l5,12l18,12l12,22l-5,32l1,22l14,3l-2,22l14,1l4,24l-11,9l-1,14l27,20l21,1l17,6l10,-18l32,-12l17,12l6,13l29,-7l31,-16l21,1l3,22l10,13l4,16l14,-13l16,-1l14,-14l6,15l-3,15l14,11l12,-20l23,16l22,-2l15,7l25,25l10,-18l34,3l7,5l12,-19l13,-7l3,-31l26,6l2,-29l11,-12l32,-1l25,-19l18,7l21,-17l14,4l20,-9l9,-18l23,-14l-2,-13l-14,-15l1,-15l10,-2l13,-15l15,-9l7,6l24,-6l-164,460l642,-118l132,237l3,14l16,28l-15,25l3,20l41,2l20,-3l13,7l30,31l11,8l42,13l4,8l-49,28l-21,36l-28,21l-14,5h-29l-16,11l-6,17l-15,20l28,7l11,22l39,18l19,15l7,13l36,21l-4,18l-40,17l-27,-3h-40l-28,3l-35,11l-41,-3l-8,3l-36,61l-18,16l-20,-11l-9,-27l-21,-3l-23,22l-46,1l-20,10l-25,-11l-17,-3l-44,4l-39,31l-15,24l0,10l17,23l8,20l-1,24l-6,17l2,11l21,13l23,21l38,10l43,36l23,38l39,14l40,23l18,22l21,15l36,13l14,9l15,44l6,9l18,10l13,17l29,15l45,1l27,-4l24,15l36,12l30,32l15,12l14,3l15,18l38,23l11,13l22,10l17,26l43,20l30,19l20,16l22,5l28,17l10,25l-8,16l1,48l-7,21l-31,-2l-15,12l-17,20l-11,23l0,41l-30,15l-15,23l-14,47l-10,17l-31,13l-66,10l-76,22l-48,-13l-23,1l-37,19l-57,-9l-23,-16l-84,-21l-17,9l1,25l-37,29l-40,11l-16,22l-12,4l-62,3l-7,22l7,13l-14,21l-24,19l-7,14l4,20l54,46l25,8l30,45l22,15l3,37l-19,27l2,31l5,7l46,28l33,15l14,34l2,15l-4,14l11,12l14,-10l36,-18l26,-7l32,10l12,34l16,14l25,9l30,20l22,-2l19,10l19,27l-4,21l-8,12l-35,17l-14,17l-1,17l19,33l-2,5l-80,40l-8,19l12,36l2,27l-11,47l12,13l27,10l3,26l-10,31l-19,38l-38,6l4,19l12,30l-2,8l-17,20l-41,30l-1,17l8,30l17,18l-48,54l-21,14l-11,20l5,12l-4,14l-23,25l-20,2l-15,12l-2,13l-13,23l10,17l-2,13l-12,5l3,13l20,4l29,17l30,-8l30,-21l29,-13l13,1l46,30l12,-4l19,20l4,17l25,16l7,24l-6,17l2,16l17,43l3,29l13,8l5,-16l15,-14l43,-6l37,25l27,4l10,6l12,16l-2,13l-26,21l-2,14l11,12l9,33l1,47l-14,26l-9,9l2,19l-18,31l2,15l15,9l33,29l7,20l-19,8l-92,25l-33,1l-27,4l-12,12l-11,39l-10,12l-34,27l-23,22l-1,15l11,23l13,17l6,22l-2,9l-16,19l-1,12l8,17l-6,13l11,8l24,-16h24l0,34l14,47l-2,28l-37,16l-24,-2l-5,6l4,29l-33,31l-11,29l-11,7l-13,19l8,26l9,10l26,11l13,17l-4,14l-23,7l-13,14l-6,20l7,16l10,7l22,7l15,11l7,24l19,16l-27,31l-41,28l-4,11l-1,33l-31,17l-19,22l-19,5l-37,21l-2,23l-6,10l-27,18l-21,2l-42,21l-57,9l-22,18l-26,58l-26,52l-11,48l-1,23l-12,35l3,30l-11,12l-9,27l-15,30l-21,30l-32,68l-2,44l-12,31l-18,24l-42,22l-6,7l0,18l20,35l50,40l25,6l6,14l19,10l26,18l22,29l5,20l-13,12l1,62l20,49l29,38l15,7l43,1l44,-8l12,9l3,23l1,42l5,26l2,43l13,35l-7,42l0,22l6,11l14,11l20,9l22,14l5,27l-2,25l11,23l32,31l12,21l13,32l24,40l23,14h26l16,5l19,25l19,13l69,4l16,9l10,47l12,15l28,5l39,-35l29,-4l10,-6l19,-38l18,7l-1,38l19,70l-4,25l55,24l20,13l33,16l27,28l66,17l7,8l7,35l20,10l56,-45h30l18,-8l46,-7l-15,13l-17,8l5,17l-36,23l-2,34l7,18l-15,10l1,12l-18,7l-3,54l-12,16l6,11l0,28l-4,18l-9,5l-26,25l-11,30l-1,16l-9,15l0,19l-24,8l11,36l-14,4l-5,26l8,9l-4,15l-26,15l-5,18l-9,8l-4,23l-17,8l-11,24l-19,28l-8,5l-14,-9l-32,1l-16,18l-19,6l-34,-2l-26,14l-12,35l11,47l19,13h20l27,12l10,21l4,27l-17,18l-17,-11l-13,8l5,36l-6,19l17,13l0,8l-23,24l3,28l-6,25l-8,7l-7,24l0,51l-10,7l-25,9l-6,29l-13,12l-32,-9l-14,-11l-16,11l-8,28l11,17l33,6l-7,19l2,16l-5,19l10,7l3,25l14,17l-2,7l-21,1l-1,15l33,10l18,15l-5,12l4,11l23,17l36,4l2,5l-10,44l-28,52l-13,7l-8,12l12,36l-11,16l-1,51l-18,43l-14,3l-22,18l-1,18l10,22l21,11l8,13l-1,28l2,22l24,16l5,17l-18,25l-10,6l-38,12l-11,24l23,32l-3,15l-30,35l-7,38l15,6l6,-8l29,-1l16,5l9,19l-13,7l-14,27l-42,33l-30,53l9,14l12,7l35,-21l12,6l19,19l11,34l-5,9l-4,24l24,14l-1,19l14,14l14,31l30,43l54,16l71,57l3,39l-7,19l1,15l25,8l45,-33l19,5l25,19l12,30l7,7l39,-5l59,-12l26,15l40,43l7,13l-1,26l34,2l20,15l20,-6l16,-15l24,3l23,35l25,1l33,-8l23,-1l-16,9l-8,46l-8,12l-8,39l-6,15l-3,29l-20,44l-16,4l-4,18l-8,3l-5,21l-18,39l-3,35l-5,20l8,43l-9,23l-7,45l-8,16l6,23l-43,35l-1,18l-9,37l-15,11l-25,-1l-24,-6l-17,2l-26,12l-25,29l-14,-9l-13,7l-18,18l-9,2l-6,17l-9,2l-18,18l1,16l-19,-2l-6,25l-16,23l-1,13l-9,5l-4,14l5,13l-4,28l5,46l-11,12l-1,26l-6,22l4,29l-2,12l-16,36l-13,52l6,26l-7,5l5,41l5,16l-53,33l-10,54l-6,11l-26,23l-8,2l-11,15l-14,9l-30,11l-3,20l-19,9l-5,9l-6,46l9,75l13,4l18,43l12,85l15,20l-7,20l4,9l17,17l9,16l1,26l10,29l2,44l10,56l-9,51l-6,53l-9,15l-8,26l-9,17l0,15l-9,35l0,12l-24,-9l-6,-15l-25,-11l-2,-20l-8,-21l-9,-13l7,-6l8,-24l-1,-26l-14,-10l12,-27l-2,-10l-26,-17l8,-12l-1,-13l10,-14l-1,-23l6,-22l-11,-23l-16,-9l-4,-33l-15,-15l4,19l-6,24l-33,44l-15,5l-18,14l-12,18l-20,11l-13,23l-26,31l-9,2l-55,49l-33,55l-16,22l-18,18l-13,22l-7,3l-12,17l-24,27l-5,18l-11,16l-39,27l-23,24l-12,25l-14,11l-12,2l-27,16l-4,10l-16,3l-23,17l-27,11l-21,13l-14,20l-18,18l-7,14l94,-3l83,45l-8,16l-10,42l-19,25l6,19l17,6l11,17l-3,21l32,19l4,13l-13,25l8,16l0,31l-10,2l-16,25l-32,24l-4,27l-23,9l-2,18l5,12l1,22l-8,21l5,14l-4,26l-7,19l-12,9l-2,18l-15,19l-9,23l-21,16l-2,24l9,26l-10,16l-15,41l-22,31l3,14l-10,19l-20,15l-2,25l-24,35l-1,31l-19,7l-6,30l9,28l-19,7l5,16l-26,6l-10,11l-16,10l-8,22l4,13l-4,16l-1,26l23,19l0,8l-14,15l7,29l-13,32l2,17l-10,22l4,21l29,20l3,9l-257,43l-219,33l-74,14l-100,17l-37,-1l-15,3l-26,13l-26,6l-35,3l-359,86l-15,-4l-44,7l-40,14l-17,-2l-31,10l-65,24l-57,-2l-28,4l-54,15l-9,1l-36,17l-14,-1l-94,13h-22l-66,-18l-60,-29l-29,-5l-23,-8l-55,-3l-55,-12l-56,-2l-37,8l-35,16l-26,2l-9,9h-315l6,10l21,17l6,16l33,23l3,7l27,-9l18,15l22,-1l20,23l-2,7l17,9l12,17l20,-4l15,3l-2,11l13,13l1,12l-10,6l16,20l8,20h10l6,34l29,28l9,-3l13,13l11,34l9,5l7,22l-11,13l9,15l-12,10l10,20l14,8l2,15l19,17l-4,15l-16,28l2,11l19,10l-10,25l20,14l12,1l16,28l-11,16l11,6l5,18l-4,12l-4,37l4,11l-5,40l9,10l24,-10l16,20l14,5l8,15l14,5l24,35l48,37l26,-10l11,8l24,6l47,21l30,22l16,-1l7,10l-4,22l4,9l22,1l25,16l21,-1l18,14l14,24l14,4l10,15l17,2l21,29l6,21l2,37l11,23l14,7l5,20l-4,21l18,4l26,12l1,12l-31,21l2,12l7,7l15,-1l-2,18l17,-8l15,3l0,13l13,2l4,17l-9,18l10,7l-3,36l7,15l19,4l9,33l-6,25l12,4l-3,17l30,19l1,8l29,-1l12,15l-5,8l12,13l22,12l16,-4l17,25l-7,8l19,19l-7,5l11,24l-14,13l-7,21l11,19l22,7Z"
     transform="matrix(9.9999992e-5,0,0,-9.9999992e-5,-1.4338888e-7,0)" />
  <path
     id="2304"
     d="M-390507,-60254l51,10l36,16l23,31l97,59l16,3l11,-5l28,-50l19,-10l12,14l-1,47l4,36l26,51l21,5l17,-8l15,-1l24,-15l13,-27l16,-43l12,-43l8,-6l45,-3l33,-15l33,-9l15,2l14,14l4,-26l18,-25l32,-33l-3,-36l9,-15l10,-111l12,-17l5,-19h-15l-3,-41l-7,-51l-6,-15l-4,-27l15,-3l-8,-13l5,-15l-11,-4l11,-24l3,-15l-14,-18l-31,-55l9,-25l10,-4l22,4l20,-97l6,-10l45,-17l6,-11l-28,-71l9,-22l37,-11l9,38l9,26l8,43l16,64l-18,6l-6,12l-1,18l17,47l16,16l17,2l4,12l-3,22l6,10l3,34l7,15l-4,10l9,22l2,32l7,61l4,7l35,1l12,6l-5,13l2,16l10,12l-1,55l-16,27l-23,8l-1,18l13,95l11,11l5,15l-5,25l-6,17l8,21l15,25l-3,10l23,10l24,-22h26l11,10l-6,9l14,19h9l5,21l8,8l4,21l15,20l2,13l-11,20l-16,-12l-10,1l-22,30l5,17l10,7l-25,42l0,9l12,32l-6,9l5,19l35,-7l3,13l29,-1l9,19l-10,23l-4,19l9,22l2,22l9,14l-9,11l-11,1l-12,16l-4,23l13,20l11,9l13,-11l16,-3l12,9l19,2l22,8l7,11h25l7,12l-11,26l0,22l-31,29l13,14l17,2l17,22l-4,12l-3,33l9,6l25,-6l10,-31l38,-8l12,5l37,-1l8,3l8,19l349,628l1,25l25,19l-8,29l0,15l21,1l15,32l-6,10l-16,14l2,9l28,12l14,-3l14,8l-5,32l-30,2l-5,29l-21,17l8,16l31,11h22l20,28l9,1l10,-24l13,-10h13l20,11l4,18l22,19l32,-6l-9,20l-2,28l21,16l3,9l26,5l9,11l-4,31l17,18l6,30l9,4l17,-7l16,6l30,4l28,10l25,23l21,13l1,22l-19,12l0,13l18,-1l5,23l-5,14l4,43l18,6l10,-14l8,-1l29,15l-6,14l-27,-2l-18,18l-1,14l9,11l3,15l48,38l28,9l8,14l4,22l13,8l23,-5l8,2l51,30l50,40l40,8l16,9l14,19l11,34l9,13l-1,20l-230,397l-529,913l-284,604l26,555l26,555l4,84l-2,60l-22,10l-31,67l12,40l-10,18l-21,9l19,22l1,19l22,-4l-4,25l-28,24l1,28l4,19l-13,45l-25,18l-21,32l-18,1l-27,-24l-12,-3l-18,15l1,13l13,29l0,12l-10,15l5,33l15,17l5,27l-18,16l-1,53l-18,10l-10,-5l-11,5l2,38l25,34l14,6l6,35l-5,43l-11,17l-5,26l4,22l-4,24l2,22l-12,24l-2,27l2,42l5,13l-7,41l2,17l13,40l-8,15l1,20l-5,23l-2,31l6,42l-3,30l5,31l-4,23l3,44l8,47l-2,44l19,6l4,10l24,3l-1,37l28,33l14,1l43,20l25,18l11,3l11,12l29,13l6,13l28,20l28,8l67,-2l9,-3l54,-1l7,9l31,5l21,8l28,25l20,13l13,2l24,18l11,21l18,10l-1,7l32,24l9,2l29,28l8,24l52,11l29,1l33,30l11,23l12,8l9,20l11,47l15,22l-5,16l21,33l15,10l19,23l19,37l15,16l2,13l18,20l0,11l21,16l10,24l-8,8l7,30l12,13l8,-1l7,21l29,29l12,23l2,18l9,15l11,5l14,23l12,37l11,18l21,16l21,40l13,15l20,3l38,14l26,-4l7,13l9,4l30,31l46,5h22l26,11l38,7l11,22l19,17l5,10l13,5l4,12l23,20l32,16l40,8l47,22l33,-13l28,-6l20,11l15,-1l24,11l5,-6h26l16,-4l29,10l65,2l15,6l8,12l21,-7l10,-12l16,-4l40,3l10,6l16,-1l8,7l45,-8l19,-8l3,-12l41,-12l37,8l5,6l165,-263h144l649,768l3,11l17,20l-6,17l10,8l-2,20l-14,10l-12,-5l-11,9l-6,27l-12,4l2,18l-7,11l1,14l-6,20l0,26l12,7l0,18l10,15l-10,24l-12,3l-9,13l-6,26l1,15l-10,19l13,8l4,12l16,2l5,9l-19,21l3,19l-6,13l7,8l0,13l10,10l-25,11l-14,1l-11,14l13,13l-6,14l-4,27l-16,14l22,21l3,13l-29,2l-13,17l1,17l11,15l-3,11l-22,2l-10,-10l-18,8l-3,16l26,12l-12,12l-27,10l2,17l27,18l-12,31l11,7l6,24l-18,17l8,11l20,9l-3,11l8,17l-13,13l0,10l-15,23l-27,13l-6,31l-20,-4l-7,13l-25,18l-23,-8l-15,2l-27,-6l-13,2l-17,18l-27,3l-37,15l-33,7l-2,12l-39,21l-16,-20l-21,8l-3,12l-27,-15l-17,-4l-18,-43l-15,-1l-8,-9l-21,-9l-52,-40l-69,27l9,16l26,21l-13,26l37,113l33,90l4,40l-1,30l-5,32l-17,16l-2,27l15,29l2,18l-6,37l11,19l55,46l20,5h32l46,16l8,13l-1,44l5,8l32,28l32,48l14,8l18,3l31,17l4,19l4,115l9,15l16,2l6,15l12,4l5,16l-27,21l-15,16l-4,38l11,17l2,13l-14,40l-8,44l-14,27l3,16l9,5l-4,13l6,18l23,13l64,57l5,10l0,17l7,7l-13,25l-15,10l11,28l-5,19l-9,6l-20,31l-10,1l-6,21l-14,3l-9,17l-5,25l-21,14l-7,11l5,18l20,26l11,9l5,18l-7,12l-20,21l-23,-1l-7,21l-15,16h-18l-17,6l-10,30l-10,20l-2,16l-11,20l-22,21l-28,15l-2,14l-13,13l3,17l-10,24l15,26l18,7l2,7l19,5h17l5,28l12,33l12,13l18,8l15,15l23,4l8,16l-8,16l16,11l10,-3l16,5l23,-1l15,-6l14,7l4,-10l31,17l15,16l23,6h14l3,11l22,19l50,36h24l16,12l3,12l14,-6l24,2l25,-4l11,13l21,15l7,27l-10,14l11,12l11,1l25,18l7,26l22,17l19,2l4,16l17,12l-3,19l-10,11l22,5l33,19l-14,39l5,16l19,-4l15,5l10,-11l16,-7l15,1l11,8l11,22l9,3l8,17l11,6l1,13l12,2l8,16l19,19l-3,13l-9,12l7,11l14,-5l16,22l-10,10l8,22l-11,8l16,15l11,28l-9,26l-17,13l6,11l11,-5l5,16l22,27l3,11l-13,24l-14,3l-14,10l-6,34l33,27l12,19l22,5l3,14l20,5l10,-8l10,5l17,25l21,1l5,7l28,20l33,10l8,5h27l12,11l23,13l5,-8l23,11l30,-10l14,2l19,-11l13,10l15,4l16,-4l-1,12l29,15l-2,12l31,28l15,7l1,11l13,12l13,6l-8,11l16,13l4,17l-3,11l21,25l10,6l17,-1l21,33l3,16l-6,11l-5,28l-10,1l-11,13l-15,7l-14,15l-3,25l-22,19l1,10l-11,27l-2,19l-11,5l-6,17l1,17l-14,14l5,15l-4,20l-12,17l-4,13l15,37l-2,21l24,-5l6,8l-4,18l-8,8l18,22l7,26l-4,31l14,15l-17,47l-6,10l-17,-7l-25,6l-26,-5l-24,6l-23,19l-24,14l-38,9l-3,5l-26,16l-5,8l-23,-6l-43,18l-11,-22l-32,13l-13,11l-15,-13l-48,-8l-28,17l-8,1l-9,19l-26,5l-16,-7l-22,-3l-15,-11l-16,-3l-10,-12l-11,-28l-17,-8l-8,10h-12l-4,-22l-17,-3l-26,-10l-6,-12l-13,-6l-9,-20l-40,-11l-8,4l-30,-14l-2,-15l-18,-7l-17,-13l-7,-12l-12,-4l-41,-37l-18,-6l-16,-14l-4,-17l-26,5l-11,7l-34,-22l-26,-10l-23,-2l-12,-12l-32,15l-21,-4l-10,23l-5,26l-9,23l7,22h21l17,7l0,15l-33,18l-20,6l-30,23l-41,17l-27,-2l-54,2l-27,58l-7,43l-14,26l-31,66l-11,13l-27,-4l-12,-8l-6,-16l-21,-30h-8l-30,23l-9,15l-5,31l-9,16l-17,11l-21,2l-69,34l-22,14l-7,22l8,19l24,15l0,16l-34,27l-17,24l-1,39l-12,59l-8,12l-38,12l-9,15l-18,137l-3,5l-70,10l-47,-17l-37,-22l-25,-55h-29l-78,14l-64,4l-34,-1l-31,-6l-36,-13l-47,-25l-22,-10l-37,-9l-26,-1l-41,14l-26,3l-13,-22l-7,-27l-12,-27l-25,-14l-10,1l-24,23l-11,21l-19,-12l-44,-16l-7,-7l-8,-39l9,-30l0,-25l-14,-6l-25,16l-15,-7l-13,-50l-5,-9l-22,-17l-36,-10l-27,-2l-29,2l-9,-5l-10,-21l1,-26l-14,-46l-25,-27l-37,-18l-19,-21l0,-12l-12,-36l2,-14l-12,-9h-13l-47,10l-26,-1l-23,7l-25,16l-27,9l-36,-22l-19,9l-13,-1l-18,-19l-36,-1l-29,3l-16,5l-54,35l-40,6l-11,-2l-43,-41l-41,-36l-31,-32l-18,-14l-29,-2l-20,-30l-14,-37l1,-11l23,-16l-7,-21l-48,-27l-9,-111l-12,-34l-10,-10l-18,-1l-13,-6l-27,-24l-15,-25l-85,20l-32,3l-21,-5l0,-11l34,-39l3,-19l-21,-4l-23,-11l-11,-16l-23,-25l-27,-35l-38,-12l-19,-10l-17,-23l-14,-5l-11,-13l-7,-24l-8,-14l-19,-6l-22,-1l-34,-7l-34,3l-34,7l-20,-3l-25,-11l-20,5l-3,24l5,23l-3,8l-18,25l-3,16l2,29l-5,29l-31,32l-15,48l-17,19l-25,-1l-12,6l-9,13l-22,13l-12,15l-27,45l-15,11l-1,8l16,46l26,36l93,93l21,14l4,26l-28,34l13,40l2,36l-12,21l-15,54l-123,-14l-64,-38l-27,-6l-25,1l-10,7l0,12l12,24l-1,44l-4,21l-14,14l-45,29l-13,13l-13,3l-56,-2l-9,16l-3,33l-14,18l-17,4l-24,-7l-21,-27l-22,-10l-25,-5l-27,7l-22,29l-14,34l-16,15l-24,4h-26l-16,-5l-14,3l-11,11l-32,14l-14,-18l4,-20l-26,-4l-34,2l-10,6l-18,19l-30,15l-28,6l-26,-7l-22,-2l-24,3l-25,-17l-16,-21l-9,-19l-23,-33l-64,-33l-23,-17h-16l-19,8l-19,24l-37,15l-10,23l-2,19l-22,40l-14,20l-12,5l-18,-1l-38,-8l-45,4l-48,-30l-10,-18l-21,8l-10,27l-12,19l-9,23l-16,-4l-13,-14l-6,-17l-33,-13l-51,-24l-10,6l0,24l-21,15l-19,18l-20,31l-1,20l8,42l-8,21h-19l-30,-16l-47,-11l-10,2l-20,-5l-36,-19l-25,10l-10,-4l-15,-28l-14,-2l-34,14l-51,-16l-17,1l-18,-7l-33,-5l-30,-13l-6,-13l1,-16l-5,-12l-14,-10l-20,-4l-12,-13l-28,-5l-15,-8l-9,-27l-3,-25l-7,-11l-45,-33l-8,-17l-28,-4l-10,6l-5,18l5,18l-10,10h-23l-40,-11l-36,11h-21l-15,8l-16,17l-12,25l-13,4l-17,-3l-7,-8l-13,-38l-6,-28l-16,-4l-46,2l-30,13l-39,-19l-9,-7l-16,1l-10,11l-14,1l-29,-7l-56,4l-20,23l-24,9l-10,29l-21,31l-12,2l-7,-8l-19,-3l-11,7l-32,8l-21,-15l-26,-10l-22,-28l-21,-1l-7,5l-22,-2l-46,-10l-16,5l-19,-3l-8,-7l-12,4l-22,24l-15,-22l-11,4l-28,-14l-19,7l-14,-3l-8,-9l-25,-9l-18,-33l-13,-15l4,-31l-26,-8l-6,-8l-37,-12l-9,-12l-8,-103l-12,-147l-10,-14l-1,-14l-15,-5l-6,-10l-1,-33l-35,-17l-5,-15l3,-14l-15,-42l-17,-26l-19,-9l-5,-9l-17,1l-22,-23l-24,26l-10,-9l-33,-10l-7,-17l-17,-5l-10,-22h-13l-37,-10l-17,5l-12,-22l-34,-11l-25,-30l-5,-15l-22,-6l-12,-13l-27,-7l-8,-21l-17,-10l-4,-15l-19,2l-19,-13l-33,-6l-27,-10l-14,-22l-33,-10l-24,-17l-17,-4l-36,18l8,20l11,10l-4,31l5,11l-7,24l-18,24l-40,75l-185,-75h-770l-433,1l-656,-241l-532,174l-368,-5l-265,-130l-340,-46l-11,14l-18,9l-23,18l-9,11l-10,30l-28,25l-12,17l-1,12l8,30l36,40l42,38l24,29l6,23l-10,8l-55,31l-10,9l0,13l8,20l10,47l21,34l15,39l-15,39l-132,-237l-642,118l164,-460l-24,6l-7,-6l-15,9l-13,15l-10,2l-1,15l14,15l2,13l-23,14l-9,18l-20,9l-14,-4l-21,17l-18,-7l-25,19l-32,1l-11,12l-2,29l-26,-6l-3,31l-13,7l-12,19l-7,-5l-34,-3l-10,18l-25,-25l-15,-7l-22,2l-23,-16l-12,20l-14,-11l3,-15l-6,-15l-14,14l-16,1l-14,13l-4,-16l-10,-13l-3,-22l-21,-1l-31,16l-29,7l-6,-13l-17,-12l-32,12l-10,18l-17,-6l-21,-1l-27,-20l1,-14l11,-9l-4,-24l-14,-1l2,-22l-14,-3l-1,-22l5,-32l-12,-22l-18,-12l-5,-12h-12l-31,-29l-15,-10l-14,-25l12,-10l-6,-11l6,-14l-12,-23l14,-14h16l4,-24l-8,-16l-23,2l-46,-33l1,-15l-13,-10l7,-28l-12,-37l-1,-17l-28,-13l-3,-11l-12,-1l-12,11l-18,-8l-46,5l-24,11l-30,-8l-10,6l-45,10l-17,-10l-5,-13l-24,-3l-16,7l-28,2l-21,7h-14l-5,12l10,15l-1,22l-33,27l-30,15l-18,18l-13,3l-37,28l24,396l-691,94l-642,87l-604,-312l-162,-649l-17,19l-28,16l-17,14l-17,8l-20,2l-27,-3l-13,-6l-24,-19l-15,-4l-22,15l-6,17l-16,21l-1,32l-16,20l-54,43l-11,-1l-18,-22l-9,-3l-19,27l0,17l-13,8l-5,21l-33,8l-14,19l-15,9l-22,-1l-19,14l-9,13l-17,-25l-36,-7l-14,-20l-21,-9l-35,38l-10,3l-7,-14l-3,-25l-8,-2l-48,18l-14,-20l-30,-14l-18,-3l-14,8l-42,11l-19,-1l-28,18l-19,6l-22,11l-31,9l1,24l-41,34l-24,-1l-19,8l-55,9l-30,20l-18,2l-40,-2l-33,9h-30l-43,-8l-8,1l-33,19l-19,-2l-9,5l-14,22l-39,22l-5,13l10,38l-12,10l-26,33l-24,8l-22,17l-14,38l15,5l16,14l-29,21l-27,11l-9,10l-32,5l-17,21l-18,16l10,15l-34,27l-16,9l-8,10l-25,-2l-37,34l-13,22l-26,6l-44,20l-16,12l-9,15l3,13l26,-2l13,16h27l26,11l13,28l1,19l-10,22l-30,12l-17,18l-17,31l-32,12l-12,12l1,40l5,15l13,11l12,20l2,22l38,39l0,14l-12,10l-34,1l-16,8l-20,2l-35,-7l-17,9l9,31l-14,20l-3,11l18,37l-1,10l-17,1l-30,26l2,21l-17,15l0,13l-26,21l-12,23l-24,9l-26,-4l-21,9l5,16l-5,15l-17,11l6,16l-5,10l-22,16l-8,17l18,8l29,1l30,8l12,10l2,28l28,36l-18,20l5,14l-1,24l6,12l23,9l42,7l55,2l27,12l2,22l-16,29l0,69l-9,16l26,32l7,19l42,-7l2,19l21,39l16,1l19,13l26,5l0,29l-10,18l7,14l23,-18l19,-5l21,7l7,13l9,35l19,8l-10,9l-13,26l9,10l14,53l-1,18l-21,19h-26l-21,14l3,32l-7,17l-2,21l-25,-6l-17,-18l-26,-13l-22,-15h-16l-23,10l-36,38l-22,13l-25,10l-31,-19l-20,-4l0,-29l-17,-4l-35,9l-23,2l-31,7l-14,-4l-8,13l-12,2l-47,-14l-41,11l-17,24l-37,19l-24,20l-20,5l-6,9l0,23l-15,27l-22,23l1,18l-20,17l-32,34l-30,28l-28,21l-14,3l-20,-6l-13,24l-16,19l-796,205l-485,208l-785,-501l18,-27l-10,-24l10,-27l-1,-11l-12,-17l2,-21l-2,-22l16,-34l27,-16l-14,-31l-3,-32h-14l9,-16l-19,-20l-3,-24l5,-44l-15,-13l7,-6l-9,-24l-12,-7l4,-13l-24,-12l-5,-29l-9,-15l-18,-6l-14,-14l7,-19l-6,-17l-28,-21l-19,-20l-5,-19l-11,-10l-14,-1l-7,-13l-20,-9l-11,1l-28,-8l-22,2l-34,-20h-16l-21,-13l-15,-5h-22l-15,15l-4,17l-11,9l-335,-652l-96,-187l-624,-101l0,22l-20,16l-10,20l-8,7l-14,-7l-21,6l-4,-14l-31,-1l-34,14l-22,-1l-10,-10l-33,-17l-22,13l-18,-2l-16,6l-2,22l-17,3l-16,13l-33,-12l-23,-11l-25,13l-22,-9l-14,-20l-14,3l-45,16l-16,-1l-5,-15l-12,2l-18,-29l-11,7l-8,15l-16,-15l-20,2l-13,6l-27,26l-29,-2l-27,4l-27,-5l-19,19l-20,12h-20l-12,-17l-8,2l-16,-15l-67,-21l-11,-13l-8,-18h-21l-16,-9l-16,-21l-20,3l-21,-3l-36,-9l-21,11l-68,-13l-17,-9l-15,14l-39,20l-22,5l-35,-3l-21,28l-16,6l-37,-32l-14,-3l-38,-1l-14,3l-14,9l-15,19l-2,-18l11,-54l0,-41l4,-17l10,-10l18,-8l10,-21l-5,-33l-5,-13l-20,-21l-17,-28l-24,-53l-26,-31l-16,-12l-24,-10l-22,-21l-4,-9l3,-30l9,-44l11,-33l6,-39l10,-11l-5,-36l-22,-20l-6,-10l0,-53l5,-43l31,-32l-23,-48l-12,-15l3,-14l20,-35l-1,-14l-22,-4l-13,18l-15,12l-8,-1l71,-169h12l-6,-25l8,-4l-1,-16l-16,-36l16,-13l-17,-32l-5,-29l37,-22l-11,-38l-18,-16l-6,-21l-12,-21l-3,-18l27,-37l-6,-31l34,-17l2,-25l-20,-17l-4,-11l-26,-25l86,-34l-73,-51l-31,7l-27,18h-18l-26,-14l-51,-9l-53,-47l-33,1l-39,-10l-8,-9l-26,-7l-25,-28l-37,-28l-14,-15l-41,-21l-9,1l-25,-12l-10,4l-17,-9l-17,4l-2,12l-22,11l-30,-3l-42,5l-22,7l-19,-24l-9,-3l-23,-20l-22,5l-13,-7l-6,-21l-26,-9l-27,-29l-15,1l-19,8l-29,-20l-14,-17l-14,-6l-18,-24l-5,-12l-16,-21l-13,3l-5,16l-9,-1l-10,-14l-14,-6l-8,-22l-15,1l-8,-9l0,-22l-12,-9l-9,3l-27,-18l-16,4l-18,-3l-11,-13l3,-18l-6,-10l-27,-4l-15,3l-8,-7l4,-22l-12,-8l-11,5l-17,-26l-16,-15l6,-22l-3,-9l-22,7l-10,-5l4,-26l-8,-14l-24,4l-14,-7l-8,-19l-12,-4l10,-13l17,-10l-2,-11l-51,-15l13,-34l-13,-10l-5,-11l-13,-5l-56,-46l-21,-24l-12,-5l-9,-21l-11,-15l2,-18l-17,11l-12,3l-10,-10l1,-15l-5,-17l-13,-12l-17,-8l-7,-14l-18,-6l-16,2l-3,-39l-11,-8l-3,-26l-15,-18l1,-14l-21,-33l8,-21l-5,-10l-20,-5l-4,-19l8,-13l-8,-25l4,-13l-42,-35l10,-16l-4,-31l-7,-22l2,-30l-5,-12l-5,-28l-30,-38l-4,-21l-26,-34l5,-18l-15,-22l-7,-25l-1,-26l13,-18l9,-27l-711,2l5,21l-6,-29l-20,-24l-12,-32l-25,-35l-7,-19l-14,-22l-24,-86l54,6l26,-2l81,-14l41,-14l51,-27l54,6h43l4,-6l1,-65l6,-14l56,-15l10,-7l11,-18l12,-34l-3,-43l32,-27l16,-6l21,-21l2,-19l-17,-70l6,-25l12,-10l55,-10l18,-9l30,-28l25,-10l87,-18l48,-46l14,-2l20,11l71,84l30,25l25,10l38,-7l12,-16l31,-96l33,-74l13,-3l15,5l34,32l27,15l15,2l19,-12l10,-27l13,-151l27,-31l39,-23l51,-14l50,-63l41,-10l24,-10l16,-17l8,-18l17,-91l20,-22h21l34,31l21,9l65,1l38,-7l26,-12l47,-43l80,-113l9,-4l107,7l32,-8l27,-17l28,-26l34,-52l3,-52l-11,-37l-15,-12l-24,-58l-17,-60l0,-25l20,-41l46,-71l7,-30l-3,-45l24,-40l6,-25l-12,-26l-34,-30l-47,-32l-29,-16l-55,-3l-20,-15l-5,-18l11,-15l17,-7l35,-6l28,-19l32,-37l72,-61l12,-15l26,-56l72,-46l7,-32l-18,-14l-68,1l-16,-6l-30,-30l-2,-17l25,-79l-13,-39l-30,-19l-6,-18l-1,-50l34,-41l103,-70l7,-13l4,-48l-64,-241l-51,-36l-72,-36l-29,-39l-7,-20l-17,-115l0,-31l18,-31l53,-67l69,-74l51,-62l21,-37l20,-50l14,-93l-38,-68l-24,-21l-36,-11l-61,-3l-31,2l-46,12l-31,-1l-21,-9l-22,-24l-10,-19l-3,-20l20,-74l48,-77l9,-14l40,-32l70,-33l25,-16l14,-26l50,-130l4,-24l-3,-21l-24,-56h-15l-50,-60l-30,-18l-12,-16l-4,-56l3,-42l-35,-56l-3,-20l5,-13l28,-28l10,-21l3,-68l-4,-41l-26,-25l-37,-23l-12,-27l-1,-11l26,-40l10,-22l11,-38l1,-24l-12,-65l-1,-20l6,-16l30,-40l16,-13l23,-12l53,-40l45,-50l13,-33l5,-27l-5,-82l14,-38l4,-76l7,-48l79,-101l17,-31l10,-39l2,-40l-26,-74l9,-47l-5,-46l-23,-54l-22,-43l-16,-34l-7,-85l-11,-24l-35,-33l-101,-20l-43,-12l-35,-23l-50,-38l-12,-41l49,-60l35,-69l19,-92l3,-87l9,-21l32,-44l47,-54l54,-90l5,-17l-11,-69l-20,-40l-11,-50l2,-46l11,-42l49,-58l11,-26l6,-59l2,-160l31,-128l7,-70l-33,-241l18,-49l15,-100l2,-88l22,-67l38,-77l42,-121l18,-80l1,-18l-9,-38l-30,-51l-5,-20l4,-48l9,-19l21,-28l59,-66l61,-29l23,-22l6,-42l1,-137l17,-90l11,-15l5,-18l-5,-75l3,-24l23,-35l5,-55l0,-63l-20,-47l-26,-43l-73,-50l-19,-22l-7,-90l-17,-57l-20,-30l-47,-61l-33,-29l-41,-49l-36,-122l-5,-32l5,-84l12,-18l21,-20l20,-7l157,19l22,-5l36,-17l34,-20l37,-39l8,-12l51,-173l27,-139l38,-102l35,-74l87,-180l24,-71l9,-45l-2,-34l-34,-100l-13,-51l-27,-70l-3,-28l1,-35l9,-40l-2,-43l1,-37l8,-70l14,-77l33,-95l-48,-161l-5,-41l3,-10l165,-189l26,-21l18,-25l9,-27l33,-31l35,-48l38,-62l26,-57l51,-119l16,-50l76,-69l75,-50l24,-7l35,-35l20,-11l9,-11l11,-45l26,-35l9,-32l19,-111l10,-136l-5,-53l-15,-51l-33,-57l-42,-110l-17,-35l-20,-30l-31,-34l-35,-17l-12,-17l-24,-42l-27,-72l37,-166l51,-171l3,-14l0,-168l15,-96l7,-28l1,-28l-16,-45l-12,-60l20,-102l44,-171l3,-26l-6,-48l-14,-45l-2,-30l15,-58l29,-51l40,-46l59,-56l235,-207l84,-108l37,-62l20,-58l11,-69l1,-56l26,-103l25,-58l19,-26l100,-90l1,-9l-11,-29l-92,-321l0,-16l7,-18l54,-62l83,-82l76,-47l97,-13l255,-7l101,-9l60,6l76,2l22,-6l39,-42l55,-79l73,-80l131,-98l29,-17l63,-33l79,-23l35,-1l64,-13l129,-8l145,-17l59,-9l253,-51l163,-46l98,-10l149,-4l158,-9l30,-21l20,-100l32,-37l69,-35l21,-21l15,-35l12,-49l28,-162l22,-50l36,-28l55,-33l11,-25l28,-143l33,-39l35,-24l45,-7l67,1l42,11l127,100l91,44l62,11l68,-14l79,-22l36,-26l65,-36l75,-2l20,-18h21l11,11l4,89l14,18l23,-2l19,-40l23,-12l114,-20l23,2l72,16l37,20l10,18l2,30l14,42l18,26l17,18l19,10h26l20,-18l17,-73l11,-17l13,-9l8,-17l3,-72l26,-13l47,3l17,-3l27,37l41,72l14,21l22,8l29,-2l121,-24l12,2l18,17l3,26l7,16l38,46l49,-7l18,3l50,47l24,35l22,16l45,6l157,-4l98,6l90,17l54,33l134,113l20,5l21,-2l21,-18l69,-121l18,-41l4,-31l-3,-76l2,-23l7,-14l15,-1l36,23l28,16l106,35l31,-11l29,-26l24,-34l19,-97l6,-7l47,10l37,-25l-1,-18l-21,-9l-20,-3l-4,-10l23,-24l-1,-7l-26,-6l-66,-34l-20,-13l-11,-28l30,12l21,-3l-8,-17l1,-21l11,-6l14,4l15,19l40,13l20,-2l13,6l45,7l46,-15l3,-8l19,-3l15,8l9,15l19,3l3,19l17,50l24,16l5,11l3,25l9,11l10,-15l27,-15l33,38l13,4l27,-7l15,10l35,34l18,21l41,34l36,21l12,4l8,-30l12,-12l18,-4l11,14l27,20l29,-1l23,12l18,19l5,21l-4,11l-29,27l-8,17l-18,21l4,20l25,2l-8,53l6,13l42,14l15,19l44,19l13,21l14,12l10,-3l41,56l17,6l12,12l17,5l3,16l16,3l25,39l-7,27l16,17l24,8l16,23l16,10l27,12l5,27l-1,29l7,8l37,-1l28,9l50,67l-1,12l15,25l12,3l47,30l-2,23l-5,8l25,26l3,18l14,11l34,-7l15,4l27,41l28,31l35,-1l10,21l-17,10l-7,22l-10,9l-16,-8l-11,4l-4,17l-17,23l-5,34l-15,32l14,22l41,6l21,5l20,-2l25,2l22,18l25,4l17,11l5,18l4,61l14,10l43,-4l24,7l11,-9l23,-9l-8,-31l-16,-27l-3,-13l14,-5l-28,-34l-34,-13l-6,-18l11,-5l7,-15l20,11l19,25l11,-12l13,-5l15,5l15,-7l2,-25l9,-9l2,-38l15,-14l14,1l17,16l24,-13l-9,-14l13,-16l2,-11l-6,-22l12,-1l22,6l12,-9l15,1l27,-20l16,-1l8,-11l11,6l7,-14l20,-16l17,7l12,-15l16,4l3,-13l12,-8l-7,-14l9,-11l20,6l10,16l10,27l18,1l13,10l-5,30l4,16l18,4l6,17l13,18l8,3l16,-10l35,25l14,-16l46,31l24,20l10,1l-1,26l25,14l6,-9l15,13l21,-5l13,5l28,-1l7,10l19,-8l7,25l-1,10l27,6l8,-3l17,13l19,5l6,7l44,21l36,22h8l15,17l42,23l18,15l27,14l31,8l3,-7l-22,-28l-32,-20l7,-17l-7,-25h37l35,4l26,14l13,15l13,-6l1,-26l9,-6l33,13h21l21,7l15,13l15,22l45,-5l5,-20l-1,-23l74,7l7,-7l22,2l6,-5l-3,-19l8,-7l14,-31l-6,-32l13,-2l12,-16l0,-13l-26,-33l16,-16l16,-33l19,18l20,14l35,14l20,10l44,16l51,26l37,23l25,30l27,29l61,56l19,22l20,15l89,22l22,9l19,13l18,34l14,17l17,14l17,34l4,15l0,71l-15,24l-15,17l-9,30l21,40l33,26l16,24l-16,44l-2,16l38,1l25,5l45,20l28,18l29,14l66,37l47,16l95,38l173,-40l-14,30l-16,2l-19,-6l-9,5l-19,-6l-7,16l-11,8l-45,79l3,11l-13,18l-53,-21l-28,-19l-20,-6l-7,-19l-34,-17l-20,-17l-7,4l-35,-25h-11l-56,-52l-15,-11l-18,-3l-20,-11l-13,-1l-13,-13l-39,-22h-13l-17,39l3,24l31,27l18,34l-7,21l-20,10l-2,15l11,8l70,60l23,38l11,31l-17,29l-33,8l-29,20l-1,18l52,22l15,10l28,9l14,1l19,-12l33,-1l29,17l-6,23l-12,27l2,12l23,60l8,43l13,12l22,1l29,5l21,13l21,32l9,64l9,24l12,18l18,11l23,21l34,15l0,29l9,19l-25,8l-24,2l-23,-3l-3,14l-16,-1l-9,7l-17,28l1,28l-13,10l-13,-12l-9,7l-19,40l-4,23l-12,6h-15l-24,20l2,21l-3,17l14,13l-18,34l26,32l33,30l20,12l59,25l71,37l52,24l-15,10l0,16l-18,21l-26,14l-16,14l-9,-5l-26,10l-27,33l0,20l-18,8l-16,-5l-33,9l-5,6l-4,28l-24,10l-26,-5l-1,16l-10,8l-21,2h-39l-7,8l-11,27l-38,18l-18,-3l-11,4l-16,19l-11,31l-14,23l0,11l-10,19l4,7l8,36l0,24l10,30l20,23l22,20l4,29l-10,15l-35,31l-34,48l-21,23l-8,14l1,14l18,24l-11,42l12,34l-27,39l5,36l32,31l7,16l53,40l36,19l39,3l11,4l14,15l15,30l23,23l7,16l16,23l24,19l50,9l9,12l18,33l3,49l9,18l26,12l24,3l5,24l13,2l21,-8l28,5l6,5l-4,24l3,11l17,4l18,10l14,27l26,33l20,8l28,-5l12,16l0,14l-24,22l3,26l13,41l21,25l9,20l26,25l30,35l15,25l17,36l27,25l72,-28l22,-2l18,19l31,-37h25l20,-37l9,-5l14,7l48,37h12l39,-35l47,3l33,5l24,-6l31,-12h35l29,21l18,32l15,-4l5,9l27,18h13l12,9l4,14l27,18l12,2l33,25l31,14l10,-8l14,13l12,20l38,-11l30,-13l20,6l-13,-27l6,-17l14,-2l16,6l16,14l1,8l23,4l9,12l17,-17l19,4l5,8l1,19l18,-1l26,18h15l8,13l25,15l-9,22l21,10l12,23l21,6l7,13l18,-1l-7,-18l8,-24l17,5l14,-4l16,-33l14,7l20,-12l22,25l12,-11l9,-17l28,-15l6,-11l17,-6l-2,-16l23,-33l11,-10l16,-1l7,-18l29,-9l18,-17l2,-14l13,-16l18,16l15,6l18,16l21,31l20,22l27,11l24,5l15,-4l18,21l18,4l7,-20l35,-11l24,-19l28,6l17,-17l22,-10h39l-5,-23l-34,-22l-9,-10l20,-8l14,-12l2,-13l12,-16l-6,-16l13,-4l43,10l7,4l2,26l6,15l9,2l24,-17l23,17l7,22l22,12l9,-1l11,-21l44,-27l19,10l8,25l9,10l-4,15l10,2l11,-25l17,-6l22,27l12,32l12,5l13,-7l12,-24l15,-3l28,-12l9,-13l-4,-23l7,-6l34,-2l8,-10l24,-14l17,-3l12,18l33,23l13,18l4,12l-10,45l5,17l9,9l27,-19l24,-7l14,1l16,9l-44,444l467,194l11,13l15,5l3,10l-7,16l1,22l-16,14l-12,24l6,24l0,25l13,11l17,1l16,14l5,26l9,13l31,31l16,19l158,122h35l17,24h19l15,-9h14l0,13l33,12l24,13h14l0,-18l8,-5l17,5l7,16l16,2l15,-29l-1,-15l21,-1l18,-8l22,4l34,-25l10,-16l491,511l480,462l727,-160l453,-100l336,422l181,185l1,40l4,26l-14,4l-5,27l15,17l55,39l14,15l5,21l-5,50l12,21l30,20l34,40l3,15l-1,48l14,38l38,14l30,38l34,11l34,2l26,-28h5l34,45l-2,8l18,42l14,130Z"
     transform="matrix(9.9999992e-5,0,0,-9.9999992e-5,-1.4338888e-7,0)" />
  <path
     id="2305"
     d="M-380281,-56233l40,97l101,192l38,30l108,49l11,12l-8,38l4,35l-10,32l18,67l22,29l25,59l32,35l28,13l20,1l95,36l38,20l26,28l51,26l40,32l96,36l25,20l24,33l12,40l28,37l36,107l34,76l21,22l16,9h37l27,-6l42,-26h29l69,15l6,6l52,22l26,4l6,9l-4,23l16,71l20,45l15,15l42,28l5,8l27,285l6,29l24,56l27,44l26,32l42,88l128,150l37,57l-2,48l14,62l-34,140l-16,33l6,43l51,69l9,105l102,167l118,46l128,125l101,63l26,17l59,21l174,156l38,24l8,34l-3,47l-13,23l-33,34l-18,26l-8,36l-21,60l4,86l10,52l48,98l9,50l18,79l-4,33l-23,33l-25,65l-18,47l0,36l26,70l18,21l93,147l113,475l94,108l35,61l38,51l83,74l66,96l18,161l12,39l28,60l15,18l10,22l60,50l44,29l42,16l147,30l170,29l12,11l5,18l168,544l98,352l102,363l491,111l326,74l366,90l329,77l220,53l207,49l895,229l763,196l279,71l-18,29l-47,98l-30,77l-44,136l-15,30l-32,87l-48,164l-29,102l-14,46l-12,28l-30,58l-29,48l-20,26l-55,83l-123,111l-35,36l-45,49l-60,60l-46,43l-41,32l-40,25l-27,14l-29,9l-24,12l-26,7h-24l-20,-22l-22,11l-22,3l-6,13l-18,-1l-22,13l-96,42l-36,21l-44,11l-40,9l-3,-3l-84,17l-26,8l-62,11l-64,11l-41,9l-41,14l-61,30l-23,9l-45,23l-68,33l-25,6l-78,23l-27,10l-52,34l-11,-6l-47,25l-22,10l-44,24l-20,-7l-42,6l-31,9l-24,11l-49,34l-65,63l-24,26l-20,27l-23,34l-29,26l-31,17l-14,3l-76,-17l-31,-16l-23,-28l-18,-11l-2,-13l-36,-23l-18,-16l-3,-16l-30,-12l-40,-7h-31l-57,10l-1,-18l-22,-11l-24,-2h-26l-40,7l-68,9l-49,14l-31,13l-43,22l-143,86l-15,7l-35,4l-42,17l-57,37l-78,58l-222,190l-103,88l-38,35l-130,128l-80,86l-33,34l-76,84l-47,56l-67,85l-26,30l-30,30l-20,9l-12,-3l-26,20l-39,37l-50,35l-13,12l-34,24l-52,40l-36,35l-74,97l-53,80l-32,56l-80,159l-42,92l-24,67l-22,53l-25,79l-25,64l-20,28l-29,30l-9,7l-19,24l-30,13l-25,3l-10,-7l-11,9l-1,16l13,17l17,54l-7,31l-9,23l-3,36l4,5l-5,26l-12,38l-7,7l-25,-9l-29,-6l-43,15l-18,-8l-18,6l-44,24l-20,13l-26,10l-37,18l-10,-9l1,-13l-36,-26l-33,3l-19,8l-20,-5l-39,12l-47,25l-58,38l-10,4l-67,42l-9,9l-52,34l-17,17l-50,19l-15,-1l-5,-26l6,-17l16,-14l39,-13l28,-20l27,3l27,-4l24,-22l10,-23l12,-15l18,-10l64,-28l13,-14l-1,-20l-13,-9l-14,3l-18,12l-18,-9l-2,-42l-7,-8l-19,-1l-30,28l-45,19l-19,4l-15,-2l-26,-20l-18,-35l-21,2l-30,-4l-7,9l12,29l14,10l-2,15l-16,2l-71,-13l-11,-8l-14,1l-12,18l-11,4l-22,-11l-30,2l-18,-4l-15,-12l-16,-3l-7,6l-14,22l-29,11l-15,-9l30,-16l0,-13l-27,-6l-6,-15l30,-7l12,-8l6,-13l-7,-7l-29,-20l-16,5l-4,17l-10,8l-13,-5l-5,-24l-16,-15l-14,17l-12,-3l-20,-23l-7,2l-14,18l35,27l4,16l-7,14l-22,-9l-10,-23l-19,19h-28l-7,-49l-14,3l-22,11l-8,13l12,21l-11,7l-16,-13l-17,4l8,-26l-4,-15l-31,-23l-23,-1l-7,21l-15,2l-15,46l20,29l-40,33l-23,11l-75,3l-35,-10l-72,30l-98,-22l-24,4l-71,-46l10,-45l14,-37l-24,-35l-32,-33l-37,-21l-33,-11l-70,-17l-37,-27l-50,-60l21,-73l26,-63l16,-50l20,-21l26,-22l-8,-65l-7,-28l33,-23l11,-35l12,-14l17,3l19,20l14,3l10,-10l9,-65l7,-32l-5,-32l-23,-46l-32,-11l-7,-20l6,-19l8,-1l3,-16l-12,-2l-15,-17l-8,-1l-18,-18l-2,-21l-9,-19l11,-8l8,-18l-3,-15l4,-18l-36,-21l-13,-29l-4,-26l-6,-6l4,-17l-2,-12l15,-29l34,-7l-4,-25l12,-6l-3,-44l1,-21l-14,-9l-33,-2l-15,-20l-20,3l-15,-18l-20,10l-22,-33l-34,-20l-28,-45l20,-8l-8,-22l-16,-12l14,-45l0,-16l-10,-2l0,-20l-7,-20l-16,-10l-19,-1l-10,8l-39,-10l-5,-14l9,-4l-9,-20l10,-15l21,-21l3,-19l11,-43l15,-7l20,-30l6,-34l-17,-5l-3,-8l-16,-17l15,-10l-13,-10l-2,-13l-14,-1l-18,-13l-17,-20l-35,1l-8,-15l-30,-25l-10,-2l5,-16l-31,-5l-17,5l4,22l-30,-3l-7,22l-41,8l-13,-10l-25,4l-35,-4l2,-18l-21,-32l-12,5l-8,-13l-32,6l-22,8l-12,19l-19,9l-22,-2l-26,19l-9,27l-43,11l-16,-6l-22,10h-20l-13,-12l-15,-4l-9,-12l-16,-5l-11,-14l-24,-3l-31,5l-12,13l-37,12l-10,-19l-24,-6l-29,4h-30l-30,13l-23,23l-38,24l-27,-10l-33,-35l-31,-10l-84,-34l-89,-99l2,-27l26,-35l8,-27l-2,-10l-13,-9l-33,-5l-52,1l-24,-2l-14,6l-14,-1l-22,-25l-20,10l-15,-3l-22,5l-22,14l-52,-12l-47,17l-16,-1l-46,25l-42,-5l-45,-35l-18,-11l-30,7l-16,-7l-38,-3l-80,-16l-14,4l-60,-18l-49,65l-116,115l-129,128l-31,17l-146,84l-20,20l-20,39l-17,17l-427,232l-100,44l-69,44l-77,41l-21,17l-9,34l-8,14l-29,23l-27,10l-117,92l-10,3l-167,34l-81,31l-98,71l-11,16l-4,21l-16,6l1,-48l-8,-23l-18,-16l-39,-17l-19,-14l-21,-7l-29,-17l-22,-6l-14,-20l-30,-10l-5,-19l4,-22l5,-57l28,3l27,-5l29,-16l15,-3l4,-15l14,-21l25,-24l1,-11l-8,-22l8,-9l21,-2l2,-22l-22,-34l-16,-17l-1,-52l10,-22l-16,-33l15,-8l-12,-26l-19,-19l-1,-21l7,-41l11,-20l-1,-15l6,-22l-10,-6l-31,-4l-17,2l-30,-5l-30,-9l-25,-2l-30,2l-25,-8l-2,-7l37,-25l-7,-26l-18,-7l-29,11l-12,9l-18,-15l9,-25l-14,-25l-28,-7l-18,3l-11,-11l-15,-25l-39,-11l-28,-15l-4,-13l12,-26l7,-10l4,-43l-15,-16l-38,-16l-12,-10l-15,-30l-27,-5l-19,-11l-8,-18l-15,-14l-19,-9l-2,-16l18,-17l1,-25l-9,-10h-15l-32,-25l-23,-12l-8,-18l-37,-52l-8,-20l-22,-2l-7,7l-33,-24l-14,1l-23,-7l-17,-11l3,-12l-9,-6l-16,1l-12,-13l-7,-24l8,-29l-11,-7l-28,-2l-12,-15l-36,-7l-29,7l-17,14l-14,1l-16,23l-7,26l-21,11l-10,-2l-18,-16l-13,-4l-24,-23l-20,4l-41,-6l-12,-5l-8,8l-23,-4l-13,-7l-35,8l-29,-8l-59,-9l-16,-13l-26,-12l-18,-13l-18,-24l-2,-26l-15,-23l-11,-4l-40,-2l-24,-19l-14,-25l-9,-35l-14,-14l-56,-20l-16,-20l-13,-9l-9,-31l17,-47l-14,-15l4,-31l-7,-26l-18,-22l8,-8l4,-18l-6,-8l-24,5l2,-21l-15,-37l4,-13l12,-17l4,-20l-5,-15l14,-14l-1,-17l6,-17l11,-5l2,-19l11,-27l-1,-10l22,-19l3,-25l14,-15l15,-7l11,-13l10,-1l5,-28l6,-11l-3,-16l-21,-33l-17,1l-10,-6l-21,-25l3,-11l-4,-17l-16,-13l8,-11l-13,-6l-13,-12l-1,-11l-15,-7l-31,-28l2,-12l-29,-15l1,-12l-16,4l-15,-4l-13,-10l-19,11l-14,-2l-30,10l-23,-11l-5,8l-23,-13l-12,-11h-27l-8,-5l-33,-10l-28,-20l-5,-7l-21,-1l-17,-25l-10,-5l-10,8l-20,-5l-3,-14l-22,-5l-12,-19l-33,-27l6,-34l14,-10l14,-3l13,-24l-3,-11l-22,-27l-5,-16l-11,5l-6,-11l17,-13l9,-26l-11,-28l-16,-15l11,-8l-8,-22l10,-10l-16,-22l-14,5l-7,-11l9,-12l3,-13l-19,-19l-8,-16l-12,-2l-1,-13l-11,-6l-8,-17l-9,-3l-11,-22l-11,-8l-15,-1l-16,7l-10,11l-15,-5l-19,4l-5,-16l14,-39l-33,-19l-22,-5l10,-11l3,-19l-17,-12l-4,-16l-19,-2l-22,-17l-7,-26l-25,-18l-11,-1l-11,-12l10,-14l-7,-27l-21,-15l-11,-13l-25,4l-24,-2l-14,6l-3,-12l-16,-12h-24l-50,-36l-22,-19l-3,-11h-14l-23,-6l-15,-16l-31,-17l-4,10l-14,-7l-15,6l-23,1l-16,-5l-10,3l-16,-11l8,-16l-8,-16l-23,-4l-15,-15l-18,-8l-12,-13l-12,-33l-5,-28h-17l-19,-5l-2,-7l-18,-7l-15,-26l10,-24l-3,-17l13,-13l2,-14l28,-15l22,-21l11,-20l2,-16l10,-20l10,-30l17,-6h18l15,-16l7,-21l23,1l20,-21l7,-12l-5,-18l-11,-9l-20,-26l-5,-18l7,-11l21,-14l5,-25l9,-17l14,-3l6,-21l10,-1l20,-31l9,-6l5,-19l-11,-28l15,-10l13,-25l-7,-7l0,-17l-5,-10l-64,-57l-23,-13l-6,-18l4,-13l-9,-5l-3,-16l14,-27l8,-44l14,-40l-2,-13l-11,-17l4,-38l15,-16l27,-21l-5,-16l-12,-4l-6,-15l-16,-2l-9,-15l-4,-115l-4,-19l-31,-17l-18,-3l-14,-8l-32,-48l-32,-28l-5,-8l1,-44l-8,-13l-46,-16h-32l-20,-5l-55,-46l-11,-19l6,-37l-2,-18l-15,-29l2,-27l17,-16l5,-32l1,-30l-4,-40l-33,-90l-37,-113l13,-26l-26,-21l-9,-16l69,-27l52,40l21,9l8,9l15,1l18,43l17,4l27,15l3,-12l21,-8l16,20l39,-21l2,-12l33,-7l37,-15l27,-3l17,-18l13,-2l27,6l15,-2l23,8l25,-18l7,-13l20,4l6,-31l27,-13l15,-23l0,-10l13,-13l-8,-17l3,-11l-20,-9l-8,-11l18,-17l-6,-24l-11,-7l12,-31l-27,-18l-2,-17l27,-10l12,-12l-26,-12l3,-16l18,-8l10,10l22,-2l3,-11l-11,-15l-1,-17l13,-17l29,-2l-3,-13l-22,-21l16,-14l4,-27l6,-14l-13,-13l11,-14l14,-1l25,-11l-10,-10l0,-13l-7,-8l6,-13l-3,-19l19,-21l-5,-9l-16,-2l-4,-12l-13,-8l10,-19l-1,-15l6,-26l9,-13l12,-3l10,-24l-10,-15l0,-18l-12,-7l0,-26l6,-20l-1,-14l7,-11l-2,-18l12,-4l6,-27l11,-9l12,5l14,-10l2,-20l-10,-8l6,-17l-17,-20l-3,-11l-649,-768h-144l-165,263l-5,-6l-37,-8l-41,12l-3,12l-19,8l-45,8l-8,-7l-16,1l-10,-6l-40,-3l-16,4l-10,12l-21,7l-8,-12l-15,-6l-65,-2l-29,-10l-16,4h-26l-5,6l-24,-11l-15,1l-20,-11l-28,6l-33,13l-47,-22l-40,-8l-32,-16l-23,-20l-4,-12l-13,-5l-5,-10l-19,-17l-11,-22l-38,-7l-26,-11h-22l-46,-5l-30,-31l-9,-4l-7,-13l-26,4l-38,-14l-20,-3l-13,-15l-21,-40l-21,-16l-11,-18l-12,-37l-14,-23l-11,-5l-9,-15l-2,-18l-12,-23l-29,-29l-7,-21l-8,1l-12,-13l-7,-30l8,-8l-10,-24l-21,-16l0,-11l-18,-20l-2,-13l-15,-16l-19,-37l-19,-23l-15,-10l-21,-33l5,-16l-15,-22l-11,-47l-9,-20l-12,-8l-11,-23l-33,-30l-29,-1l-52,-11l-8,-24l-29,-28l-9,-2l-32,-24l1,-7l-18,-10l-11,-21l-24,-18l-13,-2l-20,-13l-28,-25l-21,-8l-31,-5l-7,-9l-54,1l-9,3l-67,2l-28,-8l-28,-20l-6,-13l-29,-13l-11,-12l-11,-3l-25,-18l-43,-20l-14,-1l-28,-33l1,-37l-24,-3l-4,-10l-19,-6l2,-44l-8,-47l-3,-44l4,-23l-5,-31l3,-30l-6,-42l2,-31l5,-23l-1,-20l8,-15l-13,-40l-2,-17l7,-41l-5,-13l-2,-42l2,-27l12,-24l-2,-22l4,-24l-4,-22l5,-26l11,-17l5,-43l-6,-35l-14,-6l-25,-34l-2,-38l11,-5l10,5l18,-10l1,-53l18,-16l-5,-27l-15,-17l-5,-33l10,-15l0,-12l-13,-29l-1,-13l18,-15l12,3l27,24l18,-1l21,-32l25,-18l13,-45l-4,-19l-1,-28l28,-24l4,-25l-22,4l-1,-19l-19,-22l21,-9l10,-18l-12,-40l31,-67l22,-10l2,-60l-4,-84l-26,-555l-26,-555l284,-604l529,-913l230,-397l1,-20l-9,-13l-11,-34l-14,-19l-16,-9l-40,-8l-50,-40l-51,-30l-8,-2l-23,5l-13,-8l-4,-22l-8,-14l-28,-9l-48,-38l-3,-15l-9,-11l1,-14l18,-18l27,2l6,-14l-29,-15l-8,1l-10,14l-18,-6l-4,-43l5,-14l-5,-23l-18,1l0,-13l19,-12l-1,-22l-21,-13l-25,-23l-28,-10l-30,-4l-16,-6l-17,7l-9,-4l-6,-30l-17,-18l4,-31l-9,-11l-26,-5l-3,-9l-21,-16l2,-28l9,-20l-32,6l-22,-19l-4,-18l-20,-11h-13l-13,10l-10,24l-9,-1l-20,-28h-22l-31,-11l-8,-16l21,-17l5,-29l30,-2l5,-32l-14,-8l-14,3l-28,-12l-2,-9l16,-14l6,-10l-15,-32l-21,-1l0,-15l8,-29l-25,-19l-1,-25l-349,-628l-8,-19l-8,-3l-37,1l-12,-5l-38,8l-10,31l-25,6l-9,-6l3,-33l4,-12l-17,-22l-17,-2l-13,-14l31,-29l0,-22l11,-26l-7,-12h-25l-7,-11l-22,-8l-19,-2l-12,-9l-16,3l-13,11l-11,-9l-13,-20l4,-23l12,-16l11,-1l9,-11l-9,-14l-2,-22l-9,-22l4,-19l10,-23l-9,-19l-29,1l-3,-13l-35,7l-5,-19l6,-9l-12,-32l0,-9l25,-42l-10,-7l-5,-17l22,-30l10,-1l16,12l11,-20l-2,-13l-15,-20l-4,-21l-8,-8l-5,-21h-9l-14,-19l6,-9l-11,-10h-26l-24,22l-23,-10l3,-10l-15,-25l-8,-21l6,-17l5,-25l-5,-15l-11,-11l-13,-95l1,-18l23,-8l16,-27l1,-55l-10,-12l-2,-16l5,-13l-12,-6l-35,-1l-4,-7l-7,-61l-2,-32l-9,-22l4,-10l-7,-15l-3,-34l-6,-10l3,-22l-4,-12l-17,-2l-16,-16l-17,-47l1,-18l6,-12l18,-6l-16,-64l-8,-43l-9,-26l-9,-38l16,-4l20,3l19,71l9,18l16,23l18,3l17,-7l41,9l7,6l21,42l55,32l17,26l11,5l15,-6l42,-10l27,24l11,2l39,-3l40,-10l42,-5l16,-18l13,-5l31,10l30,-31l34,-5l27,-15l17,6l35,7l7,-27l-6,-29l3,-10l-4,-79l0,-80l5,-19l2,-56l10,-59l1,-46l14,-79l8,-29l21,-39l45,-18h26l24,-6l25,-22h36l20,9l14,-4l4,-20l32,-5l18,1l9,12l11,35l29,30l18,1l37,-5l5,9l25,7l1,22l5,12l16,10l16,-8l12,7l20,-10l17,3l3,-20l26,-5l24,16l-2,32l-13,8l27,14l20,-11l7,-18l19,-18l16,-3l4,16l13,11l4,14l-6,13l24,9l12,-13l20,-9l1,22l10,32l26,-15l15,1l20,31l21,-5l21,2l25,7l9,-9l-4,-14l8,-24l-8,-15l0,-63l14,-4l14,11l22,-2l30,8l13,13l32,11l14,40l26,-8l2,23l10,3l12,30l-2,11l12,11l25,-11l29,18l36,-2l22,6l41,18l3,38l29,10l20,-12l7,-10l-9,-20l8,-5l27,1l22,-7l7,-9l24,-7l36,-27l28,-2l16,20l4,20l29,34l19,7l1,16l15,17l21,12l7,-12l12,-8l14,7l69,17l2,-17l-12,-7l1,-14l13,-10l32,-17l19,10l26,-9l14,-15l7,-41l10,-9l23,10l28,6l5,14l41,-6l15,7l8,20l20,23l14,3l38,22l11,15l20,33l22,15l-7,-42l-9,-15l-18,-59l-29,-38l-36,-9l-13,-10l6,-11l-3,-12l-17,-2l-6,-15l7,-15l-1,-24l-7,-23l2,-18l-6,-42l-23,-64l-47,-21l-19,-1l-9,-5l-21,-23l-7,-39l4,-5l0,-42l-9,-20l-1,-15l6,-80l-1,-25l11,-11l5,-32l13,-11l3,-43l14,-24l21,-6l-2,-15l7,-5l14,-26l11,-4l-11,-16l5,-19l-17,-5l0,-9l10,-21l17,-11l8,7l28,8l16,-10l44,-7l16,-19l5,-17l27,2l17,-7l10,-11l56,-2l12,-4l33,10l20,-7l8,2l39,-6l15,-16l32,-15l-3,-14l15,-6l21,5l18,11l13,-2l12,13l-1,41l20,9l5,10l18,19l10,-9l18,5l16,14l13,4l4,38l72,14l4,28l8,17l27,-12l17,5l1,47l15,11l17,-8l26,9l25,-6l11,12l12,32l13,11l18,4l16,-1l32,6l36,3l15,16l-5,19l8,14l38,7l25,2l27,19l35,-4l20,8l-1,14l23,-12l25,5l11,-3l3,-14l11,-6l1,-12l40,-7l25,4l10,-23l22,-15l2,-21l7,-11l-1,-22l-14,-24l7,-9l14,-6l18,-21l22,-1l9,-5l12,-50l10,-22l16,-8l28,-36h12l16,-9l30,-29l22,-12l38,-4h23l22,-5l2,-11l-9,-11l2,-19l11,-7l-7,-13l13,-29l-7,-4l20,-28l7,-22l13,-9l16,-1l6,-9l1,-20l19,-30l21,-18l8,5l19,-11l16,7l21,-14l8,-20l19,-4l41,21l17,3l10,12l17,9l31,-1l44,9l88,41l27,9l11,-3l29,13l-96,93l2,30l13,26l-5,38l3,24l21,25l0,25l-13,35l53,11l34,14l62,-12l34,5l58,-6l18,13l-5,29l-2,42l12,41l34,33l38,13l13,17l16,38l36,44l90,58l26,24l19,32l15,41l-7,22l-25,9l-11,22l18,11l2,22l10,27l0,24l8,12l11,5l10,14l5,32l16,25l24,58l39,91l30,34l14,9l43,13h19l3,30l10,10l49,4l32,30l13,24l-25,16l-3,15l1,30l-23,13l-15,42l16,-2l22,8l36,30l26,33l26,-5l16,8l24,34l26,12l-1,25l8,16l14,8l18,19l27,10l17,21l23,7l14,9l29,37l11,-10l15,3l7,9l51,8l11,6l14,27l8,5l65,-19l27,4l19,17l25,-9l23,-1l26,20l12,-12l-20,-56l-17,-33l-2,-23l15,-15l44,2l14,-8l-14,-55l0,-10l17,-42l11,-19l21,-2l6,-15l18,-22l47,-43l26,-9l21,9l21,19l51,-7l13,9l2,24l40,-1l30,25l1,37l-10,70l2,17l13,10l14,-8l9,-19l29,-21l8,-11l12,-45l3,-9l25,-18l44,23l15,-5h38l72,16l11,-6l30,-43l56,-25l37,-26l27,5l34,54l41,30l35,13l20,36l18,11l36,12l46,-5l38,14l14,13l7,29l5,20l19,-1l25,12l12,29l5,26l18,4l15,26l13,1l23,-7l22,10l-16,24l6,17l46,29l30,37l0,36l-6,20l3,23l17,21l-12,61l0,53l17,76l-20,22l5,17l28,48l41,34l8,25l231,201l34,24l7,11l28,16l27,30l33,48l25,22l40,22l35,7l61,18l28,23l60,71l28,-7l32,-26l22,1l14,7l29,30l63,32l10,11l7,18l1,30l-5,17l-19,68l7,32l15,22l39,21l12,7l114,77l21,24l7,49l-2,30l6,28l9,15l31,24l119,76l27,40l24,59l20,234l42,103l1,49l-8,28l-18,42l-3,12l2,21l23,16l7,18l8,56l7,15l139,178l129,114l114,120l27,32l54,94l23,33l43,31l17,34l12,38l2,38l9,29l23,32l41,32l14,20l28,69l-1,26l-36,20l-69,-14l-43,45l-16,3l-50,-5l-48,18l-20,1l-50,-20l-46,-38l-24,-12l-10,5l-8,19l-11,79l4,54l69,164l-17,141l4,69l13,50l8,23l27,40l35,30l82,44l33,24l109,102l42,21l29,7l96,38l24,23l24,45l38,94Z"
     transform="matrix(9.9999992e-5,0,0,-9.9999992e-5,-1.4338888e-7,0)" />
  <path
     id="2306"
     d="M-399094,-67635l306,-39l250,-120l432,-158l198,-71l494,-32l-5,32l7,26l25,17l12,2l11,15l17,-1l2,22l13,3l15,-15l10,24l13,-1l24,24l21,-3l4,15l11,5l7,34l5,5l26,-9l23,-2l14,4l30,1l21,-2l22,6l22,-30l-14,-24l12,-12l23,-6l47,-18l20,-14l16,-2l-3,-19l-32,-12l-15,-19l18,-34l21,-14l9,-17l8,-64l0,-18l22,-11l8,-33l-1,-30l10,-15l0,-17l-9,-20l4,-20l13,-9l10,7l20,-3l43,12l14,10l10,1l27,21l9,14l14,2l9,-5l1,-19l17,9l36,1l31,11l17,-4l51,25l0,12l10,13l17,6l40,-9l-103,271l23,9l29,20l20,-5l-1,-15l-10,-40l9,-15l55,-35l21,6l40,24l25,23l28,12l23,-8l27,39l3,16l18,8l31,-22l12,-17l17,-6l-1,-15l29,-5l27,10l13,30l38,37l593,119l18,20l45,-30l18,19l15,54l29,22l290,-79l17,-7h29l-18,-51l6,-35l15,-13l9,-29l1,-23l-19,-70l-32,-62l3,-25l-30,-26l10,-11l15,-4l19,-16l21,-35l26,2l13,-55l-6,-20l7,-44l16,-41l20,-25l27,-16l-2,-29l-23,-41l42,-9l34,-22l14,1l17,16l15,23l51,42l11,5l11,-21l19,-53l28,-13l3,-51l-6,-27l21,-16l5,-9l-5,-12l0,-20l7,-11l22,-20l6,-15l-11,-26l-11,-10l-32,-1l-17,-33l-55,-43l1,-13l15,-34l8,-12l18,-4l30,-18l7,-14l-7,-15l1,-12l8,-10l-15,-26l-17,-36l-24,-25l645,29l237,-273l38,2l23,-4l29,2l25,4l36,19l19,25l33,18l34,2l19,-2l17,-8l20,-2l22,4l73,22l17,19l35,17l38,12l38,25l18,9l28,2l725,241h286l48,6l31,-4l24,8l20,11l17,2l10,10l34,16l21,6l22,-4l27,-9l26,8l27,-6l8,5l17,27l23,7l23,14l18,25l29,34l16,3l16,13l31,11l31,-3l193,-422l-1,-299l506,-70l90,-207l25,7l24,18l8,12l8,63l30,33l17,26l31,39l25,8l12,24l22,32l-7,13h-29l-4,7l43,41l30,7l44,-9l43,18l18,-7l15,2l-21,18l-10,16l40,29l25,13l10,16l-15,18l-16,10l11,8l46,10l37,48l38,8l83,25l37,-2l22,22l-16,42l10,18l72,25l135,18l18,6l-5,38l3,13l22,26l10,27l27,37l-2,28l9,10l25,5l54,31l59,-2l17,2l33,29l69,23l105,1l-24,35l-1,23l17,14l38,-4l21,-16h25l16,13h42l41,-8l52,-16l24,-22l25,-7l62,9l28,10l33,24l73,21l108,-3l22,6l68,9l202,25l79,5l57,-6l25,-12l33,-12l43,-9l18,6l27,36l19,-2l50,-24l85,-12l42,4l37,13l51,11h50l98,7l9,-8l26,-59l33,-15l186,15l83,3l65,-43l22,2l31,-12l-2,-39l8,-43l-22,-80l-25,-18l-54,-20l-14,-23l-10,-40l29,-20l-15,-83l5,-5l56,-17l17,-2l19,17l68,-18l32,-30l-2,-4l10,16l57,35l22,22l49,18l35,-2l37,21l17,2l13,9l27,-3l34,15l48,8l5,22l-16,18l-10,24l0,12l27,19l10,-1l32,-13h12l21,12h18l64,14l5,8l-4,28l-20,32l17,25l38,21l13,3l19,-5l28,-16l20,-4l20,3l56,20l41,32l26,42l14,14l30,13l42,-3l41,30l2,18l-18,40l-2,17l12,29l43,43l22,23l6,18l-8,15l-14,10l-10,32l-8,12l5,9l21,17l24,55l20,15l41,41l33,44l11,-3l13,11l-4,13l23,19l23,23l23,13l13,-3l12,11l1,23l10,5l12,-6l19,2l8,20l13,14l12,-12l20,-3l15,9l5,38l-3,9l-14,8l3,18l-21,42l11,13l25,5l55,-1l31,4l51,-16l32,-17l17,8l5,34l14,28l11,47l-62,19l-34,1l-27,18l-28,9l-14,14l-42,64l-42,9l-7,10l1,21l-9,19l-21,5l-49,3l-33,13l-21,21l3,27l5,16l10,9l9,24l-14,8l-11,38l-30,18l-20,50l3,13l-6,23l5,13l3,28l12,22l-2,7l-24,16l-13,25l-28,15l-16,-2l-8,7l-6,30l-8,13l-2,28l-28,22l-5,26l-36,26l-3,16l12,18l25,37l-31,19l-1,34l10,17l27,30l14,39l31,46l0,29l5,9l31,8l8,6l-18,36l9,13l21,-1l38,17l27,-10l9,1l56,108l4,21l-10,61l-14,19l-10,3l-25,42l-14,40l-38,15l3,57l15,61l21,12l23,23l18,-6l15,48l9,68l19,4l60,28l67,48l29,34l-5,66l-14,43l-18,38l-26,26l-75,52l1,9l18,25l24,20l56,75l7,27l-2,41l6,7l31,8l17,11l15,18l0,18l-12,15l3,17l47,39l48,72l49,36l38,64l13,24l-23,-23l-11,-5l-14,15l-16,12l-19,7l-7,8l5,48l25,31l1,55l7,15l39,28l20,32l45,15l33,19l36,34l127,150l37,41l28,33l54,78l10,62l-11,58l7,33l28,28l106,45l6,25l-2,33l6,43l11,47l26,26l47,32l44,42l42,15l22,14l22,22l40,55l55,51l10,-1l37,-21l19,6l0,19l-10,11l-59,45l3,51l-18,14l-31,18l-14,-2l-14,-12l-13,-33l-28,-14l-18,-3l-46,-27l-21,-3l-39,34l-28,7l-35,-20l-38,-1l-56,6l-10,-4l-37,-28l-29,-12l-57,12l-33,11l-14,15l13,27l-4,9l-21,3l-36,21l-39,-22l-30,-4l-77,52l-2,21l13,16l18,8l40,6l17,52l7,32l43,22l31,-2l12,18l9,4l34,-3l35,-11l30,5l9,17l-6,20l-31,34l-12,36l10,15l21,8l48,-2l18,6l7,44l42,14l-7,30l-12,9l-37,16l-62,16l-28,12l-18,58l-8,65l-18,41l8,56l-14,61l8,31l26,14l20,43l14,19l39,26l47,16l7,18l-6,18l-29,3l-11,17l6,44l-4,14l-6,19l-5,67l-16,6l-29,3l-11,19l-24,20l4,5l29,8l9,5l26,37l30,26l47,30l52,13l54,38l-4,19l5,18l24,5l18,19l16,66l26,53l12,-2l18,-11l20,5l24,-7l27,15l42,39l33,23l1,25l35,38l13,46l37,53l-29,-13l-11,3l-27,-9l-88,-41l-44,-9l-31,1l-17,-9l-10,-12l-17,-3l-41,-21l-19,4l-8,20l-21,14l-16,-7l-19,11l-8,-5l-21,18l-19,30l-1,20l-6,9l-16,1l-13,9l-7,22l-20,28l7,4l-13,29l7,13l-11,7l-2,19l9,11l-2,11l-22,5h-23l-38,4l-22,12l-30,29l-16,9h-12l-28,36l-16,8l-10,22l-12,50l-9,5l-22,1l-18,21l-14,6l-7,9l14,24l1,22l-7,11l-2,21l-22,15l-10,23l-25,-4l-40,7l-1,12l-11,6l-3,14l-11,3l-25,-5l-23,12l1,-14l-20,-8l-35,4l-27,-19l-25,-2l-38,-7l-8,-14l5,-19l-15,-16l-36,-3l-32,-6l-16,1l-18,-4l-13,-11l-12,-32l-11,-12l-25,6l-26,-9l-17,8l-15,-11l-1,-47l-17,-5l-27,12l-8,-17l-4,-28l-72,-14l-4,-38l-13,-4l-16,-14l-18,-5l-10,9l-18,-19l-5,-10l-20,-9l1,-41l-12,-13l-13,2l-18,-11l-21,-5l-15,6l3,14l-32,15l-15,16l-39,6l-8,-2l-20,7l-33,-10l-12,4l-56,2l-10,11l-17,7l-27,-2l-5,17l-16,19l-44,7l-16,10l-28,-8l-8,-7l-17,11l-10,21l0,9l17,5l-5,19l11,16l-11,4l-14,26l-7,5l2,15l-21,6l-14,24l-3,43l-13,11l-5,32l-11,11l1,25l-6,80l1,15l9,20l0,42l-4,5l7,39l21,23l9,5l19,1l47,21l23,64l6,42l-2,18l7,23l1,24l-7,15l6,15l17,2l3,12l-6,11l13,10l36,9l29,38l18,59l9,15l7,42l-22,-15l-20,-33l-11,-15l-38,-22l-14,-3l-20,-23l-8,-20l-15,-7l-41,6l-5,-14l-28,-6l-23,-10l-10,9l-7,41l-14,15l-26,9l-19,-10l-32,17l-13,10l-1,14l12,7l-2,17l-69,-17l-14,-7l-12,8l-7,12l-21,-12l-15,-17l-1,-16l-19,-7l-29,-34l-4,-20l-16,-20l-28,2l-36,27l-24,7l-7,9l-22,7l-27,-1l-8,5l9,20l-7,10l-20,12l-29,-10l-3,-38l-41,-18l-22,-6l-36,2l-29,-18l-25,11l-12,-11l2,-11l-12,-30l-10,-3l-2,-23l-26,8l-14,-40l-32,-11l-13,-13l-30,-8l-22,2l-14,-11l-14,4l0,63l8,15l-8,24l4,14l-9,9l-25,-7l-21,-2l-21,5l-20,-31l-15,-1l-26,15l-10,-32l-1,-22l-20,9l-12,13l-24,-9l6,-13l-4,-14l-13,-11l-4,-16l-16,3l-19,18l-7,18l-20,11l-27,-14l13,-8l2,-32l-24,-16l-26,5l-3,20l-17,-3l-20,10l-12,-7l-16,8l-16,-10l-5,-12l-1,-22l-25,-7l-5,-9l-37,5l-18,-1l-29,-30l-11,-35l-9,-12l-18,-1l-32,5l-4,20l-14,4l-20,-9h-36l-25,22l-24,6h-26l-45,18l-21,39l-8,29l-14,79l-1,46l-10,59l-2,56l-5,19l0,80l4,79l-3,10l6,29l-7,27l-35,-7l-17,-6l-27,15l-34,5l-30,31l-31,-10l-13,5l-16,18l-42,5l-40,10l-39,3l-11,-2l-27,-24l-42,10l-15,6l-11,-5l-17,-26l-55,-32l-21,-42l-7,-6l-41,-9l-17,7l-18,-3l-16,-23l-9,-18l-19,-71l-20,-3l-16,4l-37,11l-9,22l28,71l-6,11l-45,17l-6,10l-20,97l-22,-4l-10,4l-9,25l31,55l14,18l-3,15l-11,24l11,4l-5,15l8,13l-15,3l4,27l6,15l7,51l3,41h15l-5,19l-12,17l-10,111l-9,15l3,36l-32,33l-18,25l-4,26l-14,-14l-15,-2l-33,9l-33,15l-45,3l-8,6l-12,43l-16,43l-13,27l-24,15l-15,1l-17,8l-21,-5l-26,-51l-4,-36l1,-47l-12,-14l-19,10l-28,50l-11,5l-16,-3l-97,-59l-23,-31l-36,-16l-51,-10l-14,-130l-18,-42l2,-8l-34,-45h-5l-26,28l-34,-2l-34,-11l-30,-38l-38,-14l-14,-38l1,-48l-3,-15l-34,-40l-30,-20l-12,-21l5,-50l-5,-21l-14,-15l-55,-39l-15,-17l5,-27l14,-4l-4,-26l-1,-40l-181,-185l-336,-422l-453,100l-727,160l-480,-462l-491,-511l-10,16l-34,25l-22,-4l-18,8l-21,1l1,15l-15,29l-16,-2l-7,-16l-17,-5l-8,5l0,18h-14l-24,-13l-33,-12l0,-13h-14l-15,9h-19l-17,-24h-35l-158,-122l-16,-19l-31,-31l-9,-13l-5,-26l-16,-14l-17,-1l-13,-11l0,-25l-6,-24l12,-24l16,-14l-1,-22l7,-16l-3,-10l-15,-5l-11,-13l-467,-194l44,-444l-16,-9l-14,-1l-24,7l-27,19l-9,-9l-5,-17l10,-45l-4,-12l-13,-18l-33,-23l-12,-18l-17,3l-24,14l-8,10l-34,2l-7,6l4,23l-9,13l-28,12l-15,3l-12,24l-13,7l-12,-5l-12,-32l-22,-27l-17,6l-11,25l-10,-2l4,-15l-9,-10l-8,-25l-19,-10l-44,27l-11,21l-9,1l-22,-12l-7,-22l-23,-17l-24,17l-9,-2l-6,-15l-2,-26l-7,-4l-43,-10l-13,4l6,16l-12,16l-2,13l-14,12l-20,8l9,10l34,22l5,23h-39l-22,10l-17,17l-28,-6l-24,19l-35,11l-7,20l-18,-4l-18,-21l-15,4l-24,-5l-27,-11l-20,-22l-21,-31l-18,-16l-15,-6l-18,-16l-13,16l-2,14l-18,17l-29,9l-7,18l-16,1l-11,10l-23,33l2,16l-17,6l-6,11l-28,15l-9,17l-12,11l-22,-25l-20,12l-14,-7l-16,33l-14,4l-17,-5l-8,24l7,18l-18,1l-7,-13l-21,-6l-12,-23l-21,-10l9,-22l-25,-15l-8,-13h-15l-26,-18l-18,1l-1,-19l-5,-8l-19,-4l-17,17l-9,-12l-23,-4l-1,-8l-16,-14l-16,-6l-14,2l-6,17l13,27l-20,-6l-30,13l-38,11l-12,-20l-14,-13l-10,8l-31,-14l-33,-25l-12,-2l-27,-18l-4,-14l-12,-9h-13l-27,-18l-5,-9l-15,4l-18,-32l-29,-21h-35l-31,12l-24,6l-33,-5l-47,-3l-39,35h-12l-48,-37l-14,-7l-9,5l-20,37h-25l-31,37l-18,-19l-22,2l-72,28l-27,-25l-17,-36l-15,-25l-30,-35l-26,-25l-9,-20l-21,-25l-13,-41l-3,-26l24,-22l0,-14l-12,-16l-28,5l-20,-8l-26,-33l-14,-27l-18,-10l-17,-4l-3,-11l4,-24l-6,-5l-28,-5l-21,8l-13,-2l-5,-24l-24,-3l-26,-12l-9,-18l-3,-49l-18,-33l-9,-12l-50,-9l-24,-19l-16,-23l-7,-16l-23,-23l-15,-30l-14,-15l-11,-4l-39,-3l-36,-19l-53,-40l-7,-16l-32,-31l-5,-36l27,-39l-12,-34l11,-42l-18,-24l-1,-14l8,-14l21,-23l34,-48l35,-31l10,-15l-4,-29l-22,-20l-20,-23l-10,-30l0,-24l-8,-36l-4,-7l10,-19l0,-11l14,-23l11,-31l16,-19l11,-4l18,3l38,-18l11,-27l7,-8h39l21,-2l10,-8l1,-16l26,5l24,-10l4,-28l5,-6l33,-9l16,5l18,-8l0,-20l27,-33l26,-10l9,5l16,-14l26,-14l18,-21l0,-16l15,-10l-52,-24l-71,-37l-59,-25l-20,-12l-33,-30l-26,-32l18,-34l-14,-13l3,-17l-2,-21l24,-20h15l12,-6l4,-23l19,-40l9,-7l13,12l13,-10l-1,-28l17,-28l9,-7l16,1l3,-14l23,3l24,-2l25,-8l-9,-19l0,-29l-34,-15l-23,-21l-18,-11l-12,-18l-9,-24l-9,-64l-21,-32l-21,-13l-29,-5l-22,-1l-13,-12l-8,-43l-23,-60l-2,-12l12,-27l6,-23l-29,-17l-33,1l-19,12l-14,-1l-28,-9l-15,-10l-52,-22l1,-18l29,-20l33,-8l17,-29l-11,-31l-23,-38l-70,-60l-11,-8l2,-15l20,-10l7,-21l-18,-34l-31,-27l-3,-24l17,-39h13l39,22l13,13l13,1l20,11l18,3l15,11l56,52h11l35,25l7,-4l20,17l34,17l7,19l20,6l28,19l53,21l13,-18l-3,-11l45,-79l11,-8l7,-16l19,6l9,-5l19,6l16,-2l14,-30l-173,40l-95,-38l-47,-16l-66,-37l-29,-14l-28,-18l-45,-20l-25,-5l-38,-1l2,-16l16,-44l-16,-24l-33,-26l-21,-40l9,-30l15,-17l15,-24l0,-71l-4,-15l-17,-34l-17,-14l-14,-17l-18,-34l-19,-13l-22,-9l-89,-22l-20,-15l-19,-22l-61,-56l-27,-29l-25,-30l-37,-23l-51,-26l-44,-16l-20,-10l-35,-14l-20,-14l-19,-18l-16,33l-16,16l26,33l0,13l-12,16l-13,2l6,32l-14,31l-8,7l3,19l-6,5l-22,-2l-7,7l-74,-7l1,23l-5,20l-45,5l-15,-22l-15,-13l-21,-7h-21l-33,-13l-9,6l-1,26l-13,6l-13,-15l-26,-14l-35,-4h-37l7,25l-7,17l32,20l22,28l-3,7l-31,-8l-27,-14l-18,-15l-42,-23l-15,-17h-8l-36,-22l-44,-21l-6,-7l-19,-5l-17,-13l-8,3l-27,-6l1,-10l-7,-25l-19,8l-7,-10l-28,1l-13,-5l-21,5l-15,-13l-6,9l-25,-14l1,-26l-10,-1l-24,-20l-46,-31l-14,16l-35,-25l-16,10l-8,-3l-13,-18l-6,-17l-18,-4l-4,-16l5,-30l-13,-10l-18,-1l-10,-27l-10,-16l-20,-6l-9,11l7,14l-12,8l-3,13l-16,-4l-12,15l-17,-7l-20,16l-7,14l-11,-6l-8,11l-16,1l-27,20l-15,-1l-12,9l-22,-6l-12,1l6,22l-2,11l-13,16l9,14l-24,13l-17,-16l-14,-1l-15,14l-2,38l-9,9l-2,25l-15,7l-15,-5l-13,5l-11,12l-19,-25l-20,-11l-7,15l-11,5l6,18l34,13l28,34l-14,5l3,13l16,27l8,31l-23,9l-11,9l-24,-7l-43,4l-14,-10l-4,-61l-5,-18l-17,-11l-25,-4l-22,-18l-25,-2l-20,2l-21,-5l-41,-6l-14,-22l15,-32l5,-34l17,-23l4,-17l11,-4l16,8l10,-9l7,-22l17,-10l-10,-21l-35,1l-28,-31l-27,-41l-15,-4l-34,7l-14,-11l-3,-18l-25,-26l5,-8l2,-23l-47,-30l-12,-3l-15,-25l1,-12l-50,-67l-28,-9l-37,1l-7,-8l1,-29l-5,-27l-27,-12l-16,-10l-16,-23l-24,-8l-16,-17l7,-27l-25,-39l-16,-3l-3,-16l-17,-5l-12,-12l-17,-6l-41,-56l-10,3l-14,-12l-13,-21l-44,-19l-15,-19l-42,-14l-6,-13l8,-53l-25,-2l-4,-20l18,-21l8,-17l29,-27l4,-11l-5,-21l-18,-19l-23,-12l-29,1l-27,-20l-11,-14l-18,4l-12,12l-8,30l-12,-4l-36,-21l-41,-34l-18,-21l-35,-34l-15,-10l-27,7l-13,-4l-33,-38l-27,15l-10,15l-9,-11l-3,-25l-5,-11l-24,-16l-17,-50l-3,-19l-19,-3l-9,-15l-15,-8l-19,3l-3,8l-46,15l-45,-7l-13,-6l-20,2l-40,-13l-15,-19l-14,-4l-11,6l-1,21l8,17l-21,3l-30,-12l-17,-119l597,-161l41,-41l60,-59l73,23l43,36l44,21l27,12l68,34l6,8l-9,14l-30,33l-12,26l8,36l1,29l18,45l35,29l52,38l14,13l17,7l76,10l23,8l24,3h39l54,20l52,46l51,19l27,15l24,2l26,9l19,-11l16,-22l9,-6l14,-19l29,-15l13,-30l30,-17h22l40,28l31,15l10,10l25,42l40,7l34,1l18,16l72,43l62,57l19,22l19,15l39,26l60,30l46,18l51,28l44,37l58,40l69,51l38,30Z"
     transform="matrix(9.9999992e-5,0,0,-9.9999992e-5,-1.4338888e-7,0)" />
  <path
     id="2303"
     d="M-384018,-38238l1,19l-11,20l-29,33l-44,69l-41,61l-39,53l-5,14l-23,29l-38,66l-22,40l-27,43l-41,75l-16,21l-5,-11l-11,34l-11,22l-24,33l-22,42l-33,68l-16,27l-29,60l-16,27l-30,62l-34,70l-22,49l-29,84l-6,49l-31,-7l-33,18l-23,43l-14,11l-19,3l11,-22l5,-16l15,-11l-21,-62l-23,-29l-1,-22l14,-4l-1,-16l-61,-29l-20,-1l-20,-6l-18,8l-18,-12l-8,-10l-52,-7l-30,4l-45,10l-12,16l-35,10l-19,8l-14,15l6,53h-3l-7,-55l-116,12l-10,-15l-12,-7l-18,5l-11,-4l-45,15l-22,11l-9,-3l-40,16l-32,22l-51,30l-15,4l-31,20l-24,20l-4,-4l-31,15l-25,4l-18,10l1,7l-36,2l-50,26l-25,19l-13,2l-17,23l-15,5l-20,19l-30,-3l-30,18l-4,-10l-5,-34l-39,14l-59,14l-73,23l-12,-4l-26,7l-26,22h-24l-41,-11h-16l-25,8l-12,-1l-38,8l-79,24l-35,-11l-30,2l-31,10l-48,20l-34,17l-29,21l-10,4l-37,23l-34,27l-29,18l-37,27l-51,41l-15,14l-74,80l-19,16l-37,39l-11,22l-49,53l-29,25l-12,14l-21,14l-42,24l-20,16l-67,24l-44,23l-44,31l-3,7l-51,14l-24,10l-27,6l-35,12l-37,20l-44,13l-27,15l-40,29l-70,55l-31,26l-29,28l-18,21l-29,32l-38,51l-43,67l-17,21l-72,76l-31,36l-21,30l-55,67l-14,21l-12,22l-11,14l-26,42l-26,46l-195,-170l-58,-53l-289,-666l-208,-480l-368,187l9,-18l1,-13l-13,-12l-17,-57l-9,-48l4,-31l-106,40l-22,-3l-37,-22l-28,-1l-213,-288l16,-6l3,-13l-5,-27l-13,-18l5,-19l32,-14l20,21l14,-2l10,-25l16,-12l-8,-16l10,-11l-19,-24l-14,-3l-8,-23l10,-9l-7,-26l-10,-6l3,-12l-8,-25l5,-24l7,-14l-13,-8l2,-11l12,-15l-8,-61l-9,-16l-7,-47l16,-11l5,-9l-7,-26l5,-19l-10,-12l-1,-20l-65,-41l-30,-14l-90,-25l-29,-24l-30,-62l-13,-54l-2,-47l3,-45l-2,-108l-5,-58l-15,-39l-32,-48l-32,-21l-32,-39l-13,5l-12,-12l-7,-24l-16,-15l-2,-29l14,-14l-15,-56l16,-14l-3,-24l10,-15l27,-18l13,-19l20,-2l7,-13l22,-11l-4,-13l9,-21l24,-6l12,-15l-1,-21l-17,9l-8,-12l-4,-17l6,-10l-15,-18l10,-22l13,6l4,-29l16,-16l-12,-14l9,-13l11,11l16,-10l-5,-23l12,-8l-9,-14l11,-8l20,-5l-7,-13l7,-17l2,-30l-6,-25l-14,-18l20,-12l3,-12l24,2l14,-15l28,7l9,-11l9,14l10,1l14,-20l5,-20l13,-5l22,-45h19l-5,-21l13,-12l-1,-13l12,-13l13,-28l-9,-17l-19,-13l-3,-18l-9,-11l-3,-29l18,-3l23,-24l1,-14l17,-6l12,-18l14,-4l-8,-21l1,-16l42,-11l6,-10l21,-5l8,-19l1,-42l14,-19l20,-3l-600,-471l193,-526l276,-284l-8,-9l-19,-7l-11,1l-1,-46l42,-9l9,-13l-2,-33l16,-18l-10,-31l19,-26l-3,-17l-32,-15l7,-9l-14,-8l-4,-26l11,-5l21,16l19,-9l8,-28l23,-13l15,5l10,19l12,39l11,-29l17,-4l-6,-33l125,3l33,-10l18,-18l-1,-51l5,-14l18,-21l35,-22l10,-22l12,-6l26,-3l32,17l19,18l29,72l-7,57l164,-40l3,16l34,28l4,12l14,-2l-3,-27l7,-15l16,-7h13l9,7l13,1l5,-13l-36,-58l23,-1l19,-6l32,16l26,8l12,7l12,-5l9,-13l-5,-12l14,-16l21,-6l18,-39l13,-4l8,7l2,32l14,44l10,8l34,3l11,7l4,11l-7,16l-22,7l-39,9l-6,10l15,5l42,-2l24,-4l22,-23l16,5l8,14l13,5l27,-10l14,1l20,15l28,4l5,32l-8,38l-5,12l3,27l6,15l3,34l-4,20l31,49l-2,25l2,21l16,28l15,14l171,-121l10,6l24,34l28,-3l13,6l252,-139l33,6l27,-10l38,-25l9,8l29,-2l12,14l5,50l23,53l39,36l17,39l-2,27l10,23l23,-16l-4,-22h16l9,-6l5,-26l-11,-7l4,-12l28,-36l11,4l17,-7l-5,-16l5,-11l17,-15l-15,-6l6,-18l16,-12l-65,-353h-141l-38,-37l-21,8l-17,14l-17,-5l-34,-2l-26,-44l-32,-6l-11,10l-20,-6l-5,-32l7,-24l17,-15l132,-203l189,53l75,-17l300,-94l40,-48l-23,-141l10,-16l7,-2l19,10l15,1l-4,14l11,10l13,-7l14,1l24,14l10,10l13,31l21,12l27,24l3,14l14,15l4,24l17,5l25,17l22,-2l18,8l6,9l17,4l9,-19l15,-2l19,18l10,-7l44,16l-4,10l14,18l26,16l5,17l11,3l17,-11l13,1l24,10l11,9l11,-21l13,1l14,12l16,19l16,6l17,-1l33,4l13,-8l9,-14l56,7l18,-2l21,12l30,-27l15,-6l40,-7l17,-13l23,1l13,-9l18,7l5,-8l21,-5l4,-8l31,7l2,12l11,3l5,-30l-8,-8l-3,-17l17,-40l11,-30l1,-14l21,-55l439,-526l24,26l13,6h21l25,-11l56,-17l38,-2l36,5l18,6l31,19l35,10h31l30,-8l13,-6l19,1l17,10l19,17l21,37l11,3l29,-5l37,-16l45,-16l91,-18l52,-5l19,8l23,-2l162,-77l134,-64l23,2l21,7l66,12l33,28l38,2l10,17l12,71l9,17l17,3l20,-4l15,-11l17,-7l29,1l22,5l44,6l56,14h31l15,-8l248,68l54,381l56,399l94,666l22,129l206,184l55,14l26,63l-9,11l13,16l23,16l22,38l9,7l30,7l54,38l10,5l-4,-38l10,-14l23,-3l28,4l-3,124l21,-6l11,-16l16,22l13,2l17,32l-10,17l9,23l17,-7l6,-8l15,3l58,-22l3,-6l33,-4l28,-22l30,-12l15,-20l-2,-9l37,-8l9,4l17,-8l16,-1l24,10l16,-2l39,-21l7,-16l19,-2l27,-9l26,-4l22,5l6,8l25,-4l6,-5l30,-1l5,-9l29,3l37,-10l26,5l33,-2l22,13l43,13l5,-7l15,8l3,26l22,3l14,4l9,-8l18,-4l9,11l-9,15l22,35l4,32l16,8l15,-3l5,8l-17,46l24,6l12,-1l9,7l-11,11l-34,41l-52,67l-17,19l-25,35l-51,57l-47,67l-44,54l-50,60l-41,59l-71,80l-35,47l-18,28l-19,12l-16,2l-14,16l-11,5l-33,1l-18,4l-18,-19l-19,1l-36,9l-27,9l-73,40l-22,7l-48,30l-103,68l-104,85l-57,53l-71,75l-30,28l-51,56l-21,20l-52,64l-31,32l-92,124l-61,87l-102,157l-24,35l-45,68l-14,27l-51,82l-11,21l-15,10Z"
     transform="matrix(9.9999992e-5,0,0,-9.9999992e-5,-1.4338888e-7,0)" />
</svg>
