<?xml version="1.0" encoding="UTF-8" standalone="no"?>
<svg
   version="1.2"
   width="1080"
   height="1080"
   viewBox="-41.8798 17.8919 13.032200000000003 3.4098000000000006"
   stroke-linecap="round"
   stroke-linejoin="round"
   id="svg7"
   sodipodi:docname="ESMeso.svg"
   inkscape:version="1.2 (dc2aedaf03, 2022-05-15)"
   xmlns:inkscape="http://www.inkscape.org/namespaces/inkscape"
   xmlns:sodipodi="http://sodipodi.sourceforge.net/DTD/sodipodi-0.dtd"
   xmlns="http://www.w3.org/2000/svg"
   xmlns:svg="http://www.w3.org/2000/svg">
  <defs
     id="defs11" />
  <sodipodi:namedview
     id="namedview9"
     pagecolor="#ffffff"
     bordercolor="#000000"
     borderopacity="0.25"
     inkscape:showpageshadow="2"
     inkscape:pageopacity="0.0"
     inkscape:pagecheckerboard="0"
     inkscape:deskcolor="#d1d1d1"
     showgrid="false"
     inkscape:zoom="0.7537037"
     inkscape:cx="540.66339"
     inkscape:cy="540.66339"
     inkscape:window-width="1920"
     inkscape:window-height="1001"
     inkscape:window-x="-9"
     inkscape:window-y="-9"
     inkscape:window-maximized="1"
     inkscape:current-layer="svg7" />
  <path
     id="3203"
     d="M-412714,-199422l-13,-2l-21,11h-10l-29,-11l-24,2l-33,10l-60,8l-75,28l-30,11l-18,-16l-52,-102l-27,-189l-12,-52l-17,-17l-26,-13l-38,-32l-1,-14l16,-36l44,-61l43,-54l9,-20l-9,-60l7,-15l13,-41l-6,-23l2,-20l-10,-34l-47,-31l-5,-8l12,-22l-24,-17l-5,-18l-13,-10l-8,-35l3,-30l-7,-80l-14,-28l-28,-41l-15,-40l-21,-21l-22,-9l-15,-13l-27,-10l-9,-11l0,-13l17,-31l-28,-3l-9,-20l-6,-29l20,-12l-13,-12l8,-17l-30,-27l7,-37l-17,-22l12,-39l0,-20l-7,-11l-70,-9l1,-23l8,-19l3,-38l0,-31l-23,-34l-11,-41l-17,-19l5,-27l-16,-32l-7,-38l3,-9l31,-27l0,-11l-29,-13l-15,-60l-36,-11l-10,-12l1,-20l6,-36l-10,-9l-51,-21l8,-24l-15,-44l-30,-49l-22,-31l-34,-26l-24,-7l-23,-17l2,-39l16,-24l-16,-19l-1,-29l-18,-14l4,-22l-11,-19l-3,-28l-27,-6l-2,-55l-9,-17l-52,-22l-22,-13l-26,-4l-46,-21l-12,-11l-5,-18l-30,-12l-60,18l-14,-3l-38,-45l10,-39l8,-13h-45l8,-12l-2,-17l-8,-13l4,-29l7,-11l-14,-11l2,-16l12,-15l8,-20l14,-13l5,-30l25,-8l2,-23l-9,-11l20,-33l15,-5l21,17h23l12,6l21,-24l16,13l-1,13l17,16l14,8l-2,10l19,22l-6,11l-29,25l1,15l21,-4l13,-9l52,-16l14,18l23,7l0,-14l23,-8l23,24l7,17l17,6l9,26l15,-2l-6,17l-2,39l3,12l-15,12l-8,27l10,10l30,12l21,-20l13,7l20,-7l21,28l35,20l26,1l17,8l36,1l20,-5l23,21l21,-1l29,-24l3,-15l-18,-10l-10,-24l1,-19l7,-13l29,-2l8,-28l4,-28l23,-10l1,-24l-37,-23l3,-10l23,-16l27,-12l3,-8l-29,-10l-18,-17l-26,-4l-14,-22l-35,-40l-5,-17l6,-8l1,-24l9,-4l13,-34l16,4l36,-9l30,-3l10,-9l40,11l8,-16l33,-25l1,-15l23,5l22,-16l23,5l13,-24l-3,-17l12,-6l13,-15l15,-1l18,-14l13,-32l3,-17l9,-7l19,-4l11,-19l-8,-18l16,-8l3,-16l-9,-22l-15,-11l-19,9l-12,-18l-11,-4l-10,9l-13,-5l-6,-19l8,-23l-3,-13l20,-12l12,-21l-6,-15l-21,-4l-15,-8l9,-20l39,-6l11,-15l-5,-52l11,-16l-10,-15l-21,-2l-1,-34l-9,1l-19,15l-18,1l-19,-22l-20,2l-17,6l-40,-25l-22,16l-8,27l-33,14l-20,1l0,-21l-23,1l-11,-7h-21l-25,-30l-28,11l-6,-12l-42,-36l6,-30l-10,-7l4,-15l-15,-3l4,-31l-5,-7l-38,-10l3,-29l-14,-9l10,-17l9,-2l-3,-17l-11,-9l26,-39l-1,-5l17,-34l0,-66l-11,-18l4,-19l3,-48l12,-1l18,-12l-7,-18l4,-11l23,-21l6,-29l-13,-30l27,-16l8,-24l-12,-36l3,-18l-4,-21l50,-22l-1,-11l6,-31l-6,-16l3,-75l19,-18l11,-1l9,12l22,18l28,9l7,-12l14,-2l17,-15l4,-32l10,-12l17,-11l8,-13l18,4l42,-5l40,-50l-8,-27l8,-6l25,-49l-12,-12l-23,-11l-2,-46l5,-24l24,-31l24,-20l22,-5l16,-10l8,-12l-22,-12l-21,-4l-11,-12l0,-28l10,-18l-8,-17l2,-11l14,-23l0,-18l-21,-6l-5,-17l12,-20l-23,-17l-4,-18l5,-26l-12,-13l1,-12l26,-45l-19,-36l-1,-30l-16,-24l-9,-23l5,-9l-7,-18l3,-12l-5,-15l8,-13l4,-21l-11,-33l22,-26l4,-14l0,-31l8,-22l-2,-12l-35,-8l-27,-10l-20,-16l-17,-28l17,-5l3,12l38,5l18,-6l-3,-14l18,-15l3,-9l20,-20l1,-8l18,-24l18,-35l10,-42l18,-19l41,-19l27,-3l13,-30l18,-8l4,8l18,1l15,23l-8,8l13,13l23,14l20,8l36,2l11,33l-14,31l17,14l36,-16l26,-3l-5,42l-8,32l-9,17l-9,37l-1,26l1,45h31l7,13l30,4l1,-30l33,-21l22,-9l42,9l23,23l14,28h8l34,-42l51,12l26,-5l11,-12l16,-8l-4,-16l4,-20l0,-27l10,-8l26,-4l24,-8l7,3l23,23l22,34l11,27l-8,25l5,11l24,-2l10,-16l21,-3l21,9l15,-4l5,-9l13,-3l31,16l18,2l35,-7l9,-12l18,10l21,-3l23,-10l9,41l-10,15l27,17l6,15l-11,17l2,9l-44,15l-14,16l-20,16l-4,11l6,27l-2,14l-9,17l-14,12l-7,-3l-23,14l-17,22l-29,22l9,11l13,36l-9,17l17,15l5,19l21,18l15,4l11,11l-3,14l25,16l28,-3l26,-7l15,-23l5,-18l20,-29l7,-18l13,-5l9,10l15,-2l17,7l0,17l23,2l11,9l17,-2l0,30l7,11l14,4l11,13l18,-3h37l24,-8l15,7l48,-3l25,-9l44,6l43,13l5,38l-2,13l-12,18l21,22l-6,29l6,20l-20,17l-3,11l10,24l20,12l14,14l34,14l8,-18l27,-12l10,-8l29,7l21,-12l6,-26l24,-6l41,-20l14,9l20,3l19,17l12,16l21,-7l43,12l14,9l26,8l23,4l30,-7l-4,13l2,27l14,9l17,-5l30,11l-6,27l1,32l49,6l3,25l-9,24l-7,30l17,17l48,8l22,-31l36,-12l12,-18l5,-41l-3,-14l-21,-27l-15,-25l-22,-6l0,-28l8,-23l23,-16l-1,-15l-13,-22l-1,-20l7,-12l22,-7l17,-15l15,6l15,-9l-1,-11l13,-16l14,-5l24,-23l22,-2l13,14l12,-7l21,7l16,-10l0,-23h13l13,-11l25,-2l2,-15l-6,-18l-8,-2l2,-22l36,-8l12,4l15,-6l5,-30l10,-11l0,-22l11,-21l21,11l21,-3l15,-22l13,-1l36,14l15,8l29,-3l-3,-20l3,-19l-6,-16l-20,-14l-8,-24l15,-8l8,-29l19,-13l-4,-11l11,-19l3,-24l6,-15l25,14l6,21l10,9l17,-4l6,-22l14,-19l10,-5l21,-21l9,-2l18,9l76,3l8,-16l28,7h28l11,4l16,-4l15,2l3,19l-12,20l1,16l29,9l18,21l27,5l70,40l8,23l-16,10l-7,39l-27,28l-14,25l1,15l16,15l3,21l12,24l-5,35l1,30l-8,16l2,17l-9,32l-8,19l-3,18l22,8l19,20l18,14l27,34l15,3l16,-4l36,-16l31,-28l24,-2l14,-23l1,-36l-19,-15l-14,6l-15,-7l-22,-32l13,-12h32l15,-9l11,-22l20,-7l12,-17l-4,-26l-8,-13l2,-31l-6,-23l-7,-6l4,-20l17,-3l50,28l8,14l16,3l13,-19l21,-9l11,-14l20,-11l8,-10l14,-3l-7,-14l9,-38l-3,-12l-13,-14l6,-20l-1,-15l-39,-6l10,-19l3,-43l27,-14l7,-9l17,2l14,-8l-8,-24l11,-34l-22,-39l-11,-30l15,-8l25,15l33,-4l18,-15l-4,-29l2,-18l-12,-12l1,-22l13,-12l13,-21l-14,-22l-12,-1l-12,-11l17,-18l-11,-42l11,-5l13,-25l-18,-34l15,-36l-17,-36l6,-17l-11,-24l-3,-21l-23,-16l-4,-18l-14,-10l21,-29l28,-18l17,-31l14,-5l12,-10l2,-10l-23,-21l0,-9l24,-16l5,-22l-4,-21l-21,-9l-21,8l-16,-10l-16,4l-31,-21l7,-15l-4,-21l3,-33l-15,-31l-3,-19l14,-12l14,-31l22,-12l0,-17l17,-13l16,-5l24,-51l15,-13l-8,-13l-11,-3l-4,-19l4,-9l-9,-23l-37,-32l29,-16l19,-6l13,26l24,-6l16,2l12,-7l22,-3l10,-16l31,-20l23,-1l0,11l42,33l22,24l15,-13l26,-13l-1,-13l20,-12l11,-21l31,-10l35,-5l16,-17l13,-3l23,-20l32,-12l12,-18l11,-3l7,-27l10,-2l1,-30l8,-27l-11,-36l-11,-17l8,-7l-1,-33l-8,-23l-17,-1l-29,-54l4,-26l-28,-7l-26,-14l-27,-6l-17,-11l-8,-27l8,-14l-8,-15l-27,-18l-7,-14l-16,-10l-4,-27l-24,-26l3,-24l9,-11l-1,-11l23,-21l-17,-11l-1,-13l-10,-15l15,-13l4,-17l20,-18l-2,-22l-14,-12l-13,-20l0,-14l-30,-3l-15,-22l-13,6l-22,2l-32,-12l-20,-17l-12,-43l-34,-18l-19,1l-28,31l-11,-3l-18,-23l-13,-12l-17,-43l-8,-49l3,-10l-11,-15l-7,-24l4,-14l28,-14l27,-8l12,-12l-18,-25l11,-7l-9,-33l-17,-19l-29,-17l-12,-16l-4,-19l-10,-13l-4,-41l-9,-18l7,-27l-3,-23l8,-8l-2,-22l-5,-19l-16,-25l-3,-25l-14,-8l-5,-37l-15,-8l-24,-28l1,-16l-15,-8l-9,-22l-36,-6l-21,-14l23,-14l-14,-9l-7,-14l-24,-19l-10,-1l-32,-24l-8,-10l-15,-1l-3,-18l-33,-16l-6,-32l24,-22l11,-42l-22,-28l-13,-2l-15,-11l5,-10l40,-19l-1,-15l32,-11l9,-18l10,-5l20,-24l-14,-36l-13,-14l1,-17l13,1l10,-11l6,-38l18,-4l-6,-26l6,-16l32,-26l5,-22l-14,-14l3,-11l-3,-28l-14,-14l-24,4l-8,-13l-16,1l-22,-10l-13,-11l-7,-24l-8,-13l17,-17l-4,-26l27,-14l0,-18l14,-16l-2,-11l-17,-2l0,-17l12,-13l-2,-11l9,-16l-8,-8l-2,-23l18,1l5,-16l-16,-19l-7,-21l10,-19l18,-2l0,-10l19,-8l32,-1l6,-9l-13,-13l0,-22l1,-17l20,2l21,-6l9,-11l12,-5l34,4l9,-14l12,6l27,-4l4,-17h11l119,-50l33,-42l36,-15l180,-49h7l251,11l102,4l204,-28l44,-5l25,6l117,62l21,1l33,-15l88,-23l96,-9l691,251l16,31l26,39l43,39l40,47l31,25l38,20l44,15l39,9l29,10l28,1l19,-10l0,-14l-12,-13l18,-11l17,6l16,-1l8,17l27,19h22l24,20l6,11l38,25l14,6l28,-1l18,21l28,12l22,1l9,-19l17,8l13,13l-16,7l3,14l10,8l19,-15l6,6l-9,17l4,13l33,5l3,6l25,7l16,-5l8,11l-8,19l3,8l24,-5l16,8l24,-3l21,14l17,3l14,16l-7,13l7,9l14,3l24,-4l14,13l-8,25l11,7l2,11l22,2l24,15l18,-7l30,16l15,25l11,10l110,-38l37,-15l45,-26l34,-29l24,-36l-14,-21l-9,-27l-13,-2l0,-17l-14,-32l7,-16l-3,-19l6,-8l1,-29l15,-19l-1,-19l29,2l11,39l20,20l32,11l23,32l-1,8l25,43l15,14l-1,21l20,65l18,24l14,48l25,25l17,9l32,2l35,-9l14,16l30,6l16,14l29,3l19,-4l17,-14l-11,-10l3,-20l12,1l16,16l8,17l21,8l-9,16l4,27l14,35l13,18l17,11l11,35l21,3l-15,35l-4,38l0,24l9,45l21,45l27,31l2,10l31,44l21,19l26,29l23,37l16,30l61,61l57,36l58,13l28,-1l23,-12l6,-13l-10,-10l-6,-16l10,-11l30,30l4,13l-1,35l20,9l0,24l22,2l6,-26l5,-3l26,22l-8,9l-22,1l2,26l9,13l23,5l11,-12l29,-5l8,6l-2,24l-22,-11l-17,16l-4,23l24,54l20,27l7,22l39,61l11,45l4,41l10,32l25,52l25,43l18,24l30,25l5,15l13,6l-5,13l2,23l27,14l30,-3l-13,15l8,17l14,3l37,27l0,15l-18,-3l-8,13l0,15l-31,-11l-4,21l8,16l15,1l9,27l28,23l29,20l48,22l33,6l44,-8l14,-8l12,-12l-18,-25l4,-10l-8,-13l38,-8l35,3l10,23l-14,14l26,13l5,20l-11,4l-51,-7l-7,15l10,24l18,8l18,34l7,-16l26,11l-7,12l-24,13l-3,13l-16,3l-2,34l7,11l13,3l-22,30l8,16h16l5,13l12,-3l6,19l-12,25l5,12l15,12l6,11l38,7h30l33,-5l22,-6l25,-14l15,-15l29,-43l-13,-11l-28,-13l-15,-18l-2,-8l35,-12l22,5l30,25l18,-5l25,9l28,-13l-5,-36l9,-26l27,6l10,39l19,17l12,3l17,-4l-4,-14l11,-4l18,9l1,10l-23,-1l-6,14l7,29l1,20l30,55l26,41l25,30l72,100l20,21l36,53l10,29l-5,56l4,36l9,46l25,75l17,37l13,36l28,61l35,60l11,14l37,59l16,18l37,54l36,46l1,11l7,14l27,34l23,19l14,26l15,39l17,19l29,19l26,6l13,-20l13,12l-13,19l6,22l-3,28l5,31l36,75l20,35l17,21l9,28l4,20l22,54l10,63l9,28l29,56l23,38l11,25l10,16l16,37l31,38l12,19l5,16l31,54l-2,15l8,25l21,32l13,42l39,71l20,18l14,6l-4,20l-29,2l-6,17l0,22l8,36l5,39l15,62l22,45l32,87l14,31l15,23l23,47l17,26l31,42l18,44l14,23l39,50l38,42l26,18l29,15l42,28l6,18l-5,22l-1,38l6,37l14,37l14,27l33,28l35,6l5,30l12,9h14l7,-14l16,6l-2,31l14,6l-2,15l-44,8l-8,-11l-10,27l-12,16l-60,66l12,10l31,9l-2,16l-12,-3l-15,16l-32,1l-11,6l-5,-20h-18l-37,13l-11,19l-1,23l7,15l36,1l5,-14l13,-5l20,1l18,9l8,15l32,6l4,13l-16,6l-21,-7l-25,11l-15,-16l-18,-3l-4,-15h-35l-10,12l-1,23l22,11l3,15l25,8l14,14l-23,12l-12,-20l-11,11l0,19l-13,39l3,23l8,22l19,30l32,32l48,33l11,6l6,16l47,22l11,12l27,11l53,14l49,4l27,-9l21,-17l7,-14l-6,-17l9,-21l8,-5l16,-28l12,-12l1,-11l18,-48l27,-23l19,-40l19,-1l23,-37l12,-9l62,36l-27,72l-4,79l16,23l15,30l6,19l-2,24l28,28l8,20l36,47l21,-15l12,22l-43,30l12,1l1,16l8,16l12,11l65,65l19,39l-14,12l-15,20l16,27l27,23l29,16l2,7l21,27l23,16l7,22l19,14l30,42l-5,28l9,50l15,25l17,44l28,18l0,24l19,39l-7,24l7,44l-9,4l-5,20l7,15l15,14l1,17l10,33l21,19l1,28l12,15l0,10l11,17l-8,11l7,41l-2,37l4,28l-6,13l-3,30l2,28l10,21l10,37l9,13l-4,24l3,44l28,73l6,30l19,39l11,35l0,28l25,33l-1,15l8,11l-10,40l1,16l-5,22l-3,33l7,22l-12,43l3,33l-3,19l4,52l5,31l-5,22l-8,4l-14,28l-17,20l-21,11l-11,12l-8,33l-20,11l-10,17l-8,1l-44,43l-13,23l-6,1l-9,-10l-16,4l-7,44l12,29l31,12l7,12l-11,30l-19,31l-5,18l-16,18l-43,2l-30,25l-13,24l-11,5l-63,5l-32,9l-13,20l-25,-3l-24,-13l-33,50l-11,1l-10,-12l-19,-6l-7,-10l3,-13l-5,-18l5,-16l20,-1l5,-9l-17,-24l-23,-13h-26l-3,18l-12,6l-23,-11l-7,-19l4,-19l17,-19l9,-24l-9,-8l-30,-8l-21,-14l-28,12l-5,19l-14,9l-22,-5l-20,9l5,35l-15,34l-20,15l-20,3l-10,-4l-12,-16l8,-17l1,-22l-19,-21l-11,-5l-16,6l-4,21l-31,65l-13,5l-6,-31l-30,-8l-29,-20l-16,-2l-19,12l8,24l17,28l-29,-8l-25,26l-7,-1l-28,-27l-24,12l-21,31l-29,9l-5,16l-15,18l-14,-7l-14,-15l-25,22l-13,3l-14,-11l-6,11h-42l7,-20l-15,-9l-125,-31l-13,1l-11,-13h-18l-10,9h-38l-13,-3l-20,-16h-11l-7,-12l-28,-12l-7,-9l-28,-6l-22,-11l-12,-14l-7,16l-31,-8l-8,-13l-20,-16l-8,-30l-16,3l-11,-28l12,-12l-20,-10l-12,5l-24,-17l-21,-5l-11,12l-3,14l-20,6l1,32l-23,7l-17,11l-31,11l-10,17l-12,29l-9,30l-13,24l3,8l-8,33l-14,10l-5,17l-20,4l-16,8l-13,-5l-15,13l5,10l-34,8l-8,24l-12,-3l-16,24l-30,-11l-25,6l-23,2l-24,-5l-12,4l-17,-12l-13,2l-29,-6l-22,1l-29,-8l-18,-11l-16,-2l-36,18l-13,10l3,26l-9,8l-25,-6l-17,21h-23l-5,16l-20,4l-17,20l-18,1l-10,14l-15,4l-3,14l-42,25l-26,10l-10,10l-25,9l-6,12l-30,19l-11,71l8,23l-10,1l-3,29l-8,20l-10,42l-5,43l6,11l-7,23l2,25l-5,66l12,11l13,26l0,17l-11,27l9,17l-4,5l-48,27h20l-7,59l4,34l-31,6l-6,5l-27,5l-17,-1l-10,9l-23,4l-39,-1l-15,-14l-15,-1l-14,-9l-20,-1l1,199l-21,24l-9,16l17,15l-17,55l-1,15l-22,2l-20,12l-15,35l-34,20l-1,9l-18,13l-21,65l-40,14l-17,15l-15,38l-12,16l-16,5l-26,40l0,18l10,15l-3,14l-20,22l5,37l0,17l5,21l11,8l3,30l-5,20l-25,23l-91,224l-70,156l-12,12l-11,-1l-32,46l-19,6l-3,12l-14,18l4,21l-11,29l-10,13l-7,24l10,21l-6,10l0,41l-6,22l9,10l12,-5l31,4l11,13l1,34l4,36l-5,6l13,23l4,29l-3,10l5,58l11,22l-4,11l11,59l9,11l6,43l7,6l6,44l21,10l-6,13l-6,11l-1,28l-5,24l16,23l0,34l-12,26l-17,15l-14,51l-2,22l-6,20l-22,30l-18,6l-11,9l-35,12l-15,11h-32l-24,24l-17,3l-34,-5l-14,-7l-10,-14l-22,-8l-38,4l-10,14l3,14l-20,25l-18,8l-8,24l4,25l-1,29l-8,16l-10,7l2,28l-49,13l-16,17l-9,47l-10,13l-14,4l-37,1l-15,4l-25,-18l-38,-3l-19,28l-12,41l-9,21l4,16l-13,15l-26,21l-3,25l8,14l5,20l-15,19l-14,8l-8,-12l-12,-4l-44,-6l-8,-9l6,-26l-49,-36l-20,-7l-496,298l-5,13l-19,2l-17,6l-31,28l-18,21l-26,8l-32,23l-5,16l-32,16l-4,26l5,18l-1,20l-21,10l-35,-28l-2,-7l-19,-8h-23l-38,15l-13,14l-37,3l-43,-1l-24,-9l-46,-1l-6,-9l-17,-8l-10,-17l-11,-5l-13,22l-25,10l-46,11l-37,-6l-21,7l-31,-3l-10,-18l6,-20l2,-34l-17,-25l-11,-2l1,-75l-50,1l-77,-3l-12,-12l-39,-10l-37,-28l-25,-1l-26,-8l-7,-8l0,-21l-23,-3l-8,-11l-28,11l-39,10l-28,-9l-28,4l-22,14l-1,22l16,40l2,33l14,34l-10,24l-64,-2l-26,-7l-14,4l-4,29l14,64l23,66l18,16l1,15l-19,50l-30,48l-8,8l-18,31l-3,29l-7,1l-18,22l-12,6l-18,-3l25,28l4,28l-8,19l9,18l18,6l5,12l28,-2l4,20l-36,12l-2,15l-17,3l-6,-17l-29,-8l-7,17l-26,-5l0,-10l-41,-26l-8,-23l-6,-30l-12,-11l-15,-3l-32,9l-11,-7l-13,-24l2,-10l-102,1l-34,8l-21,8l-22,-2l10,-20l0,-11l-38,-13l-9,-23l17,-23l1,-24l-16,-25l-28,-30l-24,-14l-10,-23l-21,-27l-14,11l-32,-12l-23,8l-11,-1l-5,-24l-29,4l-7,8h-17l-20,-5l-6,13l-18,-4l-22,35l0,15l-9,26l-20,16l-10,3l-13,21l3,21l17,12l21,9l8,19h8l18,14l5,19l-25,23l6,25l-18,17l-12,32h11l25,15l6,13l-5,11l6,24l-3,15l7,9l30,8l37,20l39,3l16,10l-1,22l19,-2l36,16l6,15l-7,3l-27,-1l-25,9l-27,-10l-39,13l22,22l34,10l2,26l-22,14l-8,-4l-28,10h-25l-22,-11l-3,-9l-17,-5l-9,-11l-15,-4l-17,-20l-35,-16l-18,-26l-9,-17l-18,-11l-53,-27l-29,-4l-18,11l-13,-7l-6,-25l-11,-7l-23,-46l-3,-21l5,-13l-9,-7l7,-17l-17,-11l1,-17l-5,-10l-29,-2l-18,-16l-26,9l-19,-2l-19,-18l-10,-5l-32,-37l-21,-5l-15,1l-20,-7l-17,1l-25,15l-33,-6l-12,4l-14,-13l-16,-2l-4,-10l-28,-16l-27,-7l-16,-18l10,-14l1,-12l-44,-19l-19,-1l-14,-7l-4,-38l-8,-22l-18,-12l-40,2l-10,8l-12,-4l-3,-16l10,-14l20,-5l10,-12l29,-4l-15,-19l-16,-11l11,-22l17,-4l37,-18l7,-19l-5,-10l-13,-2l2,-17l-18,-24l-27,-14l-30,-32l0,-23l16,-53l0,-34l8,-18l5,-23l0,-24l9,-16l6,-32l9,-14l-4,-17l3,-17l16,-13l7,-12l10,-32l22,-10l7,-31l-3,-30l3,-27l-8,-10l-8,-34l20,1l14,-4l27,-55l-12,-22h-34l-13,13l-15,6l-12,-9l-34,-51l-39,-65h-22l-7,5l-16,-20l-27,-22l-11,-35l2,-10l-21,-52l22,-18l-1,-76l-20,12l-14,-5l-26,17l-11,-13l-23,8l-6,9l-14,3l-29,-14l-19,-4l-9,18h-12l-14,16l-13,6l-24,2l-20,-3l-23,2l-10,-6l-3,-14l-15,-8l-14,-16l1,-27l-26,-12h-14l-15,-9l-10,-14l-2,-15l10,-32l-17,-8l7,-33l25,-31l-15,-7l1,-30l-8,-26l-25,-11l-10,-9l-6,-22l-20,-3l-12,-21l3,-19l1,-33l-7,-8l-7,-24l6,-18l-6,-24l-14,-11l-2,-29l12,-29l3,-16l-13,-15l0,-17l-15,-14l-5,-14h-18l8,-22l2,-26l-7,-13l5,-35l23,-37l-20,-30l-31,-5l-14,9l-27,-14l-20,-7l-37,13l-21,19l-8,18l-17,9l-18,17l6,10l0,44l-12,38l-10,7l-2,23l-40,32l-25,6l-15,-11l-17,-17l-59,-44l-21,-30l-11,6l7,24l-21,9l-25,21l-25,30l-19,42l-26,21l-10,2l-19,-16l-28,-5l-15,8l-7,18l7,16l17,12l-8,37l10,6l30,-11l11,11l51,21l10,8l-6,17l-13,4l-10,-8l-21,3l-21,8l-20,4l-31,10l-13,-3l-49,-48l2,-10l-23,-29l4,-9l-23,-13l-11,-13l-22,1l-6,-14l-43,-2l-16,22l-27,-17h-14l-38,-15l-20,-25l-29,-7l-26,-27l-11,3l-17,-9l-22,-24l-29,-12l-5,15l-19,16l-27,8l-20,-7l-12,-9l-12,6l-9,-10l-16,8l-10,-5l-12,-22l3,-37l-15,-22l-23,-2l-6,-8l-15,13l-32,12l-45,31l-8,32l4,23l11,11l7,30l-8,14l8,6l-1,20l-8,23l-20,10l-23,4l-16,8l-21,-24l-16,-2l-16,14l-19,1l-21,9l-15,21l-18,4l-25,14l-22,6l-18,-2l-8,24l-22,20l-13,4l-7,25l-23,-6l4,-21l-41,-23l-18,4l-39,16l-32,-2l-29,3l-10,7l-16,-15l0,-41l-11,-39l12,-31l18,-19l10,-22l-5,-11l-15,-14l-4,-37l2,-16l11,-12l69,-52l-10,-31l1,-29l12,-16l15,-63l-13,-35l-25,-21l-37,-46l-23,-42l-6,-16l-3,-24l-7,-9l-19,-9l-57,5l-32,-16l-1,-10l11,-15l43,-26l53,-66l-7,-16l-14,-9l-8,-14l-5,-37l-12,-11l-37,-7l-7,-88l12,-104l-6,-36l1,-37l-7,-31l2,-36l-9,-41l5,-29l-12,-23l-9,-2l-76,-19l-105,-97l-15,-10l-14,4l-27,22l-20,10l-22,-9h-45l-33,-16l-53,-20l-16,-20l-30,-120l-6,-10l-22,-19l-7,-36l-41,-37l-11,-42l-22,-33l-10,-6l-44,-6l-18,37l-27,19l-12,2l-104,-54l-4,-22l-9,-9l-30,-12l-21,-4M-404069,-207012l12,6l0,11l-15,-1l3,-16M-404682,-206611l-3,2l-35,-19l12,-10l24,5l17,12l-15,10M-403773,-206143l12,8l-3,10l-17,-4l8,-14M-403822,-206109l-9,-4l6,-20l-17,-15l15,-5l26,6l6,13l-17,4l3,10l-13,11M-403745,-206082l-13,-31l13,-4l3,-16l15,2l-7,15l2,11l-13,23M-403917,-205986l13,8l-11,11l-12,-6l10,-13M-407260,-208545l-9,3l-20,-19l8,-4l21,20M-407253,-208481l-14,-2l-13,-19l3,-8l21,5l3,24M-402955,-203802l-21,-6l6,-17l24,12l-9,11M-288496,-204958l-7,-14l27,1l-7,12l-13,1M-293371,-204880l-28,-21l-10,3l-27,-15l21,-10l-8,-25l-18,-11l14,-9l-4,-19l-11,-11l1,-19l9,-22l-14,-33l11,-13l-7,-18l20,-11l10,-21l17,-12l23,-7l33,-21l34,-47l-3,-12l13,-11l9,15l13,2l22,-9l-7,-19l-2,-20l15,5l0,27l20,1l15,10l23,7l13,-6l5,11l19,13l28,2l16,-4l19,-14l37,-41l23,-14h8l23,12l-1,12l-18,10l-1,31l26,12l-2,13l-12,14h-18l-24,20l-14,15l-4,15l-15,23l-6,20l-20,4l-21,10l-32,4l-23,14l-14,16l-8,21l-16,24l-12,3l-13,13l-58,26l-17,20l-15,38l-12,-2l-25,11M-288490,-204744l-28,25l-14,-3l-11,-12l0,-21l10,-16l20,-20l13,23l22,14l-12,10M-288543,-204696l1,9l-15,6l-8,-10l22,-5Z"
     transform="matrix(1.0000005e-4,0,0,-1.0000005e-4,7.2666673e-8,-2.9764816e-7)" />
  <path
     id="3201"
     d="M-409415,-186907l12,-449l3,-347l48,-74l30,-21l17,-60l39,-24l-5,-20l-15,-27l67,-44l21,-31l5,-27l16,-34l18,-62l-9,-28l-57,-18l-26,-22l-28,-2l-24,-48l-25,-20l-39,-45l-13,-7l-10,4l-16,41l-28,18h-23l-41,-27l6,-43l-19,-23l-48,-9l-71,-2l-9,-54l-367,30l-185,9l-63,1l-500,10l-83,-4l-108,-48l-30,-9l-56,7l-74,27l-19,31l-5,27l-9,19l0,20l-18,17l-4,9l1,30l-41,59l16,41l-8,35l-37,15l-9,9l-44,-4l-18,7l-12,30l-15,9l-8,12l3,14l-4,18l1,23l-6,8h-47l-48,-13l-11,-6l-21,-1l-22,5l-834,2l-15,-20l-12,-32l-3,-30l-14,-32l-12,-19l-31,-28l6,-28l-34,-35l-12,-8l-4,-15l4,-13l21,-18l14,-41l28,-30l10,-26l-39,-39l-22,-49l4,-14l38,-19l-4,-18l-21,-11l-14,-29l4,-11l14,-24l24,-24l18,3l12,18l63,-19l44,-57l0,-20l17,-25l34,-22l15,-27l43,-41l50,32l-17,22l-8,33l17,48l-5,36l11,26l16,29l6,-2l72,-75l16,-6l96,-9l27,1l65,27l26,-8l20,11l30,6l62,23l29,-13l36,-38l7,-11l36,-106l-2,-48l4,-19l22,-35l2,-14h27l30,19l23,2l12,-4l67,-57l38,-11l14,-24l15,-8l36,4l13,-22l4,-21l25,-40l30,-6l1,-17l-10,-29l9,-14l34,-10l18,-23l-18,-63l-23,-17l3,-11l42,-3l12,-4l24,-24l5,-32l52,-14l13,-15l-3,-31l24,-5l39,11l71,-13l21,-27l65,3l25,-13l-14,-56l4,-28l16,-8l30,12l20,28l20,14l15,6l28,-7l23,-24l8,-32l-6,-31l7,-47l-1,-46l7,-33l8,-23l21,-23l17,-1l9,6l66,16l13,-16l-12,-30l-4,-33l11,-10l34,3l12,-4l19,-21l9,-23l26,-11l38,-1l28,10l18,22l11,28l20,4l111,9l11,-11l1,-17l-5,-30l-101,-63l-48,-52l-82,-35l-34,-21l-69,-24l-22,-18l-27,-9l-21,-20l-26,-14l-15,-14l-38,6l-14,-13l14,-29l-3,-65l-21,-33l-29,-26l-9,-15l2,-18l27,-44l4,-22l23,-24l1,-20l7,-12l23,-15l-2,-19l-21,-34l11,-30l-12,-28l-1,-9l34,-8l14,-44l8,-17l46,1l22,-11l6,-23l-31,-44l11,-25l7,-5l117,-21l26,-1l41,-5l27,-25l49,-13l11,-31l14,-15l11,6l24,26l26,14l34,-11l33,7l6,-30l-8,-60l-21,-39l-7,-21l6,-9l22,4l56,65l27,11l3,-11l-11,-23l-44,-76l0,-32l10,-14l16,-12l29,-7l43,-2l42,8l34,-13l30,-2l31,16l14,-2l8,-22l-16,-25l14,-37l29,-34l59,-26l19,-4l13,-17l0,-9l19,-42l23,-9l37,11l14,2l23,-10l10,-28l14,-26l21,-8l0,-13l-10,-14l-19,-46l-20,-14l-11,-17l-3,-22l5,-24l20,-16l17,-2l25,7l76,36l12,-2l29,-22l4,-8l-4,-26l-17,-24l-25,-13l-7,-22l22,-31l38,-23l23,-46l-7,-63l3,-30l-11,-28l10,-52l15,-21l12,-7l11,5l27,24h9l22,-19l-13,-29l2,-10l26,-16h24l17,-18l-26,-26l-9,-16l-1,-40l16,-23l27,-21l22,-8l-4,-19l-20,-12l-22,-27l-21,-48l-11,-51l2,-26l-4,-10l-13,-4l-31,1l-17,-11l5,-29l-35,-19l-15,-15l-6,-37l13,-34l10,-16l31,-27l35,-7l-2,-16l-11,-10l-35,-27l-9,-10l4,-9l63,-18l70,-2l51,-4l9,-5l31,-66l-3,-16l-18,-21l-18,-33l-1,-18l-15,-24l-2,-18l-63,14l-67,-13l-18,-8l-64,-55l-14,-14l1,-11l33,-23l17,-27l10,-8l26,1l48,14l23,-3l6,-9l-17,-60l-30,-40l2,-18l13,-19l68,-27l23,3l18,19l17,7l42,-11l21,-12l22,-21l19,-25l6,-23l-11,-19l-19,-9l-15,-28l-15,-12l-10,-26l-11,-6l-45,-4l-19,-10l-5,-22l11,-45l-4,-20l-12,-6l-53,-2l-16,-19l-23,-67l-8,-11l-53,-67l-4,-21l14,-67l-17,-16l-4,-21l10,-16l58,-28l25,-41l21,-8l1,-8l-18,-6l-19,-40l-2,-13l6,-13l22,-9l6,-7l5,-33l-3,-11l-20,-23l-94,-39l-27,-23l-24,-13l-58,-13l-65,-58l-12,-18l-8,-41l-30,-37l0,-12l13,-18l4,-79l-10,-23l-38,-10l-11,-10l-18,-21l-4,-23l7,-24l16,-21l40,-24l35,-43l-10,-42l10,-15l-1,-16l11,-34l53,-62l23,-21l16,-10l29,-4l10,-14l-54,-34l-13,-13l0,-16l25,-51l-4,-8l-43,-2l-54,-50l-43,-49l-18,-45l-61,-68l-4,-12l-1,-64l4,-16l-9,-15l-161,-26l-205,5l-57,10l-46,15l-56,32l-37,31l-49,29l-38,33l-96,50l-28,-93l-4,-26l2,-37l8,-7l9,-28l30,-43l38,-39l3,-12l0,-57l-3,-31l-16,-59l-19,-49l-3,-31l13,-32l40,-38l16,-65l15,-46l2,-25l-11,-51l1,-13l11,-29l-6,-20l-37,-22l-89,-32l-75,-17l-5,-7l12,-17l12,-31l-11,-17l-42,-5l-115,9l-10,-19l6,-42l-9,-31l1,-35l-10,-16l-11,-1l-44,6l-49,18h-34l-21,7l-9,-6l-14,-51l-8,-8l-37,-7l-25,-13l-8,-18l-5,-24l3,-64l-11,-33l-16,-27l-7,-26l-22,-64l-32,-39l13,-35l-8,-23l-26,-16l-33,-7l-55,24h-15l-63,-22l-17,-11l-58,-79l-8,-18l-12,-52l-13,-11l-38,-13l-52,-36l-14,-2l-32,7l-30,14l-23,6l-33,-12l-24,-23l-53,-76l-40,-113l-1,-20l-13,-26l24,-38l-2,-10l-52,-58l-8,-46l1,-47l31,-67l2,-9l-12,-16l-30,-20l-5,-8l-9,-48l-21,-74l1,-7l27,-37l2,-12l-9,-28l-32,-21l-33,-13l-23,-22l-24,3l29,-108l136,-105l0,41l16,15l10,-7l29,-3l32,2l39,-16l18,-4l41,23l-4,21l23,6l7,-25l13,-4l22,-20l8,-24l18,2l22,-6l25,-14l18,-4l15,-21l21,-9l19,-1l16,-14l16,2l21,24l16,-8l23,-4l20,-10l8,-23l1,-20l-8,-6l8,-14l-7,-30l-11,-11l-4,-23l8,-32l45,-31l32,-12l15,-13l6,8l23,2l15,22l-3,37l12,22l10,5l16,-8l9,10l12,-6l12,9l20,7l27,-8l19,-16l5,-15l29,12l22,24l17,9l11,-3l26,27l29,7l20,25l38,15h14l27,17l16,-22l43,2l6,14l22,-1l11,13l23,13l-4,9l23,29l-2,10l49,48l13,3l31,-10l20,-4l21,-8l21,-3l10,8l13,-4l6,-17l-10,-8l-51,-21l-11,-11l-30,11l-10,-6l8,-37l-17,-12l-7,-16l7,-18l15,-8l28,5l19,16l10,-2l26,-21l19,-42l25,-30l25,-21l21,-9l-7,-24l11,-6l21,30l59,44l17,17l15,11l25,-6l40,-32l2,-23l10,-7l12,-38l0,-44l-6,-10l18,-17l17,-9l8,-18l21,-19l37,-13l20,7l27,14l14,-9l31,5l20,30l-23,37l-5,35l7,13l-2,26l-8,22h18l5,14l15,14l0,17l13,15l-3,16l-12,29l2,29l14,11l6,24l-6,18l7,24l7,8l-1,33l-3,19l12,21l20,3l6,22l10,9l25,11l8,26l-1,30l15,7l-25,31l-7,33l17,8l-10,32l2,15l10,14l15,9h14l26,12l-1,27l14,16l15,8l3,14l10,6l23,-2l20,3l24,-2l13,-6l14,-16h12l9,-18l19,4l29,14l14,-3l6,-9l23,-8l11,13l26,-17l14,5l20,-12l1,76l-22,18l21,52l-2,10l11,35l27,22l16,20l7,-5h22l39,65l34,51l12,9l15,-6l13,-13h34l12,22l-27,55l-14,4l-20,-1l8,34l8,10l-3,27l3,30l-7,31l-22,10l-10,32l-7,12l-16,13l-3,17l4,17l-9,14l-6,32l-9,16l0,24l-5,23l-8,18l0,34l-16,53l0,23l30,32l27,14l18,24l-2,17l13,2l5,10l-7,19l-37,18l-17,4l-11,22l16,11l15,19l-29,4l-10,12l-20,5l-10,14l3,16l12,4l10,-8l40,-2l18,12l8,22l4,38l14,7l19,1l44,19l-1,12l-10,14l16,18l27,7l28,16l4,10l16,2l14,13l12,-4l33,6l25,-15l17,-1l20,7l15,-1l21,5l32,37l10,5l19,18l19,2l26,-9l18,16l29,2l5,10l-1,17l17,11l-7,17l9,7l-5,13l3,21l23,46l11,7l6,25l13,7l18,-11l29,4l53,27l18,11l9,17l18,26l35,16l17,20l15,4l9,11l17,5l3,9l22,11h25l28,-10l8,4l22,-14l-2,-26l-34,-10l-22,-22l39,-13l27,10l25,-9l27,1l7,-3l-6,-15l-36,-16l-19,2l1,-22l-16,-10l-39,-3l-37,-20l-30,-8l-7,-9l3,-15l-6,-24l5,-11l-6,-13l-25,-15h-11l12,-32l18,-17l-6,-25l25,-23l-5,-19l-18,-14h-8l-8,-19l-21,-9l-17,-12l-3,-21l13,-21l10,-3l20,-16l9,-26l0,-15l22,-35l18,4l6,-13l20,5h17l7,-8l29,-4l5,24l11,1l23,-8l32,12l14,-11l21,27l10,23l24,14l28,30l16,25l-1,24l-17,23l9,23l38,13l0,11l-10,20l22,2l21,-8l34,-8l102,-1l-2,10l13,24l11,7l32,-9l15,3l12,11l6,30l8,23l41,26l0,10l26,5l7,-17l29,8l6,17l17,-3l2,-15l36,-12l-4,-20l-28,2l-5,-12l-18,-6l-9,-18l8,-19l-4,-28l-25,-28l18,3l12,-6l18,-22l7,-1l3,-29l18,-31l8,-8l30,-48l19,-50l-1,-15l-18,-16l-23,-66l-14,-64l4,-29l14,-4l26,7l64,2l10,-24l-14,-34l-2,-33l-16,-40l1,-22l22,-14l28,-4l28,9l39,-10l28,-11l8,11l23,3l0,21l7,8l26,8l25,1l37,28l39,10l12,12l77,3l50,-1l-1,75l11,2l17,25l-2,34l-6,20l10,18l31,3l21,-7l37,6l46,-11l25,-10l13,-22l11,5l10,17l17,8l6,9l46,1l24,9l43,1l37,-3l13,-14l38,-15h23l19,8l2,7l35,28l21,-10l1,-20l-5,-18l4,-26l32,-16l5,-16l32,-23l26,-8l18,-21l31,-28l17,-6l19,-2l5,-13l496,-298l20,7l49,36l-6,26l8,9l44,6l12,4l8,12l14,-8l15,-19l-5,-20l-8,-14l3,-25l26,-21l13,-15l-4,-16l9,-21l12,-41l19,-28l38,3l25,18l15,-4l37,-1l14,-4l10,-13l9,-47l16,-17l49,-13l-2,-28l10,-7l8,-16l1,-29l-4,-25l8,-24l18,-8l20,-25l-3,-14l10,-14l38,-4l22,8l10,14l14,7l34,5l17,-3l24,-24h32l15,-11l35,-12l11,-9l106,380l17,26l8,2l11,24l17,17l6,20l25,16l1,16l32,32l15,10l13,37l25,-20h12l15,16l-2,17l-8,23l7,7l19,4l17,10l18,-6l12,6l28,1l-16,44l-1,21l9,10l17,-6l12,13l0,34l12,7l23,3l9,-25l20,5l21,-10l22,6l12,17l10,3l0,22l13,24l31,28l8,-6l19,3l26,18l445,-106l422,188l6,23l-4,13l16,2l17,-10l4,9l15,4l9,15l-21,49l-17,65l-3,29l-9,17l7,15l-13,11l13,10l22,9l-12,13l-18,7l-2,15l-18,17l-19,26l-2,29l-29,3l-10,13l3,26l-19,17l-6,12l-22,18l-15,26l7,34l-5,34l-1,29l6,24l25,4l53,22l30,7l30,4l35,19l6,11l-6,29l17,20l-1,13l-21,32l-2,45l-7,8l2,17l-12,28l-21,50l-15,11l-15,28l-48,37l-9,14l-20,19l-5,18l-43,52l-8,28l-11,7l-41,-10l-26,5l-9,18l-11,7l-42,-20l-9,2l-20,24l-17,3l-12,-10l-21,-7l-27,-2l-21,18l-11,45l-19,19l-56,23l-1,26l-15,18l-21,5l-2,35l7,12l-4,23l4,21l-4,15l-14,15l-13,36l6,44l-5,13l-21,27l7,45l-1,19l-12,8l-22,5l-12,8l-16,22l-30,8l6,16l5,26l-19,36l20,42l7,10l5,31l11,22l18,13l38,13l16,10l0,12l-20,11l-30,6l-15,19l-12,29l-2,23l-15,9l-19,-11l-15,2l-25,17l-1,15l-25,20l-21,3l-23,15l-12,24l11,32l12,22l16,19l-13,21l-5,26l6,19l-11,8l-28,2l-16,14l-12,34l-37,45l-22,5l-10,23l-50,22l-19,14l-13,4l-20,23l-2,17l12,16l3,26l10,10l21,3l11,8l-2,12l-39,34l-9,27l-18,20l-7,13l-12,4l-12,-10l-3,-24l-13,-12l-18,1l-24,10l-14,-9l-13,-25l-17,-1l-20,19l-9,25l2,16l15,12l-20,33l-7,17l-32,15l-32,-2l-8,7l10,15l-1,16l-23,25l-15,7h-20l-20,10l-19,35l-27,30l-24,4l-35,-24l-21,-9l-24,-2l-25,2l-11,7l-13,27l4,17l15,19l-2,19l11,4l17,18l10,34l12,11l10,-2l23,20l25,12l-1,23l37,3l10,45l8,22l14,2l9,-17l15,3l11,25l-14,20l2,19l2,16l15,19l-2,22l25,10l15,18l23,10l24,16l16,15l37,5l10,11l20,7l13,39l-1,24l-8,30l22,7l20,13l24,-10l11,-14l18,-5l6,-27l10,-11h11l6,13l17,8l20,-2l13,-21l10,3l3,18l9,17l27,26l17,-4l15,6l1,24l25,49h30l38,7l15,-4l5,-20l-1,-12l5,-33l29,-2l9,-6l8,-22l16,-18l12,5l14,-12l11,8h15l35,22l3,15l-3,40l19,8l7,25l-24,39l-12,1l-7,35l-14,28l14,13h19l23,8l-6,27l27,3l26,30l0,28l-4,5l-11,5l-33,38l-1,15l16,28l36,2l29,-5l8,22l-1,33l8,20l13,13l22,8l16,19l-17,45l4,51l18,30l3,32l16,35l-5,9l-18,11l-22,7l2,18l33,34l13,5l36,-9l24,5l9,17l19,21l28,21l2,23l7,15l16,18l5,17l-17,13l-13,37l-20,16l-26,10l-15,11l-4,11l3,26l-1,41l4,11l27,17l16,18l10,19l6,32l5,11l9,37l-4,18l5,33l15,16l25,9l52,10l-12,32l7,32l-8,15l-33,23l-46,3l-32,-20l-23,1l-3,19l-1,37l-4,36l48,13l15,15l26,17l13,37l13,25l32,32l28,53l13,15l28,21l16,31l29,26l12,15l15,5l30,32l17,6l23,15l28,25l14,25l21,19l24,9l15,10l1,23l-8,45l-11,37l-28,32l-12,8l-29,2l-11,17l0,1l32,31l10,39l28,28l14,22l10,9l29,-18l24,6l8,-8l-5,-16l8,-10l33,-25l17,3l11,-9l4,-37l-2,-23l4,-14l23,-12l3,-13l31,7l24,29l10,24l6,2l42,-16l15,2l8,8l16,3l14,-6l15,8l38,8l17,-4l12,10l9,-24l16,-10l9,-15l19,12l13,-4l8,-14l41,-2l33,-12l26,2l26,-12l56,30l26,9l28,17l18,-8l38,41l244,425l216,473l233,512l127,278l-11,22l-2,16l23,16l5,18l-7,15l4,16l-15,21l-5,34l15,14l-11,16l12,19l-8,14h-14l-12,30l-35,34l-5,-10l-33,21l-16,-4l-5,-10l-15,-6l-19,9l-20,-2l-26,7l-28,25l-17,34l-16,22l-26,14l-18,19l-8,-4l-22,12l-7,22l-25,3l-9,15l-18,-11l-27,-5l-2,-11h-23l-7,26l-8,9l-7,23l0,15l-11,4l4,22l-17,18l5,36l-4,24l-11,21l-33,12l3,18l-15,5l-7,24l-34,15l-27,-5l-14,6l-20,-4l-26,-15l-20,16l-24,-5l-28,-23l-15,-17l0,-17l-12,-8l-34,7l-23,-3l-10,12l-25,11l-12,-5l-3,-12l-17,-28l-25,-18l-23,13l-63,-9l-22,-7l-8,8l-26,-1l-9,-11l-19,-2l-5,-7l-39,-11l-21,7l-17,-9l-31,16l-12,10l-9,-6l-25,15l-19,-30l-42,-8l-7,20l-28,10l-13,-8h-15l-3,15l-32,20l-25,-21l-23,-1l-14,15l-33,2l-16,-8l-6,-14l-24,12l-8,-11l-24,-13l-15,6h-25l-18,-10l-25,-2l-10,18l-34,2l-6,-22l-11,-3l-8,8l-42,6l-19,8l-11,-13l-34,-2l-21,-8l-8,-10l-21,-8h-33l-29,12l5,22l2,33l-12,11l-3,32l-6,25l-9,7l-16,33l7,21l18,20l-5,38l6,9l30,13l18,18l38,16l10,34l0,16l-10,16l-10,42l11,5l21,30l6,26l60,18l-8,12l-15,-1l-19,5l-26,17l8,30l-5,33l4,10l-10,18l2,26l-20,56l23,18l12,18l27,9l18,25l21,5l20,10h8l11,14l19,5l5,18l19,13l3,9l17,19l33,24l19,9l21,21l7,14l13,7l30,33l39,25l18,5l12,18l21,19l47,26l6,27l17,35l16,26l-1,30l9,14l18,1l12,10l37,19l7,10l-3,24l175,500l172,491l174,499h18l46,28l18,-3l7,-10l3,-19l10,-5l18,4l20,16l16,3l25,-4l18,-7l15,4l1,9l-30,23l-2,18l24,13l35,9l54,19l18,-8l10,-10l17,-1l36,6l10,-3l2,-17l24,-31l28,-13l11,-17l2,-13l-19,-20l2,-8l32,-4l38,-15l11,3l25,-5l10,5l9,22l11,4l20,-1l11,-14l-3,-30l18,-22l20,1l-10,39l3,19l19,24l16,-2l16,-28l25,-16l32,-4l27,2l-10,113l412,253l24,18l5,11l-5,30l9,20l14,15l8,22l-6,13l-17,15l-3,51l-9,21l2,29l-2,13l11,29l31,20l21,26l2,18l10,10l27,5l11,6l18,-3l25,10l21,21l30,14l19,22l14,-1l16,8l7,15l30,7l12,17l21,4l16,21l18,13l11,16l37,40l-32,8h-33l-7,10l-47,2l-23,13l-3,8l-40,8l-5,9l-16,7h-24l-41,13l-5,19l-10,9l-37,14l-11,13l-21,5l-20,-2l-10,-7l-11,6l-12,17l-10,-10l-26,13l-27,-1l-49,17l-2,-23l-20,-9l-21,8l-29,3l0,-6l-36,-20l-28,-22l-13,-17l-17,-3l-4,-15l-38,-26l-5,-12l-19,-11l-32,-7l-19,-12l-17,-16l-23,-5l-23,4l-25,-8l-11,-10l-48,1l-19,-2l-30,-9l-17,1l-13,8l-18,-20l-17,-5l-51,-2l-30,-9l-22,10l-20,1l-39,-19l-17,7l-36,1l-12,-10l-14,11l-22,8l-37,-9l-6,3l-65,-2l-22,13h-18l-10,23l-34,11l-7,12l-37,25l-15,21l1,7l-21,10l-41,-18l-3,16l-14,6l-7,18l-11,-1l-14,26l7,27l-10,27l-40,54l-11,11l-7,26l-22,-1l-14,22l-26,20l1,23l-15,-3l-11,14l-1,25l27,65l0,12l-23,16l4,13l-20,10l-1,9l-30,-3l-25,2l-8,10l-30,9l-6,15l5,14l-20,61l5,23l-6,21l-7,7l2,21l-16,27l-1,18l5,14l-11,35l-10,14l-2,24l-45,28l3,17l-7,6l6,14l-5,23l-26,26l-10,3l-40,27h-25l-2,17l9,23l-11,36l-11,-12l-26,10l2,13l-31,-1l-20,31l4,8l-15,18l-22,-8l-25,48l-39,7l-7,-11l-22,9l-36,-5l-12,10l-13,1l-23,-9l-37,-9l-7,-11l-24,-6l-11,5l-49,-23l-14,15l-34,4l-16,-12l-25,-6l-29,1l-43,-16l-12,-18h-27l-15,11l-38,16l-9,14l-26,21l-3,26l-24,26l-5,-2l-27,11l-17,28l-25,6l-8,21l-13,21l-15,1l-33,12l-11,16l-26,9l-26,3l-27,-32l-29,3l-10,12l-20,9l-13,-8l-48,-45l-17,-5l-23,-19l-10,-28l-21,-24l-12,-2l-17,15l-28,15l-27,-5l-20,-14l-27,2l-28,-22l-25,2l-12,17l-2,20l-17,19l-32,22l-49,17l-7,-110l361,-293l-52,-53l-13,14l-36,1l-19,-15l-51,2l-17,16l-70,-17l-59,7l-15,-19l-10,-2l-41,23l-26,12l0,24l8,23l-19,14l-4,11l-3,38l-5,20l1,22l-17,16l-3,13l-10,17l-29,-12l-20,-4l-20,12l-28,5l-23,-7l-26,39l-23,9l-26,19l-5,22l-38,36l-3,27l-18,25l-19,18l-14,19l1,30l-19,12l-15,-2l-22,-16l-34,2l-18,-7l-15,-12l-24,26l-2,25l8,12l24,2l9,11l-20,9l-18,1l-31,-6l-30,10l-21,-1l5,-31l-10,-6l-14,8l-15,27l-7,1l-32,-12l-17,-18l-29,-10l-27,12l-10,10l-28,7l-19,9h-14l-20,-23l-31,-6l-8,-5l-21,-32l-6,-16l-16,-21l-11,-1l-12,17l7,32l9,14l-1,46l9,26l-22,36l6,8l61,28l17,6l8,38l-35,22l-34,27l-29,5l-21,-5l-39,-15l-21,-2l-19,15l-33,10l-25,-10l-7,-9l-2,-25l-19,-9l-3,18l-25,24l2,20l-11,21l4,7l1,33l-10,34l-15,21l-15,31l2,19l-10,18l6,14l1,26l-11,24l6,29l-3,44l12,10l-14,49l-3,17l-38,54l-1,11l-20,12l-22,37l287,270l313,295l32,1l8,-3l18,4l35,22l-37,19l12,23l-8,29l16,15l-7,22l9,25l18,10l6,17l-6,29l34,64l-2,37l-25,10l-6,16l-25,30l1,16l-9,33l-1,26l-16,30l11,20l-22,21l-11,27l12,17l3,16l11,19l3,42l-31,2l-14,27l1,15l15,21l5,23l-15,5l-62,43l13,29l13,18l-14,33l12,22l3,28l0,34l-15,38l-4,21l1,19l6,16l19,28l30,62l0,24l-16,24l-104,96l-39,28l-26,21l-14,18l-19,17l-15,-2l-16,-15l-22,-15l-44,-88l-7,-8l-23,-6l-16,2l-33,15l-15,19l-10,35l-19,26l-20,-1l-23,-18l-39,-42l-25,-13l-16,10l-26,48l-3,21l6,17l17,32l2,26l-7,16l-49,70l-13,23l-23,32l-21,17l-46,2l-7,3l-7,19l3,18l27,46l-1,31l-17,45l-10,71l-7,20l-12,13l-20,11l-9,25l-14,27l-6,20l9,18l-4,17l-12,15l-23,21l-48,4l-41,8l-27,29l-7,18l-17,7l-42,10l-14,20l1,22l-6,21l-12,16l5,28l-7,28l-29,16l-83,1l-19,-5l-20,-18l-7,1l-35,31l-29,-1l-63,-25l-11,-10l-12,-19l-27,-14l-22,-25l-26,-12l-34,-30l-17,-2l-20,10l-22,19l-9,18l-1,40l-9,28l-51,32l-3,10l12,22l-5,14l-96,34l-47,-8l-52,-22l-46,-14l-38,3l-38,-36l-29,-10l-20,3l-50,26l-13,11l-12,19l-17,4l-47,-2l-51,4l-17,13l-14,42l1,13l21,57l10,17l8,28l1,40l-4,13l-10,5l-44,-17h-11l-6,13l8,22l-7,26l-39,10l-40,-39l-62,-26h-27l-5,19l28,56l8,27l-56,84l-10,62l-32,-16l-18,7l-30,48l-17,10l-10,-3l-35,-19l-8,-41l-7,-6l-35,-17l-23,-17l-20,-8l-30,-6l-11,10l-20,5l-7,8l-8,38l-1,29l-9,5l-34,-13l-30,-17l-11,-32l-23,-18l-35,-17l-38,-36l-17,-56l-35,-42l-37,-15l-23,-6l-12,-46l-27,-41l-33,13l-42,7l-13,14l-4,23l-9,16l-42,-15l-8,6l-5,31l-21,35l-13,41l-9,4l-26,-18l-40,-58l-6,-36l-13,-12l-39,15l-20,-2l-22,-10l-31,-35l-4,-15l158,-129l1137,-1070l-2,-16l7,-54l3,-142l23,-65l-9,-20l-11,-16l1,-20l-8,-32l19,-22l0,-75l-5,-21l-39,-25l-10,-2l-68,15l-33,-14l-72,-17l-10,2l-56,46l-49,24l-91,13l-99,24l-51,-14l-32,-5l-41,26l-13,11l-22,2l-15,-3l-23,10l-9,-13l6,-14l-9,-5l-44,31l-28,5l-10,21l-14,14l-6,21l-18,11l-35,-9l-27,13l-9,19l-3,34l-19,39l-37,29l-25,30l-14,1l-15,9l-13,30h-17l-10,-30l-12,-11l-33,9l-32,-10l-18,2l-11,31l-29,13l-9,7l7,13l5,30l12,19l1,27l-3,11l-14,10l-22,-8l-37,-38l-40,24l-12,-1l-7,-10l1,-18l5,-16l-2,-13l-14,1l-26,12l-8,-2l-44,-35l-36,-24l-75,-64l-7,-10l-15,-49l-19,-16l-33,-19l-44,3l-39,-3l-11,8l-25,53l-8,7l-42,11l-9,-7l-16,-48l3,-44l-3,-40l27,-16l0,-16l-42,-37l-6,-12l-8,-39l-21,-3l-56,6l-15,17l-22,55l-16,18l-32,3l-22,12l-13,16l-36,10l-25,-3l-4,-5l-2,-28l-39,-9l-22,-12l1,-25l-19,-36l-5,-30l24,-45l2,-20l-7,-24l-2,-24l-8,-26l-11,-8l-14,5l-4,27l-19,12l-69,-3l-44,8l-11,-19h-45l-45,63l3,29l-3,8h-17l-27,-9h-39l-52,8l-10,-9l1,-26l-18,-23l-6,-21l-9,-12l0,-29l-15,-24l-34,-1l-9,11l9,47l25,20l5,9l-21,7l-32,-17l-49,-2l-19,4l-28,-12l-28,4l-28,-19l-14,-6l24,-23l3,-28l-15,-39l-10,-7l-6,-15l-26,-4l-36,-29l-29,6l-10,6l-12,-6l-30,-31l-19,3l-121,-72l-45,-16l-34,-23l-6,-49l6,-19l0,-36l-14,-29l-19,-15l-29,-8l-29,-14l-21,-1l-5,-8l10,-15l4,-33l8,-11l18,-7l21,-20l17,-4l8,-35l6,-11l26,-3l9,-8l3,-23l-6,-10l-22,-6l-8,-11l-16,8l-26,-2l-22,-22l-13,-24l8,-8l24,-6l4,-13l-17,-40l18,-40l11,-5l9,-19l10,-9l1,-14l-6,-32l-7,-10l-34,-24l-2,-8l-30,-7l-41,-42l-38,-20l-17,-20l-52,-38l-17,-19l-43,-14l-8,-10l-21,-1l-9,-10l0,-18l-16,-19l-3,-11l-12,-4l-6,-15l-25,-12l-57,-45l-8,-10l-2,-42l-14,-26l-37,-14l-33,-20l-8,-19l-22,-10l-17,-2l-16,-21l-21,-7l-8,-8l6,-26l12,-18l-3,-35l16,-39l3,-48l15,-48l-11,-29l9,-27l36,-5l-1,-21l5,-8l-4,-29l8,-14l-5,-44l25,-41l3,-20l-20,-58l2,-21l-6,-38l2,-9l16,-14l11,-16l11,-49l-3,-21l-19,-32l-59,-16l-45,1l-11,-8l-7,-20l-2,-28l-17,-30l-3,-15l6,-24l18,-26l8,-17l-11,-53l15,-12l55,-12l92,-1l4,-12l-11,-30l-23,-19l-26,-6l-49,-24l-63,-18l-28,22l-29,-12l-38,-51l-41,-39l-9,-33l-13,-20l-20,-11l-20,-21l0,-36l-13,-30l3,-3l30,-39l19,-1l27,-11l16,8l-5,11l842,-81l659,-64l24,-13l43,-89l-5,-21l11,-28l-2,-44l-44,-242l-55,-266l-47,-224l-115,-554l28,-6l24,3l31,-9l8,-10l2,-14l-10,-31l12,-60l-5,-7l-52,-6l-12,-5l-25,-50l-8,-10l-22,-13l-38,9l-27,-4l-17,-20l2,-25l20,-30l48,-20l45,-36l0,-16l-12,-36l-17,-30l19,3l70,37l32,-6l27,-12l10,-9l-13,-23l-22,-21l0,-15l25,-11l64,-3l31,-10l59,-34l31,-27l24,-11l16,-11l20,-40l61,-14l31,-21l50,-12l21,-12l11,-49l33,4l19,9l24,-11l8,-15l29,23l23,-7l18,-23l25,16l22,2l20,-12l23,-5l32,4l31,-12h17l16,-8l17,8l30,-38l12,5l5,-14l37,-16l22,-22l0,-14Z"
     transform="matrix(1.0000005e-4,0,0,-1.0000005e-4,7.2666673e-8,-2.9764816e-7)" />
  <path
     id="3204"
     d="M-415577,-211733l23,7l13,-18l-7,-9l15,-7l11,4l17,-28l2,-21l16,-25l31,-6l14,4l29,18l22,-1l87,15l15,-8l10,-16l33,-12l45,-37l14,8l14,-11l12,7l-3,14l16,10l-4,16l2,35l17,26l17,10l60,-3l27,-16l-2,-25l7,-24l29,-8l12,-17l21,6l4,18l13,6l14,-9l27,21l28,10h11l9,-15l39,-30l23,19l7,-11l-16,-43l-2,-16l12,-12l2,-29l16,-21l19,-15l27,-14l13,-29l-4,-9l24,-4l37,-23l30,-13l21,-22l18,-5l17,9l7,-6l29,-3l15,-14l20,-28l40,-22l58,16l18,-17l34,-1l34,27l26,30l22,17l16,7l18,15l20,28l51,32l20,-5l10,-8l15,-1l12,29l13,-2l26,-32l16,-1l11,31l11,7l32,-10l14,-13l38,-1l13,-15l21,3l28,28l9,2l10,-13l13,-7l40,9l5,29l7,14l35,-1l6,-10l-6,-11l12,-36l30,-20l25,-7l13,13l21,5l13,-10l29,3l2,-14l15,-6l13,2l16,13l22,-9l3,-16l10,-6l30,13l25,-4l31,-22l27,-9l24,6l22,15l20,-7l17,-16l26,-15l8,-20l-14,-16l-1,-13l22,-6l47,-25l18,4l8,21l-23,23l8,9l32,-9l53,3l1,-47l-8,-31l5,-8l45,27l23,-4l4,-17l16,-24l41,-47l17,-10l43,-12l7,-10l-8,-30l11,-4l19,6l16,20h16l16,-16l28,1l9,-14l-2,-18l12,-10l15,6l-9,22l19,7l17,-33l21,-7l17,-14l9,1l8,16l-4,21l10,11l10,-5l4,-13l20,-2l8,16l-9,8l-14,1l-7,12l28,2l23,7l14,-12l25,8l26,-35l18,4l1,16l-8,14l16,21l20,9l-14,22l14,12l8,15l38,15l15,15l39,12l30,-5l29,12l15,-12l28,-7l12,-23l18,-14l26,9l15,-5l14,-19l-10,-17l21,-23l12,2l-3,23l23,16l9,-5l5,-26l8,-7l0,-17l20,-13l45,-18l7,-13l12,2l6,12h14l2,-14l12,-15l44,-22l3,-32l12,4l1,25l16,6l15,-25l19,-12l3,15l15,7l25,-19l17,7l6,-35l12,-16l11,-1l11,24l14,16l3,13l51,-9l-14,22l-21,-3l5,17l23,12l16,27l2,-26l15,-6l15,15l8,-6l1,-16l-9,-9l13,-8l16,3l-1,-27l17,5l18,1l30,12l12,2l6,-19l21,15l19,2l16,-13l-1,-18l19,10l6,32l27,1l10,20h47l25,13l17,-1l22,5l21,-1l12,-10l9,15l25,19l7,40l-19,9l6,16l13,18l12,7l38,5l18,-4l18,-10l12,-22l10,-5l20,3l42,-2l45,16l9,25l21,11l6,26l24,-4l15,3l27,29l17,5l25,-2l16,-15l11,-4l20,7l18,-2l22,8l29,-17l1,20l28,-4l10,-19l38,3l16,-9l-13,-9l2,-10l39,-14l5,-10l19,1l20,-18l-4,-22l8,-1l19,10l16,13l23,-15l8,-11l20,-9l48,-26l26,-20l40,-47l12,-28l13,-5l3,-11l30,-18l6,-11l1,-16l14,-9l4,-22h17l14,-16l14,-2l26,11l15,-1l12,19l-12,12l47,5l0,11l15,3l11,-9l19,18l12,20l10,4l44,-18l13,-12l2,-14l31,-17l15,14l16,1l14,-22l22,6l18,-1l15,10l11,-7l-6,-10l17,-23l-8,-8l19,-18l23,-8l-18,-16l14,-12l4,-12l-8,-17l14,-6l10,-14l0,-11l-19,-11l2,-28l8,-14l-2,-59l6,-27l15,-32l22,-20l46,6l20,-12l34,-5l25,30l26,44l7,1l28,-17l2,-10l-14,-24l8,-22l-15,-9l-15,7l-13,-8l10,-15l31,-6l14,18l17,-7l1,-32l20,-27l26,-8l25,4l20,-7l0,-14l-11,-12l4,-11l44,-11l12,-6l18,6l-14,41l-17,74l-7,49l-2,54l-4,49l4,90l5,22l6,45l10,45l24,78l38,91l7,20l30,57l50,80l50,75l12,24l26,35l4,20l38,78l26,43l22,29l11,10l6,16l33,51l54,80l22,28l42,42l62,50l47,31l62,34l12,10l29,49l19,25l15,11l21,27l32,28l41,31l37,22l17,8l27,20l29,15l18,-1l14,16l30,23l8,10l7,50l15,49l22,50l18,29l22,57l30,57l14,34l31,65l27,77l15,48l10,23l6,30l17,71l28,101l24,59l12,20l28,22l9,-3l31,12l5,9l26,21l3,16l14,18l17,12l14,-5l18,23l-4,12l14,74l22,93l2,16l14,40l7,6l4,20l39,28l16,-4l0,13l-47,-25l5,12l-5,21l-15,8l-11,18l-12,41l-13,51l-6,45l-1,46l2,48l6,57l6,49l11,69l24,92l28,84l26,59l18,37l41,69l46,58l31,33l39,54l14,25l50,39l-3,20l18,52l25,43l31,18l23,-10l13,16l20,14l-7,13l6,11l19,18l10,22l25,30l5,11l-8,11l-11,-6l-13,12l2,27l14,19l0,9l20,18l4,17l-14,11l2,10l-691,-251l-96,9l-88,23l-33,15l-21,-1l-117,-62l-25,-6l-44,5l-204,28l-102,-4l-251,-11h-7l-180,49l-36,15l-33,42l-119,50h-11l-4,17l-27,4l-12,-6l-9,14l-34,-4l-12,5l-9,11l-21,6l-20,-2l-1,17l0,22l13,13l-6,9l-32,1l-19,8l0,10l-18,2l-10,19l7,21l16,19l-5,16l-18,-1l2,23l8,8l-9,16l2,11l-12,13l0,17l17,2l2,11l-14,16l0,18l-27,14l4,26l-17,17l8,13l7,24l13,11l22,10l16,-1l8,13l24,-4l14,14l3,28l-3,11l14,14l-5,22l-32,26l-6,16l6,26l-18,4l-6,38l-10,11l-13,-1l-1,17l13,14l14,36l-20,24l-10,5l-9,18l-32,11l1,15l-40,19l-5,10l15,11l13,2l22,28l-11,42l-24,22l6,32l33,16l3,18l15,1l8,10l32,24l10,1l24,19l7,14l14,9l-23,14l21,14l36,6l9,22l15,8l-1,16l24,28l15,8l5,37l14,8l3,25l16,25l5,19l2,22l-8,8l3,23l-7,27l9,18l4,41l10,13l4,19l12,16l29,17l17,19l9,33l-11,7l18,25l-12,12l-27,8l-28,14l-4,14l7,24l11,15l-3,10l8,49l17,43l13,12l18,23l11,3l28,-31l19,-1l34,18l12,43l20,17l32,12l22,-2l13,-6l15,22l30,3l0,14l13,20l14,12l2,22l-20,18l-4,17l-15,13l10,15l1,13l17,11l-23,21l1,11l-9,11l-3,24l24,26l4,27l16,10l7,14l27,18l8,15l-8,14l8,27l17,11l27,6l26,14l28,7l-4,26l29,54l17,1l8,23l1,33l-8,7l11,17l11,36l-8,27l-1,30l-10,2l-7,27l-11,3l-12,18l-32,12l-23,20l-13,3l-16,17l-35,5l-31,10l-11,21l-20,12l1,13l-26,13l-15,13l-22,-24l-42,-33l0,-11l-23,1l-31,20l-10,16l-22,3l-12,7l-16,-2l-24,6l-13,-26l-19,6l-29,16l37,32l9,23l-4,9l4,19l11,3l8,13l-15,13l-24,51l-16,5l-17,13l0,17l-22,12l-14,31l-14,12l3,19l15,31l-3,33l4,21l-7,15l31,21l16,-4l16,10l21,-8l21,9l4,21l-5,22l-24,16l0,9l23,21l-2,10l-12,10l-14,5l-17,31l-28,18l-21,29l14,10l4,18l23,16l3,21l11,24l-6,17l17,36l-15,36l18,34l-13,25l-11,5l11,42l-17,18l12,11l12,1l14,22l-13,21l-13,12l-1,22l12,12l-2,18l4,29l-18,15l-33,4l-25,-15l-15,8l11,30l22,39l-11,34l8,24l-14,8l-17,-2l-7,9l-27,14l-3,43l-10,19l39,6l1,15l-6,20l13,14l3,12l-9,38l7,14l-14,3l-8,10l-20,11l-11,14l-21,9l-13,19l-16,-3l-8,-14l-50,-28l-17,3l-4,20l7,6l6,23l-2,31l8,13l4,26l-12,17l-20,7l-11,22l-15,9h-32l-13,12l22,32l15,7l14,-6l19,15l-1,36l-14,23l-24,2l-31,28l-36,16l-16,4l-15,-3l-27,-34l-18,-14l-19,-20l-22,-8l3,-18l8,-19l9,-32l-2,-17l8,-16l-1,-30l5,-35l-12,-24l-3,-21l-16,-15l-1,-15l14,-25l27,-28l7,-39l16,-10l-8,-23l-70,-40l-27,-5l-18,-21l-29,-9l-1,-16l12,-20l-3,-19l-15,-2l-16,4l-11,-4h-28l-28,-7l-8,16l-76,-3l-18,-9l-9,2l-21,21l-10,5l-14,19l-6,22l-17,4l-10,-9l-6,-21l-25,-14l-6,15l-3,24l-11,19l4,11l-19,13l-8,29l-15,8l8,24l20,14l6,16l-3,19l3,20l-29,3l-15,-8l-36,-14l-13,1l-15,22l-21,3l-21,-11l-11,21l0,22l-10,11l-5,30l-15,6l-12,-4l-36,8l-2,22l8,2l6,18l-2,15l-25,2l-13,11h-13l0,23l-16,10l-21,-7l-12,7l-13,-14l-22,2l-24,23l-14,5l-13,16l1,11l-15,9l-15,-6l-17,15l-22,7l-7,12l1,20l13,22l1,15l-23,16l-8,23l0,28l22,6l15,25l21,27l3,14l-5,41l-12,18l-36,12l-22,31l-48,-8l-17,-17l7,-30l9,-24l-3,-25l-49,-6l-1,-32l6,-27l-30,-11l-17,5l-14,-9l-2,-27l4,-13l-30,7l-23,-4l-26,-8l-14,-9l-43,-12l-21,7l-12,-16l-19,-17l-20,-3l-14,-9l-41,20l-24,6l-6,26l-21,12l-29,-7l-10,8l-27,12l-8,18l-34,-14l-14,-14l-20,-12l-10,-24l3,-11l20,-17l-6,-20l6,-29l-21,-22l12,-18l2,-13l-5,-38l-43,-13l-44,-6l-25,9l-48,3l-15,-7l-24,8h-37l-18,3l-11,-13l-14,-4l-7,-11l0,-30l-17,2l-11,-9l-23,-2l0,-17l-17,-7l-15,2l-9,-10l-13,5l-7,18l-20,29l-5,18l-15,23l-26,7l-28,3l-25,-16l3,-14l-11,-11l-15,-4l-21,-18l-5,-19l-17,-15l9,-17l-13,-36l-9,-11l29,-22l17,-22l23,-14l7,3l14,-12l9,-17l2,-14l-6,-27l4,-11l20,-16l14,-16l44,-15l-2,-9l11,-17l-6,-15l-27,-17l10,-15l-9,-41l-23,10l-21,3l-18,-10l-9,12l-35,7l-18,-2l-31,-16l-13,3l-5,9l-15,4l-21,-9l-21,3l-10,16l-24,2l-5,-11l8,-25l-11,-27l-22,-34l-23,-23l-7,-3l-24,8l-26,4l-10,8l0,27l-4,20l4,16l-16,8l-11,12l-26,5l-51,-12l-34,42h-8l-14,-28l-23,-23l-42,-9l-22,9l-33,21l-1,30l-30,-4l-7,-13h-31l-1,-45l1,-26l9,-37l9,-17l8,-32l5,-42l-26,3l-36,16l-17,-14l14,-31l-11,-33l-36,-2l-20,-8l-23,-14l-13,-13l8,-8l-15,-23l-18,-1l-4,-8l-18,8l-13,30l-27,3l-41,19l-18,19l-10,42l-18,35l-18,24l-1,8l-20,20l-3,9l-18,15l3,14l-18,6l-38,-5l-3,-12l-17,5l17,28l20,16l27,10l35,8l2,12l-8,22l0,31l-4,14l-22,26l11,33l-4,21l-8,13l5,15l-3,12l7,18l-5,9l9,23l16,24l1,30l19,36l-26,45l-1,12l12,13l-5,26l4,18l23,17l-12,20l5,17l21,6l0,18l-14,23l-2,11l8,17l-10,18l0,28l11,12l21,4l22,12l-8,12l-16,10l-22,5l-24,20l-24,31l-5,24l2,46l23,11l12,12l-25,49l-8,6l8,27l-40,50l-42,5l-18,-4l-8,13l-17,11l-10,12l-4,32l-17,15l-14,2l-7,12l-28,-9l-22,-18l-9,-12l-11,1l-19,18l-3,75l6,16l-6,31l1,11l-50,22l4,21l-3,18l12,36l-8,24l-27,16l13,30l-6,29l-23,21l-4,11l7,18l-18,12l-12,1l-3,48l-4,19l11,18l0,66l-17,34l1,5l-26,39l11,9l3,17l-9,2l-10,17l14,9l-3,29l38,10l5,7l-4,31l15,3l-4,15l10,7l-6,30l42,36l6,12l28,-11l25,30h21l11,7l23,-1l0,21l20,-1l33,-14l8,-27l22,-16l40,25l17,-6l20,-2l19,22l18,-1l19,-15l9,-1l1,34l21,2l10,15l-11,16l5,52l-11,15l-39,6l-9,20l15,8l21,4l6,15l-12,21l-20,12l3,13l-8,23l6,19l13,5l10,-9l11,4l12,18l19,-9l15,11l9,22l-3,16l-16,8l8,18l-11,19l-19,4l-9,7l-3,17l-13,32l-18,14l-15,1l-13,15l-12,6l3,17l-13,24l-23,-5l-22,16l-23,-5l-1,15l-33,25l-8,16l-40,-11l-10,9l-30,3l-36,9l-16,-4l-13,34l-9,4l-1,24l-6,8l5,17l35,40l14,22l26,4l18,17l29,10l-3,8l-27,12l-23,16l-3,10l37,23l-1,24l-23,10l-4,28l-8,28l-29,2l-7,13l-1,19l10,24l18,10l-3,15l-29,24l-21,1l-23,-21l-20,5l-36,-1l-17,-8l-26,-1l-35,-20l-21,-28l-20,7l-13,-7l-21,20l-30,-12l-10,-10l8,-27l15,-12l-3,-12l2,-39l6,-17l-15,2l-9,-26l-17,-6l-7,-17l-23,-24l-23,8l0,14l-23,-7l-14,-18l-52,16l-13,9l-21,4l-1,-15l29,-25l6,-11l-19,-22l2,-10l-14,-8l-17,-16l1,-13l-16,-13l-21,24l-12,-6h-23l-21,-17l-15,5l-20,33l9,11l-2,23l-25,8l-5,30l-14,13l-8,20l-12,15l-2,16l14,11l-7,11l-4,29l8,13l2,17l-8,12l-317,1l-538,1l-761,1h-424l-464,1l-384,1h-524l-17,-13l-3,-12l16,-13l1,-32l-16,-13l-12,18l-37,-46l-7,-18l6,-13l-3,-13l-18,-15l0,-7l18,-32l-24,-7l-7,-8l0,-31l-10,-19l14,-16l-14,-18l-2,-30l-11,-10l4,-18l-12,-25l3,-38l6,-21l-5,-32l-15,-19l-16,-6l-3,-10l-18,-15l-10,-22l2,-14l-8,-20l1,-17l-23,-75l1,-22l-18,-49l36,-6l6,-38l-15,-22l-20,-18l-2,-19l-21,-22l-33,-10l-28,11l-11,-1l-11,-13l-12,1l-22,-12l-12,-3l-24,7l-23,-16l-26,-12l-8,1l1,-37l-9,-14l-28,-13l-2,-19l-32,-10l-35,-3l-9,-18l-12,-2l-44,3l-20,-4l-30,-15l-2,-28l-15,-29l11,-18l-24,-21l-15,2l1,-18l-27,3l-15,-12l-27,-43l-6,-18l-21,9l-14,22l-14,10l-21,-15h-35l-10,-25l9,-18l19,-15l18,-3l3,-22l-7,-8l-1,-38l-19,-9l-8,-13l-22,-5l-17,-33l-16,-13l-7,-24l9,-38l-1,-24l-20,-20l-2,-29l-23,-35l-13,-29l2,-23l-14,-25l23,-20l29,7l51,-10l14,1l27,-23l3,-18l-9,-19l3,-51l25,-38l20,-5l9,-12l-10,-78l22,-11l2,-32l10,-16l-2,-17l12,-20l15,5l5,-25l19,-14l16,1l6,-7h26l12,-11l74,-34l22,-4l23,-13l34,-6l16,-6l17,4l15,-14l32,-7l5,-10l-4,-28l4,-15l-9,-13l6,-11l18,-11l32,-40l-9,-20l-4,-27l-26,-20l-8,-13l11,-63l2,-46l23,-92l-5,-29l-16,-22l-2,-11l17,-42l4,-35l-23,4l-38,-16l-26,5l-25,-19l-22,-10l-80,-8l-45,-19l-4,-17l18,-29l12,-12l-2,-16l11,-36l14,-27l13,-12l3,-22l-2,-32l24,-26l16,-23l9,-40l16,-36l8,-5l-4,-25l21,-38l-3,-26l12,-9l10,-28l-8,-21l7,-14l13,-10l1,-20l26,-27l-2,-50l-4,-13l-21,-20l-4,-24l-9,-14l-38,7l-33,-15l-39,-28l-14,8l-29,-4l-32,-18l-16,-18l-12,-37l1,-20l-15,-32l-35,-24l-8,-23l-22,-102l-19,-25l-14,-29l0,-10l14,-24l-19,-105l-25,-12l-5,-43l-14,-9l-74,-8l-12,-18l-6,-32l-16,-15l1,-31l19,-19l36,-22l117,-35l81,-2l53,6h25l26,17l8,-9l25,-9l-2,-13l-19,-5l-10,-15l6,-37l6,-21l-2,-10l-17,-25l65,-35l27,14l22,-14l16,-4l9,-27l-31,-7l-14,5l-25,-9l-4,-11l-17,-11l17,-48l16,-1l-1,-14l-26,-7l-21,-13l-16,-25l-34,18l-27,2l-20,-6l-5,-8l7,-20l22,-3l14,-14l-10,-8l6,-13l-12,-17l-13,-10l-12,-16l-14,-2l-19,-10l-7,-24l-14,1l-6,-14l-21,-28l-4,-18l-11,-11l-19,-55l-15,-4l-17,2l-12,-23l-15,3l-9,-8l-17,-3l-28,-45l6,-31l-33,-54l-12,-58l-33,-15l-18,-2l-14,5l-23,-42l7,-14l12,-6l30,2l8,-12l-7,-10l-1,-37l-20,-18l-8,-22l-41,6l7,-25l7,-6l12,-42l25,-4l0,-24l-12,-3l6,-32l10,-26l-4,-8l30,-13l-11,-7l-5,-25l10,1l16,-8l1,-15l-8,-9l4,-11l-20,-11l-10,1l2,21l-11,22l-11,-5l-12,13l-7,17l-44,-20l-24,2l-5,13l-20,-5l-13,-13l5,-20l-28,-9l-6,-8l-3,-28l-8,-23l2,-15l-17,-25l-2,-26l6,-27l21,-23l17,-3l7,-10l25,-7l15,5l26,22l26,-12l18,-1l33,20l18,-34l11,9l8,22l38,1l9,-6l20,-72l22,-22l0,-12l15,-5l17,-22l20,-19l19,15l20,-27l32,1l18,-13l13,-3l12,-11l6,-19l51,-36l-7,-7l-13,-33l-13,-18l-1,-12l10,-16l11,-3l13,9l25,-6l27,-14l33,-28l18,10l14,-2l8,14h22l37,9l-4,-16l-29,-15l-23,-17l45,-6l46,-21l10,4l17,-4l17,4l19,22l-1,15l20,4l3,25l11,6l40,-19l31,3l25,-1l23,21l39,-11l20,-2l10,-9l22,-12l47,-11l17,2l7,-21l13,-16l13,11l34,-9l20,-24h13l15,11l5,-32l15,-39l16,-11l-3,-13h23l1,20l18,14l15,3l20,-23l16,-8l6,-10l20,-8l-1,-17l-17,-30l-9,-34l19,-10l26,-6l-25,-28l30,-23l13,-36l-18,-30l-35,-26l5,-16l14,-18l-7,-24l-31,-4l-7,-29l-11,-10l-5,-13l19,-17l12,-25l5,-19l17,-37l13,-21l2,-16l-30,-2l7,-22l3,-27l-5,-11l35,11l7,13l17,-1l27,10l24,-17l21,12l7,18l2,41l25,-18l35,15l14,-5l1,-13l10,-18l31,-6l35,3l6,-9l3,-30l-15,-3l-23,6l-4,-17l-19,-16l-14,-1l4,-13l13,-11l-18,-12l-19,-30l11,-20l-18,-18l-15,1l0,-22l-15,-20l0,-16l-16,-12l-1,-16l7,-11l21,-10l31,-5l14,-8l7,-34l-6,-14l-18,-77l2,-19l-9,-24l-6,-59l-8,-14l1,-16l-25,19l-10,-16l-46,-26l-9,-1l-13,-15l-10,4l-21,-5l-11,-8l5,-16l-6,-13l16,-23l4,-36l19,-34l-3,-32l22,-20l6,-17l19,-5l4,-11l28,-20l16,1l46,-13l24,-14l-3,-39l-5,-35l1,-44l17,-68l-2,-22l14,-33l18,-11l17,-22l1,-19l9,-43l5,-40l-6,-11h-16l-33,6l-19,-25l0,-55l-33,-8l-6,-19l3,-33l-6,-9l-7,-30l6,-19l8,-8l32,-11l33,-24l-10,-10l-4,-24l6,-21l-1,-14h-20l-4,-19l-15,8l-14,-25h-25l-16,-41l-4,-29l13,-41l14,-15l10,-20l-3,-25l26,-20h19l-1,-14l12,-4l-7,-37l-9,-2l-13,-34l-22,-3l-9,-9l-16,-4l-2,14l-11,13l-17,4l-4,24l-13,12l-18,-87l-26,-57l3,-30l9,-6l21,7l29,-8l32,1l15,-9l-2,-26l6,-28l-15,-20l-2,-19l-7,-3l-7,-24l-10,-23l-14,-12l-11,-18l-21,-4l-10,-17l-7,-50l-19,-19l-7,-26l10,-10l-26,-32l3,-16l53,-27l18,-19l25,4l6,16l24,16l22,-12l19,-21l23,18l6,3l17,-15l63,-3l31,-29l0,-21l-13,-6l-27,10l-14,1l-28,-30l-25,-15l-21,-5l-6,-15l6,-12l-8,-16l-18,-20l10,-11l25,-18l28,2l23,-2l4,-12l35,-3l17,-10h15l8,11l-13,13l5,14l-5,35l10,4l28,4l13,5l47,37h18l18,-9l18,-18l15,-36l17,-1l38,9l16,-1l39,-30l9,-25l-2,-10l-21,-28l-2,-15l6,-13l22,-8l11,5l20,36l4,17l16,7l42,8l33,19h11l10,-16l-3,-9l-29,-32l-4,-15l12,-9l18,-4l20,-16l31,-14l25,8l24,-22l-16,-18l-6,-21l5,-6l20,1l13,-5l45,-3l8,-5l11,-15h28l13,-11h28l17,10l32,1l3,6l43,-4l23,-10l37,-13l5,-21l31,-7l34,-21l24,-51l8,-1l32,15l24,4l43,17l19,2l15,11l39,9l22,9l33,8l30,-2l-3,-22l4,-22l-3,-28l2,-27l6,-18l14,-17l2,-16l20,-20l33,-28l17,-4l23,10l20,-4l28,-30l-4,-28l6,-10l-5,-31l26,-12l29,-32l14,13l4,33l11,19l13,5l21,17l6,17M-407519,-209272l2,15l-14,14l-16,-8l-19,-21l2,-17l45,17Z"
     transform="matrix(1.0000005e-4,0,0,-1.0000005e-4,7.2666673e-8,-2.9764816e-7)" />
  <path
     id="3202"
     d="M-399117,-196870l74,41l141,68l29,10l65,33l102,39l38,12l36,17l39,12l96,36l83,21l58,18l29,3l54,15l39,1l25,-3l19,-10l24,9l58,52l-3,29l-1,38l8,37l7,16l7,34l16,34l38,53l28,57l26,45l24,51l58,107l42,84l25,48l14,32l34,67l50,113l67,142l61,155l32,74l53,114l9,32l14,28l24,54l28,53l31,63l28,60l13,33l16,33l39,96l15,30l31,91l17,53l12,56l31,68l29,92l37,87l14,44l38,88l20,63l15,26l22,65l28,89l11,47l5,37l30,109l3,28l9,42l5,54l6,38l8,68l7,37l2,47l7,56l3,38l12,99l12,113l0,98l-3,59l-11,80l-5,22l-5,58l-28,149l-23,133l-40,183l-14,68l-12,78l-7,30l-26,170l-4,36l-16,91l-19,123l-15,117l-5,29l-2,33l-7,27l-3,44l-27,196l-4,42l-5,19l-4,56l-9,85l-8,53l-9,89l-9,13l2,13l-4,13l-5,41l-4,124l-14,40l-8,47l-6,50l-13,64l-3,32l-22,144l-9,90l-12,128l-31,199l-16,107l-6,57l-4,75l-2,87l-16,24l3,20l-10,34l-18,33l-10,36l-9,49l-9,119l-3,139l-2,73l-6,111l-3,20l-6,65l-29,268l-6,74l-6,111l1,102l3,70l6,106l4,154l1,145l4,87l3,86l3,55l4,127l4,54l5,124l-5,103l0,106l4,41l1,58l7,64l2,38l5,36l13,120l1,29l13,95l12,76l10,41l30,116l24,65l26,84l33,88l0,19l4,79l-4,44l-9,34l-10,58l-3,8l0,86l1,66l4,41l3,91l-3,63l1,51l5,113l2,28l8,41l1,32l-2,26l4,48l14,91l23,113l6,34l23,99l36,128l32,99l11,25l33,96l7,14l25,72l37,103l25,81l30,77l23,49l22,62l6,27l20,60l21,53l43,99l37,81l28,54l24,45l17,49l19,38l26,27l-21,23l14,34l-1,13l15,50l9,15l18,40l-6,17l-31,2l-22,16l-11,35l-12,15l-110,36l-23,6l-14,-3l-881,559l-502,320l-369,235l-477,304l-350,224l-733,469l-414,261l-76,49l-738,473l-775,498l-20,12l-41,15l-47,9l-43,26l-15,2l-61,14l-56,4l-11,5l-25,3l-31,8l-47,62l-31,24l-31,12l-23,4l-40,-9l-31,-1l-42,23l-36,33l-9,12l-21,17l-45,23l-3,22l7,20l-5,7l-91,10l-20,-4l-29,-14l-29,18l-19,50l-24,13l-20,6l-39,-15l-20,-1l-14,12l-18,5l-19,18l-27,39l-60,58l-65,13l-50,23l-22,2l-22,-10l-31,-51l-26,-8l-28,8l-33,19l-46,46l-21,3l-10,-4l-32,-43l-52,-9l-87,1l-16,10l-12,26l-26,7l-49,6h-64l-18,-21l-11,-6l-79,-9l-34,1l-20,14l-71,15l-39,16l-22,12l-86,11l-39,14l-33,2l-55,-2l-54,-17l-19,-21l-15,-56h-15l-11,8l-34,47l-79,47l-25,27l-24,45l-26,22l-40,11l-22,1l-30,-10l-25,-23l-48,-10l-27,10l-53,36l-20,23l-15,50l-12,21l-35,33l-51,19l-51,6l-48,-16l-42,-30l-44,-63l-39,-31l-34,-16l-69,-17l-133,-68l-67,-11l-69,2l-32,-13l-5,-30l5,-32l-3,-24l-13,-29l19,-61l-12,-23l-16,-9l-31,2l-26,18l-43,10l-123,-17l-39,-20l-19,-26l0,-14l16,-6l11,-21l0,-31l-19,-16l-26,-43l-42,-33l-6,-19l50,-27l17,-14l10,-18l-10,-18l-36,-20l-31,-27l-24,-29l-10,-31l14,-67l-9,-34l-14,-20l-42,-8l-72,14l-51,-16l-33,-15l-30,-37l-25,-67l0,-29l-7,-7l-31,-10l-41,-23l-19,-23l-7,5l7,-28l-5,-28l12,-16l6,-21l-1,-22l14,-20l42,-10l17,-7l7,-18l27,-29l41,-8l48,-4l23,-21l12,-15l4,-17l-9,-18l6,-20l14,-27l9,-25l20,-11l12,-13l7,-20l10,-71l17,-45l1,-31l-27,-46l-3,-18l7,-19l7,-3l46,-2l21,-17l23,-32l13,-23l49,-70l7,-16l-2,-26l-17,-32l-6,-17l3,-21l26,-48l16,-10l25,13l39,42l23,18l20,1l19,-26l10,-35l15,-19l33,-15l16,-2l23,6l7,8l44,88l22,15l16,15l15,2l19,-17l14,-18l26,-21l39,-28l104,-96l16,-24l0,-24l-30,-62l-19,-28l-6,-16l-1,-19l4,-21l15,-38l0,-34l-3,-28l-12,-22l14,-33l-13,-18l-13,-29l62,-43l15,-5l-5,-23l-15,-21l-1,-15l14,-27l31,-2l-3,-42l-11,-19l-3,-16l-12,-17l11,-27l22,-21l-11,-20l16,-30l1,-26l9,-33l-1,-16l25,-30l6,-16l25,-10l2,-37l-34,-64l6,-29l-6,-17l-18,-10l-9,-25l7,-22l-16,-15l8,-29l-12,-23l37,-19l-35,-22l-18,-4l-8,3l-32,-1l-313,-295l-287,-270l22,-37l20,-12l1,-11l38,-54l3,-17l14,-49l-12,-10l3,-44l-6,-29l11,-24l-1,-26l-6,-14l10,-18l-2,-19l15,-31l15,-21l10,-34l-1,-33l-4,-7l11,-21l-2,-20l25,-24l3,-18l19,9l2,25l7,9l25,10l33,-10l19,-15l21,2l39,15l21,5l29,-5l34,-27l35,-22l-8,-38l-17,-6l-61,-28l-6,-8l22,-36l-9,-26l1,-46l-9,-14l-7,-32l12,-17l11,1l16,21l6,16l21,32l8,5l31,6l20,23h14l19,-9l28,-7l10,-10l27,-12l29,10l17,18l32,12l7,-1l15,-27l14,-8l10,6l-5,31l21,1l30,-10l31,6l18,-1l20,-9l-9,-11l-24,-2l-8,-12l2,-25l24,-26l15,12l18,7l34,-2l22,16l15,2l19,-12l-1,-30l14,-19l19,-18l18,-25l3,-27l38,-36l5,-22l26,-19l23,-9l26,-39l23,7l28,-5l20,-12l20,4l29,12l10,-17l3,-13l17,-16l-1,-22l5,-20l3,-38l4,-11l19,-14l-8,-23l0,-24l26,-12l41,-23l10,2l15,19l59,-7l70,17l17,-16l51,-2l19,15l36,-1l13,-14l52,53l-361,293l7,110l49,-17l32,-22l17,-19l2,-20l12,-17l25,-2l28,22l27,-2l20,14l27,5l28,-15l17,-15l12,2l21,24l10,28l23,19l17,5l48,45l13,8l20,-9l10,-12l29,-3l27,32l26,-3l26,-9l11,-16l33,-12l15,-1l13,-21l8,-21l25,-6l17,-28l27,-11l5,2l24,-26l3,-26l26,-21l9,-14l38,-16l15,-11h27l12,18l43,16l29,-1l25,6l16,12l34,-4l14,-15l49,23l11,-5l24,6l7,11l37,9l23,9l13,-1l12,-10l36,5l22,-9l7,11l39,-7l25,-48l22,8l15,-18l-4,-8l20,-31l31,1l-2,-13l26,-10l11,12l11,-36l-9,-23l2,-17h25l40,-27l10,-3l26,-26l5,-23l-6,-14l7,-6l-3,-17l45,-28l2,-24l10,-14l11,-35l-5,-14l1,-18l16,-27l-2,-21l7,-7l6,-21l-5,-23l20,-61l-5,-14l6,-15l30,-9l8,-10l25,-2l30,3l1,-9l20,-10l-4,-13l23,-16l0,-12l-27,-65l1,-25l11,-14l15,3l-1,-23l26,-20l14,-22l22,1l7,-26l11,-11l40,-54l10,-27l-7,-27l14,-26l11,1l7,-18l14,-6l3,-16l41,18l21,-10l-1,-7l15,-21l37,-25l7,-12l34,-11l10,-23h18l22,-13l65,2l6,-3l37,9l22,-8l14,-11l12,10l36,-1l17,-7l39,19l20,-1l22,-10l30,9l51,2l17,5l18,20l13,-8l17,-1l30,9l19,2l48,-1l11,10l25,8l23,-4l23,5l17,16l19,12l32,7l19,11l5,12l38,26l4,15l17,3l13,17l28,22l36,20l0,6l29,-3l21,-8l20,9l2,23l49,-17l27,1l26,-13l10,10l12,-17l11,-6l10,7l20,2l21,-5l11,-13l37,-14l10,-9l5,-19l41,-13h24l16,-7l5,-9l40,-8l3,-8l23,-13l47,-2l7,-10h33l32,-8l-37,-40l-11,-16l-18,-13l-16,-21l-21,-4l-12,-17l-30,-7l-7,-15l-16,-8l-14,1l-19,-22l-30,-14l-21,-21l-25,-10l-18,3l-11,-6l-27,-5l-10,-10l-2,-18l-21,-26l-31,-20l-11,-29l2,-13l-2,-29l9,-21l3,-51l17,-15l6,-13l-8,-22l-14,-15l-9,-20l5,-30l-5,-11l-24,-18l-412,-253l10,-113l-27,-2l-32,4l-25,16l-16,28l-16,2l-19,-24l-3,-19l10,-39l-20,-1l-18,22l3,30l-11,14l-20,1l-11,-4l-9,-22l-10,-5l-25,5l-11,-3l-38,15l-32,4l-2,8l19,20l-2,13l-11,17l-28,13l-24,31l-2,17l-10,3l-36,-6l-17,1l-10,10l-18,8l-54,-19l-35,-9l-24,-13l2,-18l30,-23l-1,-9l-15,-4l-18,7l-25,4l-16,-3l-20,-16l-18,-4l-10,5l-3,19l-7,10l-18,3l-46,-28h-18l-174,-499l-172,-491l-175,-500l3,-24l-7,-10l-37,-19l-12,-10l-18,-1l-9,-14l1,-30l-16,-26l-17,-35l-6,-27l-47,-26l-21,-19l-12,-18l-18,-5l-39,-25l-30,-33l-13,-7l-7,-14l-21,-21l-19,-9l-33,-24l-17,-19l-3,-9l-19,-13l-5,-18l-19,-5l-11,-14h-8l-20,-10l-21,-5l-18,-25l-27,-9l-12,-18l-23,-18l20,-56l-2,-26l10,-18l-4,-10l5,-33l-8,-30l26,-17l19,-5l15,1l8,-12l-60,-18l-6,-26l-21,-30l-11,-5l10,-42l10,-16l0,-16l-10,-34l-38,-16l-18,-18l-30,-13l-6,-9l5,-38l-18,-20l-7,-21l16,-33l9,-7l6,-25l3,-32l12,-11l-2,-33l-5,-22l29,-12h33l21,8l8,10l21,8l34,2l11,13l19,-8l42,-6l8,-8l11,3l6,22l34,-2l10,-18l25,2l18,10h25l15,-6l24,13l8,11l24,-12l6,14l16,8l33,-2l14,-15l23,1l25,21l32,-20l3,-15h15l13,8l28,-10l7,-20l42,8l19,30l25,-15l9,6l12,-10l31,-16l17,9l21,-7l39,11l5,7l19,2l9,11l26,1l8,-8l22,7l63,9l23,-13l25,18l17,28l3,12l12,5l25,-11l10,-12l23,3l34,-7l12,8l0,17l15,17l28,23l24,5l20,-16l26,15l20,4l14,-6l27,5l34,-15l7,-24l15,-5l-3,-18l33,-12l11,-21l4,-24l-5,-36l17,-18l-4,-22l11,-4l0,-15l7,-23l8,-9l7,-26h23l2,11l27,5l18,11l9,-15l25,-3l7,-22l22,-12l8,4l18,-19l26,-14l16,-22l17,-34l28,-25l26,-7l20,2l19,-9l15,6l5,10l16,4l33,-21l5,10l35,-34l12,-30h14l8,-14l-12,-19l11,-16l-15,-14l5,-34l15,-21l-4,-16l7,-15l-5,-18l-23,-16l2,-16l11,-22l-127,-278l-233,-512l-216,-473l-244,-425l-38,-41l-18,8l-28,-17l-26,-9l-56,-30l-26,12l-26,-2l-33,12l-41,2l-8,14l-13,4l-19,-12l-9,15l-16,10l-9,24l-12,-10l-17,4l-38,-8l-15,-8l-14,6l-16,-3l-8,-8l-15,-2l-42,16l-6,-2l-10,-24l-24,-29l-31,-7l-3,13l-23,12l-4,14l2,23l-4,37l-11,9l-17,-3l-33,25l-8,10l5,16l-8,8l-24,-6l-29,18l-10,-9l-14,-22l-28,-28l-10,-39l-32,-31l0,-1l11,-17l29,-2l12,-8l28,-32l11,-37l8,-45l-1,-23l-15,-10l-24,-9l-21,-19l-14,-25l-28,-25l-23,-15l-17,-6l-30,-32l-15,-5l-12,-15l-29,-26l-16,-31l-28,-21l-13,-15l-28,-53l-32,-32l-13,-25l-13,-37l-26,-17l-15,-15l-48,-13l4,-36l1,-37l3,-19l23,-1l32,20l46,-3l33,-23l8,-15l-7,-32l12,-32l-52,-10l-25,-9l-15,-16l-5,-33l4,-18l-9,-37l-5,-11l-6,-32l-10,-19l-16,-18l-27,-17l-4,-11l1,-41l-3,-26l4,-11l15,-11l26,-10l20,-16l13,-37l17,-13l-5,-17l-16,-18l-7,-15l-2,-23l-28,-21l-19,-21l-9,-17l-24,-5l-36,9l-13,-5l-33,-34l-2,-18l22,-7l18,-11l5,-9l-16,-35l-3,-32l-18,-30l-4,-51l17,-45l-16,-19l-22,-8l-13,-13l-8,-20l1,-33l-8,-22l-29,5l-36,-2l-16,-28l1,-15l33,-38l11,-5l4,-5l0,-28l-26,-30l-27,-3l6,-27l-23,-8h-19l-14,-13l14,-28l7,-35l12,-1l24,-39l-7,-25l-19,-8l3,-40l-3,-15l-35,-22h-15l-11,-8l-14,12l-12,-5l-16,18l-8,22l-9,6l-29,2l-5,33l1,12l-5,20l-15,4l-38,-7h-30l-25,-49l-1,-24l-15,-6l-17,4l-27,-26l-9,-17l-3,-18l-10,-3l-13,21l-20,2l-17,-8l-6,-13h-11l-10,11l-6,27l-18,5l-11,14l-24,10l-20,-13l-22,-7l8,-30l1,-24l-13,-39l-20,-7l-10,-11l-37,-5l-16,-15l-24,-16l-23,-10l-15,-18l-25,-10l2,-22l-15,-19l-2,-16l-2,-19l14,-20l-11,-25l-15,-3l-9,17l-14,-2l-8,-22l-10,-45l-37,-3l1,-23l-25,-12l-23,-20l-10,2l-12,-11l-10,-34l-17,-18l-11,-4l2,-19l-15,-19l-4,-17l13,-27l11,-7l25,-2l24,2l21,9l35,24l24,-4l27,-30l19,-35l20,-10h20l15,-7l23,-25l1,-16l-10,-15l8,-7l32,2l32,-15l7,-17l20,-33l-15,-12l-2,-16l9,-25l20,-19l17,1l13,25l14,9l24,-10l18,-1l13,12l3,24l12,10l12,-4l7,-13l18,-20l9,-27l39,-34l2,-12l-11,-8l-21,-3l-10,-10l-3,-26l-12,-16l2,-17l20,-23l13,-4l19,-14l50,-22l10,-23l22,-5l37,-45l12,-34l16,-14l28,-2l11,-8l-6,-19l5,-26l13,-21l-16,-19l-12,-22l-11,-32l12,-24l23,-15l21,-3l25,-20l1,-15l25,-17l15,-2l19,11l15,-9l2,-23l12,-29l15,-19l30,-6l20,-11l0,-12l-16,-10l-38,-13l-18,-13l-11,-22l-5,-31l-7,-10l-20,-42l19,-36l-5,-26l-6,-16l30,-8l16,-22l12,-8l22,-5l12,-8l1,-19l-7,-45l21,-27l5,-13l-6,-44l13,-36l14,-15l4,-15l-4,-21l4,-23l-7,-12l2,-35l21,-5l15,-18l1,-26l56,-23l19,-19l11,-45l21,-18l27,2l21,7l12,10l17,-3l20,-24l9,-2l42,20l11,-7l9,-18l26,-5l41,10l11,-7l8,-28l43,-52l5,-18l20,-19l9,-14l48,-37l15,-28l15,-11l21,-50l12,-28l-2,-17l7,-8l2,-45l21,-32l1,-13l-17,-20l6,-29l-6,-11l-35,-19l-30,-4l-30,-7l-53,-22l-25,-4l-6,-24l1,-29l5,-34l-7,-34l15,-26l22,-18l6,-12l19,-17l-3,-26l10,-13l29,-3l2,-29l19,-26l18,-17l2,-15l18,-7l12,-13l-22,-9l-13,-10l13,-11l-7,-15l9,-17l3,-29l17,-65l21,-49l-9,-15l-15,-4l-4,-9l-17,10l-16,-2l4,-13l-6,-23l-422,-188l-445,106l-26,-18l-19,-3l-8,6l-31,-28l-13,-24l0,-22l-10,-3l-12,-17l-22,-6l-21,10l-20,-5l-9,25l-23,-3l-12,-7l0,-34l-12,-13l-17,6l-9,-10l1,-21l16,-44l-28,-1l-12,-6l-18,6l-17,-10l-19,-4l-7,-7l8,-23l2,-17l-15,-16h-12l-25,20l-13,-37l-15,-10l-32,-32l-1,-16l-25,-16l-6,-20l-17,-17l-11,-24l-8,-2l-17,-26l-106,-380l18,-6l22,-30l6,-20l2,-22l14,-51l17,-15l12,-26l0,-34l-16,-23l5,-24l1,-28l6,-11l6,-13l-21,-10l-6,-44l-7,-6l-6,-43l-9,-11l-11,-59l4,-11l-11,-22l-5,-58l3,-10l-4,-29l-13,-23l5,-6l-4,-36l-1,-34l-11,-13l-31,-4l-12,5l-9,-10l6,-22l0,-41l6,-10l-10,-21l7,-24l10,-13l11,-29l-4,-21l14,-18l3,-12l19,-6l32,-46l11,1l12,-12l70,-156l91,-224l25,-23l5,-20l-3,-30l-11,-8l-5,-21l0,-17l-5,-37l20,-22l3,-14l-10,-15l0,-18l26,-40l16,-5l12,-16l15,-38l17,-15l40,-14l21,-65l18,-13l1,-9l34,-20l15,-35l20,-12l22,-2l1,-15l17,-55l-17,-15l9,-16l21,-24l-1,-199l20,1l14,9l15,1l15,14l39,1l23,-4l10,-9l17,1l27,-5l6,-5l31,-6l-4,-34l7,-59h-20l48,-27l4,-5l-9,-17l11,-27l0,-17l-13,-26l-12,-11l5,-66l-2,-25l7,-23l-6,-11l5,-43l10,-42l8,-20l3,-29l10,-1l-8,-23l11,-71l30,-19l6,-12l25,-9l10,-10l26,-10l42,-25l3,-14l15,-4l10,-14l18,-1l17,-20l20,-4l5,-16h23l17,-21l25,6l9,-8l-3,-26l13,-10l36,-18l16,2l18,11l29,8l22,-1l29,6l13,-2l17,12l12,-4l24,5l23,-2l25,-6l30,11l16,-24l12,3l8,-24l34,-8l-5,-10l15,-13l13,5l16,-8l20,-4l5,-17l14,-10l8,-33l-3,-8l13,-24l9,-30l12,-29l10,-17l31,-11l17,-11l23,-7l-1,-32l20,-6l3,-14l11,-12l21,5l24,17l12,-5l20,10l-12,12l11,28l16,-3l8,30l20,16l8,13l31,8l7,-16l12,14l22,11l28,6l7,9l28,12l7,12h11l20,16l13,3h38l10,-9h18l11,13l13,-1l125,31l15,9l-7,20h42l6,-11l14,11l13,-3l25,-22l14,15l14,7l15,-18l5,-16l29,-9l21,-31l24,-12l28,27l7,1l25,-26l29,8l-17,-28l-8,-24l19,-12l16,2l29,20l30,8l6,31l13,-5l31,-65l4,-21l16,-6l11,5l19,21l-1,22l-8,17l12,16l10,4l20,-3l20,-15l15,-34l-5,-35l20,-9l22,5l14,-9l5,-19l28,-12l21,14l30,8l9,8l-9,24l-17,19l-4,19l7,19l23,11l12,-6l3,-18h26l23,13l17,24l-5,9l-20,1l-5,16l5,18l-3,13l7,10l19,6l10,12l11,-1l33,-50l24,13l25,3l13,-20l32,-9l63,-5l11,-5l13,-24l30,-25l43,-2l16,-18l5,-18l19,-31l11,-30l-7,-12l-31,-12l-12,-29l7,-44l16,-4l9,10l9,14l13,42l19,40l20,32l21,20l13,6l36,5l12,8l38,11l23,-5l9,-7l17,-2l0,12l51,-20l7,10l19,6l22,14l-4,37l9,11l-1,21l6,34l-11,16l-4,33l11,42l19,31l19,13l14,28l18,24l21,1l10,45l14,11l-16,36l3,18l-5,32l16,43l9,11l34,18l16,63l13,16l-3,14l18,29l17,13l-2,21l19,23l15,2l8,11l-6,19l-2,21l-16,26l-17,14l-22,11l-17,29l-12,3h-43l-11,-6l-25,1l-36,10l-6,6l9,29l34,39l13,8h29l27,9l11,19l14,11l21,-4l23,4l33,48l34,25l36,11h16l29,13l21,-3l19,11l10,20l29,25l56,28l55,23l26,25l6,18l1,18l12,28l1,28l-6,11l-3,29l20,33l19,11l15,17l-3,19l4,19l13,19l24,11l-3,32l17,25l7,31l11,19l14,35l12,12l3,12l28,21l25,8l17,41l15,15l17,22l21,23l16,10l7,11l11,30l23,27l9,18l26,39l11,9l-17,23l-4,21l2,15l18,23l22,7l23,-35h17l-1,38l-7,12l-15,2l-11,14l1,17l-9,21l2,16l-4,27l18,50l1,32l20,55l28,46l25,37l44,58l81,96l70,78l49,52l98,100l72,68l119,111l72,65l111,95l61,51l37,33l75,53l20,16l109,79l82,64l76,50l131,84l71,42Z"
     transform="matrix(1.0000005e-4,0,0,-1.0000005e-4,7.2666673e-8,-2.9764816e-7)" />
</svg>
