<?xml version="1.0" encoding="UTF-8" standalone="no"?>
<svg
   version="1.2"
   width="1080"
   height="1080"
   viewBox="-38.7656 6.0259 3.9724000000000004 2.277100000000001"
   stroke-linecap="round"
   stroke-linejoin="round"
   id="svg7"
   sodipodi:docname="PBMeso.svg"
   inkscape:version="1.2 (dc2aedaf03, 2022-05-15)"
   xmlns:inkscape="http://www.inkscape.org/namespaces/inkscape"
   xmlns:sodipodi="http://sodipodi.sourceforge.net/DTD/sodipodi-0.dtd"
   xmlns="http://www.w3.org/2000/svg"
   xmlns:svg="http://www.w3.org/2000/svg">
  <defs
     id="defs11" />
  <sodipodi:namedview
     id="namedview9"
     pagecolor="#ffffff"
     bordercolor="#000000"
     borderopacity="0.25"
     inkscape:showpageshadow="2"
     inkscape:pageopacity="0.0"
     inkscape:pagecheckerboard="0"
     inkscape:deskcolor="#d1d1d1"
     showgrid="false"
     inkscape:zoom="0.7537037"
     inkscape:cx="540.66339"
     inkscape:cy="540.66339"
     inkscape:window-width="1920"
     inkscape:window-height="1001"
     inkscape:window-x="-9"
     inkscape:window-y="-9"
     inkscape:window-maximized="1"
     inkscape:current-layer="svg7" />
  <path
     id="2501"
     d="M-375718,-74891l149,93l81,3l62,12l95,53l51,77l-11,94l2,24l15,51l44,48l13,41l20,28l55,37l0,39l-14,15l49,71l37,8l13,5l31,63l13,14l10,29l55,85l1,11l77,39l-6,57l-43,31l-5,37l-57,115l1,43l20,20l97,27l41,7l30,14l133,20l136,-23l22,2l26,-9l86,11l52,12l19,20l15,30l15,11l33,-3l100,-88l28,-2l24,12l22,26h14l48,-9l65,3l97,20l133,61l78,45l68,54l63,22l20,15l1,19l-65,94l-14,26l3,21l15,19l34,23l169,218l26,53l20,14l24,2l53,-10l24,-14l65,11l83,2l26,5l63,3l85,1l15,24l48,71l42,36l25,9l146,1l77,-7l34,8l77,11l77,-9l63,-56l52,-66l85,-52l90,-5l32,-10l53,-19l57,-55l80,-62l61,-32l34,-62l50,-42l9,-41l-5,-79l28,-46l82,-16l63,37l59,-5l36,-63l60,-54l73,27l64,-69l78,-4l71,-26l48,-27l46,26l52,-34l65,-9l28,-41l36,-29l63,-30l22,-60l4,-59l9,-22l20,-10l142,39l10,10l129,474l119,441l154,35l-27,346l-107,304l-98,297l149,-22l4,-16l16,-12l20,7l29,16l16,-7l9,38l27,9l31,20l14,-2l24,5l35,29l22,11l19,4l23,-6l40,5l32,17l11,3l21,-6l23,7l28,-11l24,22l32,6l14,-5l48,5l16,-2l23,3l14,9l11,27l8,1l31,-9l31,4l24,-8l23,3l19,9l12,-9l89,15l35,230l45,265l16,21l16,1l2,14l-4,29l-24,-3l-14,56l-21,10l-21,-4l-8,7l17,20l49,3l10,11l16,35l2,31l12,21l-9,20l-1,31l12,16l-16,26l19,27l17,36l19,13l17,6l-72,281l-199,118l-18,-24l-116,-33l-126,-53l-103,-65l-62,3l-53,-40l-67,12l-62,55l-20,33l-19,2l-86,21l-38,5l-46,4l-46,30l-22,10l-25,2l-58,24l-117,17l-60,2l-26,3l-10,17l-3,32l8,31l26,40l20,16l-2,14l-13,17l-70,28l-38,6l-35,19l-12,32l-11,8l-18,-4l-53,-33l-57,-45l-61,-1l-106,-4l-21,19l-41,52l-32,15l-38,3l-55,9l-32,12l-37,31l-8,39l-123,28l-19,20l-18,29l-57,42l-35,19l-47,7l-139,70l6,29l-20,81l-14,1l-12,9l-5,22l-23,38l-9,9l-2,14l17,29l0,28l24,41l-2,14l19,44l15,15l-3,24l-38,22l-14,11l-10,16l-18,20l-29,10l-60,-7l-33,8l11,14l51,30l70,37l26,7l0,29l-7,20l-17,14l-34,12l-33,2l-48,-3l-53,-9l-27,2l1,17l27,5l16,10l12,21l-5,18l-13,19l-26,25l-44,7l-26,-5l-34,13l-29,16l-9,185l-89,443l-113,176l-10,2l-13,10l-192,125l-13,70l12,47l-20,66l-34,54l31,35l4,9l-2,26l-6,9l-72,62l-59,28l-13,11l-16,26l22,20l23,28l1,15l10,25l3,25l10,29l-10,26l7,24l-7,36l27,35l11,25l-2,35l5,23l-79,36l-81,44l-57,79l-46,33l13,65h12l40,126l-306,49l-177,-91l-64,-25l-43,-6l-107,-1l-91,7l-50,-6l-109,8l-54,-1l-45,7l-74,-6l-43,7l-73,25l-486,-81l-288,-47l27,54l39,94l21,62l50,87l1,8l-13,18l-28,32l-2,17l44,35l26,37l11,20l9,36l-74,107l-28,45l-8,29l-2,45l29,195l-15,98l-28,8l-16,21l7,53l-4,57l16,91l-1,69l38,137l-12,18l-27,10l-19,19l-13,26l-10,39l-2,29l7,27l87,101l56,37l34,12l281,-5l154,-1l19,1l36,13l40,24l117,100l31,53l7,17l4,24l23,379l18,97l7,97l30,42l4,35l18,36l46,44l-5,20l-11,15l-16,8l-8,12l-4,30l-10,26l-25,23l-67,36l-17,20l-2,18l22,64l-17,48l11,40l25,41l48,60l6,38l-3,75l61,63l49,41l12,135l-15,49l-3,39l8,26l53,79l14,39l38,52l3,18l31,34l84,49l39,29l81,23l82,33l8,5l36,20l22,31l67,204l16,22l29,19l19,5l53,4l56,-5l32,-13l142,-27l81,-2l40,11l16,14l2,51l-6,51l5,66l24,115l58,81l53,58l80,113l64,59l44,17l64,56l7,2l209,42l111,32l38,32l36,43l7,23l0,116l6,12l44,24l76,-2l67,8l85,97l22,42l11,63l11,24l44,50l-9,-2l-31,5l-41,-18l-14,1l-25,31l-17,5l-7,10l-5,29l-17,11l-2,12l-14,19l1,39l33,77l7,105l8,25l18,38l14,34l2,18l-9,28l-39,45l-11,25l2,36l20,90l-1,31l-7,62l-27,127l-16,93l1,20l16,49l-29,-15l-26,-5l-149,20l-20,8l-10,13l-14,35l-16,21l-19,15l-22,6l-43,-3l-47,-28l-30,-12l-33,-1l-30,5l-13,10l-10,18l-27,70l-22,34l-20,13l-114,7l-73,10l-32,-7l-27,-19l-15,-32l-4,-24l-34,-31l-8,-13l-1,-39l-9,-40l-32,-47l-32,-31l-25,-15l-49,-16l-49,-9l-46,2l-87,79l-24,5l-26,-7l-86,-75l-105,-22l-55,-25l-36,-22l-70,-28l-32,-29l-38,-53l-44,-47l-72,-61l-25,1l-147,36l-13,-2l-59,-21l-35,-5l-25,-16l-11,-21l-3,-55l-38,-96l-22,-38l-14,-12l-52,-20l-90,-14l-36,13l-146,25l-66,-11l-17,1l-3,-7l-72,-15h-39l-82,-79l-8,-53l2,-51l-4,-27h-38l-2,-118l-214,-53l-27,-14l-64,73h-140l5,-77l-190,3l-49,1l-96,-11l-36,-131l-207,14l-89,91l-39,-23l-12,-20l-76,-18l-26,-11l-50,-33l-71,-62l-29,-19l-43,-13l-120,-9l0,5l-45,-4l-178,-37l-17,-18l-26,-55l-17,-13l-22,-10l-77,-4l-87,-12l-101,4l-70,15l-87,22l-70,-4l-23,7l-19,15l-40,55l-21,22l-13,5l-15,-1l-74,-22l-157,-56l-103,-42l-34,-20l-34,-28l-43,-47l-11,-17l-3,-19l28,-70l2,-25l-12,-28l-30,-28l-15,-5l-45,-2l-17,-10l-118,-124l6,-14l98,-14l24,-12l12,-10l4,-22l-2,-11l-17,-15l-27,-12l-44,-8l-64,-28l149,-70l12,-12l0,-17l-19,-29l-71,-59l-10,-10l-9,-25l0,-50l14,-22l44,-29l29,-44l37,-29l9,-11l7,-27l-9,-20l-38,-8l-28,-1l-68,13l-93,1l-78,7l-57,11l-29,-4l-57,-19l-39,3l-34,-7l-17,-10l-41,-40l-78,-93l4,-20l8,-7l61,-23l22,-13l2,-16l-5,-12l-17,-11l-62,-16l-60,-17l-27,-10l-23,-13l-65,-50l-23,-32l-7,-31l3,-27l12,-14l74,-45l-10,-40l-38,-41l-35,-25l-15,-21l-2,-18l9,-15l25,-16l3,-20l-9,-17l-39,-17l-55,-3l-33,-13l-47,-81l-9,-5l-26,4l-97,53l-27,8l-85,14l-43,29l-10,-10l-5,-53l6,-168l12,-20l21,-9l9,-16l-5,-23l-14,-30l-20,-25l-21,-6l-37,12l-28,3l-21,-2l-26,-9l-92,-66l-87,-53l-35,-31l-13,-46l-19,-18l-20,-5l-46,-16l-57,-8l-39,-1l-31,15l-40,46l-58,99l-4,32l2,67l-52,-23l-25,-3l-26,-16l-23,-27l3,-111l-10,-25l-24,-37l-80,-43l-43,-14l-56,-5h-21l-62,21l-55,-15l-39,-1l-70,7l-11,-14l4,-16l48,4l12,-11l2,-11l-39,-61l-34,-37l-42,-26l-1,-23l71,-214l-16,-11h-13l-32,11l-30,-2l-17,-16l-16,-32l-17,-15l-27,-10h-47l-32,6l-32,22l-3,27l22,38l23,49l1,16l-7,29l-69,51l-6,27l14,33l-3,27l-19,19l-10,5l-34,-1l-18,-14l-4,-10l-1,-28l-20,-75l-10,-2l-27,11l-15,-3l-14,-14l-4,-39l-9,-10l-52,-11l-31,-23l-7,-11l-25,-43l-22,-51l-27,-23l-8,-12l-23,-67l-16,-24l-26,-23l-45,-28l-53,-26l-5,-25l0,-29l-7,-65l-5,-26l-9,-14l-43,-24l-38,-50l-71,-44l-39,-14l-31,3l-48,5l-82,19l-23,15l-17,30l-9,27l-10,69l-23,37l-37,80l-28,27l-11,-2l-77,-46l-18,-1l-13,-22l-26,-4l-19,14l-47,-24l-185,8l-42,6l-19,15l-25,37l-31,38l-14,13l-51,13l-60,6l-159,25l-14,6l-66,24l-36,6l-25,-5l-56,-42l-36,-7l-20,3l-36,22l-49,-19l-22,-43l-62,-50l-27,-15l-51,-14l-39,-22l-72,-61l-13,83l-7,17l-30,43l-3,19l-35,22l-32,-13l-56,-13l-35,4l-22,5l-21,16l-24,63l-3,35l-15,37l-7,10l-38,25l-15,16l-18,41l-23,39l-23,18l-21,7l-38,-5l-14,-14h-13l-45,34l-48,10l-66,-15l-58,-48l-4,48l-10,24l-14,12l-49,-20l-38,-5l-12,3l-11,18l7,48l-6,32l-16,46l0,10l14,18l-2,12l-27,5l-41,48l-7,16l-4,57l-15,26l-37,33l-33,27l-61,43l-17,21l-24,2l-171,-23l-27,-8l-23,-11l-22,-3l-11,3l-24,22l-22,12l-66,5l-19,19l-14,33l-35,2l-29,11l6,35l-14,53l-20,18l-13,3l-35,-4l-102,-35l-86,3l-78,-19l-29,-14l-14,17l21,46l10,36l3,84l-12,61l-27,41l-32,28l-3,20l7,27l12,18l55,50l42,72l29,37l115,86l52,49l9,20l-77,-11l-38,-27l-26,-2l-11,10l-29,-6l-98,-74l-79,-36l-62,-74l-14,-9l-25,-30l-19,-4l-59,43l-18,34l-13,16l-27,15l-69,5l-78,35h-12l-48,-31l-64,2l-2,-23l-23,-24l-23,-14l16,-11l31,-9l0,-11l-76,-8h-77l-21,-11l-42,-14l-7,-44l-18,-6l-48,2l-21,-8l-10,-15l12,-36l31,-34l6,-20l-9,-17l-30,-5l-35,11l-34,3l-9,-4l-12,-18l-31,2l-43,-22l-7,-32l-17,-52l-40,-6l-18,-8l-13,-16l2,-21l77,-52l30,4l39,22l36,-21l21,-3l4,-9l-13,-27l14,-15l33,-11l57,-12l29,12l37,28l10,4l56,-6l38,1l35,20l28,-7l39,-34l21,3l46,27l18,3l28,14l13,33l14,12l14,2l31,-18l18,-14l-3,-51l59,-45l10,-11l0,-19l-19,-6l-37,21l-10,1l-55,-51l-40,-55l-22,-22l-22,-14l-42,-15l-44,-42l-47,-32l-26,-26l-11,-47l-6,-43l2,-33l-6,-25l-106,-45l-28,-28l-7,-33l11,-58l-10,-62l-54,-78l-28,-33l-37,-41l-127,-150l-36,-34l-33,-19l-45,-15l-20,-32l-39,-28l-7,-15l-1,-55l-25,-31l-5,-48l7,-8l19,-7l16,-12l14,-15l11,5l23,23l-13,-24l-38,-64l-49,-36l-48,-72l-47,-39l-3,-17l12,-15l0,-18l-15,-18l-17,-11l-31,-8l-6,-7l2,-41l-7,-27l-56,-75l-24,-20l-18,-25l-1,-9l75,-52l26,-26l18,-38l14,-43l5,-66l-29,-34l-67,-48l-60,-28l-19,-4l-9,-68l-15,-48l-18,6l-23,-23l-21,-12l-15,-61l-3,-57l38,-15l14,-40l25,-42l10,-3l14,-19l10,-61l-4,-21l-56,-108l-9,-1l-27,10l-38,-17l-21,1l-9,-13l18,-36l-8,-6l-31,-8l-5,-9l0,-29l-31,-46l-14,-39l-27,-30l-10,-17l1,-34l31,-19l-25,-37l-12,-18l3,-16l36,-26l5,-26l28,-22l2,-28l8,-13l6,-30l8,-7l16,2l28,-15l13,-25l24,-16l2,-7l-12,-22l-3,-28l-5,-13l6,-23l-3,-13l20,-50l30,-18l11,-38l14,-8l-9,-24l-10,-9l-5,-16l-3,-27l21,-21l33,-13l49,-3l21,-5l9,-19l-1,-21l7,-10l42,-9l42,-64l14,-14l28,-9l27,-18l34,-1l62,-19l-11,-47l-14,-28l-5,-34l-17,-8l-32,17l-51,16l-31,-4l-55,1l-25,-5l-11,-13l21,-42l-3,-18l14,-8l3,-9l-5,-38l-15,-9l-20,3l-12,12l-13,-14l-8,-20l-19,-2l-12,6l-10,-5l-1,-23l-12,-11l-13,3l-23,-13l-23,-23l-23,-19l4,-13l-13,-11l-11,3l-33,-44l-41,-41l-20,-15l-24,-55l-21,-17l-5,-9l8,-12l10,-32l14,-10l8,-15l-6,-18l-22,-23l-43,-43l-12,-29l2,-17l18,-40l-2,-18l-41,-30l-42,3l-30,-13l-14,-14l-26,-42l-41,-32l-56,-20l-20,-3l-20,4l-28,16l-19,5l-13,-3l-38,-21l-17,-25l20,-32l4,-28l-5,-8l-64,-14h-18l-21,-12h-12l-32,13l-10,1l-27,-19l0,-12l10,-24l16,-18l-5,-22l-48,-8l-34,-15l-27,3l-13,-9l-17,-2l-37,-21l-35,2l-49,-18l-22,-22l-57,-35l-10,-16l50,-31l13,-26l1,-87l-36,-12l12,-28l16,-6l13,-14l8,-33l14,-16l9,-29l-5,-10l-27,-7l-26,-24l-30,-14l-11,-17l-5,-32l16,-29l42,-40l25,-18l10,-3h60l18,-7l15,-14l10,-19l-20,-22l-1,-20l12,-16l7,-21l29,-10l8,-7l2,-22l-42,-49l-25,-16l-21,-69l-8,-9l-28,-10l-63,-5l-41,-31l1,-7l23,-23h10l30,-23l10,-1l58,17l9,-4l36,-46l32,-6l35,-13l39,-29l35,-37l27,-16l135,-49l64,-21l48,-34l36,-18l74,-27l35,-22l4,-29l-17,-29l9,-33l20,-20l94,-38l66,-22l40,-15l6,-34l-9,-30l-12,-21l-40,-36l3,-27l-3,-11l-18,-26l-1,-9l14,-16l32,-7l11,-11l11,-22l4,-39l11,-25l22,-26l50,-21l19,-17l22,-52l12,-17l-19,-47l-1,-47l-4,-15l-21,-36l-13,-33l-8,-14l-50,-34l-18,-76l-31,-23l-45,-60l-5,-18l2,-16l12,-33l6,-7l10,-55l0,-96l-4,-23l-14,-23l-10,-6l-47,-7l-20,-11l-8,-9l2,-22l25,-20l49,-12l9,-9l1,-16l-11,-34l-17,-24l-36,-10l-8,-23l-1,-26l-25,-22l-14,-71l40,25l20,4l59,-23l9,7l10,29l18,8l39,-6l35,1l55,25h45l50,-15l22,10l23,3l11,-4l15,-11l5,-20l29,-21l27,-48l23,3l42,20l31,4l22,-2l29,-23l21,-35l-31,-67l-2,-39l25,-33l9,-36l-3,-55l18,-20l18,-31l10,-50l62,-34l38,-33l39,24l9,-3l1,-18l17,-9l6,-12l5,-55l26,-23l23,-11l51,-10l46,2l53,23l144,42l45,25h12l29,-11l28,-30l-2,-33l-22,-51l-5,-36l11,-45l17,-36l30,-23l16,-6l47,8l7,-11l-8,-12l-4,-49l8,-24l-1,-31l10,-25l32,-18l1,-20l20,-18l-2,-18l17,-22l2,-33l-9,-36l-28,-20l-4,-39l-14,-29l-22,-6l-37,-59l-37,-17l-7,-11l-9,-39l1,-28l25,-43l2,-56l-9,-29l-20,-29l-20,-65l-8,-12l-21,-6l-14,-20l0,-35l-7,-22l-28,-44l-20,-14l-13,-15l-32,-43l-32,-55l-35,-41l-27,-22l-16,-24l-3,-12l8,-30l1,-23l-29,-55l-26,-65l-10,-12l-15,-6l-25,-2l-18,-10l-11,-34l-38,-69l-8,-33l5,-8l56,10l27,-1l12,-4l16,-13l11,-35l-26,-79l17,-54l-10,-16l-23,11l-39,6l-35,-8l-11,-47l-17,-14l-80,-46l18,-39l12,-51l-5,-40l-23,-4l-40,7l-43,-1l-22,5l-11,-3l-48,-35l-53,2l-108,26l-36,-3l-32,-18l-14,-27l1,-6l45,-17l8,-47l47,-39l7,-34l10,-23l11,-15l25,-17l3,-15l-3,-33l-28,-34l-11,-8l-34,-6l-46,-53l-32,-45l-2,-13l12,-29l-27,-28l-7,-25l6,-17l19,-13l1,-12l-7,-19l-25,-24l-44,-13l-13,-10l-1,-11l11,-28l22,-17l2,-32l-14,-86l-1,-11l-30,-37l-7,-18l2,-20l30,-23l3,-21l-6,-20l-7,-6l-7,-20l-26,-16l-15,-18l6,-18l27,-11l5,-20l-19,-4l-40,-24l-133,-10l-27,-13l-26,-41l-32,-40l-31,-25l-27,-10l-60,-3l-24,4l-28,9l-37,2l-32,-27l-24,-14l-2,-9l-15,-6l-2,-9l9,-32l-8,-20l-1,-20l11,-27l-20,-6l-20,-13l8,-31l10,-19l-7,-41l-8,-5l-38,2l-4,-16l24,-18l6,-42l-1,-56l10,-14l51,3l27,11l9,-1l33,-38l17,-9l19,-37l25,-24l10,-5l43,4l6,-19l34,-2l33,-78l7,-8l26,-17l18,-23l19,-40l13,-15l8,-41l15,-16l29,-17l6,7l36,19l21,4l49,-48l43,-48l37,-15l-7,-85l30,-16l63,11l1,-85l38,-18l41,-29l59,-26l23,-22l4,-34l-8,-40l1,-34l9,-19l16,-14l30,-5l66,-55l13,-38l39,-46l11,-29l-12,-27l-4,-22l4,-39l14,-37l15,-11l18,7l30,-2l16,-14l20,-5l5,-9l2,-20l-4,-18l14,-53l24,-23l36,-14l40,8l17,15l20,43l13,15l20,10h10l18,-37l0,-20l14,-20l8,19l19,9l36,-17l15,-17l31,-18l38,-4l23,5l50,29l36,14l17,12l13,16l31,5l19,-28l27,-15l43,-11l45,-7l47,5l66,48l18,5l92,-7l69,-15l39,15l9,55l-1,57l53,41l84,14l14,11l10,-5l35,-7l46,2l35,8l41,15l30,24l32,51l7,53l21,5l53,2l42,-6l16,-13l39,-19l33,-6l25,13l66,-95l89,-11l47,12l45,-6l35,36l52,68l-31,57l22,12l133,43l61,14l25,26l7,16l33,26l32,11l17,12l7,15l1,43l9,14l23,16l41,18l12,15l41,91l25,-12l21,-63l23,-12l3,-28l19,-7l37,-56l35,-9l21,7l3,11l29,10l28,-3l27,-27l37,24l59,-43l-3,-46l25,-41l24,-25l0,-24l-14,-19l3,-20l15,-9l38,1l-39,-122l31,-31l19,-58l0,-17l19,-31l68,-30l-20,-50l-15,-24l-111,-120l23,-10l16,-2l22,4l74,33l20,-2l18,-17l-15,-30l-3,-17l15,-31l41,-34l11,-28l-9,-16l-47,-38l-24,-50l1,-31l35,-59l8,-31l4,-39l1,-95l43,-91l28,-13l27,-18l14,-15l-3,-26l11,-7h34l18,-6l50,-27l36,5l43,45l27,12l18,-1l39,-24l22,-6l118,-1l66,5l20,39l11,8l72,19l64,37l33,19l33,31l26,47l68,30l23,1l193,116l19,28l25,14l10,19l15,14l27,-14l30,33l54,36l13,15l8,16l85,-3l23,-6l49,-30l28,-4l19,8l29,-15l17,-13l11,-25l67,-71l-2,-5l10,-55l-6,-21l18,-20l37,6l33,-21l-18,-56l41,-60l14,-19l25,-17l101,-3l54,-31l35,-13l64,1l75,-9l62,-25l36,25l41,20l40,64l-31,69l-72,74l0,55l22,64l-23,58l5,53l39,82l19,19l85,54l91,89l49,36l74,63l97,-17l18,-32l24,-16l29,-1l44,-38l24,-36l35,-37l44,-11l12,-23l0,-42l14,-44l15,-12h33l104,1l18,12l37,48l18,3l66,-22l37,-27l21,-1l58,49l57,40l13,25l10,22l-3,22l7,11h17l19,23l2,18l51,4l44,152l91,55l71,56l45,63l-9,74l-6,11l25,19l27,7l11,11l45,19l81,-7l107,-34l20,27l-46,26l-23,23l-27,66l-14,13l6,34l8,9l45,30l59,13l83,39l26,19l77,82l45,109l14,20l98,106l133,48l19,-8l11,6l30,29l36,-2l8,-12l24,-14l33,-3l38,19h27l22,-12l23,14l9,13l31,8l12,-6l18,2l16,30l20,29l19,16l9,18l-10,34l14,17l7,23l12,10l35,-4l26,-9l21,13l19,6l52,-3l13,-4l29,-20l9,-14l9,-34l16,-18l2,-16l-5,-19l1,-38l4,-12l20,-15l35,-16l14,-10l16,-27l17,-18l-13,-30l1,-7l18,-16l13,-15l23,-41l26,-40l41,3l63,36l64,84l8,93l30,91l-12,35l-48,43l-43,10l-26,15l-16,23l-9,40l101,102l16,53l26,65l66,3l17,52l12,50l14,41l21,30l75,-20l37,15l68,72l29,15l10,22l-10,44l-24,36l-1,20l26,16l-9,20l-2,20l7,17l14,16l55,10l92,-4l96,16l23,34l14,33l5,44l14,17l113,62l22,33l36,30l37,-3l17,-26l47,-47l81,14l33,-14l76,-18l35,44l70,22l40,10l45,63l8,68l8,38l32,16l66,19l133,54l64,36l85,64Z"
     transform="matrix(9.9999984e-5,0,0,-9.9999984e-5,-3.5037037e-7,2.6074074e-8)" />
  <path
     id="2503"
     d="M-353493,-67749l-21,7l-22,23l2,40l-4,17l-20,18l-3,31l-10,25l-32,17l-9,-8l-24,-1l-12,11l-27,-1l-30,12l61,9l66,15l46,15h15l31,20l5,19l21,26l5,21l-3,31l4,17l-10,29l-1,49l-3,13l3,25l9,46l-4,10l13,13l33,14l3,20l18,12l8,26l-2,13l8,21l-5,10l20,8l4,20l26,30l12,7l24,5l24,-14l3,-14l10,-7l6,-21l-8,-13l10,-13l18,-12l22,3l12,19l5,375l-140,185l-68,38l118,271l13,21l-13,2l-10,19l8,19l18,9l-2,31l-6,13l-2,20l4,16l-4,17l6,14l14,10l-1,10l-22,15l3,19l-19,6l-13,17l6,9l-9,22l-14,6l-5,9l-20,-7l-9,15l-1,14l-30,-4l-5,10l-19,-12l-7,-12l-22,-4l-11,-8l8,-10l-6,-9l5,-18l-16,-5l-4,-20l-12,-5l-12,7l-13,-2l-16,6l-8,13l-35,-3l-9,-24l-10,-8l-20,8l-59,10l-11,-16l-21,1l-14,13l-22,-9l-3,-13l5,-14l-29,-13l-27,2l-2,-19l-7,-14l-35,1l-14,-2l-16,6l-32,20l8,19l2,19l-21,40l-3,20l-15,25l-34,285l198,324l113,186l-201,119l-55,36l-47,25l-59,24l-71,20l-46,14l-44,4l-37,-8l-143,-3l-49,13l-19,-1l-5,11l5,36l-10,36l-18,-20l-13,-49l-10,-5l-49,18l-39,65l-20,13l-33,3l-14,-14l-20,-44l-23,-5l-50,5l-16,-5l-40,-37l-61,5l-16,8l-13,27l-30,20l-29,8l-6,-2l-19,-28l-13,-2l-15,23l-24,23l-17,9l-33,-7l-33,-2l-44,19l-29,-25l-24,-1l-14,3l-62,30l-6,-1l-6,-25l-6,-6l-43,-6l-22,-31l-15,4l-21,25l-20,1l-9,-6l-7,-24l-15,2l-17,13l-27,-4l-11,-6l-20,-24l-17,-53l-28,-17l-42,-10l-32,3l-31,8l18,21l-3,13l-9,9l-42,2l-23,-7h-13l-28,11h-20l-11,6l-26,-8l-9,13l0,17l-14,13h-26l-11,7l-16,31l-26,10l-14,14l-1,50l-31,44l-31,27l-11,34l-7,5l-39,14l-9,-1l-25,-13l-35,-4l-19,-10l-40,-6l-10,13l12,19l-3,6l-27,16l-35,-15l-39,28l-22,10l-57,1l-18,4l-26,13l-42,11l-25,14l-54,6l-13,10l-11,18h-18l-16,14h-20l-9,5l-34,-15l-4,-25l-12,-12l-38,2l-23,-14l-10,4l-14,-3l-26,19l-28,5l-29,13l-10,-8l-15,-23l-19,-20l-35,-20l-29,-26l-30,-21l-13,-25l-6,-5l-47,-17l-48,-51l-41,-16l-37,-2l-19,-12h-17l-58,15l-18,14l-13,-17l-28,-16l-49,-2l-60,-32l-11,4l-13,20l-12,-4l-34,-31l-20,-11l-23,2l-53,-7l-56,-32l-99,-6l-66,-5l-374,-22l-531,-31l-738,-44l-60,7l-76,30l-74,49l-17,-3l-78,-41l-29,-1l-32,9l-64,28l-48,-2l-74,19l-9,9l-50,15l-14,26l-7,40l-6,4l-31,-1l-11,3l-7,11l0,18l32,29l9,12l5,18l-27,70l-23,31l-35,30l-164,60l-35,17l-145,121l-45,60l-35,82l-18,71l-7,7l-19,-12l-36,-37l-9,-3l-57,5l-1,14l17,18l-5,13l-30,22l-11,26l-9,5l-23,-1l-7,-9l1,-19l-40,-34l-8,-32l-13,-12l-27,-10l-24,-21l-18,-9l-25,-4l-4,-1l-8,-1l-21,-16l-37,5l-31,-22l-13,-26l-14,-6l-13,-23l-25,-1l-96,20l-51,21h-11l-26,-26l-11,-3l-48,24l-42,-10l-26,14l-238,-40l-42,-13l-27,-2l-58,4l-82,-19l-63,14l-47,-9l-270,-22l3,-336l4,-161l-1,-20l8,-737l-67,-372l-102,-457l-82,-431l-21,-301l-41,-557l-27,-384l-18,-272l-167,-443l-105,-247l-87,-198l-25,-63l-54,-89l-245,57l-129,-174l-335,-218l-526,-103l-158,-31l-327,-65l-132,-403l51,-308l94,-571l11,-70l-141,-370l33,-223l665,-114l26,-17l4,-22l9,-7l20,-7l13,-16l2,-19l8,-9l-4,-12l9,-13l-3,-10l22,-16l7,-14l12,-1l8,-10l-7,-9l10,-16l16,-7l18,-1l16,-14l17,17l22,-22l700,339l-10,-288l-33,-879l-5,-25l-148,-594l284,-9l309,-10h45l23,25l32,-4l13,21l20,63l22,3l15,-15l33,-16l54,2l82,-19l40,50l78,28l58,-30l11,-22l0,-17l-21,-22l-16,-13h-17l9,-18l26,-21h98l37,15l49,41l22,28l3,31l13,24l28,9l30,-9l11,-54l14,-15l28,-3l40,17l25,-5l48,42l38,16l52,36l62,51l37,10l32,-17l59,4l43,15l39,5l46,9l26,-14l9,-30l40,-67l11,-16l10,6l37,-17l11,-8h21l16,-8l44,-14l19,1l20,-5l854,-44l5,-16l41,-10l21,-18l32,-9l11,-15l38,-29l43,-53l14,-4l13,18l13,3l-5,-25l17,-8l6,-37l7,-5l21,4l13,27l15,15l16,-17l23,-19l21,23l16,-5l15,-58l0,-9l-27,-40l-37,12l-16,-18l-4,-11l-21,-22l-3,-18l14,-25l7,-1l18,-27l8,-7l38,-1l19,-8l3,-25l7,-23l-12,-13l-9,1l-15,29l-24,2l-12,-12l-31,-12l-21,-18l-14,-23l-23,-15l-11,-4l-11,-15l-3,-13l5,-12l15,10l13,-8l69,1l27,-4l-10,-16l-5,-21l0,-35l4,-28l-11,-21l-8,-29l-7,-12l-27,-6l-17,8l-18,16l-15,-1l-11,-15l-3,-13l13,-6l5,-13l-48,-9l-6,-16l13,1l20,-19h14l22,-9l22,-4l10,-9l26,-13l-4,-24l-11,-12l24,3l35,-2l8,-17l15,-12l28,-6l20,-10l27,-22l4,-31l7,-35l16,-9l14,4l9,-10l17,-8l31,-1l19,-8l11,-11l34,-52l31,-9l11,-35h26l51,-13l6,-13l0,-37l12,-26l9,-12l12,-6l32,-26l17,-9l23,-17l26,30l15,-12l22,-6l18,-30l27,-18l7,-28l35,-9l7,-23l54,-2l42,-37l24,-4l28,-18l9,-1l9,-16l34,17l7,9l2,21l6,14l21,17l21,-8l44,-8h44l13,-4l11,-41l6,-37l29,14l6,13l20,14l37,15l26,-4l14,4l26,-1l35,-18l56,7l10,-1l-7,-12h-39l-19,-8l5,-9h15l19,-31l7,-18l11,-5l0,-19l-8,-7l-15,2l-18,-7l-5,-34l0,-21l8,-17l-14,-4l-5,-23l9,-11l-32,-17l-12,-33l9,-20l-6,-11l27,-10l11,2l10,-14l17,-10l14,5l24,-10l23,-15h15l30,-19l41,7l17,26l12,-1l11,-9l16,1l25,-14l14,-11l19,-28l22,-9l7,-17l15,-7l4,-17l14,-1l3,-10l237,-80l0,-21l-15,-12l-21,-2l-4,-27l-18,-8l-1,-8l-22,-9l-13,6l-27,-14l-14,8l-12,-2l-21,5l-25,-10l-3,6l-25,-2l-23,-14l-16,-3l4,-11l-17,-13l-15,7l-3,-15l-14,-19l11,-2l0,-22l-17,-7l-24,11l-27,-16l6,-14l-8,-6l-44,2l-25,-14l-17,-5l-12,-39l6,-11l-9,-19l35,-23l0,-23l-14,-8l-1,-26l-22,-7l-12,17l-26,-8l-27,-14l19,-23l-37,-13l9,-15l-13,-5l-6,-22l-17,-17l5,-8l22,1l4,-10l-7,-32l15,-5l11,11l8,-11l-2,-18l10,-4l-1,-19l8,-10l-19,-20l19,1l33,-12l-3,-13l-11,-6l25,-28l11,-41l10,-9l-23,-18l-12,15l-9,-13l-1,-45l14,-19l18,-1l13,-7l-10,-16l-13,-6l5,-11l22,-10l3,-9l-12,-71l-21,-34l-31,2l-67,-7l-100,-2l-29,-28l-12,-15l-21,-8l-13,-16l-28,-21l-35,-17l-38,3l-22,-11l-97,-42l-44,-42l-22,-5l-36,8l-24,2l-14,15l-14,35l-3,23l15,24l-6,27l-22,27l-10,-1l-67,34l-14,10l-26,27l-19,44l-8,30l-15,13l-27,5l-16,-7l-11,-10l-4,-16l-13,-20l-15,-3l-18,2l-8,-18l-8,-7l-29,-10l-1,-23l-24,-21l-12,-24l-13,-8l-8,-18l3,-53l-2,-20l-9,-13l-19,-13l-14,-14l-5,-35l13,-17l43,-9l3,-9l-53,-28l-13,-16l3,-10l18,-6l4,-21l-15,-18l-4,-11l21,-18l-11,-34l-3,-24l-7,-6l-26,14l-10,-12l-6,-27l-5,-33l9,-40l-7,-14l-16,5l-12,-3l-17,-29l-13,-49l-3,-26l22,-15l0,-14l-15,-12l-25,10l-27,5l-1,-23l6,-26l8,-15l32,4l5,-12l-33,-24l-31,13l-4,-7l14,-18l-4,-13l-28,-21l-18,7l-21,-6l-4,-28l22,-21l2,-14l-9,-19l-20,-17l-5,-13l10,-23l-26,-17l-21,14l-18,-2l-11,-22l-25,37l-18,-6l-9,-31l19,-32l1,-15l-9,-2l-4,-14l-2,-35l-7,-9l-5,-40l0,-31l-17,-49l6,-57l12,-16l-17,-38l3,-15l-24,-68l-17,-20l-23,-1l-9,-23l-14,-5l11,-17l29,-11l37,-5h58l59,-10l51,-10l10,4l10,35l-9,39l9,21l35,34l17,6l78,-23l18,-10l21,12l12,16l22,52l19,32l40,25l42,4l68,18l40,-21l96,1l20,-7l10,-2l37,13l15,24l16,14l27,7l44,-8l70,-28l67,-21l54,-24l19,-2l31,5l62,33l27,37l15,4l23,48l22,21l57,31l28,85l-21,22l-3,23l15,57l1,17l22,2l5,6l46,25l24,16l10,1l16,-9l23,5l49,-12l116,35l90,5l59,-6l12,-7l22,-24l26,-10l13,1l32,20l48,7l32,20l36,5l9,7l22,4l25,-14h20l19,10l39,39l55,19l29,-5h20h7l26,14l60,6l53,42l9,13l15,8l53,54l27,18l59,25l72,-13l45,5l42,94l17,19l49,23l43,11l40,5l68,-15l22,8l23,1l33,12l20,22l22,62l26,32l67,39h29l18,-21l0,-30l17,-28l38,-9l58,-71l22,9l10,24l10,9l5,6l64,32l43,9l12,15l16,3l12,-3l36,5l43,-8l12,7l34,6l11,18l58,22l59,61l30,24l29,12l20,15l54,66l9,14l39,46l-23,7l0,11l-12,9l30,32l23,-14l0,16l15,8l20,23l14,31l27,18l40,11l55,-10l49,1l55,10l43,31l11,-1l24,-9l15,-1l55,-36l38,2l15,-33l16,-4l16,3l16,11l18,-3l13,-20l13,-11l31,-9l21,17l24,3l28,-20l20,1l26,27l-2,12l133,18l18,7l7,9l6,44l18,30l27,14l49,16l29,2l36,-8l5,19l-11,10l-34,12l-108,138l-13,45l5,24l13,27l16,19l25,71l7,8l37,8l33,-4l5,12l-7,12l-32,35l-4,16l7,25l32,65l28,39l0,10l-29,1l-58,-42l-40,-11l-31,2l-49,14l-19,20l-1,24l6,36l29,52l15,18l42,18l15,18l19,62l9,45l6,13l39,76l0,11l-9,15l-6,66l2,21l15,37l30,42l43,-3l10,14l9,37l15,30l2,13l-4,46l22,23l51,27l-11,14l-10,31l15,41l34,57l3,20l14,41l5,9l32,4l7,8l-2,25l-16,23l-1,13l6,17l23,12l30,28l21,2l9,8l17,-2l15,-13l67,25l40,48l9,28l77,62l53,-17l44,15l34,92l17,-5l71,-31l26,-20l13,-16l6,-20l-5,-42l32,-40l18,-15l28,-8l23,5l28,-18l31,9l20,1l50,15l17,13l31,78l16,17l40,13l42,24l28,10l50,4l22,28l45,36l48,8l47,-1l27,53l28,20l21,10l29,-3l26,-19l47,13l28,-2l24,4l19,10l14,15l11,39l-29,58l-11,49l2,18l12,5l49,-8l37,7l16,6l24,1l51,-15l16,37l-10,38l-1,20l-20,24l0,41l42,2l33,-35l34,-12l31,4l17,8l15,32l16,12l22,-1l18,-9l11,-14l21,-9l20,7l51,45l28,6l32,18l51,38l61,63l45,36l-24,35l-11,29l-12,8l-12,19l24,24l30,5l14,9l19,19l-5,13l24,7l-1,12l33,13l2,28l10,16l-202,429l-38,-2l-57,1l-43,-14l-24,2l-14,-6l-53,216l-66,80l-35,40l-202,138l-233,106l-46,23l-31,3l0,47l-9,11l-22,50l-24,-2l-14,-17l3,-33l-29,-29l-30,7l-4,-7l-20,3l-7,-9l-16,-3l-24,-17l-15,5l-12,-18l-21,-2l-6,-6l-19,2l-5,-11l-22,-13l-30,-11l-13,5l-12,-8l-19,-4l-37,-42l-49,1l-13,-2l-18,29l-29,14l-16,-1l-21,22l-54,29l-32,7l-49,28l-11,13l-25,19l160,67l11,11l35,18l21,7l10,20l1,11l13,12l41,27l20,-10l11,-1l39,-16l28,7l18,-9l27,-4l18,30l15,-2l14,9l22,-6l6,5l45,2l18,3l0,-12l19,-6l60,10l6,-5l16,2l28,11l16,-7l17,4l-48,137l-38,150l343,156l25,-1l12,15l14,6l22,21h8l27,28l12,3l14,27l12,12l-4,19l15,23l6,22l9,4l-3,19l5,15l14,14l2,12l-8,16l18,30l7,21l19,33l1,28l4,26l47,12l5,-7l16,17l47,3l10,16l23,11l19,31l29,36l74,167l100,172l-15,-8l-10,-25l-28,22l-24,-6l-18,-8l-34,-29l4,-16l-6,-8l-29,7l-15,-20l-12,13l-3,14l-20,8l-9,-6l-11,-19l-16,-9l-18,3l-5,30l21,31l-7,18l-9,7l-31,6l-2,-17l-18,-3l-21,6l-10,10l5,17l18,6l-11,22l8,21l-2,12l-32,28l-28,11l-19,14l-478,636l1,96l12,-5l28,7l1,25l24,22l-17,22l1,12l22,49l0,24l9,13l12,29l12,16l10,1l11,10l34,12l19,10l15,58l-9,19l19,13l43,-3l40,-10l11,34l25,26l7,-14l13,-12l19,-7l14,-15l13,-22l30,-9l25,-1l42,8l75,31l25,4l30,19l367,168l9,4l143,132l-24,35l-27,15l-25,18l-23,13l-19,37l-10,6l-22,-3l-26,-14h-43l-39,59l9,40l-5,39l-14,54l7,9l3,23l-5,17l-53,33l-2,33l-17,39l-25,15l-6,15l-4,51l-4,13l-18,22l-15,10l6,29l-11,22l29,4l0,5l-20,24l5,24l8,22l-7,24l-20,11l-24,20l-22,34l-16,5l-21,25l-12,21l-11,13l-12,24l1,48l-4,18l48,34l27,12l33,10l77,35l22,2l-13,6h-20l-7,5l-16,46l4,10l-6,27l-28,20l-1,32l7,22l-2,19l-17,19h-16l-7,10l-33,-2l-20,23l-17,-6l-7,7l-20,-9l-16,3l-36,-1l-11,33l-13,-9l-9,10l14,22l7,22l6,41l-3,22l9,27l3,35l0,53l16,36l24,37l36,62l-15,-1l-11,-8l-13,-1l-6,10l4,22l-10,3l-1,16l-32,-5l-1,20l-22,29l-30,11l-13,-8l-22,8l-9,25l2,11l-11,9l-24,1l-40,-3l-13,-20l-24,2l-8,12l-18,9l-17,3Z"
     transform="matrix(9.9999984e-5,0,0,-9.9999984e-5,-3.5037037e-7,2.6074074e-8)" />
  <path
     id="2502"
     d="M-359562,-76531l11,10l16,7l27,-5l15,-13l8,-30l19,-44l26,-27l14,-10l67,-34l10,1l22,-27l6,-27l-15,-24l3,-23l14,-35l14,-15l24,-2l36,-8l22,5l44,42l97,42l22,11l38,-3l35,17l28,21l13,16l21,8l12,15l29,28l100,2l67,7l31,-2l21,34l12,71l-3,9l-22,10l-5,11l13,6l10,16l-13,7l-18,1l-14,19l1,45l9,13l12,-15l23,18l-10,9l-11,41l-25,28l11,6l3,13l-33,12l-19,-1l19,20l-8,10l1,19l-10,4l2,18l-8,11l-11,-11l-15,5l7,32l-4,10l-22,-1l-5,8l17,17l6,22l13,5l-9,15l37,13l-19,23l27,14l26,8l12,-17l22,7l1,26l14,8l0,23l-35,23l9,19l-6,11l12,39l17,5l25,14l44,-2l8,6l-6,14l27,16l24,-11l17,7l0,22l-11,2l14,19l3,15l15,-7l17,13l-4,11l16,3l23,14l25,2l3,-6l25,10l21,-5l12,2l14,-8l27,14l13,-6l22,9l1,8l18,8l4,27l21,2l15,12l0,21l-237,80l-3,10l-14,1l-4,17l-15,7l-7,17l-22,9l-19,28l-14,11l-25,14l-16,-1l-11,9l-12,1l-17,-26l-41,-7l-30,19h-15l-23,15l-24,10l-14,-5l-17,10l-10,14l-11,-2l-27,10l6,11l-9,20l12,33l32,17l-9,11l5,23l14,4l-8,17l0,21l5,34l18,7l15,-2l8,7l0,19l-11,5l-7,18l-19,31h-15l-5,9l19,8h39l7,12l-10,1l-56,-7l-35,18l-26,1l-14,-4l-26,4l-37,-15l-20,-14l-6,-13l-29,-14l-6,37l-11,41l-13,4h-44l-44,8l-21,8l-21,-17l-6,-14l-2,-21l-7,-9l-34,-17l-9,16l-9,1l-28,18l-24,4l-42,37l-54,2l-7,23l-35,9l-7,28l-27,18l-18,30l-22,6l-15,12l-26,-30l-23,17l-17,9l-32,26l-12,6l-9,12l-12,26l0,37l-6,13l-51,13h-26l-11,35l-31,9l-34,52l-11,11l-19,8l-31,1l-17,8l-9,10l-14,-4l-16,9l-7,35l-4,31l-27,22l-20,10l-28,6l-15,12l-8,17l-35,2l-24,-3l11,12l4,24l-26,13l-10,9l-22,4l-22,9h-14l-20,19l-13,-1l6,16l48,9l-5,13l-13,6l3,13l11,15l15,1l18,-16l17,-8l27,6l7,12l8,29l11,21l-4,28l0,35l5,21l10,16l-27,4l-69,-1l-13,8l-15,-10l-5,12l3,13l11,15l11,4l23,15l14,23l21,18l31,12l12,12l24,-2l15,-29l9,-1l12,13l-7,23l-3,25l-19,8l-38,1l-8,7l-18,27l-7,1l-14,25l3,18l21,22l4,11l16,18l37,-12l27,40l0,9l-15,58l-16,5l-21,-23l-23,19l-16,17l-15,-15l-13,-27l-21,-4l-7,5l-6,37l-17,8l5,25l-13,-3l-13,-18l-14,4l-43,53l-38,29l-11,15l-32,9l-21,18l-41,10l-5,16l-854,44l-20,5l-19,-1l-44,14l-16,8h-21l-11,8l-37,17l-10,-6l-11,16l-40,67l-9,30l-26,14l-46,-9l-39,-5l-43,-15l-59,-4l-32,17l-37,-10l-62,-51l-52,-36l-38,-16l-48,-42l-25,5l-40,-17l-28,3l-14,15l-11,54l-30,9l-28,-9l-13,-24l-3,-31l-22,-28l-49,-41l-37,-15h-98l-26,21l-9,18h17l16,13l21,22l0,17l-11,22l-58,30l-78,-28l-40,-50l-82,19l-54,-2l-33,16l-15,15l-22,-3l-20,-63l-13,-21l-32,4l-23,-25h-45l-309,10l-284,9l148,594l5,25l33,879l10,288l-700,-339l-22,22l-17,-17l-16,14l-18,1l-16,7l-10,16l7,9l-8,10l-12,1l-7,14l-22,16l3,10l-9,13l4,12l-8,9l-2,19l-13,16l-20,7l-9,7l-4,22l-26,17l-665,114l-33,223l141,370l-11,70l-94,571l-51,308l132,403l327,65l158,31l526,103l335,218l129,174l245,-57l54,89l25,63l87,198l105,247l167,443l18,272l27,384l41,557l21,301l82,431l102,457l67,372l-8,737l1,20l-4,161l-3,336l-25,-2l-208,-32l-14,330l-78,-4l-26,25l-75,4l-31,8l-49,27l-145,24l-36,14l-8,14l6,31l-22,28l-13,27l-3,25l4,56l25,61l7,18l28,38l112,102l31,52l14,48l4,42l-21,134l-3,94l-3,73l-5,14l-125,136l-26,32l-24,29l-61,62l-14,8l-27,7l-60,-19l-159,-107l-145,-84l-103,-60l-33,-15h-50l-320,160l-208,-391l-131,-266l-18,-26l-23,-8l-122,9l-423,24l-127,16l-4,-122l-34,-96l-8,-65l-4,-36l-27,-100l-32,-74l-80,-106l-24,-58l-46,-129l-32,-65l-21,-88l4,-84l11,-52l-13,-61l11,-49l15,-26l15,-52l-6,-87l15,-80l31,-9l62,-8l53,-32l108,-74l39,-15l79,-14l60,-31l11,-11l5,-25l-2,-97l5,-25l14,-46l12,-21l25,-29l41,-35l23,-7l147,-26l53,-22l32,-23l16,-21l10,-24l12,-40l10,-91l5,-132l-7,-81l3,-49l19,-127l33,-132l-4,-23l-19,-11l-48,19l-13,11l-50,21l-47,-24l-43,-74l-22,-4l-24,20l-35,40l-24,41l-29,77l-18,22l-36,18l-60,12l-19,6l-43,29l-45,44l-46,5l-36,15l-37,45l-23,15l-37,11h-21l-50,-13l-31,-14l-26,-26l0,-14l15,-17l18,-42l5,-36l-3,-26l-20,-58l-40,-82l-43,-77l-27,-72l-77,-240l-13,-57l-3,-69l-18,-73l-2,-28l-21,-63l-20,-30l-44,-49l-35,-31l-14,-16l-2,-14l10,-35l31,-44l31,-24l25,-26l50,-92l19,-12l30,-5l58,-6l57,-14l26,-18l13,-16l33,-74l75,-48l83,-34l22,-37l6,-42l-13,-47l7,-50l10,-27l3,-34l-16,-50l2,-47l-4,-61l-19,-98l-5,-56l-14,-42l-31,-49l-20,-17l-39,-22l-133,-36l-21,-17l-21,-33l-36,-38l-16,-22l-24,-43l-27,-14l-14,-10l-20,26l-31,-31l-13,1l-29,14l-31,-3l-27,16l-61,-36l-35,-36l-18,-30l-25,-65l1,-19l14,-18l58,-54l4,-18l-6,-23l-22,-22l13,-19l-9,-11l-43,-31l-12,-65l-24,-43l-25,-18l-107,-171l-17,-17l-14,-8l-43,-53l-11,-39l-52,-101l-13,-18l-49,-45l-17,-9l-30,14l-20,23l-69,-2l-140,4l-46,21l-63,21l-66,14l-59,12l-125,12l-139,-2l-21,-10l-27,-30l-27,-45l-146,-402l-31,-53l-16,-15l-19,-11l-27,-1l-58,23l-67,42l-63,34l-67,50l-105,118l-22,30l-5,12l-77,115l-15,44l0,16l12,31l32,43l21,124l26,151l13,31l9,13l35,34l15,21l52,100l22,54l32,107l94,270l-10,15l-28,1l-173,-23l-182,-16l-32,516l-581,518l-42,42l-393,-121l-291,-104l-68,-33l-97,-47l-116,-70l-58,-40l-198,-179l-20,72l38,39l26,42l-16,-4l-38,-1l-111,52l-15,22l-21,51l-5,50l15,133l0,43l-19,67l-39,120l-26,29l-32,24l-28,46l-26,12l-11,16l-36,17l-63,-2l-38,-19l-3,-1l-314,-245l-60,-59l-94,-43l-87,-50l-35,-16l-80,-23l-45,-8l-237,-65l-210,-67l-50,8l-26,9l-25,-13l-29,-46l-19,-58l-20,-32l-11,-9l-43,-10l-13,-9l-57,-84l-28,-67l-15,-14l-126,-73l-38,-35l-27,-47l-80,-19l-21,-11l-78,-71l-20,-7l-243,15l-62,-8l-114,8l10,-2l113,-176l89,-443l9,-185l29,-16l34,-13l26,5l44,-7l26,-25l13,-19l5,-18l-12,-21l-16,-10l-27,-5l-1,-17l27,-2l53,9l48,3l33,-2l34,-12l17,-14l7,-20l0,-29l-26,-7l-70,-37l-51,-30l-11,-14l33,-8l60,7l29,-10l18,-20l10,-16l14,-11l38,-22l3,-24l-15,-15l-19,-44l2,-14l-24,-41l0,-28l-17,-29l2,-14l9,-9l23,-38l5,-22l12,-9l14,-1l20,-81l-6,-29l139,-70l47,-7l35,-19l57,-42l18,-29l19,-20l123,-28l8,-39l37,-31l32,-12l55,-9l38,-3l32,-15l41,-52l21,-19l106,4l61,1l57,45l53,33l18,4l11,-8l12,-32l35,-19l38,-6l70,-28l13,-17l2,-14l-20,-16l-26,-40l-8,-31l3,-32l10,-17l26,-3l60,-2l117,-17l58,-24l25,-2l22,-10l46,-30l46,-4l38,-5l86,-21l19,-2l20,-33l62,-55l67,-12l53,40l62,-3l103,65l126,53l116,33l18,24l199,-118l72,-281l-17,-6l-19,-13l-17,-36l-19,-27l16,-26l-12,-16l1,-31l9,-20l-12,-21l-2,-31l-16,-35l-10,-11l-49,-3l-17,-20l8,-7l21,4l21,-10l14,-56l24,3l4,-29l-2,-14l-16,-1l-16,-21l-45,-265l-35,-230l-89,-15l-12,9l-19,-9l-23,-3l-24,8l-31,-4l-31,9l-8,-1l-11,-27l-14,-9l-23,-3l-16,2l-48,-5l-14,5l-32,-6l-24,-22l-28,11l-23,-7l-21,6l-11,-3l-32,-17l-40,-5l-23,6l-19,-4l-22,-11l-35,-29l-24,-5l-14,2l-31,-20l-27,-9l-9,-38l-16,7l-29,-16l-20,-7l-16,12l-4,16l-149,22l98,-297l107,-304l27,-346l-154,-35l-119,-441l-129,-474l-10,-10l32,19l18,-5l67,-33l20,-3l84,-39l55,-4l31,-67l30,-16l27,-74l31,-21l7,-5l-54,-66l-53,-49l-23,-67l84,-21l31,-58l-91,-35l24,-63l80,-48l25,-86l74,-13l60,-45l32,-53l-14,-79l25,-15l54,1l22,-16l7,-25l5,-42l-94,-62l-41,-40l-56,-39l-40,20l-33,48l-33,-25l-78,-46h-35l-10,-6l-89,-24l-23,-15l-58,-27l-25,-5l-81,-2l-46,-31l-49,-65l-19,-14l-31,-15l-16,-3l-94,8l-58,-7l-24,-10l-71,-39l-115,-89l-45,-17l-77,-16l-32,-17l-73,-66l-49,-73l-34,-52l-46,-38l-118,-70l-58,-47l-43,-40l-96,-132l-41,-63l-17,-29l-11,-32l-31,-127l-9,-28l-20,-26l-67,-54l-39,-58l-12,-57l6,-101l22,-67l24,-27l35,-18l14,-10l29,-32l48,-63l33,-57l4,-17l1,-47l5,-22l17,-29l88,-98l43,-39l65,-84l26,-52l17,-53l0,-29l-8,-42l4,-50l19,-47l24,-29l37,-24l26,-29l11,-36l-18,-46l-29,-42l-47,-38l-15,-16l-19,-27l-21,-57l-32,-49l-2,-25l4,-14l48,-29l-52,-108l-13,-17l-53,-35l-45,7l-31,-1l-2,-13l19,-14l2,-9l-12,-14l-37,5l-86,90h-44l-16,-4l-25,-1l-65,-77l-194,-78l-56,26l-76,-26l4,-64l-135,-59l32,-41l86,23l37,-7l17,-70l16,-42l21,-35l6,-25l1,-36l-4,-5l-34,-19h-16l-20,6l-88,2l-89,-29l-6,-10l2,-30l-17,-13l-11,-16l2,-12l29,-20l15,-20l9,-27l2,-24l-13,-18l-9,-24l2,-12l26,-44l-5,-11l-44,-8l-33,-21l-20,-46l-52,-4l-23,-11l-17,-37l-64,-34l-18,-15l-23,-29l-31,-24l-53,-21l-37,-26l-13,-14l-33,-11l-50,-8l-80,16l-43,-37l-27,9l-50,-6l-65,-29l-9,-17l13,-11l37,13l48,6l34,-10l19,-26l-1,-13l-15,-23l-10,-8l-8,-22l4,-9l19,-15l10,-31l2,-20l-2,-31l-9,-20l-16,-6h-17l-24,-11l-9,-12l-10,-41l-10,-16l-14,-3l-31,14h-9l-33,-21l-40,-9l-22,12l-22,5l-25,-20l-27,-2l-36,-18l-20,-2l-31,9l-13,-3l-3,-20l-1,-5l26,-53l-2,-10l-23,-29l-10,-27l-1,-55l-7,-20l-42,-42l-12,-23l15,-9l20,8l91,1l35,5l7,-6l3,-46l32,7l33,27l66,18l67,48l35,16l46,3l30,-7l33,-16l28,-1l25,40l24,10l28,3l38,-4l68,-51l10,-4h23l43,-12l102,20l16,13l21,5l55,-22l80,11l30,-1l24,-18l35,-16l38,-5l22,5l43,34l9,-4l2,-24l9,-4l31,7l44,-9h17l12,21l-28,57l-3,15l6,36l36,35l44,15l50,30l29,-18l14,-20l28,-16l66,-20l15,-13l10,-43l1,-35l-8,-18l-2,-80l-8,-47l6,-7l32,9l13,-3l8,-45l21,-31l12,-7l42,14l23,-12l7,-11l9,-43l8,-4l75,15l46,-7l28,-11l27,-30l27,-62l32,-30l15,-59l7,-84l12,-114l-53,-102l-44,-59l12,-71l1,-62l46,-59l56,-82l29,-94l-21,-72l-20,-49l9,-91l43,-87l-16,-71l-90,-25l-16,-47l-38,-67l61,-60l15,-51l-65,-65l-59,-22l-2,-71l34,-46l106,-45l84,-23l80,13l67,22l82,-17l-6,-86l-56,-46l-3,-12l-13,-17l9,-74l18,-85l5,-17l43,-59l41,-51l17,-30l24,-24l46,-23l15,-12l39,-47l32,14l73,11l69,88l21,5l96,-74l39,-8l9,-29l-77,-33l-64,-48l-9,-46l-7,-162l10,-45l55,-16l175,40l32,-11l57,-2l60,7l30,-16l85,-101l39,-71l49,-52l24,-11l58,-26l28,-17l81,-19l63,-37l64,-34l37,5l23,9l33,25l39,17h30l148,-31l28,5l29,8l31,23l21,19l20,39l-1,34l-10,41l7,45l7,17l21,21l27,14l92,6l100,35l59,50l35,39l50,74l3,4l54,50l29,44l40,29l56,20l83,19l29,13l73,54l33,31l69,47l94,33l90,22l47,23l53,21l90,43l32,8l51,6l35,15l67,99l24,19l60,30l31,10l65,-3l124,-9l46,-20l35,-33l24,-8l33,5l67,39l14,9l26,58l8,100l92,33l102,-4l67,3l16,42l66,10l-16,37l-15,20l-69,52l30,54l141,-53l50,-17l67,33l100,-10l-4,38l-71,80l0,17l6,14l214,133l47,32l26,10l80,13l35,13l95,4l39,4l28,13l11,17l23,22l55,36l13,45l-6,37l-59,68l-32,29l-33,11l-47,-7l-22,3l-5,12l7,52l-16,34l-18,14l-32,-13l-37,5l-14,23l9,37l13,30l27,27l72,49l54,33l124,51l9,14l1,42l-13,131l-2,102l0,28l11,113l10,87l7,27l-14,163l47,43l7,17l-8,43l6,66l13,35l20,45l20,8l39,42l5,17l5,54l6,15l22,2l52,-47l41,-2l8,-3l45,-30l20,-8l62,-20l58,-11l43,2l33,22l6,33l-13,24l-16,10l-36,12l-6,9l0,19l21,19l35,47l18,41l1,54l-51,93l-6,61l22,57l12,20l31,30l78,35l119,23l25,-5l65,-31l65,7l50,-12l53,-40l133,-81l135,-54l16,4l53,47l24,4l20,-6l14,-10l38,-39l28,-45h20l15,6l62,64l27,13l64,18l86,-2l64,-15l22,11l4,10l-3,21l-16,16l-2,24l23,26l38,22l28,31l25,40l40,73l7,24l-2,15l-12,34l-16,17l-26,7l-42,2l-9,8l5,21l39,21l33,10l19,46l17,15l4,26l-2,59l-20,87l26,164l-17,63l20,75l40,38l166,17l80,37l49,28h19l191,-50l53,10l18,25l32,30l25,4l32,-12l44,-7l46,1l116,-19l79,-1l83,3l73,28l43,-3l71,-16l76,-36l92,-60l58,-72l83,-55l76,-11l22,-4l80,21l58,39l41,39l34,45l5,65l-28,39l-89,27l-31,29l-4,20l5,33l22,43l57,68l124,89l67,64l67,44l39,15l53,-27l48,-36l18,-32l4,-94l33,-69l31,-5l54,23l34,21l56,21l55,3l58,-5l98,4l73,12l117,9l166,-26l83,-16l34,6l16,11l94,45l34,9l66,2l132,-6l91,-11l28,-8l49,-41l47,-72l32,-69l23,-22l34,3l32,27l19,33l22,14h12l58,-23l26,-6l35,-29l25,-30l17,-37l43,-40l-11,17l14,5l9,23l23,1l17,20l24,68l-3,15l17,38l-12,16l-6,57l17,49l0,31l5,40l7,9l2,35l4,14l9,2l-1,15l-19,32l9,31l18,6l25,-37l11,22l18,2l21,-14l26,17l-10,23l5,13l20,17l9,19l-2,14l-22,21l4,28l21,6l18,-7l28,21l4,13l-14,18l4,7l31,-13l33,24l-5,12l-32,-4l-8,15l-6,26l1,23l27,-5l25,-10l15,12l0,14l-22,15l3,26l13,49l17,29l12,3l16,-5l7,14l-9,40l5,33l6,27l10,12l26,-14l7,6l3,24l11,34l-21,18l4,11l15,18l-4,21l-18,6l-3,10l13,16l53,28l-3,9l-43,9l-13,17l5,35l14,14l19,13l9,13l2,20l-3,53l8,18l13,8l12,24l24,21l1,23l29,10l8,7l8,18l18,-2l15,3l13,20l4,16Z"
     transform="matrix(9.9999984e-5,0,0,-9.9999984e-5,-3.5037037e-7,2.6074074e-8)" />
  <path
     id="2504"
     d="M-349650,-66029l-8,25l-7,196l4,103l-3,237l-4,87l-6,170l-2,88l2,115l-5,99l3,6l-9,31l-16,-1l-15,21l-40,-10l-9,-10l-19,-1l-17,-29l-19,-21l-14,-2l-5,-13l-14,-7l-68,-70l-11,-3l-16,8l-27,-15l-15,8l-21,-3l-10,-15l-13,-7l-38,-6l-39,-13l-56,8l-4,13l-17,9l-14,-5l-18,-16l-65,-3l-28,-32l-20,-40l-37,-44l-60,-24l-28,-26l-60,-19l-28,-25l-31,-13l-54,13l-40,18l-44,44l-39,59l-135,94l-32,49l-24,20l-10,4l-26,-1l-26,-15l-10,-9l-5,-38l-15,-18l-36,-7l-52,14l3,-28l-11,-25l-43,-58l-7,-16l-3,-30l-33,-44l-3,-23l-13,-24l-18,-13l-46,-19l-27,-27l-21,-37l-13,-7l-35,-55l-38,-21l-4,-30l-21,-20l-59,-8l-15,2l-43,17l-59,-44l-22,-4l-33,-18l-14,-1l-33,5l-104,33l-52,43l-18,5l-30,-5l-32,-3l-23,7l-36,20l-42,42l-22,33l-6,18l3,43l-3,11l-40,45l-17,34l-24,67l-12,11l-35,14l-11,-11l-4,-44l-9,-27l-21,-33l-24,-27l-25,-15l-35,-9l-174,-13l-163,-84l-51,-15l-89,2l-101,-8l-154,6l-48,-6l-170,2l-32,10l-28,13l-45,34l-232,266l-113,-186l-198,-324l34,-285l15,-25l3,-20l21,-40l-2,-19l-8,-19l32,-20l16,-6l14,2l35,-1l7,14l2,19l27,-2l29,13l-5,14l3,13l22,9l14,-13l21,-1l11,16l59,-10l20,-8l10,8l9,24l35,3l8,-13l16,-6l13,2l12,-7l12,5l4,20l16,5l-5,18l6,9l-8,10l11,8l22,4l7,12l19,12l5,-10l30,4l1,-14l9,-15l20,7l5,-9l14,-6l9,-22l-6,-9l13,-17l19,-6l-3,-19l22,-15l1,-10l-14,-10l-6,-14l4,-17l-4,-16l2,-20l6,-13l2,-31l-18,-9l-8,-19l10,-19l13,-2l-13,-21l-118,-271l68,-38l140,-185l-5,-375l-12,-19l-22,-3l-18,12l-10,13l8,13l-6,21l-10,7l-3,14l-24,14l-24,-5l-12,-7l-26,-30l-4,-20l-20,-8l5,-10l-8,-21l2,-13l-8,-26l-18,-12l-3,-20l-33,-14l-13,-13l4,-10l-9,-46l-3,-25l3,-13l1,-49l10,-29l-4,-17l3,-31l-5,-21l-21,-26l-5,-19l-31,-20h-15l-46,-15l-66,-15l-61,-9l30,-12l27,1l12,-11l24,1l9,8l32,-17l10,-25l3,-31l20,-18l4,-17l-2,-40l22,-23l21,-7l17,-3l18,-9l8,-12l24,-2l13,20l40,3l24,-1l11,-9l-2,-11l9,-25l22,-8l13,8l30,-11l22,-29l1,-20l32,5l1,-16l10,-3l-4,-22l6,-10l13,1l11,8l15,1l-36,-62l-24,-37l-16,-36l0,-53l-3,-35l-9,-27l3,-22l-6,-41l-7,-22l-14,-22l9,-10l13,9l11,-33l36,1l16,-3l20,9l7,-7l17,6l20,-23l33,2l7,-10h16l17,-19l2,-19l-7,-22l1,-32l28,-20l6,-27l-4,-10l16,-46l7,-5h20l13,-6l-22,-2l-77,-35l-33,-10l-27,-12l-48,-34l4,-18l-1,-48l12,-24l11,-13l12,-21l21,-25l16,-5l22,-34l24,-20l20,-11l7,-24l-8,-22l-5,-24l20,-24l0,-5l-29,-4l11,-22l-6,-29l15,-10l18,-22l4,-13l4,-51l6,-15l25,-15l17,-39l2,-33l53,-33l5,-17l-3,-23l-7,-9l14,-54l5,-39l-9,-40l39,-59h43l26,14l22,3l10,-6l19,-37l23,-13l25,-18l27,-15l24,-35l-143,-132l-9,-4l-367,-168l-30,-19l-25,-4l-75,-31l-42,-8l-25,1l-30,9l-13,22l-14,15l-19,7l-13,12l-7,14l-25,-26l-11,-34l-40,10l-43,3l-19,-13l9,-19l-15,-58l-19,-10l-34,-12l-11,-10l-10,-1l-12,-16l-12,-29l-9,-13l0,-24l-22,-49l-1,-12l17,-22l-24,-22l-1,-25l-28,-7l-12,5l-1,-96l478,-636l19,-14l28,-11l32,-28l2,-12l-8,-21l11,-22l-18,-6l-5,-17l10,-10l21,-6l18,3l2,17l31,-6l9,-7l7,-18l-21,-31l5,-30l18,-3l16,9l11,19l9,6l20,-8l3,-14l12,-13l15,20l29,-7l6,8l-4,16l34,29l18,8l24,6l28,-22l10,25l15,8l-100,-172l-74,-167l-29,-36l-19,-31l-23,-11l-10,-16l-47,-3l-16,-17l-5,7l-47,-12l-4,-26l-1,-28l-19,-33l-7,-21l-18,-30l8,-16l-2,-12l-14,-14l-5,-15l3,-19l-9,-4l-6,-22l-15,-23l4,-19l-12,-12l-14,-27l-12,-3l-27,-28h-8l-22,-21l-14,-6l-12,-15l-25,1l-343,-156l38,-150l48,-137l-17,-4l-16,7l-28,-11l-16,-2l-6,5l-60,-10l-19,6l0,12l-18,-3l-45,-2l-6,-5l-22,6l-14,-9l-15,2l-18,-30l-27,4l-18,9l-28,-7l-39,16l-11,1l-20,10l-41,-27l-13,-12l-1,-11l-10,-20l-21,-7l-35,-18l-11,-11l-160,-67l25,-19l11,-13l49,-28l32,-7l54,-29l21,-22l16,1l29,-14l18,-29l13,2l49,-1l37,42l19,4l12,8l13,-5l30,11l22,13l5,11l19,-2l6,6l21,2l12,18l15,-5l24,17l16,3l7,9l20,-3l4,7l30,-7l29,29l-3,33l14,17l24,2l22,-50l9,-11l0,-47l31,-3l46,-23l233,-106l202,-138l35,-40l66,-80l53,-216l14,6l24,-2l43,14l57,-1l38,2l202,-429l-10,-16l-2,-28l-33,-13l1,-12l-24,-7l5,-13l-19,-19l-14,-9l-30,-5l-24,-24l12,-19l12,-8l11,-29l24,-35l36,28l37,18l85,32l71,17l87,34l24,-11l40,-2l20,7l29,-12l39,-13l41,-5l47,-9l26,-9l53,-7l74,-46l97,-22l32,-43l12,-36l12,-12l33,-11l45,29l20,1l34,-10l69,37l18,42l136,-40l47,-5l1,-2l95,-32l93,-9l22,-19l51,-30l27,7l16,-4l37,-26l14,5l19,-2l83,-18l39,3l20,5l105,33l77,-1l49,3l26,5l59,19l50,-32l25,-47l85,-56l64,-55l76,-40l57,-16l52,-24l93,-101l19,-32l38,-44l48,-27l30,-24l41,-49l66,-38l33,-15l37,-10l37,-22l10,-15l6,-33l-4,-25l-41,-69l-19,-127l27,-20l13,-25l11,-66l-2,-39l11,-40l6,-5l45,-13l24,-23l3,-16l29,-24l15,-25l26,-26l34,-62l32,-83l20,-32l15,-3l46,1l41,14l111,76l38,14l30,1l58,-25l25,-16l14,-14l57,-78l33,-20l29,3l12,9l-10,40l15,10l28,-4l51,9l16,-3l2,-21l-22,-28l-1,-13l10,-12l30,-5l25,2l14,18l27,61l27,13l15,-5l30,-31l27,-12l58,-12l21,-13l18,-55l11,-5l33,12l11,12l11,24l72,64l42,-16l45,-19l107,-28l27,-14l20,-29l55,-17l5,-10l19,6l21,39l10,52l3,40l9,33l21,52l17,33l53,80l23,31l10,24l2,28l-3,16l-11,23l-27,70l-6,22l-4,46l1,25l8,35l11,31l22,41l43,54l18,19l-3,10l-31,36l-22,41l-12,38l-3,46l6,93l8,48l0,57l2,19l10,55l13,82l7,67l10,62l12,70l15,110l7,42l21,98l7,28l13,22l5,29l-3,18l-20,25l0,35l8,62l10,34l-2,14l3,37l8,35l13,45l12,25l-6,13l2,34l-18,1l-11,14l-4,21l4,25l-12,-3l-16,15l-4,28l-10,5l1,37l-7,8l23,69l18,26l-1,36l-17,17l-10,24l5,21l-5,37l7,30l11,31l4,22l2,40l-5,22l-14,1l-9,20l-5,29l-14,26l-13,60l-4,40l1,27l-2,40l2,33l-6,36l-1,18l13,69l10,25l-10,6l-3,21l9,82l-1,44l6,42l12,50l22,58l29,44l20,27l5,17l1,25l-4,8l-8,52l-1,82l3,20l-5,14l7,94l4,26l18,63l0,12l-11,21l-25,55l-14,8l-35,3l-20,5l-55,-1l-24,12l-47,47l-24,34l-28,64l-10,37l-4,47l3,21l15,71l-3,10l-52,40l-31,36l-18,26l-8,19l-7,30l-2,47l7,48l27,73l-2,18l4,22l-6,19l-16,13l-29,18l-21,20l-31,41l-15,33l-6,19l-4,30l1,33l6,40l14,39l21,41l24,34l19,22l33,27l10,17l0,55l4,67l10,30l16,63l11,34l3,47l-8,46l-10,69l-5,88l-5,76l-6,37l-15,33l-15,10l-37,6l-50,17l-28,5l0,-29l6,-15l18,-29l-1,-7l33,-55l15,-16l4,-22l-1,-19l9,-25l6,-35l2,-35l-3,-37l-16,-55l5,-14l5,-32l-22,-51l-11,-17l-45,-46l-45,-39l-32,-39l-22,-18l-24,-29l-21,-8l-19,-1l-63,1l-7,23l-1,59l-11,36l-34,65l-5,67l-9,51l-8,64l-12,60l3,17l30,57l16,16l18,19l27,20l25,11l48,15l25,36l-8,74l-15,28l-24,40l-19,44l-17,33l-14,32l-13,47l-4,27l1,51l6,27l21,72l28,62l31,44l12,25l21,37l3,31l-84,12l-48,14l-67,32l-30,19l-31,22l-56,51l-21,24l-62,90l-34,55l-15,28l-18,39l-12,44l-6,35l-20,38l-26,75l-26,97l-17,69l-4,47l-8,26l-3,25l-15,108l-5,103l1,42l-4,37l-19,61l-14,64l-6,42l-18,13l-4,11h-15l-22,7l-75,26l2,10l-22,63l9,13l-26,4l-45,20l36,31l21,43l18,30l17,16l33,16l-11,20l-24,21l-18,34l-8,38l8,41l18,39l-7,36l-12,41l-4,44l2,38l-3,77l8,42l8,20l18,23l-3,8l-37,2l-26,6l-43,27l-41,24l-32,35l-40,62l-23,51l-24,87l-21,110l-1,20l-9,18l-11,45l-2,30l-13,54l-8,90l-2,37l1,116l3,30l-13,9M-348616,-69824l7,15l-2,13l-52,-20l-10,-23l-1,-25l-6,-16l7,-50l18,-85l32,-64l13,-29l16,-45l8,1l8,14l13,9l59,84l9,24l4,37l13,41l5,22l3,34l-6,14l5,14l-3,28l-24,8h-44l-17,-3l-15,-8l-40,10Z"
     transform="matrix(9.9999984e-5,0,0,-9.9999984e-5,-3.5037037e-7,2.6074074e-8)" />
</svg>
