<?xml version="1.0" encoding="UTF-8" standalone="no"?>
<svg
   version="1.2"
   width="1080"
   height="1080"
   viewBox="-46.0282 2.7498 5.657699999999998 8.179"
   stroke-linecap="round"
   stroke-linejoin="round"
   id="svg7"
   sodipodi:docname="PIMeso.svg"
   inkscape:version="1.2 (dc2aedaf03, 2022-05-15)"
   xmlns:inkscape="http://www.inkscape.org/namespaces/inkscape"
   xmlns:sodipodi="http://sodipodi.sourceforge.net/DTD/sodipodi-0.dtd"
   xmlns="http://www.w3.org/2000/svg"
   xmlns:svg="http://www.w3.org/2000/svg">
  <defs
     id="defs11" />
  <sodipodi:namedview
     id="namedview9"
     pagecolor="#ffffff"
     bordercolor="#000000"
     borderopacity="0.25"
     inkscape:showpageshadow="2"
     inkscape:pageopacity="0.0"
     inkscape:pagecheckerboard="0"
     inkscape:deskcolor="#d1d1d1"
     showgrid="false"
     inkscape:zoom="0.7537037"
     inkscape:cx="540.66339"
     inkscape:cy="540.66339"
     inkscape:window-width="1920"
     inkscape:window-height="1001"
     inkscape:window-x="-9"
     inkscape:window-y="-9"
     inkscape:window-maximized="1"
     inkscape:current-layer="svg7" />
  <path
     id="2204"
     d="M-407643,-82440l11,8l36,1l39,14l36,-1l24,14l52,3l13,11l8,41l31,25l7,21l17,21l32,4l26,12l19,17l46,15l19,2l46,-16l34,3l36,-6l38,16l39,64l-2,85l17,44l13,16l62,17l20,42l12,12l26,12l18,20l24,45l71,18l20,11l23,41l27,15l25,40l5,109l8,28l80,50l57,-11l33,8l43,-12l16,6l9,25l-1,49l37,19l8,10l4,27l11,24l28,27l12,1l41,-18l42,7l26,-8l41,-24l34,-29l39,-1l58,-30l34,-6l3,9l-10,33l9,19l35,29l64,16l15,8l2,10l-14,90l-3,53l-29,35l-52,44l-19,81l-11,21l-16,17l24,41l-16,43l20,41l23,103l231,504l0,1l134,297l16,34l66,135l46,88l53,104l3,30l3,32l-4,54l-15,87l-4,74l44,500l31,130l5,47l-2,123l-40,184l-22,57l-32,53l-38,51l-36,40l-42,36l-93,60l-101,36l-501,126l-104,34l-62,24l-85,46l-101,74l-62,69l-21,31l-15,31l-21,90l1,49l21,84l16,38l23,43l30,49l56,59l30,22l69,41l24,18l94,82l37,44l18,29l29,52l32,67l33,117l7,34l13,70l6,46l1,29l-3,40l-6,39l-22,98l-18,60l-55,138l-46,94l-89,137l-56,62l-27,25l-52,43l-36,23l-29,33l-117,133l-40,52l-128,190l-11,19l-60,110l-31,71l-58,173l-5,5l-32,70l-15,59l-2,36l6,38l17,76l71,130l12,13l37,23l292,37l63,18l23,15l28,48l29,41l10,11l26,13l18,48l545,213l493,193l58,323l22,156l1,34l-15,56l4,35l13,17l39,35l126,86l8,6l47,43l39,58l21,60l6,24l-8,140l-29,102l-5,107l22,248l26,58l3,69l4,26l42,135l18,61l15,59l15,102l60,55l5,9l-9,127l85,248l28,116l-9,62l-39,55l-5,28l44,77l149,170l-1,28l11,36l100,91l16,24l44,49l47,86l44,67l10,78l77,80l47,33l32,29l11,25l-3,19l-29,16l-51,51l-35,46l-3,17l12,10l34,2l50,-29l11,-3l1,31l26,-3l123,74l54,21l14,9l-8,16l-41,46l-47,14l-80,3l-49,13l-12,28l-5,175l31,95l-16,76l-2,102l46,113l-5,19l-20,128l0,45l-8,22l-29,39l-20,34l-13,64l2,62l9,32l34,53l5,25l-11,93l-1,78l17,35l80,37l47,12l50,38l32,43l35,82l19,31l52,45l99,54l11,14l17,49l14,28l42,55l81,75l1,48l-36,26l-79,22l-68,14l-62,-11l-91,-44l-127,-100l-42,-11l-67,-1l-45,7l-35,24l-33,39l-28,143l-11,25l-55,33l-36,28l-22,50l-28,162l-12,49l-15,35l-21,21l-69,35l-32,37l-20,100l-30,21l-158,9l-149,4l-98,10l-163,46l-253,51l-59,9l-145,17l-129,8l-64,13l-35,1l-79,23l-63,33l-29,17l-131,98l-73,80l-55,79l-39,42l-22,6l-76,-2l-60,-6l-101,9l-255,7l-97,13l-76,47l-83,82l-54,62l-7,18l0,16l92,321l11,29l-1,9l-100,90l-19,26l-25,58l-26,103l-1,56l-11,69l-20,58l-37,62l-84,108l-235,207l-59,56l-40,46l-29,51l-15,58l2,30l14,45l6,48l-954,-800l-174,-145l-932,-782l-995,-834l-477,62l128,953l-598,-85l-68,-158l-429,5l-145,-25l-169,28l-28,5l-191,36l112,235l-347,235l-131,90l-414,247l-554,280l-820,90l-26,-514l32,-268l126,-327l21,-154l130,-585l6,-32l-631,66l-229,-341l-202,-301l-208,-310l-541,35l2,340l-771,31l-225,9l-33,3l-26,15l-504,752l-14,7l-45,31l-52,1l-98,25l-83,45l-198,135l-48,19l-47,11l-39,3l-59,6h-84l-51,4l-114,117l-29,62l-7,63l0,67l6,50l-26,15l-67,23l-57,22l-706,274l-448,-105l-218,-105l-577,-63l-17,-2h-91l-9,9l-38,13h-12l-37,-15l-23,13h-10l-365,-47l-229,223l-741,283l-258,67l-40,759l-470,-145l-189,-1482l-21,5l-28,14l-18,30l-8,7l-31,6l-14,-8l-15,1l-10,10l-9,21l-23,23l-11,6l-36,7l-22,8h-26l-22,3l-38,13l-39,-27l-19,-34l-8,-3l-10,-20l-19,-8l-35,34l-51,53l-17,8l-13,-3l-19,-14l-15,-28l-21,-17l-59,-2l-23,7l-58,-5l-29,-11l-17,3l-11,13l-13,-2l-20,-20l-18,-2l-13,11l-22,37l-16,20h-16l-49,-25l-59,-19l-9,-13l1,-22l-13,-37l4,-29l14,-13l28,-1l23,13l10,-3l0,-18l-5,-15l-31,-60l-28,-36l-5,-14l-2,-30l-8,-10l-41,-30l-54,-89l-10,-5l-13,6l-28,-6l-12,-17l-12,-5l-20,-1l-38,-18l-36,-6l-20,-17l-17,-22l-29,-24l-33,-10l0,14l-22,41l-27,33l-52,43l-39,17l-31,-5l-14,-5l-42,-35l-25,-35l-16,-35l-61,-44l-43,-22l-17,-1l-36,11l4,-15l12,-16l6,-27l11,-14l4,-16l13,-17l6,-24l11,-10l14,-2l15,-14l2,-10l-7,-19l-24,-25l-18,-10l-17,-31l-21,-7l-14,-11l-2,-8l-18,-18l-26,-21l-6,-22l0,-31l-3,-17l-19,-43l6,-15l21,-21l5,-12l-3,-14l-35,-44l-5,-24l-28,-37l-4,-33l4,-23l-21,-20l-14,2l-6,19l-10,8l-51,1l-1,-14l8,-25l-22,-4l-22,-21l-38,-21l-19,-15l-45,-16l-33,-3l-14,-8l-22,-21l-21,-13l-14,-17l-20,-37l-1,-51l-12,-19l1,-25l10,-14l3,-17l-1,-35l11,-22l32,-26l-5,-30l-13,-28l-1,-19l12,-9l14,-3l25,10l15,-14l0,-18l9,-27l28,-38l15,-10l22,-1l13,23l17,11l22,-7l6,-9l11,-35l32,-56l15,-15l32,-7l10,-6l18,-35l3,-20l41,-36l15,-17l-345,-989l-243,-295l33,9l170,28h18l69,-14l24,-1l688,116h37l30,3l573,95l404,67l-9,-82l2,-64l5,-103l8,-84l18,-82l9,-49l7,-90l3,-326l98,-411l-50,-465l79,-270l936,-535l-31,-118l-474,-1826l412,-164l46,27l28,-1l936,-65l481,-835l-460,-1014l-29,-66l-799,21l155,-134l868,-749l77,-67l-1222,-12l-440,-4l2,-24l-7,-14l-23,-11l-20,-25l-26,-11l-29,-3l-34,-9l-20,-22l-16,-14l-32,-13l-21,-28l-15,-13l-54,-5l-18,-15l-12,-30l-26,-11l-27,-23l-17,-9l-29,-2l-49,-8l-33,-13l-28,-15l-16,-5h-25l-29,-9l-607,555l-33,-771l-26,-572l-263,-65l-754,1623l32,963l-382,-30l-594,-46l-8,-319l-237,-200l-244,98l-14,-210l-274,-474l203,-223l496,-547l-109,-835l-121,-938l-27,-203l1,-433l327,-107l200,-7l34,-63l112,-126l52,-211l271,-354l32,-58l10,-10l247,-107l4,-31l-13,-21l-6,-22l-15,-26l2,-50l-2,-28l1,-40l-5,-47l2,-28l-7,-41l-12,-26l-6,-46l-14,-37l-5,-31l0,-35l3,-15l11,-22l-12,-28l-1,-39l3,-28l-1,-50l-22,-17l-2,-19l12,-17l19,-37l8,-29l-5,-26l19,-24l-4,-15l-10,-12l7,-20l24,-16l-4,-12l-20,-11l6,-14l-4,-28l35,-35l6,-14l-3,-28l3,-12l-13,-22l-30,-21l-32,-31l-4,-27l8,-20l22,-40l-4,-8l-20,-6l-15,-36l-25,-43l-5,-22l-17,-17l-3,-10l18,-68l-2,-23l-20,-9l-5,-9l4,-55l-7,-18l-16,-14l-2,-9l9,-32l-18,-53l-11,-13l0,-31l-25,-34l-9,-7l-16,-29l-22,-18l-29,-53l-15,-21l-20,-36l-30,-21l-13,-14l-29,-90l-9,-17l0,-35l-3,-26l-13,-39l3,-31l11,-34l18,-33l-7,-44l3,-23l-11,-54l-10,-18l2,-25l-22,-34l-4,-20l7,-34l-2,-11l-21,-15l-17,-29l-22,-81l-8,-46l-10,-21l-4,-18l-17,-48l-43,-37l-6,-11l-3,-24l4,-16l-12,-36l-3,-24l4,-21l8,-17l10,-44l33,-59l5,-22l0,-19l-11,-33l4,-31l-16,-36l-1,-29l9,-29l10,-22l-5,-36l-8,-17l-1,-17l7,-34l7,-73l2,-29l-3,-23l3,-35l-3,-18l-25,-51l5,-35l23,-41l-25,-30l-24,-20l-25,-14l-19,-38l-21,-25l-85,-79l-51,-19l-40,-21l-20,-26l-15,-44l-32,-31l-20,-30l-22,-51l-16,-28l-36,-34l-82,-51l-20,-15l-12,-15l-23,-59l-27,-35l-10,-34l-14,-27l-8,-33l-8,-20l-31,-63l-7,-53l-21,-51l1,-19l-9,-40l-3,-23l4,-34l0,-51l-17,-45l-34,-71l-3,-14l1,-33l-10,-25l-7,-28l9,-36l-4,-46l-3,-21l-16,-51l-18,-50l-14,-22l-13,-44l-2,-89l-14,-57l-5,-47l-27,-94l2,-22l16,-6l-5,-48l-70,-1110l96,51l1200,667l897,498l390,217l980,-32l665,-21l193,325l813,-191l207,652l306,-63l8,-1l323,238l10,-26l1,-21l-9,-23l16,-16l47,-6l41,-13l9,-16l2,-25l10,-9l16,-4l32,14l27,-2l7,4l28,26l54,-2l33,29l43,12l49,2l39,13h18l11,-10l8,-48l-7,-45l19,-19l21,-5l27,2l30,18l11,20l21,-3l43,-50l4,-19l-5,-48l17,-3l14,10l11,1l17,-14l6,-33l13,-3l28,7l24,30l55,28l12,12l-4,32l15,18l16,3l27,-12l29,1l40,-9l36,9l36,-29l23,-11l11,-12l12,-44l13,-20l54,-36l14,-7l36,4l44,23l32,7l21,-6l6,-9l5,-28l9,-27l31,-56l17,-20l16,-9l2,-14l12,-12l33,-23l10,-12l9,-29l28,-19h50l29,-17l10,-15l0,-12l-11,-10l-2,-44l16,-13l44,5l38,-5l15,3l18,-2l18,-13l24,-6l37,-2l3,-6l0,-43l13,-20h18l13,11l28,-6l25,-3l73,4l16,-3l21,-21l31,-10l15,-37l24,-27l7,-25l23,-12l11,-1l34,22l13,17l16,13l15,-1l11,-27l8,-31l-3,-13l22,-29l52,-51l24,-36l5,-22l14,-1l11,23l17,10l75,-21l31,2l21,5l14,-6l19,-17l20,-26l34,-20h22l32,-9l15,-16l4,-32l9,-9l22,-9l42,-44l6,-11l40,-26l16,-30l7,-26l14,-7l45,-7l25,-10l17,4l17,25l20,20l14,5l13,25l13,12l13,2l53,-3l51,-10l21,-14l11,-2l14,8l8,30l28,39l42,32h13l3,-10l-9,-25l3,-13l15,-15l29,-38l23,-13l26,3l26,14l13,-8l-5,-24l-9,-22l4,-12l41,-22l8,-19l18,-7l33,-26l28,-18l8,-9l-2,-23l9,-8l26,-1l30,-15l-3,-16l-13,-7l4,-17l24,-13l38,44l26,-6l25,-25h14l16,-9l5,-34l7,-11l1,-19l-16,-16l17,-30l18,-2l30,10l17,2l28,14l16,-3l9,-9l1,-22l22,-11l24,17l15,-6l30,12l16,-9l29,-17l36,-13l26,-29l17,11l20,-8l31,7l25,-6l14,12l17,53l18,9l16,21l38,-1l19,-7l16,3l15,-6l7,-18l7,-34l-15,-42l4,-11l19,-23l2,-9l18,-21l12,-45l9,-6l20,-2l26,2l24,23l34,15h37l18,-5l13,-43l24,-16l13,-15l8,-17l10,-10l11,1l21,10l35,6l22,10l53,20l3,10l19,4l33,-57l2,-18l36,-2l11,7l22,4l22,-1l23,-21l18,-7l13,-22l22,-8l37,25l24,4l10,-4l-2,-54l18,-41l20,-2l26,-24l21,-38l14,2l22,11l31,-10l14,-1l17,-12l8,-18l-15,-55l6,-9l48,-3l12,-9l23,-26l21,-18l10,-24l12,-4l18,31l17,3l35,-19l10,1l40,18l36,-15l14,-17l31,-19l15,-22l11,15l3,16l-15,35l5,10l39,4l19,15l31,2l9,-9l19,12l-10,14l8,8l39,-15l24,29l-14,29l25,34h18l23,-12l17,-14l44,2l9,19l15,-5l23,1l11,-14l26,-13l-3,-13l6,-13l-3,-12l26,-12l2,-15l31,-6l41,14l8,-17l21,23l3,22l6,7l14,-13l27,-6l9,-9l0,-14l24,-13l8,-15l13,11l14,-3l14,7l13,-17l-13,-27l14,-9l-10,-28l-12,-12l9,-11l-3,-23l4,-10l17,-5l4,-8l24,-9l25,10l10,8l28,-8l16,2l11,-8l16,4l3,-16l15,6l13,24l12,14l14,27l-5,32l12,46l15,7l7,23l-1,12l16,12l-2,12l10,16h17l9,8l35,6l16,-8l12,3l18,22l46,11l16,7l13,39l9,6l23,60l36,-11l6,4l9,33l20,17l15,3l2,15l21,43l14,12l2,9l28,8l49,4l13,6l27,-1l77,-7l30,-10l8,-12l18,5l21,-21l13,-45l31,-31l43,-25l76,-56l26,40l14,69l71,171l18,120l18,47l28,53l35,44l49,84l17,21l25,22l9,1l59,18l91,-2l71,-20l59,-12l70,-11l30,4l55,11l43,41l30,17l83,29l36,16l34,20l60,51l81,89l24,43l23,76l41,37l24,46l16,11l85,2l23,-7l46,-7l33,-12l25,11l17,1l50,-4l57,2l25,6l19,20l20,12l39,17l19,1l21,8l3,21l18,29l36,32l27,5l41,-7l37,15l24,-1l31,4l28,8l15,10l32,41l38,68l-1,107l-2,24l-14,21l-4,21l10,41l-1,16l-17,29l-29,31l0,25l29,8l19,1l28,6l18,10l22,49l10,14l11,5l134,-3l36,-8l24,10l6,42l24,15l33,6l13,7l29,25l20,24l14,28l19,62l2,14l62,99l3,15l-4,25l7,39l13,16l24,11l7,15l-4,33l-5,15l4,20l13,13l29,15l-8,22l-4,26l21,9l44,-13l38,16l46,-8l33,-36l17,-38l13,-9l16,-2l77,45l28,2l18,24l29,13l31,29l43,83l15,6h26l20,10l24,23l16,22l35,37l58,116l14,44l10,55l5,64l-4,46l23,64l10,12h24l111,-27l78,-25l16,-17l28,-17l21,6l8,26l3,24l-2,31l-14,73l3,17l16,36l22,137l24,61l10,12l4,21l47,49l50,17l104,16l15,10l18,28l26,6l22,-1l45,17l36,16l5,32l15,21l23,19l9,32l-12,55l2,10l25,33l7,4l130,9l34,12l22,3l29,-8l56,-82l36,-34l31,-13l13,-18l-6,-31l12,-9l23,-1l12,-16l29,-3l4,-4l-6,-27l10,-10l35,-12l12,-23l28,-26l91,-36l24,-18l23,-40l53,-47l36,-26h18l13,12l38,61l32,28h41l6,8l21,65l10,16l67,42l10,28l-12,21l0,24l10,57l-3,21l-16,23l-44,43l2,24l12,15l40,4l29,21l50,25l4,25l33,21l9,12l3,41l-8,21l-20,25l-4,13l6,23l-5,26l-44,28l-6,11l0,14l29,77l13,15l19,12l25,-1l76,-15l90,3l25,-11l25,-37l13,-12l37,-16l7,-57l22,-29l23,-20l-20,-21l7,-19l22,-3l24,3l38,-9l45,13l18,1l65,-20l8,3l44,46l35,24l53,84l33,19l8,11l1,15l-16,43l15,45l2,30l-5,24l-24,55l-7,35l5,16l38,60l0,12l-15,39l4,31l16,14l155,-14l41,2l55,17l10,9l6,18l0,40l48,69l27,25l32,11l6,9l4,35l-6,21l-16,32l22,27l5,29l8,14l-6,21l-25,39l2,21l8,22l-13,50l-2,24l-22,66l4,64l11,21l14,7l83,16l35,15l25,15l25,40Z"
     transform="matrix(1.0000001e-4,0,0,-1.0000001e-4,-5.4629623e-8,-2.0305556e-8)" />
  <path
     id="2202"
     d="M-428415,-67056l130,-189l352,-501l992,-604l282,-172l425,543l169,-107l20,37l14,17l21,13l22,21l14,8l33,3l45,16l19,15l38,21l22,21l22,4l-8,25l1,14l51,-1l10,-8l6,-19l14,-2l21,20l-4,23l4,33l28,37l5,24l35,44l3,14l-5,12l-21,21l-6,15l19,43l3,17l0,31l6,22l26,21l18,18l2,8l14,11l21,7l17,31l18,10l24,25l7,19l-2,10l-15,14l-14,2l-11,10l-6,24l-13,17l-4,16l-11,14l-6,27l-12,16l-4,15l36,-11l17,1l43,22l61,44l16,35l25,35l42,35l14,5l31,5l39,-17l52,-43l27,-33l22,-41l0,-14l33,10l29,24l17,22l20,17l36,6l38,18l20,1l12,5l12,17l28,6l13,-6l10,5l54,89l41,30l8,10l2,30l5,14l28,36l31,60l5,15l0,18l-10,3l-23,-13l-28,1l-14,13l-4,29l13,37l-1,22l9,13l59,19l49,25h16l16,-20l22,-37l13,-11l18,2l20,20l13,2l11,-13l17,-3l29,11l58,5l23,-7l59,2l21,17l15,28l19,14l13,3l17,-8l51,-53l35,-34l19,8l10,20l8,3l19,34l39,27l38,-13l22,-3h26l22,-8l36,-7l11,-6l23,-23l9,-21l10,-10l15,-1l14,8l31,-6l8,-7l18,-30l28,-14l21,-5l189,1482l470,145l40,-759l258,-67l741,-283l229,-223l365,47h10l23,-13l37,15h12l38,-13l9,-9h91l17,2l577,63l218,105l448,105l706,-274l57,-22l67,-23l26,-15l-6,-50l0,-67l7,-63l29,-62l114,-117l51,-4h84l59,-6l39,-3l47,-11l48,-19l198,-135l83,-45l98,-25l52,-1l45,-31l14,-7l504,-752l26,-15l33,-3l225,-9l771,-31l-2,-340l541,-35l208,310l202,301l229,341l631,-66l-6,32l-130,585l-21,154l-126,327l-32,268l26,514l820,-90l554,-280l414,-247l131,-90l347,-235l-112,-235l191,-36l28,-5l169,-28l145,25l429,-5l68,158l598,85l-128,-953l477,-62l995,834l932,782l174,145l954,800l-3,26l-44,171l-20,102l12,60l16,45l-1,28l-7,28l-15,96l0,168l-3,14l-51,171l-37,166l27,72l24,42l12,17l35,17l31,34l20,30l17,35l42,110l33,57l15,51l5,53l-10,136l-19,111l-9,32l-26,35l-11,45l-9,11l-20,11l-35,35l-24,7l-75,50l-76,69l-16,50l-51,119l-26,57l-38,62l-35,48l-33,31l-9,27l-18,25l-26,21l-165,189l-3,10l5,41l48,161l-33,95l-14,77l-8,70l-1,37l2,43l-9,40l-1,35l3,28l27,70l13,51l34,100l2,34l-9,45l-24,71l-87,180l-35,74l-38,102l-27,139l-51,173l-8,12l-37,39l-34,20l-36,17l-22,5l-157,-19l-20,7l-21,20l-12,18l-5,84l5,32l36,122l41,49l33,29l47,61l20,30l17,57l7,90l19,22l73,50l26,43l20,47l0,63l-5,55l-23,35l-3,24l5,75l-5,18l-11,15l-17,90l-1,137l-6,42l-23,22l-61,29l-59,66l-21,28l-9,19l-4,48l5,20l30,51l9,38l-1,18l-18,80l-42,121l-38,77l-22,67l-2,88l-15,100l-18,49l33,241l-7,70l-31,128l-2,160l-6,59l-11,26l-49,58l-11,42l-2,46l11,50l20,40l11,69l-5,17l-54,90l-47,54l-32,44l-9,21l-3,87l-19,92l-35,69l-49,60l12,41l50,38l35,23l43,12l101,20l35,33l11,24l7,85l16,34l22,43l23,54l5,46l-9,47l26,74l-2,40l-10,39l-17,31l-79,101l-7,48l-4,76l-14,38l5,82l-5,27l-13,33l-45,50l-53,40l-23,12l-16,13l-30,40l-6,16l1,20l12,65l-1,24l-11,38l-10,22l-26,40l1,11l12,27l37,23l26,25l4,41l-3,68l-10,21l-28,28l-5,13l3,20l35,56l-3,42l4,56l12,16l30,18l50,60h15l24,56l3,21l-4,24l-50,130l-14,26l-25,16l-70,33l-40,32l-9,14l-48,77l-20,74l3,20l10,19l22,24l21,9l31,1l46,-12l31,-2l61,3l36,11l24,21l38,68l-14,93l-20,50l-21,37l-51,62l-69,74l-53,67l-18,31l0,31l17,115l7,20l29,39l72,36l51,36l64,241l-4,48l-7,13l-103,70l-34,41l1,50l6,18l30,19l13,39l-25,79l2,17l30,30l16,6l68,-1l18,14l-7,32l-72,46l-26,56l-12,15l-72,61l-32,37l-28,19l-35,6l-17,7l-11,15l5,18l20,15l55,3l29,16l47,32l34,30l12,26l-6,25l-24,40l3,45l-7,30l-46,71l-20,41l0,25l17,60l24,58l15,12l11,37l-3,52l-34,52l-28,26l-27,17l-32,8l-107,-7l-9,4l-80,113l-47,43l-26,12l-38,7l-65,-1l-21,-9l-34,-31h-21l-20,22l-17,91l-8,18l-16,17l-24,10l-41,10l-50,63l-51,14l-39,23l-27,31l-13,151l-10,27l-19,12l-15,-2l-27,-15l-34,-32l-15,-5l-13,3l-33,74l-31,96l-12,16l-38,7l-25,-10l-30,-25l-71,-84l-20,-11l-14,2l-48,46l-87,18l-25,10l-30,28l-18,9l-55,10l-12,10l-6,25l17,70l-2,19l-21,21l-16,6l-32,27l3,43l-12,34l-11,18l-10,7l-56,15l-6,14l-1,65l-4,6h-43l-54,-6l-51,27l-41,14l-81,14l-26,2l-54,-6l24,86l14,22l7,19l25,35l12,32l20,24l6,29l11,20l-1,8l-14,16l-4,13l-1,25l7,30l-12,46l-17,20l-63,25l-14,11l-35,47l-13,23l-1,20l4,25l-7,55l-11,10l-14,3l-12,-6l-36,-56l-20,-18l-24,-6l-20,7l-34,42l-36,65l-66,83l-27,69l-20,23l-27,21l-33,32l-22,48l-26,38l-2,25l-35,16l-17,25l-36,28l-21,8l-24,1l-27,24l-24,-2l-7,-21l7,-17l-16,-20l-1,-24l-17,-33l-18,-7l-21,8l-37,29l-1,7l8,40l-4,16l-23,16l-63,-12l-25,3l-10,8l-10,20l1,56l-6,41l-40,71l-72,110l-8,27l2,40l19,32l39,51l8,24l-56,42l-70,64l-89,107l3,24l47,35l27,36l20,38l5,19l-13,161l-25,101l14,62l9,13l64,36l17,15l2,31l-6,25l-2,24l9,32l26,36l45,31l5,11l9,60l9,12l24,18l69,20l38,24l19,30l1,35l-8,18l-40,30l-41,11l-44,7l-55,-5l-71,19l-43,30l-37,8l-59,32l-26,28l1,24l44,32l22,26l49,20l36,23l10,23l-23,32l-2,22l26,51l31,27l33,23l17,22l22,56l35,16l24,17l33,49l121,108l55,71l34,58l26,28l31,22l20,47l48,61l57,24l15,23l0,16l-11,16l-18,7l-27,-8l-61,34l-15,31l-33,28l-48,73l-40,47l-36,59l-47,40l-98,53l-61,52l-23,26l-36,10l-13,24l-28,75l0,14l23,52l42,62l39,76l15,58l5,32l-2,19l-8,11l-45,13l-83,6l-29,9l-21,14l-27,21l2,16l16,14l28,-12l25,-5l37,11l53,1l49,15l59,88l15,60l21,26l36,13l8,21l1,31l8,15l5,50l24,87l16,16l37,20l25,31l23,13l29,49l17,78l8,85l-11,83l1,22l14,26l38,46l31,49l29,68l5,21l0,36l-9,47l6,22l14,16l6,38l7,23l-13,25l-9,37l3,20l15,16l44,80l61,91l13,36l26,40l15,44l4,25l-3,18l11,33l-5,109l-9,19l-18,19l-1,10l18,58l20,28l57,41l24,65l8,9l25,26l14,25l31,31l6,52l44,40l13,30l-1,27l5,12l19,14l1,14l59,42l16,1l12,6l45,46l1,36l7,27l13,55l0,20l-13,38l-6,39l9,26l-168,730l368,517l10,13l-36,1l-19,6l-22,1l-11,6l-26,-4l-19,4l-23,11l-22,15l-26,-8l-21,-2l-18,16l-17,-3l-17,2l-22,-4l-15,-8l-15,5l-40,-1l-9,-6l-31,-43l-12,-11l-24,-29l-12,-3l-12,6l-20,-4l-27,2l-14,-16l-15,-2l-20,-13l-10,-2l-23,25l-15,-2l-21,-16l-24,-1l-12,7l-36,48l-16,25l-41,19l-25,18l-6,15l13,14l3,11l-9,35l-22,28l-8,18l-10,8l-6,16l4,14l-23,23l-20,-15l-20,-7l-30,13l-5,22l7,20l-17,3l-15,10l-4,15l-22,26l-3,21l-15,1l-22,-12l-13,3l-11,15l-13,-3l-8,11l-26,-8h-23l3,-28l-5,-16l-15,-23l-25,-24l-18,-10l-20,-4l-11,7l-38,9l-15,-24h-12l-14,19l-13,9l-14,1l-13,-14l-13,-2l-17,6l-33,24l-9,14l-18,14l1,14l-16,25l-5,20l-38,35l0,10l-26,20l-19,2l-27,-26l-12,-4l-15,-16l-17,7l-14,-15l-13,-6l-3,-12l7,-11l-6,-18l-8,-7l-7,-27l-11,-21l3,-13l-5,-16l0,-25l-7,-23l-26,8l-17,-21l-39,-23l-53,-13l-4,-19l-22,-4l-17,-10l-41,6l-59,5l-20,13l-12,-6l-9,7l4,17l-12,25l-8,35l-4,33l-24,11l-17,-13l-10,-2l-10,21l9,31l3,34l-5,13l-26,-10l-21,10l-25,29l-34,-31l-26,-15l-40,-4l-7,7h-25l-13,-9l-10,-18l-16,-3l-19,5l-32,-4l-13,19l-1,23l6,19l-21,18l-10,1l-7,-13l-24,1l-23,20l-4,14l-11,12l-19,10l-21,20l-9,-16l0,-14l-39,-3l-18,-17l-3,-17l-12,6l-29,2l-25,-12l-5,-24l-8,-11l-6,-27l-19,-4l-20,10l-3,32l-14,4l-16,-13l-11,5l-10,-4l-5,-18l-9,-8l-2,-25l4,-15l-25,-7l-1,-12l-9,-10l-5,-14l-17,-5l-17,8l-46,-3l-11,-10l-19,1l-22,-7l-15,-18l-27,4l-9,22l-17,9l-10,-3l-27,3l-1,17l-25,20l-18,27l-3,13l-19,2l-16,14l-16,2l-22,-25l-4,-12l-19,-15l-6,-19l-25,-6l-15,-22l-12,-7l-57,-10l-6,-7l9,-28l-12,-36l-24,-19l-2,-10l10,-16l7,-23l-4,-17l-23,-24l-15,-32l-15,-7l-24,-1l-22,9l-15,-5l-37,-37l-17,-3l-22,-25l-3,-23l3,-18l-6,-7l-21,-5l-22,15l-22,28l-2,16l-18,13l-37,-2l-16,-10l-17,2l-7,10l-22,3l-45,-10l-29,-1l-37,13l-17,2l-7,8l5,12l-29,2l-54,-2l-31,2l-9,10l-31,-8l-16,11l2,10l-13,7l-277,-763l-216,-323l-142,-213l-23,29l-25,7h-21l-10,5l-43,-12l-39,-19h-17l-26,26l-1,12l-10,18l3,11l-23,-4l-15,-13l-32,13l-16,11l-31,-3l-14,31l-1,12l-14,27l-38,-22l-7,-12l-14,-3l-18,6l-7,-8l-22,-10l-12,-17l4,-9l13,-6l-1,-19l-14,-7l-6,-13l2,-18l23,-4l-2,-14l-28,-35l-31,-20l-10,-2l-8,11l-23,-26l-1,-13l-11,-21l5,-17l10,-4h25l9,-29l-17,-22l8,-17l-6,-25l-7,-7l-19,-1l-19,-8l2,-12l14,-2l4,-24l-5,-7l-54,2l-47,-13l-21,-25l-9,-23l-19,-9l-10,5l-11,-13l3,-24l-24,-11l-9,12l-19,5l-25,21l-31,-8l-12,-9l-21,-5l-38,2l-24,10l-3,26l-27,-4l-11,-19l-19,21l-12,-7l-30,-3l-6,-10l-16,-11l-19,-1l1,-13l16,6l13,-11l-3,-17l-13,-9l-1,-14l97,-301l-6,-37l-19,-2l-23,7l-4,-9l8,-18l39,-26l-3,-29l-26,-41h-17l-2,-8l9,-26l7,-8l14,1l24,14l4,15l18,20l14,5l14,-11l15,-38l10,-5l15,4l7,9l15,45l10,13l14,5l30,-14l9,-15l-4,-21l-29,-18l0,-13l7,-25l13,-27h9l25,15l43,12h14l25,-6l30,-20l28,2l23,30l41,-19l24,23l24,3l11,-3l55,-27l9,-13l-158,-294l-176,-243l-456,-419l-460,-422l-90,-226l-3,42l-24,20l-19,-7l-11,1l12,42l-11,5l-23,1l-7,13l9,31l-15,-10h-14l-18,27l8,28l-13,9l-13,-15l-8,13l-23,2l-2,19l12,5l0,23l-16,4l-12,17l-1,11l22,12l7,21l-24,7l-10,13l-20,1l7,-29l-13,-24l-11,-2l-12,12l-3,23l-24,20l-12,-5l-4,-14l-21,-4l-29,5l-1,17l-15,13l-17,5l-13,17l-21,9l-6,9l-7,26l12,15l2,14l-14,36l-6,5l-31,-3l-17,10l-9,16l0,13l8,9l-4,22l-18,8l-27,20l-16,8l-39,-1l-23,5l-22,-7l-25,6l-6,17l-9,4l-17,-11l-12,2l-3,17l-12,20l-13,12l-5,13l4,13l-12,9l-24,-22l-20,-6l-13,1l-15,16l-1,23l4,18l-9,14l-28,8l-11,-1l-6,16l7,8l-15,16l-12,29l13,17l-8,26l-22,-3l-23,11l-8,18l-28,10l6,20l-20,11l-8,16l4,20l6,9l-10,28l-21,24l1,10l-15,7l-6,14l-14,6l0,9l-23,4l-11,-11l-15,21l-15,8l-11,20l-23,-8l-3,16l-18,-8l-16,1l-23,-16l-4,6l-20,-18l-5,-17l-17,-11l-20,2l7,16l-2,12l-36,10l-10,21h-33l-19,17l-2,17l-9,23l-23,13l-16,5l-12,20l-23,2l-25,8l-6,8l-14,-3l-17,10l-3,19l-10,14l12,25l-16,59l-13,8l-29,33l-19,5l-19,-25l-29,45l-14,12l-22,-3l-6,5l-13,-13l-12,4l-7,12l-21,4l-11,-6l-5,-16l-20,-4l-18,-13l-17,3l-11,-12l-21,14l-12,-3l-8,-13l-33,-5l-18,8l-10,-4l-15,26l-12,2l-8,18l-14,-2l-5,16l-22,-1l-4,6l-22,-1l-15,10l-4,11l-31,-10l-6,-14l-14,-5l-29,16l-14,14l-27,-9l-28,4l-8,-12l-18,5l-18,22l-18,12l-16,20l-5,17l-25,20l-21,38l12,1l21,34l-13,12l-9,23l-42,14l-14,20l-39,10l-7,11h-17l-14,24l-30,22l-14,-11l-19,9l-9,22l-18,13l-3,24l-28,9l-2,9l-13,9l-17,-5l-16,-12l-15,11l-10,22l-38,8l-17,17l-18,13l-24,-12l0,-9l-22,-15l-7,6l-20,-5l-5,-12l-15,16l7,22l-28,6l2,10l-9,16l3,10l-15,19l9,22l-13,13l25,20l27,31l-4,20l-27,36l-9,-5l-13,11l-18,36l-22,16l-12,14l-524,-200l209,-293l-26,-305l-580,-312l-315,-170l-322,-170l-682,-360l-267,-138l-9,-5l-173,-16l-576,304l-820,431l150,94l-243,277l-290,62l-648,642l-74,73h-20l-18,-24l-14,-9l-24,-5l-35,2l-26,-3l-23,-22l-11,-18l-16,-9h-28l-16,-5l-14,-20l6,-21l-14,-28l-36,-15l1,-9l-15,-10l-6,-12l-18,-16l-16,-1l-11,-17l0,-14l-7,-10l-5,-28l-21,-22l-15,-34l10,-29l-1,-35l-12,-14l6,-27l7,-6l1,-19l9,-11l1,-14l-11,-19l12,-25l20,-24l-1,-20l6,-19l-2,-31l-444,101l-423,95l-430,98l-613,21l-395,-29l-246,63l-496,282l-772,100l-8,-67l0,-93l14,-61l18,-30l20,-25l29,-26l28,-10l48,-3l53,10l45,18l24,5l23,-2l69,-28l83,-53l130,-61l93,-56l89,-67l77,-70l57,-74l27,-48l5,-19l-1,-17l-18,-48l-28,-61l-19,-76l-6,-74l3,-20l24,-33l86,-49l118,-57l16,-8l10,-16l22,-86l6,-82l-3,-53l-21,-80l-22,-34l-110,-121l-74,-91l-16,-34l-7,-25l3,-23l51,-117l25,-81l7,-77l-31,-79l-34,-75l-51,-87l-90,-121l-66,-103l-32,-72l-40,-83l-153,-231l-78,-68l-84,-53l-122,-82l-39,-32l-25,-23l-14,-26l-5,-31l-2,-45l13,-57l26,-64l22,-35l28,-34l53,-39l92,-49l28,-18l22,-21l16,-22l8,-20l14,-88l2,-61l-11,-43l-44,-82l-80,-48l-77,-31l-31,-23l-23,-24l-17,-31l-8,-27l-6,-61l5,-56l20,-78l60,-143l33,-63l83,-87l108,-76l98,-60l63,-45l33,-30l27,-36l19,-58l9,-41l13,-103l-7,-109l-9,-67l0,-27l8,-21l14,-28l29,-67l42,-99l8,-14l56,-46l30,-16l27,-31l27,-59l22,-56l14,-18l17,-12l74,-28l29,-19l13,-28l-21,-106l-38,-102l-19,-45l-15,-55l24,-107l34,-135l40,-91l35,-93l53,-135l21,-94l6,-124l6,-97l17,-84l33,-82l9,-17l45,-53l35,-50l39,-41l38,-63l15,-29l9,-41l5,-116l13,-125l23,-73l12,-52l41,-66l25,-37l9,-42l14,-82l15,-124l22,-97l4,-66l-7,-62l-17,-54l-30,-53l-45,-65l-154,-160l-39,-57l-13,-45l7,-65l18,-55l6,-54l32,-77l49,-66l35,-60l26,-54l6,-73l-19,-187l-23,-96l-28,-78l-37,-119l-14,-56l-16,-31l-59,-59l-40,-31l-114,-59l-72,-31l-62,-21l-29,-12l-17,-10l-23,-32l-43,-93l-44,-44l-54,-45l-27,-12l-29,-6l-34,2l-27,4l-25,8l-36,5l-29,-5l-27,-9l-36,-18l-27,-27l-24,-49l-24,-65l-21,-75l-18,-53l-21,-55l-23,-51l-33,-48l-17,-20l-19,-17l-44,-21l-45,-11l-138,-12l-41,-10l-35,-15l-23,-13l-21,-18l-30,-43l-13,-41l-22,-168l-11,-62l-5,-39l-17,-35l-111,-87l-22,-19l-24,-31l-44,-66l-37,-76l-13,-34l-6,-63l2,-31l-1,-35l-13,-55l-21,-50l-52,-58l-63,-49l-31,-19l-20,-15l-18,-22l-18,-27l-12,-58l-2,-51l5,-20l-2,-28l-17,-40l-51,-94l-9,-13l-29,-8l-43,8l-41,4l-21,-1l-36,-12l-41,-23l-75,-24l-67,-7l-29,-1l-31,2l-29,-3l-46,-9l-26,-16l-35,-31l-30,-37l-22,-37l-16,-33l-23,-52l-8,-47l4,-19l19,-12l36,-12l25,-16l49,-37l17,-26l10,-24l16,-47l4,-49l-10,-47l-37,-84l-17,-30l-22,-65l5,-75l15,-69l24,-66l25,-166l22,-77l30,-86l7,-56l0,-44l-18,-41l-22,-24l-16,-7l-24,-1l-32,6l-43,15l-29,-15l-5,-8l-19,-41l-30,-58l-16,-57l27,-167l5,-65l-3,-85l14,-44l35,-48l24,-43l6,-40l-18,-65l-38,-107l-5,-48l21,-52l44,-64l49,-58l40,-70l40,-67l20,-41l2,-27l-7,-34l-16,-30l-37,-45l-60,-49l-44,-44l-42,-74l-29,-44l-9,-18l-3,-21l3,-19l29,-42l60,-45l17,-20l18,-29l6,-32l2,-32l-4,-70l-2,-89l6,-87l19,-72l40,-71l63,-91l31,-41l50,-31l31,-11l26,-4l51,-34l41,-40l24,-41l9,-36l-2,-52l-14,-114l-15,-43l-18,-29l-29,-36l-62,-65l-64,-36l-35,-18l-25,-21l-17,-25l-5,-15l0,-35l8,-77l8,-35l13,-19l23,-23l35,-28l36,-35l16,-22l25,-41l30,-58l42,-127l22,-59l13,-30l27,-39l13,-10l49,-23l65,-26l76,-5l78,4l69,-3l49,-7l49,-11l54,-20l39,-20l59,-54l43,-51l23,-50l14,-54l12,-101l6,-99l17,-78l39,-95l11,-15l75,-46l69,-44l39,-15l72,-16l78,-14l19,-8l15,-11l28,-36l28,-48l54,-67l80,-68l85,-50l63,-35l64,-24l39,-7l20,-1l40,4l41,9l32,-8l25,-21l81,-72l37,-40l29,-42l41,-66l2,-23l-12,-65l-4,-33l2,-29l18,-39l32,-44l34,-50l5,-14l2,-32l-22,-97l-6,-67l3,-65l-4,-25l-39,-56l-21,-38l-22,-46l-14,-39l-7,-38l9,-22l23,-13l29,-1l37,11l75,49l33,17l37,8l19,-7l26,-35l15,-50l2,-64l-8,-22l-15,-19l-18,-15l-58,-29l-54,-32l-33,-23l-36,-40l-24,-49l-25,-73l-2,-18l5,-28l12,-46l4,-25l-2,-24l-22,-56l-20,-31l-34,-22l-23,-28l-32,-48l-20,-33l-45,-63l-30,-39l-10,-36l5,-38l12,-50l38,-103l14,-56l18,-58l8,-33l1,-23l-15,-76l-1,-23l4,-26l19,-60l21,-51l4,-20l-14,-60l-16,-19l-8,-4l-100,-23l-30,-14l-20,-27l-21,-77l-3,-21l5,-20l9,-8l32,-7l17,-1l43,4l30,-1l12,-17l-8,-38l-13,-32l-38,-52l-25,-39l-31,-32l-17,-11l-16,-17l-15,-29l-6,-38l-2,-40l11,-70l31,-107l5,-25l0,-30l-5,-25l-23,-76l-31,-48l-43,-40l-69,-75l-32,-43l-17,-37l-14,-38l-12,-56l-19,-110l-10,-33l-19,-35l-19,-25l-9,-24l-8,-45l0,-23l9,-34l13,-36l15,18l44,-26l20,-7l4,-9l21,-10l19,-18l12,-2l34,-23l10,3l11,-16l20,5l11,9l23,-2l12,5l20,-5l16,-15l16,-1l6,9l79,-2l33,-14l44,-1l28,-14l24,-21l27,-10l33,4l154,-433Z"
     transform="matrix(1.0000001e-4,0,0,-1.0000001e-4,-5.4629623e-8,-2.0305556e-8)" />
  <path
     id="2203"
     d="M-430593,-93970l8,-8l14,-39l3,-61l-11,-70l1,-37l16,-1l23,46l17,10l31,-2l49,-9l41,-6l66,23l103,24l14,1l50,-6l19,8l22,19h19l23,-16h22l43,39l55,13l26,11l60,18l11,-3l51,-28l65,-20l33,-17l30,-29l47,-77l13,-26l9,-25l21,-24l12,-22l16,-40l7,-62l-44,-105l-21,-80l-1,-49l9,-78l26,-99l40,-76l37,-103l4,-29l-9,-28l1,-31l8,-40l52,-80l24,-24l90,-46l64,-18l153,26l40,-1l26,-7l25,-14l38,-34l62,-72l18,-29l79,-88l40,-56l36,-69l34,-23l32,-3l21,2l54,36l71,61l44,31l31,15l39,10l45,-7l25,-10l71,-70l18,-31l-16,-96l-5,-59l5,-53l23,-67l40,-61l20,-47l5,-38l-1,-133l5,-33l17,-17l34,-11l157,-5l85,14l57,1l55,10l101,8l48,24l33,48l10,26l9,136l12,49l11,16l35,21l78,26l42,25l26,27l72,103l15,15l105,71l22,23l13,19l7,19l0,33l-32,45l-26,94l2,41l9,18l10,6l38,7l39,-2l37,-19l33,-31l37,-24l69,-60l45,-23l102,-32l61,2l65,8l105,60l22,7l23,-1l54,-20l67,-3l54,42l24,12l25,-1l61,-32l21,4l21,20l12,27l41,68l74,67l31,46l9,17l7,14l60,94l34,36l7,21l17,19l18,10l21,6h42l26,-6l86,-41l19,-3l51,13l37,20l56,22l56,4l103,-23l64,-38l47,-8l55,-2l76,12l85,32l59,11l72,26l20,18l21,48l10,10l20,35l-8,39l-32,66l-12,37l1,31l12,34l23,21l35,15l26,6l46,1l60,-1l166,-33l25,1l32,9l44,24l36,26l52,52l22,28l36,55l13,29l19,186l12,41l22,34l45,43l47,31l34,16l115,76l93,45l115,29l119,70l15,6l52,45l28,54l1,21l-10,27l-5,28l0,61l11,59l19,27l51,40l59,34l145,68l37,23l20,32l35,92l35,39l8,5l89,11l83,37l89,23h35l117,-21l23,2l36,10l73,57l125,117l54,41l52,31l40,15l38,9l46,1l37,-9l22,-20l85,-49l53,-17l69,2l53,9l77,35l14,13l56,16l76,-1l188,-25l111,-2l75,9l133,33l44,8l84,3l71,12l18,7l45,23l33,34l45,29l45,35l16,19l83,71l36,23l26,15l24,7l60,4l59,-5l89,-10l84,3l21,6l82,57h28l32,-7l25,-18l72,-74l91,-63l32,14l75,50l105,92l30,18h34l60,-47l80,-88l29,-16h103l77,-36l81,-59l18,-24l27,-22l32,-10l37,3l40,14l43,33l22,33l16,78l11,31l30,22l117,16l51,23l59,76l61,67l24,18l41,8h30l37,-10l50,-31l25,-14l44,-19l47,-2l51,19l41,61l27,73l10,63l15,62l55,157l13,63l20,54l25,49l41,53l111,92l21,44l-11,115l11,57l27,33l60,47l32,37l78,73l43,33l139,69l33,21l72,63l87,66l55,56l23,35l25,70l17,179l-17,128l-6,72l3,35l22,183l20,72l23,44l29,29l60,12l107,7l181,-24l83,17l40,21l32,24l34,43l13,30l-4,26l-14,29l1,30l9,19l47,18l37,6l120,-6l22,4l34,22l25,9l75,-12l18,2l36,14l39,27l21,45l7,29l1,34l25,19l79,10l9,7l41,99l27,3l62,-18l19,6l37,29l16,3l142,4l54,-3l13,-30l7,-42l3,-52l6,-21l19,-8l39,21l19,16l54,28l83,21l13,12l-16,48l6,27l26,27l2,14l-29,72l7,37l35,44l52,26l20,5l15,11l14,17l38,83l41,71l9,36l-4,50l13,18l31,26l14,16l62,27l35,26l5,17l1,24l-9,34l-29,40l-5,33l5,14l58,70l21,51l5,6l66,13l11,11l12,49l11,18l23,23l6,12l15,70l10,2l18,-12h74l29,6l25,12l4,11l-3,19l6,17l43,36l22,35l59,64l26,39l73,56l44,43l41,43l60,77l28,20l21,4l22,-44l12,-11l21,-4l26,49l103,233l-76,56l-43,25l-31,31l-13,45l-21,21l-18,-5l-8,12l-30,10l-77,7l-27,1l-13,-6l-49,-4l-28,-8l-2,-9l-14,-12l-21,-43l-2,-15l-15,-3l-20,-17l-9,-33l-6,-4l-36,11l-23,-60l-9,-6l-13,-39l-16,-7l-46,-11l-18,-22l-12,-3l-16,8l-35,-6l-9,-8h-17l-10,-16l2,-12l-16,-12l1,-12l-7,-23l-15,-7l-12,-46l5,-32l-14,-27l-12,-14l-13,-24l-15,-6l-3,16l-16,-4l-11,8l-16,-2l-28,8l-10,-8l-25,-10l-24,9l-4,8l-17,5l-4,10l3,23l-9,11l12,12l10,28l-14,9l13,27l-13,17l-14,-7l-14,3l-13,-11l-8,15l-24,13l0,14l-9,9l-27,6l-14,13l-6,-7l-3,-22l-21,-23l-8,17l-41,-14l-31,6l-2,15l-26,12l3,12l-6,13l3,13l-26,13l-11,14l-23,-1l-15,5l-9,-19l-44,-2l-17,14l-23,12h-18l-25,-34l14,-29l-24,-29l-39,15l-8,-8l10,-14l-19,-12l-9,9l-31,-2l-19,-15l-39,-4l-5,-10l15,-35l-3,-16l-11,-15l-15,22l-31,19l-14,17l-36,15l-40,-18l-10,-1l-35,19l-17,-3l-18,-31l-12,4l-10,24l-21,18l-23,26l-12,9l-48,3l-6,9l15,55l-8,18l-17,12l-14,1l-31,10l-22,-11l-14,-2l-21,38l-26,24l-20,2l-18,41l2,54l-10,4l-24,-4l-37,-25l-22,8l-13,22l-18,7l-23,21l-22,1l-22,-4l-11,-7l-36,2l-2,18l-33,57l-19,-4l-3,-10l-53,-20l-22,-10l-35,-6l-21,-10l-11,-1l-10,10l-8,17l-13,15l-24,16l-13,43l-18,5h-37l-34,-15l-24,-23l-26,-2l-20,2l-9,6l-12,45l-18,21l-2,9l-19,23l-4,11l15,42l-7,34l-7,18l-15,6l-16,-3l-19,7l-38,1l-16,-21l-18,-9l-17,-53l-14,-12l-25,6l-31,-7l-20,8l-17,-11l-26,29l-36,13l-29,17l-16,9l-30,-12l-15,6l-24,-17l-22,11l-1,22l-9,9l-16,3l-28,-14l-17,-2l-30,-10l-18,2l-17,30l16,16l-1,19l-7,11l-5,34l-16,9h-14l-25,25l-26,6l-38,-44l-24,13l-4,17l13,7l3,16l-30,15l-26,1l-9,8l2,23l-8,9l-28,18l-33,26l-18,7l-8,19l-41,22l-4,12l9,22l5,24l-13,8l-26,-14l-26,-3l-23,13l-29,38l-15,15l-3,13l9,25l-3,10h-13l-42,-32l-28,-39l-8,-30l-14,-8l-11,2l-21,14l-51,10l-53,3l-13,-2l-13,-12l-13,-25l-14,-5l-20,-20l-17,-25l-17,-4l-25,10l-45,7l-14,7l-7,26l-16,30l-40,26l-6,11l-42,44l-22,9l-9,9l-4,32l-15,16l-32,9h-22l-34,20l-20,26l-19,17l-14,6l-21,-5l-31,-2l-75,21l-17,-10l-11,-23l-14,1l-5,22l-24,36l-52,51l-22,29l3,13l-8,31l-11,27l-15,1l-16,-13l-13,-17l-34,-22l-11,1l-23,12l-7,25l-24,27l-15,37l-31,10l-21,21l-16,3l-73,-4l-25,3l-28,6l-13,-11h-18l-13,20l0,43l-3,6l-37,2l-24,6l-18,13l-18,2l-15,-3l-38,5l-44,-5l-16,13l2,44l11,10l0,12l-10,15l-29,17h-50l-28,19l-9,29l-10,12l-33,23l-12,12l-2,14l-16,9l-17,20l-31,56l-9,27l-5,28l-6,9l-21,6l-32,-7l-44,-23l-36,-4l-14,7l-54,36l-13,20l-12,44l-11,12l-23,11l-36,29l-36,-9l-40,9l-29,-1l-27,12l-16,-3l-15,-18l4,-32l-12,-12l-55,-28l-24,-30l-28,-7l-13,3l-6,33l-17,14l-11,-1l-14,-10l-17,3l5,48l-4,19l-43,50l-21,3l-11,-20l-30,-18l-27,-2l-21,5l-19,19l7,45l-8,48l-11,10h-18l-39,-13l-49,-2l-43,-12l-33,-29l-54,2l-28,-26l-7,-4l-27,2l-32,-14l-16,4l-10,9l-2,25l-9,16l-41,13l-47,6l-16,16l9,23l-1,21l-10,26l-323,-238l-8,1l-306,63l-207,-652l-813,191l-193,-325l-665,21l-980,32l-390,-217l-897,-498l-1200,-667l-96,-51l70,1110l5,48l-16,6l-2,22l27,94l5,47l14,57l2,89l13,44l14,22l18,50l16,51l3,21l4,46l-9,36l7,28l10,25l-1,33l3,14l34,71l17,45l0,51l-4,34l3,23l9,40l-1,19l21,51l7,53l31,63l8,20l8,33l14,27l10,34l27,35l23,59l12,15l20,15l82,51l36,34l16,28l22,51l20,30l32,31l15,44l20,26l40,21l51,19l85,79l21,25l19,38l25,14l24,20l25,30l-23,41l-5,35l25,51l3,18l-3,35l3,23l-2,29l-7,73l-7,34l1,17l8,17l5,36l-10,22l-9,29l1,29l16,36l-4,31l11,33l0,19l-5,22l-33,59l-10,44l-8,17l-4,21l3,24l12,36l-4,16l3,24l6,11l43,37l17,48l4,18l10,21l8,46l22,81l17,29l21,15l2,11l-7,34l4,20l22,34l-2,25l10,18l11,54l-3,23l7,44l-18,33l-11,34l-3,31l13,39l3,26l0,35l9,17l29,90l13,14l30,21l20,36l15,21l29,53l22,18l16,29l9,7l25,34l0,31l11,13l18,53l-9,32l2,9l16,14l7,18l-4,55l5,9l20,9l2,23l-18,68l3,10l17,17l5,22l25,43l15,36l20,6l4,8l-22,40l-8,20l4,27l32,31l30,21l13,22l-3,12l3,28l-6,14l-35,35l4,28l-6,14l20,11l4,12l-24,16l-7,20l10,12l4,15l-19,24l5,26l-8,29l-19,37l-12,17l2,19l22,17l1,50l-3,28l1,39l12,28l-11,22l-3,15l0,35l5,31l14,37l6,46l12,26l7,41l-2,28l5,47l-1,40l2,28l-2,50l15,26l6,22l13,21l-4,31l-247,107l-10,10l-32,58l-271,354l-52,211l-112,126l-34,63l-200,7l-327,107l-1,433l27,203l121,938l109,835l-496,547l-203,223l274,474l14,210l244,-98l237,200l8,319l594,46l382,30l-32,-963l754,-1623l263,65l26,572l33,771l607,-555l29,9h25l16,5l28,15l33,13l49,8l29,2l17,9l27,23l26,11l12,30l18,15l54,5l15,13l21,28l32,13l16,14l20,22l34,9l29,3l26,11l20,25l23,11l7,14l-2,24l440,4l1222,12l-77,67l-868,749l-155,134l799,-21l29,66l460,1014l-481,835l-936,65l-28,1l-46,-27l-412,164l474,1826l31,118l-936,535l-79,270l50,465l-98,411l-3,326l-7,90l-9,49l-18,82l-8,84l-5,103l-2,64l9,82l-404,-67l-573,-95l-30,-3h-37l-688,-116l-24,1l-69,14h-18l-170,-28l-33,-9l243,295l345,989l-15,17l-41,36l-3,20l-18,35l-10,6l-32,7l-15,15l-32,56l-11,35l-6,9l-22,7l-17,-11l-13,-23l-22,1l-15,10l-28,38l-9,27l0,18l-15,14l-25,-10l-14,3l-12,9l1,19l13,28l5,30l-32,26l-11,22l1,35l-3,17l-10,14l-1,25l12,19l1,51l-169,107l-425,-543l-282,172l-992,604l-352,501l-130,189l-154,433l-33,-4l-27,10l-24,21l-28,14l-44,1l-33,14l-79,2l-6,-9l-16,1l-16,15l-20,5l-12,-5l-23,2l-11,-9l-20,-5l-11,16l-10,-3l-34,23l-12,2l-19,18l-21,10l-4,9l-20,7l-44,26l-15,-18l2,-30l-6,-39l-15,-43l-4,-41l-13,-56l-12,-21l-15,-16l-47,-36l-36,-32l-29,-35l-77,-111l-28,-34l-40,-44l-40,-33l-57,-30l-69,-23l-67,-30l-25,-14l-45,-31l-34,-34l-31,-49l-19,-62l-17,-60l-20,-43l-33,-60l-17,-17l-42,-27l-92,-55l-32,-14l-32,-9l-51,-10l-67,-8l-47,-3l-171,10l-48,18l-47,26l-35,30l-37,42l-14,6l-42,2l-58,5l-52,2l-23,-4l-37,-15l-27,-28l-37,-46l-27,-26l-28,-48l-21,-24l-38,-22l-46,-19l-32,-19l-31,-12l-40,-10l-37,-11l-40,-22l-40,-19l-33,-11l-28,4l-66,-13l-33,-3l-33,7l-30,15l-53,39l-48,38l-48,27l-56,25l-39,13l-75,6l-72,4l-34,5l-54,4l-60,10l-114,6l-74,-4l-53,-6l-82,-15l-47,-6l-31,-8l-22,-9l-14,-16l-12,-19l-26,-48l-15,-22l-56,-61l-28,-20l-61,-54l-22,-11l-63,-23l-49,-13l-67,-13l-46,-12l-65,-8l-83,-5l-52,-2l-48,4l-30,7l-50,15l-24,4l-32,-2l-32,-7l-26,4l-37,11h-29l-24,-9l-47,-32l-16,-18l-21,-44l-4,-21l-13,-34l-16,-24l-22,-18l-11,-15l-23,-8l-61,15l-32,4l-52,16l-27,4l-38,-11l-9,-5l-9,-19l-5,-22l0,-21l13,-57l-13,-37l-14,-9l-13,-1l-42,9l-40,-4l-26,-16l-12,-21l-17,-20l-26,-18l-57,-20l-46,-7l-69,10l-50,23l-63,21l-35,8l-34,-2l-18,-7l-38,-24l-33,-40l-15,-9l-29,-1l-25,12l-53,50l-75,7l-58,23l-26,15l-22,24l-30,58l-22,57l-19,43l-14,37l-18,28l-47,45l-67,54l-33,20l-45,13l-25,4l-94,23l-46,20l-36,12l-65,13l-21,12l-33,43l-11,24l-6,44l1,32l-5,45l-18,71l-20,34l-24,36l-59,65l-26,16l-22,5l-22,-1l-18,3l-30,-3l-7,-14l-2,-34l-10,-21l-31,-23l-24,-12l-23,-4l-38,10l-29,25l-51,62l-29,27l-36,24l-23,10l-70,23l-62,27l-72,27l-54,42l-17,15l-36,37l-31,41l-21,19l-54,30l-89,39l-188,61l-21,3l-39,-14l-40,-5l-57,2l-55,-6l-49,-11l-18,1l-28,12l-25,34l-4,40l-30,12l-78,11l-29,-9l-108,-52l-59,-1l-167,8l-25,6l-40,10l-29,1l-70,-58l-42,-56l-29,-11l-41,10l-37,27l-83,89l-12,3l-30,-1l-24,-11l-23,-21l-28,-80l-25,-40l-31,-30l-119,-70l-63,-20l-157,-45l-95,-12l-22,-6l-39,-29l-53,-52l-53,-35l-54,-48l-45,-48l-17,-10l-43,-9l-139,42l-45,8l-112,10l-27,-11l-24,-20l-89,-146l-5,4l-22,-11l-19,-9l-25,6l-75,36l-27,23l-12,24l-30,114l-37,50l-38,35l-44,13l-95,-23l-106,-103l-64,-28l-61,3l-116,-19l-128,8l-51,-21l-101,-2l-17,-8l-28,-31l-10,-24l-40,-27l-105,11l-41,-61l-27,-103l-7,-60l11,-152l7,-25l-26,-50l-20,-12l-60,-68l-73,3l-58,113l-33,48l-28,17l-57,-1l-126,10l-58,-6l-10,-5l-23,-23l0,-91l8,-29l25,-54l82,-70l61,-97l3,-17l-4,-43l-18,-52l-13,-13l-25,-41l-28,-13l-18,2l-52,47l0,53l-8,54l-2,38l-47,56l-52,-28l-60,-94l-50,-102l-11,-50l-20,-39l-14,-11l-94,-29l-33,3l-102,-67l-78,-105l-12,-27l-12,-16l-21,-63l-6,-70l0,-16l6,-75l21,-84l-13,-51l-37,-20l-42,7l-67,8l-55,-17l-35,-24l-22,-31l-13,-57l6,-100l-10,-86l-22,-53l-35,-74l-64,-55l-115,-128l-72,-82l-27,-23l-37,-14l-64,-11l-32,7l-85,14l-31,-6l-14,-16l-10,-23l4,-100l-8,-54l-33,-52l-49,-48l-45,-56l-19,-36l-15,-71l10,-62l28,-66l20,-66l-1,-55l-17,-43l-55,-73l-48,-56l-52,-65l-64,-74l-27,-59l-24,-72l-24,-34l-29,-16l-21,-2l-27,10l-52,27l-51,36l-42,21l-38,14h-24l-30,-17l-28,-23l-33,-10l-63,-8l-54,-13l-40,-32l-35,-20l-27,-7l-42,1l-20,3l-40,14l-39,7l-32,-4l-42,-12l-43,-23l-60,-37l-75,-30l-53,-36l-54,-33l-27,-19l-34,-39l-21,-35l-33,-26l-45,-29l-76,-34l-117,-46l-36,-2l-41,7l-29,-4l-16,-6l-63,-40l-50,-23l-55,-39l-64,-57l-39,-52l-9,-8l-44,-17l-72,-13l-35,-18l-72,-67l-18,-25l-16,-45l-23,-101l-18,-46l-17,-35l-35,-33l-46,-23l-32,-21l-22,-9l-29,-1l-88,19l-31,-1l-49,-7l-43,1l-39,-8l-23,-17l-14,-28l-10,-44l-21,-39l-9,-25l-2,-19l-9,-42l-17,-24l-25,-28l-19,-25l-38,-33l-36,-15l-24,-13l-26,-23l-38,-27l-10,-19l-3,-27l4,-43l-1,-11l-43,-34l-55,-77l-39,-61l-5,-21l-14,-40l-17,-34l-35,-48l-40,-14l-29,5l-55,2l-12,-7l-35,-33l-24,-10l-37,-7l-14,-12l-3,-49l-7,-20l-18,-17l-25,-8l-32,-5l-38,-11l-50,-8l-25,-10l-24,-22l-26,-38l-37,-101l-10,-56l-9,-19l-25,-21l-39,-28l-11,-17l-7,-51l-10,-37l3,-33l-10,-32l-24,-26l-8,-47l-4,-48l-35,-75l-25,-16h-40l-29,3l-29,-3l-16,5l-13,23l-7,6l-13,-5l-44,-48l-16,-5l-84,23l-17,8l-37,24l-25,13l-18,2l-12,9l-31,54l-22,33l-5,16l-2,27l-9,41l-23,54l-11,27l-2,19l-11,15l-27,4l-13,-4l-51,-23l-15,-10l-32,-28l-59,-42l-39,-17l-28,-6l-32,6l-10,-1l-33,-17l-33,-25l-11,-5l-17,13l-33,46l-7,7l-57,16l-52,26l-28,8h-14l-35,12l-60,33l-32,13l-19,4l-16,-8l-17,-61l-9,-24l-7,-56l-47,-37l-41,-21l-40,-19l-56,-18l-17,-3l-40,2l-23,-6l-16,-18l-19,-51l-31,-29l-2,-19l17,-29l-4,-26l-32,-38l-25,-24l-28,-10l-20,-11l-29,-36l-12,-51l-9,-16l-17,-15l-17,-8l-49,-13l-51,-23l-22,7l-18,15l-41,1l-23,5l-47,1l-29,-3l-13,-8l-22,-25l-14,-26l-25,-58l-16,-50l-8,-11l-39,-26l-12,-19l-5,-18l-30,-14l-13,-17l-27,-58l-13,-59l2,-32l-5,-23l-14,-12l-36,-15l-16,-1l-32,5l-31,19l-12,1l-48,-26l-57,-25l-78,-3l-33,-16l-40,-24l-21,-30l-10,-6l-49,-6l-42,1l-35,11l-32,-1l-33,11l-17,-1l-23,-13l-34,-23l-28,-43l-42,-40l-32,-34l-16,-9l-17,1l-52,22l-54,-6l-28,-8l-12,-17l-49,-27l-52,-22l-60,-31l-33,-20l-70,-42l-24,-9l-18,11l-42,36l-15,5l-81,15l-11,5l-17,19l-35,3l-32,7l-69,2l-21,7l-19,-1l-41,-19l-63,-3l-65,-22l-15,-9l-38,-9l-13,-19l0,-17l-12,-2l-15,17l-18,3l-69,-19l-62,-20l-58,-38l-18,-22l-18,-13l-26,-9l-20,1l-33,8l-35,3l-10,13l-10,25l-15,19l-20,18l-17,9l-16,-5l-13,-11l-18,-29l-29,-15l-12,-10l-39,-48l-18,-16l-28,-15l-28,-19l-13,-26l-11,-12l-17,-51l-21,-35l-45,-28l-40,-34l-15,-4l-39,2l-44,-15l-27,-6l-18,-12l-35,-36l-18,-23l-27,-53l-18,-27l-16,-14l-33,-15l-19,-1l-21,12l-4,17l2,49l-42,65l-37,48l-27,2l-51,-28l-9,-3l-33,-23l-49,-24l-41,-22l-22,-23l-28,-14l-9,-10l-8,-30l-13,-25l-21,-17l-13,-1l-45,11l-87,33l-44,-9l-18,9l-30,5l-11,-7l-15,-30l-10,-14l-34,-13l-23,-12l-41,-12l-22,2l-58,-8l-33,1l-40,12l-17,2l-60,-10l-29,2l-33,-6l-21,-9l-46,-11l-47,-27l-13,-14l-6,-30l2,-36l-7,-44l-12,-10l-23,-6l-42,-31l-26,-24l-54,-45l-18,-11l-34,-40l-39,-35l-15,-18l-41,-36l-12,-2l-20,8l-56,49l-16,7l-44,1l-49,-4l-21,-9l-15,-11l-10,-17l-5,-43l-12,-25l-4,-55l3,-21l0,-87l-9,-18l-18,-16l-30,-11l-50,-5l-37,3l-23,-6l-10,-12l-5,-36l22,-35l-1,-24l-12,-16l-40,-26l-17,-5l-46,2l-48,-8l-18,-9l-18,-18l-25,-34l-7,-19l21,-39l5,-16l-5,-17l-21,-23h-26l-44,34l-42,12l-30,16l-41,19l-19,-8l-26,-29l-6,-24l6,-18l39,-32l13,-4l59,-5l8,-17l-9,-26l-19,-19l-50,-4l-37,-6h-16l-42,8l-31,-4l-13,-11l-5,-26l1,-22l14,-49l-3,-41l2,-40l12,-46l-15,-18l-41,4l-23,-2l-51,-11l-19,-15l-12,-34l-24,-71l-7,-17l4,-25l9,-35l27,-33l11,-36l4,-60l-8,-29l-19,-15l-19,7l-19,25l-13,27l-7,4l-55,-14l-10,-20l6,-26l14,-21l64,-71l39,-19l-1,-12l-11,-23l-67,-82l-3,-44l5,-18l25,-25l4,-16l-12,-26l-31,-9l-18,6l-30,31l-12,2l-19,-21l3,-28l19,-33l9,-28l-3,-19l-23,-18l-87,-13l-10,-10l-2,-12l12,-55l1,-33l-7,-22l1,-50l-11,-49l-34,-47l-9,-16l-8,-32l-9,-17l-48,-18l-42,-20l-10,-14l4,-22l-1,-33l20,-42l-1,-19l4,-37l-13,-21l-52,-5l-15,-4l-28,-19l-29,-15l-19,-9l-6,-21l46,-89l30,-30l29,-14l23,-25l10,-5l39,-7l19,-14l7,-18l-3,-25l-25,-12l-45,-1l-58,-22l-45,-6l-25,-16l-25,-31l-2,-12l15,-12l67,-30l59,-40l35,-8l13,-10l8,-26l-3,-16l-12,-23l-19,-23l-7,-17l-41,-48l-16,4l-27,17l-20,17l-14,4l-37,-10l-13,-7l6,-30l23,-47l0,-20l-15,-47l-27,-55l-3,-28l-15,-38l-28,-27l-28,-7l-33,-37l8,-13l24,-19l12,-5l57,1l9,-14l-1,-30l-14,-32l-5,-31l-30,-16l-50,-15l-16,-27l-17,-54l-8,-17l-51,-51l-14,-30l-8,-29l-14,-32l4,-18l17,-21l53,-29l47,-29l32,-21l19,-19l8,-17l-2,-18l-11,-31l-20,-13l-22,-4l-15,6l-32,20l-18,5l-15,-2l-20,-14l-25,-47l-51,-51l-32,-16l-11,-13l4,-16l40,-36l38,-25l41,-52l21,-30l3,-14l-4,-28l-7,-12l-23,-5l-14,-8l-10,-15l-2,-54l3,-25l-3,-75l2,-21l-13,-41l-22,-34l-24,-31l-5,-20l-11,-14l-26,-17l-15,-20l-3,-15l3,-22l-10,-19l-14,-10l-27,-11l-8,-11l-2,-24l8,-40l24,-27l12,-8l31,-30l25,-48l-5,-20l-23,-22l-50,-70l-33,-40l-9,-76l13,-56l18,-53l7,-15l11,-58l-1,-18l-38,-67l-40,-53l-8,-30l-7,-12l-20,-14l-40,1l-30,-8l-10,-10l-20,-40l-27,-21l-18,-32l-36,-10l-20,-47l0,-21l9,-43l10,-17l29,-25l8,-23l0,-10l-35,-34l-28,-12l-27,-27l-15,-27l-18,-18l-47,-23l-84,-53l-20,-19l-28,-46l-54,-69l-17,-27l-6,-25l-9,-9l-24,-8l-51,-27l-37,-1l-26,-12l-15,-17l-14,-41l-1,-22l4,-34l2,-35l6,-35l-6,-35l-2,-39l-18,-90l-6,-51l-11,-30l-22,-18l-21,-7l-17,-23l-19,-48l-17,-20l-9,-17l1,-39l-8,-24l-14,-27l-2,-10l5,-22l1,-36l-5,-14l-26,-34l-18,-33l-36,-52l-13,-15l-1,-15l16,-43l1,-14l-9,-30l0,-29l-6,-58l-29,-64l-8,-10l-25,-14l-45,-4l-19,-12l-17,-21l-18,-17l3,-34l9,-46l18,-34l1,-6l-19,-51l-14,-18l-14,-9l-30,7h-26l-21,-12l-14,-13h-26l-23,-16l-29,-29l-3,-16l14,-20l23,-12l0,-10l-13,-47l-19,-15l-34,-9l-21,-10l-23,-24l-9,-19l-1,-30l-16,-26l-3,-33l10,-27l35,-38l2,-12l-9,-15l-48,-38l-15,-51l-3,-16l-51,-41l-18,-35l-5,-35l5,-42l15,-79l2,-59l5,-26l-1,-21l-19,-86l-26,-55l-6,-23l0,-23l11,-28l21,-14l21,-9l33,-7l6,-8l-13,-30l-40,-33l-28,-40l-55,-59l-10,-13l-19,-64l-19,-23l2,-22l15,-21l3,-15l-1,-30l16,-51l-2,-13l-54,-66l-17,-5l-9,-17l4,-64l-1,-28l-10,-27l-21,-22l-29,-39l-20,-20l-13,-24l-16,-14l-46,-12l-34,-28l-32,-21l-12,-5l-43,-4l-26,1l-22,-11l-7,-10l-5,-28l0,-44l3,-9l28,-20l50,-22l42,-14l45,-47l45,-29l58,-16l19,-20l-9,-17l-44,-16l-24,-21l-26,-32l-11,-2l-116,6l-35,12l-30,27l-22,-1l-10,-14l7,-54l-2,-8l-16,-5l-27,-1l-16,-5l-13,-11l-44,-48l-41,-32l-20,-20l-16,-28l-19,-40l-5,-27l0,-26l-20,-29l11,-50l24,-19l15,-4l33,12l10,-9l-1,-25l-9,-10l-66,-55l-10,-10l-10,-24l-7,-35l-15,-34l-44,-81l-11,-30l-2,-43l-23,-79l-19,-29l-14,-28l-18,-26l-6,-17l0,-28l-11,-38l-15,-18l-10,5l-35,35l-30,15h-40l-16,-5l-47,-28l-19,-4l-37,-15l-8,-16l13,-32l-3,-44l9,-23l-2,-22l-11,-13l-36,-13l-44,4l-24,-1l-49,-24l-34,-6l-57,-35l-15,-26l6,-50l-3,-67l-14,-34l7,-36l-12,-35l-14,-1l-31,26l-14,6l-79,13l-30,-5l-30,-20l-64,-70l-26,-16l-30,-5l-9,-8l-20,-46l-17,-15l-48,-12l-38,-21l-13,-22l-3,-16l1,-28l7,-41l-6,-31l-20,-32l-83,-75l-26,-14l-18,-2l-30,-36l-38,-56l-9,-24l-1,-13l13,-58l23,-15l54,-16l48,-17l9,-9l12,-28l2,-23l-6,-31l-14,-38l-27,-22l-9,-1l-23,14l-9,12l-25,19l-19,5l-14,-21l0,-72l-8,-23l-33,-39l-47,-44l-39,-25l-6,-12l1,-17l-10,-14l-2,-15l37,-49l22,-7l6,-14l-1,-12l-18,-21l-17,-8l-51,-18l-27,-11l-22,-21l-25,-43l-4,-17l24,-56l5,-19l4,-31l7,-28l-20,-20l-17,-6l-31,-37l-1,-18l13,-51l-6,-21l-37,-14l-44,-44l-11,-22l10,-50l0,-52l27,-34l12,-34l-1,-28l-11,-26l6,-17l21,-16l11,-41l15,-32l27,-37l25,-30l27,-25l17,-12l26,-24l51,-31l9,-8l15,-51l24,-59l28,-38l1,-31l6,-17l12,-19l11,-42l15,-9l60,-64l28,-23l38,-23l5,-15l-10,-28l-2,-25l-14,-30l3,-10l22,-52l13,-24l36,-29l26,-27l2,-28l-14,-46l-30,-28l-4,-8l-2,-58l16,-26l5,-36l12,-26l65,-38l15,-13l4,-18l-14,-25l-2,-18l8,-21l20,-22l0,-11l-12,-15l-31,-14l-7,-22l10,-27l8,-4l65,2l16,-15l-5,-51l9,-20l-4,-19l-33,-13l-14,-10l-2,-14l8,-15l27,-21l5,-26l-8,-29l-21,-36l-3,-11l0,-37l-5,-31l-17,-43l2,-38l-1,-31l7,-31l11,-21l46,-40l16,-33l7,-32l7,-16l13,-47l10,-30l27,-35l10,-41l38,-45l13,-12l24,-6l25,-25l34,-27l29,-67l-2,-35l-19,-23l-20,1l-26,16l-13,-7l-4,-12l3,-16l28,-58l6,-39l5,-13l19,-22l9,-16l1,-22l-23,-28l-1,-24l-9,-36l9,-28l6,-28l-5,-15l-21,-28l-5,-20l11,-13l29,-2l26,-12l4,-18l-8,-15l-11,-6l-4,-16l5,-20l3,-41l-6,-20l-17,-12l-15,-29l5,-21l32,-64l2,-27l-23,-24l-28,-2l-9,-5l0,-19l24,-57l12,-18l38,-34l3,-30l-9,-14l-3,-33l5,-38l-11,-14l-17,-10l-12,2l-17,12h-16l-20,-10l-13,-45l3,-17l26,-31l9,-53l34,-64l-2,-10l-22,-19l-2,-9l11,-10l28,-2l16,-5l6,-74l5,-23l10,-9l30,-7l13,-13l1,-18l-24,-37l-1,-28l-6,-17l7,-19l33,-27l13,-14l6,-18l14,-1l16,16l17,8h41l12,-14l11,-35l15,-26l17,-6l30,-16h15l24,-17l32,-14l16,3l21,14l21,4l8,-3l24,5l26,11l39,-1l10,-5l35,-45l15,-13l14,-21l11,-6l25,6l24,-20l18,-28l36,-39l12,-8l33,-5l14,-18l6,-33l17,-19l5,-18l3,-28l10,-9l11,-29l7,-6l28,-4l6,-4l0,-35l11,-21l20,-4l16,-14l10,-21l17,-63l13,-20l3,-17l18,-11l33,-27l15,-30l-6,-16l-20,-15l-5,-20l-13,-24l5,-28l-3,-19l10,-29l6,-37l27,2l28,-7l12,-15l-3,-13l-21,-6l-14,-14l6,-17l39,-19l1,-16l-11,-10l-5,-16l11,-19l34,-31l2,-22l21,-7l2,-12l-31,-5l-31,5l-9,-5l3,-24l13,-12l33,-7l16,-13l1,-8l-12,-21l-3,-16l4,-14l20,-30l38,-51l10,-17l-29,-34l-22,6l-19,18l-6,-18l-13,-26l-33,-18l-19,-1l-13,-32l7,-32l-5,-15l-33,-7l-20,-14l-15,-48l-20,-1l-21,-6l-19,-12l-8,-23l-16,-20l-11,-28l-40,-36l-5,-14l-14,-9l-28,-53l23,-34l-2,-11l-27,-10l-21,-23l-16,-4l6,-18l-20,-7l-3,-17l-21,-9l-5,-11l1,-16l10,-5l21,-28l8,-14l1,-15l-7,-29l-27,-29l5,-15l-5,-7l-17,1l3,-17l-15,-13l-14,-23l-20,-19l-30,-9l-10,-24l4,-28l-2,-40l-10,-30l3,-20l-2,-13l14,-8l2,-33l21,-27l16,-6l4,-21l15,-3l15,-10l2,-33l-23,8l-10,-12l-12,-40l11,-27l6,-32l-1,-20l42,-2l22,-26l16,-10l3,-20h7l9,16l9,-4l10,-20l2,-30l-3,-18l16,-22l20,-5l9,-14l-4,-21l-10,-21l20,-23l-15,-12l-29,5l-13,-3l-13,-17l11,-27l-3,-15l5,-20l-4,-13l2,-28l-10,-3l-9,-16l-16,-13l13,-35l-18,-21l-3,-10l-19,-18l-16,-33l5,-20l7,-9l16,-36l-7,-16l-9,-6l-6,-20l-2,-38l7,-31l1,-42l11,-43l15,-15l-4,-15l-24,-12l-10,-25l5,-41l-10,-25l-25,-11l-8,-20l-13,-15l13,-22l34,-10l22,-20l17,-6l13,-23l-17,-40l-12,-9l-10,-25l4,-16l27,-7h15l16,-20l4,-26l-22,-31l-11,-4l0,-24l19,-27l0,-14l16,-12l-8,-13l13,-22l1,-15l10,-15l32,-28l-3,-22l-17,-16l-39,-13l-6,-17l26,-56l8,-13l29,-30l2,-29l-18,-31l-3,-14l17,-98l-12,-48l-34,-34l0,-18l-16,-40l-9,-46l-10,-11l-34,-10l-17,-17l-41,-14l-6,-7l3,-16l-5,-8l-25,-14l-11,-15l4,-16l-30,-41l-17,-37l3,-23l-17,-29l4,-19l-6,-27l1,-13l-18,-69l1,-26l-13,-22l-3,-19l-9,-14l-13,-30l-17,-7l10,-20l-7,-18l4,-20l-5,-12l-25,1l-19,-31l-12,-39l-29,-55l0,-39l-9,-34l-10,-19l3,-9l22,-11l12,-1l10,-16l-5,-26l-13,-22l-1,-22l34,-19l3,-9l-2,-39l-5,-18l15,-15l-7,-37l22,-84l-5,-40l23,-37l5,-20l26,-26l-1,-40l9,-10l43,-27l14,-22l-14,-19l4,-24l13,-10l9,-15l7,-33l17,-37l2,-21l-7,-13l-23,-5l-5,-21l6,-15l-2,-27l-19,-24l-17,-42l20,-40l0,-20l-14,-26l-5,-32l-19,-34l-11,-81l-19,-10l-2,-31l-21,-1l-9,-10l13,-9l4,-21l12,-23l-9,-15l10,-6l-11,-19l3,-22l-26,-13l-4,-21l-17,-17l5,-11l-18,-8l-2,-12l-24,-6l-8,-15l-12,-4l-8,-15l14,-6l-22,-27l11,-31l-15,-5l-2,-29l-14,-20l7,-12l-16,-10l6,-12l-11,-5l-11,-22l-6,-36l9,-7l0,-14l-18,3l13,-25l-13,-5l7,-15l-13,-7l3,-16l-22,-17l6,-23l-5,-6l6,-20l-13,-24l-9,-34l12,-17l9,-23l-13,-10l2,-11l-10,-11l-17,5l-15,-9l1,-24l28,-31h13l7,-12l21,-16l6,5l15,-16l1,-15l11,2l0,-56l-15,-14l4,-6l4,-33l-14,-29l-10,-3l-5,-23l2,-29l-24,-31l-4,-32l-7,-7l4,-17l-7,-4l6,-45l-19,-13l11,-21l0,-10l-15,-23l3,-14l-27,-7l-22,-17l-29,-14l-5,-19l-8,-5l0,-29l-11,-4l2,-12l-17,-2l-4,-29l-19,-50l-52,-75l-7,-73l-7,-33l9,-26l-18,-30l-36,-17l-14,-17l-64,-6l-21,-16l-3,-18l-16,-40l-89,-70l-4,-15l3,-30l-7,-17l-13,-11l-5,-35l-24,-41l-19,-47l-10,1l-7,-11l-18,17l-36,-8l-31,-16l-42,-39l3,-16l11,-11l3,-23l-16,-28l-2,-26l-29,-21l-7,-14l-31,-31l-29,-50l-8,-27l9,-49l53,-82l40,-223l-4,-20l-159,57l-35,19l-51,19l-31,6l-56,-10l-98,2l-69,-11l-13,-22l-5,-30l-8,-20l-42,-43l-11,1l-22,21l-61,89l-75,-50l-16,-56l-4,-68l-63,-90l56,-93l104,-37l123,-66l-9,-52l35,-149l86,-81l66,-12l4,-48l40,-46l-1,-28l-42,-67l109,-139l108,-52l152,7l77,-25l42,-41l110,-9l113,-2l36,114l182,157l19,35l-230,192l-54,86l10,108l57,88l17,65l48,80l57,143l137,92l122,51l30,-22l7,-19l218,-39l21,-13l30,-9l157,-30l79,-9l211,-37l18,1l330,171l167,106l54,56l47,58l7,14l53,140l11,61l-5,37l-55,138l-15,46l-9,49l2,79l45,106l39,47l31,15l25,14l48,14l41,-5l35,-29l47,-10l44,2l93,14l55,21l59,25l95,54l95,105l23,18l67,39l20,19l13,5l48,-2l35,8l97,53l98,62l86,41l24,10l55,16l48,-3l52,-20l93,-67l45,-49l119,-176l17,-74l6,-76l-2,-55l-13,-60l-25,-65l-24,-84l3,-60l40,-146l48,-94l56,-72l3,12l37,-37l21,-17l33,-17l50,-35l116,-57l34,-23l13,-14l28,-72l5,-30l3,-98l-4,-41l6,-157l13,-36l38,-61l29,-34l122,-55l48,-32l67,-25l60,-39l114,-104l91,-141l74,-92l84,-72l88,-58l93,-79l37,-68l8,-40l0,-52l-9,-23l-27,-169l-5,-92l11,-100l21,-68l22,-58l35,-39l25,-19l97,-36l49,-26l24,-22l29,-18l26,-25l6,-30l-6,-40l-25,-77l-18,-34l-36,-41l-58,-56l-118,-76l-96,-80l-88,-92l-22,-33l-39,-40l-13,-25l-1,-20l9,-16l28,-31l28,-44l18,-38l9,-32l1,-45l-7,-55l-16,-62l-11,-25l-50,-78l-8,-43l2,-25l9,-35l59,-72l22,-36l13,-37l-5,-388l14,-71l35,-79l26,-35l44,-47l66,-50l19,-4l24,-9l27,-10l133,-2l83,-20l50,-33l81,-115l57,-102l23,-66l14,-69l2,-49l23,-92l30,-64l1,-155l20,-67l19,-27l156,-113l129,-121l73,-47l88,-27l186,-13l56,-13l41,-16l70,-41l54,-19l44,-30l13,-17l7,-19l28,-140l41,-102l2,-21l20,-57l64,-59l8,-17l21,-26l21,-5l74,26l31,6l120,17l43,2l5,-17l-7,-39l2,-31l12,-28l24,-13l43,-7l62,-20l37,5l34,-11l54,-9l58,1l63,-20l24,-3l39,2l33,17l46,-31l20,-6l46,-7l18,-1l79,3l97,-4l75,8l56,-9l29,-12l78,-2l48,-23l52,-34l12,-3l32,8l68,27l34,18l50,15l48,5l58,-4l31,-5l49,-24l50,-55l24,-10l94,-21l15,-7l20,-26l25,-49l14,-10l73,-15l61,-46l43,-47l44,-37l25,-43l12,-38l17,-14l102,-23l43,-1l47,27l24,4l120,-27l62,-27l38,-30l27,-59l19,-23l92,-72l21,2l19,-6l21,-26l31,-14l20,-17l33,-52l47,-45l63,-41l25,-12l28,9l42,28l33,33l48,30l31,27l30,41l34,11h39l15,9l12,16l15,39l11,16l16,10l26,8h20l43,-16l25,4l60,55l97,67l49,49l41,20l30,-1l17,-12l21,-100l22,-43l15,-16l21,-7l28,11l36,32l96,138l69,65l20,13l78,25l33,23l28,43l7,28l0,42l-10,58l-19,39l2,28l20,27l34,49l10,24l24,80l37,53l37,35l14,21l46,92l28,22l13,5l58,18l63,1l57,-2l56,-13l17,6l4,13l-1,52l-6,36l-1,27l10,30l9,13l113,101l66,32l87,25l69,42l41,29l52,31l28,5l19,-3l169,-66l58,-11l21,1l44,12l90,48l40,30l9,12l23,33l17,50l13,113l2,66l-2,22l-20,100l-18,46l-42,141l-1,97l8,50l22,48l24,25l40,18l49,13l104,-10l86,3l62,8l31,10l51,25l34,20l57,43l56,62l38,49l24,22l15,29l42,98l58,84l46,30l71,26l46,6h55l67,-9l43,-2l56,-13l43,-15l125,-106l43,-42l25,-21l52,-28l36,-11l41,-2h45l56,4l40,10l201,82l37,22l37,42l29,57l27,69l38,72l46,54l27,18l45,15h81l28,-7l127,-51l46,-9l67,6l117,31l71,37l58,52l158,171l40,37l20,29l61,70l96,120l55,55l49,28l76,12l37,-3l104,-35l82,-51l84,-81l43,-65l22,-47l8,-26l57,-108l29,-66l73,-104l31,-38l64,-52l67,-71l27,-15l65,-20l80,-11h43l37,5l41,8l61,25l92,66l7,8l30,14l43,8l55,-9l30,-25l35,-35l91,-73l35,-9h61l41,-18l10,-1l22,-14l24,-31l46,-45l36,-25l57,-12h68l38,9l99,33l49,28l31,22l30,34l24,41l74,186l39,64l40,52l29,23l69,32l34,7l106,10l34,9l11,3l54,28l41,49l7,12l33,137l7,21l56,128l14,70l29,76l15,88l12,37l26,118l19,62l33,38l61,92l39,36l81,55l18,28l20,58l-3,23l-42,105l-44,137l-11,43l-1,93l11,52l26,65l8,12l15,55l21,45l43,43l42,26l12,5l40,3l64,-5l53,-22l43,-26l56,-52l23,-27l19,-17l89,-93l25,-24l41,-12l43,1l63,-5l19,2l80,-7l20,-5l40,-15l24,-3l72,-3l41,5l46,12l44,19l30,17l23,18l21,23l17,51l1,34l-12,107l-3,144l11,89l32,47l14,16l76,56l18,20l20,30l15,36l22,92l104,105l46,43l26,35l58,58l61,40l86,44l66,36l27,21l51,58l43,59l14,24l16,63l13,183l-3,34l-11,31l-13,17l-16,39l-4,82l7,50l7,22l29,44l74,79l179,164l113,126l130,171l57,112l42,122l49,171l34,169l8,67l-2,69l-10,60l-18,66l-35,58l-8,35l6,36l12,35l53,116l39,43l29,12l133,17l160,6l100,-1l208,-54l24,-2l38,6l13,15l6,31l-1,37l-14,67l-2,30l-3,46l5,39l22,63l50,46l89,43l30,18l39,31l12,35l5,47l13,53l14,25l23,30l7,23l-4,115l-27,70l-11,15l-36,24l-46,22l-102,21l-26,24l-20,27l-76,36l-44,52l-17,28l0,28l4,22l121,194l9,26l-9,96l-7,28l-16,12l-104,18l-30,16l-20,23l-8,40l0,26l15,47l20,21l74,35l17,17l11,32l2,56l5,11l16,12l32,12l68,14l32,1l24,9l13,26l17,49l23,20l25,30l32,50l5,85l6,46l23,28l56,42l39,36l10,17l-7,45l-17,31l-42,46l-57,77l-67,43l-62,15l-52,22l-21,23l-18,34l-17,18l-50,29l-38,10l-44,-4l-47,-12l-20,2l-32,10l-32,17l-30,6l-15,27l-6,53l-15,10l-41,8l-77,28l-22,10l-145,55l-117,54l-19,13l-22,45l-15,14l-107,41l-53,28l-17,14l-29,81l-28,55l-40,138l-31,73l3,29l33,66l7,30l-1,32l-10,70l-28,85l-22,40l-106,144l-40,63l-61,116l-66,107l-17,21l-37,16l-51,33l-39,37l-8,14l0,32l18,77l15,15l28,9l16,15l5,14l-2,33l-25,21l-62,31l0,30l18,84l4,51l-10,102l-23,51l-57,104l-6,28l-25,56l12,100l17,40l73,105l45,124l34,41l18,15l16,26l16,16l20,44l52,82l39,86l21,22l110,67l59,56l59,112l73,109l20,28l20,21l39,40l86,66l84,42l99,38l157,39l146,24l205,62l69,5l46,14l33,19l69,50l78,43l19,15l41,42l71,55l18,21l98,69l76,43l13,14l37,12l63,48l59,51l77,88l79,111l35,50l235,262l62,42l80,31l127,37l78,4l34,8l38,7l60,33l55,42l74,64l124,130l83,81l120,72l101,35l64,10l103,-5l69,-10l81,-18l56,-20l103,-65l51,-50l181,-242l54,-64l40,-61l29,-70l5,-29l59,-115l37,-45l58,-87l64,-61l87,-94l29,-20l48,-26l38,3l49,11l11,1l75,-10l38,-15l29,-18l54,-49l60,-89l32,-38l20,-11l133,-40l32,-26l33,-39l20,-32l18,-42l23,-80l20,-36l36,-36l27,-10l20,2l29,9l10,7l12,18l10,31l20,37l12,18l8,5l111,6l89,-9l44,3l54,22l40,44l39,24l104,23l43,10l32,-2l17,-5l29,-18l42,-43l10,-21l9,-44l17,-51l28,-19l20,-8l22,3l86,33l69,41l23,18l8,11l59,102l25,56l12,36l11,84l9,30l29,23l23,9l32,5l38,-2l21,-5l46,-40l54,-60l20,-10l32,4l17,15l6,54l6,7l52,2l20,62l7,9l16,1l32,-16l16,-12l15,-36l16,-22l29,19l19,-6l14,-64l14,-8l25,8l24,-14l35,15l15,-5l31,-21l22,6l21,-9l26,-50l1,-13l12,-26l31,-18l45,-10l8,1l13,2l66,58l23,2l24,-8l26,-24Z"
     transform="matrix(1.0000001e-4,0,0,-1.0000001e-4,-5.4629623e-8,-2.0305556e-8)" />
  <path
     id="2201"
     d="M-420269,-43542l12,-14l22,-16l18,-36l13,-11l9,5l27,-36l4,-20l-27,-31l-25,-20l13,-13l-9,-22l15,-19l-3,-10l9,-16l-2,-10l28,-6l-7,-22l15,-16l5,12l20,5l7,-6l22,15l0,9l24,12l18,-13l17,-17l38,-8l10,-22l15,-11l16,12l17,5l13,-9l2,-9l28,-9l3,-24l18,-13l9,-22l19,-9l14,11l30,-22l14,-24h17l7,-11l39,-10l14,-20l42,-14l9,-23l13,-12l-21,-34l-12,-1l21,-38l25,-20l5,-17l16,-20l18,-12l18,-22l18,-5l8,12l28,-4l27,9l14,-14l29,-16l14,5l6,14l31,10l4,-11l15,-10l22,1l4,-6l22,1l5,-16l14,2l8,-18l12,-2l15,-26l10,4l18,-8l33,5l8,13l12,3l21,-14l11,12l17,-3l18,13l20,4l5,16l11,6l21,-4l7,-12l12,-4l13,13l6,-5l22,3l14,-12l29,-45l19,25l19,-5l29,-33l13,-8l16,-59l-12,-25l10,-14l3,-19l17,-10l14,3l6,-8l25,-8l23,-2l12,-20l16,-5l23,-13l9,-23l2,-17l19,-17h33l10,-21l36,-10l2,-12l-7,-16l20,-2l17,11l5,17l20,18l4,-6l23,16l16,-1l18,8l3,-16l23,8l11,-20l15,-8l15,-21l11,11l23,-4l0,-9l14,-6l6,-14l15,-7l-1,-10l21,-24l10,-28l-6,-9l-4,-20l8,-16l20,-11l-6,-20l28,-10l8,-18l23,-11l22,3l8,-26l-13,-17l12,-29l15,-16l-7,-8l6,-16l11,1l28,-8l9,-14l-4,-18l1,-23l15,-16l13,-1l20,6l24,22l12,-9l-4,-13l5,-13l13,-12l12,-20l3,-17l12,-2l17,11l9,-4l6,-17l25,-6l22,7l23,-5l39,1l16,-8l27,-20l18,-8l4,-22l-8,-9l0,-13l9,-16l17,-10l31,3l6,-5l14,-36l-2,-14l-12,-15l7,-26l6,-9l21,-9l13,-17l17,-5l15,-13l1,-17l29,-5l21,4l4,14l12,5l24,-20l3,-23l12,-12l11,2l13,24l-7,29l20,-1l10,-13l24,-7l-7,-21l-22,-12l1,-11l12,-17l16,-4l0,-23l-12,-5l2,-19l23,-2l8,-13l13,15l13,-9l-8,-28l18,-27h14l15,10l-9,-31l7,-13l23,-1l11,-5l-12,-42l11,-1l19,7l24,-20l3,-42l90,226l460,422l456,419l176,243l158,294l-9,13l-55,27l-11,3l-24,-3l-24,-23l-41,19l-23,-30l-28,-2l-30,20l-25,6h-14l-43,-12l-25,-15h-9l-13,27l-7,25l0,13l29,18l4,21l-9,15l-30,14l-14,-5l-10,-13l-15,-45l-7,-9l-15,-4l-10,5l-15,38l-14,11l-14,-5l-18,-20l-4,-15l-24,-14l-14,-1l-7,8l-9,26l2,8h17l26,41l3,29l-39,26l-8,18l4,9l23,-7l19,2l6,37l-97,301l1,14l13,9l3,17l-13,11l-16,-6l-1,13l19,1l16,11l6,10l30,3l12,7l19,-21l11,19l27,4l3,-26l24,-10l38,-2l21,5l12,9l31,8l25,-21l19,-5l9,-12l24,11l-3,24l11,13l10,-5l19,9l9,23l21,25l47,13l54,-2l5,7l-4,24l-14,2l-2,12l19,8l19,1l7,7l6,25l-8,17l17,22l-9,29h-25l-10,4l-5,17l11,21l1,13l23,26l8,-11l10,2l31,20l28,35l2,14l-23,4l-2,18l6,13l14,7l1,19l-13,6l-4,9l12,17l22,10l7,8l18,-6l14,3l7,12l38,22l14,-27l1,-12l14,-31l31,3l16,-11l32,-13l15,13l23,4l-3,-11l10,-18l1,-12l26,-26h17l39,19l43,12l10,-5h21l25,-7l23,-29l142,213l216,323l277,763l13,-7l-2,-10l16,-11l31,8l9,-10l31,-2l54,2l29,-2l-5,-12l7,-8l17,-2l37,-13l29,1l45,10l22,-3l7,-10l17,-2l16,10l37,2l18,-13l2,-16l22,-28l22,-15l21,5l6,7l-3,18l3,23l22,25l17,3l37,37l15,5l22,-9l24,1l15,7l15,32l23,24l4,17l-7,23l-10,16l2,10l24,19l12,36l-9,28l6,7l57,10l12,7l15,22l25,6l6,19l19,15l4,12l22,25l16,-2l16,-14l19,-2l3,-13l18,-27l25,-20l1,-17l27,-3l10,3l17,-9l9,-22l27,-4l15,18l22,7l19,-1l11,10l46,3l17,-8l17,5l5,14l9,10l1,12l25,7l-4,15l2,25l9,8l5,18l10,4l11,-5l16,13l14,-4l3,-32l20,-10l19,4l6,27l8,11l5,24l25,12l29,-2l12,-6l3,17l18,17l39,3l0,14l9,16l21,-20l19,-10l11,-12l4,-14l23,-20l24,-1l7,13l10,-1l21,-18l-6,-19l1,-23l13,-19l32,4l19,-5l16,3l10,18l13,9h25l7,-7l40,4l26,15l34,31l25,-29l21,-10l26,10l5,-13l-3,-34l-9,-31l10,-21l10,2l17,13l24,-11l4,-33l8,-35l12,-25l-4,-17l9,-7l12,6l20,-13l59,-5l41,-6l17,10l22,4l4,19l53,13l39,23l17,21l26,-8l7,23l0,25l5,16l-3,13l11,21l7,27l8,7l6,18l-7,11l3,12l13,6l14,15l17,-7l15,16l12,4l27,26l19,-2l26,-20l0,-10l38,-35l5,-20l16,-25l-1,-14l18,-14l9,-14l33,-24l17,-6l13,2l13,14l14,-1l13,-9l14,-19h12l15,24l38,-9l11,-7l20,4l18,10l25,24l15,23l5,16l-3,28h23l26,8l8,-11l13,3l11,-15l13,-3l22,12l15,-1l3,-21l22,-26l4,-15l15,-10l17,-3l-7,-20l5,-22l30,-13l20,7l20,15l23,-23l-4,-14l6,-16l10,-8l8,-18l22,-28l9,-35l-3,-11l-13,-14l6,-15l25,-18l41,-19l16,-25l36,-48l12,-7l24,1l21,16l15,2l23,-25l10,2l20,13l15,2l14,16l27,-2l20,4l12,-6l12,3l24,29l12,11l31,43l9,6l40,1l15,-5l15,8l22,4l17,-2l17,3l18,-16l21,2l26,8l22,-15l23,-11l19,-4l26,4l11,-6l22,-1l19,-6l36,-1l72,102l-30,4l-31,-8l-88,11l-55,27l-63,12l-7,5l-27,47l-21,23l-6,20l-17,17l-14,38l10,22l5,36l-28,56l-62,76l-78,61l-10,14l23,6l14,26l23,41l27,120l55,76l8,31l5,55l54,115l6,30l-4,20l-55,61l-4,22l7,25l14,11l94,62l23,23l9,20l0,28l7,28l-4,25l-14,11l-60,43l-19,-7l-17,-1l-63,17l-35,2l-94,-16l-102,19l-67,32l-35,-1l-53,-13l-30,6l-42,37l-47,11l-13,10l-18,23l16,52l-7,12l-26,8l-31,-4l-30,-14l-10,-17l-32,4l-20,19h-17l-38,-41l-27,-18l-29,-13l-18,-2l-34,16l-80,-29l-8,-13l-15,-2l-24,14l-41,-17l-94,-19l-99,-70h-19l-26,7l-20,23l11,22l1,29l11,20l15,12l22,-3l12,4l49,44l8,23l43,28l7,15l-4,23l-34,32l-17,31l-14,2l-1,27l-6,26l-15,19l6,24l-1,38l-18,33l15,8l9,12l26,15l1,22l-6,12l3,32l6,5l22,-6l15,7l5,21l10,14l-2,18l6,11l44,22l-5,28l30,13l24,-16l87,266l-87,298l-11,8l-26,1l-7,5l-23,43l-34,25l-27,30l-36,22l-4,19l10,31l-19,88l-10,22l-59,64l-19,30l-35,26l-8,16l-3,39l-13,8l-56,13l-9,15l9,7l1,16l-33,45l-3,21l23,40l-9,24l4,14l-27,26l6,41l-13,13l-17,8l-14,18l-1,37l-17,46l-11,11l-10,-1l-24,-22h-13l-20,13l-20,28l-12,2l-15,-30l-31,-3l-17,-37l-10,-7l-15,8l-23,33l-18,-2l21,31l43,46l46,38l93,93l49,32l48,55l60,52l22,28l85,138l3,16l-10,31l-57,78l-7,50l-3,56l2,57l13,69l15,65l11,29l43,57l12,9l47,12l78,14l9,8l4,21l-2,20l-10,30l-25,18l-36,1l-20,10l-28,33l-52,33l-29,-3l-134,2l-76,27l-37,37l-31,48l-16,13l-31,12l-91,22l-78,27l-92,-18l-39,-2l-17,-10l-40,5l-24,10l-29,5l-24,18l-11,8l-64,24l-16,26l-4,22l13,-2l20,14l3,27l10,17l-9,30l15,39l12,61l0,27l24,47l9,23l11,73l18,71l-6,21l4,65l-126,342l-10,18l-21,18l-23,9l-79,8l-48,20l-60,47l-26,36l-7,23l1,48l17,38l23,23l15,16l10,21h30l17,12l40,-3l29,13l29,19l30,-3l18,-12l13,8l13,-5l9,12l25,-7l25,7l53,78l4,47l38,26l17,24l1,20l-15,35l7,36l-2,26l3,14l-6,33l12,102l-4,15l19,49l19,9l2,22l15,24l60,14l30,13l30,6l35,20l21,4l-167,81l-73,378l23,199l7,405l-203,-23l-9,17l-16,10l-11,-6l-25,-21l-11,5l-19,-5l-13,-14l-17,1l-12,-14l-22,-1l-7,-12l-18,-10l1,-34l-4,-17l-14,9l-30,4l-9,-9l-25,-2l-10,-8l-40,-2l-26,-24l-20,-9l-25,-20l-11,-25l-15,-6l-7,-14l-12,-4l-4,23l3,38l10,28l-2,33l-7,71l-5,8l-29,20l-17,21l-12,4l-20,-4l-33,-31l-16,29l6,7l11,77l-7,26l3,7l-16,33l-9,10l0,20l22,24l1,13l-36,12l-17,2l-13,-4l-86,-59l-44,-20h-29l-19,25l2,36l56,71l25,47l8,27l7,20l14,72l38,45l80,55l25,32l-1,28l-25,45l3,16l21,27l28,52l7,42l-12,24l354,599l380,644l1,15l-24,19l-13,6l14,42l-9,15l-6,26l4,41l-15,25l1,17l9,-1l29,24l5,22l12,22l28,29l-2,19l3,29l10,12l33,21l16,21l18,36l38,21l16,12l9,18l48,19l22,29l-5,10l8,14l38,11l-6,19l13,15l-2,18l9,4l28,-8l6,17l15,16l10,-3l13,9l2,11l-8,12l1,11l20,11l-3,44l-11,9l-7,15l6,9l14,3l37,-6l39,5l9,11l22,7l11,-6l38,29l3,40l19,13l21,8l25,2l19,11l11,16h18l7,6l1,54l7,23l-3,18l-25,21l19,46l-8,12l-20,10l-18,18l2,17l9,16l-1,33l10,22l-23,31l-1,17l-7,15l3,22l8,11l1,16l10,9l13,1l13,12l6,30l13,14l5,25l14,17l3,17l-22,13l-1,21l12,13l27,7l19,-14l8,16l5,24l-2,10l-14,11l-31,4l-11,11l-11,20l-20,59l-10,93l-2,33l-45,69l-27,43l-26,47l-17,45l-10,18l-1,81l-9,18l-27,11l-57,18l-116,-4l-55,1l-57,9l-128,56l-46,45l-17,54l0,66l10,49l1,29l-5,22l-15,138h-2l-88,-40l-34,8l-12,-7l-2,-15l-38,-7l-22,8l-42,27l-15,15l-9,-12l-68,19l-16,12l-35,1l-24,22l-32,17h-10l-2,-15l-23,-6l-17,2l-24,8l-99,50l-36,31l-29,20l-27,9l-46,25l-13,1l-14,-13l-38,-13l-31,4l-29,-19l-52,-14l-54,-3l-65,8l-23,7l-64,23l-27,-1l-27,-11l-50,5l-34,19l-12,14l-33,15l-24,17l-69,-5l-37,9l-34,3l-40,20l-35,15h-15l-23,-20l-48,-6l-31,-10h-21l-23,-6l-5,-17l-42,-29l-56,-31l-18,-20l-37,-16l-22,-2l-45,1l-46,6h-58l-59,14l-58,26l-36,21l-19,15l-42,15l-70,33l-14,12l-13,-1l-8,-9l-4,-21l-14,-7l-20,-3l-14,-11l-36,-4l-28,8l-16,-2l-10,-15l-20,-13l-30,-15l-17,-1l-39,2l-60,12l-43,12l-43,21l-81,31l-57,25l-38,24l-63,34l-67,42l-30,21l-33,29l-59,60l-73,83l-8,28l-19,29l-12,6l-61,19l-57,20l-21,5l-24,11l-54,35l-63,43l-112,93l-99,88l-50,50l-38,33l-124,115l-66,67l-16,-8l9,-10l-13,-28l-19,-10l-26,-3l-47,13l-57,33l-49,37l-72,65l-49,49l-57,68l-20,28l-30,57l-16,24l-24,46l-36,86l-12,11l-56,30l-30,21l-15,15l-13,7l-42,1l-45,-6l-46,-25l-26,-26l-49,-31l-65,-27l-43,40l-47,-40l-104,-68l-64,-75l-11,-83l19,-134l16,-166l-8,-21l-26,-62l-92,-260l-34,-105l-28,-42l-20,-59l-1,-12l18,-69l8,-12l135,-132l7,-9l52,-92l61,-97l28,-40l7,-5l98,-64l95,-80l88,-83l80,-118l19,-52l3,-22l-6,-31l-22,-34l-45,-53l-34,-72l-32,-37l-13,-51l-28,-95l-32,-111l-28,-66l-27,-54l-53,-41l-56,-35l-38,-28l-38,-68l-80,-73l-152,-98l-29,-35l-11,-17l-6,-29l-30,-58l-43,-62l-90,-93l-49,-62l-54,-61l-24,-20l-20,-9l-51,-13l-50,-10l-44,-14l-65,-61l-23,-35l-15,-30l-5,-20l1,-71l11,-85l-6,-73l-5,-19l-18,-27l-50,-52l-39,-28l-14,-16l-26,-47l-8,-57l22,-98l25,-43l11,-35l0,-22l-6,-12l-16,-5l-18,6l-21,18l-37,54l-5,11l-17,13l-17,1l-29,-11l-31,-23l-16,-29l-27,-28l-31,-28l-43,-34l-58,-38l-7,-14l-2,-29l9,-69l-14,-43l-33,-43l-29,-33l-18,-30l-40,-35l-42,-44l-23,-32l-29,-45l-29,-40l-40,-36l-53,-33l-56,-26l-44,-10l-18,-2l-70,6l-73,16l-58,3l-19,-3l-73,-24l-70,-34l-58,-48l-11,-35l-22,-15l-46,-17h-29l-48,11l-103,6l-106,12l-125,-2l-83,-27l-52,-24l-30,-29l-25,-36l-12,-48l6,-43l26,-39l20,-23l19,-10l42,-6l65,-6l63,-9l51,-3l37,-15l9,-19l5,-44l-3,-17l-26,-108l-5,-30l-21,-27l-21,-2l-41,13l-71,31l-55,33l-20,-2l-19,-11l-12,-13l-14,-22l-8,-45l4,-16l49,-87l13,-64l-3,-24l-7,-25l-12,-26l-26,-24l-54,-9l-45,4l-49,-14l-39,-44l-12,-17l-5,-19l4,-73l-4,-96l-16,-72l-29,-62l-54,-56l-48,-24l-36,-13l-28,-5l-49,5l-41,12l-90,10l-49,-10l-40,-36l-5,-11l-15,-68l-18,-96l-15,-72l-1,-48l-21,-35l-24,-8l-26,-2l-10,3l-64,30l-15,5l-40,9l-50,3l-35,-3l-43,-8l-147,-42l-118,-57l-58,-29l-80,-35l-95,-41l-103,-46l-28,-7l-42,9l-23,12l-53,45l-53,76l-21,39l-10,11l-23,13l-31,9l-29,2l-76,-10l-23,-10l-86,-67l-14,-28l-20,-15l-15,-7l-86,-45l-85,-18l-54,-6l-34,8l-49,26l-52,24l-15,4l-28,-6l-15,-16l-36,-162l-35,-54l-38,-41l-38,-10l-55,3l-15,6l-12,11l-4,12l7,46l-4,67l-21,36l-41,37l-14,6h-52l-13,-7l-81,-61l-56,-71l-41,-58l-43,-52l-64,-42l-33,-15l-34,-6l-90,8l-99,27l-61,30l-10,10l-13,39l3,40l9,34l30,55l12,44l4,42l-7,32l-26,23l-35,10l-14,2l-35,-2l-19,-7l-43,-27l-26,-20l-19,-45l-8,-30l-10,-70l-3,-58l-3,-22l-16,-35l-11,-16l-30,-31l-17,-10l-120,-33l-20,-13l-20,-22l-10,-42l0,-24l33,-110l-3,-17l-12,-30l-41,-57l-57,-53l-102,-109l-38,-48l-22,-37l-22,-49l-43,-127l-12,-55l-13,-25l-31,-31l-26,-12l-121,-30l-128,-50l-55,-34l-51,-18l-36,-10l-18,-12l-20,-22l-19,-32l-10,-182l-7,-50l-6,-27l-8,-23l-47,-60l-96,-54l-72,-34l-30,-25l-17,-21l-46,-65l-59,-64l-92,-75l-55,-54l-49,-68l-63,-147l-18,-55l-3,-16l2,-56l7,-31l8,-18l74,-146l42,-75l5,-13l11,-90l-11,-45l-10,-20l-50,-63l-36,-39l-23,-32l-14,-32l-10,-47l4,-36l8,-35l33,-67l12,-15l64,-58l8,-22l-4,-31l-9,-18l-29,-36l-66,-46l-22,-18l-33,-49l-7,-19l-8,-40l-19,-51l-72,-109l-50,-122l-35,-68l-83,-142l-50,-117l-19,-93l-10,-48l-6,-103l-7,-48l-10,-32l-49,-88l-16,-25l-78,-85l-123,-84l-117,-58l-98,-62l-82,-69l-20,-26l-28,-33l-15,-24l-21,-73l-9,-89l-8,-73l-12,-33l-15,-25l-22,-19l-29,-9l-21,1l-83,29l-11,2l-33,-3l-26,-11l-56,-64l-53,-100l-78,-97l-62,-103l-34,-78l-23,-107l-16,-114l-72,-199l-24,-65l-66,-108l-47,-74l-48,-39l-31,-20l-91,-35l-96,-24l-19,-2l-23,-13l-10,-15l-2,-42l42,-97l56,-80l39,-49l7,-16l4,-34l-16,-28l-16,-16l-40,-8h-26l-100,12l-67,12l-81,7l-21,-2l-90,-39l-32,-22l-25,-22l-45,-60l-30,-40l-44,-81l-43,-63l-81,-79l-89,-72l-72,-69l-25,-27l-18,-26l-20,-36l-14,-39l-10,-79l-1,-101l16,-94l0,-84l2,-146l9,-126l33,-166l19,-46l23,-41l72,-77l35,-40l13,-16l18,-51l2,-15l4,-81l-9,-91l-5,-148l8,67l772,-100l496,-282l246,-63l395,29l613,-21l430,-98l423,-95l444,-101l2,31l-6,19l1,20l-20,24l-12,25l11,19l-1,14l-9,11l-1,19l-7,6l-6,27l12,14l1,35l-10,29l15,34l21,22l5,28l7,10l0,14l11,17l16,1l18,16l6,12l15,10l-1,9l36,15l14,28l-6,21l14,20l16,5h28l16,9l11,18l23,22l26,3l35,-2l24,5l14,9l18,24h20l74,-73l648,-642l290,-62l243,-277l-150,-94l820,-431l576,-304l173,16l9,5l267,138l682,360l322,170l315,170l580,312l26,305l-209,293l524,200Z"
     transform="matrix(1.0000001e-4,0,0,-1.0000001e-4,-5.4629623e-8,-2.0305556e-8)" />
</svg>
