<?xml version="1.0" encoding="UTF-8" standalone="no"?>
<svg
   version="1.2"
   width="1080"
   height="1080"
   viewBox="-38.5821 4.8164 3.613599999999998 2.1663000000000006"
   stroke-linecap="round"
   stroke-linejoin="round"
   id="svg7"
   sodipodi:docname="RNMeso.svg"
   inkscape:version="1.2 (dc2aedaf03, 2022-05-15)"
   xmlns:inkscape="http://www.inkscape.org/namespaces/inkscape"
   xmlns:sodipodi="http://sodipodi.sourceforge.net/DTD/sodipodi-0.dtd"
   xmlns="http://www.w3.org/2000/svg"
   xmlns:svg="http://www.w3.org/2000/svg">
  <defs
     id="defs11" />
  <sodipodi:namedview
     id="namedview9"
     pagecolor="#ffffff"
     bordercolor="#000000"
     borderopacity="0.25"
     inkscape:showpageshadow="2"
     inkscape:pageopacity="0.0"
     inkscape:pagecheckerboard="0"
     inkscape:deskcolor="#d1d1d1"
     showgrid="false"
     inkscape:zoom="0.7537037"
     inkscape:cx="540.66339"
     inkscape:cy="540.66339"
     inkscape:window-width="1920"
     inkscape:window-height="1001"
     inkscape:window-x="-9"
     inkscape:window-y="-9"
     inkscape:window-maximized="1"
     inkscape:current-layer="svg7" />
  <path
     id="2402"
     d="M-365044,-63865l8,65l34,96l4,122l127,-16l423,-24l122,-9l23,8l18,26l131,266l208,391l320,-160h50l33,15l103,60l145,84l159,107l60,19l27,-7l14,-8l61,-62l24,-29l-4,63l20,4l-4,19l19,9l4,16l-6,23l10,17l21,12l50,11l22,12l3,30l24,56l5,27l39,31l31,13l25,17l35,51l46,25l23,27l4,26l-15,36l-22,26l-50,77l-1,20l8,37l21,34l10,30l43,162l12,22l9,408l-389,358l-65,68l208,714l285,620l202,576l85,244l113,263l161,-94l20,59l35,83l31,63l24,44l37,36l21,11l19,1l51,-20l30,-6l20,1l89,56l27,8l16,-6l14,-12l9,-18l2,-24l14,-32l10,-6l24,5l40,16l17,1l19,-15l6,-31l7,-15l25,-7l38,26l26,12l25,7l62,-1l32,4l18,45l8,50l14,59l13,15l7,21l12,14l36,23l25,40l27,23l22,2l33,-20l33,-12l9,-11l0,-15l14,-26l9,-7l22,1l9,-18l27,-8l19,12l26,3l20,-27l26,-19l55,-27l40,-22l2,-12l-26,-53l7,-13l19,-15l14,1l36,22l35,18l42,20l29,17l34,29l37,19l34,12l21,15l79,69l21,11l37,3h94l22,15l5,14l19,24l3,20l15,30l16,22l20,21l27,37l40,37l15,7l19,29l21,14l27,5l35,10l25,13l19,17l38,59l17,31l40,-29l38,-24l36,-25l36,-16l51,-9l77,-2l13,-5l7,-17l-4,-28l7,-19l18,-15l22,-7l19,3l11,15l25,25l27,14l32,8l44,3l3,32l-1,40l-29,2l-28,10l-22,15l-23,26l-8,6l-20,-3l-1,12l20,49l7,24l15,13l20,40l34,36l19,35l11,38l15,28l5,32l-11,32l-18,26l-2,21l5,23l-44,5l-17,17l-27,34l-20,33l-7,18l-2,31l-13,70l-20,52l5,20l71,99l-2,10l-75,461l7,19l17,25l19,13l14,21l18,41l8,26l15,14l31,3l36,20l9,7l12,23l3,26l-6,40l-8,27l-2,17l7,17l19,11l34,9l33,2l21,12l17,18l-456,940l-274,564l-81,155l-353,186l-356,398l-652,-514l-314,227l-633,2l-181,496l-345,948l1157,298l3,36l7,5l23,1l51,-17l11,5l168,-103l303,-195l196,-58l130,-43l26,-4l59,-70l116,52l489,427l80,25l417,162l155,627l12,26l-5,3l221,896l56,227l-19,2l-34,7l-61,19l-45,17l-68,29l-30,14l-19,1l-55,25l-69,37l-26,6l-19,-6h-17l-47,14l-27,1l-14,-14l-15,1l-45,19l-23,-9l-32,2l-37,14l-25,-1l-6,-7l-2,-18l-25,-14l-40,-5l-50,-2l-53,13l-52,-3l-35,-9l-4,-8l-33,-12l-25,-12l-36,-3l-40,-6l-117,-11l-47,-1h-21l5,-22l-10,-14l-24,-20l-36,-23l-27,-13l-58,-22l-28,-6l-81,-12l-40,-2l-55,-1l-51,-13l-49,-28l-56,-26l-42,-32l-47,-23l-39,-24l-63,-29l-6,-20l-25,-13l-58,-21l-50,-27l-19,-9l-35,-9l-85,-15l-78,-12l-95,-10l-57,-4h-56l-145,8l-37,-1l-47,5l-52,-2l-54,4l-147,-6h-77l-107,6l-55,6l-17,-9l-26,-6l-42,1l-65,9l-82,19l-74,25l-70,21l-6,-19l-23,-4l-42,5l-72,26l-10,-13l-28,-21l-3,-17l-141,-93l-5,-3l-78,63l-26,13l-44,27l-55,36l-25,15l-24,-1l-26,4l-47,16l-22,-7l-8,-9l-22,1l-25,-5l-19,3l-44,1l-36,3l-39,-3l-37,-7l-11,-13l-45,-5l-13,7l-51,13l-33,-5l-21,1l-43,7l-114,40l-39,18l-33,4l-39,10l-74,23l-71,24l-44,19l-58,21l-138,46l-42,3l-29,4l-18,-2l0,-15l-8,-10l-13,-3l-42,-2l-48,2l-43,-3l-10,-4l-106,36l-68,20l-27,6l-86,14l-31,-1l-15,-4l-32,-21l-14,-4l-35,-28l-62,3l-26,-1l-45,-12l-52,-26l-15,-27l-35,-17l-15,-11l-16,-20l-4,-25l6,-73l-43,-4l-103,16l-67,3l-55,8l-61,4l-29,-7l-31,-25l-26,6l6,14l-2,17l-11,8l-40,9l-70,27l-40,12l-46,8l-63,5l-6,-2l-31,-22l6,-10l16,-9l20,1l12,-52l-16,-20l6,-21l-37,-24l-60,4l-34,12l-36,9l-75,14l-40,11l-12,-5l-60,11l-31,12l-16,-6l-34,1l-55,5l-35,8l-25,1l-40,-10l-35,7l-31,11l-18,8l-26,6l-18,-1l-23,-9l-42,-23l-7,-6l-269,74l-14,-18l-52,-25l-164,-24l-57,-19l-48,-35l-24,-28l0,-24l11,-23l24,-7l36,-17l44,-37l42,-8l69,5l43,-1l40,-13l19,-11l14,-21l8,-34l-5,-30l-25,-15l-26,-4l-19,15l-25,26l-16,1l-15,-12l-8,-17l-6,-50l-4,-56l8,-40l26,-11l25,5l27,1l14,-18l-2,-31l-46,-141l-14,-13l-15,-211l1497,-408l13,-1l15,14l15,-2l0,-29l29,-19l23,17l18,1l38,-5l42,-12l26,-14l-1,-21l-19,-30l9,-24l22,-17l14,-23l34,-15l21,2l22,-42l27,-40l21,-14l-11,-53l1,-15l-20,-44l22,-17l8,-31l7,-12l21,-19l43,-15l2,-8l-15,-42l-1,-26l-14,-22l-2,-10l-18,-6l-3,-10l20,-33l0,-14l-13,-57l-1,-24l-15,-35l-9,-28l-8,-13l0,-18l10,-31l273,-4l-8,-1003l-218,-106l-735,50l-970,66l-268,19l-738,50l-295,21l9,-20l7,-36l-3,-30l-17,-30l-15,-37l-22,-26l-38,-17l-34,-23l-6,-11l-4,-39l-76,-116l-24,-31l2,-65l-3,-20l1019,-137l588,-78l7,-623l-148,-308l-115,-169l-98,-94l-37,-10l-23,-15l-7,-9l-20,-50l-12,-5l-17,7l-23,1l-30,-18l-15,-25l-8,-28l-7,-11l-24,-14l-14,-2l-62,5l-12,-2l-18,-15l-9,-15l-23,-21l16,-20l-1,-25l-16,-25l-5,-17l10,-24l34,-13l25,-25l27,-6l30,2l24,-7l8,-6l10,-44l16,-27l-1,-47l7,-17l25,-30l7,-15l-1,-21l-11,-27l-2,-15l1,-19l24,-28l1,-18l7,-9l29,-4l26,-11h27l7,-14l-8,-34l11,-18l-3,-14l-12,-20l3,-12l13,-7l28,3l12,-14l-2,-22l17,-31l4,-49l-3,-29l10,-25l36,-37l26,-32l43,-25h44l18,-9l4,-12l-6,-29l6,-13l31,-2l19,3l27,-2l24,-10l19,-3l-19,-16l-37,-9l-58,-50l-16,-11l-50,-41l-17,-17l-28,-37l-23,-36l-21,-28l-81,-72l-40,-30l-30,-35l-76,-137l-26,-53l-22,-6l-30,26l-11,3l-21,-10l-30,-52l-32,-12l-33,-2l-33,3l-24,8l-13,9l-56,62l-27,11l-16,-6l210,-378l-20,-64l-9,-19l-20,-10l-22,4l-9,-13l11,-16l6,-50l1,-37l8,-18l-3,-13l-11,-13l6,-23l-15,-13l-10,-38l1,-18l14,-9l9,-22l3,-20l7,-16l12,-12l5,-18l-12,-49l9,-25l0,-35l-3,-35l3,-62l-10,-36l-445,-521l-579,-508l-25,33l-152,-144l14,-22l37,6l0,24l8,5l27,-13l24,9l9,-1l3,-23l16,-12l29,17l39,-4l9,6l17,26l10,5l10,-8l2,-49l4,-13l16,-6l2,-20l9,-1l14,9l22,-1l8,-23l21,-7l-1,-26l16,-22l-8,-12l17,-23l-10,-18l22,-7l6,-8l3,-30l11,-16l5,-21l21,-32l15,-42l-1,-13l-12,-26l-6,-27l-37,-84l1,-22l13,-27l53,-45l-2,-15l-8,-16l-65,-65l-33,-15l-91,-27l-23,-26l-13,-25l17,-74l-54,-23l-102,-78l-69,-78l-65,-69l-6,-1l-125,40l-94,-1l-44,-18l-84,-52l95,-430l122,-18l104,-5l14,-14l20,-57l43,-39l20,-313l-48,-33l-36,-8l-13,-9l-24,-32l-72,-15l-30,34l-36,13l-36,1l-38,-6l-36,-22l-55,-41l-51,41h-63l-26,-11l-87,-54l-18,-4l-90,5l-30,-6l-26,-12l-35,-47l-28,-46l-16,-16l-31,-18l-28,-42l-33,-36l-123,-87l-135,-11l-168,-37l-123,26l-172,57l-72,-193l-17,10l-22,-20l-17,4l-35,-6l-17,-19h-7l-10,22l-22,15l-6,20l-13,3l-33,-7l-35,35l-21,-7l-15,13l-1,42l-20,26l-31,12l-17,23l-5,15l7,20l-4,16l-17,10l-49,-10l-23,4l-14,13l-16,7l-5,19l5,40l-5,13l-18,-12l-29,-1l-20,15l-11,-5l-6,-17l-13,-10l-10,5l-32,-6l-12,5l-4,11l4,23l-22,23l-3,11l14,17l-4,25l11,27l26,18l3,7l-17,14l-20,35l-36,34l-4,12l-13,4l-16,-7l-8,3l-1,21l15,19l60,37l0,8l-35,30l-3,18l17,25l56,60l15,32l15,12l-36,9l-27,18l-74,18l-30,16l-22,2l-59,-18l-38,3l-16,-4l-44,-50l-11,-24l-11,-63l-22,-42l-85,-97l-67,-8l-76,2l-44,-24l-6,-12l0,-116l-7,-23l-36,-43l-38,-32l-111,-32l-209,-42l-7,-2l-64,-56l-44,-17l-64,-59l-80,-113l-53,-58l-58,-81l-24,-115l-5,-66l6,-51l-2,-51l-16,-14l-40,-11l-81,2l-142,27l-32,13l-56,5l-53,-4l-19,-5l-29,-19l-16,-22l-67,-204l-22,-31l-36,-20l-8,-5l-82,-33l-81,-23l-39,-29l-84,-49l-31,-34l-3,-18l-38,-52l-14,-39l-53,-79l-8,-26l3,-39l15,-49l-12,-135l-49,-41l-61,-63l3,-75l-6,-38l-48,-60l-25,-41l-11,-40l17,-48l-22,-64l2,-18l17,-20l67,-36l25,-23l10,-26l4,-30l8,-12l16,-8l11,-15l5,-20l-46,-44l-18,-36l-4,-35l-30,-42l-7,-97l-18,-97l-23,-379l-4,-24l-7,-17l-31,-53l-117,-100l-40,-24l-36,-13l-19,-1l-154,1l-281,5l-34,-12l-56,-37l-87,-101l-7,-27l2,-29l10,-39l13,-26l19,-19l27,-10l12,-18l-38,-137l1,-69l-16,-91l4,-57l-7,-53l16,-21l28,-8l15,-98l-29,-195l2,-45l8,-29l28,-45l74,-107l-9,-36l-11,-20l-26,-37l-44,-35l2,-17l28,-32l13,-18l-1,-8l-50,-87l-21,-62l-39,-94l-27,-54l288,47l486,81l73,-25l43,-7l74,6l45,-7l54,1l109,-8l50,6l91,-7l107,1l43,6l64,25l177,91l306,-49l-40,-126h-12l-13,-65l46,-33l57,-79l81,-44l79,-36l-5,-23l2,-35l-11,-25l-27,-35l7,-36l-7,-24l10,-26l-10,-29l-3,-25l-10,-25l-1,-15l-23,-28l-22,-20l16,-26l13,-11l59,-28l72,-62l6,-9l2,-26l-4,-9l-31,-35l34,-54l20,-66l-12,-47l13,-70l192,-125l13,-10l114,-8l62,8l243,-15l20,7l78,71l21,11l80,19l27,47l38,35l126,73l15,14l28,67l57,84l13,9l43,10l11,9l20,32l19,58l29,46l25,13l26,-9l50,-8l210,67l237,65l45,8l80,23l35,16l87,50l94,43l60,59l314,245l3,1l38,19l63,2l36,-17l11,-16l26,-12l28,-46l32,-24l26,-29l39,-120l19,-67l0,-43l-15,-133l5,-50l21,-51l15,-22l111,-52l38,1l16,4l-26,-42l-38,-39l20,-72l198,179l58,40l116,70l97,47l68,33l291,104l393,121l42,-42l581,-518l32,-516l182,16l173,23l28,-1l10,-15l-94,-270l-32,-107l-22,-54l-52,-100l-15,-21l-35,-34l-9,-13l-13,-31l-26,-151l-21,-124l-32,-43l-12,-31l0,-16l15,-44l77,-115l5,-12l22,-30l105,-118l67,-50l63,-34l67,-42l58,-23l27,1l19,11l16,15l31,53l146,402l27,45l27,30l21,10l139,2l125,-12l59,-12l66,-14l63,-21l46,-21l140,-4l69,2l20,-23l30,-14l17,9l49,45l13,18l52,101l11,39l43,53l14,8l17,17l107,171l25,18l24,43l12,65l43,31l9,11l-13,19l22,22l6,23l-4,18l-58,54l-14,18l-1,19l25,65l18,30l35,36l61,36l27,-16l31,3l29,-14l13,-1l31,31l20,-26l14,10l27,14l24,43l16,22l36,38l21,33l21,17l133,36l39,22l20,17l31,49l14,42l5,56l19,98l4,61l-2,47l16,50l-3,34l-10,27l-7,50l13,47l-6,42l-22,37l-83,34l-75,48l-33,74l-13,16l-26,18l-57,14l-58,6l-30,5l-19,12l-50,92l-25,26l-31,24l-31,44l-10,35l2,14l14,16l35,31l44,49l20,30l21,63l2,28l18,73l3,69l13,57l77,240l27,72l43,77l40,82l20,58l3,26l-5,36l-18,42l-15,17l0,14l26,26l31,14l50,13h21l37,-11l23,-15l37,-45l36,-15l46,-5l45,-44l43,-29l19,-6l60,-12l36,-18l18,-22l29,-77l24,-41l35,-40l24,-20l22,4l43,74l47,24l50,-21l13,-11l48,-19l19,11l4,23l-33,132l-19,127l-3,49l7,81l-5,132l-10,91l-12,40l-10,24l-16,21l-32,23l-53,22l-147,26l-23,7l-41,35l-25,29l-12,21l-14,46l-5,25l2,97l-5,25l-11,11l-60,31l-79,14l-39,15l-108,74l-53,32l-62,8l-31,9l-15,80l6,87l-15,52l-15,26l-11,49l13,61l-11,52l-4,84l21,88l32,65l46,129l24,58l80,106l32,74l27,100l4,36Z"
     transform="matrix(9.9999989e-5,0,0,-9.9999989e-5,-6.251852e-7,2.3703707e-8)" />
  <path
     id="2401"
     d="M-368384,-54038l17,30l3,30l-7,36l-9,20l295,-21l738,-50l268,-19l970,-66l735,-50l218,106l8,1003l-273,4l-10,31l0,18l8,13l9,28l15,35l1,24l13,57l0,14l-20,33l3,10l18,6l2,10l14,22l1,26l15,42l-2,8l-43,15l-21,19l-7,12l-8,31l-22,17l20,44l-1,15l11,53l-21,14l-27,40l-22,42l-21,-2l-34,15l-14,23l-22,17l-9,24l19,30l1,21l-26,14l-42,12l-38,5l-18,-1l-23,-17l-29,19l0,29l-15,2l-15,-14l-13,1l-1497,408l15,211l14,13l46,141l2,31l-14,18l-27,-1l-25,-5l-26,11l-8,40l4,56l6,50l8,17l15,12l16,-1l25,-26l19,-15l26,4l25,15l5,30l-8,34l-14,21l-19,11l-40,13l-43,1l-69,-5l-42,8l-44,37l-36,17l-24,7l-11,23l0,24l24,28l48,35l57,19l164,24l52,25l14,18l-135,37l-4,21l-20,37l-15,7l-16,17l2,22l-27,18l-24,13l-84,28l-42,18l-63,39l-18,9l-58,43l-28,9l-22,-8l2,-10l-29,-19l-15,15l-17,48l-6,9l-15,5l-39,-5l-37,8l-28,11l-47,28l-51,37l-40,33l-20,20l-36,29l-34,29l-58,63l-65,85l-50,45l-29,42l-44,55l-35,48l-24,21l-31,38l-52,74l-30,50l-17,17l-22,30l-26,26l-8,13l-32,32l-15,30l-11,11l-27,3l-10,9l-17,5l-23,16l-37,42l-27,3l-16,7l-12,-1l-17,-13l-28,-14l-62,1l-37,9l-25,-3l-55,9l-37,10l-87,33l-65,33l-86,54l-84,60l-60,47l-55,41l-62,44l-35,-4l-40,-59l-9,-10l-58,-40l-26,-11l-21,-6l-41,-3l-42,4l-118,28h-29l-14,-7l-20,-31l-28,-30l-30,-17l-40,-7l-35,-25l-53,-20l-60,-44l-34,-19l-40,-12l-33,-3l-21,2l-46,11l-67,23l-47,23l-60,37l-69,45l-28,20l-65,44l-20,8l-20,-4l-30,9l-41,16l-30,20l-20,2l-12,6l-57,16l-30,1l-19,-9l-9,-12l-51,-15l-16,-11l-7,-25l-24,-26l-26,-18l-52,-23l-25,-2l-119,7l-22,-6l-9,-9l-2,-22l2,-22l23,-6l24,-16l17,-17l10,-18l-12,-6l-30,-19l-50,-1l-35,6l-21,7l-29,15l-25,17l-24,29l-10,24l-33,47l-50,57l-29,39l-25,30l-39,42l-17,14l-57,28l-61,40l-33,23l-51,40l-32,28l-38,39l-22,20l-70,84l-43,56l-46,65l-35,54l-31,42l-67,108l-49,87l-41,65l-17,34l-21,37l-10,8l-279,-71l-763,-196l-895,-229l-207,-49l-220,-53l-329,-77l-366,-90l-326,-74l-491,-111l-102,-363l-98,-352l-168,-544l-5,-18l-12,-11l-170,-29l-147,-30l-42,-16l-44,-29l-60,-50l-10,-22l-15,-18l-28,-60l-12,-39l-18,-161l-66,-96l-83,-74l-38,-51l-35,-61l-94,-108l-113,-475l-93,-147l-18,-21l-26,-70l0,-36l18,-47l25,-65l23,-33l4,-33l-18,-79l-9,-50l-48,-98l-10,-52l-4,-86l21,-60l8,-36l18,-26l33,-34l13,-23l3,-47l-8,-34l-38,-24l-174,-156l-59,-21l-26,-17l-101,-63l-128,-125l-118,-46l-102,-167l-9,-105l-51,-69l-6,-43l16,-33l34,-140l-14,-62l2,-48l-37,-57l-128,-150l-42,-88l-26,-32l-27,-44l-24,-56l-6,-29l-27,-285l-5,-8l-42,-28l-15,-15l-20,-45l-16,-71l4,-23l-6,-9l-26,-4l-52,-22l-6,-6l-69,-15h-29l-42,26l-27,6h-37l-16,-9l-21,-22l-34,-76l-36,-107l-28,-37l-12,-40l-24,-33l-25,-20l-96,-36l-40,-32l-51,-26l-26,-28l-38,-20l-95,-36l-20,-1l-28,-13l-32,-35l-25,-59l-22,-29l-18,-67l10,-32l-4,-35l8,-38l-11,-12l-108,-49l-38,-30l-101,-192l-40,-97l-38,-94l-24,-45l-24,-23l-96,-38l-29,-7l-42,-21l-109,-102l-33,-24l-82,-44l-35,-30l-27,-40l-8,-23l-13,-50l-4,-69l17,-141l-69,-164l-4,-54l11,-79l8,-19l10,-5l24,12l46,38l50,20l20,-1l48,-18l50,5l16,-3l43,-45l69,14l36,-20l1,-26l-28,-69l-14,-20l-41,-32l-23,-32l-9,-29l-2,-38l-12,-38l-17,-34l-43,-31l-23,-33l-54,-94l-27,-32l-114,-120l-129,-114l-139,-178l-7,-15l-8,-56l-7,-18l-23,-16l-2,-21l3,-12l18,-42l8,-28l-1,-49l-42,-103l-20,-234l-24,-59l-27,-40l-119,-76l-31,-24l-9,-15l-6,-28l2,-30l-7,-49l-21,-24l-114,-77l-12,-7l-39,-21l-15,-22l-7,-32l19,-68l5,-17l-1,-30l-7,-18l-10,-11l-63,-32l-29,-30l-14,-7l-22,-1l-32,26l-28,7l-60,-71l-28,-23l-61,-18l-35,-7l-40,-22l-25,-22l-33,-48l-27,-30l-28,-16l-7,-11l-34,-24l-231,-201l-8,-25l-41,-34l-28,-48l-5,-17l20,-22l-17,-76l0,-53l12,-61l-17,-21l-3,-23l6,-20l0,-36l-30,-37l-46,-29l-6,-17l16,-24l-22,-10l-23,7l-13,-1l-15,-26l-18,-4l-5,-26l-12,-29l-25,-12l-19,1l-5,-20l-7,-29l-14,-13l-38,-14l-46,5l-36,-12l-18,-11l-20,-36l-35,-13l-41,-30l-34,-54l-27,-5l-37,26l-56,25l-30,43l-11,6l-72,-16h-38l-15,5l-44,-23l-25,18l-3,9l-12,45l-8,11l-29,21l-9,19l-14,8l-13,-10l-2,-17l10,-70l-1,-37l-30,-25l-40,1l-2,-24l-13,-9l-51,7l-21,-19l-21,-9l-26,9l-47,43l-18,22l-6,15l-21,2l-11,19l-17,42l0,10l14,55l-14,8l-44,-2l-15,15l2,23l17,33l20,56l-12,12l-26,-20l-23,1l-25,9l-19,-17l-27,-4l-65,19l-8,-5l-14,-27l-11,-6l-51,-8l-7,-9l-15,-3l-11,10l-29,-37l-14,-9l-23,-7l-17,-21l-27,-10l-18,-19l-14,-8l-8,-16l1,-25l-26,-12l-24,-34l-16,-8l-26,5l-26,-33l-36,-30l-22,-8l-16,2l15,-42l23,-13l-1,-30l3,-15l25,-16l-13,-24l-32,-30l-49,-4l-10,-10l-3,-30h-19l-43,-13l-14,-9l-30,-34l-39,-91l-24,-58l-16,-25l-5,-32l-10,-14l-11,-5l-8,-12l0,-24l-10,-27l-2,-22l-18,-11l11,-22l25,-9l7,-22l-15,-41l-19,-32l-26,-24l-90,-58l-36,-44l-16,-38l-13,-17l-38,-13l-34,-33l-12,-41l2,-42l5,-29l-18,-13l-58,6l-34,-5l-62,12l-34,-14l-53,-11l13,-35l0,-25l-21,-25l-3,-24l5,-38l-13,-26l-2,-30l96,-93l-37,-53l-13,-46l-35,-38l-1,-25l-33,-23l-42,-39l-27,-15l-24,7l-20,-5l-18,11l-12,2l-26,-53l-16,-66l-18,-19l-24,-5l-5,-18l4,-19l-54,-38l-52,-13l-47,-30l-30,-26l-26,-37l-9,-5l-29,-8l-4,-5l24,-20l11,-19l29,-3l16,-6l5,-67l6,-19l4,-14l-6,-44l11,-17l29,-3l6,-18l-7,-18l-47,-16l-39,-26l-14,-19l-20,-43l-26,-14l-8,-31l14,-61l-8,-56l18,-41l8,-65l18,-58l28,-12l62,-16l37,-16l12,-9l7,-30l21,11h77l76,8l0,11l-31,9l-16,11l23,14l23,24l2,23l64,-2l48,31h12l78,-35l69,-5l27,-15l13,-16l18,-34l59,-43l19,4l25,30l14,9l62,74l79,36l98,74l29,6l11,-10l26,2l38,27l77,11l-9,-20l-52,-49l-115,-86l-29,-37l-42,-72l-55,-50l-12,-18l-7,-27l3,-20l32,-28l27,-41l12,-61l-3,-84l-10,-36l-21,-46l14,-17l29,14l78,19l86,-3l102,35l35,4l13,-3l20,-18l14,-53l-6,-35l29,-11l35,-2l14,-33l19,-19l66,-5l22,-12l24,-22l11,-3l22,3l23,11l27,8l171,23l24,-2l17,-21l61,-43l33,-27l37,-33l15,-26l4,-57l7,-16l41,-48l27,-5l2,-12l-14,-18l0,-10l16,-46l6,-32l-7,-48l11,-18l12,-3l38,5l49,20l14,-12l10,-24l4,-48l58,48l66,15l48,-10l45,-34h13l14,14l38,5l21,-7l23,-18l23,-39l18,-41l15,-16l38,-25l7,-10l15,-37l3,-35l24,-63l21,-16l22,-5l35,-4l56,13l32,13l35,-22l3,-19l30,-43l7,-17l13,-83l72,61l39,22l51,14l27,15l62,50l22,43l49,19l36,-22l20,-3l36,7l56,42l25,5l36,-6l66,-24l14,-6l159,-25l60,-6l51,-13l14,-13l31,-38l25,-37l19,-15l42,-6l185,-8l47,24l19,-14l26,4l13,22l18,1l77,46l11,2l28,-27l37,-80l23,-37l10,-69l9,-27l17,-30l23,-15l82,-19l48,-5l31,-3l39,14l71,44l38,50l43,24l9,14l5,26l7,65l0,29l5,25l53,26l45,28l26,23l16,24l23,67l8,12l27,23l22,51l25,43l7,11l31,23l52,11l9,10l4,39l14,14l15,3l27,-11l10,2l20,75l1,28l4,10l18,14l34,1l10,-5l19,-19l3,-27l-14,-33l6,-27l69,-51l7,-29l-1,-16l-23,-49l-22,-38l3,-27l32,-22l32,-6h47l27,10l17,15l16,32l17,16l30,2l32,-11h13l16,11l-71,214l1,23l42,26l34,37l39,61l-2,11l-12,11l-48,-4l-4,16l11,14l70,-7l39,1l55,15l62,-21h21l56,5l43,14l80,43l24,37l10,25l-3,111l23,27l26,16l25,3l52,23l-2,-67l4,-32l58,-99l40,-46l31,-15l39,1l57,8l46,16l20,5l19,18l13,46l35,31l87,53l92,66l26,9l21,2l28,-3l37,-12l21,6l20,25l14,30l5,23l-9,16l-21,9l-12,20l-6,168l5,53l10,10l43,-29l85,-14l27,-8l97,-53l26,-4l9,5l47,81l33,13l55,3l39,17l9,17l-3,20l-25,16l-9,15l2,18l15,21l35,25l38,41l10,40l-74,45l-12,14l-3,27l7,31l23,32l65,50l23,13l27,10l60,17l62,16l17,11l5,12l-2,16l-22,13l-61,23l-8,7l-4,20l78,93l41,40l17,10l34,7l39,-3l57,19l29,4l57,-11l78,-7l93,-1l68,-13l28,1l38,8l9,20l-7,27l-9,11l-37,29l-29,44l-44,29l-14,22l0,50l9,25l10,10l71,59l19,29l0,17l-12,12l-149,70l64,28l44,8l27,12l17,15l2,11l-4,22l-12,10l-24,12l-98,14l-6,14l118,124l17,10l45,2l15,5l30,28l12,28l-2,25l-28,70l3,19l11,17l43,47l34,28l34,20l103,42l157,56l74,22l15,1l13,-5l21,-22l40,-55l19,-15l23,-7l70,4l87,-22l70,-15l101,-4l87,12l77,4l22,10l17,13l26,55l17,18l178,37l45,4l0,-5l120,9l43,13l29,19l71,62l50,33l26,11l76,18l12,20l39,23l89,-91l207,-14l36,131l96,11l49,-1l190,-3l-5,77h140l64,-73l27,14l214,53l2,118h38l4,27l-2,51l8,53l82,79h39l72,15l3,7l17,-1l66,11l146,-25l36,-13l90,14l52,20l14,12l22,38l38,96l3,55l11,21l25,16l35,5l59,21l13,2l147,-36l25,-1l72,61l44,47l38,53l32,29l70,28l36,22l55,25l105,22l86,75l26,7l24,-5l87,-79l46,-2l49,9l49,16l25,15l32,31l32,47l9,40l1,39l8,13l34,31l4,24l15,32l27,19l32,7l73,-10l114,-7l20,-13l22,-34l27,-70l10,-18l13,-10l30,-5l33,1l30,12l47,28l43,3l22,-6l19,-15l16,-21l14,-35l10,-13l20,-8l149,-20l26,5l29,15l-16,-49l-1,-20l16,-93l27,-127l7,-62l1,-31l-20,-90l-2,-36l11,-25l39,-45l9,-28l-2,-18l-14,-34l-18,-38l-8,-25l-7,-105l-33,-77l-1,-39l14,-19l2,-12l17,-11l5,-29l7,-10l17,-5l25,-31l14,-1l41,18l31,-5l9,2l16,4l38,-3l59,18l22,-2l30,-16l74,-18l27,-18l36,-9l-15,-12l-15,-32l-56,-60l-17,-25l3,-18l35,-30l0,-8l-60,-37l-15,-19l1,-21l8,-3l16,7l13,-4l4,-12l36,-34l20,-35l17,-14l-3,-7l-26,-18l-11,-27l4,-25l-14,-17l3,-11l22,-23l-4,-23l4,-11l12,-5l32,6l10,-5l13,10l6,17l11,5l20,-15l29,1l18,12l5,-13l-5,-40l5,-19l16,-7l14,-13l23,-4l49,10l17,-10l4,-16l-7,-20l5,-15l17,-23l31,-12l20,-26l1,-42l15,-13l21,7l35,-35l33,7l13,-3l6,-20l22,-15l10,-22h7l17,19l35,6l17,-4l22,20l17,-10l72,193l172,-57l123,-26l168,37l135,11l123,87l33,36l28,42l31,18l16,16l28,46l35,47l26,12l30,6l90,-5l18,4l87,54l26,11h63l51,-41l55,41l36,22l38,6l36,-1l36,-13l30,-34l72,15l24,32l13,9l36,8l48,33l-20,313l-43,39l-20,57l-14,14l-104,5l-122,18l-95,430l84,52l44,18l94,1l125,-40l6,1l65,69l69,78l102,78l54,23l-17,74l13,25l23,26l91,27l33,15l65,65l8,16l2,15l-53,45l-13,27l-1,22l37,84l6,27l12,26l1,13l-15,42l-21,32l-5,21l-11,16l-3,30l-6,8l-22,7l10,18l-17,23l8,12l-16,22l1,26l-21,7l-8,23l-22,1l-14,-9l-9,1l-2,20l-16,6l-4,13l-2,49l-10,8l-10,-5l-17,-26l-9,-6l-39,4l-29,-17l-16,12l-3,23l-9,1l-24,-9l-27,13l-8,-5l0,-24l-37,-6l-14,22l152,144l25,-33l579,508l445,521l10,36l-3,62l3,35l0,35l-9,25l12,49l-5,18l-12,12l-7,16l-3,20l-9,22l-14,9l-1,18l10,38l15,13l-6,23l11,13l3,13l-8,18l-1,37l-6,50l-11,16l9,13l22,-4l20,10l9,19l20,64l-210,378l16,6l27,-11l56,-62l13,-9l24,-8l33,-3l33,2l32,12l30,52l21,10l11,-3l30,-26l22,6l26,53l76,137l30,35l40,30l81,72l21,28l23,36l28,37l17,17l50,41l16,11l58,50l37,9l19,16l-19,3l-24,10l-27,2l-19,-3l-31,2l-6,13l6,29l-4,12l-18,9h-44l-43,25l-26,32l-36,37l-10,25l3,29l-4,49l-17,31l2,22l-12,14l-28,-3l-13,7l-3,12l12,20l3,14l-11,18l8,34l-7,14h-27l-26,11l-29,4l-7,9l-1,18l-24,28l-1,19l2,15l11,27l1,21l-7,15l-25,30l-7,17l1,47l-16,27l-10,44l-8,6l-24,7l-30,-2l-27,6l-25,25l-34,13l-10,24l5,17l16,25l1,25l-16,20l23,21l9,15l18,15l12,2l62,-5l14,2l24,14l7,11l8,28l15,25l30,18l23,-1l17,-7l12,5l20,50l7,9l23,15l37,10l98,94l115,169l148,308l-7,623l-588,78l-1019,137l3,20l-2,65l24,31l76,116l4,39l6,11l34,23l38,17l22,26l15,37M-370441,-48185l-7,21l-10,-3l8,-21l9,3Z"
     transform="matrix(9.9999989e-5,0,0,-9.9999989e-5,-6.251852e-7,2.3703707e-8)" />
  <path
     id="2404"
     d="M-349685,-64872l-5,45l-7,30l0,61l5,30l-9,33l-20,13l-8,39l3,23l-4,40l-9,41l1,49l12,72l8,13h10l-6,25l-19,2l-7,22l-11,67l2,71l-10,18l-1,19l-14,25l-15,12l-5,14l-4,51l2,21l-14,52l-15,7l-9,24l-12,16l-2,22l-9,19l-12,13l-2,24l-5,15l-17,21l-16,68l6,15l-5,19l-13,12l-27,-3l-9,-4l-19,4l-28,22l-26,30l-22,-1l-30,6l-15,-13l2,-17l-8,-13l-16,-3l-32,7l-45,37l-21,26l-20,33l-25,55l-10,33l-20,97l-1,32l-14,47l-14,82l-7,60l0,31l7,22l2,31l3,39l5,12l-13,59l-11,91l1,43l-4,33l-7,10l11,22l-3,25l7,18l-2,11l-27,26l-13,20l-4,26l-1,34l2,25l2,60l5,55l-2,36l3,19l7,90l-12,14l-35,17l-5,15l-7,38l-7,7l-23,5l-42,2l-17,-7l-62,8l-12,-18l-19,1l-21,14l-26,27l-11,19l-9,2l-24,-15l-12,3l-20,15l-14,19l-43,75l-12,35l-18,73l-8,42l-8,75l-14,14l-13,5l-22,19l-15,30l-14,20l-7,-34l-17,-10l-10,10l-11,10l2,12l-7,25l-8,86l5,15l-13,42l-7,68l5,73l-5,61l0,44l-4,66l-1,76l-3,26l3,15l0,39l-9,15l-11,54l1,66l5,78l3,36l2,60l5,46l-11,11l-3,19l7,11l-7,10l-4,32l10,25l19,14l2,22l-11,15l4,29l15,24l3,36l-8,19l-15,5l-19,-16l-11,-2l-21,9l-23,17l-21,42l-13,43l-4,26l-2,81l3,76l7,54l11,56l6,22l12,18l-4,31l2,27l-18,11l-11,27l-19,29l-15,43l-3,29l6,18l-6,25l-7,16l-15,10l-11,-3l-19,7l-29,36l1,19l-4,12l-37,63l-13,19l-28,33l-16,2l-24,22l-16,-9h-16l-8,-9l-14,3l-29,16l-16,-1l-22,18l-23,27l-14,20l-21,44l-20,68l-12,82l-2,49l1,53l-22,27l-5,41l3,57l4,18l2,47l6,51l14,67l9,80l3,35l-10,33l-19,-4l-11,16l-32,21l-18,-4l-21,-16l-6,-12l-26,-1l-41,27l-18,20l-28,44l-22,52l-12,42l-5,30l-6,45l-4,54l-2,85l4,26l-7,40l2,60l-3,48l0,44l3,71l9,112l5,33l4,8l-16,9l-8,10l-6,41l-21,2l-13,19l-14,6l-12,27l-12,16l1,18l-10,16l-12,-1l-8,10l-6,29l-3,41l-5,14l-5,63l2,52l-2,21l-2,47l-66,28l-17,19l-7,29l-1,41l1,30l4,53l10,39l17,101l17,56l16,25l3,29l10,27l11,22l19,18l6,26l-11,21l-13,34l-15,20l-14,-7h-17l-16,-9l-18,1l-19,13l-27,31l-34,43l-14,15l-31,57l-11,23l-14,53l1,21l-3,28l3,53l17,22l-7,16l5,29l-10,19l-2,27l-5,17l-1,29l5,108l3,27l25,15l-17,15l-17,-7l-9,-10l-23,4l-13,12l-14,24l-16,37l-9,44l-8,60l-1,23l7,45l11,34l4,41l-2,65l-18,16l-3,21l11,51l0,15l-21,59l-8,5l-16,-7l-27,12l-23,19l-9,14l-8,25l-5,38l-12,19l-29,25l-17,22l-10,20l-37,98l-7,32l-4,37l3,40l6,27l-1,31l4,8l-15,22l-4,27l2,21h-14l10,25l17,9l6,28l-31,-20l-12,-5l-22,1l-12,9l-16,20l-18,41l-9,52l-2,41l3,42l7,26l15,10l-2,9l-18,5l-6,28l0,46l10,26l-13,17l-14,-2l-4,-11l-27,-9l-11,4l-39,30l-13,6l-13,-3l-20,35l-7,26l-28,21l-13,20l-26,45l-10,1l-48,37l-9,24l-9,31l-4,62l-9,25l3,28l-5,13l-2,29l-6,19l-9,47l0,19l6,39l-6,10l-26,-7l-24,8l-22,31l-12,39l-13,21l-27,1l-22,14l-10,15l-19,48l-1,30l1,37l4,31l0,24l4,48l-5,19l-41,41l-25,31l-26,51l-25,9l-10,-4l-8,-16l-23,-24l-14,-1l-52,9l-28,11l-25,15l-25,21l-43,43l-25,31l-39,59l-38,77l-34,98l-12,52l-2,29l3,30l-9,51l-5,35l-5,17l-4,33l3,16l-14,14l-15,41l-5,57l-7,28l-13,13l-4,11l-3,30l3,26l-1,35l-23,23l-7,26l-4,37l-20,32l-19,13l-6,21l-22,13l-42,51l-8,16l-10,26l-13,18l-23,57l-10,5l-24,59l-24,21l-16,38l-11,16l-52,32l-17,19l-18,32l-22,30l-36,38l-26,40l-27,34l-14,25l-42,13l-20,17l-26,4l-57,28l-51,28l-37,29l-21,11l-25,20l-53,32l-35,36l-33,7l-22,15l-17,21l-13,25l-17,44l-21,46l-21,43l-32,32l-19,26l-36,37l-39,56l-78,61l-13,9l-16,-4l-33,3l-32,12l-25,16l-32,6l-8,-4l-29,-2l-52,15l-26,18l-29,-1l-52,30l-13,3l-41,24l-36,10l-23,14l-53,19l-31,-1l-26,11l-24,14l-40,6l-69,5l-19,6l-20,1l-50,19l-46,7l-24,18l-20,20l-30,7l-32,18l-41,-2l-42,17l-45,30l-39,7l-37,16l-18,1l-46,19l-21,11l-56,41l-16,-8l-5,-17l-22,-18l-20,-9l-27,-2l-13,3l-28,-12l-17,-2l-71,10l-41,11l-75,23l-64,22l-30,6l-30,13l-14,10l-39,1l-65,12l-106,33l-49,20l-18,6l-53,23l-23,-2l1,-17l-19,-8l-37,3l-10,-2l-34,8l-30,15l-18,12l-36,33l-29,8l-9,-6l-30,-3l-47,9l-22,10l-24,18l-21,7l-16,-3l-39,5l-36,13l-35,20l-18,2l-34,-3l-48,8l-57,34l-39,26l-25,10l-43,9l-19,10l-22,22l-46,22l-27,4l-23,-15l-20,-8l-38,-2l-36,12l-40,30l-13,5l-25,-4l-20,4l-37,-10l-20,-1h-72l-63,-11l-23,-1l-32,5l-25,8l-35,7l-54,15l-67,22l-37,6l-51,13l-28,2l-22,-11l-29,-2l-56,2l-60,5l-69,13l-150,44l-27,10l-23,12l-22,6l-56,-227l-221,-896l5,-3l-12,-26l-155,-627l402,91l801,183l-56,-168l-27,-78l83,-715l177,-1587l38,-9l30,12l10,-2l23,9l17,2l20,15l25,9l15,12l11,31l20,16l13,23l9,3l21,-7l27,27l16,4l14,11l8,19l43,31l10,14l24,-7l17,7l19,-5l17,-19l26,-21l10,-22l15,-21l34,-33l45,-7l19,-11l28,-23l28,-2l18,11l21,-2l49,-12l21,5l23,14l21,-4l20,-10l41,-6l22,-10l29,1l38,-6l37,-17l19,-2l46,19l69,-7l41,-10l61,-7l39,-2l25,5l37,-8l42,-25l27,-12l18,-18l37,-19l26,-25l38,-10l38,-30l12,-4l32,-2l44,5l38,-7l39,-24l23,-21l14,-7l11,-16l29,-19l32,-29l14,-9l32,-5l11,-6l-426,-40l97,-902l130,-254l40,-175l97,-850l741,-67l58,178l44,6l1,-69l475,-74l35,6l22,-4l41,-36l34,-11l22,16l21,23l17,27l22,16l17,5l37,-1l13,-15l5,-14l11,-9l39,-1l27,6l26,2l16,-6l12,-12l24,-57l38,-61l29,-25l22,-13l-173,-713l-74,-301l-73,23l-16,8l-45,18l-25,2l-15,-15l-400,-506l-432,-505l166,-162l182,-472l-203,-511l24,-10l40,-5l28,-23l18,-34l941,359l461,176l331,131l20,-6l11,-173l-39,-77l-80,-49l1,-39l11,-16l8,-2l17,-16l16,-33l47,-47l9,-26l22,-32l-38,-20l11,-13l1,-19l15,-51l9,-18l2,-25l22,-7l18,-12l45,-15l72,71l301,17l38,-9l0,-57l94,-71l117,-45l-3,-57l-167,-348l-72,-26l-10,-132l-25,-181l-44,-26l-121,-208l22,-7l-120,-171l130,-34l204,-56l-11,-17l-8,-23l-1,-19l3,-15l-25,-57l-14,-23l2,-17l-2,-25l-14,-177l20,-57l4,-225l1,-18l-4,-17l8,-15l-5,-19l0,-32l4,-25l0,-20l-99,-427h-12l-29,-11l-50,-4l-36,-193l-4,-25l2,-16l19,-27l-6,-28l-1,-21l6,-12l-2,-46l-6,-12l-12,-9l5,-20l-8,-22l8,-14l8,-28l29,-15l3,-11l4,-70l-11,-25l1,-9l23,-26l11,-29l293,-220l14,-18l-13,-34l-23,-22l13,-11l52,-19l14,-10l36,-44l-30,-19l-18,-37l-26,-33l-50,-86l-19,-52l-6,-45l4,-31l4,-4l-137,-457l-132,-433l45,-34l28,-13l32,-10l170,-2l48,6l154,-6l101,8l89,-2l51,15l163,84l174,13l35,9l25,15l24,27l21,33l9,27l4,44l11,11l35,-14l12,-11l24,-67l17,-34l40,-45l3,-11l-3,-43l6,-18l22,-33l42,-42l36,-20l23,-7l32,3l30,5l18,-5l52,-43l104,-33l33,-5l14,1l33,18l22,4l59,44l43,-17l15,-2l59,8l21,20l4,30l38,21l35,55l13,7l21,37l27,27l46,19l18,13l13,24l3,23l33,44l3,30l7,16l43,58l11,25l-3,28l52,-14l36,7l15,18l5,38l10,9l26,15l26,1l10,-4l24,-20l32,-49l135,-94l39,-59l44,-44l40,-18l54,-13l31,13l28,25l60,19l28,26l60,24l37,44l20,40l28,32l65,3l18,16l14,5l17,-9l4,-13l56,-8l39,13l38,6l13,7l10,15l21,3l15,-8l27,15l16,-8l11,3l68,70l14,7l5,13l14,2l19,21l17,29l19,1l9,10l40,10l15,-21l16,1Z"
     transform="matrix(9.9999989e-5,0,0,-9.9999989e-5,-6.251852e-7,2.3703707e-8)" />
  <path
     id="2403"
     d="M-359396,-57330l13,-70l2,-31l7,-18l20,-33l27,-34l17,-17l44,-5l-5,-23l2,-21l18,-26l11,-32l-5,-32l-15,-28l-11,-38l-19,-35l-34,-36l-20,-40l-15,-13l-7,-24l-20,-49l1,-12l20,3l8,-6l23,-26l22,-15l28,-10l29,-2l1,-40l-3,-32l-44,-3l-32,-8l-27,-14l-25,-25l-11,-15l-19,-3l-22,7l-18,15l-7,19l4,28l-7,17l-13,5l-77,2l-51,9l-36,16l-36,25l-38,24l-40,29l-17,-31l-38,-59l-19,-17l-25,-13l-35,-10l-27,-5l-21,-14l-19,-29l-15,-7l-40,-37l-27,-37l-20,-21l-16,-22l-15,-30l-3,-20l-19,-24l-5,-14l-22,-15h-94l-37,-3l-21,-11l-79,-69l-21,-15l-34,-12l-37,-19l-34,-29l-29,-17l-42,-20l-35,-18l-36,-22l-14,-1l-19,15l-7,13l26,53l-2,12l-40,22l-55,27l-26,19l-20,27l-26,-3l-19,-12l-27,8l-9,18l-22,-1l-9,7l-14,26l0,15l-9,11l-33,12l-33,20l-22,-2l-27,-23l-25,-40l-36,-23l-12,-14l-7,-21l-13,-15l-14,-59l-8,-50l-18,-45l-32,-4l-62,1l-25,-7l-26,-12l-38,-26l-25,7l-7,15l-6,31l-19,15l-17,-1l-40,-16l-24,-5l-10,6l-14,32l-2,24l-9,18l-14,12l-16,6l-27,-8l-89,-56l-20,-1l-30,6l-51,20l-19,-1l-21,-11l-37,-36l-24,-44l-31,-63l-35,-83l-20,-59l-161,94l-113,-263l-85,-244l-202,-576l-285,-620l-208,-714l65,-68l389,-358l-9,-408l-12,-22l-43,-162l-10,-30l-21,-34l-8,-37l1,-20l50,-77l22,-26l15,-36l-4,-26l-23,-27l-46,-25l-35,-51l-25,-17l-31,-13l-39,-31l-5,-27l-24,-56l-3,-30l-22,-12l-50,-11l-21,-12l-10,-17l6,-23l-4,-16l-19,-9l4,-19l-20,-4l4,-63l26,-32l125,-136l5,-14l3,-73l3,-94l21,-134l-4,-42l-14,-48l-31,-52l-112,-102l-28,-38l-7,-18l-25,-61l-4,-56l3,-25l13,-27l22,-28l-6,-31l8,-14l36,-14l145,-24l49,-27l31,-8l75,-4l26,-25l78,4l14,-330l208,32l25,2l270,22l47,9l63,-14l82,19l58,-4l27,2l42,13l238,40l26,-14l42,10l48,-24l11,3l26,26h11l51,-21l96,-20l25,1l13,23l14,6l13,26l31,22l37,-5l21,16l8,1l4,1l25,4l18,9l24,21l27,10l13,12l8,32l40,34l-1,19l7,9l23,1l9,-5l11,-26l30,-22l5,-13l-17,-18l1,-14l57,-5l9,3l36,37l19,12l7,-7l18,-71l35,-82l45,-60l145,-121l35,-17l164,-60l35,-30l23,-31l27,-70l-5,-18l-9,-12l-32,-29l0,-18l7,-11l11,-3l31,1l6,-4l7,-40l14,-26l50,-15l9,-9l74,-19l48,2l64,-28l32,-9l29,1l78,41l17,3l74,-49l76,-30l60,-7l738,44l531,31l374,22l66,5l99,6l56,32l53,7l23,-2l20,11l34,31l12,4l13,-20l11,-4l60,32l49,2l28,16l13,17l18,-14l58,-15h17l19,12l37,2l41,16l48,51l47,17l6,5l13,25l30,21l29,26l35,20l19,20l15,23l10,8l29,-13l28,-5l26,-19l14,3l10,-4l23,14l38,-2l12,12l4,25l34,15l9,-5h20l16,-14h18l11,-18l13,-10l54,-6l25,-14l42,-11l26,-13l18,-4l57,-1l22,-10l39,-28l35,15l27,-16l3,-6l-12,-19l10,-13l40,6l19,10l35,4l25,13l9,1l39,-14l7,-5l11,-34l31,-27l31,-44l1,-50l14,-14l26,-10l16,-31l11,-7h26l14,-13l0,-17l9,-13l26,8l11,-6h20l28,-11h13l23,7l42,-2l9,-9l3,-13l-18,-21l31,-8l32,-3l42,10l28,17l17,53l20,24l11,6l27,4l17,-13l15,-2l7,24l9,6l20,-1l21,-25l15,-4l22,31l43,6l6,6l6,25l6,1l62,-30l14,-3l24,1l29,25l44,-19l33,2l33,7l17,-9l24,-23l15,-23l13,2l19,28l6,2l29,-8l30,-20l13,-27l16,-8l61,-5l40,37l16,5l50,-5l23,5l20,44l14,14l33,-3l20,-13l39,-65l49,-18l10,5l13,49l18,20l10,-36l-5,-36l5,-11l19,1l49,-13l143,3l37,8l44,-4l46,-14l71,-20l59,-24l47,-25l55,-36l201,-119l232,-266l132,433l137,457l-4,4l-4,31l6,45l19,52l50,86l26,33l18,37l30,19l-36,44l-14,10l-52,19l-13,11l23,22l13,34l-14,18l-293,220l-11,29l-23,26l-1,9l11,25l-4,70l-3,11l-29,15l-8,28l-8,14l8,22l-5,20l12,9l6,12l2,46l-6,12l1,21l6,28l-19,27l-2,16l4,25l36,193l50,4l29,11h12l99,427l0,20l-4,25l0,32l5,19l-8,15l4,17l-1,18l-4,225l-20,57l14,177l2,25l-2,17l14,23l25,57l-3,15l1,19l8,23l11,17l-204,56l-130,34l120,171l-22,7l121,208l44,26l25,181l10,132l72,26l167,348l3,57l-117,45l-94,71l0,57l-38,9l-301,-17l-72,-71l-45,15l-18,12l-22,7l-2,25l-9,18l-15,51l-1,19l-11,13l38,20l-22,32l-9,26l-47,47l-16,33l-17,16l-8,2l-11,16l-1,39l80,49l39,77l-11,173l-20,6l-331,-131l-461,-176l-941,-359l-18,34l-28,23l-40,5l-24,10l203,511l-182,472l-166,162l432,505l400,506l15,15l25,-2l45,-18l16,-8l73,-23l74,301l173,713l-22,13l-29,25l-38,61l-24,57l-12,12l-16,6l-26,-2l-27,-6l-39,1l-11,9l-5,14l-13,15l-37,1l-17,-5l-22,-16l-17,-27l-21,-23l-22,-16l-34,11l-41,36l-22,4l-35,-6l-475,74l-1,69l-44,-6l-58,-178l-741,67l-97,850l-40,175l-130,254l-97,902l426,40l-11,6l-32,5l-14,9l-32,29l-29,19l-11,16l-14,7l-23,21l-39,24l-38,7l-44,-5l-32,2l-12,4l-38,30l-38,10l-26,25l-37,19l-18,18l-27,12l-42,25l-37,8l-25,-5l-39,2l-61,7l-41,10l-69,7l-46,-19l-19,2l-37,17l-38,6l-29,-1l-22,10l-41,6l-20,10l-21,4l-23,-14l-21,-5l-49,12l-21,2l-18,-11l-28,2l-28,23l-19,11l-45,7l-34,33l-15,21l-10,22l-26,21l-17,19l-19,5l-17,-7l-24,7l-10,-14l-43,-31l-8,-19l-14,-11l-16,-4l-27,-27l-21,7l-9,-3l-13,-23l-20,-16l-11,-31l-15,-12l-25,-9l-20,-15l-17,-2l-23,-9l-10,2l-30,-12l-38,9l-177,1587l-83,715l27,78l56,168l-801,-183l-402,-91l-417,-162l-80,-25l-489,-427l-116,-52l-59,70l-26,4l-130,43l-196,58l-303,195l-168,103l-11,-5l-51,17l-23,-1l-7,-5l-3,-36l-1157,-298l345,-948l181,-496l633,-2l314,-227l652,514l356,-398l353,-186l81,-155l274,-564l456,-940l-17,-18l-21,-12l-33,-2l-34,-9l-19,-11l-7,-17l2,-17l8,-27l6,-40l-3,-26l-12,-23l-9,-7l-36,-20l-31,-3l-15,-14l-8,-26l-18,-41l-14,-21l-19,-13l-17,-25l-7,-19l75,-461l2,-10l-71,-99l-5,-20l20,-52Z"
     transform="matrix(9.9999989e-5,0,0,-9.9999989e-5,-6.251852e-7,2.3703707e-8)" />
</svg>
