<?xml version="1.0" encoding="UTF-8" standalone="no"?>
<svg
   version="1.2"
   width="1080"
   height="1080"
   viewBox="-66.8103 7.9759 7.035899999999998 5.7177999999999995"
   stroke-linecap="round"
   stroke-linejoin="round"
   id="svg5"
   sodipodi:docname="ROMeso.svg"
   inkscape:version="1.2 (dc2aedaf03, 2022-05-15)"
   xmlns:inkscape="http://www.inkscape.org/namespaces/inkscape"
   xmlns:sodipodi="http://sodipodi.sourceforge.net/DTD/sodipodi-0.dtd"
   xmlns="http://www.w3.org/2000/svg"
   xmlns:svg="http://www.w3.org/2000/svg">
  <defs
     id="defs9" />
  <sodipodi:namedview
     id="namedview7"
     pagecolor="#ffffff"
     bordercolor="#000000"
     borderopacity="0.25"
     inkscape:showpageshadow="2"
     inkscape:pageopacity="0.0"
     inkscape:pagecheckerboard="0"
     inkscape:deskcolor="#d1d1d1"
     showgrid="false"
     inkscape:zoom="0.7537037"
     inkscape:cx="540.66339"
     inkscape:cy="540.66339"
     inkscape:window-width="1920"
     inkscape:window-height="1001"
     inkscape:window-x="-9"
     inkscape:window-y="-9"
     inkscape:window-maximized="1"
     inkscape:current-layer="svg5" />
  <path
     id="1102"
     d="M-624177,-131189l-3,-32l10,-26l30,-37l33,14l34,31l40,56l39,49l33,-10l12,-43l-12,-61l-13,-53l54,-47l42,24l53,16l30,-27l18,-50l51,-22l35,-1l43,14l39,-5l42,-31l47,-3l24,42l41,20l81,-34l-50,-53l14,-41l47,18l34,56l24,25l44,-47l-3,-43l20,-21l30,-10l17,49l9,88l20,39l109,-50l15,-19l11,-47l40,-45l43,7l15,39l15,21l46,33l27,-15l20,-79l42,-55l63,-4l10,10l-43,35l-12,52l37,-6l51,-23l32,-41l30,25l-42,27l14,19l46,-3l45,19l95,-7l6,29l-1,38l11,35l6,43l-17,47l4,52l16,35l28,16l48,-13l34,-37l28,-9l36,24l10,23l19,32l33,21l50,3l35,-19l50,-37l32,-43l21,-33l12,-70l-8,-59l-8,-43l12,-89l50,-34l43,2l40,27l54,41l33,40l7,34l-3,26l-37,39l-22,52l-3,47l25,54l27,26l38,17l45,-4l35,-25l9,-27l-4,-22l-21,-41l-10,-37l0,-51l70,-84l25,-39l28,-7l46,-18l16,-22l-7,-30l-2,-55l20,-35l26,-5l45,25l53,74l28,44l61,10l44,-14l46,-37l35,-59l10,-43l-20,-48l-7,-40l2,-46l26,-77l7,-35l-1,-68l-5,-88l15,-43l0,-35l44,-73l-6,-54l-3,-47l8,-54l-13,-60l11,-54l-5,-42l-21,-41l-25,-23l-12,-20l17,-25l46,-41l29,-29l54,-21l29,-26l20,-31l23,-27l11,-32l28,-6l30,6l18,-4l2,-32l7,-50l51,-17l43,-2l15,-14l21,-25l23,2l24,22l44,44l52,11l9,-67l-16,-52l0,-48l8,-69l40,-25l67,-20l29,-28l34,-56l24,-23l12,-32l36,-34l39,16l37,44l79,3l35,-32l7,-36l-17,-69l-7,-69l12,-45l27,-60l43,-43l40,-27l20,-33l7,-23l38,-34l23,36l-20,29l-32,29l18,18l30,-22l76,-13l67,12l40,-28l51,-59l-28,-76l-31,-63l29,-15l69,28l52,-43l-60,-114l-23,-37l30,-17l58,-9l55,5l42,-23l41,-48l40,32l36,43l44,-23l50,-72l22,-82l43,-39l62,-24l40,-18l67,-4l25,28l13,30l45,15l63,-41l30,-46l26,-53l14,-103l27,-57l-4,-71l11,-86l15,-71l-12,-83l-11,-45l2,-49l39,-46l32,-54l40,-61l27,-118l5,-30l16,-14l12,-21l49,-37l83,-31l34,24l10,44l13,42l69,5l16,-77l-47,-67l23,-75l35,54l39,42l74,22l51,33l27,-56l72,-8l-17,43l-46,52l5,33l113,-22l29,-15l47,-33l82,-35l63,10l55,39l19,51l-17,57l14,44l74,-15l25,-57l4,-82l18,-60l72,-14l28,36l8,54l-21,25l-20,49l61,38l39,-5l35,-51l75,-14l60,9l2,25l-41,54l45,-1l50,-36l55,26l60,17l64,10l43,19l-13,33l51,8l54,29l-9,50l-11,27l24,5l38,-56l34,-37l58,25l70,14l46,2l-2,-47l56,-8l47,-41l72,-40l56,22l-15,57l23,40l82,-27l79,-60l62,9l-3,54l-26,42l-5,51l30,32l42,-25l1,-65l30,-57l79,-3l14,23l20,48l51,29l81,-14l58,25l14,44l-17,26l16,30l76,20l36,-55l-31,-60l-24,-53l-3,-45l23,-41l42,-46l47,-26l45,-2l35,15l33,17l28,-15l40,-32l23,-14l43,-11l77,-25l24,-51l32,-15h39l41,-10l72,-71l7,-9l55,-44l51,-3l29,-4l49,7l34,15l28,-10l101,-64l41,3l42,-8l9,-10l41,12l57,26l50,18l123,22l80,11l52,10l55,31l56,27l53,17l37,2l45,-20l25,18l-16,34l-8,23l-1,39l36,41l64,26l52,18l54,4l54,-11l46,-6l46,1l45,-1l45,2l50,-7l53,4l38,10l45,18l21,26l2,42l4,35l31,25l77,20l152,-9l46,5l27,9l22,13l29,36l1,40l-18,41l-26,38l1,43l27,31l63,11l44,-23l36,-28l13,-51l11,-31l-3,-71l6,-39l52,-35l52,-5l29,18l26,30l29,18l45,20l70,12h70l51,-27l13,-21l4,-33l-21,-56l-2,-28l23,-32l43,-10l32,-41l5,-39l94,-44l24,-8l64,16l27,17l47,15l36,-16l58,-63l42,-31l27,7l29,35l34,17l25,28l-5,58l-45,50l37,90l36,-9l-20,-55l44,-4l68,41l109,-45l37,-20l18,-26l17,-76l62,-47l27,34l-14,54l-17,41l33,57l56,10l9,-12l-2,-41l-28,-71l10,-42l57,17l19,39l60,35l57,-16l78,-68l63,-34l53,32l-8,35l-26,46l9,46l84,97l5,24l-12,38l-21,41l31,36l69,1l53,-31l33,-27l34,-16l47,-5l50,-7l25,-14l2,-57l30,-41l63,5l47,15l28,6l54,16l27,18l30,49l-1,39l-37,1l-82,17l-35,-1l-14,28l14,38l40,41l59,-4l112,-48l44,-6l49,22l57,8l28,-20l49,-30l57,-24h45l26,-9l19,-11l42,-34l-13,-34l-18,-11l-19,-4l-15,6l-21,33l-16,14l-12,-1l-32,-13l-42,-27l-19,-24l-4,-15l2,-27l15,-55l9,-23l35,-18l30,-19l18,-24l8,-31l-10,-27l-22,-7l-13,21l-17,37l-48,19l-37,-49l1,-28l29,-79l24,-86l14,-28l51,-14l49,6l41,18l45,12l4,59l6,35l71,-15l68,32l47,1l49,-37l45,-83l70,-30l66,30l41,37l64,45l109,-2l43,-25l22,-33l-25,-16l-11,-7l-47,-80l22,-81l18,-38l119,-159l64,-46l83,-45l71,-80l35,-90l38,-66l46,-39l63,-9l76,-21l72,-50l91,-22l39,39l61,6l64,-24l95,-74l40,-67l50,-117l83,-11l109,8l45,-8l65,-34l58,-15l36,-38l4,-76l-13,-71l19,-44l64,-23l79,-8l38,6l31,12l87,2l45,-11l113,-52l63,-21l82,7l0,35l-7,22l-23,-6l-24,6l-1,31l-22,-9l2,29l32,-4l-7,22l10,14l-6,30l20,4l23,-5l-1,44l24,-6l38,5l18,16l20,-6l11,20l-5,29l2,31l-22,6l-10,19l14,32l30,-7l-19,36l61,9l16,32l13,11l-11,19l-1,24l22,7l32,48l-11,17l14,26l-26,-2l-4,16l21,14l10,31l-8,7l8,31l13,8l17,2l16,21l4,14l16,22l30,-1l21,15l16,46l31,-10l-11,21l14,31l33,-32l16,45l2,21l34,13l30,5l6,17l17,-10l21,13l7,20l72,63l27,-11l0,-21l16,-5l11,23l18,22l-5,12l-18,12l5,14l-19,12l6,19l18,-2l-1,14l21,28l42,19l-23,12l14,11l-5,24h26l0,28l28,-14l20,31l33,9l33,-2l69,4l26,26l15,-8l2,-17l45,-3l2,-16l46,-20l34,21l19,4l25,-14l37,24l11,41l29,11l31,-22l40,10l52,29l5,14l24,1l24,12l10,18l10,-6l26,24l39,19l27,7l-14,18l4,13l22,21l64,-2l14,12l-1,16l21,43l-18,20l19,5l9,23l82,-8l27,11l11,25l-12,14l18,21l11,25l-14,40l0,56l58,46l29,-3l27,11l22,20l39,25l12,23l21,23l58,23l18,17l21,11l20,-1l9,-11h27l17,17l44,15l31,23l13,-6l21,-2l13,-19l27,39l100,9l20,14l14,16l40,-15l38,-7l14,-22l52,7l21,13l22,1l35,16l27,2l20,15l67,-3l16,64l47,35l5,25l12,21l28,21l27,15l8,31l14,1l48,54l30,-7l39,7l21,-12l25,21l4,15l-8,10l5,20l44,18l36,4l13,-17l27,11l20,49l19,6l-11,15l2,26l17,8l16,22l-25,9l12,65l29,42l-16,21l12,11l11,20l0,28l11,13l-29,6l18,53l29,16l-1,16l33,-2l-11,27l24,7l-23,31l15,11l-21,16l-19,60l-22,27l3,32l-8,12l4,24l-6,26l21,29l-20,27l-1,42l35,12l-15,25l10,28l30,18l23,-6l5,39l-2,17l24,33l-16,4l-2,30l-8,11l9,19l0,15l-9,23l14,12l-1,21l22,14l24,28l-19,14l15,39l-4,34l-40,34l-34,44l19,58l7,18l27,25l32,6l-5,40l39,11l-14,42l10,34l-30,11l18,34l24,-20l27,12l41,27l22,29l-3,69l5,35l-7,39l5,44l62,16l66,-9l25,33l12,26l-4,55l11,24l14,5l44,16l21,11l11,20l8,28l-13,74l-17,42l-20,34l15,20l-2,32l36,4l5,6l-10,24l19,68l27,22l7,26l20,6l28,30l0,21l14,15l1,13l11,12l6,18l-8,11l11,11l36,21l4,47l-15,25l12,10l-1,25l25,45l-5,16l24,43h17l25,30l34,-18l4,19l15,1l4,23l26,10l20,15l35,45l24,12l-23,16l25,13l14,-2l20,24h12l25,48l14,37l19,20l17,-4l26,45l-16,8l-22,45l-54,30l-29,11l10,19l12,1l15,16l8,52l-22,17l-5,31l-22,21l14,43l17,-3l8,32l-9,27l-13,2l-13,25l-18,11l32,36l-10,20l-22,19l-19,-2l-3,13l12,17l9,25l-19,16l8,13l-9,11l8,22l-7,24l14,42l46,28l52,8l56,-3l-12,13l21,22l26,20l2,20l32,30l34,17l11,13l-2,39l30,35l20,12l17,6l14,-5l7,20l-2,32l22,45l26,24l9,34l8,11l36,19l86,27l44,4l15,12l30,46l16,-6l33,13l21,54l-24,30l6,70l13,45l37,34l41,33l6,9l7,39l32,75l70,56l23,4l21,69l7,41l60,35l55,-20l53,2l51,-12l33,10l75,9l60,46l108,-61l18,36l31,20l28,2l12,27l81,18l11,17l45,-14l14,110l19,42l21,32l12,35l31,60l20,62l4,60l36,61l38,24l96,86l40,64l28,67l22,82l-1,72l-28,152l-8,61l92,159l13,24l3,13l-8,17l1,28l9,33l18,33l28,57l16,55l1,30l-8,46l-16,49l-4,28l-2,55l11,23l22,9l35,-6l25,4l5,7l-3,22l-16,33l-16,13l-22,29l-12,30l-13,61l7,45l13,23l25,16l-1,16l-31,29l-29,36l-9,18l-20,64l-34,82l-3,13l5,25l54,102l12,14l58,34l5,26l28,30l29,52l3,13l-4,45l-6,5l-54,-3l-23,20l-14,31l-1,77l-2,23l-10,32l1,31l9,40l11,27l16,19l18,14l18,33l25,10l72,3l43,14l4,6l0,38l-19,42l-4,21l3,27l20,64l13,18l34,21l22,30l60,65l7,16l5,41l9,20l15,20l109,55l11,10l18,36h13l21,-8l9,2l22,18l11,20l12,13l29,9l-6,14l-25,6l-9,17l1,15l16,37l24,19l58,15h51l36,-6l38,-1l34,-6l21,-24l9,-23l1,-36l11,-61l20,-30l27,-4l36,27l60,13l25,13l67,22l20,12l42,19l12,13l21,34l23,17l43,57l30,21l29,32l25,23l10,14l16,35l29,37l24,17l39,48l8,17l17,51l16,31l15,22l21,23l37,21l28,19l18,18l21,46l26,20l8,13l-3,44l2,20l5,11l16,15l9,16l5,21l-7,20l-18,15l-6,12l-1,35l-9,15l-13,52l-8,57l7,15l53,14l25,23l44,25l9,9l21,30l15,4l32,2l13,6l23,17l16,20l7,14l14,13l31,11l17,12l26,13l31,4l46,13l79,65l38,49l28,78l-22,127l16,21l15,39l-24,31l-6,36l10,92l74,116l24,70l2,48l29,33l17,27l15,5l26,44l50,6l0,25l8,18l-22,41l9,28l54,23l23,19l5,14l22,23l14,5l20,17l9,18l-3,27l4,19l22,32l2,16l36,24l18,30l27,28l11,34l64,25h21l50,18l50,5l-1124,959l-34,-5l-21,1l-17,89l4,38l-5,14l-43,26l-14,27l-19,22l8,34l-4,53l-53,101l-13,38l-7,62l-22,86l12,51l70,64l24,41l6,46l-12,15l-4,50l13,137l-5,166l6,50l-8,36l8,37l-15,43l-91,115l-21,22l-105,45l-8,9l-39,74l-4,52l-12,27l-30,18l-61,26l-38,28l-42,40l-8,15l-46,2l-18,65l-33,26l-14,-5l-37,6l-8,34l13,26l-24,31l-18,11l-13,54l1,27l-27,56l-98,30l0,13l33,44l2,39l12,48l44,17l33,49l4,13l-6,46l-9,13l-16,9l-9,26l-21,2l-14,34l-11,-18h-9l-23,24l-12,23l42,30l50,-7l14,45l-14,5l9,13l-11,32l-21,18l-2,14h-14l7,16l16,18l6,30l-20,9l-5,20l-11,-2l-12,18l-18,5l-21,-2l-21,9l-34,23l-14,18l16,25h9l18,23l-13,17l6,13l-4,28l4,14l16,2l14,14l2,28l-2,21l-18,-2l-10,4l7,21l-21,17l9,23h-34l9,49l-14,9h-11l34,99l18,-9l-11,39l4,18l-16,27l-18,-2l-17,21l-20,-3l-9,16l-32,-4l-10,18l-11,7l2,22l-25,-4l0,20l-38,36l-33,47h-20l-32,17l-30,-10h-14l-15,-7l-6,-17l-12,-6l-49,-5l-7,20l-20,-9l-5,16l-20,-2l0,-19l-15,-1l-20,-17l-4,15l-12,6l-10,15l-17,-15l-11,14l4,21l-13,4l-14,-12l-10,13l-8,-10h-15l-5,-12l-22,-24l-22,13l-11,-20l-23,10h-24l11,17l-44,17l-21,-15l1,22l-28,8l-10,14l-17,-2l-12,28l-14,8l-34,8l-5,13l-10,6l-32,-8l-2,23l19,33l-11,29l-37,42l12,24l-69,25l29,12l26,26l-1,16l-24,19l-9,19l-29,-12l-23,-29l-26,15l-5,13l7,31l15,15l-14,14l-18,7l-13,-15l9,-23l-32,-19l3,40l15,29l5,27l-12,15l-24,3l-14,18l0,28l10,29l-32,45l-25,-13l-40,-32l-12,3l3,25l11,17l45,17l8,24l28,13l-8,68l-10,19l-23,21l17,6l35,-1l25,5l-1,21l-43,9l-15,6l14,40l6,37l10,20l-3,10l-36,-3l-22,13l39,49l41,-29l9,11l-11,45l-18,10l-50,10l-20,-5l-28,7l11,21l45,10l3,11l-6,23h-18l-9,7l4,34l42,6l2,13l-15,18l-19,6l-14,-3l-17,-14l-16,-7l-2,20l5,28l45,4l14,29l-41,24l7,44l8,20l-20,16l-27,-13l-10,4l-11,37l22,14l-7,36h9l26,53l-38,7l7,36l-26,56l4,29l-26,29l-4,27l-10,13l42,70l-40,34l-16,36l-10,-7l-26,39l26,17l29,37l0,19l-11,18l-14,9l10,38l-1,22l6,18l-10,36l7,17l-13,16l-22,9l-14,41l37,20l5,18l-12,40l4,26l15,29h18l0,27l7,21l-9,6l1,12l12,11l-9,39l10,11l-12,16l-23,-6l-8,13l4,25l11,11l-6,47l4,25l18,-4l41,8l0,53l-26,18l9,12l-1,20l13,21l5,22l-17,7l-3,16l7,18l19,16l-1,18l-23,4l-19,11l31,29l23,9l-14,36l0,29l-14,34l5,21l-19,1l17,48l18,31l-26,9l-5,25l-12,6l8,40l24,19l8,31l49,-3l116,-31l-11,31l-61,54l5,11l26,7l46,-27l16,5l6,17l-7,16l-17,13l-32,11l-20,13l-2,19l11,10l11,-19l45,3l56,14l-5,16l-23,-5l-6,14l-36,28l6,21l28,58l27,-28l0,-34l14,2l14,13l27,7l39,26l-8,13l-2,21l27,-1l65,38l12,20l19,10h26l36,25l37,16l0,11l9,21l45,84l-6,20l35,22l77,97l54,39l47,11l34,37l13,22l-10,20l-40,2l-11,39l15,26l1,38l27,-9l9,-22l32,14l46,-21l18,10l8,20l2,27l14,27l55,10l22,11l19,26l19,15l17,37l24,12l29,27l32,21l85,34l21,43l22,101l21,16l7,61l21,80l27,7h83l71,32l57,-11l23,29l35,5l18,7l28,95l25,-2l21,-18l30,11l85,82l7,16l-25,11l26,65l6,28l16,16l23,39l-23,38l16,34l14,93l0,55l-55,142l11,9l19,52l-21,34l66,59l0,50l7,30l-32,115l-18,38l-30,30l0,31l-19,57l-7,9h-27l-42,22l-20,7l-133,31l-19,13l-76,84l9,18l3,36l-5,58l-16,61l-35,34l-46,76l18,36l-16,63l4,36l-30,20l-23,54l-65,60l-23,60l-8,89l11,27l-23,49l-4,18l24,16l-11,38l20,60l41,5l11,47h34l46,7l34,48l5,40l-19,22l-39,15l4,25l-18,27l-56,15l-36,-9l-12,43l-34,11l-26,31l0,40l-18,18l4,41l-16,20l-53,22l-19,56l28,32l101,12l-8,38l-41,25l7,27l44,-14l48,-4l2,38l16,48l-3,50l16,38l-71,61l-30,18l-43,-91l-41,-16l-57,9l-35,17l-30,-9l-56,10l-9,31l-17,31l-19,-26l15,-48l-33,-54l-35,-15l-33,-1l-20,13l-38,16l-4,22l-15,35l-35,47l-52,-27l-15,-42l-33,5l-23,-6l-37,-17l-26,8l-62,-5l-45,3l3,45l-39,63l-17,43l-30,54l-49,33l-43,49l-16,-1l-27,-11l-14,-25l22,-65l-17,-19l-68,-19l-37,3l-50,13l-41,53l-37,14l-25,-27l-52,-17l-33,17l-35,27l-34,16l-57,-5l-37,-12l-25,-31l-37,16l2,34l-20,14l-45,-16l-68,52l-24,-6l-57,-29l-39,-4l-51,8l-12,-5l-80,-51l-34,-37l14,-35l-39,-25l-35,18l-40,-18l-44,6l-38,17l-34,50l-169,14l-34,23l-32,39l-48,43l-23,-20h-76l-28,18l-78,4l-58,10l-21,-14l-37,-36l-98,72l28,119l-17,35l-7,47l4,37l-24,37l-39,-15h-51l-14,29l-47,27l-37,27l-80,-68l-38,-10l-45,-1l-27,-24l-17,-35l-37,-41l-21,-30l-34,-32l-34,-16l-29,10l-27,30l-50,42l-33,7l-3,-22l27,-38l40,-26l-16,-90l-23,-43l-10,-33l23,-29l4,-28l-15,-30l-23,-11l-20,7l-33,30l-24,15l-34,6l-36,25h-40l-36,17l-29,49l-48,6l-24,-6l-33,-21l-24,3l-55,21l-6,20l-42,66l5,48l-9,17l-24,11l-16,20l-33,62l-42,-18l-61,37l-5,32l1,53l27,79l6,43l-26,33l-41,26l-115,34l-28,-1l-32,-42l-23,-5l-86,1l-7,30l35,114l17,19l37,21l5,71l-38,-1l-12,11l-21,46l-52,26l-10,71l1,54l-14,27l-76,34l-311,-1l-3040,9l-352,1l-463,2l-710,2l-529,2l0,-38l-810,9l-216,2l-2688,29l-570,7l-548,6l-665,8l-4,51l13,19l26,15l32,4l29,13h21l74,-31h11l15,47l2,56l19,39l-3,24l-11,30l3,22l18,22l45,26l18,27l-4,21l-25,36l-9,37l17,43l-2,42l15,41l1,35l-7,29l4,19l58,78l4,42l-5,10l-43,-8l-20,2l-26,15l-7,21l44,47l9,42l-2,25l-13,17l-49,32l-14,14l1,11l27,17l12,40l-5,90l-11,51l-6,90l13,38l8,62l7,20l18,19l44,14l39,18l22,19l11,24l-1,22l-17,49l-16,36l-2,15l17,42l49,54l25,42l-12,30l-15,62l-13,24l-37,20l2,11l42,29l13,14l7,19l-6,27l46,4l29,23l23,-4l22,-20l-1,-36l12,-39l4,-39l15,-21l14,-11l29,-15l45,2l61,17l16,12l-16,58l-42,40l-7,21l6,49l23,19l0,44l7,25l3,41l-2,12l-10,18l-28,26l-11,20l-6,65l11,56l1,39l-12,20l-40,13l-20,25l-3,19l13,77l7,16l11,9l60,17l29,21l40,75l-16,11l-38,-14l-32,5l-12,14l-21,39l-15,15l-44,10l-41,17l-45,54l-6,13l1,34l6,23l1,45l6,21l20,23l14,64l40,44l13,1l29,-9l19,2l20,18l8,29l12,97l-2,18l-12,20l-5,23l6,20l27,48l4,21l-3,14l-27,29l-53,74l-26,16l0,13l24,20l22,39l35,43l35,64l5,26l13,29l-2,10l-16,12l-35,87l1,12l35,36l4,23l-20,45l-15,87l10,73l13,31l29,42l57,54l11,43l7,58l20,52l-6,8l-37,27l-34,39l-40,22l-11,17l-1,45l-18,90l9,51l-1,54l12,53l-17,50l-1,79l40,54l33,73l3,26l-6,35l12,42l24,33l-5,8l-45,20l-3,25l-6,14l24,11l66,51l8,28l2,23l19,60l-19,22l19,70l1,25l17,32l6,26l-13,21l-13,12l-28,13l-22,2l-42,-29l-26,-4l-19,33l12,45l49,43l5,12l-38,10l-13,9l-32,5l-43,25l-12,17l-9,33l-14,26l-20,23l-61,1l-14,6l-4,16l4,33l-19,19l-35,53l-6,16l-1,50l6,32l-3,47l12,92l-28,11l-33,2l-41,21l-13,18l-16,118l-22,34l-25,20l-20,6l-86,-25l-36,14l-39,41l-33,76l-72,38l-10,21l2,26l-39,35l-5,12l11,10l21,8l39,9l21,20l0,13l-13,25l-41,50l-21,33l-7,24l1,36l-24,46l-76,76l-21,24l-52,82l-24,22l-48,106l-2,23l14,53l-3,22l-9,21l-12,14l16,68l-13,19l40,73l3,56l-7,47l10,16l13,-2l43,24l17,22l29,7l31,-4l33,22l41,11l6,16l-20,16l-61,31l-6,20l1,18l25,70l-2,33l-7,25l-19,31l-19,15l-99,31l-30,27l-11,16l-21,13h-76l-22,10l-49,-6l-35,4l-18,15l-30,43l-3,22l7,43l16,18l23,12l18,29l-1,76l31,64l23,87l-18,43l9,60l24,71l54,84l0,18l-12,21l-3,16l17,77l12,16l32,17l3,33l-15,67l-13,11l-19,33l-6,19l-12,13l5,20l25,26l12,5l16,28l29,34l20,15l25,23l48,24l76,27l20,11l14,13l19,36l21,63l42,59l22,44l2,42l-7,15l6,18l38,26l14,85l1,7l-16,19l1,20l30,2l19,9l42,27l13,19l25,110l7,85l-3,18l-16,14l-42,11l-24,1l-24,11l-5,8l21,21l15,25l34,69l24,19l50,11l17,11l5,18l-9,54l-9,19l-41,33l-1,12l10,28l16,14l14,6l17,21l-25,93l-5,39l11,82l15,22l51,46l73,42l19,40l8,28l-3,39l-16,59l4,33l16,31l5,26l-1,89l-19,35l-29,41l-4,28l-24,73l-10,52l5,49l-3,54l-19,49l-15,15l-47,2l-38,-11l-31,8l-10,31l14,31l31,35l25,43l7,55l-3,64l-14,14l-19,6l-83,-1l-19,4l-32,43l-10,5l-36,-3l-12,14l12,27l32,35l9,17l27,88l68,128l3,31l-10,67l0,22l22,50l-4,11l-32,4l-47,14l-106,56l-29,9l-23,25l-36,7l-58,-14l-22,4l-20,20l-28,17l-14,17l-15,34l-1,28l23,8l45,26l40,13l15,16l29,19l63,24h12l18,-8l16,-27l17,-40l7,-7l31,4l106,32l28,17l25,26l27,54l25,32l22,19l74,26l35,4l35,26l32,86l-5,47l-16,107l-24,35l-3,19l81,24l9,6l29,-9l9,5l22,33l12,29l24,32l4,18l17,35l15,16l30,20l7,11l-2,38l7,20l23,18l12,25l-1,36l-15,20l-24,9l-14,-1l-22,-21l-29,-9l-46,3l-36,14l-12,7l-36,40l-25,48l-7,27l10,19l16,15l11,62l7,6l11,30l33,145l1,24l-4,37l-13,44l-25,21l-13,2l-11,-13l-18,4l-15,51l-16,12l-22,4l-19,12l0,21l11,111l-6,35l19,79l-11,18l-35,-18l-15,13l7,107l-10,1l-26,-14l-45,-14l-17,-15l-17,-7l-22,1l-46,34l-45,55l-85,42l-26,19l-23,31l-2,10l7,17l17,13l19,8l38,7l80,47l52,9l23,6l5,7l-8,17l-69,18l-32,20l-20,1l-42,36l-23,16l-48,25l-21,2l-20,-7l-64,37l-23,5l-40,43l-24,46l-7,7l-39,18l-33,-1l-16,29l1,21l49,40l11,19l-7,22l-8,6l-63,1l-13,4l-1,12l75,75l31,67l64,65l24,14l56,14l9,44l-1,94l12,15l41,26l1,30l-72,87l-26,25l-12,29l1,32l17,43l15,13l50,27l7,8l-8,18l-56,10l-44,73l-62,49l-43,26l-56,23l-37,2l-115,-5l-42,12l-96,40l-17,10l-12,26l-1,33l-22,8l-12,-5l-65,-48l-26,-15l-20,-4l-12,40l-8,74l6,59l14,56l11,37l11,19l61,57l14,20l29,53l20,58l-2,22l-25,31l-14,42l27,116l-1,47l9,68l-1,24l-21,21l-13,-1l-99,-54l-21,6l-12,18l-22,18l-20,34l-6,22l2,63l7,37l26,50l16,22l28,7l70,4l21,4l42,-6l35,6l61,-10l30,6l26,16l17,18l62,89l44,32l77,30l29,5l57,-1l36,-10l67,-35l61,-23l71,-5l58,4l18,-10l46,-39l34,2l31,29l13,29l-4,28l-20,39l-8,50l7,47l32,78l20,63l17,121l9,30l0,21l-7,34l-22,35l-11,93l-7,11l-76,69l-9,18l-16,76l-51,96l-37,50l-68,71l-17,24l-37,60l-6,34l-12,28l-3,26l-14,51l0,45l4,20l16,23l5,19l6,62l0,83l11,34l25,34l28,45l18,63l15,95l32,60l13,53l13,25l32,45l54,33l10,17l8,26l13,152l6,48l11,29l21,25l22,39l8,31l6,48l22,60l41,42l12,19l15,47l2,52l9,40l8,8l46,92l23,34l18,35l22,28l17,52l47,88l35,52l43,35l24,26l30,15l30,25l76,71l7,27l-18,23l-20,14l-45,23l-36,30l-23,8l-19,17l-25,42l-20,87l-30,82l-57,68l-28,24l-9,-2l-12,16l-25,21l-48,71l-15,14l-10,30l2,53l-21,63l2,20l-5,35l7,19l3,46l-13,25l-30,31l-25,38l-3,60l-28,30l-25,18l-11,-1l-60,-33l-39,4l-22,-1l-38,8l-19,24l-19,8l-63,64l-44,21l-56,7l-23,18l-11,26l-18,12l-30,2l-29,-14l-58,-4l-18,12l-12,28l-70,42l-159,-2l-26,75l-46,72l-65,126l-36,91l-63,53l8,80l23,161l-41,69l-73,22l-82,-9l-43,71l-77,28l-74,39l-81,19l-160,-37l-79,-9l-79,21l-36,75l-43,121l-127,-57l-79,3l-80,-19l-25,-74l43,-73l-43,-75l-45,-64l-71,-35l-76,-15l15,-84l-51,-70l-74,-40h-78l-76,30l-162,-26l-88,54l-63,52l-68,46l-84,-1l-47,-67l-29,-80l-7,-78l8,-88l7,-154l-49,-62l-75,-34l-17,-77l-36,-69l18,-74l23,-72l-57,-53l-11,-80l8,-76l32,-139l-133,-49l-63,-45l-237,-5l-29,-116l-81,-28l-89,-1l-72,-31l-80,-9l-78,31l-82,21l-85,8l-88,-2l-77,24l-61,-54l-50,59l-6,76l-21,80l-15,82l-26,82l-70,106l-89,10l-84,55l-28,73l-24,93l-46,73l-97,24l-97,10l-84,-3l-77,-15l-77,-5l-89,-40l-68,-46l-80,-17l-90,34l-95,15l-85,23l-44,70l-33,79l-77,160l-33,81l-113,231l-20,74l37,72l45,67l-54,79l-62,43l-74,29l-40,81l25,86l42,71l-47,77l-50,68l-66,70l-69,40l-65,45l-57,51l47,75l87,-5l105,4l19,87l-90,292l-47,84l-69,-39l-78,-4l-74,28l-101,12l-80,3l-61,61l-81,38l-78,1l-183,48l56,-87l20,-10l11,-23l24,-15l30,-27l28,-8l12,9l39,-7l13,-11l13,-48l13,-18l18,-43l2,-35l-16,-43l40,-76l1,-20l-25,-27l-26,-38l-2,-24l13,-40l18,-29l-7,-63l-13,-34l-21,-30l-2,-11l22,-31l34,-33l23,-55l-3,-21l-11,-12l-1,-20l-26,-14l4,-17l-10,-13l-11,-2l-7,-34l-17,-11l-3,-24l15,-35l2,-26l-7,-25l-13,-10l-59,6l-21,-13l-42,-1l-75,-40l-16,-16l-20,-5l-29,-40l-24,-12l-29,-5l-122,25l-28,-3l-79,-33l-24,-6l-95,-2l-66,-9l-81,-30l-39,-10l-23,4l-46,16l-56,44l-17,28l-7,49l20,82l-15,81l-28,23l-79,20l-25,-1l-50,12l-26,12l-12,-6l-5,-18l32,-34l3,-18l23,-43l-11,-12l-18,11l-6,-30l-17,-10l-1,-23l4,-13l20,-8l-8,-55l21,-33l6,-20l-28,-2l-11,-18l-1,-32l-7,-10l-44,-20l-13,-15l-5,-16l7,-18l40,-23l-9,-10l-24,-6l-5,-20l-16,-8l-33,-50l21,-3l36,8l12,-3l-29,-39l40,-33l29,-18l3,-9l-10,-14l-19,-4l-14,-9l18,-29h10l11,-19l-4,-42l4,-13l10,-8l52,-13l21,1l14,-5l23,-34l22,21l9,2l58,-16l21,-15l3,-10l-16,-9l9,-38l19,-13l26,-6l-6,-16l-18,-18l14,-88l-10,-63l-11,-20l22,-18l1,-8l18,-16l-2,-15l22,16l30,-10l13,-22l30,-32l14,-7l19,-23l47,-16l44,4l17,-11l2,-18l36,-3l-11,-19l15,-4l-4,-28l3,-14l26,-6l10,-27l29,-41l20,-9l20,-24l32,-10l-7,-63l17,-5l12,4l52,2l5,-17l-1,-17l-29,-48l-6,-25l8,-53l10,-19l-7,-21l-15,-13l-15,-38l-12,-16l-39,-9l-25,-35l-18,-9l-35,2l-14,-11l1,-14l-37,-40l-9,-31l-9,-12l-23,-2l-24,-9l-31,2l-26,-22l9,-12l-24,-21l-5,-26l-46,-4l-17,-10l-2,-20l13,-26l27,-32l-5,-37l-8,-9l15,-25l4,-32l7,-22l-5,-22l2,-17l-8,-11l-38,-9l-4,-16l-40,-58l-21,-40l-28,-34l-13,-8l-10,-46l0,-52l8,-14l39,-29l25,-4l55,-37l31,-16l52,-15l-11,-23l0,-12l10,-28l-5,-34l-8,-22l4,-18l-9,-35l-17,-20l3,-15l-23,-29l6,-52l-10,-45l-17,-23l-21,-14l-16,-24l-19,-17l-40,-14l-65,-35l-17,-19l-2,-27l11,-57l-6,-19l2,-39l7,-8l20,-8l-5,-20l4,-10l27,4l13,-14l4,-49l9,-15l35,-11l11,-28l28,-129l7,-102l12,-19l33,-29l6,-28l-48,-30l-48,-119l-2,-35l4,-30l28,-68l8,-89l14,-35l16,-23l14,-63l15,-104l-1,-176l0,-241l-6,-45l-26,-88l-14,-95l-4,-100l5,-85l-3,-32l-18,-81l-9,-58l-4,-39l9,-55l18,-48l-5,-44l5,-15l24,-28l25,-123l6,-56l-3,-64l13,-31l35,-47l11,-57l7,-61l53,-120l6,-66l3,-7l68,-52l10,-14l-1,-45l-10,-26l-36,-22l-38,-33l-90,-124l-13,-39l6,-48l-8,-27l-35,-31l-28,-41l-15,-15l-13,-5l-46,15l-36,-8l-53,-27l-52,43l-54,2l-23,-8l-33,-32l-28,-86l-25,-21l-20,-33l-6,-54l0,-39l-22,-4l-19,13l-37,39l-42,16l-22,-1l-8,-4l-14,-27l-3,-20l0,-77l16,-72l26,-41l-23,-44l-26,-20l-21,-10l-61,-43l-17,-23l-76,-74l-18,-26l-20,-51l-4,-46l5,-50l-13,-114l-10,-56l-9,-17l-16,-96l-46,-117l2,-21l7,-11l23,-13l14,-24l-3,-12l-51,-42l-16,-44l-17,-15l-16,-24l2,-12l18,-9l69,-11l8,-19l0,-20l-33,-51l-67,-63l-11,-17l7,-24l43,-42l5,-14l2,-40l-679,-4l-1097,-2l-455,-1l-1088,-3l-2462,-3l-762,13l-13,170l-215,272l-26,19l0,17l14,34l-3,211l-244,21l-1986,173l-26,2l7,46l-811,66l-739,60l-162,13l-2393,180l-200,15l-3,-1l64,-13l29,-22l-4,-15l-29,-16l-29,-65l3,-20l55,28l16,-3l27,-32l73,-34l18,-26l-55,-6l-25,-18l-31,-39l10,-7l23,-6l14,-17l0,-12l17,-24l14,-10l20,-6l-1,-15l-15,-49l5,-55l9,-19l21,-24h18l31,9l48,37l21,-5l20,-21l64,-20l23,-10l9,-12l-11,-6l-6,-16l11,-35l18,-20l23,4l15,14l11,21l-25,102l11,33l25,33l12,26l24,13l33,-7l16,-21l29,-15l12,3l25,34l6,16l1,48l10,18l1,20l-5,27l8,19l40,3l15,6l19,27l16,12l8,-8l-28,-56l5,-24l46,-11l28,-24l42,-23h11l20,18l6,-8l-17,-27l-16,-4l-20,3l-11,-18l-20,-10l-23,-51l9,-27l22,-15l61,9h48l11,11l0,17l-8,22l0,26l14,-9l21,-27l16,1l45,15l10,21l27,22l52,-38l9,1l2,33l-38,98l10,12l12,-3l19,-18l21,-38l38,-57l30,-28l26,-17l22,-1l22,10l29,-12l7,6l2,17l-4,25l-11,18l-17,2l-14,-10l-2,22l5,23l9,29l26,21l69,36l24,1l9,-29l35,-26h47l29,12l20,-28l12,5l2,14l-9,44l14,43l66,40l64,4l8,-22l-6,-62l8,-16l18,-16l39,-23l7,-34l-16,-62l-20,-29l-26,-11l-20,-19l12,-41l9,-7l17,5l22,34l4,19l7,8l37,8l74,47l21,1l29,-6l21,-15l31,-35l2,-43l-13,-14l-24,-6l-14,13l-30,-15l-33,-8l8,-31l43,-4l7,-23l-10,-30l-1,-23l65,-86l10,-19l-33,-26l-23,-28l7,-24l32,10l25,-7l0,-82l-14,-23l-4,-43l-28,-11l-29,10l-46,-3l-25,-23l-3,-30l25,-3l20,-14l22,-33l14,1l30,-18l20,4l18,-6l16,-21l39,-18l2,-14l-11,-11l-16,-1l-3,-20l-8,-13l-19,-10l-45,2l-8,-18l-31,-28l-2,-31l15,-28l-1,-12l-25,-38l1,-14l38,-29l19,-8l64,-6l9,-17l-16,-21l4,-14l25,-10l4,-8l-23,-44l0,-17l23,-39l-11,-8l-24,-5l-51,-24l-10,3l7,53l-7,26l-10,12l-17,4l-7,-7l8,-70l-2,-67l-8,-16l-47,-21l-5,-21l6,-26l7,-10l28,-15l-4,-18l-10,-11l-11,8l-3,15l-17,6l-38,-27l-3,-44l-21,-19l-32,-9l-88,-13l-27,-10l-11,-9l10,-29l-7,-16l-33,-28l-7,-14l8,-42l-34,-28l-30,-17l-31,-31l-31,-4l-27,4l-20,-39l11,-27l-20,-21l-40,-30l-2,-14l5,-14l23,-19l1,-15l-21,-23l-29,-3l-30,4l-16,-4l-12,-9l-30,4l-5,-18l11,-15l31,-11l15,-21l11,-35l17,-25l4,-29l-13,-8l-30,4l-37,23l-13,-6l3,-16l13,-10l3,-16l-13,-6l5,-13l-5,-13l9,-43l9,-13l14,-4l26,12h15l-1,-15l-78,-79l-15,-41l-28,-38l-15,-5l-31,2l-18,-10l-46,-6l-6,-14l18,-23l0,-16l-18,-26l-2,-15l20,-40l2,-46l-20,-41l-13,-15l-14,-29l-13,-16l-28,-11l-17,-29l-30,-11l-7,-12l-3,-33l7,-34l1,-28l-5,-17l-9,-12l-15,-6l-29,13l-15,2l-14,-9l-5,-16l7,-137l-7,-15l-23,-19l-25,-44l-26,-18l-14,-4l-8,-13l-1,-31l7,-12l58,-42l24,-21l11,-18l-7,-32l-22,-25l-18,-10l-53,-9l-21,-7l-55,-26l-8,-12l-2,-29l8,-48l-6,-45l5,-14l27,-11l33,4l31,-7l-1,-14l-43,-90l-23,-22l-27,-19l-61,-24l-13,-9l-9,-15l-3,-14l27,-54l28,-15l33,-2l13,-6l-1,-16l-42,-50l-15,-27l-9,-34l-2,-18l9,-71l-2,-13l-14,-31l0,-34l-16,-11l-17,1l-14,-4l-2,-14l21,-20l24,-43l13,-30l-11,-10l-34,-7h-19l-54,-10l-29,-15l-8,-13l-1,-14l8,-28l16,-28l4,-16l-6,-31l10,-27l6,-30l16,-24l28,-15l2,-15l-15,-8l-29,3l-43,-25l-14,-1l-43,8l-16,-23l-18,-57l-23,-44l2,-48l-30,-46l-9,-17l-8,-33l4,-17l-8,-27l6,-18l9,-11l2,-15l-13,-8l-33,1l-13,-6l-8,-13l5,-17l23,-21l19,-28l3,-28l-26,-13h-15l-27,12l-18,2l-15,-8l-7,-29l9,-32l-9,-12l-14,-4l-9,-10l2,-15l16,-18l19,-27l3,-15l-9,-16l-13,-5l-22,-23l-6,-13l-3,-29l-9,-33l-20,-31l-25,-24l-30,-10h-30l-14,-4l-9,-12l-5,-17l-34,-55l-64,-33l-25,-18l-8,-10l-4,-53l-11,-12l-25,16l-9,-11l3,-32l10,-13l14,-6l29,-3l7,-13l-33,-13l-35,-22l-5,-28h36l1652,-1l11,-22l-2,-16l24,-32l2,-20l12,-30l2,-22l18,-35l28,-12l22,-27l2,-33l17,-48l-10,-35l-20,-21l-8,-56l12,-51l-2,-43l1,-33l-32,-28l-3,-19l8,-36l-4,-9l10,-55l31,-38l-2,-58l3,-51l-8,-60l2,-38l-10,-27l-8,-33l9,-41l19,-37l23,-6l29,-37l28,-13l2,-32l-34,-62l-19,-40l-8,-58l16,-47l7,-45l-16,-38l-16,-25l-1,-35l3,-31l-14,-38l-8,-25l15,-17l16,-36l3,-38l-2,-28l-6,-28l-28,-38l4,-39l27,-36l0,-56l-1,-37l-14,-36l-49,-38l-13,-30l9,-29l21,-35l32,-21l42,9l19,-6l35,-37l26,-45l14,-49l13,-32l8,-27l31,-78l35,-31l116,-11l58,21l31,39l26,10l101,-75l42,-40l24,-26l34,-30l64,-34l72,-7l44,-19l61,-46l41,-13l44,-31l48,8l39,11l42,2l24,-24l16,-42l-15,-43l-26,-30l8,-38l4,-36l35,-87l25,-46l50,-52l-24,-71l8,-28l-8,-38l-48,6l-37,-12l-18,-42l-14,-39l-7,-42l-14,-29l56,-28l19,-54l-20,-43l-15,-13l-2,-18l41,-47l1,-41l24,-31l32,-50l8,-36l31,-21l69,7l70,-11l-2,-72l-8,-32l39,-64l0,-72l-20,-30l-45,-3l-47,-11l-27,21l-24,47l-50,-7l-105,-59l-66,6l-54,22l-45,4l-1,-25l36,-10l13,-37l-80,-67l-15,-62l-5,-45l-10,-46l-20,-24l-12,-6l-32,17l-60,14l-36,-7l-1,-41l31,-49l31,-43l26,-25l73,20l42,-55l31,-65l30,-19l-1,-40l-20,-72l-22,-42l-35,-7l-18,55l-21,21l-29,32l-50,-24l-40,26l-59,33l-53,-3l-42,-40l-32,-4l-37,1l-10,-26l11,-37l27,-26l10,-26l-15,-57l-9,-42l18,-30l6,-20l-9,-13l-18,-28l-38,-49l-29,-27l-11,-6l-10,-16l-2,-12l31,-25l3,-8l4,-53l7,-7l3,-19l-5,-41l15,-42l25,-14l-3,-11l-25,-18l-33,-3l-21,4l-57,4l-27,-9l-33,-3l-39,-13l-10,-16l3,-10l17,-17l43,-28l16,-14l17,-28l-5,-19l-22,-12l-30,-22l-39,-23l-11,-29l10,-39l32,-49l25,-24l19,-28l18,-34l1,-53l13,-52l9,-17l23,-25l61,-37l20,-6l29,9l29,-4l2,-19l-7,-20l-17,-25l-18,-10l-20,-3l-25,-35l-7,-21l19,-54l-1,-19l-23,-21l-19,-8l-21,-1l-43,9l-10,-3l0,-25l7,-21l22,-40l18,-39l0,-12l-8,-19l-21,-20l-35,-27l-22,-25l-11,-20l-19,-17l-20,-11l-33,-8l-8,-7l-2,-31l2,-21l10,-21l14,-16l-16,-22l-15,-29l-2,-18l7,-42l10,-17l20,-2l7,-7l16,-46l14,-18l0,-41l-22,-21l-11,-32l6,-28l22,-36l17,-32l19,-45l15,-44l2,-40l-17,-33l-15,-14l-38,-18l-2,-12l16,-73l0,-46l5,-11l21,-7l9,-8l1,-22l-13,-21l-15,-14l-55,-7l-31,-20l-21,-30l-17,-12l-21,-6l-10,1l-18,15l-16,19l-39,31l-18,8l-8,-5l-2,-23l8,-37l9,-17l4,-55l-5,-34l-33,-57l0,-22l15,-17l7,-48l-10,-19l-25,-21l-25,-15l15,-51l5,-53l15,-28l25,-18l27,-32l24,-20l10,-27l-1,-56l4,-21l8,-6l28,-5l29,-10l1,-17l-31,-44l-15,-14l-16,-25l-22,-49l-14,-27l-7,-25l-4,-46l0,-23l9,-40l30,-26l14,-23l5,-34l3,-70l-5,-35l0,-38l2,-90l-1,-23l13,-53l1,-23l-5,-25l-14,-23l-28,-13l-22,-16l-28,-25l-18,-13l-53,-29l-21,-5h-75l-23,5l-17,9l-27,2l-16,-14l-4,-31l5,-38l-13,-38l-6,-9l-2,-29l28,-32l2,-20l-24,-31l-19,-28l10,-40l1,-30l-3,-21l0,-35l7,-42l17,-29l14,-20l3,-15l18,-33l5,-19l0,-34l-7,-20l-20,-25l-8,-18l3,-41l3,-9l17,-6l44,19l31,2l16,-19l19,-10l11,-24l19,-19l61,-105l0,-9l-7,-50l3,-21l19,-24l21,-31l19,-35l6,-31l-6,-20l-19,-15l-28,-16l-5,-17l-19,-21l-27,-18l-24,-5l-38,-4h-28l-67,8l-27,8l-89,17l-21,-2l-40,-16l-57,-11l-8,-10l-31,-5l9,-12l12,-5l15,-13l10,-20l17,-18l14,-7l13,2l38,-31l46,-5l42,-8h78l42,-5l16,-5l26,-18l25,-33l26,-26l19,-28l10,-8l28,-5l9,-12l-2,-62l-5,-18l-24,-44l-14,-16l9,-16l1,-23l20,-34l2,-30l-33,-29l-4,-15l3,-14l18,-21l11,-40l1,-18l-22,-7l-9,-11l-8,-20l-19,-15l-20,-43l-9,-5l-22,-1l-7,-11l7,-55l-6,-17l-13,-15l1,-33l15,-16l3,-11l-5,-37l-9,-10l-21,-64l-2,-25l-6,-17l-5,-39l1,-37l-5,-36l6,-42l-12,-45l-11,-16l0,-16l-26,-55l0,-36l31,-30l26,-32l3,-29l-19,-45l11,-32l-3,-36l8,-30l45,-67l27,-66l15,-21l4,-19l3,-34l-11,-22l11,-14l-5,-24l5,-28l3,-42l-1,-51l-9,-34l6,-14l20,-14l27,-12l-2,-13l12,-3l10,-13l21,-63l18,-36l-3,-13l-14,-8h-45l-12,-2l-4,-15l-15,-18l-3,-15l-29,-53l-9,-23l5,-17l16,-20l13,-11l14,-20l-13,-13l-34,-2l-11,-12l-20,-56l3,-12l-9,-32l1,-15l18,12l26,3l11,-11l-2,-15l-12,-14l-6,-18l9,-24l18,-25l16,-36l-3,-27l-12,-37l-9,-16l9,-11l20,13l25,-14l37,5l40,-5l18,-36l11,-12l22,-10l29,-31l23,7l5,-11l-13,-8l-1,-13l36,-4l2,-14l-8,-6l8,-22l29,-9l19,-13l8,-20l25,6l8,-13l8,-33l16,-2l10,8l14,-2l14,-9l12,9l33,1l8,5l20,-16l20,-9l5,-20l-12,-30l14,-16l-1,-12l-14,-36l-17,-20l-25,-34l-2,-10l18,-25l19,-12l43,-20l12,-18l20,-9l26,-34l13,-41l12,-16l6,-21l15,-25l0,-11l11,-18l3,-30l-7,-17l10,-2l13,-18l2,-11l-3,-51l4,-21l-6,-38l25,-5l0,-9l-47,-22l-24,-18l-51,-23h-12l-19,-8l-32,5l-27,-22l-5,-19l15,-12l10,-18l2,-18l-7,-19l-17,-13l-33,-9l-13,2l-33,25l-4,-21l5,-20l-7,-6l-20,1l-8,-5l-7,-18l-14,-23l-8,-22l-14,-16l-10,-18l0,-10l36,-9l20,-48l19,-16l11,-20l-3,-9l-20,-10l-10,-15l-28,-17l-21,-4l-18,6l-34,22l-5,21l-17,15l-10,2l-15,-14l-18,-6l-40,6l-35,-8l-38,-21l-20,6l1,12l10,8l7,19l-20,7l-56,-11l-45,-20l-15,-16l-12,3l-3,10l-21,25l-18,7l-2,-11l-22,-7l-4,-33l23,-24l13,-7l20,-22l8,-21l-6,-22l-24,-37l-13,-39l2,-30l20,-28l36,-13l14,-13l11,-19l-6,-18l-24,5l-30,34l-10,2l-6,-25l5,-16l-29,-33l-12,-24l-18,-24l-7,-28l-1,-21l4,-37l11,-46l-2,-13l-19,-6l-10,-19l-12,-57l9,-44l-6,-11l-14,-3l-30,10l-21,-4l-15,-47l-11,-18l0,-11l17,-14l34,-3l48,4l10,-2l15,-39l42,-45l24,-15l36,-34l-16,-11l-46,-5l-24,-7l-19,-17l-13,-26l-5,-23l-12,-24l-33,-24l-14,-19l0,-14l17,-35l3,-12l-2,-28l-8,-5l-32,-6l-14,-16l0,-11l12,-8l26,-6l5,-8l-4,-22l-10,-10l-18,9l-33,-4l-26,3l-22,-8l3,-21l17,-18l30,2l22,-4l25,-51l6,-28l-4,-14l-20,-6l-1,-23l17,-11l35,-5l14,-8l23,-29l16,-28l5,-21l-7,-22l-18,-7l-14,-17l6,-24l13,-21l10,-21l4,-24l-2,-34l3,-26l18,-30l35,-39l10,-25l-2,-11l-15,-19l-27,-47l-17,-7l-19,9l-25,5l-42,-5l-10,7l-29,7l-13,-22l-7,-32l-8,-6l-40,2l-9,-11l-20,-4l-30,5l-30,1l-35,-11l-13,-10l-16,-48l-16,-16l-15,-29l-24,-22l-3,-22l-1,-40l-17,-3l-18,5l-18,16l-27,35l-44,121l-15,2l-10,-13l-21,-55l-38,-39l-9,-39l20,-16l-5,-42l-15,-14l-18,1l-41,39l-54,26l-15,-5l-3,-12l4,-16l31,-33l-6,-17l2,-33l10,-29l1,-22l-23,-15l-17,-23l5,-27l17,-13l9,-30l22,-47l13,-8l26,-10l17,-21l1,-14l27,-26l2,-20l22,-35l5,-15l18,-20l26,-9l9,-16l-3,-22l3,-14l24,-16l8,-17l25,-74l48,-2l21,-2l44,5l26,6l18,-15l27,-11l24,-21l41,-32l20,-18l23,-11l29,4l13,-1l36,-20l16,-5l22,1l29,-20l27,-9l40,13l14,-1l8,-16l33,-32l71,-34l92,-3l41,-11l128,-74l164,-66l20,-35l5,-104l-7,-42l-9,-17l-29,-29l-3,-29l-8,-49l-26,-12l-28,-22l-24,-14l-16,-16l-61,17l-36,-10l-68,-32l-24,-26l-28,-15l-42,-28l-13,-49l-9,-21l-54,-24l-34,-21l-54,-21l-5,-14l4,-30l-6,-17l-22,-31l-23,-40l13,-43l25,-29l30,-27l16,-23l9,-26l24,-30l37,-32l41,-47l2,-16l28,-45l17,-41l15,-27l2145,-4l-28,-19l-36,-53l-25,-43l-15,-3l-11,-23l-12,-8l-17,-23l-7,-27l-16,-28l-11,2l-11,-22l16,-18l-8,-25l12,-16l-3,-17l26,-32l4,-27l17,-14l1,-24l9,-24l4,-25l45,-29l24,-26l30,-24l3,-18l13,-3l15,-12l3,-10l-8,-29l15,-16l3,-16l29,-29l11,-36l19,-14h32l21,-10l24,-25l3,-22l34,-40l13,-23l17,-12l13,-36l12,-15h27l31,-30l34,-27l38,-2l39,-30h21l19,-10l0,-15l20,-8l14,-14l30,3l22,-24l14,-1l27,8l17,16l27,5l16,-5l21,2l25,-13l39,-15l37,-38l16,-21l21,-13l66,-22l14,-14l4,-13l-5,-24l6,-8l23,-13l1,-14l26,-36l13,-2l-6,-23l19,-48l-4,-26l-22,-3l5,-10h14l1,-15l-16,-6l12,-20l10,-6l9,-17l-25,-26l-2,-29l21,-5l16,-28l11,-58l20,-53l49,-59l32,-26l7,-15l-3,-17l-24,2l-2,-11l29,-36l1,-20l-12,-22l-2,-25l-28,-53l-36,-6l9,-39l-14,-17l7,-27l-19,-17l2,-41l-19,-35l-19,-14l-20,-5l-18,-20h-22l-14,-31l-22,-8l-34,-30l-14,-17l-23,2l-18,-10l-8,-30l1,-26l-8,-22l4,-38l27,-40l-8,-33l2,-37l-15,-23l0,-14l-12,-21l-2,-14l8,-21l-16,-19l-11,-30l-26,-32l-2,-12l3,-36l12,-12l2,-11l-10,-26l-16,-14l-3,-18l9,-24l7,-26l1,-31l-3,-19l-13,-43l-23,-34l10,-12l5,-16l-12,-21l-28,-4l-15,-19l-12,-4l-17,-24l-20,-6l-24,-25l-9,-30l17,-31l26,-34l-11,-52l-12,-13l-11,-1l-13,-17l-11,-31l-3,-23l3,-21l-3,-42l-11,-15l-19,-8l-8,-27l-14,-12l-33,6l-38,-10l-7,-9l10,-28l-6,-25l3,-20l14,-32l6,-25l24,-25l-2,-21l-13,-21l-8,-38l-36,-61l-35,-11l-13,-18l10,-53l0,-59l3,-12l-1,-44l1,-31l-2,-50l-8,-41l-1,-46l-10,-34l-22,-50l-5,-19l-25,-35l-22,-21l-3,-11l14,-37l7,-9l7,-32l13,-15l14,-32l29,-22l9,-19l-23,-23l-18,-23l-18,-42l6,-18l16,-18l22,-16l15,-3l16,11l32,34l26,14l0,11l-21,5l-2,10l11,19l21,-6l17,13l9,-19l9,-4l39,-5l16,-13l22,-7l-7,-20l16,-9l0,-33l23,9l13,17l9,-4l-4,-37l3,-20l26,-40l16,-15l14,-2l11,10l43,74l29,39l4,20l-3,13l-17,10l-2,19l4,19l19,32l17,-16h21l30,-27l13,-5l12,18l8,50l12,19l20,8l32,-14l27,-19l26,-11l7,-17l-12,-25l6,-33l23,10l42,33l11,-11l-7,-33l8,-6l14,3l22,-3l14,13l14,18l12,2l15,-56l16,-25l19,-2l22,-8l21,-2l10,7l13,21l-8,20l9,18l-6,7l11,28l17,9l10,19l-7,9l-21,7l13,15l-1,19l22,26l23,-18l10,4l31,41l4,11l-4,22l-7,6l3,45l-6,8l-18,-2l-7,7l-14,37l16,14l2,19l-24,20l-2,47l3,10l27,20l33,28l30,11l64,-2l13,4l14,17l35,31l42,4l9,21l-6,37l7,21l19,15l32,19l19,-4l18,-58l15,5l19,43l21,6l3,-32l6,-19l17,-10l48,-12l21,6l29,33l32,-13l12,4l17,-10l7,-18l17,-28l15,-12l21,9l2,32l26,21l31,13l23,-3l17,-26l11,2l6,12l-1,32l13,39l22,27l11,18l-8,36l0,20l13,15l20,-6l21,4l18,-11l12,-1l19,8l10,-18l-21,-21l-3,-13l8,-17l12,-5l25,24l16,21l15,29l24,32l7,22l-19,-6l-6,8l4,30l27,43l12,15l44,9l43,10l46,-1l34,-12l23,-27l31,-4l52,6l24,6l57,9l13,8l69,17l24,8l78,13l57,6l50,2l82,-8l35,-6l20,12l33,-3l33,3l26,10l34,6l49,-8l13,2l48,20l32,-3l14,-8l31,-8l40,4l30,-6l30,-12l35,-9l39,-5l84,-13h37l60,-10l89,-8l54,-10l42,8l46,-17l56,-11l57,-5l50,9l14,-4l50,26l35,-5l27,-9l52,26l52,18l57,22l50,10l37,-8l68,-2l111,-13l76,42l51,-4l99,1l86,7l68,2l36,-6l52,-24l55,-5l34,-9l40,-21l49,-19l87,13l64,-5l34,33l34,46l51,50l31,33l56,24l46,3l55,9l47,-6l51,30l53,50l18,1l8,45l-3,25l17,33l5,34l-2,13l23,23l17,21l9,31l5,26l0,34l10,39l25,34l30,33l48,46l13,5l27,-1l67,26l30,32l15,55l6,97l211,-308l103,-145l311,-448l209,-299l40,-50l0,-10l14,-14l10,-26l24,-13l56,-22l15,-29l20,-11l34,-25l-3,-23l26,-2l20,-20l17,-6l9,21l34,-30h36l8,15l25,4l12,-9l-2,-14l42,19l2,21l11,9l19,-10l23,28l14,-13l19,5l25,12l19,-27l31,-6l32,1l20,-6l4,-40l-2,-27l19,-14l3,-13l25,-16l1,-19l14,-18l57,-27l29,-18l22,25l24,10l30,-7l18,-32l21,-25l31,-4l36,-25l23,5l26,-19l30,-6l24,-29l35,-21l29,4l20,6l42,-12l26,12l24,1l25,9l10,-8l21,-3l13,-19l12,3l27,-10l16,-11l16,-32l19,-24l33,1l25,-15l16,-23l33,19l56,-10l35,-26l4,-33l40,2l18,-11h25l20,22l49,13l21,1l54,-24l23,-26l40,-13l99,-37l25,-11l22,-36l33,-27l44,-13l30,-12l29,-16l33,-7l25,-10l49,-17l16,-45l34,-27l58,-11l29,-36l27,-26l44,-23l21,-25l45,4l56,10l40,-5l32,19l39,28l47,-18l52,10l43,28l40,38l120,27l46,-7l51,23l36,9l28,23l37,16l33,7l33,12l43,-10l59,11l35,21l27,25l48,-16l43,-8l298,-618l33,-73l31,-23l-1,-40l4,-39l30,-17l10,-22l-17,-23l-2,-28l-29,-32l37,5l-8,-32l-24,-14l29,-20l-10,-38l12,-23l-41,-16l-50,-5l-30,-27l19,-44l34,-16l-32,-28l13,-62l15,-47l5,-39l-48,-24l-38,-32l-25,-69l-14,-19l-6,-36l-32,-43l9,-28l22,-45l36,-5l-3,-32l-19,-43l9,-42l0,-41l-4,-33l18,-15l6,-60l-1,-22l-16,-43l-52,-78l-20,-33l-36,-46l-35,-30l-20,-11l-11,1l-27,-14l-13,-19l-13,-32l-21,-30l-21,-17l-24,-31l-27,-24l-46,-25l-45,-27l-22,-18l-49,-55l-43,-62l-20,-22l-27,-22l-44,-23l-20,-6l-43,-7l-41,-21l-48,-33l-8,-11l-18,-36l-15,-37l-8,-12l-36,-22l-21,-18l-34,-22l-15,-16l-10,-20l-6,-35l-29,-69l-9,-35l-7,-52l-7,-14l-43,-71l-18,-38l-21,-30l-14,-29l-37,-38l-25,-15l-17,-18l-7,-21l-3,-48l-20,-24l-12,-39l-17,-10l-21,1l-28,-8l-10,7l-21,4l-19,-11l-16,-35l-24,-38l-20,-27l-8,-21l-3,-46l-8,-21l-28,-28l-28,-14l-14,-15l-12,-36l-12,-29l-6,-55l-4,-14l-18,-43l-24,-38l-25,-29l-54,-35l-18,-14l-57,-35l-25,-18l-23,-25l-34,-18l-44,-28l-10,-18l-4,-23l-10,-22l-29,-35l-8,-27l-32,-24l-12,-43l-14,-16l-20,-11l-19,-8l-10,3l-30,27l-20,-5h-21l-27,-16l-20,-3l-49,1l-41,-9l-49,-25l-31,-7l-16,-9l-10,-24l-42,-73l-18,-38l-35,-55l-52,-52l-26,-42l4,-39l-13,-19l-9,-27l3,-107l-10,-39l-16,-36l-66,9l-57,23l-62,42l-72,55l-12,-44l-50,-14l-40,-56l-25,-24l-51,12l-127,-6l-4,-29l-35,-42l-90,-99l-29,-50l-10,-62l-39,-45l-50,-43l-37,-41l-57,-49l-23,-43l-22,-66l-51,-51l-57,-19l-62,-30l-41,-33l-61,-22l-10,-28l-25,-32l2,-53l-10,-58l-34,-27l-67,-27l-60,-14l-83,3l-42,16l-55,-14l-33,7l-75,27l-36,-46l-24,-54l-10,-34l-23,-52l-49,-12l-37,-14l-46,14l-65,-26l-14,-32l-59,6l15,14l-35,70l-19,51l-36,-21l-34,42l40,63l11,57l-18,48l36,32l-45,52l-58,40l37,4l-46,8l-45,-18l9,-37l-50,9l17,57l5,70l-75,-2l-27,-27l42,-14l-45,-10l-40,3l-9,-57l-65,18l-27,48l-12,15l-20,-16l-20,14l-47,7l-20,-22l-3,40l8,41l-4,81l-66,18l-61,-15l34,-37l-50,-12l-59,-7l-15,6l-35,-7l-41,-14l-39,13l-40,7l-56,1l-55,8l-59,17l-34,-37l-51,-28l-76,-5l-23,-18l-5,-39l-25,-22l-18,-9l-62,9l-56,58l-4,57l-32,37l-35,16l-48,11l-27,17l5,-26l-1,-29l-19,-52l-4,-35l9,-41l21,-28l27,-24l37,-13l42,-36l20,-31l27,-52l6,-33l24,-75l26,-43l41,-14l38,-2l14,-7l20,-24l34,-29l100,-50l24,-39l-4,-51l-38,-39l-30,-48l4,-35l41,-43l38,4l31,10l24,40l44,55l91,40l50,-15l30,-14l46,-13l44,-26l27,-45l-27,-75l-16,-23l-13,-72l20,-60l34,-65l59,-92l5,-36l13,-46l14,-32l65,-70l67,-62l21,-12l59,-6l55,-23l36,-31l44,-27l33,11l18,90l11,35l13,27l19,20l34,11l31,-14l4,-19l-10,-29l2,-38l35,-36l21,-20l20,-41l26,-33l48,11l22,60l-19,61l16,55l21,19l61,-21l59,-9l39,18l24,26l65,-27l18,-2l42,106l37,6l34,-13h48l51,10l25,9l49,39l28,25l27,39l12,47l26,65l18,17l35,12l46,10l53,-21l2,-69l-39,-62l-22,-32l-8,-53l15,-26l42,-12l53,22l23,17l37,6l37,-16l23,-56l-8,-39l-18,-43l-12,-66l5,-23l33,-34l36,-14h41l24,11l54,30l33,22l36,4l42,-17l26,-30l-6,-31l-56,-33l-45,-22l-34,-19l-12,-67l5,-36l22,-48l34,-27l88,-47l48,-9l63,-17l75,-32l68,-38l74,-39l51,-16l45,-18l27,-17l34,-31l47,-36l60,-15l62,22l51,34l34,28l27,16l28,-17l28,-45l44,-41l49,-33l35,-27l28,-14l21,7l30,5l23,11l44,16l46,14l32,18l12,42l-2,30l-13,42l-2,25l9,33l37,15l30,-1l23,-29l9,-26l6,-33l-16,-67l5,-33l12,-26l40,-1l25,18l21,26l6,24l8,47l16,20l32,16l32,-9l11,-26l5,-28l-13,-26l-27,-21l-13,-20l-14,-42l16,-56l56,-11l35,25l30,36l25,18l30,5l29,-12l21,-21l15,-31l-8,-25l-10,-68l-8,-34l15,-35l51,-54l35,-26l69,-67l13,-22Z"
     transform="matrix(1.0000001e-4,0,0,-1.0000001e-4,5.1111111e-7,0)" />
  <path
     id="1101"
     d="M-636799,-116444l17,23l23,15l-1,22l-10,29l-2,33l6,17l-31,33l-4,16l3,12l15,5l54,-26l41,-39l18,-1l15,14l5,42l-20,16l9,39l38,39l21,55l10,13l15,-2l44,-121l27,-35l18,-16l18,-5l17,3l1,40l3,22l24,22l15,29l16,16l16,48l13,10l35,11l30,-1l30,-5l20,4l9,11l40,-2l8,6l7,32l13,22l29,-7l10,-7l42,5l25,-5l19,-9l17,7l27,47l15,19l2,11l-10,25l-35,39l-18,30l-3,26l2,34l-4,24l-10,21l-13,21l-6,24l14,17l18,7l7,22l-5,21l-16,28l-23,29l-14,8l-35,5l-17,11l1,23l20,6l4,14l-6,28l-25,51l-22,4l-30,-2l-17,18l-3,21l22,8l26,-3l33,4l18,-9l10,10l4,22l-5,8l-26,6l-12,8l0,11l14,16l32,6l8,5l2,28l-3,12l-17,35l0,14l14,19l33,24l12,24l5,23l13,26l19,17l24,7l46,5l16,11l-36,34l-24,15l-42,45l-15,39l-10,2l-48,-4l-34,3l-17,14l0,11l11,18l15,47l21,4l30,-10l14,3l6,11l-9,44l12,57l10,19l19,6l2,13l-11,46l-4,37l1,21l7,28l18,24l12,24l29,33l-5,16l6,25l10,-2l30,-34l24,-5l6,18l-11,19l-14,13l-36,13l-20,28l-2,30l13,39l24,37l6,22l-8,21l-20,22l-13,7l-23,24l4,33l22,7l2,11l18,-7l21,-25l3,-10l12,-3l15,16l45,20l56,11l20,-7l-7,-19l-10,-8l-1,-12l20,-6l38,21l35,8l40,-6l18,6l15,14l10,-2l17,-15l5,-21l34,-22l18,-6l21,4l28,17l10,15l20,10l3,9l-11,20l-19,16l-20,48l-36,9l0,10l10,18l14,16l8,22l14,23l7,18l8,5l20,-1l7,6l-5,20l4,21l33,-25l13,-2l33,9l17,13l7,19l-2,18l-10,18l-15,12l5,19l27,22l32,-5l19,8h12l51,23l24,18l47,22l0,9l-25,5l6,38l-4,21l3,51l-2,11l-13,18l-10,2l7,17l-3,30l-11,18l0,11l-15,25l-6,21l-12,16l-13,41l-26,34l-20,9l-12,18l-43,20l-19,12l-18,25l2,10l25,34l17,20l14,36l1,12l-14,16l12,30l-5,20l-20,9l-20,16l-8,-5l-33,-1l-12,-9l-14,9l-14,2l-10,-8l-16,2l-8,33l-8,13l-25,-6l-8,20l-19,13l-29,9l-8,22l8,6l-2,14l-36,4l1,13l13,8l-5,11l-23,-7l-29,31l-22,10l-11,12l-18,36l-40,5l-37,-5l-25,14l-20,-13l-9,11l9,16l12,37l3,27l-16,36l-18,25l-9,24l6,18l12,14l2,15l-11,11l-26,-3l-18,-12l-1,15l9,32l-3,12l20,56l11,12l34,2l13,13l-14,20l-13,11l-16,20l-5,17l9,23l29,53l3,15l15,18l4,15l12,2h45l14,8l3,13l-18,36l-21,63l-10,13l-12,3l2,13l-27,12l-20,14l-6,14l9,34l1,51l-3,42l-5,28l5,24l-11,14l11,22l-3,34l-4,19l-15,21l-27,66l-45,67l-8,30l3,36l-11,32l19,45l-3,29l-26,32l-31,30l0,36l26,55l0,16l11,16l12,45l-6,42l5,36l-1,37l5,39l6,17l2,25l21,64l9,10l5,37l-3,11l-15,16l-1,33l13,15l6,17l-7,55l7,11l22,1l9,5l20,43l19,15l8,20l9,11l22,7l-1,18l-11,40l-18,21l-3,14l4,15l33,29l-2,30l-20,34l-1,23l-9,16l14,16l24,44l5,18l2,62l-9,12l-28,5l-10,8l-19,28l-26,26l-25,33l-26,18l-16,5l-42,5h-78l-42,8l-46,5l-38,31l-13,-2l-14,7l-17,18l-10,20l-15,13l-12,5l-9,12l31,5l8,10l57,11l40,16l21,2l89,-17l27,-8l67,-8h28l38,4l24,5l27,18l19,21l5,17l28,16l19,15l6,20l-6,31l-19,35l-21,31l-19,24l-3,21l7,50l0,9l-61,105l-19,19l-11,24l-19,10l-16,19l-31,-2l-44,-19l-17,6l-3,9l-3,41l8,18l20,25l7,20l0,34l-5,19l-18,33l-3,15l-14,20l-17,29l-7,42l0,35l3,21l-1,30l-10,40l19,28l24,31l-2,20l-28,32l2,29l6,9l13,38l-5,38l4,31l16,14l27,-2l17,-9l23,-5h75l21,5l53,29l18,13l28,25l22,16l28,13l14,23l5,25l-1,23l-13,53l1,23l-2,90l0,38l5,35l-3,70l-5,34l-14,23l-30,26l-9,40l0,23l4,46l7,25l14,27l22,49l16,25l15,14l31,44l-1,17l-29,10l-28,5l-8,6l-4,21l1,56l-10,27l-24,20l-27,32l-25,18l-15,28l-5,53l-15,51l25,15l25,21l10,19l-7,48l-15,17l0,22l33,57l5,34l-4,55l-9,17l-8,37l2,23l8,5l18,-8l39,-31l16,-19l18,-15l10,-1l21,6l17,12l21,30l31,20l55,7l15,14l13,21l-1,22l-9,8l-21,7l-5,11l0,46l-16,73l2,12l38,18l15,14l17,33l-2,40l-15,44l-19,45l-17,32l-22,36l-6,28l11,32l22,21l0,41l-14,18l-16,46l-7,7l-20,2l-10,17l-7,42l2,18l15,29l16,22l-14,16l-10,21l-2,21l2,31l8,7l33,8l20,11l19,17l11,20l22,25l35,27l21,20l8,19l0,12l-18,39l-22,40l-7,21l0,25l10,3l43,-9l21,1l19,8l23,21l1,19l-19,54l7,21l25,35l20,3l18,10l17,25l7,20l-2,19l-29,4l-29,-9l-20,6l-61,37l-23,25l-9,17l-13,52l-1,53l-18,34l-19,28l-25,24l-32,49l-10,39l11,29l39,23l30,22l22,12l5,19l-17,28l-16,14l-43,28l-17,17l-3,10l10,16l39,13l33,3l27,9l57,-4l21,-4l33,3l25,18l3,11l-25,14l-15,42l5,41l-3,19l-7,7l-4,53l-3,8l-31,25l2,12l10,16l11,6l29,27l38,49l18,28l9,13l-6,20l-18,30l9,42l15,57l-10,26l-27,26l-11,37l10,26l37,-1l32,4l42,40l53,3l59,-33l40,-26l50,24l29,-32l21,-21l18,-55l35,7l22,42l20,72l1,40l-30,19l-31,65l-42,55l-73,-20l-26,25l-31,43l-31,49l1,41l36,7l60,-14l32,-17l12,6l20,24l10,46l5,45l15,62l80,67l-13,37l-36,10l1,25l45,-4l54,-22l66,-6l105,59l50,7l24,-47l27,-21l47,11l45,3l20,30l0,72l-39,64l8,32l2,72l-70,11l-69,-7l-31,21l-8,36l-32,50l-24,31l-1,41l-41,47l2,18l15,13l20,43l-19,54l-56,28l14,29l7,42l14,39l18,42l37,12l48,-6l8,38l-8,28l24,71l-50,52l-25,46l-35,87l-4,36l-8,38l26,30l15,43l-16,42l-24,24l-42,-2l-39,-11l-48,-8l-44,31l-41,13l-61,46l-44,19l-72,7l-64,34l-34,30l-24,26l-42,40l-101,75l-26,-10l-31,-39l-58,-21l-116,11l-35,31l-31,78l-8,27l-13,32l-14,49l-26,45l-35,37l-19,6l-42,-9l-32,21l-21,35l-9,29l13,30l49,38l14,36l1,37l0,56l-27,36l-4,39l28,38l6,28l2,28l-3,38l-16,36l-15,17l8,25l14,38l-3,31l1,35l16,25l16,38l-7,45l-16,47l8,58l19,40l34,62l-2,32l-28,13l-29,37l-23,6l-19,37l-9,41l8,33l10,27l-2,38l8,60l-3,51l2,58l-31,38l-10,55l4,9l-8,36l3,19l32,28l-1,33l2,43l-12,51l8,56l20,21l10,35l-17,48l-2,33l-22,27l-28,12l-18,35l-2,22l-12,30l-2,20l-24,32l2,16l-11,22l-1652,1h-36l5,28l35,22l33,13l-7,13l-29,3l-14,6l-10,13l-3,32l9,11l25,-16l11,12l4,53l8,10l25,18l64,33l34,55l5,17l9,12l14,4h30l30,10l25,24l20,31l9,33l3,29l6,13l22,23l13,5l9,16l-3,15l-19,27l-16,18l-2,15l9,10l14,4l9,12l-9,32l7,29l15,8l18,-2l27,-12h15l26,13l-3,28l-19,28l-23,21l-5,17l8,13l13,6l33,-1l13,8l-2,15l-9,11l-6,18l8,27l-4,17l8,33l9,17l30,46l-2,48l23,44l18,57l16,23l43,-8l14,1l43,25l29,-3l15,8l-2,15l-28,15l-16,24l-6,30l-10,27l6,31l-4,16l-16,28l-8,28l1,14l8,13l29,15l54,10h19l34,7l11,10l-13,30l-24,43l-21,20l2,14l14,4l17,-1l16,11l0,34l14,31l2,13l-9,71l2,18l9,34l15,27l42,50l1,16l-13,6l-33,2l-28,15l-27,54l3,14l9,15l13,9l61,24l27,19l23,22l43,90l1,14l-31,7l-33,-4l-27,11l-5,14l6,45l-8,48l2,29l8,12l55,26l21,7l53,9l18,10l22,25l7,32l-11,18l-24,21l-58,42l-7,12l1,31l8,13l14,4l26,18l25,44l23,19l7,15l-7,137l5,16l14,9l15,-2l29,-13l15,6l9,12l5,17l-1,28l-7,34l3,33l7,12l30,11l17,29l28,11l13,16l14,29l13,15l20,41l-2,46l-20,40l2,15l18,26l0,16l-18,23l6,14l46,6l18,10l31,-2l15,5l28,38l15,41l78,79l1,15h-15l-26,-12l-14,4l-9,13l-9,43l5,13l-5,13l13,6l-3,16l-13,10l-3,16l13,6l37,-23l30,-4l13,8l-4,29l-17,25l-11,35l-15,21l-31,11l-11,15l5,18l30,-4l12,9l16,4l30,-4l29,3l21,23l-1,15l-23,19l-5,14l2,14l40,30l20,21l-11,27l20,39l27,-4l31,4l31,31l30,17l34,28l-8,42l7,14l33,28l7,16l-10,29l11,9l27,10l88,13l32,9l21,19l3,44l38,27l17,-6l3,-15l11,-8l10,11l4,18l-28,15l-7,10l-6,26l5,21l47,21l8,16l2,67l-8,70l7,7l17,-4l10,-12l7,-26l-7,-53l10,-3l51,24l24,5l11,8l-23,39l0,17l23,44l-4,8l-25,10l-4,14l16,21l-9,17l-64,6l-19,8l-38,29l-1,14l25,38l1,12l-15,28l2,31l31,28l8,18l45,-2l19,10l8,13l3,20l16,1l11,11l-2,14l-39,18l-16,21l-18,6l-20,-4l-30,18l-14,-1l-22,33l-20,14l-25,3l3,30l25,23l46,3l29,-10l28,11l4,43l14,23l0,82l-25,7l-32,-10l-7,24l23,28l33,26l-10,19l-65,86l1,23l10,30l-7,23l-43,4l-8,31l33,8l30,15l14,-13l24,6l13,14l-2,43l-31,35l-21,15l-29,6l-21,-1l-74,-47l-37,-8l-7,-8l-4,-19l-22,-34l-17,-5l-9,7l-12,41l20,19l26,11l20,29l16,62l-7,34l-39,23l-18,16l-8,16l6,62l-8,22l-64,-4l-66,-40l-14,-43l9,-44l-2,-14l-12,-5l-20,28l-29,-12h-47l-35,26l-9,29l-24,-1l-69,-36l-26,-21l-9,-29l-5,-23l2,-22l14,10l17,-2l11,-18l4,-25l-2,-17l-7,-6l-29,12l-22,-10l-22,1l-26,17l-30,28l-38,57l-21,38l-19,18l-12,3l-10,-12l38,-98l-2,-33l-9,-1l-52,38l-27,-22l-10,-21l-45,-15l-16,-1l-21,27l-14,9l0,-26l8,-22l0,-17l-11,-11h-48l-61,-9l-22,15l-9,27l23,51l20,10l11,18l20,-3l16,4l17,27l-6,8l-20,-18h-11l-42,23l-28,24l-46,11l-5,24l28,56l-8,8l-16,-12l-19,-27l-15,-6l-40,-3l-8,-19l5,-27l-1,-20l-10,-18l-1,-48l-6,-16l-25,-34l-12,-3l-29,15l-16,21l-33,7l-24,-13l-12,-26l-25,-33l-11,-33l25,-102l-11,-21l-15,-14l-23,-4l-18,20l-11,35l6,16l11,6l-9,12l-23,10l-64,20l-20,21l-21,5l-48,-37l-31,-9h-18l-21,24l-9,19l-5,55l15,49l1,15l-20,6l-14,10l-17,24l0,12l-14,17l-23,6l-10,7l31,39l25,18l55,6l-18,26l-73,34l-27,32l-16,3l-55,-28l-3,20l29,65l29,16l4,15l-29,22l-64,13l3,1l200,-15l2393,-180l162,-13l739,-60l811,-66l-7,-46l26,-2l1986,-173l244,-21l3,-211l-14,-34l0,-17l26,-19l215,-272l13,-170l762,-13l2462,3l1088,3l455,1l1097,2l679,4l-2,40l-5,14l-43,42l-7,24l11,17l67,63l33,51l0,20l-8,19l-69,11l-18,9l-2,12l16,24l17,15l16,44l51,42l3,12l-14,24l-23,13l-7,11l-2,21l46,117l16,96l9,17l10,56l13,114l-5,50l4,46l20,51l18,26l76,74l17,23l61,43l21,10l26,20l23,44l-26,41l-16,72l0,77l3,20l14,27l8,4l22,1l42,-16l37,-39l19,-13l22,4l0,39l6,54l20,33l25,21l28,86l33,32l23,8l54,-2l52,-43l53,27l36,8l46,-15l13,5l15,15l28,41l35,31l8,27l-6,48l13,39l90,124l38,33l36,22l10,26l1,45l-10,14l-68,52l-3,7l-6,66l-53,120l-7,61l-11,57l-35,47l-13,31l3,64l-6,56l-25,123l-24,28l-5,15l5,44l-18,48l-9,55l4,39l9,58l18,81l3,32l-5,85l4,100l14,95l26,88l6,45l0,241l1,176l-15,104l-14,63l-16,23l-14,35l-8,89l-28,68l-4,30l2,35l48,119l48,30l-6,28l-33,29l-12,19l-7,102l-28,129l-11,28l-35,11l-9,15l-4,49l-13,14l-27,-4l-4,10l5,20l-20,8l-7,8l-2,39l6,19l-11,57l2,27l17,19l65,35l40,14l19,17l16,24l21,14l17,23l10,45l-6,52l23,29l-3,15l17,20l9,35l-4,18l8,22l5,34l-10,28l0,12l11,23l-52,15l-31,16l-55,37l-25,4l-39,29l-8,14l0,52l10,46l13,8l28,34l21,40l40,58l4,16l38,9l8,11l-2,17l5,22l-7,22l-4,32l-15,25l8,9l5,37l-27,32l-13,26l2,20l17,10l46,4l5,26l24,21l-9,12l26,22l31,-2l24,9l23,2l9,12l9,31l37,40l-1,14l14,11l35,-2l18,9l25,35l39,9l12,16l15,38l15,13l7,21l-10,19l-8,53l6,25l29,48l1,17l-5,17l-52,-2l-12,-4l-17,5l7,63l-32,10l-20,24l-20,9l-29,41l-10,27l-26,6l-3,14l4,28l-15,4l11,19l-36,3l-2,18l-17,11l-44,-4l-47,16l-19,23l-14,7l-30,32l-13,22l-30,10l-22,-16l2,15l-18,16l-1,8l-22,18l11,20l10,63l-14,88l18,18l6,16l-26,6l-19,13l-9,38l16,9l-3,10l-21,15l-58,16l-9,-2l-22,-21l-23,34l-14,5l-21,-1l-52,13l-10,8l-4,13l4,42l-11,19h-10l-18,29l14,9l19,4l10,14l-3,9l-29,18l-40,33l29,39l-12,3l-36,-8l-21,3l33,50l16,8l5,20l24,6l9,10l-40,23l-7,18l5,16l13,15l44,20l7,10l1,32l11,18l28,2l-6,20l-21,33l8,55l-20,8l-4,13l1,23l17,10l6,30l18,-11l11,12l-23,43l-3,18l-32,34l5,18l12,6l26,-12l50,-12l25,1l79,-20l28,-23l15,-81l-20,-82l7,-49l17,-28l56,-44l46,-16l23,-4l39,10l81,30l66,9l95,2l24,6l79,33l28,3l122,-25l29,5l24,12l29,40l20,5l16,16l75,40l42,1l21,13l59,-6l13,10l7,25l-2,26l-15,35l3,24l17,11l7,34l11,2l10,13l-4,17l26,14l1,20l11,12l3,21l-23,55l-34,33l-22,31l2,11l21,30l13,34l7,63l-18,29l-13,40l2,24l26,38l25,27l-1,20l-40,76l16,43l-2,35l-18,43l-13,18l-13,48l-13,11l-39,7l-12,-9l-28,8l-30,27l-24,15l-11,23l-20,10l-56,87l-54,-71l-69,-35l-82,-25l-39,-71l-10,-94l47,-81l63,-69l40,-88l-20,-94l-82,-5l-146,103l-79,64l-86,29l-152,100l-53,67l-9,80l29,79l50,74l64,70l19,88l-36,86l-49,89l-8,90l19,94l-42,112l-75,34l-91,15l-61,53l-60,128l21,77l3,77l-14,76l-26,79l-19,85l3,81l22,77l59,147l12,167l-8,85l-43,75l-54,63l-135,71l-84,23l-76,5l-82,-26l-80,8l-84,16l-76,30l-75,41l-56,54l-85,133l-51,56l-66,39l-75,-11l-59,-49l-38,-71l-42,-64l-58,-52l-81,-17l-75,-65l-102,-121l-76,16l6,78l-65,43l-76,129l-119,-1l26,79l-2,82l-67,147l5,80l-59,56l53,70l-14,105l-46,123l-73,-33l-50,66l-73,21l-39,67l-74,-31l-73,28l-39,71l-64,53l-78,26l-108,86l-73,40l-56,53l-80,23l-51,79l40,71l-89,224l-70,29l-66,40l-32,73l-63,48l-37,68l14,81l61,49l25,84l37,71l-11,83l-42,69l-50,61l-22,76l67,50l-52,65l-66,40l-17,80l-72,45l-69,31l-64,47l-53,65l-65,49l-30,67l-55,59l-49,65l-60,48l-78,17l-61,52l-74,24l-69,45l-76,2l-64,50l-81,-12l-75,18l-82,4l-43,69l-67,39l-47,70l-71,131l-88,-6l-35,85l-83,-11l-68,53l-64,64l-1731,-8l-787,-4l-2088,4l-623,1l-528,1l-582,2l-346,-2h-861l-9,-73l2,-108l-36,-118l-10,-97l47,-135l-48,-116l-122,-60l-51,-101l-70,-91l-161,-152l-19,-103l65,-93l-75,-205l-65,-62l-60,-94l-38,-108l-72,-102l-104,-62l-196,-108l-68,-49l-113,-99l-55,-85l-16,-93l103,-187l61,-81l53,-60l41,-88l-238,-207l-135,-209l-28,-116l-57,-85l-49,-95l-81,-85l-96,-40l-89,48l-76,90l-176,132l-218,112l-121,44l-116,18l-112,-24l-129,-108l-42,-73l-52,-128l-65,-64l-105,14l-105,24l-123,-65l-15,-77l3,-118l19,-128l-1,-136l-19,-107l-102,-87l-114,-56l-100,-76l-9,-104l118,-27l124,-52l97,-73l49,-62l-17,-108l-248,-190l-76,-71l-13,-88l36,-121l47,-61l67,-37l54,-62l55,-52l48,-61l6,-79l-30,-79l6,-81l66,-57l158,-31l7,-81l-21,-81l-95,-129l-19,-45l-52,-97l-48,-69l-81,22l-115,114l-15,80l-54,54l-78,18l-59,-49l-49,-318l-72,-37l-65,-48l-8,-77l4,-81l-43,-69l-72,-39l-25,-79l28,-73l-41,-73l-67,-48l-53,-64l-30,-74l14,-79l51,-60l11,-82l-80,4l-73,34l-75,11l-82,8l-85,-7l-78,-24l-57,-64l-63,-50l-76,-39l-79,25l-86,7l-63,52l-70,33l-63,-55l-30,-70l-41,-68l-51,-70l-10,-86l5,-91l-12,-157l38,-71l87,-145l28,-72l-21,-85l-42,-67l-63,-58l-131,-92l-30,-78l37,-75l20,-76l4,-77l33,-71l-18,-74l-11,-87l0,-80l9,-78l16,-75l26,-74l21,-82l27,-170l-16,-84l-61,-54l-174,6l-81,-23l-75,-38l-66,-51l-153,-78l-67,-45l-71,-31l-73,-42l-77,-32l-76,24l-81,5l-78,10h-84l-84,-12l-77,-37l-85,-2l-80,-27l-136,-3l-80,29l-60,55l-8,83l103,218l28,74l19,74l15,87l-60,50l-78,6l-81,-18l-161,-61l-178,-58l-145,-41l-141,-75l-75,-29l-70,-36l-89,-26l-75,-29l-83,-23l-68,-35l-66,-49l-89,-10l-77,14l-80,28l-91,-6l-81,-20l-80,-28l-211,5l-161,23l-165,-20l-79,-30l-62,-44l-47,-61l-100,34l-5,-129l-86,-82l-81,-7l-76,-41l-74,-22l-71,30l-80,21l-153,48l-162,-16l-66,-38l-71,-28l-56,63l-38,71l-26,78l-78,41l-81,12l-79,-16l-65,-40l-55,-80l-113,-106l-75,-40l-156,-42l-76,1l-50,61l-84,122l-34,78l-60,52l-76,29l-79,9l-83,-1l-86,-10l-74,-19l-155,-56l-71,-40l-101,-76l-66,-40l-75,-25l-102,-128l-64,-42l-69,-145l-74,-30l-80,11l-78,25l-21,-75l30,-80l15,-82l-8,-78l-39,-74l-53,-155l-44,-74l-42,-154l-64,-43l-4,-78l-1,-77l11,-82l57,-61l-1,-79l31,-75l16,-78l-29,-73l82,-132l-28,-74l29,-75l39,-73l-18,-80l-63,-56l-50,-67l-33,-152l-46,-66l-55,-55l-75,-34l-2,-76l-39,-72l-51,-67l-77,-2l-77,27l-79,-16l-57,-59l-86,-68l-14,-133l-50,-58l-58,-50l52,-68l17,-80l-86,3l-76,-28l-24,-79l-56,-27l-93,-30l36,-152l-42,-70l-70,-55l-7,-89l-59,-59l-170,-8l-74,19l-82,-38l-62,-46l-2,-77l36,-80l-89,-74l-77,4l-82,-7l-134,-81l-158,-59l-64,43l-58,53l-83,27l-76,31l-63,48l-82,-4l-13,120l24,80l49,73l48,59l12,84l-73,34l-76,29l-78,38l-8,79l49,70l38,155l-25,80l-49,57l-53,75l-80,141l-20,86l38,74l-8,80l-38,66l-151,83l-57,50l-141,80l-74,-33l-163,-26l-61,-47l-77,-20l-40,-65l-63,-49l-59,-54l-70,-44l-77,-22l-59,-54l-80,-20l-137,-84l-29,-77l-56,-59l-87,-5l-89,1l-87,-9l-20,-84l-57,-52l-83,-16l-66,42l-97,129l-70,30l-80,11l-73,40l-81,27l-68,-47l-21,-82l55,-58l-33,-69l-8,-85l8,-86l-1,-78l9,-85l-12,-87l-24,-78l-32,-74l-37,-66l19,-74l114,-115l19,-123l27,-74l23,-87l43,-101l-26,-77l-80,16l-140,-58l-52,60l-60,52l-40,-74l-51,-60l-77,-15l-81,5l-104,37l2,77l-7,76l-29,70l-81,-18l-77,26l-138,92l-120,117l-74,35l-78,29l-83,23l-164,35l-87,-1l-78,-27l-67,-57l-70,-37l-78,-25l-87,-12l-68,-38l-34,-68l-49,-70l-73,-20l-80,13l-76,17l-66,-51l-5,-76l-13,-79l6,-253l-4,-82l-83,-33l-68,-40l-91,-142l-55,-154l-34,-76l-94,-142l-65,-40l-128,101l-75,-6l-47,-66l-15,-88l-142,36l-63,-112l-64,-59l-81,-31l-85,6l-44,62l-10,83l-53,61l-73,21l-28,73l-18,93l-1,83l-24,73l-87,-10l-70,-30l-74,18l15,78l1,81l-60,57l-78,-1l-47,60l-60,54l-36,71l-62,48l-171,-15l-75,10l-71,42l-54,56l-45,73l-32,69l-23,91l-39,73l-57,51l-140,62l-16,75l-60,52l-79,35l-32,69l-82,8l-79,-7l-66,52l-96,36l-240,35l-79,2l-79,-18l-41,-69l-65,-51l-67,-38l-82,3l-170,31l-81,9l-82,-1l-75,28l-75,22l-77,2l-156,-57l-68,-34l-81,-26l-46,-61l-146,-78l-84,4l-80,28l-73,34l-74,18l-79,-5l-80,12l-81,-14l-66,-42l-81,15l-163,184l-81,12l-75,-15l-151,-12l45,-115l17,-82l-75,-32l-80,9l-78,-23l-74,30l13,77l-53,61l-79,-24l-64,-53l-84,7l-42,71l-75,33l-72,-28l-63,-58l-80,-12l-58,50l-70,33l-75,42l-61,45l-77,25l-51,-68l-7,-82l54,-64l74,-38l58,-54l46,-105l14,-76l11,-87l-17,-120l-17,-78l-3,-80l3,-84l-110,-99l-138,-95l-64,-59l-52,-74l-58,-145l-43,-67l-22,-19l-105,-85l-50,-46l-109,-128l-67,-42l-75,-41l-70,-52l-62,-59l-19,-81l7,-81l-10,-86l-35,-72l-163,-54l-97,-14l-103,-31l-57,-82l-91,-64l-115,-23l-95,-42l-64,-36l-72,-54l-86,18l-70,58l-75,11l-70,-90l-78,-69l-113,-62l-91,-57l-143,-80l-69,-50l-109,-37l-82,-52l-40,-91l-29,-102l-95,-95l-100,-54l-76,-30l-65,-43l-86,-3l-128,-31l-117,-9l-96,21l-73,52l-67,-55l48,-101l-21,-119l-12,-108l-50,-67l-71,-40l-176,-159l747,-326l329,-143l561,-245l197,-86l26,5l34,21l10,14l36,-9l72,-3l57,-23l30,-7l87,-10l41,-11l53,-56l19,10l11,30l4,71l23,18l22,29l34,-27l37,-19l27,36l24,17l-2,24l-35,7l13,28l27,26l30,-1l56,-50l44,-28l28,32l-12,28l19,22l15,32l13,-6l40,-41l48,-31l58,-18l80,18l32,20l18,18l7,45l10,5l26,-4l101,14l16,-9l-1,-10l-22,-27l-7,-21l14,-12l30,1l18,-11l10,-1l37,19l-1,34l19,39l2,45l19,12l38,4l24,7l39,-5l43,5l22,-6l27,-21l30,-47l42,-28l44,-13l20,3l-3,22l-32,22l-19,-3l-4,14l30,10l25,19l14,1l44,-8l36,5l50,19l25,24l19,11l20,-2l27,-10l6,-10l29,-18l15,-15l12,-22l-33,-103l-40,-80l1,-21l9,-17l29,-34l21,-4l62,13l60,19l15,14l2,11l-20,4l-40,-17l-21,-3l-12,4l-19,22l-2,20l12,37l40,29l12,15l44,4l8,4l8,21l2,44l9,9l19,1l2,21l7,8l45,28l4,9l-17,14l-4,10l5,13l10,6l79,-6l129,-37l104,15l52,3l29,7l27,-12l15,4l12,22l11,63l9,32l-1,33l5,24l7,7l32,4l7,7l-4,48l13,15l43,13l53,-12l33,-2l33,10l53,27l16,2l54,-4l25,4l18,10l5,10l4,29l10,6l24,-12l20,-37l31,-42l10,-1l13,12l11,41l9,-3l24,-22l62,-30l47,-8l36,-29l9,-2l36,32l5,12l-15,71l4,10l19,11l16,24l10,3l12,-7l22,21l4,-16l-14,-47l15,-15l115,42l22,-7l29,-21l31,1l23,12l19,35l18,13l5,12l-8,31l11,20l8,4l34,-19l12,-50l16,13l-4,42l20,52l20,22l9,-1l20,-20l67,-37l83,-76l44,-47l21,-16l26,-7l44,-2l26,6l36,28l29,11l27,19l1,18l-26,14l-7,8l4,20l14,25l18,3l46,-41h23l14,17l-6,18l-36,23l-22,26l-44,10l-2,23l17,61l15,13l10,2l46,-7l24,1l45,17l31,-4l18,8l-5,35l3,12l23,38l16,15l43,23l46,5l11,5l25,22l44,6l27,15l9,1l19,-13h22l11,-33l7,-9h23l8,18l20,8l43,-2l35,-12h26l8,17l20,17l33,-8l6,-9l3,-23l7,-6l38,12l23,-2l27,15l30,-12l12,13l-9,23l6,11l44,20l11,-1l45,-15l24,-25l0,-41l-24,-70l-12,-51l5,-35l35,-47l39,-24l20,2l9,10l40,77l21,51l16,14l31,14l15,11l0,10l-14,15l-52,9l-22,9l0,18l78,34l82,23l24,-2l80,-17l26,2l49,13l81,-11l42,-12l42,3l18,-8l17,-14l30,-128l21,-50l21,-43l18,-12l37,2l23,12l46,61l35,35l79,60l25,8l13,-10l-8,-39l5,-30l28,-18h31l10,4l22,21l9,-3l33,-45l10,-1l23,-23l15,11l-1,10l-15,26l-4,19l26,9l41,-13l19,-11l70,-12l22,6l10,17l-3,11l-52,15l-18,12l-23,2l-7,7l0,42l-8,31l0,49l16,46l-2,38l11,18l19,10l33,38l10,3l44,-4l34,7l20,11l31,2l15,13l19,28l16,13l21,7l20,23l10,3l24,-5l16,-15l5,-36l14,-32l20,-3l13,3l32,15l27,38l15,11h10l28,-12l4,19l-27,15l-2,19l21,11l7,9l-6,23l15,13l26,1l33,-10l13,-15l2,-10l-18,-48l6,-18l24,-13l41,-8l49,-19h9l17,13l10,38l13,17l90,30l22,29l20,16l22,5h25l43,-8l45,-3l10,-3l12,-18l7,-42l11,-26l37,-35l22,-14l6,-9l-6,-18l-27,-12l-27,-19l-9,-11l-5,-21l12,-57l-6,-21l-25,-23l-10,-30l7,-20l29,-20l36,-15l43,-6l71,8l9,4l17,20l37,24l10,1l31,-12l10,1l14,16l-6,10l-23,14l-6,10l8,21l90,74l43,86l19,10l59,-10l19,10l8,24l-8,59l14,26l22,8l15,-4l29,-21l35,-43l26,-6l37,52l8,6l20,-4l8,-22l-25,-69l-17,-18l-33,-14l-47,-7l-18,-15l0,-12l20,-45l31,-45l23,-67l20,-13l20,-2l40,35l10,-7l-2,-37l6,-9l18,-4l10,4l17,23l20,18h43l18,10l19,33l10,30l-1,79l12,21l43,31l1,24l-23,64l-19,91l-4,72l20,50l28,19l32,6l19,-2l20,-10l12,-18l2,-23l-20,-40l-11,-33l-19,-41l-5,-49l-6,-23l16,-14l47,-19l19,-16l75,-31l8,-8l42,-86l13,-19l47,-40l18,-6l47,2l22,21l8,21l0,86l5,24l11,23l13,13l45,34l64,31l38,6l42,1l84,-16l21,6l63,61l21,12l30,2l55,-7l14,14l9,-3l4,-31l-4,-52l-12,-27l10,-19l24,1l26,17h11l3,-22l-11,-34l-16,-16l-37,-17l-40,2l-55,18l-55,25l-40,7l-19,-5l-20,-18l-15,-41l-3,-24l4,-10l61,-58l20,-34l14,-54l-2,-21l-8,-22l-72,-83l-26,-46l3,-19l91,-14l23,-10l39,-25l23,-8l32,3l13,17l-24,35l-6,19l6,36l14,22l75,62l21,23l58,79l30,23h21l23,-12l21,-42l6,-33l11,-17l26,-19l24,-4l55,19l49,4l18,-9l14,-17l2,-21l-17,-30l-65,-58l-17,-26l2,-23l13,-31l15,-19l16,-13l19,4l52,76l18,18l22,16l10,3l18,-8l14,-16l10,-30l-6,-69l3,-68l11,-65l16,-43l30,-24l20,-1l19,9l49,35l31,17l25,22l52,32l21,8l48,4l28,-14l6,-20l-14,-83l0,-23l6,-21l15,-16l22,-2l32,6l58,16l110,16l48,3l21,-6l48,-49l27,-12l24,1l33,27l11,21l6,44l-11,34l-95,104l-10,18l-9,32l-1,35l13,28l10,3l39,-8l19,11l14,18l12,24l17,11l39,-5l20,7l30,-2l21,7l29,17l19,31l15,100l18,60l25,17l12,-5l16,-26l12,-30l44,-1l11,-3l8,-17l19,-15l59,-23l19,7l35,34l45,20l15,13l30,44l9,30l-7,31l-16,28l-32,30l-5,18l5,82l-6,108l4,19l26,35l-1,97l4,38l16,13l75,-11l62,4l28,16l4,18l-48,36l-12,16l-14,53l0,23l14,27l19,24h20l14,-48l16,-15l66,-1l31,6l59,35l10,2l18,17l28,17l33,15l20,18l46,28l34,34l36,44l20,64l-6,66l-11,18l-33,30l-6,19l3,33l7,6l27,-2l25,-15l98,-39l93,-26l80,-15l137,-48l52,-22l33,-18l133,-95l101,-96l44,-49l69,-86l23,-35l32,-79l31,-102l52,-117l34,-53l28,-58l51,-78l37,-76l12,-41l19,-133l30,-139l15,-32l21,-27l15,-12l95,-53l62,-43l31,-16l51,-37l32,-30l24,-36l7,-19l7,-37l0,-80l-7,-50l-20,-72l-26,-59l-45,-68l-36,-37l-76,-58l-53,-52l-43,-58l-46,-71l-73,-153l-33,-87l-16,-75l-1,-50l5,-18l5,-16l7,-65l-3,-37l-8,-19l-5,-56l3,-21l12,-24l26,-17l38,-30l25,-30l8,-19l3,-69l6,-63l1,-60l-5,-29l16,-12l-6,-17l-13,-66l-9,-38l-1,-20l-12,-64l-19,-74l-7,-36l-26,-107l-5,-53l1,-31l8,-49l12,-46l16,-51l30,-59l34,-74l37,-56l18,-18l21,-26l30,-22l43,-25l17,-12l18,-26l8,-29l3,-51l-4,-45l-15,-104l0,-25l5,-41l6,-33l7,-54l1,-32l-13,-64l-15,-45l-27,-58l-8,-22l-4,-23l0,-44l3,-28l10,-51l12,-44l10,-49l15,-40l43,-88l31,-48l34,-61l12,-29l11,-52l1,-59l-10,-21l-29,-47l-11,-22l-4,-31l0,-57l-6,-14l-15,-17l-52,-45l-24,-23l-29,-22l-11,-17l-31,-67l-14,-53l-19,-49l-12,-43l-16,-47l-7,-38l-1,-38l-3,-27l-12,-46l-26,-53l-54,-77l-43,-44l-25,-18l-29,-26l-55,-31l-18,-12l-31,-32l-32,-44l-31,-49l-32,-38l-12,-22l-49,-64l-34,-30l-46,-25l-29,-18l-19,-16l-15,-22l-18,-19l-30,-57l-17,-20l-13,-21l-36,-31l-13,-19l-17,-33l-1,-26l14,-45l24,-41l20,-47l17,-31l9,-10l22,-34l9,-31l13,-81l-1,-61l-7,-54l-2,-38l-14,-48l-12,-31l-36,-70l-41,-84l-25,-34l-42,-46l-38,-50l-21,-22l-18,-12l-19,-5h-30l-60,15l-21,3l-39,-7l-17,-9l-10,-16l-8,-52l-10,-17l-21,-24l-8,-18l-6,-39l5,-41l13,-29l13,-17l8,-19l24,-36l23,-20l30,-16l25,-17l7,-21l41,-61l5,-21l-3,-22l-18,-29l-11,-23l-58,-87l-6,-13l-3,-25l-1,-39l5,-21l13,-32l25,-30l12,-6l64,-52l27,-33l10,-19l19,-113l10,-40l26,-58l16,-60l4,-24l1,-33l-7,-29l-14,-14l-83,-50l-8,-7l-23,-49l0,-22l5,-58l8,-49l-10,-6l-58,-17l-6,-20l2,-21l22,-22l10,-18l9,-33l15,-26l15,-13l30,-9l6,-7l0,-29l7,-41l9,-17l26,-19l44,-13l24,-3l86,2l58,-1l46,-9l38,-16l37,-20l12,-10l53,-33l35,-29l16,-24l23,-26l47,-81l15,-41l6,-10l16,-60l7,-48l0,-16l7,-29l10,-87l2,-77l0,-66l-8,-73l-4,-10l-25,-90l-12,-38l-8,-39l-5,-46l8,-39l6,-14l19,-57l11,-45l5,-33l1,-51l-1,-22l-9,-31l-26,-57l-23,-22l-12,-4h-29l-30,11l-25,5h-36l-18,-7l-9,-19l-10,-37l-4,-38l2,-42l6,-26l11,-21l15,-18l19,-14l55,-22l23,-12l51,-17l22,-5l36,-3h30l13,-5l21,-24l35,-32l25,-20l44,-30l34,-16l32,-21l23,-23l12,-8l50,-65l26,-32l16,-23l12,-11l17,-26l14,-11l40,-47l11,-9l48,-58l34,-35l54,-45l26,-25l32,-23l16,-19l17,-29l18,-51l20,-78l6,-16l20,-97l4,-27l6,-64l9,-53l5,-54l4,-13l-2,-53l-4,-10l-18,-3l-44,3l-19,4l-43,28l-20,8l-30,-6l-12,-15l-5,-21l3,-47l18,-40l26,-45l29,-36l30,-28l17,-26l7,-38l11,-38l23,-55l33,-63l53,-49l33,-40l29,-45l20,-27l20,-38l5,-34l-8,-34l-16,-17l-22,-18l-28,-16l-80,-31l-33,-4l-9,-5l-32,-36l-83,-70l-73,-72l-32,-26l-13,-16l-16,-12l-23,-24l-32,-42l-9,-19l-5,-44l12,-28l22,-21l22,-29l12,-9l28,-34l21,-19l37,-43l9,-6l26,-32l20,-50l11,-51l3,-22l0,-40l-3,-42l-10,-33l-36,-72l-19,-26l-26,-21l-47,-15l-140,-27l-70,-19l-106,-34l-29,-12l-34,-18l-31,-23l-21,-10l-99,-77l-15,-9l-34,-30l-50,-54l-18,-34l-32,-44l-13,-29l-11,-42l0,-31l4,-22l19,-46l22,-69l20,-53l5,-25l25,-67l20,-73l3,-20l12,-38l12,-15l25,-19l39,-5l43,15l46,25l34,6l54,-9l19,-11l16,-16l24,-42l10,-37l0,-22l-15,-62l-15,-29l-13,-17l-26,-15l-53,1l-87,8h-59l-34,-5l-19,-8l-46,-29l-37,-48l-16,-35l-9,-65l-3,-105l0,-53l6,-58l14,-64l31,-106l20,-78l5,-11l9,-39l21,-69l19,-52l2,-16l23,-80l9,-21l26,-38l38,-36l42,-14l30,-4l158,-6l49,-5l50,-3l57,-1l24,-4l20,-7l28,-24l8,-15l12,-35l1,-58l-3,-11l-23,-25l-34,-15l-24,-4l-80,-5l-51,-11l-20,-1l-88,-14l-24,-6l-29,-12l-23,-23l-18,-23l-12,-51l-8,-48l0,-21l22,-78l33,-94l13,-52l15,-50l10,-64l-4,-65l0,-43l7,-34l5,-37l9,-57l2,-23l6,-35l14,-65l14,-80l18,-127l13,-47l9,-42l11,-42l26,-105l3,-23l17,-63l7,-71l13,-69l18,-36l19,-22l5,-22l63,-28l72,-11l66,-6l46,-14l35,-16l37,-12l22,-9l24,-5l43,-14l68,-14l71,-6h102l110,-5l40,-8l52,-23l23,-18l26,-31l16,-24l14,-45l1,-71l-4,-53l-14,-42l-39,-56l-16,-17l-30,-27l-12,-13l-23,-16l-32,-28l-31,-33l-26,-43l-5,-64l10,-56l10,-23l43,-59l15,-16l18,-42l5,-24l0,-23l-5,-29l-9,-21l-41,-60l-12,-28l-2,-34l18,-49l54,-73l23,-41l37,-61l10,-46l-3,-68l-11,-38l-25,-49l-16,-23l-17,-19l-7,-16l-32,-41l-26,-30l-16,-11l-18,-23l-30,-27l-28,-32l-32,-30l-49,-35l-45,-40l-39,-29l-31,-46l-7,-39l2,-20l11,-32l16,-26l20,-28l53,-59l24,-21l40,-29l50,-26l27,-19l22,-11l50,-37l37,-21l37,-18l13,-10l59,-35l59,-31l40,-23l60,-19l58,-25l22,-11l32,-12l23,-4h39l36,7l28,18l10,10l5,21l-4,43l-6,23l-16,31l-25,29l-7,11l-42,41l-19,28l-8,35l6,21l26,31l41,9h26l43,-3l62,-1l56,4l128,-1l44,5l148,-1l45,8l31,10l43,31l16,17l15,9l59,44l18,8l56,19l28,3l26,-7l40,-15l24,-16l28,-29l14,-18l33,-63l0,-34l8,-32l-2,-72l3,-20l30,-82l12,-45l13,-15l6,-32l14,-42l14,-19l18,-36l24,-42l13,-34l6,-24l30,-86l14,-50l6,-38l2,-84l-4,-52l-4,-89l-5,-34l0,-34l-5,-43l-18,-63l-13,-39l-13,-27l-19,-70l-4,-21l-9,-29l-3,-20l-16,-52l-7,-49l-1,-27l9,-51l18,-27l29,-51l39,-43l22,-16l59,-27l39,-6l193,-13l47,-10l35,-15l37,-22l20,-21l13,-24l7,-43l-1,-33l-12,-64l-15,-52l-9,-51l-20,-59l-8,-15l-21,-71l-14,-31l-10,-31l-17,-42l-28,-44l-93,-79l-19,-28l-4,-18l5,-34l1,-29l15,-13h11l18,11l15,16l22,12h23l21,-7l26,-25l7,-20l-15,-33l-13,-21l-37,-27l-23,-37l-10,-35l3,-20l13,-35l18,-27l15,-15l16,-10l29,-10l34,-6l21,5l30,1l20,24l17,14l19,4l34,13l21,2l58,-5l28,-25l37,-43l17,-23l18,-40l17,-26l25,-26l22,-27l33,-25l58,-18l29,5l12,16l19,47l9,40l12,32l9,44l17,13l41,20l14,10l50,16l32,3l23,7l26,-10l17,-12l17,-19l18,-27l25,-67l39,-67l8,-18l35,-52l29,-25l13,-15l36,-23l31,-11l20,-4l102,36l15,12l37,23l22,7l23,1l27,16l37,25l52,18l18,9l39,7l23,7h22l51,5l68,-4l52,-1l45,11l39,21l28,2l32,-3l42,-15l50,-34l43,-26l15,-13l26,-32l6,-31l15,-38l12,-22l34,-53l30,-32l38,-61l26,-74l5,-21l1,-47l-5,-54l-13,-34l-19,-24l-23,-21l-53,-32l-31,-6l-36,-13l-47,-35l-21,-25l-17,-33l-27,-33l-11,-18l-26,-27l-3,-19l-10,-37l1,-30l13,-43l13,-16l37,-68l24,-34l23,-24l20,-8l44,5l28,14l15,18l7,18l25,44l12,15l8,18l18,56l11,24l10,11l9,20l24,42l20,26l37,38l37,17l95,3l21,-2l25,-18l42,-18l33,-9l43,-22l38,-12l46,-26l34,-26l15,-15l10,-19l7,-30l10,-19l5,-19l2,-32l-6,-30l-13,-39l-24,-36l-16,-28l-3,-12l-20,-33l-14,-28l-17,-63l-3,-45l5,-23l14,-17l20,-36l23,-28l42,-30l22,-7l23,-2l43,4l31,12l18,13l21,22l11,17l19,50l29,60l4,17l11,70l4,46l6,23l8,65l-9,3l-7,27l0,19l-28,66l-6,33l1,32l76,63l24,9l71,48l31,9l54,8l38,-7l26,-12l35,-26l11,-4l26,-20l18,-28l1,-45l-9,-30l-19,-27l-11,-7l-44,-48l-15,-24l-13,-13l-25,-38l-11,-14l-14,-28l-18,-50l-5,-45l-9,-31l-10,-64l3,-30l2,-50l-2,-35l14,-69l4,-9l4,-35l11,-47l13,-36l17,-14l11,-17l17,-16l26,-17l30,-25l25,-31l23,-22l39,-19l25,-3l43,-10h19l48,-6l48,-1l42,-10l48,-21l51,-28l40,-18l53,-16l25,-3l17,-8l24,-1l24,-11l23,-15l65,-27l33,-9l35,-18l38,-18l23,-4l55,-23l39,-6l41,-11l22,5l83,-1l19,-2l12,5l17,-1l79,12l12,3h37l43,-10l72,-45l23,-49l3,-12l19,-46l12,-16l30,-25l26,-37l32,-28l19,-8l51,-8l21,3l30,16l27,24l18,26l24,25l44,26l34,30l19,7l18,12l79,24l29,5l20,-6l26,-18l24,-32l8,-29l17,-38l6,-92l10,-29l18,-27l17,-72l1,-16l15,-32l5,-30l1,-27l6,-29l8,-54l1,-39l9,-62l4,-40l3,-11l0,-31l-7,-30l-4,-55l-6,-24l-9,-58l-10,-30l-16,-37l-13,-63l-5,-39l-14,-35l-38,-23l-28,-23l-40,-47l-12,-31l1,-40l9,-36l31,-51l13,-16l11,-8l25,-32l30,-27l5,-14l12,-11h19l33,-6l36,-21l27,-29l34,-10l26,-18l29,-39l35,-12l59,-16l48,-19l32,-15l38,-37l29,-49l27,-68l15,-24l15,-33l15,-23l19,-20l50,-47l34,-20l31,-14l23,-21l12,-19l26,-53l36,-46l39,-45l45,-38l50,-25l50,-30l46,-14l7,-6l25,-3l46,1l34,-5l41,-17l36,-10l67,-6l51,-12l40,-13l33,-15l17,-4l20,-13l69,-4l38,-8l41,1l84,13l81,10l21,5l47,3l49,-7l94,-2l42,-6l36,4l14,-3l26,5l10,-2l26,-22l9,-20l6,-47l-2,-22l-7,-20l-21,-40l-12,-35l-12,-16l-26,-76l-2,-32l10,-39l11,-21l27,-32l31,-14l42,-16l23,-2l50,24l43,43l22,31l19,42l10,11l29,19l12,13l53,42l18,7l40,22l20,20l19,13l24,25l27,24l26,46l36,46l51,49l40,4l28,-9l29,-27l51,-36l64,7l34,-6l47,-25l16,-14l18,-28l32,-28l18,-11l23,4l22,-4l21,8l61,61l28,3l58,-1l15,-3l18,-11l9,-34l0,-116l-5,-33l9,-61l-22,-51l-8,-40l0,-34l5,-30l22,-34l19,-15l47,-25l38,-2l34,7l33,19l22,24l19,32l17,16l17,30l8,37l7,50l0,30l4,60l9,24l21,27l45,22l33,3l37,-5l33,-27l32,-43l11,-22l5,-21l-10,-89l-12,-36l0,-37l17,-13l10,1l31,11l30,6l27,23l13,22l16,17l18,11l33,13l23,24l17,36l9,27l10,12l31,13l36,2l23,-3l5,-8l1,-35l-2,-25l2,-30l8,-30l18,-19l29,-17l18,-6l49,-1l13,3l28,15l39,55l33,24l24,7h34l30,-10l39,-30l22,-24l14,-28l16,-12l13,-20l5,-21l19,-41l19,-22l21,-33l43,-11l36,8l29,14l59,50l23,9l33,-11l46,-53l17,-26l23,-9h20l24,17l13,16l12,31l8,63l10,23l16,-4l31,2l30,-12l16,-10l46,-38l35,-26l14,-16l10,-19l27,-24l19,-25l58,-49l70,-46l29,-9l40,-9l45,-1l50,16l48,26l25,8l36,28l38,38l48,32l38,30l19,20l32,10l74,-2l40,7l34,18l31,25l8,11l21,52l-4,53l-22,58l-5,36l0,21l7,19l39,42l24,34l7,21l19,19l19,37l3,19l-2,30l-13,49l0,12l13,52l20,22l21,9l49,8l30,-4l42,-11l29,-13l37,-28l22,-10l27,-19l32,-17l12,-10l69,-36l21,-1l79,-23l33,-6h30l21,6l35,25l47,62l17,29l20,25l19,17l22,-3l50,-19h15l44,10l63,48l18,26l26,48l37,65l22,14l21,2l34,-19l23,-26l49,-41l19,-9l35,-22l31,-16l29,-9l21,-1l35,3l173,35l77,-2l44,-15l71,-16l41,-17l23,1l30,-7l20,-9l45,-8l21,-7l55,-14l27,-13l45,-3l48,-30l19,-7l16,-8l27,-33l11,-20l21,-21l42,-19l27,-3l34,2l76,13l26,2l20,-5l29,-19l40,-16l53,-14l46,-15l37,-19l40,-10l62,-7l29,-12l24,-61l15,-14l19,-29l14,-14l29,-10l54,-7l111,-24l47,-20l13,-3l31,-19l6,-7l39,-31l6,-7l42,-31l22,-9l48,-9l43,-1l57,-14l63,-25l24,-14l30,-41l6,-11l25,-33l25,-45l34,-66l17,-25l34,-73l19,-27l42,-52l26,-18l28,-16l55,-47l20,-11l20,-23l37,-53l32,-28l38,-20l41,-3l33,1l39,7l9,5l57,15l16,10l37,12l25,2l20,8l33,-1l53,-7h31l27,5h27l54,-8l36,-8l54,-1l32,-6l36,-11l14,-14l-4,-12l-25,-47l-7,-21l-4,-32l4,-46l6,-22l14,-18l28,-24l37,-25l27,-29l8,-23l-3,-9l-18,-8l-38,-3l-43,-11l-34,-3l-18,-10l-2,-23l11,-29l13,-15l20,-11l35,-6l32,11l28,14l55,2l34,-7l12,-6l54,-17l22,-14l13,-18l12,-40l12,-29l15,-68l24,-74l14,-22l36,-34l3,-8l34,-28l31,-31l9,-6l36,-38l17,-13l91,-48l10,-8l36,-13l12,-7l38,1l18,12l20,7l42,5l33,7l40,-3l47,-21l25,-15l33,-16l28,-21l17,-23l37,-22l17,-6l35,-19l29,-7l9,3l81,-31l35,-18l55,-17l42,-17l58,-22l32,-3l12,-4l48,-6l43,-4l41,-8h47l50,7l11,5l48,-3l50,-9l25,-8l21,-14l52,-24l34,-14l30,-6h21l31,18l17,21l26,24l-1,19l-6,9l-37,16l-37,29l-5,32l0,31l-10,17l-32,19l-15,20l0,23l12,20l9,6l32,-7l37,-16l25,-17l24,-6l24,4l32,18l15,21l24,22l43,30l24,6l31,3l47,-11l18,-6l38,-4l40,11l22,13l33,30l26,32l5,13l-1,25l-4,34l-16,26l-30,33l-20,30l-6,19l0,19l10,31l16,10l19,6l29,-1l43,-12l25,-18l30,-41l23,-48l45,-53l31,-15l30,5l37,17l16,11l3,33l-11,28l-17,28l-22,24l-9,33l2,33l8,20l22,36l28,13l33,3l33,-23l14,-31l2,-51l0,-48l6,-24l10,-21l43,-28l39,-13l51,-13l13,-14l-9,-19l-20,-19l7,-20l36,-18h20l56,28l20,-7l30,-67l15,-26l33,-25l40,-12l22,1l59,23l26,13l46,-1l21,-5l29,-13l13,-14l17,-36l-3,-39l-13,-43l-20,-21l-17,-12l-24,-32l3,-21l20,-38l19,-11l61,2l54,-13l45,-6l30,3l44,25l26,4l19,-1l42,-21l12,-17l5,-21l-3,-38l-9,-16l-27,-21l-37,-12l-12,-8l-37,-12l-32,-8l-10,-6l-29,-31l-15,-30l-9,-52l0,-35l5,-50l11,-36l23,-40l29,-17l32,-11l27,-3l21,3l56,28l22,2l20,-8l37,-24l9,-14l19,-19l30,-46l16,-17l14,-32l39,-62l18,-75l-6,-45l5,-36l37,-34l6,-27l1,-26l7,-34l13,-29l16,-12l32,-11l34,-27l42,-25l16,-28l-1,-23l-16,-57l-1,-53l11,-21l18,-7l29,1l32,-9l23,-4l18,-25l-3,-44l-31,-50l-11,-41l-5,-47l1,-19l12,-32l30,-37l21,-18l61,-23l94,6l82,-28l2,-55l12,-41l30,-48l27,-14l54,10l22,38l32,48l23,29l38,3l27,-3l51,-26l5,-13l5,-37l31,-36l45,40l12,76l40,40l59,10l53,5l52,6l50,-23l13,-22l39,-41l21,-32l31,-20l57,-4l37,-8l29,-15l15,-14l27,-17l48,-11l35,-16l32,-37l4,-57l56,-58l62,-9l18,9l25,22l5,39l23,18l76,5l51,28l34,37l59,-17l55,-8l56,-1l40,-7l39,-13l41,14l35,7l15,-6l59,7l50,12l-34,37l61,15l66,-18l4,-81l-8,-41l3,-40l20,22l47,-7l20,-14l20,16l12,-15l27,-48l65,-18l9,57l40,-3l45,10l-42,14l27,27l75,2l-5,-70l-17,-57l50,-9l-9,37l45,18l46,-8l-37,-4l58,-40l45,-52l-36,-32l18,-48l-11,-57l-40,-63l34,-42l36,21l19,-51l35,-70l-15,-14l59,-6l14,32l65,26l46,-14l37,14l49,12l23,52l10,34l24,54l36,46l75,-27l33,-7l55,14l42,-16l83,-3l60,14l67,27l34,27l10,58l-2,53l25,32l10,28l61,22l41,33l62,30l57,19l51,51l22,66l23,43l57,49l37,41l50,43l39,45l10,62l29,50l90,99l35,42l4,29l127,6l51,-12l25,24l40,56l50,14l12,44l72,-55l62,-42l57,-23l66,-9l16,36l10,39l-3,107l9,27l13,19l-4,39l26,42l52,52l35,55l18,38l42,73l10,24l16,9l31,7l49,25l41,9l49,-1l20,3l27,16h21l20,5l30,-27l10,-3l19,8l20,11l14,16l12,43l32,24l8,27l29,35l10,22l4,23l10,18l44,28l34,18l23,25l25,18l57,35l18,14l54,35l25,29l24,38l18,43l4,14l6,55l12,29l12,36l14,15l28,14l28,28l8,21l3,46l8,21l20,27l24,38l16,35l19,11l21,-4l10,-7l28,8l21,-1l17,10l12,39l20,24l3,48l7,21l17,18l25,15l37,38l14,29l21,30l18,38l43,71l7,14l7,52l9,35l29,69l6,35l10,20l15,16l34,22l21,18l36,22l8,12l15,37l18,36l8,11l48,33l41,21l43,7l20,6l44,23l27,22l20,22l43,62l49,55l22,18l45,27l46,25l27,24l24,31l21,17l21,30l13,32l13,19l27,14l11,-1l20,11l35,30l36,46l20,33l52,78l16,43l1,22l-6,60l-18,15l4,33l0,41l-9,42l19,43l3,32l-36,5l-22,45l-9,28l32,43l6,36l14,19l25,69l38,32l48,24l-5,39l-15,47l-13,62l32,28l-34,16l-19,44l30,27l50,5l41,16l-12,23l10,38l-29,20l24,14l8,32l-37,-5l29,32l2,28l17,23l-10,22l-30,17l-4,39l1,40l-31,23l-33,73l-298,618l-43,8l-48,16l-27,-25l-35,-21l-59,-11l-43,10l-33,-12l-33,-7l-37,-16l-28,-23l-36,-9l-51,-23l-46,7l-120,-27l-40,-38l-43,-28l-52,-10l-47,18l-39,-28l-32,-19l-40,5l-56,-10l-45,-4l-21,25l-44,23l-27,26l-29,36l-58,11l-34,27l-16,45l-49,17l-25,10l-33,7l-29,16l-30,12l-44,13l-33,27l-22,36l-25,11l-99,37l-40,13l-23,26l-54,24l-21,-1l-49,-13l-20,-22h-25l-18,11l-40,-2l-4,33l-35,26l-56,10l-33,-19l-16,23l-25,15l-33,-1l-19,24l-16,32l-16,11l-27,10l-12,-3l-13,19l-21,3l-10,8l-25,-9l-24,-1l-26,-12l-42,12l-20,-6l-29,-4l-35,21l-24,29l-30,6l-26,19l-23,-5l-36,25l-31,4l-21,25l-18,32l-30,7l-24,-10l-22,-25l-29,18l-57,27l-14,18l-1,19l-25,16l-3,13l-19,14l2,27l-4,40l-20,6l-32,-1l-31,6l-19,27l-25,-12l-19,-5l-14,13l-23,-28l-19,10l-11,-9l-2,-21l-42,-19l2,14l-12,9l-25,-4l-8,-15h-36l-34,30l-9,-21l-17,6l-20,20l-26,2l3,23l-34,25l-20,11l-15,29l-56,22l-24,13l-10,26l-14,14l0,10l-40,50l-209,299l-311,448l-103,145l-211,308l-6,-97l-15,-55l-30,-32l-67,-26l-27,1l-13,-5l-48,-46l-30,-33l-25,-34l-10,-39l0,-34l-5,-26l-9,-31l-17,-21l-23,-23l2,-13l-5,-34l-17,-33l3,-25l-8,-45l-18,-1l-53,-50l-51,-30l-47,6l-55,-9l-46,-3l-56,-24l-31,-33l-51,-50l-34,-46l-34,-33l-64,5l-87,-13l-49,19l-40,21l-34,9l-55,5l-52,24l-36,6l-68,-2l-86,-7l-99,-1l-51,4l-76,-42l-111,13l-68,2l-37,8l-50,-10l-57,-22l-52,-18l-52,-26l-27,9l-35,5l-50,-26l-14,4l-50,-9l-57,5l-56,11l-46,17l-42,-8l-54,10l-89,8l-60,10h-37l-84,13l-39,5l-35,9l-30,12l-30,6l-40,-4l-31,8l-14,8l-32,3l-48,-20l-13,-2l-49,8l-34,-6l-26,-10l-33,-3l-33,3l-20,-12l-35,6l-82,8l-50,-2l-57,-6l-78,-13l-24,-8l-69,-17l-13,-8l-57,-9l-24,-6l-52,-6l-31,4l-23,27l-34,12l-46,1l-43,-10l-44,-9l-12,-15l-27,-43l-4,-30l6,-8l19,6l-7,-22l-24,-32l-15,-29l-16,-21l-25,-24l-12,5l-8,17l3,13l21,21l-10,18l-19,-8l-12,1l-18,11l-21,-4l-20,6l-13,-15l0,-20l8,-36l-11,-18l-22,-27l-13,-39l1,-32l-6,-12l-11,-2l-17,26l-23,3l-31,-13l-26,-21l-2,-32l-21,-9l-15,12l-17,28l-7,18l-17,10l-12,-4l-32,13l-29,-33l-21,-6l-48,12l-17,10l-6,19l-3,32l-21,-6l-19,-43l-15,-5l-18,58l-19,4l-32,-19l-19,-15l-7,-21l6,-37l-9,-21l-42,-4l-35,-31l-14,-17l-13,-4l-64,2l-30,-11l-33,-28l-27,-20l-3,-10l2,-47l24,-20l-2,-19l-16,-14l14,-37l7,-7l18,2l6,-8l-3,-45l7,-6l4,-22l-4,-11l-31,-41l-10,-4l-23,18l-22,-26l1,-19l-13,-15l21,-7l7,-9l-10,-19l-17,-9l-11,-28l6,-7l-9,-18l8,-20l-13,-21l-10,-7l-21,2l-22,8l-19,2l-16,25l-15,56l-12,-2l-14,-18l-14,-13l-22,3l-14,-3l-8,6l7,33l-11,11l-42,-33l-23,-10l-6,33l12,25l-7,17l-26,11l-27,19l-32,14l-20,-8l-12,-19l-8,-50l-12,-18l-13,5l-30,27h-21l-17,16l-19,-32l-4,-19l2,-19l17,-10l3,-13l-4,-20l-29,-39l-43,-74l-11,-10l-14,2l-16,15l-26,40l-3,20l4,37l-9,4l-13,-17l-23,-9l0,33l-16,9l7,20l-22,7l-16,13l-39,5l-9,4l-9,19l-17,-13l-21,6l-11,-19l2,-10l21,-5l0,-11l-26,-14l-32,-34l-16,-11l-15,3l-22,16l-16,18l-6,18l18,42l18,23l23,23l-9,19l-29,22l-14,32l-13,15l-7,32l-7,9l-14,37l3,11l22,21l25,35l5,19l22,50l10,34l1,46l8,41l2,50l-1,31l1,44l-3,12l0,59l-10,53l13,18l35,11l36,61l8,38l13,21l2,21l-24,25l-6,25l-14,32l-3,20l6,25l-10,28l7,9l38,10l33,-6l14,12l8,27l19,8l11,15l3,42l-3,21l3,23l11,31l13,17l11,1l12,13l11,52l-26,34l-17,31l9,30l24,25l20,6l17,24l12,4l15,19l28,4l12,21l-5,16l-10,12l23,34l13,43l3,19l-1,31l-7,26l-9,24l3,18l16,14l10,26l-2,11l-12,12l-3,36l2,12l26,32l11,30l16,19l-8,21l2,14l12,21l0,14l15,23l-2,37l8,33l-27,40l-4,38l8,22l-1,26l8,30l18,10l23,-2l14,17l34,30l22,8l14,31h22l18,20l20,5l19,14l19,35l-2,41l19,17l-7,27l14,17l-9,39l36,6l28,53l2,25l12,22l-1,20l-29,36l2,11l24,-2l3,17l-7,15l-32,26l-49,59l-20,53l-11,58l-16,28l-21,5l2,29l25,26l-9,17l-10,6l-12,20l16,6l-1,15h-14l-5,10l22,3l4,26l-19,48l6,23l-13,2l-26,36l-1,14l-23,13l-6,8l5,24l-4,13l-14,14l-66,22l-21,13l-16,21l-37,38l-39,15l-25,13l-21,-2l-16,5l-27,-5l-17,-16l-27,-8l-14,1l-22,24l-30,-3l-14,14l-20,8l0,15l-19,10h-21l-39,30l-38,2l-34,27l-31,30h-27l-12,15l-13,36l-17,12l-13,23l-34,40l-3,22l-24,25l-21,10h-32l-19,14l-11,36l-29,29l-3,16l-15,16l8,29l-3,10l-15,12l-13,3l-3,18l-30,24l-24,26l-45,29l-4,25l-9,24l-1,24l-17,14l-4,27l-26,32l3,17l-12,16l8,25l-16,18l11,22l11,-2l16,28l7,27l17,23l12,8l11,23l15,3l25,43l36,53l28,19l-2145,4l-15,27l-17,41l-28,45l-2,16l-41,47l-37,32l-24,30l-9,26l-16,23l-30,27l-25,29l-13,43l23,40l22,31l6,17l-4,30l5,14l54,21l34,21l54,24l9,21l13,49l42,28l28,15l24,26l68,32l36,10l61,-17l16,16l24,14l28,22l26,12l8,49l3,29l29,29l9,17l7,42l-5,104l-20,35l-164,66l-128,74l-41,11l-92,3l-71,34l-33,32l-8,16l-14,1l-40,-13l-27,9l-29,20l-22,-1l-16,5l-36,20l-13,1l-29,-4l-23,11l-20,18l-41,32l-24,21l-27,11l-18,15l-26,-6l-44,-5l-21,2l-48,2l-25,74l-8,17l-24,16l-3,14l3,22l-9,16l-26,9l-18,20l-5,15l-22,35l-2,20l-27,26l-1,14l-17,21l-26,10l-13,8l-22,47l-9,30l-17,13l-5,27Z"
     transform="matrix(1.0000001e-4,0,0,-1.0000001e-4,5.1111111e-7,0)" />
</svg>
