<?xml version="1.0"?><svg xmlns="http://www.w3.org/2000/svg" version="1.2" baseProfile="tiny" width="1080" height="1080" viewBox="-64.8253 -5.2718 5.9384000000000015 6.852399999999999" stroke-linecap="round" stroke-linejoin="round"><g id="UF14ME" transform="scale(0.0001,-0.0001)"><path id="1401" d="M-641844,34893l231,-243l127,-251l7,-361l80,-191l-53,-66l-19,-68l67,-65l74,-10l2,-68l-36,-60l21,-24l2,-31l23,-7l45,11l17,-72l77,-13l29,-25l2,-51l-20,-18l-13,-55l-19,-15l10,-5l4,-13l29,-45l-11,-70l-29,-28l9,-34l0,-28l-20,-11l-7,-34l-25,-23l46,-27l12,-25l1,-44l6,-39l-42,3l-44,-30l-28,-2l-6,-26l-45,-13l-30,9l-14,-24l-4,-28l-62,-24l4,-36l-34,-31l-21,-30l-32,-13l28,-47l-59,-7l-22,-48l13,-37l4,-57l18,-31l11,-33l-9,-65l-19,-89l-20,-58l-56,-20l-17,2l-17,-5l-21,-32l-3,-42l-20,-59l-27,-25l-17,-33l-7,-27l8,-31l-49,-90l0,-53l-60,-12l-23,-33l-33,-16l-28,12l-46,43l-49,-47l-18,-28l-39,-29l-93,-31l-15,-21l-16,-40l3,-53l-28,-75l0,-44l25,-38l46,-119l-5,-61l32,-45l-2,-28l-24,-26l0,-55l48,-1l57,-83l90,-6l64,-77l72,-61l110,-58l-45,-71l43,-43l66,-1l103,-40l-9,-27l26,-38l81,-36l12,-42l23,-65l-21,-69l-55,-26l51,-56l-51,-78l-55,-87l-32,-69l87,-22l74,9l53,47l75,-37l81,13l50,-26l14,-45l53,-111l52,-36l-23,-67l14,-57l69,-19l34,-52l11,-29l29,-41l-9,-48l30,-22l71,-16l47,-58l66,-26l26,-54l-40,-44l-31,-72l3,-47l60,17l19,-60l-5,-62l-82,-108l-7,-58l26,-38l83,-6l71,-51l82,-90l13,-49l43,-105l48,-36l9,-50l68,-9l16,-31l58,-25l62,-71l62,-58l-21,-50l-13,-121l12,-49l27,-43l-20,-83l41,-38l81,-5l53,-33l17,-37l-26,-64l-54,1l-8,-68l27,-23l-16,-15l14,-22l12,-43l-6,-26l29,-24l17,-25l37,14l30,-11l21,-24l13,-19l36,-20l9,-19l-29,-23l-12,-46l5,-50l-37,9l-52,-12l-7,-45l-36,-13h-67l-18,-44l75,-51l1,-37l18,-9l14,-41l34,-13l60,-2l18,-60l-23,-17l3,-42l-14,-42l-7,-32l1,-20l17,-11l-7,-40l21,-54l6,-44l-14,-18l23,-31l-49,-30l0,-39l-30,-57l-30,-37l-63,-21l-43,-25l-5,-25l28,-40l-56,-30l-7,-23l-1,-56l17,-57l-41,-46l-42,-12l-4,-42l-27,-21l-45,-30l-27,-39l19,-33l-5,-51l-45,6l-14,-26l-10,2l-38,46h-46l-22,-53l-17,-46l-23,-28l6,-29l14,-32l22,-77l-37,-15l-1,-31l15,-2l1,-49l8,-44l15,-33l-13,-30l1,-47l-6,-51l4,-29l-18,-21l-66,-15l-21,-30l0,-17l-19,-25l-2,-12l-18,-18l-14,-23l11,-36l15,-12l29,-32l33,7l43,-7l15,-6l23,12l18,-10l10,-36l22,-23l-5,-25l11,-26l49,4l17,-37l0,-44l11,-47l35,24l14,-25l3,-20l28,-30l5,-27l44,25l17,29l16,16l9,54l43,21l22,14l78,-17l26,-30l58,-33l49,-7l44,-51l58,-19l39,17l41,14l20,43l62,18l3,-11l12,-1l11,-26l327,146l119,57l101,37l144,68l484,213l36,9l120,58l59,22l316,139l26,12l110,53l60,22l94,45l21,5l71,30l128,65l92,30l44,24l86,35l48,27l63,23l63,28l46,14l39,16l43,30l38,11l101,51l57,110l27,34l13,9l41,1l21,14l10,29l14,14l23,16l30,14l26,1l50,-43l25,-33l26,-11l21,-23l28,-24l21,-28l43,-20l14,-10l41,-60l20,-24l40,-35l28,-8l70,-11l70,6l70,18l60,-2l66,8h23l36,-10l9,-8l15,-36l15,-12l21,-8h39l10,4l18,25l11,6l41,-12l41,-18l32,-20l43,-18l31,-18l18,-15l25,-14l34,-14l43,-23l21,4l13,14l29,23l27,14l30,19l15,14l23,36l31,29l26,12l24,5l13,9l35,6l8,5l21,26l7,14l15,45l31,23l19,45l33,4l26,9l23,18l11,16l10,28l13,9l5,14l-2,13l-27,8l-6,9l2,27l-14,27l29,20l-14,41l7,27l-1,11l-12,9l-27,4l-18,16l1,10l21,8l-11,23l1,11l12,21l-19,6l-9,13l11,7l-1,18l8,13l-15,2l-13,64l15,6l21,-7l15,7l21,48l26,-1l8,7l7,31l8,1l15,-12l19,-3l21,12l-14,17l2,19l-5,20l2,11l-18,14l17,13l-3,19l9,27l-2,6l-24,14l-11,-6l-18,48l-27,-5l4,16l28,10l13,-2l5,23l19,6l7,24l10,6l-14,12l3,15l-7,30l-18,-11l-19,2l-15,24l6,23l-18,10l2,12l12,22l24,22l2,12l-19,13l3,15l9,13l-6,15l18,13l32,4l12,5l12,-3l-2,29l-24,31l-17,17l7,17l16,-7l23,-1l17,7l-1,22l6,8l22,8l3,30l-4,12l-19,10l-11,13l-17,-3l-16,16l7,26l-12,13l5,38l10,10l18,-1l8,16l19,3l5,7l0,43l-12,12l4,25l-7,22l14,11l-2,16l9,30l10,-2l19,20l17,-15l32,-16l11,10l11,39l0,16l22,24l19,7l7,34l11,7l21,-12l18,18l20,-21l24,-5l15,-13l-1,-12l14,-11l12,6l23,20l33,12l22,-17l23,-3l32,-15l7,-10l16,-2l11,-10l9,-18l14,-17l25,-16l29,-6l14,1l14,-14l14,-6l10,-31l10,-10l21,9l32,-16l19,-6l13,-10l33,-11l36,10l18,-10l20,13l40,7l10,18l13,8l54,11l5,-12h18l3,-16l13,3l16,-14l-2,-14l-9,-14l19,-12l-2,-12l12,-5l16,7l0,18l12,24l-5,6l-17,-3l6,17l24,13l-1,31l-7,12l16,12l1,12l-21,7l12,13l-11,14l2,9l23,-6l12,13l1,16l21,-7l14,12l9,-1l3,-15l19,32l14,-3l7,-15l11,9l13,-1l16,9l23,5l6,24l17,-29l13,11l7,-12l-13,-11l17,-7l13,9l-6,14l11,10l21,-15l8,-13l30,15l-4,19l9,1l9,-20l27,12l7,11l16,-12l11,13l16,7l8,-8l16,-2l-8,-16l11,-7l11,8l34,-4l6,-9l-1,-18l13,4l-2,14l12,5l7,-22l-9,-8l13,-14l9,7l-1,28l5,8l16,-6l15,6l20,-7l11,-30l5,18h9l12,-11l6,9l-3,14l22,2l-5,11l23,8l-4,-14l9,-10l8,27l-3,14l9,27l22,3l7,-10l20,16l-1,22l16,5l17,-1l5,7l-5,16l24,2l18,14l-12,23l6,11l14,-7l4,-14l19,3l-16,26l18,7l6,20l14,-7l4,15l-18,4l2,10h14l15,-13l9,4l-6,19l-19,9l6,12l11,-4l13,4l6,10l19,5l18,-4l10,-11l9,4l-18,39l26,-2l4,11l18,-16l16,3l23,-3l0,11l-10,11l11,9l17,-8l12,22l19,2l4,14l25,-5l8,30l9,14l12,-12l10,17l30,-1l-9,23l11,4l20,-24l3,17l18,-14l11,17l17,-7l-5,-17l8,-12l19,27l-4,15l17,19l9,-1l29,-26l20,-9h12l12,8l14,-4l10,-25l-4,-10l-13,-6l2,-10l14,-5l28,4l11,-12l17,21l20,-19l13,5l11,17l8,-5l9,-35l11,-2l2,24l12,8l3,17l14,9l13,-8l-1,-19l12,-2l7,19l19,4l4,11l-20,8l14,12l17,-8l7,-28l11,2l9,22l-19,10l10,13l8,-14l19,-4l7,-20l13,-5l6,8l-1,16l-16,18l4,12l23,-17l21,1l13,-14l19,-2l8,-18l9,-9l37,-6l6,-7l-13,-38l21,-18l2,-24l23,4l14,-24l17,-6l8,-38l6,-6l16,1l9,11l2,18l14,1l16,-26l17,6l-6,14l10,8l15,-6l4,10l-10,8l3,12l14,-3l6,-16l12,-5l11,10l1,-32l13,-14l10,-3l16,7l10,-2l7,-15l17,2l13,13l4,-16l-8,-20l17,4l6,26l13,-1l1,-21l-13,-12l17,-10l21,19l5,-2l0,-27l15,-3l7,12l13,-4l-2,-17l8,-4l16,9l5,20l18,4l10,-14l12,4l18,17l15,-4l8,-15l15,8l0,16l16,2l1,-19l-14,-11l1,-9l16,-9l14,-18l34,13l10,12l-11,15l6,12l11,1l19,-12l16,-3l-4,-35l-21,-11l1,-10l14,-1l11,15l15,-2l8,-15l49,-1l9,2l12,26l39,7l20,14l20,5l28,-9l1,-19l15,-6l20,15l22,3l10,-14l-7,-18l-20,-10l-14,1l1,-15l40,-3l13,-12l13,40l0,13l9,5l14,-12l-1,-27l6,-9l26,30l41,-35l23,4l11,-3l0,-28l19,5l16,-2l3,12l-15,13l1,17l14,-5l14,-23l12,9l4,12l-12,29l2,7l27,-1l17,-5l-5,26l-14,7l2,13l26,-13l10,-11l19,31l22,1l8,-20l18,4l10,27l13,7h35l15,5l10,11l-1,44l18,10l15,-24l-5,-35l9,-15l48,10l19,11h9l15,-12l16,-20l20,2l21,-9l12,-29h13l2,11l18,1l14,10l9,30l28,14l-12,21l-1,12l21,5l18,22l14,6l7,-19l17,-11l29,-29l39,-7l33,-11l23,-2l30,12l21,4l36,12l12,-6l39,-12h20l29,-26l20,-9l24,5h19l6,-6l3,-22l-11,-3l-6,13h-9l-15,-36l20,-18l5,-33l28,-37l8,-17l24,-20l15,2l19,15l27,-12l22,-6l13,-14l28,-9l25,7l25,20l14,-3l12,-17l11,-6l36,-6l22,-11l6,-10l-1,-30l24,-17l16,-15l21,-11l42,-14l21,-2l19,6l24,-8h34l16,-5h20l0,11l14,13l24,-15h16l9,10l22,11l19,-1l6,-21l10,-12l15,3l15,-4l15,4l21,19l31,-6l24,7l15,-6l9,-21l18,-18l17,-8l15,3l1,20l12,21l21,11l21,1l12,-6l1,-14l19,-31l21,-14l37,-15l33,-21h17l8,8l-6,15l-13,1l-5,10l17,8l27,67l9,16l3,18l36,58l6,30l-7,21l7,23l15,13l17,2l22,-13l11,-14l-4,-24l2,-28l9,-36l2,-27l29,-6l24,2l17,-9l17,-31l20,-19l3,-11l-5,-28l9,-25l36,-11l31,-13h10l0,26l9,6l19,-14l5,-17l15,-2l25,-11l38,-43l26,-24l17,18l20,-23l12,-4l14,-14l-7,-25l79,-66l11,-16l-4,-56l11,-18l97,2l68,11l30,8l35,20l14,2l36,-7l34,14l29,16l49,-1l15,-13l5,-25l40,-37l16,4l17,-4l24,-23l50,17l70,10l24,-18l19,-4l19,-30l72,-36l9,9l18,-10l31,-5l29,6l13,-3l26,-21l26,-47l21,-22l25,-12l10,-15l-3,-35l5,-24l21,-24l23,-5l57,22l76,-2l4,11l-15,9l-11,29l6,42l10,13l44,-10l51,-20l34,-6l23,20l12,18l23,1l52,-26l16,-2l47,14l31,22l-4,19l0,25l9,7l25,-14l24,-3l69,4l13,14l18,8l-5,22l18,49l16,10l40,-3l79,35l23,3l11,20l-10,50l5,24l13,11l9,-2l14,21l19,1l60,-36l16,36l23,18l22,-15h48l16,-14l40,-8l15,-5l11,-20l0,-22l14,-7l36,19l26,-5l31,5l16,8l35,7l52,4l39,4l36,17l29,2l52,11l25,1l21,11l40,10l30,5l36,11l35,9l28,3l23,10l74,20l23,10l6,12l26,10l33,24l23,26l17,10l56,2l13,17l10,22l42,32l98,41l7,9l1,19l37,18l10,1l10,-11l45,-1l27,-15l54,14l42,2l14,17l3,27l17,14l26,-5l27,-9l18,3l39,22l23,8l28,-2l12,25l21,19l11,6l46,-10l27,-15l0,-42l11,-2l25,5l38,4l24,12h15l44,12l17,30l13,7l55,4l42,8l39,-8l39,-1l33,-11l14,3l14,-11l26,-12l41,-12l41,-15l31,-4l35,-11l23,4l24,7l33,-8l71,6l11,-11l44,-13l45,-9l16,8l18,24l14,-1l7,-14l44,-13l19,-22l21,-12l81,-22l44,-11l32,1l51,-27l26,-5l28,-9l47,-6l125,-26l67,28l35,3l31,-6l38,-17l38,-23h30l28,7l34,-3l43,6l30,-7l21,-10l28,-6h77l68,-12l41,10l39,1l37,-5l26,1l35,16l46,62l28,14l55,-12l45,-14l-1,-7l-29,-13l-9,-16l0,-15l53,-18l8,-8l3,-28l19,-31l17,-8l16,3l39,14l53,-9l42,6l78,-6l35,-5l44,5h23l44,-7l87,-3h41l61,5l37,-10l21,-26l12,-2l28,4l63,19l31,4l50,-10l102,1l26,3l59,11h22l107,-14l17,-13l37,-42l16,-6l34,-3l20,-13l20,-3h28l17,-6l11,-18l25,-17l12,-3l39,2l27,-8l56,14l42,-6l70,-36l15,-6l165,14l19,3l14,11l28,14l22,6l39,-6l20,-8l5,-28l-8,-25l39,-30l17,-9l3,-22l9,-34l13,-11h18l30,5l32,-8l18,2l29,19h32l23,-21l32,-43l-4,-19l-31,-64l-3,-68l7,-30l42,-52l33,-8l45,5l32,1l35,-6l89,-18l43,-25l30,14l12,9l27,31l25,44l6,47l8,36l15,18l90,28l26,-8l15,-14l13,-42l37,-66l19,-19l28,2l57,24l40,2l36,-17l47,-28l38,9l9,8l9,28l3,22l19,9l15,-3l57,-29l11,-9l17,-36l14,-44l19,-14l32,-9h47l42,9l63,37l58,15l41,34l53,16l43,31l22,-2l49,-27l39,-45l27,-11l15,8l11,15l-11,34l0,23l17,24l121,60l67,-5l29,-1l45,19l30,34l15,27l105,76l18,6l14,-9l0,-9l-10,-16l-6,-22l7,-16l31,-20l13,1l10,15l6,19l17,11l41,-11l52,-30l20,-2l40,5l40,16l34,8h32l27,12l31,25l5,19l4,41l-9,26l0,22l7,26l0,36l-29,69l-21,26h-31l-10,-13l3,-31l-9,-17l-20,-5l-18,6l-12,36l5,33l10,28l13,15l-5,18l5,24l20,19l5,13l7,30l0,43l15,22l37,10l12,6l3,46l16,20l32,10l14,20l8,32l14,20l16,11l27,7l36,14l36,-9l32,4l14,9l11,23l20,16h15l19,-9l37,1l22,8l28,16l11,23l0,34l-5,22l-9,14l-25,29l-17,4l-22,-14l-30,-39l-13,-5l-23,3l-19,15l-13,31l-18,14l-31,6l-28,17l-8,10l-17,44l2,15l10,19l27,25l40,56l8,19l2,28l7,25l14,20l28,30l7,43l26,33l1,46l11,30l21,23l30,18l91,142l44,38l91,69l36,38l44,58l34,27l39,53l58,43l39,9l34,26l39,39l42,68l60,63l19,26l18,35l23,38l25,6l48,-18l35,11l34,17l52,19l28,28l57,12l42,5l63,19l66,39l33,10l39,-8l31,-21l8,-17l22,-28l12,-2l27,4l14,-11l10,-15l13,-38l30,-29l8,-16l3,-28l26,-3l21,9l47,-26l3,-23l-8,-41l8,-31l14,-22l17,-17l16,-11l23,3l30,8h17l8,-8l8,-36l0,-25l6,-17l33,-30l78,-48l28,-8l34,6l35,-9l64,-44l67,-20l19,-14l17,-2l22,16l24,2l55,32l32,-8l15,-18l20,-16l63,50l23,7l25,-12l19,-17l33,-37l31,-15l22,8l-1,47l19,36l30,11l24,-6l16,-14l8,-49l14,-72l6,-40l21,-30l23,-19l44,-23l26,-17l17,-2l52,13l36,-19l25,-25l23,-11l64,-14l77,-11l45,-28l153,-139l44,-64l17,-5l66,28h14l17,-22l11,-78l-3,-20l-8,-14l-45,-33l-19,-20l-11,-16l-11,-25l0,-20l11,-11l19,-2l70,-37l19,-19l31,-61l19,-67l31,-44l25,-114l0,-95l8,-16l20,-14l63,-3l20,-14l5,-19l-2,-47l8,-17l19,-6l23,6l44,36h11l14,-17l20,-41l-6,-56l3,-17l11,-11l53,-25l0,-25l-23,-58l-2,-28l8,-36l14,-17l22,-5h36l22,-6l42,-16l39,8l14,-6l5,-25l-19,-11l-36,-8l-11,-17l0,-14l16,-19l92,-67l53,-16l14,-23l5,-22l-2,-25l-20,-36l-22,-14l-14,-17l-6,-22l10,-40l38,-72l48,-77l11,-94l1,-46l20,-18l36,8l17,14l18,59l51,45l36,18l34,-2l39,-9l133,-33l31,-22l50,-90l25,-41l16,-8l31,-8l53,22l52,11l45,25l75,78l19,50l-2,16l-25,56l-3,14l5,19l24,25l36,2l65,-18l35,5l14,17l12,44l12,6l38,-30l17,-44l50,-32h19l155,100l113,45l82,53l68,9l28,13l22,15l30,35l9,29l-9,111l11,23h17l16,-9l14,-38l4,-80l-4,-61l5,-23l38,-18l72,-13l81,-21l32,-3l30,8l17,17l8,19l19,70l14,21l18,12l37,-6l63,-22l49,-30l33,-77l21,-40l33,-11l94,-15l32,-9l31,-12l29,-25l19,-31l19,-38l32,-18l27,-10h33l34,16l16,23l11,38l0,100l20,42l17,20l25,-5l20,-21l39,-75l24,-55l16,-8h25l26,11l27,8l23,13l34,-12l35,-19l75,-43l80,-39l25,-36l14,-31l31,-13h22l31,14l25,-12l11,-15l28,-49l27,-58l9,-50l8,-22l17,-11h25l33,19l36,31l22,11l20,6l36,-6l28,-14l25,-25l27,-42l42,-19l47,-50l64,-45l25,-41l22,-78l0,-122l20,-81l5,-30l-2,-78l-6,-44l-14,-37l-19,-33l-6,-42l22,-52l-5,-28l-20,-14l-80,14l-20,-11l-11,-23l-2,-25l19,-77l-6,-20l-44,-55l-42,-89l-39,-70l-30,-41l-14,-28l6,-11h13l20,14l28,2l36,-13h78l52,-12l125,-63l45,-17l64,-3l25,-8l16,-25l6,-81l-6,-61l-8,-19l-28,-20l-153,-139l-13,-16l-9,-20l6,-22l11,-19l17,-17l22,-8l22,5l17,11l14,25l5,31l9,17l36,19h22l44,-6l78,-41l39,-28l105,-67l89,-88l34,-48l11,-30l-3,-23l-11,-16l-20,-14l-66,-20l-25,-19l8,-17l36,-5l139,-56l22,-3l28,11l33,37l59,47l16,-108l-13,-67l-28,-47l-42,-56l-22,-58l-14,-56l-3,-55l3,-48l11,-27l-16,-39l86,-75l19,-53l11,-70l-6,-102l-55,-217l-11,-97l-28,-67l-78,-89l-166,-108l-159,-67l-47,-33l-28,-44l-19,-42l-28,-78l-39,-144l-25,-75l-50,-99l-150,-105l-136,-98l-109,-110l-79,-100l-228,-195l-130,-101l-97,-69l-80,-72l-53,-56l-59,-128l-56,-79l-138,-246l-69,-164l-36,-116l-13,-88l15,-120l62,-151l25,-46l54,-61l36,-92l13,-77l104,-86l16,-39l-5,-93l5,-49l19,-34l41,-48l33,-22l59,-65l34,-24l39,-42l66,-35l35,-7l24,-12l30,-36l44,-32l21,20l6,16l41,20l18,29l6,2l10,24l14,-1l14,16l21,8l20,19l23,3l27,27l10,5l31,-12l49,11h37l18,17l26,3l41,64l-9,18l1,10l31,30l5,19l27,29l25,10l31,3l9,-6l37,-4l41,13l11,-1l49,-21l12,-13l24,-11l34,-8l34,-2l108,24l81,8l53,18h10l14,-26l10,-3l68,10l56,20l89,-4l38,7l76,-20l32,6l43,-2l25,34l22,2l17,-3l23,6l21,11l49,37l37,11l29,4l37,15l30,-18l36,-8l46,8l26,15l22,45l464,3l1,-57l-8,-38l-13,-20l-18,-57l-21,-49l-24,-20l-9,-20l-9,-46l-9,-13l-19,-12l-10,-13l-3,-17l-13,-20l-14,-13l-11,-23l8,-60l-14,-43l1,-50l5,-68l25,-32l21,-97l42,-101l15,-68l12,-11l21,-10l28,-32l44,-32l74,16l16,-11l60,-12l33,8l49,22l67,22l27,4l60,-9l50,-14l193,-18l71,-21l26,-2l122,20l162,-275h21l14,-5l71,-49l26,-12l38,-1l27,6l20,-1l71,-49l73,-18l22,-11l40,-7l44,-26l21,-18l27,-40l13,-39l57,-54l26,-44l17,-82l0,-27l-17,-43l-1,-26l-14,-52l2,-22l24,-75l13,-103l20,-20l5,-15l22,-9l4,-24l14,-15l-5,-15l18,-7l15,3l3,-17l8,-4l42,13l12,-6l-8,-23l1,-9l30,-34l-6,-17l25,-16l11,-22l1,-17l20,1l10,-5l34,-38l14,-42l-2,-20l9,-13l0,-12l-16,-30l-33,-19l-10,-9l1,-31l-25,-12l-9,-13l-5,-38l-12,-9l-21,10l-3,-25l-28,-21l-23,-1l-19,-40l-18,-5l-1,-34l-28,-20h-17l-11,-27l-6,-3l-21,17l-15,2l-13,-29l-16,-13l3,-14l-3,-22l6,-15l-9,-8l-18,8l-12,-23l9,-2l24,-26l30,-6l26,12l17,27l15,7l32,-1l39,16l45,-5l25,6l19,-23l52,-11l25,10l24,-12l20,-4l64,1l12,19l19,60l6,11l28,-2l17,5l14,26l-4,24l15,13l8,-4l16,-31l36,-15l55,-5l19,-8l34,-25l61,-6l29,-13l44,-31l30,-7l20,6l-6,42l8,26l-17,24l9,23l17,21l27,1l16,26l0,26l8,8l21,-5l18,20l18,3l20,-22l18,10l10,15l19,6l19,-12l28,-6l26,4l102,48l27,-4l39,8l34,14l30,20l34,6l14,21h22l34,-11l20,-1l23,16l36,7l6,13l15,4l17,-12l35,23l12,-5l8,-10l15,-1l39,14l34,1l11,-10l8,-30l30,-27l23,8l19,-2l22,-25l14,-3l29,4l9,-11l15,50l36,56l15,-4l6,-13l31,10l14,21l4,32l-12,20l0,12l19,37l54,4l28,19l22,41l10,6l18,30l40,54l8,19l39,4l31,16h42l26,-16l7,4l-6,24l3,15l33,31l17,24l20,11l32,4l11,6l6,31l-3,45l6,14l31,30l20,5l22,-11l17,22l17,9l7,10l4,24l12,10l19,36l6,7l26,11l47,39l7,21l12,8l51,78l7,6l15,-4l24,5l16,29l105,53l27,10l25,2l10,12l2,24l37,64l21,18l27,-1l12,32l8,10l35,21l15,38l45,36l26,33l35,18l54,42l8,-14l14,-3l29,49l8,6h36l7,12l1,36l8,14l64,14l12,27l19,10l13,12l3,17l19,13l-4,29l17,26l3,49l-11,19l16,5l12,16l28,-2l23,23l27,1l10,5l28,39l18,2l8,24l10,9l15,3l21,29l40,32l5,12l-11,27l31,28l53,35l17,29l44,25l18,22l1,15l27,19l7,25l19,10l28,33l22,17l21,38l26,19l4,7l-9,46l-1,36l19,17l34,101l-6,25l-2,32l5,21l12,24l31,34l8,27l-1,34l5,13l1690,1h578l1954,-1l-6,35l25,26l10,21l-16,40l-20,-10l-8,16l10,9l-1,11l14,11l-6,7l5,22l21,5l22,12l35,-3l5,17l16,5l17,19l-3,17l13,11l2,11l-12,11l-18,7l-20,-7l-11,8l-27,6l4,30l-15,12l2,18l-18,2l17,43l-21,16l5,33l-5,12l-13,-2l-2,15l-24,11l-10,17l16,40l-16,11l2,20l-6,12l-15,16l-14,20l-2,19l8,7l-5,23l-16,2l-1,16l13,17l-10,23l30,21l1,14l-16,15l11,18l15,-7l12,34l-2,15l8,27l-1,16l23,27l26,3l15,20l16,9l9,20l15,11l18,-2l12,8l13,50l-1,17l-10,16l-4,42l16,17l-4,11l3,26l-18,28l-6,34l-33,-7l-14,23l11,19l7,26l16,22l-3,19l-20,2l1,36l-32,37l-29,6l2,28l-11,1l-24,19l-20,6l-11,35l23,19l-4,34l5,18l-15,15l-2,14l-23,23l1,16l14,31l-2,29l9,21l24,27l-19,25l-12,30l8,15l21,10l18,-4l-11,40l0,28l18,24l16,7l-3,19l6,13l27,19l7,13l7,28l15,19l13,45l-4,21l-27,19l-2,8l8,26l-2,27l-6,25l-11,26l2,8l-8,18l8,55l7,22l22,12l14,14l21,6l31,3l10,10l-8,27l-19,33l-2,23l13,32l-14,24l-24,25l0,10l-10,26l5,25l-6,7l-19,1l-11,23l-1,21l5,10l30,38l18,33l9,26l-12,25l-17,9l-6,19l-14,13l-25,12l-20,21l-16,4l-20,-3l-14,4l-14,19l-4,12l3,24l-13,10l-47,-4l-17,-7l-23,-33l-14,-7l-21,25l-23,-1l-25,-7l-28,2l-9,3l-48,32l-12,3l-27,19l-21,-9l-37,-35l-19,-12l-3,-10l-21,-29l-39,-9l-26,-13l-10,7l0,25l-8,11l-59,27l-21,23l-13,2l-8,35l-9,11l-38,-1l-14,10l-5,15l3,19l-2,35l-12,15l-21,18l-34,19l-31,12l-17,11l-12,36l-14,12l-18,4l-33,-2l-36,43l-2,48l-7,16l-13,6l-24,-5l-33,-60l-31,-22l-42,-4l-16,7l-3,11l9,13l6,32l-7,29l-21,6l-17,-3l-52,8l-12,9l-11,15l7,40l-3,12l-18,19l-36,21l-22,25l-34,27l-34,23l-5,13l4,31l-7,37l-16,25l-15,7l-19,-6l-20,-30l-42,-45h-16l-27,15l-44,19l-17,22l-11,24l-10,7l-29,-2l-23,15l-2,9l13,18l-6,35l-34,29l-1,12l-27,23l-9,24l-3,32l-16,48l-18,31l9,45l8,30l6,10l12,-1l24,15l27,10l24,33l19,50l6,31l-3,16l-18,48l-13,25l15,41l14,5l44,-4l3,19l-7,17l-14,13l-22,31l-24,28l-25,16l-3,8l9,33l2,19l17,7l4,9l-3,23l2,18l15,25l17,21l2,32l-7,35l10,39l-1,12l-12,15l-41,37l-10,20l3,17l26,22l8,26l-2,28l-5,9l-37,8l-10,15l-6,25l-14,22l-23,25l-45,20l-12,11l-6,77l-7,12l-22,18l-21,5l-21,12l-6,18l16,29l-4,47l-20,31l3,17l25,23l5,16l-8,15l-26,19l-19,36l-3,18l-28,44l-32,18l-37,43l5,34l-10,14l-43,24l-4,15l4,18l20,19l13,18l15,28l14,15l22,34l7,22l-10,17l-14,8l-30,10l-9,11l-3,20l-21,46l-10,11l-34,30l-42,17l-26,6l-30,2l-9,4l-45,36l-44,17l-11,1l-63,-8l-16,6l-13,18l-5,17l1,32l12,29l40,67l21,12l13,2l16,-5l22,-13l10,-2l13,17l-13,21l-37,24l-12,18l-7,21l-3,28l13,34l-1,11l-13,16l-32,11l-11,8l-18,31l-5,15l-16,23l-23,17l-14,18l-7,27l7,26l26,39l26,79l1,16l-24,34l-6,16l5,41l-24,36l-25,34l-10,7l-35,8l-27,22l-21,21l-27,42l-8,40l23,42l4,31l-10,39l-5,29l-10,37l-1,22l21,94l0,10l-10,32l-15,24l-6,21l5,25l-7,53l3,15l11,21l28,45l8,25l2,62l-3,21l-31,80l-13,60l4,54l1,57l-4,25l-11,33l0,24l17,48l-2,20l10,36l14,17l18,29l7,18l-14,49l-5,24l-1,49l-17,108l-7,64l0,62l2,25l11,32l27,30l25,44l3,39l-5,23l-21,49l3,12l33,31l7,10l6,20l-2,17l-19,44l-11,15l-25,18l-16,22l4,18l31,24l31,33l48,62l4,21l-4,55l-7,13l-14,4l-19,-7l-8,5l-14,25l-20,13l0,22l14,17l7,28l14,42l4,25l-3,23l-15,49l4,16l39,47l28,25l23,16l15,17l34,42l22,21l40,19l27,20l13,23l5,31l-16,19l-35,20l-6,11l3,23l18,24l8,35l9,23l23,37l12,63l7,21l13,21l26,65l13,17l40,33l11,24l-1,16l-14,20l-18,19l-45,28l-29,33l-23,13l-20,23l-6,16l2,11l16,27l9,36l10,50l8,16l14,12l17,35l26,43l9,41l5,110l-4,34l-21,79l-35,91l7,57l5,11l13,7l27,2l94,26l24,12l20,24l2,22l-4,16l-17,36l9,32l52,64l41,39h18l24,-23l12,3l10,26l-1,26l6,20l1,41l5,11l15,12l20,-6l25,-62l-2,-35l4,-9l27,-7l19,5l17,12l16,17l4,40l-1,15l-8,18l-2,33l-6,12l-44,25l-10,-3l-27,-17l-12,12l-10,53l8,18l31,51l28,3l28,-7l18,11l6,26l-5,21l-24,16h-29l-50,-22l-15,2l-11,16l-1,16l5,16l10,6l23,2l38,-10l42,4l43,-2l14,3l26,20l11,30l-2,22l-7,29l-30,52l-12,37l-33,54l-7,23l-8,46l-16,38l-11,64l-2,31l4,18l16,29l19,89l5,46l20,27l37,17l38,3l44,-13l22,-1l47,12l22,14l37,28l34,9l17,10l21,32l-1,27l-10,13l-38,32l-58,37l-25,23l-5,19l4,19l12,8l31,5l39,12l8,14l-4,19l-23,44l-2,22l1,28l10,27l26,27l33,48l9,16l6,24l2,27l8,20l21,17l25,4l42,-5l24,-7l14,2l12,16l8,33l22,55l28,50l4,22l-13,66l24,29l15,11l32,17h33l11,7l10,41l-2,11l-14,31l6,28l26,16l28,-2l22,21l10,30l7,10l43,33l7,7l2,20l-31,75l-24,49l-14,38l-2,26l5,11l19,18l48,16l25,2l19,-3l54,-19l55,-22l17,-5l23,9l16,13l13,29l6,38l3,45l-1,47l-4,9l-44,43l-18,36l-5,32l-23,103l-10,28l-20,28l-10,20l-31,110l-12,17l4,39l9,10l50,12l22,31l23,19l4,26l-11,24l-19,16l-31,3l-45,-16l-22,-12l-48,-43l-17,-7l-22,-3l-38,2l-31,13l-22,14l-3,22l10,68l3,27l-2,50l5,13l22,24l42,36l27,32l11,16l30,58l22,71l3,27l7,18l20,10l36,-4l20,-9l37,-27l14,5l6,11l-3,29l-12,34l-21,24l-13,6l-29,3l-13,-4l-26,-26l-14,-6l-15,3l-20,20l0,22l14,18l30,20l18,4l81,7l18,7l32,26l48,21l11,19l1,25l-7,29l-5,42l-6,23l-17,52l-10,15l-34,21l-27,23l-34,36l-30,20l-51,22l-14,5l-20,-3l-39,-17l-16,1l-13,8l-32,41l-20,33l-7,41l-15,37l-31,52l-8,31l3,17l9,17l15,16l2,14l-11,7l-51,13l-82,10l-31,7l-90,25l-13,5l-18,22l-7,21l11,-4l23,9l33,32l23,17l39,13l10,11l-1,17l-10,9l-30,13h-33l-12,20l8,12l16,6l45,3l17,10l7,20l2,29l10,25l12,21l41,42l9,30l0,25l-9,34l8,14l20,6h55l42,9l39,12l45,27l64,34l21,6l13,-2l20,-17l8,-17l19,-1l4,14l-3,21l-10,22l-2,22l5,18l7,5l19,-9l30,-26l24,-3l35,3l27,7l37,16l26,3l29,-9l35,-19h19l99,73l40,20l14,4l32,-1l37,-5l14,3l1,9l-9,13l-31,19l-6,9l4,16l13,5l52,-10l24,9l7,18l3,34l12,53l13,29l20,29l19,34l16,9l26,3l14,7l41,55l31,13l46,4l48,12l60,6l33,21l6,7l6,26l1,36l10,26l15,14l49,18l20,16l11,20l13,33l29,36l18,2l48,-8l50,1l16,9l14,27l18,32l1,30l4,11l16,4l32,-30l10,-4l25,2l43,31l50,21l19,17l7,39l22,37l14,14l14,24l-3,23l-19,22l-31,16l-19,21l-19,36l0,13l37,42l35,-1l6,7l-3,18l-23,25l-22,43l-17,18l-17,7l-24,2l-7,5l-2,20l16,20l7,34l-2,14l-9,16l-22,3l-19,-6l-13,8l-5,13l4,12l18,15l12,5l21,1l14,8l20,37l9,11l12,-7l4,18l-21,11l6,15l28,46l17,18l5,17l-6,30l12,17l35,3l21,-1l17,16l14,21l45,-10l16,5l23,16l24,-5l35,-20l14,-5l19,11l16,35l11,44l58,54l18,3l18,-16l2,-22l-8,-12l-13,-8l-34,-8l-6,-8l-4,-33l13,-29l18,-12l19,17l15,33l17,17l33,-5l30,10l11,16l10,31l23,35l16,38l25,11l18,-5l14,-16l12,-40l11,-16l54,-27l15,-3l15,17l-1,38l3,21l12,30l1,32l-18,22l-26,20l-3,19l11,16l36,-9l15,-1l35,26l21,53l10,10l14,2l12,-6l5,-32l5,-18l18,-23l14,-1l12,22l1,36l-3,40l3,64l-3,10l-18,8l-18,-1l-45,11l-8,9l15,43l-1,14l-18,31l-9,37l-11,36l1,14l16,21l19,13l-2,12l-38,6l-26,9l-12,16l2,10l20,22l10,18l3,23l-28,60l-6,23l-8,64l9,24l23,33l17,8l22,-1l26,-7l9,3l29,24l17,-2l30,-14l8,15l-12,38l-21,39l-2,14l6,15l18,-1l16,-60l55,-52h13l10,12l2,15l-13,27l-2,19l11,47l19,142l-3,8l29,33l24,4l45,-8l44,-13l20,-2l15,10l27,7l38,28l16,10l3,17l-12,16l-19,12l0,17l28,19l18,-1l11,-24l30,-25l44,-19l17,-12l14,6l10,22l16,53l-3,9l-17,22l-9,30l7,9l36,23l44,24l19,7l0,17l-30,17l-27,18l-8,9l-2,16l28,15l4,11l-24,31l-35,52l-6,16l-5,38l-19,8l-20,-7l-8,3l-20,20l-17,7l-62,-6l-16,4l-16,14l-1,53l-9,9l-32,-9l-24,8l-46,5l-23,-13l-7,-13l-4,-26l-13,-11l-35,-14l-23,-23l-3,-15l4,-34l-13,-1l-14,15l-10,23l-13,13l-27,4l-38,-15l-24,-4l-41,3l-13,18l-13,52l50,63l46,27l51,27l-12,29l-22,41l-27,15l-5,29l-7,15l-18,26l-23,6l-12,-5l6,-51l-2,-18l-8,-13l-16,-7l-14,2l-22,15l-17,29l-27,22l-26,3l5,24l14,12l27,15l7,20l-4,22l-13,34l2,34l-14,12l-14,-3l-9,-9l-21,-36l-20,-26l-34,-37l-16,-5l-11,5l-15,25l-7,20l-12,18l-26,21l-5,21l11,17l13,-1l43,-41l27,-5l17,4l13,11l1,21l-11,15l-9,30l2,19l14,44l-19,18l-48,13l-43,18l-45,28l-26,12l-6,15l2,17l25,87l-4,19l-30,20l-33,6l-28,-9l-13,-12l-18,6l-46,30l-54,59l-11,24l-8,32l-7,4l-59,2l-53,14l-5,8l9,25l18,20l28,35l17,36l13,24l15,41l34,35l20,28l7,22l8,10l6,23l28,56l15,25l12,38l10,15l19,15l22,27l9,23l0,39l6,22l19,35l23,15l11,12l-7,8l-36,19l-24,22l-16,7l-27,3l-18,6l-20,26l-16,8l-53,17l-94,21h-21l-23,6l-27,-6l-42,5l-18,-4l-18,-22l-7,-1l-30,11l-30,17l-16,4l-27,-5l-30,9h-15l-24,-8l-19,7l-8,14l-21,13l-47,17l-41,27l-24,33l-22,25l-10,4l-26,-1l-15,3l-21,13l-33,25l-13,13l-16,8l-28,1l-30,-6l-18,1l-12,17l1,12l21,24l-13,33l-25,29l-56,35l4,20l10,19l20,16l5,14l-3,25l-17,15l-12,24l-1,17l-15,14l-17,50l-15,20l-5,17l-20,26l-8,22l-4,44l9,19l15,12l4,19l-4,18l6,24l-2,13l5,20l-9,17l-35,25l1,21l5,13l22,26l15,28l33,35l29,41l25,29l42,57l32,29l19,28l22,16l35,10l12,8l4,21l-13,26l-7,7l-22,7l-44,23l-13,-2l-34,-43l-16,-12l-31,-10l-18,2l-16,16l-23,38l5,13l40,37l4,9l-5,17l-26,19l-4,14l9,21l33,24l28,26l25,30l28,25l11,27l2,24l30,21l31,13l20,15l12,-2l26,-20l21,14l17,23l0,29l-14,26l-15,6l15,38l32,40l30,22l26,41l20,20l20,31l13,14l50,20l3,16l28,8l13,11l21,9l4,22l27,31l-5,22l-15,13l-5,24l-2,35l-19,-5l-27,46l1,38l15,14l15,28l19,12l12,-7h13l29,19l24,8l5,7l3,28l-9,15l-29,9l-24,20l-13,15l-53,35l-19,8l-16,1l-24,-17l-18,-30l-11,-7l-19,-2l-12,6l-21,22l-71,48l-25,20l-32,12l-28,30l-19,27l-45,5l-24,13l-6,17l8,18l17,11l-5,23l-15,32l8,15l-8,8l-21,8l-18,-4l-12,-8l-16,7l-24,30l-5,33l-33,36l-18,30l-18,7l-21,-19l-14,-3l-37,6l-32,-18l-47,-5l-22,1l-11,10l15,21l-27,22l-24,31l-3,17l-16,25l-20,4l-14,10l-13,27l-15,9l-19,4l-10,-15l-12,4l-2,24l-31,12l-34,-11l-24,-4l-8,11l9,24l17,18l-5,17l-15,18l-24,19l-18,-1l-18,-37h-22l-43,8l-27,25l-2,8l6,53l4,20l16,53l-9,21l-83,20l-13,-7l-12,-43l-5,-37l-1,-40l-9,-19l-54,-63l-49,11l-16,1l-71,12l-14,11l-17,4l-25,15l-3,12l6,36l-5,14l-10,1l-47,-25l-27,-8l-35,2l-15,-4l-35,-18l-27,14l-9,14l-23,2l-14,-6l-20,-17l-22,-11l-20,2l-22,19l-21,25l-29,20l-20,20l-2,13l17,46l19,20l25,12l21,-1l6,14l-11,17l-19,13l-31,16l-43,15l-14,8l-4,24l14,29l12,9l-2,17l-30,7l-8,-7l-19,-39l4,-20l-11,-50l-12,-5l-34,8l-25,9l-28,15l-18,2l-38,-9l-37,11l-7,-5l-16,-31l-14,-44l-23,-56l-10,-33l-1,-19l-34,6l-20,7l-41,30l-7,10l-6,26l20,36l8,30l13,15l9,17l-8,13l-18,-4h-27l-21,14l-11,2l-56,-1l-41,6l-17,10l1,11l24,31l23,18l6,21l-6,16l-29,11l-35,8l-16,1l-11,15l-3,20l0,27l-7,6h-17l-27,-24l-9,-3l-46,20l-59,11l-11,26l-15,4l-26,1l-28,24l-31,19l-24,10h-38l-24,7l-13,-12l12,-16l7,-26l-2,-16l-8,-20l0,-39l-6,-23l-15,-11l-5,-15l-1,-29l17,-35l16,-20l-8,-23l-17,-1l-74,71h-11l-25,-19l-31,-4l-10,2l-36,17l-18,6l-52,51l-24,19l-52,8l-17,-2l-20,-19l-5,-10l-21,-19l-33,-12l-19,3l-34,29l-13,14l-23,-2l-21,-16l-22,-5l-20,-13l-19,-4l-45,5l-34,9l-16,10l-15,19l-42,-4l-13,6l-26,-3l-31,9l-50,-5l-32,6l-39,-19l-16,-3l-12,5l-4,27l4,34l24,64l13,10l-2,43l10,43l8,10l18,5l-1,34l-21,25l-51,14l-29,1l-36,-5l-18,-21l-4,-28l-13,-13l-38,-11l-12,4l-3,12l10,18l10,33l18,49l-3,22l-14,13l-22,11l-21,4l-19,-4l-15,-29l-17,-26l-18,-2l-31,10l-26,3l-25,-17l-8,-21l2,-15l11,-16l15,-13l28,-12l10,-13l7,-22l-1,-21l-33,-52l-39,-17l-21,-23l-13,-2l-30,10l-29,-9l-29,-23l-34,-8l-15,5l-12,47l-9,9l-38,1l-16,8l-15,19l-43,21l-19,23l-48,-6l-36,-15l-34,-9l-15,-1l-59,13l-7,14l-20,24l-23,12l3,44l27,27l3,12l-1,30l-9,33l7,14l16,75l16,14l10,25l4,34l-22,39l-20,11l-21,6l-8,14l0,43l5,18l25,27l13,29l4,21l-12,18l2,15l13,15l34,18h20l11,-10l6,-34l13,-27l26,-25l46,2l41,-17l4,18l-32,31l0,14l7,16l3,29l-23,13l-2,19l12,11l22,8h16l62,-45l6,-11l11,-2l37,18l13,23l-4,14l-30,19l-12,11l-10,19l-8,43l-7,24l-13,31l1,12l13,12l10,30l37,31l21,13l27,1l44,-6l18,-19l18,2l28,39l15,12l29,-1l12,-14l31,-26l18,-5l25,7l9,10l3,16l17,3l21,-13l22,2l33,28l6,13l15,15l22,15l22,7l11,8l6,16l10,2l20,-12l11,1l32,19l5,12l-2,20l-21,25l-15,37l-4,26l-16,41l0,22l14,16l33,4l7,7l8,54l-3,15l-27,52h-11l-13,-11l-14,9l5,45l3,10l37,47l20,32l44,42l23,31l19,19l5,21l22,37l17,9l19,-4l10,8l3,23l10,19l21,23l25,20l27,15l7,8l16,34l16,16l35,6l12,8l25,10l21,16l19,33l7,7l36,23l3,25l-16,36l6,12l-9,15l-32,3l-16,23l-23,16l-15,3l-15,34l-18,20l1,8l17,10l8,22l1,18l6,17l17,18l7,12l28,6l19,11l20,31l16,34l-1,27l9,23l1,20l-6,25l-1,27l7,33l-5,27l-15,23l-2,22l4,25l13,33l8,13l6,33l10,39l7,10l1,18l-14,14l-23,6l-21,11l-13,14l-43,6l-12,4l-15,17l-1,9l8,47l13,25l-8,31l8,21l12,21l17,20l39,17l26,6l23,23l-4,13l-27,24l-28,16l0,28l20,48l9,31l-4,30l5,12l45,29l28,14l14,26l13,14l18,32l-1,44l6,19l16,36l1,24l5,22l14,27l1,40l-11,24l-3,26l3,31l6,10l23,18l10,20l13,39l1,30l-3,8l-21,21l15,28l2,37l14,41l2,32l15,29l15,16l-1,13l-14,12l3,58l4,25l8,7l20,5l9,32l-1,49l3,32l8,21l23,22l13,5l10,40l-18,15l0,41l2,17l1,46l21,7l13,-15l9,3l1,45l-20,43l-7,44l-18,21l3,12l19,17l3,18l34,37l6,13l0,22l10,14l-2,9l-40,52l3,26l36,29l-11,29l0,40l2,14l-19,26l2,11l13,18l-3,23l11,9l15,-2l6,18l1,49l-4,54l13,3l23,-23l20,-3l21,24l3,41l4,30l19,32l2,16l-6,12l-18,15l-5,31l6,29l-8,37l7,12l0,16l29,25l-32,39l2,19l48,41l22,38l3,17l-16,30l5,32l-6,50l-13,14l-36,30l-21,-3l-17,8l-16,18l-19,11l-32,8l-34,5l-4,15l-10,10h-12l-7,-16l-14,-11l-11,6l-14,-21l-17,7l-10,-5l-8,15l-20,-6l-15,5l-20,22l-18,-5l-20,22l-9,-1l-19,10l-5,11l-19,-10l-24,2l-5,18l9,10l-15,10h-23l-12,-8l-2,17l-8,5l-15,24l-12,8l-11,18l3,7l-22,10l-38,42l-18,27l-14,1l-18,-6l1,25l-28,-33l-6,-3h-32l-11,4l3,18l19,19l-20,26l-8,-1l-12,-15l-12,4l2,22l-19,31l-22,20l12,19l2,19l-29,5l-30,13l-10,30l-11,10l4,23l-14,9l-4,15l-15,24l-11,1l-4,19l-14,-3l-11,14l-9,-10h-28l-59,-4l-20,7l-4,14l-26,-2l-19,17l-17,6l-64,-3l-33,-11l-14,5l-8,39l-25,20l0,19l11,17l-14,33l-19,72l-11,103l-14,33l-6,61l-25,137l-25,41l-11,12l-56,44l-41,36l-42,53l-14,44l-17,22l-27,20l-25,36l-9,19l-5,31l0,36l-3,28l-11,72l3,47l-9,9l-19,-3l-20,-14l-77,-64l-31,-22l-33,-31l-22,-27l-23,-14l-42,-14h-30l-53,-36h-13l-50,22l-14,14l-34,5l-55,20l-56,36l-19,19l-6,20l3,14l28,83l0,19l-6,12l-36,41l-14,34l-22,38l-17,23l-30,14l-48,16l-25,22l-58,-16l-28,-14l-55,-50l-20,-6l-39,3l-27,-8l-109,-109l-36,-8l-39,6l-36,2l-69,-8l-31,-31l-28,-44l-5,-33l0,-17l-6,-42l-69,-5l-36,-39l-17,-8h-25l-30,-11l-23,2l-33,11h-17l-30,-11l-28,-5l-25,-11l-19,-17l-31,-58l-17,-56l-25,-30l-50,-17l-14,-11l-22,-6l-28,-3l-33,-13l-58,24h-25l-75,-30l-17,-3l-30,3l-31,31l-19,11l-23,5l-36,-5l-19,-28l-14,-14l-20,-6h-22l-33,20l-11,14l-3,14l11,41l-5,14l-28,17l-31,3l-19,8l-20,33l-30,11l-22,-22l-37,-5l-5,-9l-36,-14l-45,-13l-27,-17l-28,-22l-25,-9l-39,28l-14,6l-17,-6l-8,-11l-36,-67l0,-103l-8,-16l-12,-8l-72,-37l-11,-11l-14,-30l-14,-20l-19,-16l-14,-3l-97,17l-25,11l-28,38l-8,17l5,75l0,31l-22,27l-33,3l-17,-5l-47,-28l-20,-8l-19,2l-6,14l-11,11l-25,11l-16,-5l-34,-17l-33,14l-78,6l-33,-6l-59,9l-55,-3l-28,14l-22,5l-42,17l-55,8l-39,9l-45,-9l-36,8l-25,-2l-30,-17l-11,-14l-28,-11l-31,-8l-19,-20l-11,-28l-20,-27l-11,-11h-22l-33,8l-39,3h-36l-70,14l-36,-9l-19,3l-59,20l-103,75l-30,19l-11,14l-3,16l6,14l0,23l-9,33l-8,11l-20,11l-25,9h-11l-14,-12l-16,-27l-20,-14h-39l-19,3l-36,22l-17,5l-25,-3l-41,-19l-37,-8l-13,3l-20,11l-19,2l-28,23l-25,8h-33l-9,6l-44,44l-34,36l-33,17l-14,3l-41,-28l-37,-9l-52,9l-103,41l-31,3l-19,-5l-20,2l-50,-11l-38,-14l-59,-5l-28,-17l-30,-22l-42,-50l-22,-14l-36,-8h-28l-42,19l-33,3l-17,-33l-22,-28l-14,-25l-8,-22l-28,-34l-28,-19l-13,-20l16,-16l20,-6l45,14l30,-25l30,-19l39,-10l64,15l22,-3l45,-16l36,-9l28,6l41,22l31,-16l49,-12l29,-30l30,-27l6,-45l-2,-47l10,-28l14,-12h36l63,-54l-7,-15l76,-48l21,-44l20,-33l5,-39l6,-31l-3,-72l-14,-44l-6,-35l8,-48l14,-20l4,-18l4,-78l-8,-32l17,-19l7,18l24,29l25,19l62,-18l17,-74l-21,-63l-8,-17l-14,-58l16,-10l3,-29l8,-17l12,-10l5,-78l-22,-37l0,-22l7,-24l5,-39l-7,-26l-11,-13l-8,-25l-6,-45l6,-17l17,-22l44,-33l45,-6l18,-7l4,-21l35,-51l1,-51l5,-25l14,-42l23,-39l13,-19l56,-59l39,-27l15,-14l-20,-48l-2,-23l7,-15l14,-5l14,-20l22,8l42,-16l30,-37l17,-3l0,-11l11,-19l11,-31l11,-16l11,-45l9,-44l5,-14l0,-75l6,-31l14,-27l19,-20l31,-67l13,-16l9,-20l-3,-36l-42,-58l-11,-36l-3,-31l0,-86l-19,-42l-30,-5h-34l-42,-6l-63,-16l-3,-20l-22,-22l-23,-6l-25,-13l-19,-37l-20,-13l-19,-37l-22,-22l-17,-30l6,-67l-11,-22l-17,-23l-8,-41l-14,-6h-20l-16,-5l-53,-9l-9,-14h-33l-19,-8l-25,3h-36l-11,-3l-12,-17l-2,-16l8,-31l14,-36l25,-19l8,-39l-19,-17l-31,-3l-30,-16l-37,-92l0,-28l12,-22l-3,-19l-39,-9l-6,-14l-25,-25l-25,-16l-39,-20l-13,-19l-12,-33l-5,-26l-8,-16l-31,-11l-25,-6l-42,-33l-14,-31l0,-36l-47,-53l-39,-38h-36l-55,-9l-64,-39l-17,-22l-33,-22l-31,-17l-22,-47l-17,-20l-1,-10l-27,-20l-6,-17l13,-17l9,-31l27,-11l11,-36l1,-13l-19,-7l-22,-16l-10,-16l-31,-6l-13,-11l-33,8l-25,-12l-15,-11l-19,-5l3,-15l-15,-17l-15,-49l-18,-4l-2,-19l-25,-1l-30,-22l-2,-24l-9,-10l-25,1l-18,-3l-19,3l-18,14l-2,9l-18,15l-28,6l-20,-3l-25,-21l-21,-6l-25,-21l-23,-9l-18,5l-35,-3l-17,9l-30,6l-35,-10l-11,-20l-8,-5l-6,-18l-18,3l-9,-13l-25,13l-13,17l-16,-8l-11,7l-12,-6l-15,-32l-7,16l-10,3l-13,-10l-14,2l-12,-20l0,-9l-19,-10l9,-25l-6,-19l-28,-31l-4,-32l-9,-26l-14,-28l-38,-26l-21,-3l-15,11l-33,-4l-15,-8l-18,31l-8,4l-17,-7l-21,7l-15,-13l7,-8l12,-37l-12,-6l0,-11h-17l-11,-11l1,-28l-20,-17l-3,-22l-13,-10l-19,5l-31,-11l-20,-20l3,-28l-21,-14l-4,-14l-9,-7l-20,-3l-14,4l-33,21l-28,11l-20,-3l-15,10l-31,7l-14,14l-10,-3l-13,7l-10,18l-16,2l-6,8l-4,22l-31,14l-24,-12l-3,-20l-25,-5l-15,10l-19,20l-21,11l-11,-1l-28,11l-30,-9l-18,12l-20,5l-4,-7l-21,-14l-12,-15l-4,-21l-9,-15l-34,-24l-11,-19l-5,-28l-26,-31l-13,-36l7,-4l9,-35l3,-25l15,-18l-8,-16l-12,-9l-7,-14l5,-21l-7,-19l5,-13l-11,-14l1,-10l-20,-34l-3,-30l-17,-23l2,-8l-25,-46l-37,-14l-10,5l-15,-6l-52,-2l-19,-24l-11,-30l-30,-1l-18,-5l-9,3l-44,-2l-25,-4l-10,2l-12,-28l0,-22l10,-11l-21,-32l1,-18l-16,-6l9,-11l1,-22l-3,-30l15,-9l17,4l19,-4l16,-15l14,-1l40,-18l-3,-20l-8,-14l12,-17l9,-22l1,-18l18,-26l23,-4l3,-12l-13,-3l-5,-12l16,-17l-12,-18l2,-11l-13,-21l1,-14l-11,-28l8,-18l-17,-16l-8,-14l9,-35l-1,-22l10,-15l14,-44l1,-30l13,-24l0,-7l-16,-9l-27,-31l-13,-11l-28,8l-24,-4l-14,-7l-43,7l-10,14l-15,9l-36,-9l-4,-28l-6,-7l12,-33l11,-7l5,-39l-6,-20l9,-21l-3,-20l12,-16l3,-26l-11,-20l-30,-13l-1,-31l-12,-9l3,-10l-9,-25l11,-14l0,-26l-20,-7l-15,5l-17,-13l-33,-8l-30,7l-81,-23l-30,1l-44,13l-3,-20l-11,-25l-3,-38l-6,-25l-24,5l-7,7l-27,-1l-15,-4l2,-14l-16,-23l-11,-4l-2,-13l6,-21l22,-7l14,-27l-1,-8l-15,-18l-27,-17l-6,-18l-48,24l-31,1l-10,6l-11,-6l-18,-3l-13,6l-5,-13l-20,-11l-3,-14l-33,3l-13,20l-3,14l-18,13l-23,5l-50,1l-26,-8l-17,9l-11,-1l-6,14l-20,1l-17,-4l-47,16l-25,-2l-18,11l-14,-6l-20,8l-28,-4l-13,-11l-24,2l-22,10l-15,-6l-14,6l-35,-5l-9,-8l-20,-5l-12,-22l-21,-3l-16,-14l-35,-5l-23,8l-15,-6h-33l-27,6l-7,10l-19,6l2,18l-10,13l-32,3l-13,-5l-18,-38l-1,-15l-8,-8l-36,5l-13,5l-12,-31l-10,-14l-15,-11l-8,4l-18,-22l-40,4l-15,-7l-14,-13l-32,-3l-5,-18l-20,-8l-15,3l-19,-5l-17,1l-11,-12l10,-20l-13,-13l1,-8l-15,-19l-28,-2l-14,-7l-10,-14l3,-11l-11,-19l3,-30l-22,-6l-5,5l-18,-5l-10,-15l-20,-8l-24,-39l-12,-1l-5,-16l2,-15l-18,5l-9,17l-12,10l1,11l-9,14l1,18l-5,7l1,31l-5,7l-8,37l-23,-1l-18,-12l-10,10l-24,8l-14,-13l-16,13l-21,26l-1,23l-18,13l-19,1l-7,-21l-21,14l5,8l-6,15l-21,14l-5,17l-19,19l-8,22l-41,18l-33,20l-26,4l-8,9l5,18l-5,17l-23,-3l-30,9l-17,-6h-15l-6,-25l-11,-4l-14,-14l-20,2l-29,18l-20,20l-3,15l-7,7l-28,7l-7,25l-17,16l-18,3l-23,29l2,9l-20,24l-17,-22l-10,-31l-10,-6l11,-21l8,-25l-19,-11l-18,19l-15,-1l-18,17l-22,2l-37,9l-17,15h-15l-28,-9l-29,49l-21,-1l-11,14l-21,1l-8,-5l-7,-19l-16,-11l-9,-33l-22,-10l-4,13l-12,15l-3,41l-23,38l-21,14l-16,-14l-19,-2l-16,12l-27,5l-16,21h-12l-1,-41l-9,-30l-22,-25l-30,-21l-14,8l-2,16l-11,6l-23,34l-28,27l-15,5l-16,-12l-23,-11l-31,4l-9,-5l-28,21l-23,-11l-18,-3l-19,8l-13,15l-9,19l-13,6l-3,-25l-8,-11l-24,-9l-15,-1l-27,-6l-26,-13l-74,7l-17,-12l-6,-9l3,-29l-3,-13l-26,-41l-14,-40l12,-28l-14,-7l0,-13l31,-18l15,-18l13,3l14,-19l1,-26l-7,-10l-1,-23l8,-11l37,-10l45,20l21,-7l18,-12l2,-14l12,-14l25,-38l27,-22l31,-8l33,5l11,-19l6,-25l-6,-28l-2,-36l5,-20l20,-8l22,-17l19,-5l47,14l34,2l22,-5l6,-8l-3,-20l-9,-25l6,-25l0,-17l-8,-19l-25,-8l-25,-28l-17,3l-17,-9l6,-44l-3,-14l-30,-3l-23,8l-25,1l-25,5l-39,-19l-22,22l-14,3l-27,-9h-17l-28,-5l-11,-67l-25,-14l-33,-33h-25l-17,-14l-8,-25l5,-22l20,-22l11,-6l0,-22l5,-22l17,-28l-19,-6l-17,9l-25,2l-8,-16l-42,-6l-14,-8l-17,8l-33,-3l-14,-14l-3,-22l0,-39l-30,-11l-34,-5h-44l-22,-3l-20,8l-27,6l-42,19l-17,-3l-22,9l-17,11l-16,17l-39,5l-9,11l-44,-14l-39,11l-17,-8l-39,3l-36,-20l-16,6l-6,-14l-66,22l-14,-5l-20,5l-22,-11l-19,17l-14,19l-3,23l-61,16l-39,-5l-42,19l-41,-11l-12,-8l3,-20l-3,-28l-8,-11l-22,6h-17l-39,-14l-30,-8l-22,2l-9,28l34,20l16,14l14,19l-42,36l-22,-3l-16,3l-17,-11l-11,8l-17,34l-31,-3l-16,-6l-31,-25h-19l-22,6h-20l-8,-17l0,-19l5,-14l-2,-39l-28,-31l-36,-5l-20,8l-14,-3l-25,-30l-14,-25l-30,-22l-19,-3l-9,-22l-41,-36l-23,-6l-11,8l-55,-5l-23,-25l-30,-3l-36,8h-28l-36,-11l-31,-17l-2,-30l-25,-28l-20,-14l-3,-14l9,-22l16,-14l9,-14l-6,-22l-39,-33l-11,-6l-3,-16l11,-39l3,-28l-22,-42l0,-11l8,-36l9,-22l0,-25l-6,-22l0,-20l8,-33l12,-22l16,-22l3,-25l-6,-14l-27,-12h-20l-19,14l-14,-5l0,-20l-8,-22l-12,-14l12,-36l38,-28l14,-30l-2,-53l2,-19l45,-14l30,-6l53,-17l3,-19l-17,-33l-25,-37l-8,-36l-31,-16l-11,-31l-19,-41l-22,-14l-31,-14l-17,-20l-2,-14l16,-27l14,-17l0,-14l-17,-14l-50,-11l-25,-14l-61,-83l-33,-36l-31,-25l-36,-22l-33,-14l-14,-11l-17,-23l3,-19l0,-36l-14,-11l-25,-37l-33,-19h-17l-41,6l-31,-9l-14,3l-14,-5l-39,-37l-25,-5l-30,8l-47,-30h-31l-17,8l-16,14l-22,11l-28,8l-20,14l-5,17l-28,64l-8,11l-31,22l-67,-30l-16,-28l-50,-50l-28,8l-14,22l-17,6l-5,-14l-22,-75l-17,-39l-33,-25l-36,-11l-37,6l-22,33l-8,33l8,36l-11,28l-11,14l-20,8l-41,6l-28,17l-11,13l11,20l-5,17l-20,11l-61,5l-19,6l-45,-3l-28,-11l-22,-25l-11,-20l-28,-25l-11,-2l-42,22h-27l-14,-14l-25,-14h-14l-45,14l-61,-3l-61,-39l-28,-8l-27,-14l-11,-17l-42,-19l-31,-6l-30,11l-34,34l-13,22l-3,17l5,14l42,30l25,9l11,22l11,64l-3,25l-16,2l-9,-8l-19,-5l-56,-34l-36,-14l-2,-39l-14,-25l-14,-8l-23,-5l-19,2l-11,-5l-36,5l-25,-5l-67,-25l-19,-11l-25,-9l-36,-2l-39,-23l-25,-3l-14,17h-20l-8,-11l3,-19l22,-17l17,-33l39,-48l38,-13l-2,-34l-22,-14l-23,-19l-14,-6l-30,-5l-22,-11l-75,-25h-31l-5,11l0,25l-6,22l-11,14l-20,3l-11,-11l-36,-6l-16,-6l-12,-11h-50l-2,-19l16,-25l-2,-50l-12,-14l-41,-11l-14,-28l8,-14l0,-25l-16,-72l-62,-25h-36l-19,6l-14,-9l14,-14l14,-33l16,-25l17,-39l-11,-30l3,-51l-17,-47l3,-55l-9,-25l-41,-31l-11,-11l-73,-14l-24,-19h-31l-31,16l-19,14l-28,3l-19,8l-20,23l-11,22l-3,28l-13,25h-17l-53,-25l-33,-6l-78,17l-22,-6l-34,-19l9,-45l14,-39l33,-36l-22,-16l-3,-36l-14,-17l-19,8l-25,20l-28,8l-25,-3l-36,-11l-34,11l-14,17l-41,22l-25,17l-20,5l-33,-14l-31,-27l-27,11h-31l-36,-14h-36l-36,-6l-11,-16l16,-25l17,-9l-8,-27l-23,-23l-5,-36l0,-55l-11,-37l5,-24l-8,-34l-11,-28l0,-38l-31,-34l-11,-16l0,-37l17,-25l17,-13l-3,-20l-28,-28l-39,11l-44,28l-36,20l-25,19l-14,17l-14,36l0,28l-6,25l-22,39l-36,22l-11,14l-36,55l-11,31l-25,28l-17,22l-61,41l-47,42l-17,33l-8,36l-34,39l11,50l-8,17l-22,31l11,47l14,28l-9,13h-16l-31,-13l-16,-14l-14,-3l-42,-25l-53,-69l-8,-28l-11,-11l-25,2l-20,14l-16,-11l-6,-22l-14,-39l-30,-25l-31,-5l-41,-3l-31,19l-20,-22l-25,-39l-27,-8l-28,16l-14,20l0,17l6,24l-23,-5l-22,-11l-47,-3l-36,-19l-9,-17l-19,-22l-28,5l-30,11l-22,12l-64,44l-23,11l-13,-6l-3,-13l-34,-3l-69,-25l-6,-45l-41,-47l19,-19l14,-39l3,-28l19,-19l28,-17l22,-19l3,-23l-11,-30l-42,-34l-25,-24l-30,11l-20,16l-55,20l0,33l-22,17l-59,-17l-28,-28l20,-39l-6,-16h-22l-25,-14l-19,-25l-20,-3l-28,22l-41,-3l-34,6l-16,-17l16,-25l6,-27l0,-28l-8,-34l8,-8l39,-22l-25,-28l3,-25l30,-36l0,-19l-5,-12l-17,-13l-58,5l-23,-3h-36l-25,-30l-47,19l-19,-5l-9,-14l-16,-14l-25,-6l-20,-11l-11,-19l-3,-50l-25,-11l-11,33l-8,17l-11,8l-75,39l-34,11l-16,11l-3,45l-31,8h-25l-41,8l-45,-16l-14,-3l-22,8l-114,56l-28,16l-2,20l0,50l5,22l0,28l-16,19l-20,8l-17,-2l-58,-20h-25l-28,6l-25,-14l-30,-8l-22,19l-36,11l-23,-5l-41,2l-12,6l-2,14l-11,22l-48,22h-41l-42,-16l-14,2l-28,17l-11,22l3,45l-8,16l-36,25l-11,-2l-31,-17h-17l-53,14l-11,5l-11,14l-30,6h-17l-11,-11l-36,-9l-45,3l-14,11l-2,11l-25,11l-17,14l-11,17l-14,31l-11,11l-28,11h-22l-20,-8l-30,-23l-33,-16h-20l-25,11l-72,-11l-14,11l-22,30l-45,-2l-19,-12l-17,-22l-14,-28l-22,3l-30,22l-37,20l-8,33l-22,28l-25,19l-45,17l-19,14l-22,8l-6,20l-16,36l-6,19l-6,50l3,20l-39,11l-44,8l-17,-16l-19,-28l-25,-3l-22,3l-70,39l-55,58l-14,11l-31,14l-5,17l-20,14l-8,-6l-22,-39l-17,-3l-39,9l-8,25l-20,14l-53,19l-52,3l-23,-6l-11,11l-8,17l-19,19l-45,-27l-25,2l-8,12l-28,-12l-36,3l-36,9h-22l-20,-14l-50,-28l-28,8l-14,-53l-30,-13h-14l-17,16l-11,20l-16,5l-20,-5l-30,14l-14,-6l-17,-28l17,-19l-25,-23l0,-13l-17,-25l-25,-17l0,-19l25,-9l25,6l17,8l28,-14l55,-42l6,-11l-6,-19l-25,-14l-25,-5l-19,-17l-12,-45l6,-22l25,-19l-8,-14l-25,-22l-11,-6h-28l-17,6h-19l-22,-23l-6,-13l-20,-31l-19,-17h-11l-33,9l-59,27l-19,28l3,17l-9,14l-14,11l-22,8l-41,3l-42,-17l-6,-11l-16,-16l-34,-9l3,-14l14,-22l6,-17l0,-16l-6,-20l-14,-16l-19,2l-48,34l-44,5l-22,11l-9,9l-25,14l-27,5l-28,17h-11l-6,-22l3,-14l28,-17l22,-17l22,-22l20,-36l5,-33l-11,-25l-19,-22l-12,-6l-38,-6l-23,-5l-36,-3l-47,-22l-17,-20l-19,-2l-14,2h-58l-11,-5l11,-20l11,-30l8,-14l42,-25l8,-22l-19,-11l-31,-9l-19,-25l-3,-27l3,-17l-6,-28l-19,-39l-34,-11l-11,-8l6,-11l14,-9l47,-2l28,-12l22,6l30,22l23,-8l11,-22l0,-28l-17,-33l-14,-14l-5,-25l5,-48l11,-22l56,-61l25,-25l14,-36l-3,-14l-22,-5l-6,-12l-16,-11l-37,6l-55,17l-25,-9l-19,-19l-20,-9h-25l-14,-33l-22,-8h-22l-9,-11l0,-23l28,-58l-11,-36l19,-22l23,-20l8,-25l-8,-11l-17,-11h-17l-47,8l-30,-13l-20,-6l-30,-3l-23,6l-39,22h-16l-9,8l3,42l-2,25l-26,19l-27,9l-9,8l0,17l-11,22l-11,6l-25,2l-8,9l-20,8l-69,14l-28,19l-28,42l-22,17l-14,-3l-22,-20l-28,3l-14,-8l-16,-17h-11l-17,17h-17l-19,-14l-28,-6l-44,14l-45,28l-25,6l-19,-9l-48,31l-16,-6l-36,-19l-20,-6l-27,-14l-14,-19l0,-36l-14,-17l-25,-3l-25,20l-47,-3l-12,3h-38l-37,19l-14,3l-16,-5l-22,-17l-25,-14l-17,-6l-25,-19h-72l-17,3l-25,-9l-11,-11l-17,3l-19,22l-50,11l-34,3l-27,14l-45,-11l-14,3l-72,25l-42,19l-22,3l-8,-6l-14,-22h-28l-39,-8l-36,-14l-39,-25l-11,-11l-2,-14l5,-31l36,-41l0,-20l-39,-8l-33,-19l-45,-23l-52,-33l-14,-25l-9,-36l20,-20l3,-33l-11,-36l11,-28l19,-16l20,-25l-6,-50l8,-14l45,-28l72,-36l17,-6l36,-5l22,-23l0,-22l-31,-14l-38,-47l-21,-61l-21,-47l-14,-22l-14,-39l-3,-20l-8,-14l-36,-41l-28,-17l-53,-19l-19,-12l-20,-5l-44,-20l-36,-2l-11,2l-6,-27l-30,-23l5,-25l25,-22l9,-11l0,-17l-6,-16l0,-34l-42,-22l-11,-75l3,-25l-3,-14l0,-33l6,-22l-9,-45l6,-8l39,-28l11,-16l3,-14l16,-22l20,-17l30,-14l12,-17l-14,-30l5,-14l14,-9l20,-30l11,-8l33,-42l19,-8l78,-48l17,-19l3,-14l-20,-31l6,-8l22,-17l14,-5l5,-17l-11,-8l-33,-17l-19,-16l-12,-17l-16,-6l-36,-5l-50,-31l-9,-14l0,-22l12,-19l16,-17l45,-28l47,-44l14,-20l22,-8l8,-8l31,-17l30,-25l11,-39l37,-39l19,-14l56,-19l44,-11h20l22,-6l-3,-22l-14,-44l-25,-34l-56,-33l-30,-14l-17,-28l6,-22l22,-11l42,-31l8,-16l3,-39l-33,-47l-12,-39l0,-36l3,-31l-3,-36l3,-17l11,-25l3,-47l6,-31l16,-33l11,-14l6,-19l3,-36l-9,-50l0,-98l9,-41l14,-20l14,-33l2,-22l-11,-42l-14,-17l-25,-16l-11,-36l11,-48l-8,-27l-17,-25l-11,-9l-28,-8l-16,-11l-3,-22l11,-67l-6,-17l-11,-8l-36,3l-33,19l-14,11l-31,17l-27,36l-23,20l-61,27l-33,25l-11,28l-20,36l-22,25l-36,14l-33,3l-20,8l-8,26l-19,105l-11,30l-20,28l-25,6h-17l-30,16l-28,25l-17,36l-19,28l-25,17l-33,14l-42,-3l-31,-11l-19,3l-36,11l-39,28l-42,25l-14,5h-33l-11,-5l-14,-20l-19,-55l-23,-37l-25,-30l-47,-31l-8,-47l-6,-19l-36,-39l-39,-25l-25,-11l-36,-25l-25,-14l-28,-22l-25,-14l-16,-20l-50,-50l-39,-50l-39,-36l-61,-42l-33,-19l-53,-19l-45,-34l-28,-11l-25,3l-27,14l-34,11l-16,-14l-9,-17l-16,-52l0,-103l-11,-39l-17,-20l-28,-38l-16,-48l-3,-14l-20,-27l-19,-14l-20,-39l-14,-33l-19,-17l-33,-17l-14,-11l-25,-28l-9,-27l-8,-17l-33,-31l-20,-14l-39,-16l-38,-25h-12l-25,19l-25,14h-13l-37,-14l-22,3l-30,8h-20l-36,-5l-11,-6l-28,3l-47,22l-39,31l-19,25l-9,5l-19,28l-3,14l-14,14l-22,8l-5,17l-14,14l-3,19l-17,31l-17,16l-19,50l-31,14l-8,11l-8,34l-14,14l-39,11l-61,25l-14,22l-6,39l0,28l-11,25l-25,41l-39,17l-27,17l-48,14l-25,11l-13,11l-64,33l-28,11l-28,39l-50,25l-28,8l-30,3l-25,9l-22,13l-17,17l-14,25l-31,22l28,17l28,5l33,3l20,6l16,14l31,47l22,25l6,25l-3,25l-6,14l9,19l-3,17l3,31l0,119l-6,39l11,25l11,14l17,11l6,17l0,69l-6,22l-11,22l-19,3l-31,-3l-28,6l-16,14l-64,69l-25,36l-34,28l-16,28l-11,39l-3,19l-14,28l-53,31l-25,22l-11,14l-44,39l-31,41l-78,28l-25,25l-58,50l-39,11l-56,-19l-69,-3l-28,6l-69,25h-36l-23,5h-27l-23,-5l-63,-6h-20l-36,6l-17,11l-25,33l-16,6l-56,25l-58,-6l-72,14l-20,5l-11,9l-50,-34l-36,-2l-25,25l-14,8l-17,19l-25,11l-11,37l-14,33l-27,33l-39,20l-17,27l-22,14l-11,12l8,16l3,22l-17,53l-14,11l-22,28l-14,22l6,48l0,19l-6,33l-11,20l17,47l-9,22l-5,28l-9,17l9,50l-6,25l11,25l17,22l33,19l53,103l8,31l-5,27l14,28l19,31l9,41l22,37l22,44l3,36l-3,28l8,28l14,27l20,28l16,34l-8,30l31,53l2,25l-27,11l-42,-6l-42,-11l-25,3l-47,17h-31l-36,5l-16,6l-39,3l-31,-6l-8,8l-20,3l-38,-3l-28,3l-25,14l2,20l-38,36l-39,-9h-25l-28,6l-17,-3l-50,-17l-22,-11l-47,-27l-39,-3l-22,11l8,55l-8,23l-14,16l-11,53l-11,17l-59,-23l-14,6l-22,36l-22,20l-14,5l-83,42l-31,5l-19,-19l-11,-33l2,-48l-11,-33l31,-53l5,-19l-13,-8l-37,19h-36l-22,3l-25,11l-25,-11l-44,-9l-34,-22l-36,-28l-30,9l-70,25l-28,-6l-13,3l-17,14l-70,14l-33,14l-25,14l-22,8l-58,30l-39,34l-28,16l-53,23l-36,27l-25,11l-56,-16l-63,-8l-31,-9l-53,-19l-53,5h-33l-47,14h-20l-30,-16l-17,-28l-16,-34l-20,-19l-33,-19l-31,-23l-36,-19l-50,-58l11,-17l17,-3l11,-8l11,-17h31l30,-19l17,-6l8,-17l-8,-30l-33,-42l30,-25l25,-14l42,-14l39,17h16l17,-17l14,6l44,6l23,-6l13,-22l0,-28l-11,-25l-25,-11l-5,-25l25,-14l14,-19l25,-23l14,-25l8,-25l0,-14l-14,-27l-47,-81l-20,-8l-27,-20l-31,-27l-36,-23l-45,-58l-16,-19l-22,-9l-9,-14l6,-14l19,-16l17,-20l5,-22l-11,-36l0,-31l9,-22l-6,-22l-33,-17l-22,-8l-20,6l-36,-17h-22l-28,-28l-20,-3l-49,14l-17,17l-22,11l-75,-6l-9,6l-5,50l-34,17l-69,41l-22,6l-53,-6l-11,9l-20,-6l-8,-14l-5,-39l-12,-11l-33,11l-19,17l-28,-17l-11,-2l0,-28l11,-14l30,-11l6,-28l-11,-25l3,-14l14,-22l16,-17l11,-17l-14,-41l-2,-25l5,-11l-3,-17l-11,-11l-19,11l-25,56l-6,22l-11,8l-19,3l-20,-6l-22,-16l-14,-6l-14,3l-47,25l-25,33l-19,17l-20,11l-30,3h-42l-22,8l-20,14l-16,33l-17,25l-11,9h-17l-50,-22l-22,-3l-17,5l-19,17l-14,31l-19,63l5,23l8,50l-2,58l-6,36h-11l-47,-28l-28,-19l-83,-31l-17,3l-56,25l-22,3l-75,-17h-19l-14,9l-6,36l6,16l64,39l8,11l0,20l-5,16l-12,12l-27,5l-28,11l-11,20l-3,14l19,63l34,56l-3,17l-39,91l-36,45l-39,28l-30,41l-39,22l-23,25l-66,112l-20,41l-30,31l-31,22l-12,16l-28,27l-35,26l-33,28l-28,20l-19,8l-28,3l-22,16l-3,34l-8,25l-26,53l-8,27l-8,39l-33,47l-25,20l-28,33l-28,28l-19,6l-45,5l-39,22l-35,12l-12,8l-11,39l-31,-6l-11,-8l-19,8l-17,-3l-47,-27l8,-34l9,-14l22,-16l-6,-50l-30,-34l-3,-16l19,-34l-5,-30l19,-6l-50,-61l-8,-28l3,-19l8,-22l-36,-53l-6,-31l-14,-44l9,-45l-9,-30l14,-22l-25,-20l-25,-25l-8,-19l3,-59l30,-16l34,-47l8,-20l19,-11l31,-8l58,16l25,-30l6,-31l8,-14l11,-5l25,-3l14,-6l0,-22l-16,-19l8,-6l36,9l64,2l11,-8l-8,-20l-48,-30l-33,-28l-44,-14l-14,-11l-36,-39l-11,-8h-20l-55,17l-50,33l-17,8l-36,-14l-14,3l-17,11l-17,6h-22l-27,-6l-9,-8l3,-25l11,-19l0,-17l-19,-25l-14,-6l-11,6l-64,61l-17,14l-11,28l-31,2l-14,9l-58,-20l-39,11l-14,9l-8,28l-8,11l-20,5l-14,14l6,11l33,31l14,16l6,17l-11,17l-23,25l-116,58l-22,17l-17,3l-42,-17l-50,-31l-14,-2l-14,5l-22,25h-28l-36,-30h-83l-42,-17l-66,-11l-20,8l8,11h-38l-23,17l-50,5l-38,23l-28,5l-22,-3l-28,3l-31,14l-25,-3l-28,-14l-50,3l-13,3l-14,11l-14,33l-14,17l-14,6h-28l-14,5l-16,20l-14,8h-22l-17,-19l-3,-23l-22,-11l-17,9l-14,13l-16,9l-31,-9l-14,-14l-36,-52l-30,-25l-14,-6l-59,-8l-30,-22l-36,-6l-20,-6l-50,-24l-36,8l-47,19l-20,6l-11,-3l-39,-28l-36,-8l-16,-11l-28,-28l-17,-3l-100,3l-22,-11l-14,-14l-8,-22l-47,-36l-20,-28l6,-17l8,-50l-14,-50l-8,-19l-14,-11l-20,-9l-30,12h-20l-5,-9l0,-61l-3,-14l-28,-28l0,-27l-14,-6l-13,6l-28,27l-11,3l-28,-22l-3,-33l6,-25l-3,-23l-17,-22l-5,-33l2,-39l-8,-11l-19,-8l-17,2l-8,53l-20,50l-36,64l-11,17l-20,66l-24,53l-12,20l-14,5l-5,-17l-14,-13l-17,-9l-25,-3l-25,6l-16,17l-14,25l-20,16l-25,-5l-8,8l-5,53l-9,17l3,22l-8,97l-14,19l-3,59l-11,28h-125l-50,5l-117,3l-46,5l-4,98l-116,55l-31,6l-6,41l-14,28l-52,92l-59,114l-16,36l-28,42l-25,30l-36,61l-14,31l0,19l-75,103l-47,69l-34,42l-25,22l-33,20l-25,64l-3,30l42,47l11,34l-5,55l-12,53l-22,53l-22,39l-11,27l-31,106l-39,95l-27,27l-11,31l-23,25l-28,22l-36,25l-33,17l-86,58l-31,13l-50,4l-27,8l-34,17l-30,22l-25,22l-36,20l-28,25l-17,27l-33,45l-36,16l-39,9l-58,-31l-67,-61l-64,-30l-111,-14l-111,-3l-59,6l-52,19l-81,64l-75,8l-47,20l-42,25l-22,5l-36,-14l-72,-25l-25,-2l-23,8l-27,17l-31,58l-14,69l-8,20l-20,11h-133l-42,-17l-25,-19l-30,-59l-28,-19l-42,-11h-86l-97,-11l-108,-11l-102,20l-407,60l-111,-36l-64,-14l-277,25l-106,-39l-67,-47l-36,-28l-53,-19l-86,-25l-100,-20l-169,-27l-70,-14l-2,-23h-28l-64,14l-75,14l0,17l-39,14l-30,-3l-59,-17l-58,-5h-86l-67,-25l-58,-58l-36,-39l-192,75l-69,22l-64,28l-73,50l-88,75l-78,47l-67,36l-39,36l-36,50l-100,217l-136,391l-39,73l-61,63l-200,214l-67,53l-83,56l-64,28l-186,69l-58,25l-84,44l-52,31l-67,42l-64,25l-69,22l-164,78l-81,5l-50,-3l-33,-11l-28,-16l-50,-64l-41,-61l-89,-64l-39,-67l-9,-50l-25,-94l-3,-53l34,-156l5,-52l-5,-62l14,-66l61,-206l39,-100l25,-30l41,-45l73,-53l69,-47l61,-44l303,-159l80,-52l50,-39l42,-36l39,-39l92,-153l80,-208l28,-98l36,-77l34,-42l99,-108l92,-81l22,-33l9,-39l16,-117l6,-83l56,-39l13,-78l95,-50l63,-36l31,-16l43,-25l37,-33l39,-38l91,-98l54,-120l41,-65l46,-52l52,-47l49,-18l71,-19l56,-45l114,-63l54,-38l20,-59l7,-45l63,-230l29,-131l49,-60l54,-73l51,-48l56,-47l69,-44l64,-53l37,-23l59,-51l20,-31l96,-176l38,-62l36,-51l48,-60l35,-32l20,-14l47,-61l16,-27l34,-31l30,-17l39,-25l14,-5l47,-11l36,-3h98l36,11l44,11l36,6l36,-3l89,-20l23,-8l41,-11l31,-19l27,-23l26,-25l33,-25l78,-50l58,-19l67,-14l66,-28l131,-64l83,-55l38,-5l70,-59l53,-28l56,-19l41,-17l34,-19l33,-23l17,-22l33,-55l31,-25l28,-12l25,-5l19,-14l228,-133l89,-45l11,-19l11,-28l5,-22l-5,-25l5,-31l25,-78l14,-27l14,-73l25,-41l28,-39l83,-67l45,-25l22,-16l30,-28l42,-64l22,-39l17,-42l28,-55l55,-59l98,-86l216,-186l39,-41l22,-31l34,-42l42,-43l88,-235l31,-661Z" /><path id="1402" d="M-610221,19996l-104,86l-13,77l-36,92l-54,61l-25,46l-62,151l-15,120l13,88l36,116l69,164l138,246l56,79l59,128l53,56l80,72l97,69l130,101l228,195l79,100l109,110l136,98l150,105l50,99l25,75l39,144l28,78l19,42l28,44l47,33l159,67l166,108l78,89l28,67l11,97l55,217l6,102l-11,70l-19,53l-86,75l16,39l-11,27l-3,48l3,55l14,56l22,58l42,56l28,47l13,67l-16,108l-59,-47l-33,-37l-28,-11l-22,3l-139,56l-36,5l-8,17l25,19l66,20l20,14l11,16l3,23l-11,30l-34,48l-89,88l-105,67l-39,28l-78,41l-44,6h-22l-36,-19l-9,-17l-5,-31l-14,-25l-17,-11l-22,-5l-22,8l-17,17l-11,19l-6,22l9,20l13,16l153,139l28,20l8,19l6,61l-6,81l-16,25l-25,8l-64,3l-45,17l-125,63l-52,12h-78l-36,13l-28,-2l-20,-14h-13l-6,11l14,28l30,41l39,70l42,89l44,55l6,20l-19,77l2,25l11,23l20,11l80,-14l20,14l5,28l-22,52l6,42l19,33l14,37l6,44l2,78l-5,30l-20,81l0,122l-22,78l-25,41l-64,45l-47,50l-42,19l-27,42l-25,25l-28,14l-36,6l-20,-6l-22,-11l-36,-31l-33,-19h-25l-17,11l-8,22l-9,50l-27,58l-28,49l-11,15l-25,12l-31,-14h-22l-31,13l-14,31l-25,36l-80,39l-75,43l-35,19l-34,12l-23,-13l-27,-8l-26,-11h-25l-16,8l-24,55l-39,75l-20,21l-25,5l-17,-20l-20,-42l0,-100l-11,-38l-16,-23l-34,-16h-33l-27,10l-32,18l-19,38l-19,31l-29,25l-31,12l-32,9l-94,15l-33,11l-21,40l-33,77l-49,30l-63,22l-37,6l-18,-12l-14,-21l-19,-70l-8,-19l-17,-17l-30,-8l-32,3l-81,21l-72,13l-38,18l-5,23l4,61l-4,80l-14,38l-16,9h-17l-11,-23l9,-111l-9,-29l-30,-35l-22,-15l-28,-13l-68,-9l-82,-53l-113,-45l-155,-100h-19l-50,32l-17,44l-38,30l-12,-6l-12,-44l-14,-17l-35,-5l-65,18l-36,-2l-24,-25l-5,-19l3,-14l25,-56l2,-16l-19,-50l-75,-78l-45,-25l-52,-11l-53,-22l-31,8l-16,8l-25,41l-50,90l-31,22l-133,33l-39,9l-34,2l-36,-18l-51,-45l-18,-59l-17,-14l-36,-8l-20,18l-1,46l-11,94l-48,77l-38,72l-10,40l6,22l14,17l22,14l20,36l2,25l-5,22l-14,23l-53,16l-92,67l-16,19l0,14l11,17l36,8l19,11l-5,25l-14,6l-39,-8l-42,16l-22,6h-36l-22,5l-14,17l-8,36l2,28l23,58l0,25l-53,25l-11,11l-3,17l6,56l-20,41l-14,17h-11l-44,-36l-23,-6l-19,6l-8,17l2,47l-5,19l-20,14l-63,3l-20,14l-8,16l0,95l-25,114l-31,44l-19,67l-31,61l-19,19l-70,37l-19,2l-11,11l0,20l11,25l11,16l19,20l45,33l8,14l3,20l-11,78l-17,22h-14l-66,-28l-17,5l-44,64l-153,139l-45,28l-77,11l-64,14l-23,11l-25,25l-36,19l-52,-13l-17,2l-26,17l-44,23l-23,19l-21,30l-6,40l-14,72l-8,49l-16,14l-24,6l-30,-11l-19,-36l1,-47l-22,-8l-31,15l-33,37l-19,17l-25,12l-23,-7l-63,-50l-20,16l-15,18l-32,8l-55,-32l-24,-2l-22,-16l-17,2l-19,14l-67,20l-64,44l-35,9l-34,-6l-28,8l-78,48l-33,30l-6,17l0,25l-8,36l-8,8h-17l-30,-8l-23,-3l-16,11l-17,17l-14,22l-8,31l8,41l-3,23l-47,26l-21,-9l-26,3l-3,28l-8,16l-30,29l-13,38l-10,15l-14,11l-27,-4l-12,2l-22,28l-8,17l-31,21l-39,8l-33,-10l-66,-39l-63,-19l-42,-5l-57,-12l-28,-28l-52,-19l-34,-17l-35,-11l-48,18l-25,-6l-23,-38l-18,-35l-19,-26l-60,-63l-42,-68l-39,-39l-34,-26l-39,-9l-58,-43l-39,-53l-34,-27l-44,-58l-36,-38l-91,-69l-44,-38l-91,-142l-30,-18l-21,-23l-11,-30l-1,-46l-26,-33l-7,-43l-28,-30l-14,-20l-7,-25l-2,-28l-8,-19l-40,-56l-27,-25l-10,-19l-2,-15l17,-44l8,-10l28,-17l31,-6l18,-14l13,-31l19,-15l23,-3l13,5l30,39l22,14l17,-4l25,-29l9,-14l5,-22l0,-34l-11,-23l-28,-16l-22,-8l-37,-1l-19,9h-15l-20,-16l-11,-23l-14,-9l-32,-4l-36,9l-36,-14l-27,-7l-16,-11l-14,-20l-8,-32l-14,-20l-32,-10l-16,-20l-3,-46l-12,-6l-37,-10l-15,-22l0,-43l-7,-30l-5,-13l-20,-19l-5,-24l5,-18l-13,-15l-10,-28l-5,-33l12,-36l18,-6l20,5l9,17l-3,31l10,13h31l21,-26l29,-69l0,-36l-7,-26l0,-22l9,-26l-4,-41l-5,-19l-31,-25l-27,-12h-32l-34,-8l-40,-16l-40,-5l-20,2l-52,30l-41,11l-17,-11l-6,-19l-10,-15l-13,-1l-31,20l-7,16l6,22l10,16l0,9l-14,9l-18,-6l-105,-76l-15,-27l-30,-34l-45,-19l-29,1l-67,5l-121,-60l-17,-24l0,-23l11,-34l-11,-15l-15,-8l-27,11l-39,45l-49,27l-22,2l-43,-31l-53,-16l-41,-34l-58,-15l-63,-37l-42,-9h-47l-32,9l-19,14l-14,44l-17,36l-11,9l-57,29l-15,3l-19,-9l-3,-22l-9,-28l-9,-8l-38,-9l-47,28l-36,17l-40,-2l-57,-24l-28,-2l-19,19l-37,66l-13,42l-15,14l-26,8l-90,-28l-15,-18l-8,-36l-6,-47l-25,-44l-27,-31l-12,-9l-30,-14l-43,25l-89,18l-35,6l-32,-1l-45,-5l-33,8l-42,52l-7,30l3,68l31,64l4,19l-32,43l-23,21h-32l-29,-19l-18,-2l-32,8l-30,-5h-18l-13,11l-9,34l-3,22l-17,9l-39,30l8,25l-5,28l-20,8l-39,6l-22,-6l-28,-14l-14,-11l-19,-3l-165,-14l-15,6l-70,36l-42,6l-56,-14l-27,8l-39,-2l-12,3l-25,17l-11,18l-17,6h-28l-20,3l-20,13l-34,3l-16,6l-37,42l-17,13l-107,14h-22l-59,-11l-26,-3l-102,-1l-50,10l-31,-4l-63,-19l-28,-4l-12,2l-21,26l-37,10l-61,-5h-41l-87,3l-44,7h-23l-44,-5l-35,5l-78,6l-42,-6l-53,9l-39,-14l-16,-3l-17,8l-19,31l-3,28l-8,8l-53,18l0,15l9,16l29,13l1,7l-45,14l-55,12l-28,-14l-46,-62l-35,-16l-26,-1l-37,5l-39,-1l-41,-10l-68,12h-77l-28,6l-21,10l-30,7l-43,-6l-34,3l-28,-7h-30l-38,23l-38,17l-31,6l-35,-3l-67,-28l-125,26l-47,6l-28,9l-26,5l-51,27l-32,-1l-44,11l-81,22l-21,12l-19,22l-44,13l-7,14l-14,1l-18,-24l-16,-8l-45,9l-44,13l-11,11l-71,-6l-33,8l-24,-7l-23,-4l-35,11l-31,4l-41,15l-41,12l-26,12l-14,11l-14,-3l-33,11l-39,1l-39,8l-42,-8l-55,-4l-13,-7l-17,-30l-44,-12h-15l-24,-12l-38,-4l-25,-5l-11,2l0,42l-27,15l-46,10l-11,-6l-21,-19l-12,-25l-28,2l-23,-8l-39,-22l-18,-3l-27,9l-26,5l-17,-14l-3,-27l-14,-17l-42,-2l-54,-14l-27,15l-45,1l-10,11l-10,-1l-37,-18l-1,-19l-7,-9l-98,-41l-42,-32l-10,-22l-13,-17l-56,-2l-17,-10l-23,-26l-33,-24l-26,-10l-6,-12l-23,-10l-74,-20l-23,-10l-28,-3l-35,-9l-36,-11l-30,-5l-40,-10l-21,-11l-25,-1l-52,-11l-29,-2l-36,-17l-39,-4l-52,-4l-35,-7l-16,-8l-31,-5l-26,5l-36,-19l-14,7l0,22l-11,20l-15,5l-40,8l-16,14h-48l-22,15l-23,-18l-16,-36l-60,36l-19,-1l-14,-21l-9,2l-13,-11l-5,-24l10,-50l-11,-20l-23,-3l-79,-35l-40,3l-16,-10l-18,-49l5,-22l-18,-8l-13,-14l-69,-4l-24,3l-25,14l-9,-7l0,-25l4,-19l-31,-22l-47,-14l-16,2l-52,26l-23,-1l-12,-18l-23,-20l-34,6l-51,20l-44,10l-10,-13l-6,-42l11,-29l15,-9l-4,-11l-76,2l-57,-22l-23,5l-21,24l-5,24l3,35l-10,15l-25,12l-21,22l-26,47l-26,21l-13,3l-29,-6l-31,5l-18,10l-9,-9l-72,36l-19,30l-19,4l-24,18l-70,-10l-50,-17l-24,23l-17,4l-16,-4l-40,37l-5,25l-15,13l-49,1l-29,-16l-34,-14l-36,7l-14,-2l-35,-20l-30,-8l-68,-11l-97,-2l-11,18l4,56l-11,16l-79,66l7,25l-14,14l-12,4l-20,23l-17,-18l-26,24l-38,43l-25,11l-15,2l-5,17l-19,14l-9,-6l0,-26h-10l-31,13l-36,11l-9,25l5,28l-3,11l-20,19l-17,31l-17,9l-24,-2l-29,6l-2,27l-9,36l-2,28l4,24l-11,14l-22,13l-17,-2l-15,-13l-7,-23l7,-21l-6,-30l-36,-58l-3,-18l-9,-16l-27,-67l-17,-8l5,-10l13,-1l6,-15l-8,-8h-17l-33,21l-37,15l-21,14l-19,31l-1,14l-12,6l-21,-1l-21,-11l-12,-21l-1,-20l-15,-3l-17,8l-18,18l-9,21l-15,6l-24,-7l-31,6l-21,-19l-15,-4l-15,4l-15,-3l-10,12l-6,21l-19,1l-22,-11l-9,-10h-16l-24,15l-14,-13l0,-11h-20l-16,5h-34l-24,8l-19,-6l-21,2l-42,14l-21,11l-16,15l-24,17l1,30l-6,10l-22,11l-36,6l-11,6l-12,17l-14,3l-25,-20l-25,-7l-28,9l-13,14l-22,6l-27,12l-19,-15l-15,-2l-24,20l-8,17l-28,37l-5,33l-20,18l15,36h9l6,-13l11,3l-3,22l-6,6h-19l-24,-5l-20,9l-29,26h-20l-39,12l-12,6l-36,-12l-21,-4l-30,-12l-23,2l-33,11l-39,7l-29,29l-17,11l-7,19l-14,-6l-18,-22l-21,-5l1,-12l12,-21l-28,-14l-9,-30l-14,-10l-18,-1l-2,-11h-13l-12,29l-21,9l-20,-2l-16,20l-15,12h-9l-19,-11l-48,-10l-9,15l5,35l-15,24l-18,-10l1,-44l-10,-11l-15,-5h-35l-13,-7l-10,-27l-18,-4l-8,20l-22,-1l-19,-31l-10,11l-26,13l-2,-13l14,-7l5,-26l-17,5l-27,1l-2,-7l12,-29l-4,-12l-12,-9l-14,23l-14,5l-1,-17l15,-13l-3,-12l-16,2l-19,-5l0,28l-11,3l-23,-4l-41,35l-26,-30l-6,9l1,27l-14,12l-9,-5l0,-13l-13,-40l-13,12l-40,3l-1,15l14,-1l20,10l7,18l-10,14l-22,-3l-20,-15l-15,6l-1,19l-28,9l-20,-5l-20,-14l-39,-7l-12,-26l-9,-2l-49,1l-8,15l-15,2l-11,-15l-14,1l-1,10l21,11l4,35l-16,3l-19,12l-11,-1l-6,-12l11,-15l-10,-12l-34,-13l-14,18l-16,9l-1,9l14,11l-1,19l-16,-2l0,-16l-15,-8l-8,15l-15,4l-18,-17l-12,-4l-10,14l-18,-4l-5,-20l-16,-9l-8,4l2,17l-13,4l-7,-12l-15,3l0,27l-5,2l-21,-19l-17,10l13,12l-1,21l-13,1l-6,-26l-17,-4l8,20l-4,16l-13,-13l-17,-2l-7,15l-10,2l-16,-7l-10,3l-13,14l-1,32l-11,-10l-12,5l-6,16l-14,3l-3,-12l10,-8l-4,-10l-15,6l-10,-8l6,-14l-17,-6l-16,26l-14,-1l-2,-18l-9,-11l-16,-1l-6,6l-8,38l-17,6l-14,24l-23,-4l-2,24l-21,18l13,38l-6,7l-37,6l-9,9l-8,18l-19,2l-13,14l-21,-1l-23,17l-4,-12l16,-18l1,-16l-6,-8l-13,5l-7,20l-19,4l-8,14l-10,-13l19,-10l-9,-22l-11,-2l-7,28l-17,8l-14,-12l20,-8l-4,-11l-19,-4l-7,-19l-12,2l1,19l-13,8l-14,-9l-3,-17l-12,-8l-2,-24l-11,2l-9,35l-8,5l-11,-17l-13,-5l-20,19l-17,-21l-11,12l-28,-4l-14,5l-2,10l13,6l4,10l-10,25l-14,4l-12,-8h-12l-20,9l-29,26l-9,1l-17,-19l4,-15l-19,-27l-8,12l5,17l-17,7l-11,-17l-18,14l-3,-17l-20,24l-11,-4l9,-23l-30,1l-10,-17l-12,12l-9,-14l-8,-30l-25,5l-4,-14l-19,-2l-12,-22l-17,8l-11,-9l10,-11l0,-11l-23,3l-16,-3l-18,16l-4,-11l-26,2l18,-39l-9,-4l-10,11l-18,4l-19,-5l-6,-10l-13,-4l-11,4l-6,-12l19,-9l6,-19l-9,-4l-15,13h-14l-2,-10l18,-4l-4,-15l-14,7l-6,-20l-18,-7l16,-26l-19,-3l-4,14l-14,7l-6,-11l12,-23l-18,-14l-24,-2l5,-16l-5,-7l-17,1l-16,-5l1,-22l-20,-16l-7,10l-22,-3l-9,-27l3,-14l-8,-27l-9,10l4,14l-23,-8l5,-11l-22,-2l3,-14l-6,-9l-12,11h-9l-5,-18l-11,30l-20,7l-15,-6l-16,6l-5,-8l1,-28l-9,-7l-13,14l9,8l-7,22l-12,-5l2,-14l-13,-4l1,18l-6,9l-34,4l-11,-8l-11,7l8,16l-16,2l-8,8l-16,-7l-11,-13l-16,12l-7,-11l-27,-12l-9,20l-9,-1l4,-19l-30,-15l-8,13l-21,15l-11,-10l6,-14l-13,-9l-17,7l13,11l-7,12l-13,-11l-17,29l-6,-24l-23,-5l-16,-9l-13,1l-11,-9l-7,15l-14,3l-19,-32l-3,15l-9,1l-14,-12l-21,7l-1,-16l-12,-13l-23,6l-2,-9l11,-14l-12,-13l21,-7l-1,-12l-16,-12l7,-12l1,-31l-24,-13l-6,-17l17,3l5,-6l-12,-24l0,-18l-16,-7l-12,5l2,12l-19,12l9,14l2,14l-16,14l-13,-3l-3,16h-18l-5,12l-54,-11l-13,-8l-10,-18l-40,-7l-20,-13l-18,10l-36,-10l-33,11l-13,10l-19,6l-32,16l-21,-9l-10,10l-10,31l-14,6l-14,14l-14,-1l-29,6l-25,16l-14,17l-9,18l-11,10l-16,2l-7,10l-32,15l-23,3l-22,17l-33,-12l-23,-20l-12,-6l-14,11l1,12l-15,13l-24,5l-20,21l-18,-18l-21,12l-11,-7l-7,-34l-19,-7l-22,-24l0,-16l-11,-39l-11,-10l-32,16l-17,15l-19,-20l-10,2l-9,-30l2,-16l-14,-11l7,-22l-4,-25l12,-12l0,-43l-5,-7l-19,-3l-8,-16l-18,1l-10,-10l-5,-38l12,-13l-7,-26l16,-16l17,3l11,-13l19,-10l4,-12l-3,-30l-22,-8l-6,-8l1,-22l-17,-7l-23,1l-16,7l-7,-17l17,-17l24,-31l2,-29l-12,3l-12,-5l-32,-4l-18,-13l6,-15l-9,-13l-3,-15l19,-13l-2,-12l-24,-22l-12,-22l-2,-12l18,-10l-6,-23l15,-24l19,-2l18,11l7,-30l-3,-15l14,-12l-10,-6l-7,-24l-19,-6l-5,-23l-13,2l-28,-10l-4,-16l27,5l18,-48l11,6l24,-14l2,-6l-9,-27l3,-19l-17,-13l18,-14l-2,-11l5,-20l-2,-19l14,-17l-21,-12l-19,3l-15,12l-8,-1l-7,-31l-8,-7l-26,1l-21,-48l-15,-7l-21,7l-15,-6l13,-64l15,-2l-8,-13l1,-18l-11,-7l9,-13l19,-6l-12,-21l-1,-11l11,-23l-21,-8l-1,-10l18,-16l27,-4l12,-9l1,-11l-7,-27l14,-41l-29,-20l14,-27l-2,-27l6,-9l27,-8l2,-13l-5,-14l-13,-9l-10,-28l-11,-16l-23,-18l-26,-9l-33,-4l-19,-45l-31,-23l-15,-45l-7,-14l-21,-26l-8,-5l-35,-6l-13,-9l-24,-5l-26,-12l-31,-29l-23,-36l-15,-14l-30,-19l-27,-14l-29,-23l-13,-14l-21,-4l-43,23l-34,14l-25,14l-18,15l-31,18l-43,18l-32,20l-41,18l-41,12l-11,-6l-18,-25l-10,-4h-39l-21,8l-15,12l-15,36l-9,8l-36,10h-23l-66,-8l-60,2l-70,-18l-70,-6l-70,11l-28,8l-40,35l-20,24l-41,60l-14,10l-43,20l-21,28l-28,24l-21,23l-26,11l-25,33l-50,43l-26,-1l-30,-14l-23,-16l-14,-14l-10,-29l-21,-14l-41,-1l-13,-9l-27,-34l-57,-110l-101,-51l-38,-11l-43,-30l-39,-16l-46,-14l-63,-28l-63,-23l-48,-27l-86,-35l-44,-24l-92,-30l-128,-65l-71,-30l-21,-5l-94,-45l-60,-22l-110,-53l-26,-12l-316,-139l-59,-22l-120,-58l-36,-9l-484,-213l-144,-68l-101,-37l-119,-57l-327,-146l-11,26l-12,1l-1,-18l5,-10l4,-27l45,-80l41,17l37,22l30,-26l38,24l15,-13l7,-32l14,-21l22,6l74,77l2,55l17,17l46,14l48,-18l34,16l55,-26l11,10l10,-2l9,-11h39l14,-7l16,-28l21,-12l27,2l60,29l40,2l18,24l15,28l43,34l4,27l28,24l23,-1l17,12l70,31l38,-4l79,61l21,5l7,33l28,-33l88,-9l1,-24l22,-23l24,-14l59,10l48,3l82,-57h40l56,-12l28,-7l28,-27l-13,-15l16,-28l14,-5l26,3l56,-16h15l12,-34l-4,-8l-4,-45l16,-55l51,-17l30,-26l1,-37l6,-6l29,4l28,-13l56,-35l23,25l33,-9l24,-19l35,-18l34,1l103,42l26,71l31,19l20,-28l20,-34l81,-43l10,3l58,36l4,57l30,-6l33,6l0,20l14,16l55,5l9,-12l31,2l34,5l2,-28l17,-52l0,-27l6,-9l26,-9l31,-31l26,2l47,28l11,-2l22,-22l30,16l27,-3l10,-11l12,-38l15,37l40,11l24,-18l20,7l17,-10l-1,-25l35,50l29,21l9,2l19,-20l29,13l18,-6l5,-16l16,-32l22,-8l13,2l13,16l6,26l21,15l35,17l30,5l54,32l-20,-60l2,-27l29,8l20,18l18,34l55,-11l28,18l14,35l-7,46l100,-16l30,-25l85,-10l25,-9l16,-27l25,-1l25,-12l17,-14l11,22l16,-3l28,-12l25,10l12,39l30,3l5,-43h38l-9,-34l-11,-32l2,-17l18,-11l14,-78l-16,-17l-12,-20l6,-20l-3,-21l28,12l12,20l21,1l12,16l26,14l16,-14l27,1l25,-23l24,13l10,12l14,-15l4,-10l34,-5l25,-15l13,23l12,-21l11,-12l27,8l18,-10l66,34l36,6l15,12l6,18l19,7l16,22l17,-9l4,-11l-11,-27l14,-8l31,-3l5,25l25,16l2,12l-3,21l6,20l17,14l33,-5l22,6l9,-27l-9,-12l-9,-28l5,-30l38,11l16,11l8,23l17,19l20,-49l6,-21l25,-33l15,-1l23,6l8,-15l-2,-23l2,-24l-21,-17l3,-20l10,-13l3,-17l29,-5l11,-17l15,-47l1,-23l29,-1l10,14l10,1l8,24l11,-20l21,-7l15,1l10,35l0,16l-17,14l-1,25l40,24l15,-8l21,-32l22,39l3,21l37,7l8,12l5,16l-3,20l-9,18l7,63l8,16l15,11l34,41l12,26l-12,26l10,8l14,-2l17,6l15,21l27,21l18,-8l24,-18l15,6l17,20l2,16l20,38l15,13l17,2l17,-23l-1,-21l4,-12l24,-38l-24,-11l3,-12l21,-26l10,-3l38,8l-7,-36l-21,-8l33,-17l7,-30l34,-12l9,-11l16,-6l26,8l25,2l8,-21l18,-20l14,7l6,16l3,22l-4,13l15,5l32,-9l11,-16l3,-20l9,-9l41,7l44,-8l14,3l0,-29l5,-17l-8,-42l10,-25l11,-13l11,4l13,18l15,13l26,-14l-28,-24l1,-21l-12,-32l10,-12l-4,-66l3,-14l21,-17l-11,-27l2,-20l16,-32l76,-12l8,-23l0,-36l-17,-34l-18,-21l-2,-11l-18,-6l-13,-24l-35,-22l-13,-23l10,-9l-5,-13l-31,-34l1,-16l-28,-5l-9,16l-22,-3l3,-27l-13,-25l-2,-38l5,-58l14,-17l-1,-11l-14,-20l2,-25l21,-13l39,-16l19,1l3,-20l-5,-35l15,2l9,-11l33,-6l8,-15l13,-10l-5,-15l-11,-11l4,-16l-13,-51l-37,-16l-4,-17l8,-17l-6,-6l42,-72l11,-10l5,-24l-5,-20l-29,-34l-35,-68l28,-23l-7,-17l2,-14l15,-23l-7,-18l24,-11l13,-20l1,-43l7,-36l-33,-22l-32,-51l10,-22l-24,-53l4,-32l-18,-22l11,-20l-4,-25l18,-22l-17,-8l-19,-3l-33,-13l-20,-36l-17,-13l-8,-39l-19,-17l-5,-19l4,-8l25,-4l16,-26l15,-52l-11,-23l4,-13l25,-3l15,-24l-4,-3l30,-30l93,-118l222,-130l111,-84l157,-107l76,-37l141,-46l127,-23l403,122l420,146l286,-9l69,-60l123,-10l87,-122l-11,-85l1,-98l24,-82l80,-177l41,-119l43,-85l126,-172l125,-111l92,-68l22,-63l60,-90l64,-61l173,-111l214,-95l84,-47h133l160,24l141,8l161,64l158,67l97,-13l60,-26l255,-34l204,-13l281,-33l110,-21l92,-6l97,-31l44,-65l30,-60l83,-91l335,-135l204,-51l168,-64l129,-62l73,-44l74,-54l89,-110l27,-59l46,-218l-6,-107l-49,-274l-61,-128l-172,-347l-36,-82l-7,-126l4,-62l39,-238l-1,-106l11,-154l41,-271l-13,-101l-49,-124l-49,-49l-65,-58l-41,-28l-115,-103l-103,-49l-76,-150l-89,-83l-106,-127l-102,-241l-24,-70l-6,-86l9,-43l39,-46l61,-48l135,-94l114,-118l136,-131l46,-63l24,-53l85,-25l50,-39l22,-86l14,-122l19,-92l100,-111l106,-55l116,-76l139,-146l78,-62l78,-19l125,-42l100,-53l66,-50l45,-64l83,-200l69,-80l-2,-94l0,-317l97,-101l11,-94l31,-94l44,-80l17,-87l3,-94l8,-81l19,-94l106,-347l103,-281l175,-397l44,-128l17,-84l25,-221l25,-128l28,-108l40,-88l115,-232l86,-50l231,3l131,35l133,-13l-17,-192l-50,-105l-8,-87l47,-77l-33,-123l30,-116l103,-139l28,-75l47,-61l69,-50l42,-70l22,-86l9,-97l-45,-75l-11,-78l-53,-86l-67,-47l-69,-61l-39,-67l-22,-97l-39,-122l-75,-192l-14,-95l0,-85l14,-76l36,-77l70,-58l80,-78l34,-86l41,-208l9,-145l-53,-83l-81,-62l-77,-50l-217,-178l-114,-161l-92,-105l-75,-111l-47,-89l-39,-162l-11,-99l42,-189l11,-78l53,-191l11,-123l52,-136l26,-97l5,-100l-30,-86l-9,-100l-17,-94l-38,-92l-6,-95l-14,-103l-30,-77l-3,-103l30,-94l70,-138l18,-130l8,-109l-2,-82l19,-98l93,-32l105,44l137,92l47,-75l128,-206l91,-83l25,-75l0,-178l39,-66l58,-67l-66,-56l11,-83l-50,-58l-42,-67l-14,-105l-44,-92l83,-195l-61,-291l-36,-86l17,-78l41,-64l28,-92l53,-88l-6,-81l3,-87l9,-116l11,-78l55,-72l86,-53l47,-69l53,-145l9,-127l36,-75l8,-86l-11,-95l-37,-71l29,-57l21,-63l8,-77l-5,-46l10,-60l18,-32l35,-39l50,-105l22,-51l22,-15l69,-31l56,-35l38,-39l49,-27l54,-9l32,-8l76,-9l38,-20l42,-52l23,-54l44,-56l29,-29l22,-15l39,-10l42,-51l52,-75l-2,-24l6,-22l31,-43l8,-34l-8,-39l5,-16l18,-19l23,-16l20,-20l6,-12l-4,-17l3,-30l24,-46l9,-27l-1,-35l-18,-14l-9,-15l8,-20l3,-40l8,-23l-3,-22l15,-13l14,-23l8,-39l-4,-38l12,-11l36,1l24,-11l3,-18l-12,-17l-8,7l-20,-3l-3,13l-12,-2l-14,-13l0,-22l7,-27l-1,-33l-7,-9l-12,6l-23,35l-15,6l-44,-11l-12,-8l22,-30l6,-34l-8,-21l8,-10l23,-14l24,-2l27,10l20,4l24,-21l15,-24l-3,-20l-13,-28l-25,-14l-18,-6l-11,-17l54,-31l8,11l22,-3l3,-26l10,-23l-2,-21l-19,2l-45,-18l4,-31l-23,-24l6,-24l38,-23l6,-18l12,12l26,7l12,-24l16,-22l-1,-17l14,-24l4,-24l10,-28l25,-20l48,-24l16,-2l32,-26l12,-26l12,-16l-14,-7l-10,-16l9,-17l20,-23l4,-15l12,-15l19,-14l16,3l37,-33l-6,-16l20,-22l17,-52l-4,-14l18,-19l17,-6l8,6l19,-16l25,-14l17,-19l11,5l8,-8l0,-17l28,-20l5,-18l23,-26l5,14h13l7,12h15l10,-9l15,-22l42,-16l14,-10l23,-31l33,-15l18,9l6,-6l10,-51l-19,-33l9,-26l-5,-11l-19,-22l-15,9l2,-23l-15,-45l24,-57l-7,-27l6,-15l11,-10l-14,-7l11,-38l-16,5l2,-16l-25,-21l-23,1l-1,-7l-20,-17l3,-12l-13,-1l5,-17l22,-45l-7,-44l-2,-24l-14,-10l-1,-23l6,-22l12,-21l17,-19l6,-22l-9,-37l-9,-25l-6,-26l3,-16l8,-4l31,13l23,14l40,-3l28,-43l4,-15l-14,-15l-25,5l-7,-28l-9,-18l-16,-9l-11,-31l-11,-3l-16,7l-8,-29l-8,-13l-9,14l-18,-34l-9,-28l-4,-33l9,-35l21,-52l16,-26l56,-48l8,-11l-2,-35l-15,-3l-10,19l-10,8l-11,-1l-5,-10l0,-36l11,-2l32,-15l17,-12l20,-23l1,-35l12,-3l13,20l9,-22l12,-6l9,-15l0,-23l5,-24l14,9l17,-27l25,-5l12,8l16,-5l-4,16l11,14l16,10l20,21l9,20l11,5l20,-13l6,-16l18,-14l11,10l11,-1l3,-13l18,-4l9,10l9,-12l37,-31l8,-4l1,-14l12,-12l38,-13l7,12l31,-7l40,-21l28,-23l17,-33l-3,-22l-48,-41l-23,-27l13,-77l-10,-38l-15,-69l10,-24l2,-40l-24,-35l-25,-11l-20,12l-16,-4l-49,-31l-5,-13l10,-12l37,-77l3,-51l24,-12l-7,-39l-33,-22l-7,-16l-16,-4l-2,16l-9,7h-20l-22,15l-16,-1l-5,-13l-25,-39l-1,-34l12,-24l39,-17l1,-16l-7,-8l-24,2l-25,-20l-20,11l-19,-10l-18,-30l17,8l6,-12l-10,-12l-15,-25l-13,-7l4,-20l12,-17l-27,-16l-5,-12l6,-16l-12,-8l-16,28l-9,-4l-10,-19l-14,-14l-10,-29l-27,-4l-14,7l-29,33l-14,11l-8,-4l9,-20l3,-15l-21,-24l1,-12l-20,-53l-15,-12l-37,-21l-18,-20l-21,-15l-29,-12l-8,3l-6,29l-13,7l-21,18h-13l-17,-23l-12,-1l-10,-32l10,-20l-6,-19l-29,-21l-17,-32l-13,-1l8,43l-4,7l-32,14l-7,23l-13,2l-17,-8l-17,-16l-2,-10l12,-18l-6,-15l-3,-31l42,-54l5,-12l-6,-9l4,-13l23,-29l1,-13h17l12,-7l14,-21l21,-17l-3,-10l-18,-16l-18,-5l-51,-27l-17,1l-11,9l-21,3l-17,8l-19,3l-29,-29l-1,-16l9,-30l11,5l6,-12l-25,-13l-15,9l-7,-13l8,-26l32,-60l4,-29l-42,-18l-51,-27l-12,-10l7,-18l23,-18l1,-16l-42,-23l1,-18l-27,15l-9,23l-22,-28l13,-24l-16,3l-15,-7l-10,4l-6,15l-12,-4l-8,-25l-7,-42l16,-34l44,-53l18,-25l10,-34l-21,-28l-22,9l-22,18l-26,-8l-16,-26l-4,-35l12,-25l-1,-34l-20,-18l-13,-18l-20,15l-6,14l-17,-1l-9,-15l6,-30l20,-42l28,-28l49,-33l15,-15l5,-29l-25,-47l4,-35l-8,-22l-25,-21l-8,-11l33,-38l28,-21l51,-28l23,-29l7,-37l7,-17l25,-19l30,-17l13,-20l-2,-28l-11,-16l0,-16l11,-17l-8,-14l-22,5l-24,13l-20,-3l-15,-16l3,-25l16,-13l-7,-9l-22,-7l-11,-18l7,-9l29,-20l77,-27l11,-19l2,-52l17,-25l8,-23l-24,-43l-2,-33l-13,-42l-23,-35l-15,-15h-19l-13,16l-9,5l-64,-59l-22,-29l-9,-18l-36,-10h-36l-25,7l-24,23l-16,29l-24,11l-26,-13l-21,-24l-13,-28l7,-55l-13,-23l-38,-12l-37,-22l-37,-37l-17,4l0,18l13,20l9,21l-15,11l-23,1l-31,-14l-18,-32l-15,-32l-20,-19l-12,5l-4,22l-6,10l-16,4l-28,-8l-18,4l-18,19l-26,17l-20,8l-15,-6l-10,-23l2,-26l-4,-27l-15,-43l2,-20l8,-35l5,-40l14,-31l22,-22l34,-15l34,4l14,-6l2,-17l8,-23l13,-22l-12,-13l-27,-5l-56,-25l-50,-8l-15,-20h-21l-3,12l10,41l-9,22h-24l-45,-12l-11,-19l-19,-16l-30,-13l-51,-9l-15,-18l2,-18l12,-16l8,-18l-13,-17h-23l-31,9l-21,-6l-4,-40l-12,-11l-21,2l-14,20l-6,23l-11,22l-18,12l-9,16l13,15l8,18l-3,14l-21,9l-37,5l-7,11l26,27l-1,14l-19,8h-27l-12,10l0,17l9,19l-1,13l-15,4l-62,-29l-15,6l-8,15l10,55l-12,6l-37,-17l-21,-1l-20,4l-11,21l-13,12l-27,4l-20,10l-20,-1l-24,-36l-19,1l-20,6l-23,-4l-18,2l-20,8l-21,21l-23,10l-25,-7l-10,-10l-13,-38l-13,-7l-22,2l-19,11l-16,25l-9,24l-22,-27l-97,64l-64,-61l-3,-89l-22,-75l-75,-41l-53,-61l28,-89l-6,-78l73,-31l5,-83l33,-83l-86,-28l-66,-56l58,-66l33,-159l53,-55l72,-31l78,-50l72,45l81,16l39,-127l83,-23l50,-61l56,81l94,-20l50,-83l78,-3l175,-44l72,-34l17,-86l72,-47l108,-28l-44,-72l69,-50l36,-105l-63,-70l97,-30l16,-81l84,22l75,-144l55,-72l34,-75l66,-53l50,-61l114,14l9,-87l36,-75l80,-55l64,-50l45,-72l77,41l75,-33l64,-47l36,-78l56,-81l39,-80l86,-3l94,6l136,22l67,-45l72,-58l97,8l39,-175l206,-36l75,-19l36,-83l67,-42l66,-78l95,-22l25,-89l83,14l92,-14l58,-67l39,-86l45,-78l-50,-77l-20,-84l36,-69l92,-31l58,-102l117,-34l164,25l94,-22l61,-47l70,-72l94,-67l81,-81l50,-61l91,-91l53,-98l75,-166l45,-86l64,-162l44,-88l14,-150l78,-103l58,-64l75,-95l53,-130l47,-100l33,-114l36,-197l45,-78l180,-158l117,-161l67,-120l22,-75l14,-233l33,-75l56,-84l105,-13l75,-17l92,-33l219,10l76,-4l130,-6l97,22l67,58l50,64l75,67l78,16l205,-39l75,-30l114,-28l100,-33l70,-53l72,-69l86,-56l105,-33l95,-17l78,-28l102,-55l220,-70l100,-8l125,-31l111,-47l78,-44l116,-50l198,-161l130,-139l125,-170l22,-83l59,-111l69,-111l70,-56l66,-61l92,-69l89,-78l67,-89l72,-56l80,-83l84,-58l80,16l14,75l-25,100l3,84l50,72l5,78l-33,103l-80,100l-117,58l-86,22l-82,28l-67,46l-71,118l-25,94l-44,86l-25,75l-22,134l-42,77l11,106l-97,39h-142l-116,8l-25,78l-56,114l-125,39l-86,-17l-117,47l-44,78l53,106l138,166l123,61l55,81l-33,147l-120,120l-141,186l-89,27l-83,39l19,75l77,52l45,45l45,31l31,68l5,85l-13,78l-4,57l28,105l63,110l44,96l34,99l24,94l19,76l59,64l55,20l38,10l12,22l-21,39l-56,48l-31,57l3,118l47,75l60,56l32,79l12,65l-25,65l-100,88l-9,31l17,45l36,19h28l37,8l16,38l-14,47l-35,25l-48,19l-34,40l13,66l51,42l92,19l88,9l52,6l34,17l21,27l12,58l1,65l-1,155l-11,106l-37,74l-42,41l-67,43l-9,26l14,17l29,12l77,9l37,38l9,51l2,58l-28,61l-55,34l-85,1l-104,-27l-47,7l-48,17l-14,54l17,86l15,88l20,59l-30,58l-30,73l-11,47l43,95l12,58l7,105l37,72l70,63l74,39l61,43l-13,72l-23,75l-8,98l41,54l57,54l56,17l29,42l6,43l-28,29l-53,21l-25,53l6,65l3,119l-14,110l15,91l76,169l13,145l29,93l55,59l97,16l99,54l118,116l141,130l63,121l22,118l23,134l55,129l31,65l71,55l194,-18l65,25l35,45l-20,52l-35,37l-7,41l14,35l53,21l61,-6l69,4l81,26l92,85l55,58l28,15l75,13l92,38l134,107l76,25l54,3l51,-18l31,-17l37,-6l57,10l66,42l72,73l59,67l73,42l100,12l66,-10l32,-8l46,-2l68,29l83,28l110,34l104,28l70,18l32,26l20,40l11,43l-14,40l-8,37l4,46l26,34l20,14l30,15l9,35l-20,36l-38,42l-25,43l0,59l32,72l30,38l57,22l59,-14l43,-51l39,-25l42,-15l86,12l56,3l56,-22l47,-30l57,-44l37,5l39,32l2,50l-5,59l9,27l26,7l24,-15l53,-22l44,11l32,23l21,4l22,-11l21,14l29,9l87,-49l69,-47l33,9l48,47l30,18l37,-15l27,15l29,2l90,-37l37,-7l31,-23l27,-4l25,-39l18,-17l31,-3l14,-15l16,-51l27,-29l-2,-44l8,-34l0,-50l27,-52l57,-44l92,-21l87,-9l20,11l26,31l39,2l31,-37l22,-35l22,-16l33,-11l36,-2l32,11l32,-6l50,-23l48,-48l27,-7l24,-12h48l63,-6l44,10l69,21l48,21l42,34l34,6l69,-49l54,-6l28,15l27,27l42,18l27,30l17,11l27,-22l30,-73l37,-56l7,-35l-7,-48l14,-45l15,-32l-5,-31l-29,-31l-23,-42l19,-68l-13,-38l-14,-32l1,-23l35,-25l51,-20l17,-26l-9,-36l-16,-15l2,-27l34,-18l26,-38l61,-36l31,-31l20,-43l73,-69l37,-14l39,11l52,21l45,8l35,13l29,17l25,-16l37,-31l35,-25l23,-35l18,-65l-2,-47l-9,-31l-24,-41l-2,-30l8,-37l12,-36l21,-36l8,-25l13,-25l43,-5l45,9h37l112,-26l60,4l70,-11l33,-11l31,-27l22,-8l27,-5l-1,-16l-16,-35l-13,-35l8,-20l32,-36l19,-33l3,-38l0,-41l9,-33l-21,-19l-38,-3l-13,-21l11,-37l-6,-22l8,-13l22,-14l5,-12l-4,-18l5,-12l15,-3l61,7l34,-7l26,-13l17,-18l2,-15l-16,-53l8,-12l22,-2l25,15l34,36l19,2l12,-9l14,-41l38,-16l27,-14l12,-17l-3,-23l-20,-19l-22,-26l-4,-23l-12,-32l4,-43l-8,-16l-19,-6l-15,4l-10,-9l-35,-50l-25,-21l11,-19l37,-13l28,-19l26,-13l46,-11l51,-3l48,11l32,19l15,-7l22,-32l0,-11l-23,-16l-47,-18l-35,-22l-25,-29l1,-28l14,-33l33,-37l15,-20l-10,-41l-15,-28l-24,-13l-11,-14l1,-25l41,-60l17,-36l12,-74l0,-22l-7,-34l8,-13l13,-18l-3,-19l-15,-15l-13,-19l-21,-14l-1,-9l10,-18l28,-31l13,-6l62,-4l30,14l12,23l-3,25l5,23l13,9l16,3l24,-5l14,-10l12,-18l22,-11l25,22l14,37l7,6l43,-4l28,-5l5,-8l8,-67l-12,-14l-31,-4l-34,11l-18,-23l0,-14l20,-16l49,15l33,8h22l24,12l33,37l34,6l33,1l70,-23l27,-19l37,-42l1,-12l15,-9l25,6l45,23l56,7l53,-32l28,-11l37,-2l22,-16l10,-20l3,-17l-28,-51l9,-28l9,-15l1,-19l8,-13h12l9,10l4,22l17,8l14,27l27,22l68,30l13,16l1,13l16,8l23,6l16,-2l41,-29l26,-1l22,11l11,21l8,30l1,22l34,50l20,3l71,-26l23,-3l15,10l9,18l-3,29l-8,21l-6,48l21,-4l91,-56l15,-26l13,-5l25,1l44,-27l16,-7l12,-17l11,-7l8,16l8,34l18,57l-11,51l17,27l39,45l17,3l24,-18l15,-18l37,-2l24,-8l24,-23l29,-8l28,9l57,-3l43,-7l11,-16l7,-52l-7,-22l0,-21l7,-6l37,-5l49,13l24,-3l25,-13l20,-24l24,-16l23,-22l15,6l14,13l32,4l15,14l17,35l51,12l27,16l32,39l20,17l29,38l22,37l21,25l38,32l5,14l-5,49l-10,14l-22,10l-43,17l-32,8l-48,28l7,15l37,12l15,12l60,80l18,-10l11,17l15,-5l27,-19l62,51l4,35l7,32l-11,37l-1,20l12,47l17,29l1,9l-16,13l-23,26l-35,49l-1,10l44,36l33,42l17,16l35,5l13,8l55,55l24,17l8,12l20,5l25,-3h29l43,-16l34,-17l22,-20l16,-21l19,6l40,25l27,13l34,-6l54,-11l45,3l36,-2l14,-10l4,-20l11,-16l13,-6l13,6l17,22l55,44l4,16l-28,24l8,20l15,14l18,4l31,-23l49,52l24,17l40,9l49,26l16,-5l33,-61l20,-7l47,18l10,19l6,33l11,22l17,6l-3,19l-28,33l3,13l44,26l37,25l19,22h22l52,-36l7,-16l-8,-18l21,-41l8,-4l16,9l26,61l24,26l48,-16l27,-22l16,-20l10,-1l26,20l42,56l13,5l19,-1l27,49l12,17l55,27l22,17l14,35l32,5l61,-22l29,3l8,9l2,18l-11,24l7,12l33,13l6,17l4,27l20,39l5,22l-12,35l-15,26l10,16l18,-8l9,12l4,20l-6,23l-31,21l-29,9l-19,14l-5,16l24,50l2,20l-7,33l7,19l18,15l18,6l1,12l-10,19l-20,21l-13,27l-4,23l-16,7l-31,6l-22,20l-17,28l-4,19l16,27l7,20l1,24l12,35l2,24l-13,20l-17,16l-20,8l-18,-1l-30,-17l-34,-11h-9l-24,23l-48,70l-41,33l-36,36l-35,14l-37,2l-21,-2l-8,18l-3,20l-19,35l-7,41l-16,44l-14,32l-10,13l-56,45l-23,33l2,10l25,29l-4,19l-9,17l-15,-3l-26,-20l-21,-20l-33,-18l-25,-10l-17,4l-17,24l-9,27l-16,28l-25,25l-10,20l5,20l18,9l42,4l33,6l22,12l7,12l-11,15l-27,16l-14,12l-10,45l-1,72l-12,17l-13,4l-19,-8l-16,-2l-55,19l-8,11l-11,46l-23,41l0,41l-15,68l2,24l-4,42l27,7l-26,53l-25,-10l-19,-2l-11,8l0,25l14,27l18,19l26,44l21,43l36,10l49,25l15,24l-6,29l-13,16l-18,12l0,11l60,86l3,25l14,21l0,22l-5,20l5,26l-4,26l-8,21l4,25l18,30l15,3l7,-19l15,-9l9,22l-1,19l45,-1l29,23l14,35l14,15l33,-19l36,39l50,54l39,19l57,32l13,25l10,60l9,29l0,14l-35,14l-11,43l8,10l13,4l24,-8l2,12l-21,10l-12,11l-24,45l23,-2l3,13l-3,15l-11,2l-22,-14l-19,3l-5,25l8,12l15,-9l15,4l1,33l8,4l17,-7l-1,16l17,26l21,13l-15,9l8,19l19,14l9,14l27,15l1,7l-21,11l-7,17l19,5l14,8l-6,20l2,20l15,12l16,1l6,-16l10,-2l20,10l19,4l18,-1l19,35l-1,25l-11,24l3,37l8,63l11,17l29,8l15,18l-4,19l-10,14l0,22l17,28l1,14l-38,38l-16,32l-15,14l-4,11l13,10l5,17l4,36l16,7l46,-8l4,12h-22l-6,12l53,38h29l22,-5l20,2l23,12l22,7l5,11l-15,22l-19,42l4,34l-1,31l18,17l23,13l3,15l-10,3l-12,-6l-4,30l10,8l-2,17l13,19l17,12l27,8l-4,19l18,10l22,4l16,-5l-2,41l-16,-3l-1,27l-28,30l0,30l-35,-5l-6,12l10,46l0,16l-18,44l-16,3l-33,-9l-27,53l-6,40l7,8l15,-7l14,4l18,13l15,18l18,-12l15,3l-5,14l-13,9l-4,12l14,30l7,22l27,2l11,10l-5,27l-17,21l-14,9l0,14l9,6l20,1l7,6l-5,44l12,26l10,9l-11,26l19,9l-5,49l-23,31l-20,41l-8,35l-38,38l15,2l14,-18l5,20l16,13l4,16l10,8l16,-31l-1,-17l19,3l-6,-15l9,-31l16,-3l4,29l31,22l22,22l29,-4l18,-14l8,10l17,62l-24,40l5,17l31,40l29,-9l40,15l29,-20l10,-10l19,33l-30,13l-3,38l-9,19l6,30l-9,29l6,29l28,11l26,-1l21,18l38,6l12,-8l12,-27l18,26l-14,22l-24,12l23,16l12,45l29,18l27,2l22,26l28,10l0,28l16,27l21,11l-1,29l38,-7l-7,26l-12,16l19,6l38,-33l44,22l7,19l-18,18l-4,17l30,-3l21,-9l-1,15l27,-13l0,14l-18,17l-12,23l-33,69h-14l-12,-15l-12,5l-13,19l3,9l48,55l-1,7l-24,10l-6,9l1,19l-23,40l-16,25l-10,-1l-17,6l0,-36l-19,8l-3,14l24,33l31,32l-22,21l17,17l32,43l5,48l36,69l-11,19l25,12l11,33l16,17l39,33l33,35l2,15l-13,10l2,11l19,13l6,10l16,3l17,10l1,9l-33,23l-17,21l2,8l34,21l7,14l6,25l8,14l-9,14l-23,15l-4,8l40,31l22,13l10,17l-13,9l-32,2l-9,-29l-9,10l8,20l29,20l13,16l22,3l4,26l9,30l32,18l19,19l10,4l20,24l23,15l16,31l55,58l14,-1l11,18l-45,16l2,16l30,-10l13,23l22,-3l8,10l17,-9l4,11l-5,11l-1,25l21,3l15,7l21,-5l13,-33l36,13l0,34l4,19l14,-15l29,15l20,16l15,17l-5,13l19,7l6,16l-5,11l9,18l-4,9l19,32l0,11l31,-7l27,10h24l6,13l27,13l0,12l9,13l19,9l10,25l17,18l21,-15l28,1l13,6l12,14l-4,10l-28,17l7,12l-27,10l-20,12l-8,10l1,23l29,-1l-13,25l2,14l-8,12l-5,33l46,18l15,12l-2,15l44,-13l-14,24l4,23l10,11l-5,10l11,24l3,29l10,10l-31,13l-13,14l1,13l12,7l15,39l15,-9l6,11l1,30l19,32l22,23l21,-3l13,8l17,19l-2,15l-26,16l3,18l-9,17l-28,4l-12,13l-21,6l-32,31l-22,6l-9,12l2,18l-6,19l7,27l-1,19l11,16l23,20l53,75l29,31l17,6l12,36l27,-2l15,4l0,25l-9,43l14,13l13,25l26,22l33,15l28,5l31,-9l35,-7l54,28l37,24l27,29l50,43l78,22l141,131l1,100l52,83l59,353l11,155l50,209l38,105h851h963h4230h1702h711h2968l-1,3287l1,3058l0,67l0,3230l-22,-3l-11,6l-6,19l-42,36l-13,9l-28,5l-17,8l-28,25l62,20l13,11l3,39l-11,28l0,19l8,11l17,11l25,6l11,-6l42,28l16,25l14,8l28,6l25,14l-11,22l-11,6l-3,11l-30,33l-64,120l-34,5l-163,50l-39,50l-14,36l22,6l8,11l3,53l14,22l28,14l5,19l-14,22l0,14l14,25l3,17l-11,17l-19,11l-51,14l-25,-14h-36l-30,8l-61,-11l-28,3l-14,-6l-11,-19l-50,-14l-42,5l-30,-11l-56,9l-42,-6l-30,-30l-22,2l-17,-2l-8,-12l2,-19l-19,-33l-11,-9l-22,-5l-28,30l-6,28l-22,42l-22,16l-22,50l-6,62l-8,8l-17,5l-19,14l-42,-16l-25,-17l-19,6l-12,-3l-22,3l-75,-6l-78,72h-19l-47,-8l-34,-22l-77,-36l-39,-12l-59,-5l-33,8l-11,9l-11,22l-6,44l-14,25l-16,11l-34,9h-52l-14,-9l3,-36l-28,-14l-36,3l-25,11l-109,75l-19,39l-3,28l-5,11h-14l-48,-17l-27,28l-17,8h-22l-22,-19l-39,-8l-59,-28h-39l-30,28l-14,5l-33,39l-20,14l-33,11l-75,-33l-50,-17l-20,-3l-66,17l-22,22l-62,81h-25l-44,-25h-17l-22,5l-50,34l-22,33l-36,31l-9,25l-38,52l-12,6l-80,30l-81,-13l-5,-9l0,-33l-14,-14h-11l-50,33l-128,23l-11,5l-36,53l-36,36l-25,8l-45,-16l-25,-3l-30,5l-70,25l-41,70l-20,17l-100,36l-14,22l-14,39l-52,14l-31,16l-17,-2l-8,11l22,25l14,5l39,31l6,11l-3,19l-39,59l-3,11l-25,22l-8,17l-17,66l-19,14l-23,6l0,55l39,23l9,11l-3,16l-31,20l0,14l-41,36l-17,22l-39,8l-22,11l-25,42l-8,6l-50,8l-31,-3l-17,-41l-19,-17h-56l-52,11l-23,28l9,36l-17,58l6,17l44,42l14,27l-3,25l-11,11l-72,139l-22,61l2,12l20,16l5,11l-2,42l-34,3l-64,41l-72,-16l-11,5h-44l-14,-5l-50,14l-11,-9l0,-19l19,-33l-3,-17l-19,-50l-20,-14l-5,19l5,17l-2,14l-25,8h-20l-39,-25l-22,-8l-61,14l-28,-6l-14,9l6,16l19,25l17,34l3,52l-17,14h-31l-11,20l6,47l-103,83l-14,36l9,128l-12,17l-22,19h-14l-39,-25l-91,-30l-25,28l-78,13l-81,106l-5,17l8,66l14,14l20,31l8,39l-6,33l-52,42l-53,33l0,39l-9,22l-47,58l-16,89l-31,48l-19,2l-73,-14l-80,-5l-75,28l-61,50l-42,11l-17,28l-5,19l-36,33l-3,14l3,39l-9,14l-52,39l-3,14l8,19l-19,56l8,44l14,20l5,16l-8,36l12,35l-1,43l-50,36h-22l-14,-25l-17,-8l-25,8l-11,-2l3,-50l-5,-14l-14,-9l-25,14l-9,28l-5,69l-11,25l-11,12l-53,27l-31,28l-30,39l-9,33l6,78l-8,20l-62,33l-8,11l8,75l-11,8l-14,-2l-13,22l0,14l-17,19l-45,-14l-16,3l-20,50l-11,14l-22,5l-36,-11l-14,-33h-14l-14,14l-22,44l-36,36l-11,17l-14,8l-39,-13l-50,5l-17,-5l-27,-25l-14,-3l-28,5l-14,-11l-11,-39l-11,-8l-20,-3l-36,3l-36,-6l-14,-8l-8,-14l-17,-11h-72l-17,-11l-22,-36l-42,-3l-13,-22l-48,67l-77,61l-20,55l-5,53l2,14l-8,8l-58,-5l-39,11h-22l-25,-9h-20l-44,23l-17,-3l-17,-11l-16,-28l-14,-11l-28,-8l-11,41l11,36l-17,39l-2,39l-14,22l-23,11l-25,6l-55,-6l-45,-16l-91,22l-17,33l3,23l50,94l11,14l3,14l-9,16l-25,28l3,20l17,11l8,11l9,39l-9,19l0,14l9,8h13l23,-13h16l9,11l-11,39l-12,19l0,19l23,89l14,9l44,-6l44,36l12,14l25,11l11,-3l33,-25l14,9l47,53l-14,27l-25,31l0,30l28,31l19,53l34,61l3,33l-28,64l-39,33l-25,59l-14,19l-19,9l-6,25l8,16l3,22l-3,14l-22,-11l6,-28l-17,-13l-19,-6l-20,-31l3,-22l39,-80l-6,-23l-8,-13l-20,-6l-13,6l-12,-23l-16,-19l-11,-28l-25,-5l-14,-9l-25,14l-3,56l-22,8l-72,64l-20,8l-117,11l-41,-5l-31,5l-25,-8l-72,-44l-50,-6l-28,6l-55,22l-34,-3l-16,6h-73l-19,36l-36,30l-6,31l-14,28l0,22l14,47l23,25l19,36l11,11l-3,14l-22,14l-11,19l-11,56l-11,11l-6,20l-14,25l-16,11l-31,50l36,50l-16,27l2,14l25,11l6,14l3,48l-3,11l-17,8l-8,11l17,36l52,39l39,14l6,11l-11,33l2,78l23,22l3,22l55,101l-17,5l-8,11l3,11l14,14l2,23l14,8l-12,22l7,15l-24,40l-26,13l4,10l22,18l-8,16l14,1l7,15l9,2l-7,21l3,19l-5,13l27,10l25,-1l3,11l-18,6l0,34l-6,17l5,15l21,16l1,11l-18,17l4,28l-1954,1h-578l-1690,-1l-5,-13l1,-34l-8,-27l-31,-34l-12,-24l-5,-21l2,-32l6,-25l-34,-101l-19,-17l1,-36l9,-46l-4,-7l-26,-19l-21,-38l-22,-17l-28,-33l-19,-10l-7,-25l-27,-19l-1,-15l-18,-22l-44,-25l-17,-29l-53,-35l-31,-28l11,-27l-5,-12l-40,-32l-21,-29l-15,-3l-10,-9l-8,-24l-18,-2l-28,-39l-10,-5l-27,-1l-23,-23l-28,2l-12,-16l-16,-5l11,-19l-3,-49l-17,-26l4,-29l-19,-13l-3,-17l-13,-12l-19,-10l-12,-27l-64,-14l-8,-14l-1,-36l-7,-12h-36l-8,-6l-29,-49l-14,3l-8,14l-54,-42l-35,-18l-26,-33l-45,-36l-15,-38l-35,-21l-8,-10l-12,-32l-27,1l-21,-18l-37,-64l-2,-24l-10,-12l-25,-2l-27,-10l-105,-53l-16,-29l-24,-5l-15,4l-7,-6l-51,-78l-12,-8l-7,-21l-47,-39l-26,-11l-6,-7l-19,-36l-12,-10l-4,-24l-7,-10l-17,-9l-17,-22l-22,11l-20,-5l-31,-30l-6,-14l3,-45l-6,-31l-11,-6l-32,-4l-20,-11l-17,-24l-33,-31l-3,-15l6,-24l-7,-4l-26,16h-42l-31,-16l-39,-4l-8,-19l-40,-54l-18,-30l-10,-6l-22,-41l-28,-19l-54,-4l-19,-37l0,-12l12,-20l-4,-32l-14,-21l-31,-10l-6,13l-15,4l-36,-56l-15,-50l-9,11l-29,-4l-14,3l-22,25l-19,2l-23,-8l-30,27l-8,30l-11,10l-34,-1l-39,-14l-15,1l-8,10l-12,5l-35,-23l-17,12l-15,-4l-6,-13l-36,-7l-23,-16l-20,1l-34,11h-22l-14,-21l-34,-6l-30,-20l-34,-14l-39,-8l-27,4l-102,-48l-26,-4l-28,6l-19,12l-19,-6l-10,-15l-18,-10l-20,22l-18,-3l-18,-20l-21,5l-8,-8l0,-26l-16,-26l-27,-1l-17,-21l-9,-23l17,-24l-8,-26l6,-42l-20,-6l-30,7l-44,31l-29,13l-61,6l-34,25l-19,8l-55,5l-36,15l-16,31l-8,4l-15,-13l4,-24l-14,-26l-17,-5l-28,2l-6,-11l-19,-60l-12,-19l-64,-1l-20,4l-24,12l-25,-10l-52,11l-19,23l-25,-6l-45,5l-39,-16l-32,1l-15,-7l-17,-27l-26,-12l-30,6l-24,26l-9,2l12,23l18,-8l9,8l-6,15l3,22l-3,14l16,13l13,29l15,-2l21,-17l6,3l11,27h17l28,20l1,34l18,5l19,40l23,1l28,21l3,25l21,-10l12,9l5,38l9,13l25,12l-1,31l10,9l33,19l16,30l0,12l-9,13l2,20l-14,42l-34,38l-10,5l-20,-1l-1,17l-11,22l-25,16l6,17l-30,34l-1,9l8,23l-12,6l-42,-13l-8,4l-3,17l-15,-3l-18,7l5,15l-14,15l-4,24l-22,9l-5,15l-20,20l-13,103l-24,75l-2,22l14,52l1,26l17,43l0,27l-17,82l-26,44l-57,54l-13,39l-27,40l-21,18l-44,26l-40,7l-22,11l-73,18l-71,49l-20,1l-27,-6l-38,1l-26,12l-71,49l-14,5h-21l-162,275l-122,-20l-26,2l-71,21l-193,18l-50,14l-60,9l-27,-4l-67,-22l-49,-22l-33,-8l-60,12l-16,11l-74,-16l-44,32l-28,32l-21,10l-12,11l-15,68l-42,101l-21,97l-25,32l-5,68l-1,50l14,43l-8,60l11,23l14,13l13,20l3,17l10,13l19,12l9,13l9,46l9,20l24,20l21,49l18,57l13,20l8,38l-1,57l-464,-3l-22,-45l-26,-15l-46,-8l-36,8l-30,18l-37,-15l-29,-4l-37,-11l-49,-37l-21,-11l-23,-6l-17,3l-22,-2l-25,-34l-43,2l-32,-6l-76,20l-38,-7l-89,4l-56,-20l-68,-10l-10,3l-14,26h-10l-53,-18l-81,-8l-108,-24l-34,2l-34,8l-24,11l-12,13l-49,21l-11,1l-41,-13l-37,4l-9,6l-31,-3l-25,-10l-27,-29l-5,-19l-31,-30l-1,-10l9,-18l-41,-64l-26,-3l-18,-17h-37l-49,-11l-31,12l-10,-5l-27,-27l-23,-3l-20,-19l-21,-8l-14,-16l-14,1l-10,-24l-6,-2l-18,-29l-41,-20l-6,-16l-21,-20l-44,32l-30,36l-24,12l-35,7l-66,35l-39,42l-34,24l-59,65l-33,22l-41,48l-19,34l-5,49l5,93l-16,39Z" /></g></svg>