<?xml version="1.0" encoding="UTF-8" standalone="no"?>
<svg
   version="1.2"
   width="1080"
   height="1080"
   viewBox="-38.245 9.515 1.8491 2.0534999999999997"
   stroke-linecap="round"
   stroke-linejoin="round"
   id="svg6"
   sodipodi:docname="SEMeso.svg"
   inkscape:version="1.2 (dc2aedaf03, 2022-05-15)"
   xmlns:inkscape="http://www.inkscape.org/namespaces/inkscape"
   xmlns:sodipodi="http://sodipodi.sourceforge.net/DTD/sodipodi-0.dtd"
   xmlns="http://www.w3.org/2000/svg"
   xmlns:svg="http://www.w3.org/2000/svg">
  <defs
     id="defs10" />
  <sodipodi:namedview
     id="namedview8"
     pagecolor="#ffffff"
     bordercolor="#000000"
     borderopacity="0.25"
     inkscape:showpageshadow="2"
     inkscape:pageopacity="0.0"
     inkscape:pagecheckerboard="0"
     inkscape:deskcolor="#d1d1d1"
     showgrid="false"
     inkscape:zoom="0.7537037"
     inkscape:cx="540.66339"
     inkscape:cy="540.66339"
     inkscape:window-width="1920"
     inkscape:window-height="1001"
     inkscape:window-x="-9"
     inkscape:window-y="-9"
     inkscape:window-maximized="1"
     inkscape:current-layer="svg6" />
  <path
     id="2803"
     d="M-369180,-101247l-31,30l-42,59l-8,22l-8,35l-7,66l-12,23l-22,31l-40,35l-51,29l-32,17l-13,10l-11,16l-8,24l-11,73l2,30l3,11l-13,40l-8,21l-35,64l-23,24l-13,33l-3,17l14,88l17,84l6,44l1,27l-2,46l-5,20l-29,-9l-505,-140l-229,-192l-322,-46l-60,-308l15,-441l-238,-84l-557,-169l-44,-14l930,-180l405,-99l221,134l113,-180l119,-89l104,-312l8,5l107,49l63,28l144,47l-234,-437l187,-96l-22,-306l221,-125l111,-50l20,-259l-57,-77l-62,-117l-4,-17l-14,-82l-14,-140l28,-21l10,-17l26,-20l49,-16l15,-18l-14,-101l-1,-19l-14,-23l-16,-3l-33,-21l-26,-10l-38,9l-8,-15l-30,-23h-12l-6,-12l-22,-22l-21,9l-19,19l-33,-25l-15,-23l2,-4l-11,-29l-3,-17l11,-7l7,-13l2,-23l-9,-25l6,-15l-19,-17l2,-59l-14,-14l-11,2l0,13l-7,7h-15l0,14l-22,11l-3,15l-12,7l-32,-5l-25,21l-28,-8l-21,1l-5,-7l-17,-4l-13,5l-16,17l-22,-3l-14,27l3,16h-12l-15,9l5,16l-6,12l8,14l-15,5l-1,12l-15,13l4,8l-4,49l-20,14l-5,14l-18,17l-19,5l-7,15l-2,24l-7,19l-15,8l-12,19l0,27l-27,-8l-7,9l11,17l-23,16l-2,6l-25,10l18,6l2,14l21,-1l1,25l-18,-10l-13,13l35,2l-16,13l15,25l-20,3l0,21l-5,9l-17,-4l13,33l-22,6l1,19l-12,10l14,16l25,8l5,18l2,27l12,-14l18,8l3,24l-3,16l11,2l4,15l-7,8l-18,-1l3,14l-17,-3l-14,9l-6,-11l-36,26l15,15l-11,12l-11,4l-14,-4l-6,14l-14,12l11,7l-13,13h-17l12,19l-20,1l-11,7l-7,22l2,14l-21,23l10,4l13,25l-12,8l-3,41l13,4l-3,21h-10l-25,31l3,24l-6,10l18,33l-8,21l-14,9l-10,14l-10,-12l-23,6l-6,16l-13,4l-16,-24l-16,5h-22l0,-15l-7,-9l-21,3l-8,-19l-26,4l-26,1l-7,7l-25,7l-41,18l-4,25l-17,8l-28,-19l-10,-13l-26,1l-8,16l-9,4l-9,-13l-22,-15l-12,-17l-38,-27l-22,-27l-19,-33l-4,-16l-13,-9l-19,47l-15,20l-39,14l-10,22l-21,13l-1,16l-34,-12l-9,-10l-24,-12l-12,-13l-13,-2l-17,-17l-11,-17l-22,-4l-8,-11l10,-27l0,-12l-24,-29l-11,-4l-31,-2l-18,2l-10,-19l12,-7l-16,-23l2,-19l-24,-16l-13,-31l-28,16l-5,-13l-16,10l-19,-4l-3,-15l-22,-30l-3,-11l6,-14l-6,-20l-8,-9l-11,9l-2,-22l-32,-6l-13,4l-28,-22l-10,13l-16,-29l-12,8l-9,13l-14,-9l-8,7l-3,15l-26,2l-19,-22l-33,-5l-11,-40l-15,-16l-6,-12l-15,-7l-6,-17l15,-12l-14,-15l-26,10l-10,-8l19,-24l15,-7l6,10l19,-2l18,6l7,-16l29,-6l4,-13l19,6l7,-4l12,-31l-24,1l-7,-11l15,-5l15,-17l-28,-13l7,-15l-1,-22l18,-3l10,-15l10,2l1,23l36,1l21,-19l19,13l7,-15l-12,-2l-13,-17l-25,22l-11,-2l4,-28l28,2l-2,-14l-37,-25l-4,-16l-30,-10l-10,-19l5,-10l19,2l16,-6l27,5l16,-33l-14,-4l14,-20l13,1l0,-15l-24,-3l3,-39l-8,-13l-14,-86l-7,-8l-11,-24l-21,-21l-10,-22l-17,-18l-16,-10l-30,-12l-15,-1l-20,-14l-22,-31l-55,-26l-16,-21l1,-25l-16,-135l-10,-369l-169,-220l-38,-58l-204,-280l32,-33l68,-45l-22,-40h-11l-15,-13l-12,-19l10,-19l-21,-19l-11,1l-20,-8l-21,-19l-19,8l-18,-23l0,-31l-8,-13l-18,-2l-7,-7l-14,5l-13,-17l-14,1l-2,-11l-11,-6l-16,-23l-28,-15l-9,3l-8,-17l6,-26l-12,1l-20,-11h-14l-7,-22l3,-20l-13,-8l24,-19l12,-24l13,-39l-7,-17l-10,-67l-16,-4l-14,10l-13,24l-18,8l0,25l-21,12l-8,-6l-19,13l-17,-4l-17,3l3,18l13,4l-3,21l-11,8l-22,5l-11,10l-15,-1l-4,11l-24,7l-30,-7l-1,21l-16,27l-37,-3l-15,3l-15,28l6,13l-21,1l-11,-10l-5,20l-26,-3l-24,16l5,17l-11,21l-21,-10l-23,-10l-19,1l-15,-5l-16,33l-16,5l-6,13l-35,7l-17,22l-19,10h-19l-37,-9l-52,6l-19,-3l-12,8l-28,-7l-26,-20l-8,-20l-12,-17l-25,-12l-48,-3l-32,-65l9,-99l37,-3l16,-13l14,-22l19,1l26,-25l19,1l10,-10l8,-22l-4,-14l12,-36l9,-13l-3,-18l-10,-18l13,-5l-3,-16l10,-9l12,2l6,-9l16,-3l20,6l9,-5l14,6l13,-3l6,-15l14,-8l10,-15l15,-10l0,-37l11,-7l13,12l16,-19l1,-31l17,-26l28,-3l33,6l18,8l7,-6l30,4l19,-19l14,-30l-10,-27l-10,-14l-7,-21l8,-17l17,6l7,-13l22,-1l13,-21l13,4l25,-30l6,-25l17,-2l-1,-22l15,-4l7,-13l14,-10l17,-36l-16,-21l3,-11l17,-19l11,-6l-2,-23l-14,-18l9,-9l-5,-10l10,-10l-21,-10l0,-15l-14,-2l6,-14l-17,-11l24,-17l8,-12l38,-28l19,-10l3,-15l-23,-11l-6,-24l-9,1l-16,21l-9,35l-14,1l-15,-26l-5,-3l-16,19h-11l-7,-12l2,-35h-13l-9,-10l-28,7l-18,18l-19,6l-12,-14l-12,4l-11,-26l-15,-1l-1,13l-12,8l11,18l-16,5l-9,10l-17,2l-10,-11l-24,27l-17,1l-14,-15l-17,-11l-26,-29l-5,-29l9,-9l-8,-17l-42,-25l-16,7l-21,19l-25,16l-7,-2l-7,-19l-55,-42l10,-19l-1,-10l10,-31l15,-7l8,-16l-20,-17l-30,-44l10,-15l-3,-12l9,-36l26,-34l10,-3l26,-23l23,-10l24,-15l14,-28l-9,-13l-24,-22l280,-256l-287,-203l-445,-329l-4,-6l-3,-23l-20,20l-31,4l-56,-13l-32,-30l-13,-6l-35,-26l-18,-28l4,-18l-9,-31l-21,-12l-24,8l-36,-1l-29,-19l-9,-2l-15,9l-16,2l-26,12h-38l-28,5l-69,-51l-31,2l-19,-6l-29,15l-33,1l-35,4l-25,-5l-34,16l-33,11l-31,5l-26,22l-34,11l-13,16l4,19l17,13l-7,7l-18,32l-12,11l-5,26l27,22l10,42l-392,-414l-134,-145l-7,-13l-19,-10l-12,-36l-44,-49l-9,-5l-27,-4l-11,8l-23,1l-19,-4l-33,-16l-21,-24l-7,6l-33,-11l-9,-8l-23,-5l-16,-22l-12,-6l-19,-20l-40,-12l-22,-2l-16,4l-20,16l-36,18l225,-360l255,-404l-641,172l-113,-359l-375,-293l0,-34l6,-26l-16,-18l-5,-15l6,-17l24,-17l18,-19l-572,-274l39,-3l25,-8l14,-19l-20,-22l13,-11l1,-19l12,-10l21,-7l0,-25l-25,-8l-24,2l3,-33l-14,9l-18,2l-11,-6l9,-11l-1,-15l-23,-20l-14,-2l-56,41l-17,17l-8,-8l-12,16l-165,-274l34,-76l-7,-41l1,-56l-258,-224l-41,-29l-190,-151l-112,-77l-12,20l-11,3l-5,23l-15,-4l-10,36l-18,-5l-13,2l-16,13l-3,23l-9,12l-18,-9l-19,4l-12,9l-30,-31l-11,-2l-3,17l-16,1l-10,15l0,16l-22,22l2,26l-27,23l-7,10l-14,5l4,11l-17,8l-13,-20l4,-14l-16,-9l-49,8l-14,11l-25,28l-13,10l-31,10l-28,-19l-8,1l2,17l6,6l-42,27l-8,23l-13,-11l-13,-2l-17,11l-14,27l-19,26l-5,13l-18,-2l-4,9l-33,20l-16,6l-20,1l-16,-10l-18,-2l-22,13l-12,1l-53,-18l-26,4l-121,-71l-229,-118l-181,-89l-149,-131l-150,-127l4,-19l20,-57l2,-15l20,-9l21,-15l5,-17l-1,-37l4,-14l-10,-23l41,-23l-9,-15l-9,-29l4,-8l-8,-29l5,-11l-5,-22l-12,14l-38,23l-25,5l-11,-3l-24,3l-49,26l-9,13l-20,-2l-180,-90l-36,-54l-82,-95l-55,-46l-18,-76l-26,-45l-97,-162l-9,4l5,-39l12,-20l-1,-24l-5,-22l-15,-31l-7,-23l-130,-97l14,-61l-8,-37l2,-17l-22,-6l-11,-12l-16,5l-13,12l-20,-15l-14,2l-11,-9l-39,-11l-29,2l-5,-21l1,-36l6,-40l9,-37l-84,-139l-24,-55l-20,-4l-11,-25l6,-11l-21,-14l3,-50l21,-11l-12,-15l5,-22l24,-20l2,-10l-8,-22l3,-32l20,-8l0,-21l13,-25l26,-19l15,-1l16,7l8,-46l8,-21l-3,-10l-25,-15h-34l-10,-3l-19,-22l-30,2l-16,-20l12,-17l26,-16l-5,-20l4,-11l23,2l20,21l26,1l26,8l34,-26l1,-10l-18,-27l-2,-52l26,-13h25l8,30l1,20l13,9l31,4l24,22l17,-16l1,-25l-6,-28l20,-23l-8,-19l-22,-10h-13l-7,-14l47,-32l56,-21l7,-32l14,-12l8,-20l-7,-18l-23,-22l11,-12l20,-1l8,18l41,-1l12,9l5,24l16,35l-14,21l5,9l17,-4l14,4l23,17l15,18l-2,20l-12,14l1,22l19,23l23,-6l31,-19l23,-1l31,12l21,-11l1,-29l9,-11l38,-26l14,6l10,20l22,-2l6,-13l3,-24l-5,-45l-13,-35l24,-11l0,-21l-7,-12l-17,-6l-8,-12l5,-14l28,9l12,-3l20,-20l-4,-43l15,-23l-4,-21l12,-9l11,6l43,41l30,-29l18,42l15,13l2,8l19,17l2,15l20,22l15,-5l29,-2l25,13l55,-8l42,-20l-18,-5l-17,-17l-12,12l-20,5l-42,-24l-19,-2l-18,-12l4,-19l13,-14l19,-8l20,-4l12,7l35,7l6,-3l19,-38l-7,-25l5,-10l12,-5l26,7l21,-12l37,-2l7,28l22,12l19,-8l16,5l29,-11l10,-13l0,-25l-9,-10l-28,-11l1,-30l-12,-21l-29,-8l-33,4l-16,7l-25,-17l-6,-16l12,-20l-10,-19l1,-13l-8,-22l1,-45l6,-8l21,-1l11,-11l42,-18l11,5l17,24l21,-23l10,-6l26,7l10,-30l23,-8l31,-25l0,-15l8,-6l0,-23l7,-13l18,-10l5,7l17,2l28,-5l7,-16l17,-12l12,-3l15,-27l12,-5l5,-11l19,-14l7,-14l21,11l46,-9l15,6l18,-10l6,-17l18,-5l4,-8l21,-3l7,-9l-6,-14l-43,-33l-15,7l-12,13l-18,2l-12,-4l-6,-28l17,-28l13,-7l9,-21l8,-25l-3,-31l23,-18l2,-13l20,-3l21,2l14,-5l8,-12l17,3l20,-17l13,1l11,-14l16,-12l20,27l11,10l28,-24l-9,-21l37,-15l51,-3l9,9l26,-3l16,-6l13,7l24,-9l18,1l1,-24l7,-9l10,-26l18,-8l38,8l11,19l16,-4l11,23l-5,19l41,2l24,-12l-3,-11l27,-17l9,-14l-10,-18l17,-5l12,-13l22,-43l24,-4l40,12l19,14l35,-2l14,2l34,-12l11,3l13,-7l8,-27l2,-36l-15,-13l-1,-13l22,-11l8,-20l-8,-20l20,-16l12,6l-1,16l14,12l12,-9l20,8l13,-4l11,9l18,-15l35,-19l18,3l15,21l31,21l11,14l2,13l-9,20l14,13l-1,14l29,10l20,-28l16,-14l14,1l14,-9l-3,-28l8,-15l-6,-44l-9,-19l-16,-8l2,-10l-20,-18l-2,-16l5,-11l14,-11l60,9l14,-13l13,-30l27,5l-2,14l-9,17l17,15l18,1l27,-9l8,-14l28,-29l30,-18l9,8l13,-8l13,14l7,18l7,-1l7,20l-12,8l-2,15l-9,13l6,25l14,10l4,10l13,7l4,11l20,4l3,27l10,3l1,18l33,20l-7,21l4,25l-9,23l2,32l-14,19l-3,22l24,11l9,-6l20,1l17,-14l19,36l19,-2l11,24l1,65l11,34l10,3l35,-31l3,-20l15,-20l14,-4l24,20l17,34l19,9l28,-5l23,5l10,-14l-11,-16l-5,-14l20,-29l10,-23l17,-20l32,-29l51,-39l36,-20l33,-5l14,3l11,22l21,3l10,-17l20,-4l3,-16h19l33,15l51,31l9,25l24,35l18,10l26,-2l19,-12l41,-19l15,-14l-5,-18l-23,-16l-23,-28l-13,-20l5,-18l29,-32l10,-15l5,-16l12,-10l13,-19l17,14l40,14l11,32l-20,2l-14,8l1,24l28,11l18,11l23,9l35,-13l25,-24l15,-51l12,-14l16,-12h19l13,31l20,7l15,-8l18,-4l56,4l42,-6l38,-10l33,7l35,18l49,-1l14,-4l8,-12l18,-4l27,15l5,21l-9,31l-1,25l15,38l11,12l38,28l27,27l8,16l32,31l32,8l47,-7h29l28,6l56,14l48,1l55,3l62,-4l109,-9l27,6l47,27l66,36l113,56h4l137,102l79,56l173,138l54,49l96,82l100,87l9,12l34,43l36,50l54,56l76,19l66,-5l32,-5l5,4l99,60l27,4l74,84l13,14l22,8l17,24l7,76l14,67l7,60l-1,83l23,89l17,49l21,70l37,99l47,103l35,76l45,93l12,20l37,78l16,27l38,74l42,72l60,100l63,98l37,51l12,20l26,30l44,61l83,102l15,20l56,68l42,55l44,51l54,68l33,39l86,102l105,112l70,66l49,53l40,39l65,59l54,54l26,21l19,30l13,29l8,27l35,79l14,22l27,22l13,9l6,21l4,32l13,40l31,47l21,78l17,50l34,61l34,65l43,72l45,65l27,45l59,87l53,75l131,189l48,73l78,114l95,140l30,41l48,71l82,112l52,67l53,62l13,14l106,122l34,37l21,29l14,38l5,47l-20,53l-7,33l4,25l12,29l6,11l23,13l25,10l31,25l17,29l9,24l21,22l101,173l34,54l33,45l62,77l43,57l69,85l102,131l37,52l87,106l34,47l81,97l95,104l47,44l61,37l22,22l22,44l44,59l34,43l78,89l26,26l114,126l31,38l54,56l49,55l101,107l78,84l94,94l37,34l17,11l30,15l16,17l20,28l66,67l62,54l54,46l183,148l119,92l63,41l38,30l32,22l74,44l77,51l71,39l69,44l46,26l83,52l31,16l46,29l76,37l93,40l183,68l120,49l66,34l80,45l166,116l79,60l92,68l150,100l115,80l203,119l45,20l31,20l18,1l35,-3l33,9l115,50l173,71l95,38l106,46l56,18l102,39l106,36l63,25l84,31l40,16l125,45l105,40l13,6l13,14l28,8l49,20l64,22l57,22l38,12l73,13l23,-1l58,6l28,8h43l17,6l2,22l14,20l29,19l23,23l3,8l24,26l7,24l27,16l-31,29l-46,70l-31,80l-21,47l-16,48l-24,41l-56,128l-36,97l-28,49l-28,45l-31,35l-64,49l-66,41l-47,50l-31,23l-84,42l-32,10l-35,-10l-20,-15l-37,-38l-109,-65l-37,-19l-25,-13l-62,-34l-63,-32l-66,-8l-87,10l-19,-1l-103,1l-57,6l-62,16l-35,15l-49,13l-39,19l-40,30l-35,34l-9,19l-7,18l27,73l6,35l3,71l10,53l8,75l6,61l-9,70l-22,48l-47,70l-4,24l7,48l3,41l0,40l-22,77l-7,45l-8,21l-15,25l-10,30l-7,41l-10,30l-19,26l-24,23l-64,60l-21,13l-27,26l-40,28l-51,44l-41,40l-32,43l-14,36l-8,38l-22,36l-25,45l-25,28l-46,47l-20,27l-18,37l-11,11l-19,11l-30,12l-44,8l-22,3l-45,-1l-45,-24l-43,-38l-23,-40l-16,-17l-64,-40l-16,-5l-36,-1l-46,7h-24l-54,-14l-25,-3l-59,-13l-21,-4l-57,-4l-40,4l-61,8l-44,19l-20,4l-65,9l-59,23l-8,3l-63,89l-54,103l-23,35l-58,55l-29,35l-50,47l-29,17l-38,4l-27,12l-27,-5l-29,-16l-56,-9l-53,11l-20,2l-67,-16l-51,1l-29,9l-19,13l-25,26l-13,24l-15,47l-10,18l-17,13l-21,2l-56,-16l-54,-7l-56,14l-25,14l-37,12l-35,28l-17,22l-12,30l-6,32l-9,28l-15,22l-22,17l-54,29l-16,16l-16,13l-24,47l-15,44l-19,62l-15,41l-19,32l-50,45l-33,20l-23,23l-6,29l-10,21l-7,25l-13,15l-15,6h-27l-18,-5l-67,-5l-40,-1l-14,-4l-17,5l-10,12l-9,41l-9,14l-19,13l-55,5l-39,10l-46,-3l-30,-5l-28,29l-10,19l-10,37l-6,36l-12,20Z"
     transform="matrix(9.9999993e-5,0,0,-9.9999993e-5,-2.9722223e-7,-5.8749999e-8)" />
  <path
     id="2802"
     d="M-369434,-102275l-63,-28l-107,-49l-8,-5l-104,312l-119,89l-113,180l-221,-134l-405,99l-930,180l-1,-1l-42,-212l8,-10l-4,-20l8,-6l29,1l26,-18l18,-17l25,-7l50,-11l13,-5l12,-23l-5,-20l2,-23l-42,-18l-16,-16l-18,-4l9,-12l-8,-30l5,-30l-28,-23l-21,-34l-11,-48l-11,-34l2,-38l-3,-22l6,-17l-9,-29l20,-56l65,-37l18,-12l1,-20l-2,-31l-27,-40l2,-13l24,-11l2,-14l12,-1l2,-16l9,-18l-7,-19l-8,-5l17,-32l-4,-18l4,-44l-2,-21l-8,-11l5,-12l-29,-37l-20,-5l-7,-19l-21,-2l-15,-15l6,-17l-22,1l-13,-6l11,-16h8l-1,-19l-14,-22l29,-32l-3,-21l4,-18l-8,-10l-15,-6l1,-22l-13,-5l-20,16l-10,-15l-12,-4l10,-27l12,-15l-8,-12l18,-15l17,6l0,-87l10,-3l-6,-15l-11,5l-11,-11l-1,-17l-11,-6l-8,13l-13,-30l-17,1l-6,-14l-19,12l-12,-28l-35,-5l-12,-17l4,-8l24,2l-10,-15l-8,-27l8,-7l-5,-15l-32,-23l-16,8l0,14l-10,5l-10,-18l-7,10l-18,13l9,17l-5,43l12,7l22,-10l9,8l-12,27l15,14l16,7l-15,11l-12,21l-31,-1l3,13l14,3l3,15l13,11l-19,10l6,18l1,15l-14,3l0,24l-16,8l6,13l-15,5l-29,-7l-19,10l-20,3l5,13l-15,9l-5,-15l-19,10l5,17l12,10l-6,25l-11,-4l-19,21l-8,-11l-14,4l-10,11l-18,-30l-20,8l-9,20l-15,-14l-17,10l-1,16l-20,18l2,10l-8,11l-10,-7l-39,-2l6,-19l-25,-7l-2,28l-25,9l-8,-16l6,-18l-7,-12l-17,15l-40,-15l-14,17l-8,-2l-12,19l-13,2l-18,-13l-30,27l-10,4l-20,27l10,13l-3,18l-22,23l-1,16l-12,24l-25,-7l-2,21l-11,9l-3,12l3,27l-10,13l7,13l-6,8l-20,11l-1,13l-19,32l-5,16l-10,6l-8,33l-6,11l-34,27l-11,-3l-10,18l-26,19l-6,22l-17,30l-1,9l-14,12l-21,26l-18,12l-6,12l-2,31l-14,14l-64,-10l-252,-164l20,-4l30,6l12,-3l62,-31l-2,-16l43,-14l35,2l14,-7l15,1l30,-20l35,-31l30,-6l23,-1l8,-8l1,-36l3,-27l8,-17l1,-32l42,-2l21,-8l19,-26l25,-9l39,-27l0,-19l-10,-44l29,-43l-18,-1l-23,4l-11,-19l-22,-3l-36,-17l-32,-30l-47,-7l-33,15l-34,2l-24,-6l-42,-19l-22,-4l36,-82l-25,6l-7,11l-54,12l-30,-5l-13,-11l-25,-8l4,-14l-24,-31l-53,-5l-23,-6l-19,-31l-5,-21l-44,-16l-8,-18l11,-20l5,-24l-4,-12l-16,-11l2,-14l-16,-24l-9,-24l-14,-20l-17,-2l4,-22l-1,-18l-26,-2l-9,-17h-10l-13,-25l-14,5l-21,-1l1,-20l9,-10l-4,-10l6,-23l-2,-23l-19,3l-37,-17l9,-15l-22,-13l-24,-29l17,-9l-2,-21l-10,-7l-3,-38l-16,15l-24,-9l-3,-12l-13,-12l-26,-12l-28,-4h-25l-12,13l-14,-12l-24,-7l-12,-11l1,-8l23,-20l10,11l10,-17l0,-10l-24,-13l-18,6l-36,5l-17,35l-1,29l17,45l0,20l-20,26l-12,2l-30,-9l-13,10l4,20l17,17l0,17l18,9l3,-11l16,-6l19,17l14,3l20,-4l10,9l-8,17l8,20l-15,9l-39,5l-4,13l10,16l-13,16l-11,23l7,12l17,7l-9,17l-25,6l-15,14l-45,-15l-12,27l10,10l-19,28l0,16l9,22h24l14,-8l-2,24l-40,15l-11,-2l-10,9l8,21l-11,12l-18,-3l-30,5l-5,-19l-9,-4l-10,11l2,10l-13,8l-19,-8l-8,24l6,11l-9,12l-14,-8l-18,23l5,20l8,6l-14,14l-5,16l-9,5l-11,-9l-31,11l-11,-16l-20,-18l-22,-4l-12,14l-14,1l-11,15l11,30l12,6l16,28l12,9l14,3l5,9l-28,36l9,17l-8,18l22,16l6,8l-6,13l-19,19l8,22l-25,-5l-20,25l-17,5l-15,-2l-2,11l-11,12l25,17l-15,11l-6,27l12,6l9,14l17,5l-4,18l5,14l14,9l-7,12l6,12l-6,27l5,7l-13,29l-16,-3l-6,7l16,31l-17,24l-8,25l-27,23l-113,112l4,-34l21,-50l8,-37l15,-220l-1,-8l-15,-31l-1,-15l20,-29l5,-16l-5,-23l-14,-62l6,-50l-1,-12l-19,-48l8,-9l0,-40l-3,-28l-18,-18l7,-30l-14,-21l-15,-42l-18,-3l-3,-40l11,-12l2,-25l-11,-48l-7,-19l-8,-33l5,-14l3,-31l11,-38l13,-12l-2,-121l-4,-492l384,-307l20,-19l18,-23l0,-30l-11,-19l-7,-25l5,-27l27,-34l10,-56l14,-20l30,-31l9,-14l-3,-21l10,-41l130,-233l210,-257l55,-59l-2,-18l-9,-20h-21l-12,6l-5,-11l-18,3l-4,-10l-19,16l-8,-11l-22,-1l-23,14l-21,17l-14,-13l-45,2l-19,10l-30,-4l-16,-17h-7l-7,-19l-38,6l-17,-17l-3,-15l-19,-3l-18,-17l-18,1l-18,-12l-8,-20l3,-34l4,-17l-9,-11l7,-11l-30,-17l-41,-2l-29,-7l-8,-17l-25,-23l1,-15l-34,-25l-8,-12l-32,-9l-66,-51l-6,-10l-17,-8l-8,-17l-3,-20l-179,37l-102,23l-197,-96l-174,-84l-128,236l-20,42l-150,-259l-200,-338l-210,-196l-281,263l-538,98l-279,50l-26,-19l-16,-17l-9,-1l-13,-21l-4,-21l-12,-21l-16,-45l-15,-21l4,-19l-8,-57l4,-13l1,-50l-3,-19l-37,-76l-8,-7l7,-14l1,-23l-54,-42l-14,-16l-1,-12l12,-16l-5,-14l-33,-55l-11,-14l3,-13l-6,-29l-13,-31l-10,-11l0,-13l15,-16l29,-38l9,-49l-8,-16l-6,-57l15,-21l5,-35l8,-17l13,-8l-15,-27l-27,-13l-16,-25l10,-26l24,-15l0,-22l-5,-18l5,-13l-12,1l-18,46l-23,40l-16,8l-31,-21l-34,-47l-11,-8l-30,24l-29,18l-14,23l4,18l15,15l19,5l36,3l29,11l5,11l-13,25l-2,14l-10,15l-19,13l-32,-2l-16,4l-14,12l-22,32l6,13l32,24l0,22l-18,24l-17,8l-16,-13l-32,-12l-15,1l-17,11l-24,28l-24,8l-26,13l-16,17l-2,12l10,28l-3,17l-12,15l-20,15l-11,-5l-3,-30l-23,-2l-19,7l-33,23l4,21l12,10l46,26l7,15l1,20l12,34l9,10l23,8l11,20l7,26l27,12l12,12l6,32l36,49l-14,10l-33,-15l-19,-15l-28,3l-4,37l-6,26l-12,14l-13,3l-14,-25l-25,-34l-17,-16l-7,-14l-25,-32l-8,-2l-20,6l-59,35l-3,11l27,32l5,17l-11,16l-28,17l-27,-5l-38,24l-25,-13l-33,-11h-25l-8,9l-5,19l-17,21l-43,23l-26,41l-16,4l-24,-31l-20,1l-42,16l-62,28l-13,20l-10,57l15,51l-4,5l-53,27l-29,17l-37,12l-28,-5l-32,1l-15,7l-19,28l-21,16l-38,6l-18,6l-30,30l-20,-2l-37,-27l5,-46l-17,-14l-19,-37l11,-30l-14,-9l3,-10l-18,-33l5,-7l-8,-16l6,-14l-19,-38l4,-11l-5,-20l3,-24l-17,-29h-10l-15,-22l-11,-9l53,-24l39,-56l-28,-44l28,-20l-22,-29l28,-8l31,-18l8,-9l-14,-10l-56,-79l-8,-26l-16,-24l-16,-37l28,-21l17,-18l7,-34l3,-40l-14,-47l14,-14l-14,-16l-31,29l-21,10l-100,14l-54,11l-19,20l-9,-7l3,-28l-23,-27l-21,11l-6,-8l-83,-81l-12,-49l-144,-28l-23,6l-41,-15l-17,21l-19,-4l-12,5l-5,-11l8,-8l-11,-26l-8,-5l-191,-44l-51,-16l-107,-37l-145,-194l-41,-27l-26,-39l-27,-24l-37,-24l-20,-43l-18,-28l-19,-5l-26,-26l-27,25l-13,23l-34,16l-19,-18l-35,-22l-21,-4l-19,-11l-19,-20l-39,-5l-44,10l-23,-10l-20,2l-398,267l-65,31l-7,16l-19,10l-20,-13l-34,-5l-9,2l-17,24l-3,13l9,10l30,88l-12,4l-6,52l-18,12l-29,6l-42,19l7,28l-20,7l-47,-27h-18l-11,-34l-18,-5l-20,-17l-14,-18l-9,1l-34,-18h-30l-5,-11l-38,-12l-13,-8l-17,9h-21l-13,-6l-7,8l-44,1l-44,12l-7,10l-35,-16l-9,7l-14,-10l-30,10l-19,-6l-15,7l-31,7l-42,-9l-24,3l-28,-15l-4,15l-19,-5l-26,4l-3,-21l-18,11l-27,-25l-15,1l-24,-7l-6,-5l-26,-2l-22,13l-3,-13l-16,-1l-4,-22l-24,15l-21,-9l-16,3l-13,15l-38,-2l-7,-9l-11,6l-16,-6l-12,9l-10,7h-25l-25,14l-12,14l-21,-7l-10,16l-43,17l-13,-6l-8,13l-11,3l-30,-16l-22,2l-21,13h-18l-8,23l1,11l-17,11l-26,9l-50,-8l-13,10l-24,-11l-23,-17l-12,-16l-36,18l-20,-5l-22,-17l-33,-6l-18,13l-18,-13l-12,2l-13,-15l-24,4l-7,-4l-5,-30l-9,-19l-9,-5l-7,-23l-9,-10l-13,-28l7,-8l-19,-8l-7,-20l15,-23l17,-16l-2,-22l5,-23l-8,-21l2,-19l8,-9l-7,-46l-12,-21l11,-25l14,-9l8,-18l1,-22l13,-12l7,-23l-22,-53l-13,-27l-23,-12l-9,-31l3,-9l-9,-10l-7,-35l-10,-16l6,-18l-11,-23l1,-18l-15,-3l-32,-34l-38,-16l-10,1l-12,-14l-8,1l-29,-17l1,-9l16,-7l-30,-17l-8,6l-18,-29l-6,-21l-8,-7l8,-9l-5,-14l10,-13l-8,-14l12,-18l-4,-10l6,-17l11,-5l8,-24l-21,-19l-15,-9l-6,-13l-17,-15l-10,-17l-14,-7l-22,-26l18,-14l0,-17h15l25,-6l-1,-10l27,-54l11,-8l10,-25l22,-42l-8,-14l10,-9l-2,-34l-10,-21l-10,-2l-3,-22l-18,-19l-11,-1l13,-22l-5,-19l-15,-33l12,3l0,-23l9,-10l-27,-32l21,-35l-3,-10l6,-32l-10,-21l2,-23l6,-9l2,-27l26,-23l-3,-8l12,-11l3,-27l17,-11l-6,-13l4,-20l15,-12l-4,-31l15,-26l-7,-7l4,-23l-4,-34l8,-14l-1,-25l6,-13l-3,-24l18,-24l17,-4l16,-14l19,-9l-3,-13l14,-12l9,4l20,-13h19l12,-17l-4,-9l11,-32l14,-20l17,-5l9,8l10,19l12,48l6,13l12,-7l13,4l8,-11l-8,-12l14,-9l24,-7l12,-19l-30,-71l2,-14l9,-16l9,-1l8,-13l27,-5l24,-15l15,6l7,15l33,-11l6,5l30,-17l45,-8l-4,-17l12,-12l-2,-18l5,-12l-16,-28l0,-10l-14,-10l-3,-21l-36,-59l5,-5l-6,-22l7,-8l28,-6l19,-23l10,-4l3,-31l-5,-21l1,-16l13,-14l13,-27l14,-6l-5,-20l17,-23l56,-46l7,-10l29,-4l27,-21l36,-4l9,-10l34,-17l43,-25l4,-18l12,-24l17,-2l16,13l17,-7l15,-22l11,-24l14,-3l4,-22l7,-18l14,-12l16,-26l13,-9l15,4l13,-4l12,-13l10,-24l22,-2l16,23l19,11l-10,21l-2,15l9,27l26,11l9,10l32,-5l36,-24l12,-5l17,4l35,-5l2,-18l26,-10l22,-15l10,-16l-4,-27l14,-10l-12,-20l-30,-14l-10,-20l7,-17l20,-4l11,-19l-1,-11l14,-15l-23,-24l9,-19l23,-2l19,-17l-11,-19l-23,-3l-9,-20l4,-17l28,-4l17,-14l2,-16l33,-22l15,-3l14,-11l10,-24l-10,-4l-8,-26l11,-18l12,-4l28,3l13,-17l-3,-14l0,-36l12,-7l10,4l19,17l26,-48l-4,-35l7,-11l18,-7l-1,-14l15,-6l5,-9l-25,-36l-10,-3l-21,-25l-11,-30l-1,-16l-6,-19l-28,-55l-8,-24l-18,-12l-17,-2l-15,7l-16,-1l-9,-21l10,-15l0,-15l15,-4l5,-18l10,-1l21,-33l-13,-23l0,-40l10,-8l10,7l18,-4l14,-24l26,-1l12,5l52,-23l29,17h29l10,-6l-1,-14l23,-21l3,-11l-9,-47l7,-26l-8,-18l-1,-16l-11,-6l-16,-19l-15,-7l5,-16l-12,-33l20,-43l34,-20l-14,-4l-9,-35l13,-13l-8,-14l10,-9l9,-25l45,-20l-5,-25l16,-23l9,-22l24,-2l2,-24l-5,-14l13,-7l16,2l12,-7l6,-15l40,-13l6,-27l-2,-16l12,-12l20,3l19,10l21,17l9,-6l26,1l9,-8l27,8l12,12l13,-3l22,9l24,-8l19,5l20,-8l4,-18l29,-9l6,-10l14,4l6,-14l37,-21l4,-8l27,-30h16l23,-15l7,-14l15,-6l9,-12l25,-6h20l12,33h19l45,-15l32,-19l11,-16h25l3,12l-8,22l6,9l23,6l21,-5h17l23,-15l20,-6l4,-13l-13,-18l-19,-7l-37,2l-11,-7l0,-12l12,-27l17,-29l-11,-6l1,-12l-15,-12l-9,-22l9,-14h10l30,-32l6,-18l-7,-13l-4,-38l-10,-8l-21,-4l-17,6l-15,-17l-14,-4l-30,-30l-21,-5l2,-16l16,-24l22,-21l7,-20l-3,-16l-8,-9l-20,-3l-42,8l4,-8l-13,-12l17,-32l16,-3l-1,-30l3,-23l17,3l13,28l22,-9l12,-14l3,-12l-17,-28l-12,-16l-22,-12l-50,-10l-22,-38l12,-13l2,-15l12,-5l20,-26l4,-12l43,-5l6,-21l-14,-23l-52,-20l-16,-12l11,-10l15,-3l0,-15l-7,-14l-43,-27l-22,-19l-7,1l-29,-21l-8,2l-25,-12l-15,2l-49,18l-28,-13l14,-16l24,-54l1,-18l15,4l22,-8l24,9l15,13l8,-19l4,-42l10,-17l3,-16l-6,-9l18,-18l7,-17l14,-13l-1,-14l16,-6l7,-23l15,-5l4,8l17,-10l-2,-19l10,-17l5,-45l-19,-7l-16,8l-10,-9l-30,1l-7,-6l6,-14l28,-18l24,-10l4,-10l18,-5l16,-16l13,-22l-28,-24l-13,6l-28,-17h-25l-6,-15l-17,-9l-6,-20l16,-1l6,-9l33,-21l3,-7l20,-2l7,22l37,5l15,-11l9,-15l28,-33l4,-11l21,14l-6,11l11,25l20,4l24,55l84,139l-9,37l-6,40l-1,36l5,21l29,-2l39,11l11,9l14,-2l20,15l13,-12l16,-5l11,12l22,6l-2,17l8,37l-14,61l130,97l7,23l15,31l5,22l1,24l-12,20l-5,39l9,-4l97,162l26,45l18,76l55,46l82,95l36,54l180,90l20,2l9,-13l49,-26l24,-3l11,3l25,-5l38,-23l12,-14l5,22l-5,11l8,29l-4,8l9,29l9,15l-41,23l10,23l-4,14l1,37l-5,17l-21,15l-20,9l-2,15l-20,57l-4,19l150,127l149,131l181,89l229,118l121,71l26,-4l53,18l12,-1l22,-13l18,2l16,10l20,-1l16,-6l33,-20l4,-9l18,2l5,-13l19,-26l14,-27l17,-11l13,2l13,11l8,-23l42,-27l-6,-6l-2,-17l8,-1l28,19l31,-10l13,-10l25,-28l14,-11l49,-8l16,9l-4,14l13,20l17,-8l-4,-11l14,-5l7,-10l27,-23l-2,-26l22,-22l0,-16l10,-15l16,-1l3,-17l11,2l30,31l12,-9l19,-4l18,9l9,-12l3,-23l16,-13l13,-2l18,5l10,-36l15,4l5,-23l11,-3l12,-20l112,77l190,151l41,29l258,224l-1,56l7,41l-34,76l165,274l12,-16l8,8l17,-17l56,-41l14,2l23,20l1,15l-9,11l11,6l18,-2l14,-9l-3,33l24,-2l25,8l0,25l-21,7l-12,10l-1,19l-13,11l20,22l-14,19l-25,8l-39,3l572,274l-18,19l-24,17l-6,17l5,15l16,18l-6,26l0,34l375,293l113,359l641,-172l-255,404l-225,360l36,-18l20,-16l16,-4l22,2l40,12l19,20l12,6l16,22l23,5l9,8l33,11l7,-6l21,24l33,16l19,4l23,-1l11,-8l27,4l9,5l44,49l12,36l19,10l7,13l134,145l392,414l-10,-42l-27,-22l5,-26l12,-11l18,-32l7,-7l-17,-13l-4,-19l13,-16l34,-11l26,-22l31,-5l33,-11l34,-16l25,5l35,-4l33,-1l29,-15l19,6l31,-2l69,51l28,-5h38l26,-12l16,-2l15,-9l9,2l29,19l36,1l24,-8l21,12l9,31l-4,18l18,28l35,26l13,6l32,30l56,13l31,-4l20,-20l3,23l4,6l445,329l287,203l-280,256l24,22l9,13l-14,28l-24,15l-23,10l-26,23l-10,3l-26,34l-9,36l3,12l-10,15l30,44l20,17l-8,16l-15,7l-10,31l1,10l-10,19l55,42l7,19l7,2l25,-16l21,-19l16,-7l42,25l8,17l-9,9l5,29l26,29l17,11l14,15l17,-1l24,-27l10,11l17,-2l9,-10l16,-5l-11,-18l12,-8l1,-13l15,1l11,26l12,-4l12,14l19,-6l18,-18l28,-7l9,10h13l-2,35l7,12h11l16,-19l5,3l15,26l14,-1l9,-35l16,-21l9,-1l6,24l23,11l-3,15l-19,10l-38,28l-8,12l-24,17l17,11l-6,14l14,2l0,15l21,10l-10,10l5,10l-9,9l14,18l2,23l-11,6l-17,19l-3,11l16,21l-17,36l-14,10l-7,13l-15,4l1,22l-17,2l-6,25l-25,30l-13,-4l-13,21l-22,1l-7,13l-17,-6l-8,17l7,21l10,14l10,27l-14,30l-19,19l-30,-4l-7,6l-18,-8l-33,-6l-28,3l-17,26l-1,31l-16,19l-13,-12l-11,7l0,37l-15,10l-10,15l-14,8l-6,15l-13,3l-14,-6l-9,5l-20,-6l-16,3l-6,9l-12,-2l-10,9l3,16l-13,5l10,18l3,18l-9,13l-12,36l4,14l-8,22l-10,10l-19,-1l-26,25l-19,-1l-14,22l-16,13l-37,3l-9,99l32,65l48,3l25,12l12,17l8,20l26,20l28,7l12,-8l19,3l52,-6l37,9h19l19,-10l17,-22l35,-7l6,-13l16,-5l16,-33l15,5l19,-1l23,10l21,10l11,-21l-5,-17l24,-16l26,3l5,-20l11,10l21,-1l-6,-13l15,-28l15,-3l37,3l16,-27l1,-21l30,7l24,-7l4,-11l15,1l11,-10l22,-5l11,-8l3,-21l-13,-4l-3,-18l17,-3l17,4l19,-13l8,6l21,-12l0,-25l18,-8l13,-24l14,-10l16,4l10,67l7,17l-13,39l-12,24l-24,19l13,8l-3,20l7,22h14l20,11l12,-1l-6,26l8,17l9,-3l28,15l16,23l11,6l2,11l14,-1l13,17l14,-5l7,7l18,2l8,13l0,31l18,23l19,-8l21,19l20,8l11,-1l21,19l-10,19l12,19l15,13h11l22,40l-68,45l-32,33l204,280l38,58l169,220l10,369l16,135l-1,25l16,21l55,26l22,31l20,14l15,1l30,12l16,10l17,18l10,22l21,21l11,24l7,8l14,86l8,13l-3,39l24,3l0,15l-13,-1l-14,20l14,4l-16,33l-27,-5l-16,6l-19,-2l-5,10l10,19l30,10l4,16l37,25l2,14l-28,-2l-4,28l11,2l25,-22l13,17l12,2l-7,15l-19,-13l-21,19l-36,-1l-1,-23l-10,-2l-10,15l-18,3l1,22l-7,15l28,13l-15,17l-15,5l7,11l24,-1l-12,31l-7,4l-19,-6l-4,13l-29,6l-7,16l-18,-6l-19,2l-6,-10l-15,7l-19,24l10,8l26,-10l14,15l-15,12l6,17l15,7l6,12l15,16l11,40l33,5l19,22l26,-2l3,-15l8,-7l14,9l9,-13l12,-8l16,29l10,-13l28,22l13,-4l32,6l2,22l11,-9l8,9l6,20l-6,14l3,11l22,30l3,15l19,4l16,-10l5,13l28,-16l13,31l24,16l-2,19l16,23l-12,7l10,19l18,-2l31,2l11,4l24,29l0,12l-10,27l8,11l22,4l11,17l17,17l13,2l12,13l24,12l9,10l34,12l1,-16l21,-13l10,-22l39,-14l15,-20l19,-47l13,9l4,16l19,33l22,27l38,27l12,17l22,15l9,13l9,-4l8,-16l26,-1l10,13l28,19l17,-8l4,-25l41,-18l25,-7l7,-7l26,-1l26,-4l8,19l21,-3l7,9l0,15h22l16,-5l16,24l13,-4l6,-16l23,-6l10,12l10,-14l14,-9l8,-21l-18,-33l6,-10l-3,-24l25,-31h10l3,-21l-13,-4l3,-41l12,-8l-13,-25l-10,-4l21,-23l-2,-14l7,-22l11,-7l20,-1l-12,-19h17l13,-13l-11,-7l14,-12l6,-14l14,4l11,-4l11,-12l-15,-15l36,-26l6,11l14,-9l17,3l-3,-14l18,1l7,-8l-4,-15l-11,-2l3,-16l-3,-24l-18,-8l-12,14l-2,-27l-5,-18l-25,-8l-14,-16l12,-10l-1,-19l22,-6l-13,-33l17,4l5,-9l0,-21l20,-3l-15,-25l16,-13l-35,-2l13,-13l18,10l-1,-25l-21,1l-2,-14l-18,-6l25,-10l2,-6l23,-16l-11,-17l7,-9l27,8l0,-27l12,-19l15,-8l7,-19l2,-24l7,-15l19,-5l18,-17l5,-14l20,-14l4,-49l-4,-8l15,-13l1,-12l15,-5l-8,-14l6,-12l-5,-16l15,-9h12l-3,-16l14,-27l22,3l16,-17l13,-5l17,4l5,7l21,-1l28,8l25,-21l32,5l12,-7l3,-15l22,-11l0,-14h15l7,-7l0,-13l11,-2l14,14l-2,59l19,17l-6,15l9,25l-2,23l-7,13l-11,7l3,17l11,29l-2,4l15,23l33,25l19,-19l21,-9l22,22l6,12h12l30,23l8,15l38,-9l26,10l33,21l16,3l14,23l1,19l14,101l-15,18l-49,16l-26,20l-10,17l-28,21l14,140l14,82l4,17l62,117l57,77l-20,259l-111,50l-221,125l22,306l-187,96l234,437l-144,-47Z"
     transform="matrix(9.9999993e-5,0,0,-9.9999993e-5,-2.9722223e-7,-5.8749999e-8)" />
  <path
     id="2801"
     d="M-378941,-95395l-18,-6l-141,-71l-42,-14l-29,-4l-53,12l-43,14l-19,8l-38,25l-30,12l-128,31l-81,47l-126,21l-52,-1l-37,6l-75,43l-40,-2l-31,23l-69,70l-40,31l-16,-24l-12,-26l-20,-25l-61,-53l-1,-60l-7,-17l-36,-16l-12,-14l-28,-20l1,-27l-3,-21l-11,-32l16,-11l37,-11l-7,-38l-9,-19l-1,-29l-6,-16l2,-12l13,-5l-2,-10l-14,-13l-20,-4l-36,-28l-8,-34l6,-21l-16,-14l-11,-1l-14,10l0,56l-9,12l-38,-17l-17,-2l-10,-15l-30,-17l-7,-11l0,-15l19,-22l3,-10l18,-6l8,-22l-15,-14l-24,-1l-5,-7h-18l-20,-6l-2,-12l-10,-15l-39,-20l-26,2l-8,10l-23,10l-29,1l-19,-14l3,-19l-9,-12l5,-13l16,-12l-8,-22l13,-10l0,-14l19,-28l-2,-6l22,-26l24,-11l1,-8l-12,-27l1,-27l-21,-27l12,-29l14,-17l8,-19l12,-14l-2,-30l-7,-40l-11,-2l-4,-18l-14,-11l24,-10h15l27,5l35,16l54,31l26,-6l11,-10l5,-37l15,-8l8,-12l9,3l15,-9l45,-18l30,6l35,-5l14,-16l14,-1l1,-30l-5,-13l43,-20l-6,-11l18,-10l11,-18l13,-8l-43,-15l-23,-18l-23,-31l-2,-10l-21,-27l-25,2l-14,17l3,12l-13,10l-25,-1l-43,-47l-21,-260l-12,-6l-21,2l-16,7l-23,-8l-20,-35l10,-7l5,-17l-25,-29l-5,-18l17,-35l4,-40l-7,-13l-1,-28l-5,-21l6,-41l-4,-34l12,-24l-5,-20l13,-13l18,-9l8,-20l-4,-20l-10,-7l-4,-23l22,-23l17,-43l5,-5l-4,-33l-7,-15l7,-22l-15,-27l1,-7l21,-15l7,-22l21,-15l6,-17l-12,-27l18,-19l10,1l-7,-40l8,-11l-11,-16l12,-5l-13,-14l4,-7h16l3,-15l19,-19l-7,-14l19,-4l5,7l32,-14l5,-10l29,1l3,-37l9,-1l10,-25l-8,-33l-27,-2l-2,-6l13,-46l12,2l-3,-22l10,-12l-17,-15l-2,-10l18,-14l5,-28l21,-22l17,-2l24,-30l33,-9l12,-19l12,-4l8,-17l14,-5l17,3l22,-13l-7,-15l11,-20l-7,-10l-1,-37l21,-32l-8,-18l-11,-3l-6,-19l9,-20l-8,-12l0,-20l-24,-34l7,-27l11,-9l-1,-9l13,-11l38,-3l9,-19l-10,-12l-13,-35l-24,-10l-4,-14l-15,-25l-4,-15l-16,5l-21,-3l-39,30l-27,-5l-13,-28l20,-15l16,1l0,-16l16,-18l15,-49l2,-18l13,-4l16,-14l9,-27l11,-4l15,-23l35,-14l20,-10l1,-15l10,-7l-6,-32l9,-20l-1,-14l9,-22l-1,-21l10,-28l-14,-18l2,-14l-6,-11l-3,-28l-7,-17l-24,-23l-11,-5l-14,4l-7,13l-12,6l-18,-11l0,-8l25,-16l13,-23l2,-18l14,-14l-4,-30l17,-31l19,1l12,-6l30,-1l21,-10l18,18l16,9l10,-3l7,-13l-5,-24l12,-28l0,-17l21,-19l1,-13l27,-23l7,-26l22,-27l13,2l18,-7l53,-4l24,4l17,-16l-1,-11l33,-12l12,2l27,-19l9,9l23,-3l50,10l26,-14l24,21l10,19l10,3l21,-11l10,11l17,5l1,8l25,8l20,12l2,15l15,28l19,18l19,3l1,12l29,19l10,-3l28,20l-8,19l13,11l1,10l20,-1l21,13l15,3l4,21l7,9l17,1l3,13l10,12l6,20l44,-38l1,-18l10,-24l9,-22l-23,-23l0,-16l-14,-12l-1,-9l-20,-23l-25,-18l-14,5l-12,-23l-13,-1l6,-40l15,-6l14,-18l9,-5l43,-7h31l45,-10l21,-11l-1,-17l-21,-25l-3,-10l14,-63l6,-9l25,-23l28,-11l6,-18l21,-24l13,-8l12,-18l22,-13l44,-49l26,-15l-3,-39l135,-116l16,4l49,-10l40,-13l18,-28l31,-10l4,-9l-6,-26l5,-14l18,-21l22,-45l11,-6l87,-128l8,-7l20,1l19,-14l21,-6l0,-14l16,-6l-7,-21l-23,-18l6,-7l20,-5l-7,-17l-5,-30l3,-29l28,-1l17,12l20,-8l47,35l12,4l37,-14l4,16l19,16l4,-8l22,-8l15,7l12,-9l10,7l26,-10l2,-14l49,12l9,-9l19,8l82,-107l-56,-258l-2,-20l-16,10l-19,-9l-27,-158l-11,-9l-39,-17l-9,-29l11,-19l2,-21l6,-12l-9,-49l7,-15l-11,-12l-11,-39l-9,-20l0,-15l16,-12l24,-7l18,-27l18,-16l8,-14l19,-1l22,-33l27,-29l11,-26l31,-15l12,-16l18,-12l16,-5l0,-37l10,-30l21,-15l3,-23l-10,-12l5,-23l-5,-20l3,-33l-9,-23l1,-13l-7,-21l-23,-29l-1,-14l-9,-16l4,-25l-4,-17l-13,-29l-5,-30l-8,-9l-7,-35l5,-9l-1,-20l8,-13l-1,-19l19,-14l1,-10l25,-3l38,-32l25,-4l35,-32l23,-11l185,-419l-55,-28l-18,-3l-12,-22l-39,-30l-29,-13l0,-11l-33,-31l65,-16l60,-70l31,-31l12,-7l6,-32l-5,-24l2,-16l-4,-17l3,-21l-12,-18l6,-52l-21,-35l13,-30l-10,-16l-21,-18l-20,-4l-53,12l-6,9l-36,10l-14,1l-15,10l-11,-8l236,-244l18,-248l-17,-4l-6,-9l-30,-10l-18,11l-30,-22l-29,-7l-6,-6l-24,10l-19,-8l-27,11l-33,2l-8,-23h-13l-10,-10l-23,1l-16,12l-28,-2l-17,6l-3,-10l-19,-13l-8,-17l-33,16l-6,-21l-9,-4l2,-26l-7,-3l3,-25l-10,-26l-8,-7l-16,6l-9,-8l-33,-8l-11,-7l-14,-23l-3,-13l-19,-13l-20,4l-16,-9l-16,5l-12,-25l-17,-14l-14,-3l-24,3l-8,10l-16,-1l-11,-25l-1,-12l-15,-1l-14,-12l-19,2l-19,-7l-6,-9l9,-11l-17,-5l-12,-20l-9,-5l-14,9l-24,5l0,10l-25,-3l-8,-19l-19,-5l-15,-13l-13,3l-16,-3l-13,-28l19,-1l7,-10l24,-3l9,-8l3,-22l-15,-14h-22l-9,7l-13,-3l-11,-12l-9,-23l0,-29l7,-9l-14,-23l-4,-16l5,-10l29,-5l16,-7l-12,-26l-20,-6l-27,2l-26,-23l-28,-8l-10,9l-37,-12l-2,-41l34,-27l-5,-12l0,-20l-15,3l-9,-28l2,-23l-8,-18l3,-15l-8,-12l-22,9l-16,-2l-13,-17l-2,-17l18,-27l2,-8l43,-37l6,-14l-1,-18l20,-10l14,-1l14,-35l28,-43l12,-2l11,-12l12,-31l17,-21l-1,-20l10,-6l6,-25l9,-14l18,-19l2,-10l12,-7l0,-15l13,-3l4,-16l15,-26l21,-20l1,-19l18,-19l16,-32l18,-8l2,-11l21,-20l1,-14l15,-21l4,-15l-3,-24l12,-37l15,-12l-8,-14l5,-25l-5,-17l4,-10l16,-8l3,-9l15,-17l10,-19l1,-15l-25,-31l-16,-4l-1,-26l11,-6l5,-15l-4,-24l-29,-28l6,-14l-3,-16l-13,-9l-6,-14l6,-23l-28,-5l7,-37l8,-30l13,-9l3,-13l-22,-3l-26,20l-6,-22l-29,-9l-14,4l-1,-20l-7,-20l6,-24l-13,-6l-13,-40l-16,23l-24,2l-11,13l-8,-2l-1,-36l-18,12l-17,-2l14,-15l-13,-31l15,-7l11,-19l21,-2l30,-27l9,-5l-2,-23l-18,-4l-10,-11l6,-11l21,-10l-2,-37l9,-14l13,-7l0,-12l-14,-22l4,-21l17,-15l26,9l17,-21l-7,-4l-21,3l-7,-17l-21,-15l7,-7l21,-8l25,-12l24,-2l20,6l24,13l22,-11l7,-37l14,-26l3,-27l11,-12l34,-24l32,-15h8l17,14l-5,46l37,27l20,2l30,-30l18,-6l38,-6l21,-16l19,-28l15,-7l32,-1l28,5l37,-12l29,-17l53,-27l4,-5l-15,-51l10,-57l13,-20l62,-28l42,-16l20,-1l24,31l16,-4l26,-41l43,-23l17,-21l5,-19l8,-9h25l33,11l25,13l38,-24l27,5l28,-17l11,-16l-5,-17l-27,-32l3,-11l59,-35l20,-6l8,2l25,32l7,14l17,16l25,34l14,25l13,-3l12,-14l6,-26l4,-37l28,-3l19,15l33,15l14,-10l-36,-49l-6,-32l-12,-12l-27,-12l-7,-26l-11,-20l-23,-8l-9,-10l-12,-34l-1,-20l-7,-15l-46,-26l-12,-10l-4,-21l33,-23l19,-7l23,2l3,30l11,5l20,-15l12,-15l3,-17l-10,-28l2,-12l16,-17l26,-13l24,-8l24,-28l17,-11l15,-1l32,12l16,13l17,-8l18,-24l0,-22l-32,-24l-6,-13l22,-32l14,-12l16,-4l32,2l19,-13l10,-15l2,-14l13,-25l-5,-11l-29,-11l-36,-3l-19,-5l-15,-15l-4,-18l14,-23l29,-18l30,-24l11,8l34,47l31,21l16,-8l23,-40l18,-46l12,-1l-5,13l5,18l0,22l-24,15l-10,26l16,25l27,13l15,27l-13,8l-8,17l-5,35l-15,21l6,57l8,16l-9,49l-29,38l-15,16l0,13l10,11l13,31l6,29l-3,13l11,14l33,55l5,14l-12,16l1,12l14,16l54,42l-1,23l-7,14l8,7l37,76l3,19l-1,50l-4,13l8,57l-4,19l15,21l16,45l12,21l4,21l13,21l9,1l16,17l26,19l279,-50l538,-98l281,-263l210,196l200,338l150,259l20,-42l128,-236l174,84l197,96l102,-23l179,-37l3,20l8,17l17,8l6,10l66,51l32,9l8,12l34,25l-1,15l25,23l8,17l29,7l41,2l30,17l-7,11l9,11l-4,17l-3,34l8,20l18,12l18,-1l18,17l19,3l3,15l17,17l38,-6l7,19h7l16,17l30,4l19,-10l45,-2l14,13l21,-17l23,-14l22,1l8,11l19,-16l4,10l18,-3l5,11l12,-6h21l9,20l2,18l-55,59l-210,257l-130,233l-10,41l3,21l-9,14l-30,31l-14,20l-10,56l-27,34l-5,27l7,25l11,19l0,30l-18,23l-20,19l-384,307l4,492l2,121l-13,12l-11,38l-3,31l-5,14l8,33l7,19l11,48l-2,25l-11,12l3,40l18,3l15,42l14,21l-7,30l18,18l3,28l0,40l-8,9l19,48l1,12l-6,50l14,62l5,23l-5,16l-20,29l1,15l15,31l1,8l-15,220l-8,37l-21,50l-4,34l113,-112l27,-23l8,-25l17,-24l-16,-31l6,-7l16,3l13,-29l-5,-7l6,-27l-6,-12l7,-12l-14,-9l-5,-14l4,-18l-17,-5l-9,-14l-12,-6l6,-27l15,-11l-25,-17l11,-12l2,-11l15,2l17,-5l20,-25l25,5l-8,-22l19,-19l6,-13l-6,-8l-22,-16l8,-18l-9,-17l28,-36l-5,-9l-14,-3l-12,-9l-16,-28l-12,-6l-11,-30l11,-15l14,-1l12,-14l22,4l20,18l11,16l31,-11l11,9l9,-5l5,-16l14,-14l-8,-6l-5,-20l18,-23l14,8l9,-12l-6,-11l8,-24l19,8l13,-8l-2,-10l10,-11l9,4l5,19l30,-5l18,3l11,-12l-8,-21l10,-9l11,2l40,-15l2,-24l-14,8h-24l-9,-22l0,-16l19,-28l-10,-10l12,-27l45,15l15,-14l25,-6l9,-17l-17,-7l-7,-12l11,-23l13,-16l-10,-16l4,-13l39,-5l15,-9l-8,-20l8,-17l-10,-9l-20,4l-14,-3l-19,-17l-16,6l-3,11l-18,-9l0,-17l-17,-17l-4,-20l13,-10l30,9l12,-2l20,-26l0,-20l-17,-45l1,-29l17,-35l36,-5l18,-6l24,13l0,10l-10,17l-10,-11l-23,20l-1,8l12,11l24,7l14,12l12,-13h25l28,4l26,12l13,12l3,12l24,9l16,-15l3,38l10,7l2,21l-17,9l24,29l22,13l-9,15l37,17l19,-3l2,23l-6,23l4,10l-9,10l-1,20l21,1l14,-5l13,25h10l9,17l26,2l1,18l-4,22l17,2l14,20l9,24l16,24l-2,14l16,11l4,12l-5,24l-11,20l8,18l44,16l5,21l19,31l23,6l53,5l24,31l-4,14l25,8l13,11l30,5l54,-12l7,-11l25,-6l-36,82l22,4l42,19l24,6l34,-2l33,-15l47,7l32,30l36,17l22,3l11,19l23,-4l18,1l-29,43l10,44l0,19l-39,27l-25,9l-19,26l-21,8l-42,2l-1,32l-8,17l-3,27l-1,36l-8,8l-23,1l-30,6l-35,31l-30,20l-15,-1l-14,7l-35,-2l-43,14l2,16l-62,31l-12,3l-30,-6l-20,4l252,164l64,10l14,-14l2,-31l6,-12l18,-12l21,-26l14,-12l1,-9l17,-30l6,-22l26,-19l10,-18l11,3l34,-27l6,-11l8,-33l10,-6l5,-16l19,-32l1,-13l20,-11l6,-8l-7,-13l10,-13l-3,-27l3,-12l11,-9l2,-21l25,7l12,-24l1,-16l22,-23l3,-18l-10,-13l20,-27l10,-4l30,-27l18,13l13,-2l12,-19l8,2l14,-17l40,15l17,-15l7,12l-6,18l8,16l25,-9l2,-28l25,7l-6,19l39,2l10,7l8,-11l-2,-10l20,-18l1,-16l17,-10l15,14l9,-20l20,-8l18,30l10,-11l14,-4l8,11l19,-21l11,4l6,-25l-12,-10l-5,-17l19,-10l5,15l15,-9l-5,-13l20,-3l19,-10l29,7l15,-5l-6,-13l16,-8l0,-24l14,-3l-1,-15l-6,-18l19,-10l-13,-11l-3,-15l-14,-3l-3,-13l31,1l12,-21l15,-11l-16,-7l-15,-14l12,-27l-9,-8l-22,10l-12,-7l5,-43l-9,-17l18,-13l7,-10l10,18l10,-5l0,-14l16,-8l32,23l5,15l-8,7l8,27l10,15l-24,-2l-4,8l12,17l35,5l12,28l19,-12l6,14l17,-1l13,30l8,-13l11,6l1,17l11,11l11,-5l6,15l-10,3l0,87l-17,-6l-18,15l8,12l-12,15l-10,27l12,4l10,15l20,-16l13,5l-1,22l15,6l8,10l-4,18l3,21l-29,32l14,22l1,19h-8l-11,16l13,6l22,-1l-6,17l15,15l21,2l7,19l20,5l29,37l-5,12l8,11l2,21l-4,44l4,18l-17,32l8,5l7,19l-9,18l-2,16l-12,1l-2,14l-24,11l-2,13l27,40l2,31l-1,20l-18,12l-65,37l-20,56l9,29l-6,17l3,22l-2,38l11,34l11,48l21,34l28,23l-5,30l8,30l-9,12l18,4l16,16l42,18l-2,23l5,20l-12,23l-13,5l-50,11l-25,7l-18,17l-26,18l-29,-1l-8,6l4,20l-8,10l42,212l1,1l44,14l557,169l238,84l-15,441l60,308l322,46l229,192l505,140l29,9l-4,43l-16,45l-32,56l-16,63l-5,31l-9,26l-13,22l-24,48l-28,25l-51,25l-18,3l-46,-10l-26,7l-24,12l-33,33l-27,43l-31,17l-19,15l-30,-4l-15,-9l-32,-36l-10,-8l-31,-16l-35,-13l-55,-5l-122,-46l-24,-10l-20,-5l-35,1l-28,4l-58,19l-22,17l-35,14l-28,1l-56,-11l-31,6l-26,19l-29,71l-19,17l-52,51l16,12l-28,10l-66,66l-18,30l-13,32l-78,59l-68,24l-23,12l-35,28l-12,14l-14,23l-19,54l-12,25l-19,22l-22,17l-50,14l-50,22l-22,18l-29,33l-26,14l-32,7l-20,14l-32,39l-38,36l-46,19l-27,14l-32,23l-37,23l-23,25l-27,4l-43,-7l-21,-14l-19,-17l-41,-18l-31,-4l-30,6l-46,22l-77,6l-35,-2l-63,-11l-82,-25l-32,-3l-28,3l-46,19l-17,2l-42,-1l-42,2l-38,11l-26,11l-15,9l-29,27l-22,29l-15,35l1,67l-4,35l-11,23l-35,50l-26,45l-15,53l-19,41l-8,33l-10,16l-21,17l-40,13l-32,20l-19,19l-16,22l-22,17l-25,26l-58,51l-20,8l-43,9l-36,-10l-14,-7l-21,-10h-19l-16,7l-30,26l-30,9l-39,21l-12,15l-13,7l-43,11l-40,23l-31,28l-53,68l-33,37l-13,5l-25,27l-18,28l-14,33l-23,32l-28,27l-25,14l-36,11l-38,3l-65,11l-72,21l-30,11l-84,36l-60,11l-60,2l-21,15l-30,31l-20,28l-27,19l-46,58l-19,15l-27,10l-36,5h-26l-14,-5h-47l-42,20l-16,14l-49,24l-64,20l-149,37l-50,9l-41,12l-71,16l-71,4l-33,-6l-50,-1l-27,7l-34,4l-35,-6l-72,-4l-38,5l-63,2l-45,16l-77,20l-60,8l-50,-4l-31,2l-33,8l-72,2l-55,11l-48,-4l-99,14l-53,18l-41,27l-53,49l-51,46l-49,33l-53,27l-32,19l-29,13l-26,16l-39,17l-16,14l-50,27l-43,35l-46,24l-30,20l-16,20l-22,50l-9,11l-15,7l-40,1l-20,5l-46,19l-38,25l-11,14l-26,47l-18,20l-35,56l-6,19l-22,48l-23,46l-12,38l-10,15l-31,30l-48,42l-32,25l-21,9l-26,16l-35,8l-28,19l-33,13l-41,29l-29,17l-24,7l-16,11l-21,26l-12,7l-16,-1l-17,-8l-33,4l-31,-1l-17,8l-34,-1l-51,14l-21,4l-49,20l-21,6l-25,-3l-40,9l-14,1l-39,-12l-26,-4l-41,-25l-49,-14l-24,-9l-11,-9l-26,-5l-46,-23l-50,-16l-47,-11l-22,-14l-14,4l-1,21l-5,8l-27,19l-5,9l-5,31l9,9l-6,38l-10,24l-16,22l-19,16l-67,40l-54,49l-27,31l-8,17l-7,36l-51,40l-18,48l-16,12l-40,4l-80,-36h-13l-19,26l-5,18l2,20l-13,40l-9,12l-47,39l-17,13l-36,21l-86,55l-77,39l-47,49l-85,61l-92,54l-21,23l-29,63l-13,18l-16,3Z"
     transform="matrix(9.9999993e-5,0,0,-9.9999993e-5,-2.9722223e-7,-5.8749999e-8)" />
</svg>
