<?xml version="1.0" encoding="UTF-8" standalone="no"?>
<svg
   version="1.2"
   width="1080"
   height="1080"
   viewBox="-50.7421 5.1684 5.0428 8.2998"
   stroke-linecap="round"
   stroke-linejoin="round"
   id="svg5"
   sodipodi:docname="TOMeso.svg"
   inkscape:version="1.2 (dc2aedaf03, 2022-05-15)"
   xmlns:inkscape="http://www.inkscape.org/namespaces/inkscape"
   xmlns:sodipodi="http://sodipodi.sourceforge.net/DTD/sodipodi-0.dtd"
   xmlns="http://www.w3.org/2000/svg"
   xmlns:svg="http://www.w3.org/2000/svg">
  <defs
     id="defs9" />
  <sodipodi:namedview
     id="namedview7"
     pagecolor="#ffffff"
     bordercolor="#000000"
     borderopacity="0.25"
     inkscape:showpageshadow="2"
     inkscape:pageopacity="0.0"
     inkscape:pagecheckerboard="0"
     inkscape:deskcolor="#d1d1d1"
     showgrid="false"
     inkscape:zoom="0.7537037"
     inkscape:cx="540.66339"
     inkscape:cy="540.66339"
     inkscape:window-width="1920"
     inkscape:window-height="1001"
     inkscape:window-x="-9"
     inkscape:window-y="-9"
     inkscape:window-maximized="1"
     inkscape:current-layer="svg5" />
  <path
     id="1701"
     d="M-474303,-64226l44,84l60,126l25,78l30,129l21,45l23,67l3,33l-7,79l-12,79l-4,44l12,114l22,67l52,81l72,122l56,122l27,42l29,65l23,40l41,81l14,60l-7,62l-14,55l-14,51l-26,90l-21,106l-113,134l-48,78l-87,192l-64,122l-66,176l-70,292l-29,189l-14,190l11,119l14,57l8,21l10,50l2,13l0,45l20,154l0,80l-5,29l-20,64l-20,50l-21,45l-36,68l-12,18l-38,56l-24,46l-22,55l-2,31l3,31l13,54l24,49l14,61l25,50l55,169l41,138l10,57l6,126l-7,71l-27,123l-6,62l18,125l0,122l-6,32l-27,45l-35,44l-16,123l-10,36l-5,40l-13,64l-46,111l-14,10l-44,61l-20,51l-20,72l-38,87l-40,73l-20,60l-51,83l-110,107l-108,288l-8,57l-2,80l13,68l88,259l50,111l56,110l-2,37l-16,93l-14,117l-3,23l-25,133l-24,87l-4,56l-19,118l-6,78l2,84l16,88l-1,57l-18,74l-30,80l-36,65l-13,40l-71,134l-107,100l-61,51l-65,90l-8,33l-41,55l-60,62l-30,24l-112,133l-69,51l-49,25l-39,1l-36,-14l-59,-42l-33,-12l-35,-1l-66,11l-141,35l-46,3l-128,54l-240,195l-48,27l-82,68l-47,31l-65,58l-75,44l-61,20l-18,6l-36,21l-59,25l-36,26l-109,53l-69,41l-80,37l-109,82l-46,26l-43,23l-34,13l-133,20l-107,-1l-40,-4l-139,-49l-68,-12l-133,-12l-175,7l-37,-14l-40,25l-66,55l-57,24l-132,158l-40,56l-44,73l-22,47l-2,24l6,18l2,28l-14,82l4,26l17,40l6,38l-10,119l-3,41l-34,207l-5,19l-20,62l-18,23l-109,94l-113,50l-37,22l-41,18l-148,56l-65,31l-21,18l-76,15l-16,1l-52,3l-107,-7l-56,3l-96,13l-153,29l-175,12l-29,-3l-47,-18l-39,-4l-20,-12l-17,-11l-26,-7l-120,-100l-58,-68l-39,-39l-41,-30l-36,-13l-9,-13l-31,-15l-123,-25l-44,-14l-23,-6l-24,-1l-36,-12l-19,-17l-37,30l-242,49l-51,16l-60,6l-33,-3l-137,3l-34,5l-133,5l-53,14l-107,12l-62,14l-26,3l-17,-11l-29,23l-35,15l-54,36l-81,28l-81,16l-129,79l-56,56l-34,29l-65,43l-131,53l-93,21l-85,34l-72,15l-16,13l-73,32l-26,23l-89,52l-89,14l-117,-5l-30,5l-39,12l-78,48l-85,79l-13,20l-38,28l-109,100l-56,38l-51,17l-43,-2l-33,-21l-23,2l-138,-32l-42,2l-278,-32l-144,-46l-84,-20l-144,-4l-94,-17l-64,-17l-99,-53l-38,-14l-9,-1l-63,-3l-62,4l-27,16l-93,5l-78,-4l-35,-12l-29,-19l-39,-14l-32,-21l-31,-25l-29,-37l-61,-57l-37,-30l-38,-48l-51,-55l-16,-48l-18,-15l0,-46l-7,-42l-7,-76l-51,-113l-10,-49l4,-75l10,-24l-6,-73l-8,-29l-64,-109l-8,-28l-17,-36l-66,-111l-79,-76l-65,-80l-25,-52l-21,-22l-30,-22l-38,-16l-25,-3l-83,21l-94,33l-23,23l-36,70l-27,37l-29,12l-61,51l-38,23l-69,32l-37,10l-69,11l-104,3l-84,-33l-45,-26l-29,-28l-40,-56l-20,-42l-12,-44l-21,-160l-15,-29l-28,-34l-33,-20l-29,-1l-45,6l-40,14l-69,31l-33,-2l-36,-27l-36,-19l-63,20l-80,16l-16,-37l17,-32l5,-36l53,-77l38,-23l86,-43l48,-13l58,-9l60,26l35,-36l122,8l108,-15l45,-12l87,3l166,-37l92,-12l43,-12l68,-48l44,-54l45,-80l57,-70l35,-18l25,-18l114,-49l70,-16l80,-23l33,3l71,-3l55,10h47l186,48l137,-36l127,-45l172,-50l87,5l137,34l102,47l167,89l67,5l73,17l41,5l50,16l31,16l40,14l148,32l26,2l104,-19l52,1l41,25l15,37l23,30l38,5l50,-5l31,-18l81,-67l32,-41l16,-37l3,-40l70,-54l34,-15l64,-64l44,-76l39,-95l11,-47l11,-175l32,-65l106,-133l-15,-41l7,-56l26,29l138,-141l110,-152l179,-131l41,-43l172,-77l235,-47l118,21l136,-35l179,-89l50,-77l127,-41l234,-157l154,-121l60,-154l-24,-173l-49,-120l-17,-70l-15,-25l-53,-101l-73,-120l-79,-159l-78,-125l-13,-12l-37,-37l-180,-78l-69,-29l-81,-19l-46,-17l-64,-16l-106,-11l-224,16l-108,25l-87,-3l-32,-10l-39,-29l-35,-35l-71,-106l-33,-77l-41,-139l-22,-196l-2,-40l2,-73l29,-182l14,-75l31,-118l4,-33l55,-123l16,-29l59,-91l86,-103l40,-30l75,-71l133,-147l18,-23l38,-57l43,-68l29,-56l27,-59l7,-79l-7,-80l-15,-77l-13,-15l-46,-50l-60,-40l-85,-38l-88,-25l-312,-56l-48,-14l-103,-49l-72,-44l-72,-63l-114,-156l-18,-32l-32,-117l-7,-48l2,-76l10,-31l22,-42l25,-26l30,-15l193,-38l57,-22l27,-15l35,-28l99,-128l17,-29l37,-158l-4,-39l-14,-47l-30,-74l-41,-65l-51,-64l-83,-80l-190,-142l-100,-43l-121,-46l-158,-45l-31,-13l-128,-17l-81,8l-49,16l-51,-33l-41,-3l-78,-31l-115,-99l-77,-79l-44,-61l-30,-59l-13,-48l-2,-54l3,-80l58,-143l19,-62l16,-76l16,-43l33,-143l29,-201l63,-131l-13,-47l-33,-35l-8,-54l10,-37l26,-44l25,-31l57,-47l51,-36l125,-72l38,-29l37,-41l30,-51l25,-113l4,-17l-11,-98l-31,-81l-15,-62l-3,-48l-14,-40l-38,-6l-129,61l-222,156l-28,15l-31,8l-38,5l-44,8l-76,21l-44,16l-165,10l-360,-7l-58,-22l-52,-38l-22,-38l-9,-37l-25,-32l-72,-59l-40,-79l-7,-46l-21,-37l-29,-33l-49,-44l-20,-34l-118,-87l-127,-56l-17,-24l-35,-32l-23,-27l-114,-83l-32,-32l-57,-41l-42,-17l-34,-35l-67,-38l-60,-57l-64,-87l-14,-48l-32,-78l-19,-35l-27,-49l-31,-45l-18,-35l-10,-21l-27,-27l-34,-62l-32,-19l-23,-46l-1,-45l10,-51l-13,-53l-15,-28l-23,-19l-18,-29l-25,-29l-33,-51l-26,-75l-27,-109l-11,-99l1,-29l14,-40l17,-84l40,-113l34,-72l17,-106l-1,-245l3,-34l-33,-105l-36,-52l-15,-15l-45,-56l-14,-14l-46,-48l-53,-44l-65,-45l-39,-19l-111,-39l-181,-36l-71,-4l-62,-16l-78,-35l-48,-42l-27,-16l-35,-40l-37,-78l-32,-48l-143,-155l-71,-47l-137,-65l-28,-18l-215,-81l-72,-21l-45,-8l-63,7l-101,44l-48,11l-40,-2l-21,-4l-120,-23l-60,-4l-64,-17l-88,-9l-146,-25l-83,4l-46,-9l-103,-59l-44,-13l-48,-3l-61,-18l-100,-46l-89,-56l-53,-26l-81,-19l-56,-7l-140,-2l-89,-11l-87,12l-99,-20l-53,-61l-70,-112l-64,-78l-13,-17l-49,-48l-232,-172l-164,-103l-60,-48l-137,-91l-122,-127l-244,-127l-108,-63l-103,-30l-111,-10l-76,-52l-44,-98l-45,-35l-102,-48l-109,-92l-51,-129l-16,-97l-12,-135l20,-142l61,-73l64,-175l49,-188l27,-70l11,-107l7,-37l17,-101l4,-47l1,-194l-5,-102l-13,-95l-5,-247l2,-30l-4,-75l8,-90l17,-109l20,-182l14,-182l7,-64l8,-42l32,-179l-5,-120l-16,-86l-49,-106l-47,-72l-58,-74l-61,-103l-61,-201l-30,-69l-52,-93l-48,-95l-56,-93l-24,-31l-62,-53l-142,-152l-75,-114l-22,-34l-25,-39l-12,-15l-17,-32l-45,-56l-134,-124l-65,-79l-25,-39l-45,-83l-79,-94l-58,-65l-84,-72l-63,-84l-70,-71l-110,-121l-49,-57l-112,-136l-67,-71l-33,-28l-47,-56l2,-38l-28,-198l-14,-64l-21,-171l5,-134l20,-122l72,-194l108,-223l26,-41l44,-68l58,-104l47,-112l24,-97l14,-28l22,-47l50,-82l70,-91l49,-39l57,-29l55,-35l113,-57l42,-26l87,-78l65,-44l73,-72l58,-47l209,-146l73,-56l65,-66l74,-98l49,-45l145,-97l36,-32l109,-62l66,-30l154,-34l47,-17l48,-26l28,-24l73,-84l22,-51l-17,-48l-55,-85l-93,-123l-19,-166l-10,-48l5,-21l16,-64l-7,-175l18,-114l18,-88l1,-109l-5,-99l-15,-116l-19,-113l-30,-106l-83,-136l-41,-86l1,-79l63,-245l18,-50l5,-66l-15,-134l-13,-60l-1,-36l13,-66l-18,-109l-14,-33l-21,-28l-29,-30l-101,-59l-18,-25l-44,-86l-1,-37l-5,-104l-17,-67l-6,-19l-35,-70l-15,-52l1,-46l10,-53l23,-76l-27,-188l-8,-35l-22,-132l-63,-187l-38,-76l-13,-20l-11,-17l-53,-70l-32,-53l-58,-147l-55,-93l-68,-136l-50,-156l-4,-78l-12,-64l-24,-57l-21,-79l-19,-51l-15,-69l-19,-124l-20,-68l-3,-42l-18,-48l-8,-43l-62,-204l-71,-159l-72,-88l-33,-33l-53,-37l-142,-75l-107,-37l-90,-36l-51,-5l-76,-48l-37,-29l-35,-41l-47,-74l-36,-39l-25,-38l-29,-31l-18,-30l-86,-116l-21,-41l-30,-110l-30,-82l-39,-61l-25,-51l-37,-177l-10,-108l-17,-58l-12,-93l-5,-117l-1,-20l6,-39l-15,-78l-23,-47l-34,-102l-36,-63l-92,-74l-162,-108l-28,-29l-134,-114l-25,-29l-21,-39l-36,-129l-41,-72l-76,-87l-16,-43l-34,-68l-13,-37l-19,-32l-17,-53l-5,-23l-30,-87l-28,-61l-22,-35l-48,-59l-53,-47l-19,-38l-41,-60l-27,-31l-56,-89l-74,-87l-40,-62l-67,-80l-39,-72l-39,-28l-33,-41l-43,-88l-23,-70l-20,-26l-41,-76l-46,-69l-13,-27l-30,-40l-64,-76l-36,-49l-58,-52l-38,-46l-26,-49l-30,-81l-22,-32l-70,-33l-84,-10l-49,-24l-128,-16l-52,2l-77,11l-31,-2l-149,-29l-91,-22l-45,-16l-144,-31l-62,-71l-73,-64l-18,-24l-66,-48l-65,-73l-164,-148l-43,-34l-116,-35l-55,-68l-35,-61l-5,-29l-63,-62l-68,-55l-32,-48l-24,-83l-82,-153l-31,-50l-23,-23l-68,-100l-51,-40l-24,-35l-80,-55l-54,-51l-41,-58l-24,-17l-145,-136l-70,-87l-54,-106l-23,-88l-4,-122l-7,-48l-2,-17l-29,-61l-26,-28l-29,-42l-26,-30l7,-47l-54,-109l-40,-69l-148,-204l-108,-193l-29,-29l-32,-21l-43,-17l-28,-31l0,-37l8,-31l28,-16l12,-34l-1,-44l-23,-41l-47,-49l-77,-53l-48,-22l-29,-34l-98,-78l-59,-35l-27,-31l-40,-75l-37,-59l-63,-79l-59,-56l-8,-2l-50,-13l-73,-3l-74,13l-41,-7l-34,-20l-28,-36l-32,-105l-5,-38l-19,-36l-7,-37l7,-31l-2,-29l-23,-35l-84,-83l-57,-41l-34,-14l-34,-3l-50,-32l-31,-9l-38,-24l-32,-50l-21,-75l-54,-61l-23,-51l-47,-216l-3,-76l18,-59l5,-30l7,-215l-31,-32l-27,-39l-4,-49l-29,-60l-36,-101l-30,-40l-34,-26l-49,-47l-50,-61l-83,-134l-29,-89l-16,-27l-23,-121l-48,-116l-24,-43l-12,-42l17,-49l-12,-38l-5,-55l28,-38l8,-29l3,-40l-30,-13l-35,-29l0,-41l137,-174l33,-68l13,-129l-15,-38l-20,-27l-50,-53l-37,-27l-17,-26l-16,-65l-22,-32l-7,-92l12,-89l-6,-37l-17,-25l-22,-23l-63,-47l-50,-66l-10,-41l-18,-42l-20,-22l-104,-39l-12,-27l-10,-90l5,-121l-6,-59l-6,-33l-21,-54l-74,-115l-5,-35l10,-77l-3,-69l-10,-28l-17,-26l-64,-12l-5,-102l-17,-32l-59,-59l-22,-35l-124,-137l-45,-65l-37,-85l-23,-34l-32,-15l-24,-30l-12,-29l-47,-292l-38,-118l-30,-35l-38,-70l-14,-69l1,-79l-5,-38l-14,-28l-72,-66l-24,-44l0,-9l19,-27l3,-23l-4,-25l-23,-28l-32,-24l-22,-29l-52,-37l-55,-54l-58,-93l-60,-86l-42,-103l-45,-91l-12,-42l1,-113l-18,-107l-47,-94l-35,-46l-35,-65l-12,-57l21,-73l1,-26l-48,-101l-6,-9l-58,-61l-16,-29l-13,-46l-3,-33l-7,-17l1,-18l-14,-139l-83,-193l-29,-38l-70,-65l-19,-11l-98,-40l-41,-20l-115,-81l-45,-56l-104,-107l-19,-49l-7,-82l-21,-42l-45,-46l-27,-38l-64,-37l-48,-41l-54,-74l-37,-73l-26,-36l-26,-50l-17,-51l-25,-111l-12,-24l-8,-29l-5,-86l8,-43l11,-25l17,-12l37,-12l21,-16l25,-113l13,-94l36,-165l4,-68l-14,-61l-27,-82l-45,-76l-48,-67l-31,-69l-32,-126l-6,-57l-13,-63l-30,-93l-47,-122l-38,-113l-84,-156l-16,-72l10,-73l24,-64l32,-63l-2,-17l-15,-29l-48,-54l-45,-34l-120,-76l-24,-41l-3,-45l-8,-27l-37,-47l-61,-35l-119,-49l-56,-31l-18,-18l-31,-115l-3,-82l-15,-104l-33,-101l-18,-78l-31,-91l-11,-60l2,-54l10,-38l15,-27l23,-60l5,-29l-2,-12l-22,-28l-30,-18l-46,-12l-80,-1l-11,4l-23,-4l-93,-53l-30,-27l-7,-16l-2,-33l2,-17l-1,-56l22,-66l-3,-33l-17,-42l-23,-39l-36,-48l-4,-32l28,-79l-1,-36l-6,-8l-1,-33l13,-48l-29,-52l4,-11l-31,-49l-63,-71l-24,-38l-17,-43l-4,-48l12,-60l-1,-21l-24,-34l-29,-25l-11,-16l-23,-6l-109,6l-61,-9l-25,-11l-30,-39l-28,-21l-27,-31l-19,-45l-37,-43l-10,-30l-27,-43l-16,-76l-60,-57l-100,-56l-43,-28l-4,-16l-2,-11l-11,-65l3,-24l15,-40l48,-39l33,-7l19,-15l18,-7l15,-16l19,-38l14,-60l-5,-70l8,-52l20,-51l48,-48l22,-53l9,-60l-15,-52l-3,-28l21,-61l24,-36l24,-58l3,-36l-5,-17l-26,-41l-25,-28l-32,-75l-9,-36l-63,-73l-36,-70l-8,-23l1,-90l-7,-22l-17,-27l-36,-20h-103l-19,-13l-31,-43l5,-112l-12,-32l-27,-20l-31,-44l-33,-83l9,-43l-3,-46l24,-158l23,-24l74,-26l43,-34l13,-31l37,-61l6,-28l-10,-66l4,-40l-8,-56l-43,-43l-57,-36l-31,-34l-44,-21l-13,-18l-25,-23l-49,-68l-29,-28l-27,-41l-3,-40l11,-20l15,-43l17,-97l28,-52l19,-21l17,-34l20,-63l-2,-19l-17,-49l-14,-20l-14,-37l1,-24l37,-73l15,-73l20,-40l-19,-45l7,-41l23,-53l-1,-45l-11,-47l3,-65l18,-56l41,-54l21,-205l-1,-39l-31,-52l-11,-59l-9,-26l-30,-47l-23,-18l-102,-51l-28,-21l-19,-22l-22,-35l-27,-71l-20,-95l-9,-33l-13,-28l-36,-34l-33,-7l-68,-5l-11,-10l-23,-59l-9,-97l-26,-72l-2,-143l12,-70l8,-37l28,-108l-21,-121l2,-36l22,-57l49,-62l4,-36l0,-21l-10,-51l-7,-144l-17,-58l-17,-89l-14,-28l-45,-61l-10,-23l-11,-63l-2,-52l-25,-70l-12,-21l-52,-50l-25,-32l-76,-46l-65,-26l-37,-26l-17,-53l-14,-31l-72,-151l-2,-52l15,-81l-29,-74l-36,-109l-32,-56l-113,-143l-17,-29l-10,-94l13,-46l9,-74l3,-71l-11,-58l-88,-135l-24,-50l-7,-102l-21,-93l0,-54l19,-56l14,-70l-5,-263l19,-38l26,-88l-8,-91l-23,-71l-25,-37l-6,-32l0,-23l21,-73l42,-70l24,-12l45,-48l35,-97l40,-70l43,-48l67,-27l84,-2l49,4l28,-9l47,11l80,-23l76,26l28,-6l29,-13l37,-42l13,-8l26,-6l10,-13l11,-30l6,-81l-13,-58l0,-99l-9,-35l-55,-65l1,-25l11,-23l12,-51l-1,-40l-5,-64l-10,-51l4,-17l-6,-68l18,-80l-15,-90l-18,-39l-17,-22l-9,-24l-32,-43l-28,-24l-103,-41l-23,-3l-58,-40l-42,-51l-57,-45l-51,-67l-44,-48l-17,-29l-18,-15l-19,-8l-13,-5l-30,-38l-4,-28l0,-52l42,-127l42,-56l57,-102l26,-125l7,-63l17,-91l23,-74l57,-82l22,-25l17,-30l30,-78l18,-98l3,-40l-13,-87l2,-88l7,-27l37,-39l52,-15l57,-7l63,6l56,-27l21,-29l32,-33l54,-28l18,-3l22,-12l23,-22l35,-47l8,-61l-6,-78l-15,-42l-39,-27l-62,-28l-84,-61l-2,-8l-78,-109l-8,-18l-1,-23l13,-20l24,-23l19,-27l21,-14l56,-95l-7,-91l-5,-50l-9,-47l-27,-31l-36,-57l-67,-51l-19,-21l-63,-39l-42,-42l-15,-47l-1,-30l-7,-33l4,-89l18,-17l25,-12l18,-24l2,-34l-8,-7l-3,-17l-11,-15l-33,-24l-14,-32l-24,-66l5,-95l11,-24l40,-53l19,-12l26,-26l29,-37l34,-15l31,-28l1,-21l-8,-63l-1,-21l11,-49l-1,-17l-21,-42l-7,-21l0,-32l-11,-38l3,-37l-11,-39l6,-37l-11,-34l-2,-31l-22,-43l-10,-68l8,-36l39,-64l9,-37l-5,-32l-17,-42l-25,-30l-39,-73l-6,-33l15,-46l-4,-18l2,-17l-12,-32l-4,-81l7,-33l0,-68l-10,-34l-50,-67l-16,-25l-1,-15l27,-62l16,-56l12,-29l27,-19l53,2l70,-12l110,16l86,-21l26,-18l5,-9l5,-38l-11,-35l-38,-52l-17,-45l-10,-50l8,-41l36,-70l28,-23l7,-12l38,-30l36,-41l32,-19l20,-33l10,-51l-2,-40l-18,-39l-28,-21l-79,-33l-26,-18l-27,-26l-16,-44l7,-33l17,-32l0,-38l9,-19l3,-30l17,-47l36,-34l16,-27l6,-2l-13,-57l-39,-75l-16,-74l3,-18l17,-51l29,-58l23,-33l6,-1l45,-48l24,-68l4,-37l26,-67l1,-42l-11,-33l-4,-50l-34,-70l-12,-33l-8,-71l10,-32l27,-23l46,-13l31,-21l25,-28l15,-34l-19,-56l4,-6l3,-45l-3,-15l-22,-35l1,-51l-6,-31l-11,-24l-36,-31l-32,4l-16,5l-27,29l-76,21l-55,-20l-38,-29l-14,-27l2,-17l15,-46l33,-42l14,-31l6,-84l-11,-34l-60,-65l-20,-33l-16,-49l-8,-3l-21,-56l-23,-153l-4,-109l-14,-51l-18,-29l-96,-86l-25,-32l-26,-41l-24,-58l-39,-72l3,-20l14,-15l64,-19l62,-34l28,-28l19,-34l7,-47l-12,-71l-13,-22l-10,-7l-36,-12l-62,15l-98,52l-21,6l-24,1l-57,-24l-18,-15l-22,-32l-24,-99l4,-38l3,-11l21,-37l26,-59l7,-54l-1,-56l-8,-83l16,-43l33,-19l87,19l38,-3l62,11l113,-6l102,16l41,-11l52,-40l11,-35l2,-26l-7,-66l-16,-24l-61,-58l-9,-15l1,-57l18,-41l50,-86l18,-84l11,-19l16,-11l23,-5l30,4l39,19l22,-6l20,-24l1,-20l-12,-19l-20,-17l-34,-51l-6,-46l10,-35l15,-21l72,-28l27,-22l16,-31l2,-11l-16,-100l-18,-71l0,-52l-8,-40l-29,-40l-45,-38l-15,-24l14,-29l17,-17l27,-4l41,8l43,14l51,22h20l11,-6l14,-19l5,-17l-26,-72l-28,-59l-48,-50l-34,-60l-12,-77l0,-42l39,-78l19,-16l39,-1l34,30l15,17l42,83l22,58l10,14l13,7l93,12l44,-11l14,5h26l37,5l26,-14l2,-19l-9,-21l-37,-49l-39,-27l-72,-18l-47,-33l-12,-14l-8,-21l2,-20l8,-14l27,-24l30,-15l32,-24l48,-22l29,-21l18,-6l68,-37l22,-7l61,-34l24,-3l51,12l28,-9l81,11l41,1l125,-14l20,4l53,40l22,20l22,8l15,-6l18,-15l39,-61l-1,-121l7,-24l15,-18l36,25l4,21l-7,13l-4,22l4,14l15,12l14,-6l18,7l11,24l51,18l9,13l19,40l3,41l-2,23l33,32l8,35l-6,22l-35,63l0,10l18,23l6,22l12,8l56,14l9,11l-4,13l-39,68l-24,25l-22,28l20,18l-3,11l-13,8l-17,42l7,52l19,27l15,14l28,32l29,11l14,10l73,30l10,12l4,19l-5,10l-24,24l-8,22l5,33l15,16l37,16l24,2l15,6l4,15l-9,15l-21,1l-45,-12h-19l-33,14l-33,8l-10,12l-12,31l-13,14l-1,10l27,42l13,10l27,13l29,10l69,-1l11,6l2,13l16,13l27,26l2,14l-5,15l-5,36l-8,25l-10,14l-20,20l-25,12l-36,4l-19,13l-7,12l-3,22l11,29l28,34l23,15l38,10l27,-3l22,9l8,12l11,46l-1,27l7,16l13,4l32,-5l33,-11l23,-26l16,-7l30,-2l33,11l20,1l19,-9l15,1l14,10l19,32l24,23l8,25l-10,13h-11l-9,11l6,32l-8,24l-14,15l2,25l11,14l7,19l24,31l1,25l-9,18l-13,11l-11,17l-5,31l7,21l38,10l31,19l10,13l-8,30l-13,12l-23,4l-29,-5l-9,-10l-10,-26l-1,-35l-8,-13l-13,-2l-22,13l-5,15l5,29l57,39l11,4l16,18l21,15l25,26l24,3l35,-23l9,-17l8,-43l11,-12l16,-3l23,7l25,26l7,22l-2,24l-36,52l-16,35l0,45l-12,34l2,27l7,12l59,62l27,16l24,23l21,4l13,-4h29l33,6l31,-4l22,6l12,19l0,25l-8,22l-23,25l-39,7l-11,10l7,11l43,40l28,33l34,24l7,8l10,43l2,35l12,27l39,33l29,8l38,1l21,4l28,-2l19,9l15,37l4,31l-6,29l-11,21l-20,19l-11,23l5,17l16,18l29,13l48,-9l8,1l15,22l-11,17l-74,32l0,15l66,51l16,4l26,-4h22l16,-7l19,-25l28,8l11,11l1,32l-16,36l5,20l9,4l37,2l34,-6l15,-9l15,-21l19,-5l22,9l17,23l4,21l-3,28l-6,18l-24,41l-9,23l4,14l41,46l16,6l26,-9l31,-33l30,-25l29,-14l27,5l14,16l2,19l-5,16l-29,29l-34,45l-13,6l-41,1l-5,12l29,25l44,24l45,48l10,9l60,37l33,13l39,10l50,27l40,10l16,16l30,16l12,14l11,30l15,6l33,-28l22,-2l22,6l29,17l36,9l50,8l26,24l32,46l14,59l8,20l17,15l20,10l59,10l23,9l38,4l34,13l47,13l16,8l12,15l7,51l19,15h16l22,-9l18,-15l32,-7h36l33,4l26,18l4,17l-19,29l-16,10l-28,-3l-26,-7l-11,8l1,12l30,23l6,20l9,6l66,9l23,12l48,22l29,4l35,-13l49,-11l21,10l9,20l-1,12l-29,55l-35,19l-42,16l-33,10l-13,13l-1,17l16,27l23,15l14,2l27,-10l12,-7l12,-23l-8,-26l-2,-20l27,-20l5,9l20,-4l8,-21h46l54,14l15,9l9,17l1,19l-10,28l4,14l-4,78l10,7l57,6l36,-6l17,4l12,16l-3,14l7,12l21,6h33l18,7l10,9l11,22l15,8l20,3l35,-4l-12,-4l-46,-28l-21,-8l-20,-24l-12,-29l-18,-27l-22,-26l-18,-43l-5,-22l3,-33l10,-33l-1,-54l-6,-21l-32,-19l-16,-28l-23,-16l-25,-4l-60,5l-31,-7l-18,-9l-15,-20l-6,-19l-1,-22l7,-33l-4,-38l-10,-20l-18,-17l-29,-9l-62,-2l-31,-5l-24,-12l-23,-15l-16,-25l-6,-27l-3,-32l1,-38l-5,-37l-8,-7l-54,-11l-26,-19l-28,-28l-24,-54l-7,-38l0,-33l5,-38l-9,-35l0,-29l4,-23l2,-63l-13,-37l-28,-43l-15,-30l-25,-32l-18,-9l-11,-14l-2,-18l20,-20l15,-6l7,-11l13,-53l6,-17l10,-8l39,2l22,-12l26,-28l-4,-30l23,-55l5,-21l-4,-25l32,-21h15l19,10l10,14l0,13l-19,30l2,15l27,14l15,-6l11,-17l8,12l17,1l25,-27l7,-15l-4,-15l8,-14l21,-9l1,-7l-14,-16l-32,-13l-16,6l-17,14l-21,3l-22,-8l-16,-12l-13,-18l-2,-12l3,-26l-3,-15l-19,-11l-34,-9l-10,-7l-15,-21l-45,-54l-36,-28l-30,-9l-26,-1l-14,6l-10,13l-12,27l-5,27l-16,12l-15,-3l-18,-16l-8,-31l-18,-31l-22,-55l-6,-21l-9,-19l-7,-25l2,-14l8,-7l25,-7l7,-14l-3,-26l-14,-38l0,-18l37,-62l23,-70l-5,-10l-38,-16l-29,-4l-11,-8l-8,-30l-22,-2l-15,15l-25,36l-13,14l-9,2l-8,-16l-4,-64l-15,-37l-8,-4l-36,-4l-3,-6l5,-30l9,-22l14,-25l-6,-17l-11,-9l-41,-24l-27,-6l-15,-19l1,-49l9,-39l32,-6l12,-13l1,-10l-7,-31l-9,-11l-34,-54l-8,-25l-12,-21l2,-11l15,-13l23,-3l6,-19l-23,-10l-22,-4l-17,4l-30,26l-16,26l-27,-1l-13,-11l-9,-27l2,-13l13,-26l-3,-25l-17,-7l-17,6l-9,15l9,26l-4,15l-20,7l-29,1l-9,-3l-6,-14l3,-27l-9,-17l-15,-4l-19,9l-14,19l-1,20l7,19l18,16l10,19l1,12l-15,12l-14,-2l-43,-41l-1,-15l11,-24l3,-32l15,-45l2,-24l27,-8l0,-8l-19,-36l-9,-38l15,-6l-6,-10l-23,9l-16,-5l0,-11l12,-16l24,-3l-9,-15l7,-18l20,-12l34,6l9,-5l6,-18l12,-6l22,-25l22,-11l-36,-27l1,-16l17,-28l-12,-27l2,-10l-11,-15l-1,-17l-9,-10l2,-18l-32,-13l-21,-14l-20,-20l-23,-13l11,-6l1,-11l-26,-15l-16,-15l-11,2l-10,-12l2,-10l18,-5l31,-29l8,-18l24,-15l-31,-20h-14l-13,-17l-30,-25l14,-22l-7,-11l-11,4l-10,-13l-10,1l-8,-28l6,-11h17l11,-8l-19,-28l3,-25l-13,-9l32,-44l2,-8l-21,-19l-4,-13l16,-16l-19,-7l-19,-25l-7,-1l-29,-31l18,-21l-16,-23l-4,-19l10,-41l17,-3l26,-18l-3,-17l6,-27l10,1l-3,-54h-12l-18,-36l10,-21l20,-19l19,27l14,-5l13,-16l-16,-11l-1,-20l15,4l19,-13l4,-38l14,-1l9,15l10,-12l-13,-33l17,-19l14,-4l-5,-20l4,-22l14,-4l7,23l16,9l34,-12l7,-20l-4,-11l10,-15l-7,-11l15,-7l6,27l36,-3l11,-6l9,-17l34,-6l11,4l1,13l23,12l12,-8l15,5l43,-13l6,-10l-15,-19l6,-21l14,2l9,10l25,4l3,-16l34,-14l28,-6l12,5l16,-5l-11,-25l4,-17l11,-3l24,8l44,8l22,-12l12,-20l38,-20l17,6l14,-3l27,-12l1,-8l17,-14l26,4l0,-61l9,-16l-7,-17l0,-19l6,-17l17,-4l14,-23l52,5l19,-11l9,-15l16,9l-9,15l26,-7l7,-40l12,11l16,2l-3,-32l11,-15l1,-18l24,-13l13,13l18,-21h12l2,-14l22,1l10,-29l7,-5l23,24l17,-6l17,-12l-5,-10l36,-11h9l12,-37l15,17l-5,31l43,14l3,-12l30,2l15,-38l16,-9l15,15l11,1l10,12l28,5h16l26,7l44,-5l21,-28l31,-3l14,-17l6,-23l13,-13l21,-15l12,8l17,-7l29,2l18,-6l14,3l2,15l27,-9l11,-14l44,-16l9,17l20,3l16,-9l3,-17l10,-4l35,3l12,-6l21,5l27,-17l6,-22l10,-8l29,-3l10,18l13,-4l17,17l15,10l33,-2l59,-9l12,5l19,-6l20,3l13,20l29,1l26,-17l8,11l22,13l22,-7l1,-15l21,-17l-1,-14l5,-21l12,-10l15,-30l40,-20l8,-1l32,-19l17,7l19,-6l22,-1l29,6l17,-6l28,-22l21,9l8,-24l20,-19l-1,-17l-7,-17l7,-14l18,-22l24,-8l37,-15h9l17,15l27,15l5,7l16,2l9,7l26,-5l7,10l38,21l9,-2l13,-14l28,1l11,9l15,-7l7,-12l24,-5l15,4l20,-1l7,-11l18,-1l12,-16l32,-4l23,-18l9,-14l26,-14l7,-13l22,-26l0,-11l23,-8l13,4l20,15l19,-3l6,12l22,6l12,-7l11,9l0,18l16,6l13,-18l28,-8l12,-7l-4,-25l11,-8l29,-5l17,-20l19,1l13,-13l2,-29l16,-13l10,-1l29,-15l39,-7l12,-11l13,-3l32,-23l9,-2l23,16l35,13l24,6l15,-6l53,-7l8,6l24,-21l19,-5l17,-16l29,3l27,-2l13,-6l20,-17l14,-3l41,-17l9,-11l27,-15l9,-23l-10,-42l6,-9l225,-124l852,-468l358,-197l579,-318l1691,-930l401,-221l715,-393l584,-321l130,113l130,60l16,4l13,12l1,19l9,7l1,17l10,18l-8,21l-4,24l-1,32l6,18l-21,9l-1,8l10,27l-15,13l3,20l-15,8l-2,9l-33,32l0,14l-19,28l-8,28l-6,10l12,24l-18,30l4,14l21,20l13,7l14,45l-8,10l7,51l-18,33l-13,6l-10,20l-3,26l4,43l10,8l14,36l-2,15l6,23l-16,24l2,23l-9,18l6,21l-9,15l-15,16l-1,17l-16,18l-19,2l-4,14l4,13l-7,11l-18,8l5,33l-5,18l20,27l-4,11l7,20l-3,19l20,21l23,17l11,20l13,7l27,33l8,26l12,9l11,22l1,13l-10,12l3,10l-14,11l-3,13l-24,28l7,10l-9,17l-24,3l-19,26l-11,1l-29,10l-1,25l-7,26l18,15l-3,16l11,4l4,18l-8,25l8,24l-6,5l9,15l-5,11l19,41l-6,9l30,11l8,12l13,7l-1,14l13,3l4,19l12,22l7,2l12,34l-1,25l18,21l25,37l-15,8l10,17l-1,8l15,18l28,12l10,37l14,5l29,40l12,4l16,-5l7,6l12,23l33,28l19,31l8,5l19,28l16,4l-2,27l19,12l-6,21l16,12l26,5l18,7l0,16l18,8l18,18l-5,20l13,9l9,30l13,11l0,21l8,9l4,29l7,12l-1,17l9,22l50,29l14,33l21,23l-13,9l17,39l25,31l4,20l19,20l39,15l9,15l-3,18l14,8l-1,16l20,32l-3,13l-37,18l-4,17l6,17l-2,17l-7,15l0,13l11,25l19,19l19,48l17,18l8,20l16,16l0,18l16,24l9,32l11,12l7,17l24,3l14,33l11,5l15,-10l31,2l11,13l-5,15l2,19l-8,13l14,13l4,11l25,14l21,6l8,34l13,5l-14,15l-7,30l9,9l3,14l13,4l13,15l-7,8l15,15l-16,27l2,14l20,35l-1,7l-25,10l-7,25l8,4l-10,17l9,11l8,-17l14,1l4,11l22,11l13,15l17,31l-6,12l10,5l20,-7l34,4l2,8l-6,24l14,11l3,13l-19,17l-18,4l-1,24l39,-7l27,-1l4,25l21,11l-9,28l6,9l23,-9l12,1l18,12l27,-2l14,-12l13,-4l41,7l19,-3l15,4l4,23l18,31l13,8l25,3l19,15l20,9l47,33l-5,28l18,-3l-2,15l19,20l10,31l-5,12l7,10l15,-8l11,24l6,23l17,2l10,12l1,16l39,-1l30,14l19,27l22,3l14,14l14,6l6,32l25,1l-3,14l24,-3l13,9h14l20,27l35,25l15,23l23,12l9,37l22,43l27,-2l20,15l26,-1l11,16l6,32l13,8l12,45l11,9l1,11l14,9l-7,13l12,9l-9,15l28,16l38,9l17,8l9,20l15,7l6,29h28l21,23l20,7l22,-7l131,-453l29,-3l19,4l24,1l13,-8l19,-4l18,-25l37,-19l8,-23l27,-8l5,-6l28,-10l18,-11l19,9l10,-4l35,3l19,-11l7,10h22l15,6l18,-3l8,-13l-40,-7l-9,-16l-18,-5l2,-19l-6,-6l-15,-29l9,-13l10,-2l14,-19l-2,-23l-10,-9l-13,-1l-10,-9l6,-18l-6,-9l8,-10l-4,-33l-22,-2l1,-9l-17,-22h-21l-1,-14l-26,-4l-16,-11l2,-14l-18,-9l-1,-23l6,-19l26,-1l14,-8l-6,-16l-27,-10l-23,-4l-12,-7l-4,-18l7,-10l-8,-9l13,-14h25l4,-13l20,-9l10,-18l15,-12l-12,-24l7,-22l13,-11l2,-13l11,-9l22,2l7,15l13,3l8,-11l22,-13l21,7l27,-4l9,-10l16,2l17,-17l25,-7l31,-3l22,16l25,-16l5,-10l-8,-18l18,-18l28,4l1,13l57,36l-1,22l23,21l16,-14l27,27l16,1l4,-11l17,-16l14,-5l6,8h22l25,-12l17,-3l7,-10l-12,-24l11,-17l64,-13l12,2l30,-19l13,-19l8,-23l3,-24l8,-13l-4,-11l18,-8l7,-24l-3,-14l4,-17l14,-13l-5,-12l13,-16l14,4l28,-7l6,-8l23,-6l31,-20l17,-30l26,-19h12l22,-24l20,-11l25,-1l19,-16l6,-24l19,-14l11,-20l-5,-35l191,278l518,756l249,364l95,138l25,-9l-4,-11l28,-11l15,21l14,-12l-10,-24l7,-11l16,4l21,-4l7,13l4,23l6,9l35,-8l15,-9l3,-9h13l0,-18l39,-2l3,-23l9,-3l0,-18l-11,-14l-2,-13l14,-26l2,-28l-5,-12l6,-25l13,-15l4,-15l13,-2l-3,-16l6,-8l-4,-31l-9,-4l3,-30l-21,-14l24,-22l3,-16l16,7l11,-13l19,4l11,-8l10,11l10,-10l8,6l24,-7l1,19l17,-6l13,-17l15,-2l23,-11l38,15l4,-11l16,-6l-6,-13l-1,-24l10,4l15,-14l0,-28l38,-19l7,-17l17,-26l-6,-20l-29,-4l2,-20h14l6,-10l41,-14l22,-1l-1,-15l12,-22l18,-12l38,-14l-9,-11l9,-9l-3,-10l18,-3l12,-9l5,13l21,-3l4,-11l16,-9l-4,-7l7,-18l17,-14l-12,-11l10,-7l15,9l20,-15l2,15l11,13l11,-22l17,6l16,-5l32,-48l15,10l10,-1l17,-18l10,-18l3,-17l17,-13l6,-24l18,-16l7,9l15,-3l4,-26l17,-1l4,-14l22,-11l-8,-23l12,-3l16,-14l20,-10l11,5l20,-12l-9,-16l27,-24l26,-17l31,-43l14,-1l14,15l30,-15l29,-19l15,-14l5,-23l-7,-16l28,-28l2,-12l-14,-16l6,-8l-1,-17l7,-29l-13,-12l4,-19l-14,-1l-7,-26l-20,-27l17,-9l3,-33l10,-30l-1,-22l16,6l12,-8l-4,-19l9,-25l20,-10l5,-20l-5,-15l-11,-13l1,-30l-11,-20l-12,-1l3,-15l-4,-32l15,-2l2,-12l-6,-14l7,-7l-17,-17l18,-17l3,-33l17,-20l-7,-15h17l29,-23l11,-1l8,-16l-7,-13l10,-10l21,-13l6,-19l29,-11l-4,-9l13,-19h20l5,12l15,2l6,10l14,-8l17,-24l36,-6l6,25l29,8l2,13l20,9l7,-5l29,5l21,14l25,-6l-6,-18l10,-9l4,-24l38,-5l14,3l7,14l-11,5l7,25l-4,17l9,20l14,4l33,-16l20,6l22,15l22,-16l15,1l30,-13l-5,-13l22,-20l9,-17l-12,-6l5,-11l14,2l12,12l25,7l8,-32l13,-7l31,2l16,-15l-3,-9l-22,-13l20,-22l5,-19l23,-5l10,9l24,10l30,2l15,-15l11,7l14,-8l15,-16l9,9l10,-10l0,-22l22,-13l-3,-23l17,-6l-1,-27l-13,-27l16,-19l-12,-22l11,-43l5,-29l16,-6l8,-15l21,-5l6,-31l1,-22l15,-20l-9,-13l14,-10l9,-23h15l21,-12l39,7l45,-35l-3,-11l7,-10l29,-17l16,4l17,-10l21,14l9,-4l33,7l22,-11l-9,-15l1,-16l16,-13l0,-15l-11,-16l16,-28l-13,-14l4,-16l-5,-19l-7,-3l2,-17l-12,-9l18,-16l32,21l24,-24l-22,-7l-9,-14l4,-16l12,-10l11,1l6,-24l-15,-10l-2,-12l16,-2l15,-17l5,9l21,-24l-9,-27l8,-22l13,3l15,-15l-18,-14l-30,-13l-13,-22l0,-20l-12,-8l-3,-13l17,1l6,12l19,-4l10,6l-1,17l19,2l7,-11l16,-8l19,6l12,-15l-9,-9l3,-13l14,-5l-6,-19l13,-6l15,-32l-17,-17l7,-15l30,-4l-5,-37l17,-8l11,-17l-8,-8l-8,-20l-37,-1l-6,-17l0,-20l11,-20l-4,-15l0,-27l-5,-4l4,-28l-9,-11l-27,-4l-19,-11l-7,-10h-14l3,-43l-20,-7l0,-19l-23,3l-18,-7l-7,11l-14,-7l-3,-16l16,-2l7,-16l33,-14l-11,-22l38,-3l12,-14l10,14l14,-1l7,-18l-11,-36l-15,-3l-4,-12l13,-24l26,-8l26,-3l-2,-13l18,-4l1,-20l16,-8l-5,-14l-19,2l3,-37l-31,-8l4,-18l17,1l17,-16l-12,-30l6,-15l15,6l9,-16l-8,-10l3,-11l-26,-14l3,-10l17,-4l8,-18l0,-14l-10,-12l-10,-43l-7,-4l3,-30l6,-23l-29,-7l-12,-27l2,-14l13,-29l4,-25l-14,-54l-8,-7l-7,-40l-14,8l-17,-12l-9,-24l-16,-4l-6,15l-26,-34l1,-23l-11,-11l-21,-7l-36,-24l11,-10l13,-37l-2,-14l7,-19l12,-8l5,-13l15,-6l16,-22h36l4,-16l-4,-16l-16,-12l-12,2l1,-21l23,-40l-1,-21l-44,-49l5,-19l-5,-14l14,-26l-19,-22l-13,-42l-20,-4l-1,-22l-25,-42l1,-61l15,-38l-1,-13l4,-17l15,-8l12,-16l49,-34l31,-45l6,-40l13,-31l0,-19l10,-4l5,29l15,11l15,18l8,15l25,52l23,1l16,8l15,17l12,26l8,7h20l26,-17l19,-21l14,-1l54,9l29,18l6,20l0,37l3,29l-6,45l-7,103l-16,24l-16,10l-7,43l9,26l15,32l17,27l-1,51l-9,32l0,14l8,14l0,46l-7,29l-3,28l12,46l17,39l18,8l6,11l-2,22l-31,15l-9,10l11,37l1,14l-8,38l-2,80l8,37l-4,25l6,14l15,8l15,28l44,36l26,13l36,10l31,-3l60,13l9,17l0,41l53,105l-12,20l-1,18l4,21l13,10l22,11l15,12l2,13l-15,22l21,99l5,43l11,15l3,13l-20,27l0,16l6,20l27,9l27,2l40,-7l27,-21l17,-7l19,1l17,33l19,19l48,2l43,-41l42,-2l22,-41l4,-35l5,-10l15,-3l13,-21l10,13l18,38l14,42l-11,32l29,-1l10,5l22,-42l9,-24l1,-24l-4,-18l5,-29l0,-22l14,-35l-4,-8l2,-21l-9,-22l-20,4l-11,-29l0,-23l17,-16l-5,-29l-21,-21l-10,-16l-23,-12l-3,-31l10,-21l17,-21l-1,-17l-6,-12l2,-23l-12,-10l-4,-13l-15,-11l6,-15l-1,-13l10,-14l28,-14l-5,-13l20,-20l-16,-17l21,-12l-7,-9l-5,-19l12,-10l0,-30l-28,-23l-10,-24l5,-12l2,-27l6,-12l22,-7l-8,-27l-20,-36l-12,-7l16,-12l-10,-37l8,-10h19l24,4l6,-20l14,-23l5,-15l-8,-9l13,-16l12,2l10,-12l42,2l5,-13l34,-18l2,-10l-17,-7l-14,2l-1,-13l13,-13l-23,-50l-3,-10l32,-14l15,-2l6,-11l-15,-13l-6,13l-21,-4l-16,-12l2,-19l11,-18l4,-15l-9,-19l21,-7l-2,-12l-16,-21l-10,-20l18,-16l-3,-32l18,-7l27,-19l21,-5l13,5l36,-5l30,-9l-12,-12l4,-9l34,-6l5,-13l-2,-15l10,-27l31,11l13,13l7,-8l17,3l2,22l-16,7l-7,35l20,2l15,10l-2,17l15,3l15,21l-15,36l17,11l8,27h47l40,-14l32,5l1,-20l12,-10l6,22l17,17l14,-7l24,29l21,4l6,14l29,-12l18,7l3,-31l15,2l23,16l13,-3l15,12l29,8l28,-9l-8,24l7,21l-2,16l15,12l19,-11l3,-17l20,-24l5,19l19,16l3,11l19,17l5,35l16,14l5,-10l28,-10l11,16l3,15l18,21l23,31l27,3l18,10l14,-5l8,6l-10,27l20,15l26,2l36,6l9,-6l23,7l30,-5l11,-21l-7,-21l19,-1l6,-15l11,-10l36,8l3,11l19,-5l6,38l-24,15l-4,14l-18,-1l6,18l17,26l13,5l-6,28l-8,20l5,20l38,-10l9,17l19,3l11,-4l4,-24l23,-14l10,1l22,17l11,-9l29,-9l26,18h9l14,-11l7,5l-1,21l7,7l12,-16l-4,-31l15,-22l12,7l43,-2l4,-23l14,5l5,15l14,7l0,23l-17,5l-25,-7l-5,14l16,4l17,11l-3,10l-15,11l12,12l24,-2l30,18l4,9l19,1l24,24l9,-1l16,13l32,4l12,22l-17,23l5,6l23,4l1,-17l15,7l-4,33l-10,-10l-6,17l12,19l-4,8l9,34l5,7l24,3l13,-17l9,22l21,26l18,14l33,-4l-3,-17l-10,-11l-4,-19l-17,-16l2,-11l16,-2l0,13l24,6l14,11l19,-2l8,10l34,9l4,-23l7,-8l17,3l2,20l20,1l9,28l-7,33l30,-4l4,12l18,6l28,2l19,-10l29,6l-3,25l13,6l11,13l14,-6l15,1l17,36l6,22l-27,13l3,16l26,8l12,22l28,5l-9,12l24,16l-3,9l20,7l0,15l14,9l13,26l2,14l21,11l-6,-27l15,-11l28,-7l9,-10l20,-1l-5,16l6,14h17l54,12l15,-13l18,-8l-4,-19l6,-7l18,10l17,-1l27,18l9,-15l20,12l7,-5l32,-4l13,7l19,-1l10,-6l24,2l-11,14l-3,16l7,4l-6,29l-15,22l-3,18l7,11l31,1l35,11l22,12l11,14l-8,11l-29,8l-4,12l35,13l4,-10l17,-10l15,-3l12,13l14,24l23,5l23,16l4,9l18,9l17,-5l-4,-12l2,-21l18,-14l12,-17l41,-32l18,35l15,-1l3,-27l65,9l20,8l2,12l14,4l15,13l21,7l38,-3l3,10l3,66l11,41l20,26l5,14l4,42l-1,32l-7,55l8,35l17,42l17,26l29,26l41,52l10,22l2,25l-11,28l-38,37l-30,28l-28,30l-22,37l-9,28l-10,100l-9,22l-22,25l-23,19l-24,27l-17,42l0,46l11,72l49,91l4,106l-5,41l-22,49l-7,62l-2,64l10,45l15,26l27,16l15,14l12,22l8,21l4,40l-14,43l-32,71l-13,18l-23,42l-44,41l-41,26l-37,16l-25,16l-9,10l-41,60l-9,22l1,15l-23,77l-31,68l-13,24l-42,91l-22,32l-21,24l-26,51l-16,41l-9,61l5,99l-3,15l-2,75l-15,63l-24,22l-53,112l-90,142l-129,103l-11,13l-84,94l-56,119l-18,37l-9,38l-18,31l-6,19l-2,89l-11,40l7,30l39,99l38,57l25,45l55,67l14,31l-2,84l-8,25l-15,16l-31,11l-43,12l-57,23l-29,8l-33,2l-19,-3l-26,-13l-40,-33l-32,-16l-33,-4l-29,7l-31,21l-15,20l-10,19l-10,33l-3,56l4,25l24,40l15,21l19,15l56,17l26,14l23,19l95,116l26,77l14,62l5,46l0,27l-6,22l-27,32l-24,6l-8,-9l-3,-58l-16,-14l-71,6l-72,-6l-43,12l-38,7l-59,14l-61,27l-26,21l-17,25l-15,46l-10,41l-11,23l-6,28l0,27l9,31l17,29l41,34l27,29l26,46l16,17l26,17l24,24l13,34l9,38l2,30l-7,58l-10,52l-16,53l-16,31l0,33l6,30l25,21l25,8l33,-1l83,-12l25,5l26,16l10,15l-4,20l-33,29l-119,64l-110,93l-100,70l-47,45l-6,21l11,10l33,11l147,42l129,30l114,10l78,46l75,42l21,9l40,75l4,59l-1,62l-15,53l-37,67l-13,46l4,45l8,19l26,30l94,41l85,33l34,25l25,59l3,55l-14,64l-33,36l-58,7l-120,-3l-76,10l-65,5l-42,8h-47l-66,-8l-33,2l-12,35l-13,58l-1,36l11,69l28,71l42,55l26,25l42,59l158,146l46,82l14,71l-30,103l-21,49l-16,21l-29,22l-30,17l-46,22l-33,25l-37,44l-21,39l-17,78l-6,42l1,47l3,52l17,71l6,57l1,31l-6,36l-12,31l-24,24l-56,34l-107,77l-154,119l-53,61l-65,43l-83,53l-27,19l167,171l29,22l37,37l16,24l8,40l1,22l9,46l24,31l9,23l8,51l-52,60l-16,6l0,38l15,48l40,1l24,9l34,-7l22,-17l15,-2l8,5l19,25l13,9l4,21l10,15l1,22l13,31l5,19l18,18l1,15l12,23l4,27l-18,35l-3,15l11,20l2,12l15,14l2,16l18,27l18,7l14,-5l7,-19l24,-18l32,7l16,13l18,3l15,10l31,1l12,-8l28,18l4,11l24,17l3,9l19,11l17,5l14,13l19,1l26,11l30,20l33,18l9,-88l18,4l11,-4l29,-3l23,3l11,-7l14,-19l22,-22l13,2l23,-11l14,1l29,-11l14,-15l12,-30l-3,-16l17,-28l25,4l33,-2l17,5l23,-12l19,6l14,-3l31,5l14,-7l11,13l15,6l20,-3l7,-9l26,-14l-12,-14l-3,-15l8,-11l-3,-26l8,-14l18,-12l7,-16l2,-18l7,-14l21,1l11,-4l22,-19l-1,-27l-6,-13l18,-28l11,4l3,12l16,8l-7,13l8,13l20,9l-2,9l19,19l22,16l5,37l-7,7l-3,50l-10,2l-25,19l-11,18l9,23l-10,21l19,31l0,12l20,29l13,7l5,18l7,5l-13,31l-3,14l-10,9l-6,21l9,8l7,22l15,6l1,14l11,18l22,16l18,-8l7,19l22,19l15,-6h17l28,12l5,14l16,3l0,20l25,13l1,11l31,6l10,14l11,3l9,23l-1,11l9,34l48,-7l17,3l29,-9l15,-16l10,-34l6,-13l-5,-14l1,-18l-6,-10l3,-20l-14,-28l5,-11l135,207l-18,12l-34,13l-21,19l0,20l-19,24l-18,12l-10,19l-19,11l-42,10l-13,9l-8,12l-2,24l-12,22l3,16l25,20l-1,11l9,18l11,4l10,28l-1,37l4,39l10,13l-1,12l-10,8l8,20l-15,17l-12,-2l-21,5l-27,16l-12,2l-12,12l-20,12l-25,29l-46,26l-13,12l-36,7l-70,42l-13,4l-9,25l25,4l14,15l-9,15l-12,7l-12,-2l-2,-15l-15,1l-12,22l-15,-5l-37,3l-12,5l-11,-23l-12,5l-10,17l8,9l-9,22l11,7l-1,10l13,8l-7,20l-31,7l-24,23l-9,3l-11,21l-12,9h-18l-12,12l-21,6l-13,-9l-7,-19l-23,-34l-12,-12l-16,-5l3,-17l-12,-14l-1,-20l11,-25l-20,-23l-15,-5l-21,1l-11,24l-16,-4l-23,-15l-50,22l0,27l-13,8l-24,26l-19,-3l0,-18l-23,-16l-25,25l-7,12l-31,-7l-17,11l-16,-1l-7,25l-12,15l19,15l-8,6l-18,-3l-14,15l6,10l13,4l-18,22l10,20l-4,18l22,6l0,13l18,22l16,27l11,9l4,24l-3,28l-9,4l-5,15l-9,3l-7,29l8,10l-17,7l-5,9l-16,1l-20,33l-36,16l3,19l17,-1l-8,23l9,9l-2,13l10,15l3,23l18,-5l15,13l-22,19l-9,17l-16,-1l-28,12l-2,18l-9,13l-18,11l-27,1l3,13l-20,27l-72,30l-39,3l-34,25l-5,10l-21,14l-36,10l-25,11l-16,20l-24,-2l-9,9l5,9l-47,6l-28,39l-17,17l-51,22l-9,14l-20,12l-9,18l-13,6l-2,14l-9,4l-20,-8l-8,20l-11,6l2,17l-12,7l5,17l-5,10l-13,2l-9,17l-24,-14l-29,2l1,-16l-14,-9l-8,10l-17,-10l-15,30l-17,9l5,15l-39,-10l0,13l-31,10l-5,21l-16,-2l-7,12h20l0,27l4,13l-18,6l12,11l-8,8l-17,4l-11,10l-18,2l-11,23l-30,2l-8,-8l-17,7l-13,-15h-13l-7,12l-19,5l9,11l-35,17l0,8l-24,19l-24,36l-19,12l-1,12l12,8l-6,9l-24,6l-5,-7l-16,15l-31,14l11,17l-19,7l-1,7l-21,8l1,11l24,6l1,14l-12,9l7,10l-7,13l-24,-7l-6,19l-25,8l40,22l-19,2l3,17l16,11l-17,11l6,11l-12,13l-5,22l14,-1l-15,24l6,5l16,-9l3,10l-20,18l-10,13l-29,17l-16,19l0,19l-19,22l12,19l-3,27l12,4l2,22l6,10l-7,15l-9,39l-10,5l8,19l15,9l-14,14l17,10l13,15l-3,16l17,8l1,15l12,11l11,22l17,13l4,-15l18,14l5,16l-41,25l9,5l-14,19l-17,10l-4,19l-13,18l-25,-7l-50,16l-17,-5l-16,-9l-31,2l12,13l-9,16l-18,10l-6,10l-14,7l2,24l-6,16l5,19l14,7l-3,15l17,-5l7,10l-23,49l-14,16l9,9l-9,22l-18,18l1,8l-23,2l13,30l-2,32l10,10l-5,33l0,40l4,17l-10,5l2,21l12,3l-11,33l-22,20l-21,40l12,20l-10,22l-21,11l1,-17l-18,12l-1,10l-18,23l2,21l-9,20l2,25l-8,13l5,14l-23,32l-16,11l5,21l-7,14l8,12l-11,29l2,34l-7,15l15,26l-5,15l1,22l15,26l15,17l-24,36l9,9l-9,17l7,4l12,53l13,-5l1,29l5,6l-4,23l8,9l-15,39l-25,29l-1,12l8,7l6,16l1,25l-10,45l-13,7l-18,15l-25,9l-10,13l16,16l0,18l8,16l15,6l10,11l-17,6l8,22l-1,11l15,8l0,12l-11,12l4,26l15,15l-18,9l19,14l-7,17l14,10l9,14l-2,15l-12,45l9,16l1,21l-8,14l12,5l11,16l-17,17l-15,-7l-7,18l-28,15l5,31l-7,18l-10,10l13,20l-4,23l-12,7l9,26l-1,23l-13,18l18,20l-27,-5l-3,13l-15,-6l1,30l-20,9l-21,-2l-14,7l-22,-12l-12,5l2,26l-10,16l-2,11l-20,15l-35,-14l-14,-11l-5,13l-18,-11l-19,34l-19,21l0,9l14,17l1,25l15,13l4,12l-3,17l19,5l6,8l-32,26l8,15l-14,10l-1,9l-15,8l-10,12l0,21l-12,-5l-3,18l7,41l-1,22l-7,19l24,21l-12,18l-16,-1l-4,15l-12,9l-17,2l-2,14l16,7l-4,12l-15,10l-10,-3l-6,-13l-13,-3l-21,-12l-12,4l-7,16l-30,7l-9,12l-11,32l13,15l9,-1l0,18l-10,36l-11,-1l-13,14l-11,-8l-17,3l1,15l-11,25l-21,11l-27,10l1,15l-23,20l-18,12l-5,-10l-21,-8l-14,17l-1,9l-14,14l1,14l-14,18l-2,18l-8,9l0,15l11,21l1,25l-8,12l4,18l-9,5l-11,-8l-11,28l-11,5l6,17l-20,28l-21,9l10,15l1,23l-18,17l-11,2l12,27l-14,18l6,6l-23,23l-26,-1l-3,15l6,17l-10,8l17,21l0,29l-16,20l27,13l3,15l11,-2l9,19l-11,18l27,29l-24,16l-1,29l-8,4l-2,31l15,5l4,20l-32,27l-16,6l3,11l-19,19l-14,3l-4,9h-16l-12,8l3,13l-5,36l-10,21l-19,11l-2,14l-19,3l0,18l-7,12l23,2l7,15l17,8l35,52l-3,25l5,28l15,13l-6,10l14,8l11,13l11,-2l2,18l9,14l-12,12l-14,51l4,8l-23,36l-14,15l8,11l-4,18l33,31l-14,11l13,8l-16,31l11,22l-21,33l0,14l-13,3l-30,21l-21,5l0,15l-16,-5l-9,13l-18,6l1,15l-8,10l12,19l-14,23l-13,13l-5,16l-14,18l3,13l10,10l6,15l-3,19l-12,12l6,7l-9,20l10,4l7,29l-15,-3l-3,13l-10,9l5,14l13,16l14,5l0,16l-11,7l21,25l6,16l-5,21l15,18l7,38l-12,5l3,15l10,5l3,16l9,3l3,14l-7,14l19,12l5,12l17,-1l0,20l-18,14l-33,-16l3,-20l-10,-2l-23,46l6,7l44,93l41,70l46,102l27,89l23,95l8,47l4,54l6,60l24,114l36,115l6,28l2,43l-6,33l-18,50l-11,28l-29,47l-12,26l-28,42l-33,41l-74,77l-88,72l-72,91l-8,13l-32,84l-19,40l-42,75l-85,191l-57,112l-46,97l-34,121l-7,80l9,86l-4,52l-20,31l-23,21l-52,54l-14,23l-41,75l-16,26l-20,50l-9,101l-7,102l-4,37l-11,31l-16,29l-28,36l-42,50l-18,31l-9,24l-20,82l-19,55l-8,32l-5,47l5,53l10,40l18,40l26,43l36,39l43,31l41,34l70,51l35,30l27,43l22,58l27,80l18,47l22,82l21,53l32,43l36,29l72,29l34,11l230,107l125,57l52,27l20,14l37,25l69,65l45,62l57,89l116,136l58,81l34,64l54,126l36,93l35,69l33,71l32,97l-5,73l-6,50l-8,47l5,68l15,87l4,204l0,89l-13,50l-38,37l-49,24l-48,24l-38,32l-26,-19l-59,-34l-24,-18l-5,-10l-19,7l-16,-1l-9,-10l-30,-1l-14,-5l-21,3l-18,-6l-8,-10l-38,-22l-11,10l-22,7l-27,-4l-19,3l-17,-20l-17,-8l-7,-12l-28,-18l-14,-1l-27,-21l-3,-22l-15,-22l-12,-1l-20,-15l-3,-16l-14,-30l-37,-17l-11,-2l-31,4l-9,-6l-24,3l-18,11l-16,-7l-36,2l-17,-6l-34,10l-3,21l-35,-7l-1,-19l-21,-3l-19,-7l-6,10l-27,-3l-22,-14l-5,-9l-17,-5l-30,-27l5,-21l-1,-11l-26,-19h-18l-29,-12l-64,4l-9,6h-24l-26,-19l-19,-5l-39,5l-14,-3l-29,5l-13,-10l-24,-6l-22,-28l-9,-32l0,-31l9,-32l43,-27l17,-13l35,-2l35,-31l4,-14l-7,-64l-13,-43l-29,-18l-36,-11l-41,9l-10,-4l-5,-32l9,-27l7,-36l16,-37l-1,-48l-10,-12l-9,-49l-18,-24l-27,-4l-55,5l-28,8l-13,10h-16l-17,-9l-21,5l-25,16l-19,-1l-54,-15l-18,-20l-7,-2l-32,-38l-16,-41l2,-23l16,-32l-10,-6l-47,9l-27,22l-26,11h-13l-5,27l31,32l24,12l22,14l18,19l14,24l2,22l-3,25l-19,31l-47,19l-45,9l-22,2l-52,-3l-27,-11l-32,-7l-68,-72l-13,-41l-29,-39l-48,-35l-23,-26l-59,-27l-47,-4l-8,4l-15,19l0,14l10,21l9,27l1,39l-15,55l-10,17l-40,36l-14,27l-6,24l4,37l-1,23l-8,32l-11,3l-17,-6l-12,-11l-15,-39l-21,-4l-38,1l-17,5l-49,23l-62,-9h-21l-28,7l-66,5l-43,-21l-26,-3l-27,7l-21,20l-22,14l-35,36l-17,28l-3,12l-37,52l-22,20l-47,26l-22,3l-21,9l-38,26l-8,16l-2,20l-12,20l-33,41l-14,7l-18,-2l-46,-18l-23,-17l-23,-10l-22,-19l-28,-10l-28,-7l-56,-2l-13,4l-24,16l-43,43l-27,18l-25,-2l-89,-34l-25,-5l-20,3l-22,18l-13,23l-10,29l-22,14l-21,7l-36,26l10,13l12,39l41,15l1,20l17,14l5,13l-2,13l14,37l4,33l-5,18l6,16l16,20l17,6l16,19l2,22l-1,28l-4,10l4,44l12,22l2,23l15,25l7,-2l18,14l0,34l-9,-3l-16,23l6,22l-12,26l-20,8l0,20l-5,18l4,48l-14,28l0,24l3,10l-1,25l-6,10l5,24l-3,15l5,8l3,31l-11,16l2,11l-13,22l-15,10l-8,23l1,23l-14,23l-18,8l-12,18l-16,18l-28,8l-27,32l-1,35l2,22l-17,15l5,9l-14,14l0,12l8,18l3,26l-4,19l-49,28l-14,23l-29,19l-23,9l0,13l-15,12l-3,14l-11,14l10,35l-13,9l7,37l-14,38l-14,13l-2,16l-19,8l-10,-3l-11,8l-8,-8l-17,17h-25l-18,19l-7,17l-15,4l-3,16l-18,7l-10,10l-13,2l-6,30l5,29l14,18h11l19,14l-10,17l2,16l-7,11l-18,10l2,43l10,17l-3,31l12,20l33,3l11,28l0,23l5,18l8,8l22,4l38,17l-3,24l-16,16l5,29l-32,10l-28,21l-31,15l-3,10l-14,12l10,35l-5,36l-19,21l6,52l-11,20l12,21l0,11l-10,11l-3,13l-24,13l13,8l16,33l11,9l10,-5l16,8l3,13l16,9l25,25l-5,10l37,16l6,8h16l25,15l16,28l-8,6l15,21l-14,16l-5,34l-9,14l0,17l-27,16l-8,13l7,15l-5,12l12,15l0,17l12,8l-3,9l11,20l12,5l12,17l-5,13l13,18l5,15l-4,13l7,15l-11,19l1,11l-8,27l20,41l12,6l-1,37l-9,12l8,13l-6,16l-4,30l9,18l27,23l-19,19l-1,22l-13,31l-10,6l-1,17l-7,20l-25,26l10,16l-2,11l14,8l18,-9l20,8l18,12l13,2l6,10l15,6l14,23l18,2l14,12l18,-18l14,-19l27,-13l21,14l18,29l10,9l27,1l9,9l-8,13l1,20l11,7l31,6l17,-7l4,-20l28,2l13,6l30,26l-6,48l17,11l6,16l11,11l15,50l23,26l29,44l-15,8l5,25l7,20l-14,15l-1,14l-14,10l-35,14l-9,24l7,11l19,8l22,1l18,30l4,14l-4,15l5,10l23,-9l18,17l32,10l10,-16l19,-10l32,14l1,18l56,17l26,19l20,-3l24,1l15,-12l46,8l7,10l38,-4l30,4l26,8l48,34l2,19l30,4l13,13l4,17l-6,17l-7,5l-5,28l13,10l24,-1l27,-19l7,-8h14l30,17l-3,51l-12,18l-6,53l2,12l19,23l4,-6l-6,-18l10,-28l14,-2l5,15l28,7l33,29l24,2l26,34l17,3l-1,29l57,-7l14,-35l10,24l6,5l40,1l33,16l41,14l2,19l-18,5l5,32l6,18l30,35l-14,28l13,16l8,-2l1,-19l20,-11l29,16l33,32l12,41l14,6l23,-18l12,12l16,-1l17,5l28,-15l16,22l63,20l26,15l31,34l7,17l-2,22l4,27l-15,4l-16,17l2,10l35,38l20,11l9,-2l3,-21l23,-17l30,-25l10,-1l18,18l26,-7l30,2l17,20l24,15l18,20l14,5l10,20l30,10l-6,15l-9,5l-39,-9l-13,3l9,15l-10,12l-3,13l4,20l-14,29l-33,55l9,14l11,30l0,22l41,33l12,16l6,36l-1,14l-9,15l0,10l-12,9l-36,12l-28,-2l-20,12l-21,26l-12,1l-33,16l-10,8l-5,14l-16,14l-16,-1l-7,23l0,25l-24,4l-15,27l-11,43l2,22l-5,17l-12,12l-30,2l-17,8h-28l-23,11h-16l-14,6l-10,45l-5,32l-10,21l-14,16l-22,-6l-15,-32l-27,2l-23,-3l-19,5l-21,10l-26,-7l-15,-10l-27,6l-17,11l-9,27l-14,15l-36,8l-5,17l-9,11l-9,24l-35,18l-10,16l-19,17l-1,10l-13,16l-5,35l-20,6l-6,6l-29,-6l-14,11l-17,-7l-26,5l-6,22l12,27l15,13l0,21l15,35l-3,20l-19,27l3,35l-16,26l6,34l-13,16l-20,7l-42,30l-11,18l84,447l1,19l39,27l9,8l10,40l10,16l-4,22l8,12l-2,16l13,26l11,7l18,34l34,13l4,19l-3,16l11,11l1,29l8,29l9,8l10,21l1,18l11,11l13,28l3,15l-6,41l-20,10l-10,12l9,9l6,35l30,-8l7,8l17,5l1,15l16,11l8,19l10,-7l19,2l14,-12l18,26l21,14l1,23l8,6l24,-7l-4,-9l9,-11l21,-13l12,-1l25,8h26l9,7l22,-6l22,10l10,18l5,52l-8,10l3,20l16,9l26,-6l10,-9l21,-4l14,-33h11l13,-11l24,7l2,36l7,9l4,20l11,11l5,29l6,7l38,28l17,8l9,-4l14,-23l32,-5l18,4l8,-6l12,20h10l5,15l21,-5l12,2l23,-9l6,18l-9,20l2,11l-5,20l5,10l2,24l-9,18l12,18l20,5l21,13l-16,18l1,16l13,6l24,-21l26,2l-1,7l20,10l9,18l13,2l19,28l4,49l16,10l13,15l12,2l10,10l-7,22l10,32l16,-9l33,-9l12,8l12,-6l6,-18l26,-38l12,-15l21,-11l-5,-12l34,-34l12,3l27,-4l17,-11l43,7l13,7l65,14l22,12l14,11l27,-2l41,-19l50,-10l29,6l12,14l7,27l10,10l22,-8l23,-42l23,-28l30,-21l31,-13l15,1l28,35l28,2l30,-4l17,25l4,41l15,15l45,11l38,22l19,7l34,5l45,-6l25,-16l16,-6l34,-3l32,-15l14,1l22,16l5,54l6,16l10,11l22,11l49,29l16,6l26,-3l21,-15l7,-1l82,23l13,-2l23,-29l35,-19l13,-11l25,-5l38,4l13,-5l21,-27l12,-9l35,-14l16,-12l15,-17l30,-40l67,-71l39,-38l50,-35l26,-11l49,-10l43,-2l231,-2l49,31l78,26l72,29l66,38l16,31l7,40l0,55l-15,68l-16,80l-22,88l-16,52l-127,298l-14,19l-26,28l-33,26l-51,51l-63,99l-23,75l-2,88l27,82l25,75l40,81l54,70l48,31l55,30l62,61l16,24l14,13l23,54l1,45l28,227l1,72l-15,126l-9,52l-18,42l-25,37l-64,55l-74,68l-44,39l-35,23l-151,89l-30,83l-11,46l-1,25l7,39l35,150l21,23l54,40l35,23l21,27l7,39l0,64l6,98l0,33l-18,53l-22,32l-3,20l2,24l5,12l-3,27l1,34l-2,37l-9,31l-15,35l-6,24l-2,37l-15,48l-13,24l-13,32l-31,18l-29,10l-27,16l-29,27l-26,52l-8,25l-42,63l-43,54l-33,51l-28,52l-17,44l-13,51l-5,47l-2,61l3,27l15,56l32,89l30,61l62,107l51,95l32,71l22,87l23,86l19,76l13,109l16,70l9,64l3,45l6,50l1,59l7,67l1,54l-2,74l-9,70l-5,47l0,69l1,60l-24,92l-25,91l-3,21l4,29l5,22l36,70l22,25l42,89l50,85l9,34l22,71l4,35l-2,54l-13,71l1,27l-22,68l-33,59l-18,35l-12,43l-1,96l7,55l4,15l5,17l18,44l32,67l15,48l10,44l19,57l46,187l31,70l26,51l22,55l25,85l32,117l19,67l25,52l13,20l55,68l57,84l19,31l16,37l13,40l8,52l4,54l-7,83l3,37l13,38l41,90l31,58l29,49l59,81l48,74l73,102l20,43l22,53l8,41l7,25l36,69l21,21l25,20l72,78l78,79l51,54l14,20l15,34l53,87l21,24l67,87l21,29l25,26l88,95l26,19l72,48l43,31l36,29l44,50l63,59l19,25l21,36l44,99l3,53l7,43l10,39l14,34l18,78l6,42l-2,26l5,42l-19,12l-3,14l3,22l7,17l-6,34l-1,35l3,28l21,73l5,27l7,40l17,54l14,56l15,91l6,26l3,35l0,40l-5,74l1,23l9,76l6,37l8,27l12,26l25,40l47,91l15,39l14,25l24,51l32,79l23,37l25,54l29,42l18,32l19,45l31,61l31,41l34,28l21,11l12,11l37,46l26,36l10,18l15,42l26,65l21,41l11,29l16,60l7,44l5,52l1,37l-2,107l-3,33l-12,33l-19,36l-18,27l-42,52l-1,7l-19,29l-41,49l-2,6l-13,28l-8,61l4,144l4,34l10,50l5,74l3,25l22,80l16,118l1,51l-17,181l-32,104l-16,69l-2,38l-20,102l-34,252l-3,95l1,46l15,86l24,94l4,44l0,54l-12,108l-7,31l-3,50l4,35l8,31l20,30l39,31l14,6l136,17l45,18l52,42l16,15l38,63l13,43l13,77l10,33l48,96l28,120l7,43l-1,51l9,46l8,57l5,51l3,98l8,121l-3,39l-11,36l-11,21l-19,25l-50,33l-55,32l-33,31l-56,94l-36,40l-143,127l-23,36l-15,35l-15,45l-4,34l-1,51l-4,33l-3,45l1,51l-6,34l-11,47l-5,58l-3,70l-5,56l-14,97l0,60l9,74l4,40l-1,38l-16,64l-36,125l-24,116l-12,68l-1,56l-15,83l-19,61l-22,52l-27,54l-67,109l-20,37l-18,40l-16,53l-5,46l3,62l12,110l12,61l18,51l52,131l35,70l37,60l16,30l71,152l20,42l69,96l28,45l113,117l28,26l25,12l42,4l110,-22l119,-8l122,-24l37,-1l38,12l176,13l121,24l319,76l78,23l91,36l131,78l82,49l36,14l44,11l41,23l20,27l16,32l5,42l-3,54l2,39l-2,33l-17,58l-35,94l-10,40l1,48l6,80l7,48l-1,30l-6,54l-13,78l-8,32l-16,87l-5,54l-16,63l-16,74l-1,38l10,84l9,38l24,64l6,12l56,75l17,20l35,34l27,40l15,29l12,31l9,51l-2,38l-17,63l-12,63l-1,30l2,20l9,27l31,38l50,31l46,26l38,18l40,24l19,33l28,66l25,74l17,59l18,52l10,42l-2,38l-13,89l7,51l17,45l27,41l31,33l54,34l75,31l68,31l127,65l74,31l113,33l81,29l72,31l40,19l139,64l75,28l86,10l66,3l37,16l23,12l29,26l17,20l37,69l16,19l44,36l53,30l19,8l39,22l51,33l30,21l143,125l100,74l102,68l10,6l128,52l101,35l89,52l101,68l106,80l143,132l82,104l42,77l26,57l26,62l35,69l10,14l4,21l2,31l-5,48l-20,97l-10,59l0,27l2,170l10,69l31,109l42,116l8,35l2,41l2,102l-12,31l-58,56l-15,19l-23,49l-6,27l0,31l17,66l21,51l31,41l26,21l23,16l17,19l36,58l13,29l19,24l20,31l32,47l48,75l62,71l57,79l22,57l30,53l21,50l44,54l25,20l79,54l15,9l51,42l34,18l48,17l20,4l75,6l36,8l51,21l58,36l26,14l48,15l18,10l33,11l34,21l21,7l28,18l27,11l24,19l46,26l46,23l26,18l95,108l6,13l12,65l12,43l17,71l3,30l3,61l-23,53l-24,92l-54,105l-53,74l-30,57l-32,48l-40,38l-30,16l-11,15l-36,24l-66,37l-24,9l-38,24l-15,40l-60,43l-84,35l-27,4l-141,-2l-41,-8l-43,-1l-34,4l-39,14l-148,10l-44,-3l-82,-27l-73,-54l-60,-82l-34,-69l-21,-25l-41,-67l-40,-44l-71,-40l-51,-6l-58,2l-27,11l-30,18l-32,41l-58,92l-12,31l-63,118l-46,68l-27,75l-47,87l-48,57l-70,71l-170,96l-53,21l-56,11l-74,22l-58,38l-30,6l-24,20l-62,86l-61,130l-6,58l0,60l10,108l15,49l28,53l66,65l113,87l165,96l60,18h54l52,-11l37,-25l105,-53l47,-29l98,-28l50,-9l71,16l88,62l48,73l63,62l33,43l26,42l17,40l16,49l4,46l38,136l16,33l123,125l37,57l52,96l224,131l72,74l97,117l96,123l12,22l22,39l49,107l45,146l21,21l34,53l11,29l6,38l0,25l-17,98l-4,86l8,65l35,99l36,66l71,91l78,132l14,61l10,74l2,89l-20,128l-42,97l-24,39l-38,99l-19,35l-12,45l-52,12l-34,30l-6,15l1,34l7,33l65,187l18,89l39,102l31,53l73,90l80,120l42,92l4,35l-7,83l-10,79l-18,89l2,250l8,40l29,75l-28,119l-25,66l28,73l32,48l27,36l58,83l52,97l45,97l56,66l56,141l7,54l-19,161l-7,41l0,42l34,118l7,34l20,52l3,103l22,83l105,151l80,132l31,39l7,17l18,15l21,9l24,32l27,14l58,54l27,63l4,18l-18,82l-31,106l-121,249l-10,44l1,46l23,57l16,29Z"
     transform="matrix(9.9999987e-5,0,0,-9.9999987e-5,-1.4850001e-7,3.3500002e-8)" />
  <path
     id="1702"
     d="M-466354,-129699l923,-7l885,-6l87,354l11,-7l21,8l17,-4l35,8l11,11l7,16l12,3l19,17l-2,12l118,853l30,217l24,-13l9,-14l-1,-14l8,-16l25,5l6,-11l-13,-7l-5,-21l10,-31l1,-21l9,-19l-3,-26l13,3l11,29l9,2l15,-16l1,-14l-23,-3l-10,-35l3,-10l27,-8l28,15l9,-2l28,-41l23,-21l17,4l28,17l3,10l14,-1l15,-16l24,-7l33,8l7,11l14,-7l12,-22l14,-11l32,-6l5,33l8,1l11,-15l-6,-27l5,-11l-12,-12l10,-31l20,-10l7,-8l16,5l8,-17l20,-3l14,-7l0,-23l-10,-27l6,-18l-12,-12l-6,-20l-13,-23l6,-20l13,-6l7,-10l24,-17l4,-9l-17,-16l9,-17l-16,-10l-16,-17l14,-10h33l22,-13l-29,-26l-3,-7l4,-25l-17,-10l-3,-17l7,-21l-34,-18l8,-11l18,-3l34,-36l19,-3l3,-10l-41,-37l-6,-27l-8,-18l-1,-27l23,-26l-2,-7l-30,-16l18,-10l11,-20l-2,-32l-13,-25l1,-12l-27,-29l19,-10l-8,-14l-19,-6l-16,2l-4,-15l-17,-31l10,-10l3,-32l15,-13l-25,-42l9,-21l-3,-15l-13,-20l-3,-19l-11,-6l-22,8l-4,-24l45,-24l8,-10l-12,-6l15,-19l31,-16l-1,-8l-15,-10l-1,-17l-10,-11l-5,-30l-10,-11l8,-12l3,-18l-19,3l2,-22l20,-22l19,-6l8,-10l25,-3l13,-11l11,10l-1,11l17,1l20,8l16,-1l11,-10l16,6l8,-4l15,9l14,-1l-3,14l21,2l23,-9l4,13l15,11l24,5l7,7l16,-4l13,17l13,-7l23,-3l12,21l12,2l14,-12l13,13l29,-1l7,-7l14,10l7,-4h31l14,6l14,-9l9,13l19,9l21,-13l51,13l6,-5l26,12l14,-1l48,31l19,1l18,15h40l8,11l16,-3l26,-12l2,18l15,12l21,4l8,16l10,-4l12,8l15,-16l19,-5l15,6l8,11l26,1l1,10l17,-4l25,16l17,1l11,12l32,-5l20,12l46,-2l34,11l11,11l17,5l13,-7l9,12l13,-4l21,20l29,-5l31,-13l4,7l35,20l43,18l73,2l27,-8l70,3l37,-1l51,6l53,1l32,7l13,14l15,5l12,11l15,29l35,18h46l22,31l-2,16l10,43l11,5l17,-3l13,8l28,7l11,18l19,-4l22,13l21,7l51,10l14,-3l16,-23l14,-8l17,5l19,-11l16,8l37,22l10,9l16,-1l42,14l15,17l14,2l13,11h14l25,10l23,1l25,14l36,2l5,12h19l24,22l24,39l23,16l-53,22l-20,18l-36,6l-27,10l-20,-9l-5,-23l32,-8l-4,-16l-16,8l-18,-6l-38,-19l-12,-37l-13,-10l-18,-2l-9,-19l-13,-6l-1,-12l-20,-2l-2,-10l-19,-16h-13l-20,-13l-25,-5l-15,15l4,19l-31,-12l-22,-3l-19,20l-9,-17l-17,12l-2,14l-20,39l-7,-24l-1,-27l-14,-4l-21,15l-10,-15l-28,-17l-12,4l-9,13l-10,-21l-16,7l-3,-21l-18,11l-14,-10l-11,7l-12,-20l-16,8l-12,-32l-18,-1l-6,6l-20,-12l-15,4l-5,-8l2,-23l12,-9l-16,-14l-15,-5l-18,-13l-18,14l-11,-18l-11,-1l-13,-25l-15,2l-10,-6l-18,13l-12,-19l-5,-23l-14,31l-31,17l-7,-3l-9,-31l-30,13l-12,-21l-28,6l-27,-8h-11l-32,11l-8,12h-13l-20,-10h-13l-18,-11l-13,7l-2,12l-19,25l-28,-11l-14,-14l-32,16l3,14l-13,11l-7,21l-15,-11l-8,18l9,8l-31,4l-6,-15l-12,20l-15,-4l-8,7l-20,-12l-24,4l-15,-19l-25,-8l-17,8l-5,22l-12,2l-21,-12l-16,1l1,-20l-20,-9l-6,-19l-16,7l-14,-19l-13,5l-25,-6l-6,-21l-30,20l-16,-6l-9,-12l-27,-7l-6,-29l-45,9l-14,-17l-26,-2l-15,-5l-15,1l-20,-17l-8,7h-25l-32,-5l-12,-10l-17,6l-25,-5l-31,2l-33,-4l-34,-12h-12l-7,-13l-41,2l-6,6l5,15l16,17l17,4l16,-2l29,27l18,2l19,10l14,17l11,-5l16,23l7,16l13,-2l17,11l0,10l24,19l2,20l-3,17l-23,3l-12,14l-22,-10l-24,13l5,9l41,22l15,43l-2,11h22l23,8l-13,13l6,14l-11,7l4,22l-14,-2l-30,22l-4,11l17,17l6,14l-25,16l-6,20l7,16l40,15l32,20h32l28,32l35,7l25,13l21,5l7,13l10,4l12,16l2,23l-12,5l-16,-10l-2,14l21,3l11,-4l2,17l-8,7l-21,4l-10,14l-42,-12l12,24l27,28l23,33l6,15l-27,11l-19,1l-4,12l16,15l2,12l-27,9l0,18l-14,13l5,17l-7,10l-22,3l-23,16l-19,-8l4,19l16,11l3,14l-13,23l1,20l11,7l-3,16l14,10l20,-2l17,4l8,24l15,15h13l13,-18l20,-2l7,32l19,18l26,-4l1,21l9,9l13,-7l13,21l21,15l3,22l19,14l6,24l-12,7l18,15l-2,17l9,24l-9,18l-13,-4l-29,12l-2,40l46,22l-12,16l11,5l5,21l-3,11l5,12l-40,20l-30,33l-6,-7l-21,-5l-1,12l-19,-6l-18,13l-30,9l-13,-9l-5,13l-22,4l-5,-18l-23,-16l-32,1l4,24l10,23l30,7l12,12l10,2l-11,27l11,2l-9,20l8,28l-23,-3l-19,-9l-10,11l-16,-14l-9,12l-6,28l-29,-12l-5,-13l-31,1l-14,4l-7,-15l-14,9l14,17l3,26l6,10l-4,14l11,19l-8,8l7,24l21,-13l5,7l32,2l14,10l-5,15l12,6l6,12l13,-3l5,11l23,16l-2,31l21,4l-3,25l16,12l27,3l14,-22h20l27,21l17,-1l8,9l-31,21l31,38l-5,11l-12,-7l-19,6l-8,22l-15,-16l-8,2l-7,24l-16,-2l-17,-10l-19,-1l-15,-8l-1,15l14,17l23,17l-8,12l-18,9l23,14l2,13l-12,16l6,16l-10,24l-18,26l9,8l12,-8l16,-22l18,2l20,-14l31,-13l5,43l-10,18l21,19l-14,11l-20,9l5,10l27,1l10,8l2,26l13,-4l12,-26l1,-12l18,-18l14,-2l5,14h14l12,16l-5,14l17,11l-2,9l-15,17l35,16l4,36l-9,24l12,13l-16,12l3,9l26,10l-9,18l8,9l8,24l-5,18l-40,1l-10,19l-2,12l-19,2l-14,17l-40,5l-7,-5l-30,-3l-32,-28l-6,33l-11,12l-27,3l-14,-3l-19,-14l-28,-12l-12,6l-17,-30l-3,-20l-12,-3l-14,6l9,20l25,16l7,12l17,16l37,5l14,18l-1,9l15,29l-9,5l0,25l-9,7l-18,1l-15,-16l-18,4l-1,14l-10,6l-15,-6l-24,17l23,17l9,2l1,14l-33,16l3,15l-6,19l20,15l-3,19l11,5l10,-8l40,-11l18,18l10,-3l12,6l8,21l-17,30l11,17l14,6l21,-2l17,14l21,5l11,-3l18,17l33,6l19,9l10,22l19,17l15,-5l14,13l16,-2l13,12l2,12l-7,11l6,12l-5,11l33,20l12,15l-28,18l-12,3l2,55l-27,-2l-38,19l-13,-10l-14,4l-15,-5l-2,15l35,27l8,21l-8,19l-14,8l-25,-18l-17,6l-1,13l-31,6l-9,-20l0,-11l-26,5l-9,8l-2,22l-14,17l-34,-14l-4,13l-16,3l-9,-5l-16,5l-24,-10l-6,-14l-10,3l-23,-3l-18,1l-17,-16l-21,3l-14,31l35,-3l6,21l16,6l16,17l-2,23l3,27l7,21l11,2l15,-22l19,1l14,10l25,-1l-1,19l-19,27l3,13l40,10l-10,28l-9,6l20,13l10,20l26,-11l22,-1l5,11l-4,27l14,8l-3,22l-20,17l31,14l-6,32l6,8h14l11,22l12,13l36,23l11,18l-5,14l-14,11l-35,3l-23,-8l-4,27l-25,15l-24,-5l-12,10l3,30l-4,17l-18,-2l-7,15l-26,11l-5,-7l-20,-4l-4,8l-24,5l-16,-5l-13,7l-19,1l-3,14l-15,5l-5,12l31,3l18,-8l8,18l-11,2l-14,14l-3,17l18,5l6,17l22,-6l13,12l9,20l-1,23l4,20l8,-4l1,-32l9,-20l-5,-36l-5,-20l1,-12l13,-22l27,-8l16,22l13,6l21,-5l19,4l2,22l-3,12l19,23l15,3l34,-18l21,6l7,8l24,-5l23,9l2,24l-9,14l2,23l-14,11l14,21l9,3l-12,19l13,23l28,15l9,11l-19,16l-6,11l8,12l15,2l22,21l24,5l-2,18l32,4l-1,26l10,5l13,-15l10,2l7,20l12,10l17,-13l8,4l17,19l17,2l3,25l12,1l21,11l23,-14l16,8l17,-9l16,14l-10,21l16,12l24,-3l7,14l17,-12l18,19l15,-2l15,7l1,14l16,13l15,-16l11,11l13,2l1,17l13,3l18,19l-4,17l17,7l20,3l10,9l20,8l16,-2l9,21l0,40l16,8l1,8l28,15l-8,8l7,14l18,7l37,27l22,1l1,1l-6,6l-22,2l-23,-5l-28,6l-18,12l-15,-11l-31,33l-19,11l-9,-20l-32,-4l-13,-14l-18,4l-17,9l-7,9l-16,2l-3,-29l-31,-14l-21,20l-18,-20l-30,27l-9,1l-19,-25l-18,9l-4,12l-37,-3l-8,-21l-19,3l-36,18l-14,-50l-3,-20l-43,16l-35,-15l4,-31l-42,1l-13,-8l-9,14l-18,-2l-9,-7l-30,-9l7,27l-3,13l-12,11l4,18l20,-5l16,11l23,-9l7,13l-9,24l2,25l6,18l18,4l18,15l8,2l-11,22l-29,26l9,16l4,21l-10,9l9,31l-16,14l3,8l18,10l11,19l5,28l13,23l-35,13l-13,-8l-33,17h-17l-1,15l18,5l6,13l14,4l6,-7l19,-3l16,31l-6,9l2,22l-3,22l-19,4l-14,-2l-11,11l-5,21l-17,2l-20,-14l-6,22l-13,6l-13,-4l-11,-21l-17,-14l-19,-3l5,27l-7,12l5,18l-16,8l-2,20l10,3l10,12l-17,12l11,16l30,-7l10,8l-24,23l-5,15l-19,22l13,4l34,2l4,12l35,1l6,8l-14,11l-2,20l-16,-1l-30,-10l-10,18l17,7l6,-6l23,2l11,13l29,12l5,16l-18,-2l-8,8l-16,-10l-32,6l5,26l16,15l-14,19h-9l7,29l-16,4l-12,-12l-28,55l-9,-31l6,-17l-1,-13l10,-16l-2,-12l-18,-22l4,-19l-17,-15l-10,1l-12,31l0,46l-4,12l-14,15l-10,28l-14,5l-12,-6l-6,-16l-9,-5l-4,-14l-15,-2l-3,-15l-25,8l0,8l-26,21l-9,-4l-16,9l-9,-8l12,-34l-7,-18l8,-4l14,-21l24,-3l11,-32l-26,8l0,12l-22,3l-23,15l-23,-24l-17,1l4,-23l26,-7l0,-13l-15,-14l14,-12l40,6l9,-7l11,-20l-20,2l-10,-11l10,-12l-2,-16l-13,-3l-29,-30l2,-19l-18,-9h-21l-16,-5l-2,-19l-9,-7l-1,-20l10,-4l5,-20l19,-4l-14,-21l-25,-8l-8,-40l-14,-12l-28,-1l-19,-7l-19,1l-9,-6l-19,4l-12,18l-17,8l-12,30l-9,11l-18,2l-22,24l-15,7l-2,12l-38,15l30,35l9,16l34,21l9,18l10,3l7,14l4,35l-4,8l8,19l-13,15l-4,15l8,9l1,58l-19,14l-13,19l-11,6l-18,43l-7,10l-25,10l-2,10l25,3l28,-10l13,-20l28,2l16,-18l22,2l6,8l-1,25l4,17l-6,10l3,20l13,26l24,15l70,-1l20,8l-4,29l18,7l39,6l21,29l13,9l14,16l26,8l-1,11l7,29l-3,12l24,13l10,-7l14,8l3,18l-11,11l7,15l-2,21l-6,10l-26,20l7,9l32,-11l17,9l17,-4l20,17l-7,19l-11,2l-22,24l-15,1l-22,16l-2,24l-9,5l-2,27l-13,16l-30,2l-19,12l-20,-16l-10,6l-13,20l-23,4l-2,25l-19,11l-14,-6l-16,3l-10,-9l-16,-3l-11,-12l-14,18l-14,-7l-45,21l-10,-2l-3,-14l-20,5l-7,-19l-9,-8l-41,-6l-11,15l-18,-16l-7,-20l-13,-12l-13,21l-21,-3l-7,-17l7,-19l-35,-2l-29,1l-20,10l-30,3l-16,-18l-27,1l-20,-4l-26,10l57,21l37,18l15,3l20,14l7,21l12,1l4,10l15,1l12,10l19,4l2,8l32,12l21,14l-10,14l-11,-8l-10,7l-15,-11l-40,3l-15,15l-21,13l-6,19l-39,-17l-9,-13l1,-14l-10,-2l-23,12l-16,-16l-23,13l-18,-16l-22,23l-8,-7l-59,-16l-1,13l17,-1l24,15l13,23l0,41l4,19l15,25l21,-1l29,7l22,27l-3,13l17,19l12,-3l22,5l3,8l-11,22l6,23l-13,7l4,19l23,15l-3,23l21,-2l9,10l0,41l13,13l3,13l-8,13l14,8l-7,16l-33,22l9,8l17,-8l16,-1l14,13l-3,15l22,-3l20,16l2,11l-45,30l-41,-8l-18,10l-7,-16l-16,15l-14,2l-30,-13l7,36l-14,13l-25,-10l-9,10l-16,2l-2,-31h-16l-17,11l-31,7l-19,-27l-14,14l-18,5l-6,22l-31,1l-13,-19l-6,29l-16,24l-7,22l14,7l17,23l-2,18l-11,8l-6,23l5,8l47,14l14,-5l19,18l-4,13l17,4l-2,32l17,4l13,-15l7,3l7,25l12,3l2,20l8,14l-4,21l-21,-6l-5,10l-35,-14l2,29l-5,8l12,31l-18,14l-5,17l-17,3l-17,-16l-20,26l-10,-1l-19,8l11,17l-3,18l-16,13l-17,6l11,17l-9,26l21,18l53,3l14,10l2,13l12,16l-7,36l18,-4l7,-10l11,6l14,-1l15,12l1,12l12,3l12,17l-16,10l1,15l-17,-3l-1,33l19,2l1,22l15,24l12,-11l11,3l-9,34l17,13l0,22l-11,4l-30,-1l-19,-6l-15,1l-10,12l-17,-2l-11,13h-18l-29,7l23,14l22,4l16,12l1,21l30,38l-23,8l-7,13l-1,20l6,8l-18,22l-23,1l-37,-2l-9,-5l-9,21l-20,12l-27,-5l-12,2l-22,-16l-8,4l-12,-14l-15,-8l-11,9l-12,-13l-45,11l-40,-16l-13,1l-1,11l21,12l11,22l11,8l36,-9l19,4l23,34l30,6l15,18l43,25h23l47,40l-5,16l-25,21l5,25l-38,2l-8,20l-22,17l-21,5l-12,-12l-32,7l2,24l-16,14l-19,-2l17,22l7,17l-14,23l-20,8l-22,15l-15,-1l-16,19l2,7l34,-22l30,19l13,-13l11,4l37,-3l15,14l-5,13l-12,16l16,9l4,-18l23,-19l11,2l11,34l13,7l14,18l-12,23l12,18l13,11l19,5l6,25l-1,38l-19,6l-11,13l10,23l18,2l10,11l21,-6l17,7l10,11l0,21l14,16l-45,21l39,21l21,-6l10,11l-4,38l-12,7l5,13l0,29l-30,11l6,9l-3,12l24,-8l30,10l-5,22l-8,10l9,17l-14,17l13,7l3,15l-10,27l-23,1l-21,15l-19,-12l-12,7l23,16l3,6l-19,18l-22,10l-18,-10l-8,5l-23,-8l-15,12l-18,6l-37,4l-3,-8l-16,-5l-1,-26l-8,-3l-25,11l9,25l-21,19l5,18l19,9l26,4l14,19l23,-4l32,17l22,-1l9,17l-7,23l-12,12l3,19l-11,-1l-17,22l16,12l-16,16l5,16l-11,18l25,11l5,24l-10,12l6,37l-45,2l-19,-7l-36,1l2,12l18,8l2,23l10,1l0,14l21,6l7,-11l23,15l27,11l5,19l-41,11l-15,11l12,10l-6,13l-20,-2l-14,-6l-15,19l-33,-12l-14,5l-8,-18l-19,13l-22,-8l-16,9l-15,-6l-18,9l-21,-16l-32,9l-14,17l-20,15l-2,14l-17,-1l-15,-25l-17,3l4,-30l7,-19l-10,-11l-17,5l-26,-5l-13,11l-12,-2l-7,-14l-36,-2l-24,8l-26,-8l-32,-16l-2,22l-12,16l-35,-14l-15,-10l-3,-26l-25,8l0,21l-19,23l-13,-11h-11l-25,28l-20,-6l-12,8l-6,17l-12,7l-20,1l-22,-11l-24,-7l-19,-12l-71,-4l-13,15l6,7l10,27l-3,12l31,5l16,10l4,10l18,16l5,14l14,6l13,-4l28,9l24,4l18,-2l13,7l19,22l10,26l17,9l54,1l13,16l39,17l17,-5l12,-27l20,-14l17,-7l16,9l18,24l10,19l14,-26l26,-10l21,28l13,-12l-5,-11l10,-9l29,4l12,13l-6,25l3,13l-10,4l10,14l-15,23l-9,29l19,-12l12,15l14,-3l13,8l6,-14l21,6l17,11l0,21l17,5l6,10l0,20l30,9l8,6l12,-9l-6,-19l3,-15l-5,-11l10,-9l-1,-20l17,3l23,19l10,-9l-2,-21l6,-15l-9,-11l3,-14l17,-20l6,2l15,23l16,51l-3,29l16,2l10,22l52,13l6,6l-5,17l-19,21l-16,9l8,12l27,5l10,-7l22,16l18,6l-7,22l-19,16l10,12l19,-10l23,-1l11,-15l58,4l13,9l0,22l-8,37l23,-12l8,2l13,19l19,-7l17,1l23,12l4,9l-5,13l3,13l-8,16l7,24l-9,14l0,13l16,2l8,11l17,-5l16,10l16,-1l26,15l17,-1l14,14l12,19l-6,21l-21,13l22,21l17,-1l20,33l20,-9l38,5l10,8l4,15l14,10l4,11l-7,25l9,34l18,13l13,-9l17,1l13,16l-1,29l11,7l2,-24l11,-10l20,9l11,21l54,14l8,9l7,35l8,-9h19l6,10l1,21l15,2l20,11l14,-12l32,-9l10,19l21,12l14,-4l26,7l15,20l29,1l4,-18l8,-12l21,-1l14,31h18l13,-10h11l10,10l25,7l8,-19l23,8l16,-5l34,24l7,-3l0,-28l18,4l18,32l28,6l8,-5l37,-4l31,6l16,-19l-5,-15l10,-14h32l5,34l43,-16l16,16l13,-11l21,-3l9,17h9l5,-21l13,6l8,14l44,4l12,-2l19,4l17,-4l25,16l11,12l11,-11l15,10l10,-2l11,10l-1,18l18,11l22,4l9,11l10,2l23,-9l11,26l29,28l45,13l44,-10l27,11l13,-2l1,12l32,5l8,9l13,-1l9,-8l18,7l6,12l-12,22l40,25l8,1l7,19l-6,13l-12,7l8,12h14l18,-16l27,8l9,10l6,17l-15,20l-20,10l-16,-5l-16,-12l-3,12l-16,13l-13,2l-32,-11h-16l-24,-16l-14,5l-26,-14l-25,-7l-43,-5l-15,-4l-26,4l-21,-3l-30,-20l-26,-4l-9,-14l-16,2l-23,-12l-3,-6l-20,-5l-18,7l-16,-26l-49,-5l-43,-9l-51,-15l-9,3l-22,-6l-41,16l-2,19l-9,6l-15,-17h-20l-18,-6l-8,23l12,21l-2,15l-26,8l-8,-2l-22,-50l-23,16l-24,-12l-7,12l-12,2l-5,-10l-13,5l-23,-11l-16,-2l-20,9l-7,-15l-13,6l-18,-20l-12,16l-13,6l-5,-8l-15,14l11,16l-13,10l-15,28l-11,1l-47,-38l-9,2l-21,-10l-32,18l-12,19l-15,1l-29,-18l0,-12l-13,-2l-17,7l-15,-1l-13,14l-20,1l-15,24l-16,3l-21,-11l-13,-16l-4,25l-6,8l-15,5l-22,-12l-11,1l7,17l-7,30l0,18l-14,9l-18,-1l-7,13l-13,8l-7,15l-21,3l-6,-6l-20,4l-13,-4l-11,-12l-7,23l3,16l-27,29l-18,7l-21,15l-19,-8l-16,6l5,19l-8,21l-23,10l-6,10l-22,7l-49,6l-11,-10l-3,-24l-26,-1l-16,-11l-4,-33l-11,4l-13,20h-19l-8,10l13,15l1,18l-13,11l-11,-2l-1,17l-13,9l-15,46l-23,21l-8,39l-10,10l1,16l-14,-2l-7,11l8,14l-10,22l2,21l16,-7l11,32l0,16l-9,10l-17,8l23,16l-1,13l-12,1l-3,11l16,3l9,16l10,28l-7,15l-10,10l-18,1l6,17l-18,19l-3,25l15,16l26,-5l7,16l-6,11l21,4l19,14l9,23l12,-4l7,-17l27,-7l-5,-20l12,-11l23,-2l27,-29l43,-18l11,1l9,10l29,5l3,8l17,10l10,19l-16,31l-15,19l-5,32l-15,4l-5,11l-38,6l1,15l33,15l6,10l-15,37l-13,-1l-6,19l10,33l12,-12h21l3,-18l12,-5l13,-13l18,12l-10,21l-14,13l10,11l21,-8l17,17l14,-13l-12,-15l26,4l-9,-15l6,-19l9,-4l28,4l3,19l10,-4l17,8l3,10l-1,9l-14,6l5,16l18,13l3,28l13,2l8,14l-10,9l-23,8l-2,17l13,19l0,12l13,11l-20,16l-3,11l-28,-8l-42,-17l-38,-5l-19,19l13,18l22,-16l10,4l28,29l-12,9l-15,1l14,35l-29,14l11,14l14,-13l7,15l20,4l13,-3l16,6l9,13l9,-2l19,17l4,14l28,24l21,29l14,5l0,27l-14,14l-10,3l-22,-15l-4,14l-12,7l-14,-5l-25,-19l-15,-17l-22,-4l-28,-22l-24,-2l-14,-6l-14,7l-22,4l-9,-9l-16,1l-21,-23l-16,-11h-20l-12,23l3,27l11,1l19,-9l25,8l18,26l24,9l7,12l17,12l19,25l18,5l9,8l11,-8l8,35l-5,15l-22,22l-14,-2l-17,11l-16,-11l-25,3l-8,-3l-13,-20l-12,-2l-1,-22l-14,-12l-17,3l-13,-9l-7,5l-20,-10l-8,4l-9,-25l-11,1l-14,-9l-17,7l-16,-13l-11,11l-14,-10l-4,43l-7,18l-14,13l-38,20l14,16l7,20l14,8l-9,24l-1,23l4,11l83,29l9,18l0,11l14,1l17,9l14,-13l29,6l-6,-15l14,-10l22,-2l36,17l22,20l5,9l1,25l46,-16l16,12l11,-4l16,14l8,-7l19,-3l17,-14l10,3l13,22l13,7l0,15l20,12l-4,14l-23,9l-12,12l10,19l-13,11l12,7l17,-3l5,8l-3,18l30,-2l-1,9l21,35l20,5l6,17l30,14l-4,12l12,20l-11,7l-20,-7l-13,2l-17,-9l-16,2l-1,13l-39,25l39,8l20,-6l14,8l10,-6l17,11l0,27l17,15l12,1l2,36l-11,5l15,28l16,1l24,17l10,15l17,6l2,15l11,12l16,-3l12,8l-1,9l15,29l0,8l-20,14l-6,32l-28,3l-4,8l7,20l-19,13l-15,-2l-5,15l-12,-7l-9,14l-9,1l-6,-22l-24,-3l-15,22l-20,-5l-16,-8l-10,32l-25,6l-14,21l-3,21l-24,-7l-7,-27l-16,8l6,17l-4,16l-21,34l4,8l31,9l14,9l0,18l-25,-5l-16,1l-5,22l-26,-3l1,15l-10,3l-6,19l37,12l-1,19l-16,1l-12,8l13,14l0,21l6,19l25,31l-19,25l-8,-2l-40,17l-25,-17l-9,5l-4,16l8,13l-44,4l-3,12h-19l-19,5l-11,-2l-16,10l-5,16l-20,9l-3,-23l-23,-13l-28,-10l-13,-20l-25,2l-18,-26l-4,12l-24,-11l-8,-14l-16,-4l-5,-23l-15,-13l-20,17l-30,-22l-8,6l-15,-11l-7,19l6,8l-23,10l-13,17l-19,1l-23,-17l-8,16l16,14l12,-9h27l24,11l2,16l11,6l-3,14l12,2l8,10l-12,12l14,15l-3,13l-16,5l-11,11l12,12l18,9l-2,14l22,-14l30,-1l22,-17l6,15l13,-4l16,8l-2,15l-10,7l-3,13l-22,16l9,10l5,17l18,-5l7,27l13,-12l9,-20l8,12l25,-7l15,-8l14,-1l20,15l-5,18l15,15l14,-5l8,8l6,24l14,-7l-3,-30l13,-4l7,-13l18,-2l3,-11l40,-9l4,19l-4,19l18,-2l14,10l3,-20l14,-14l13,12l2,12l23,10l11,31l-4,25l13,1l17,9l-2,-23l4,-7l17,1l11,-5l15,8l7,18l22,-17l18,-2l-4,17l13,8l2,39l15,-6l12,-17l8,1l8,18l-18,13l3,24l-7,24l19,-8h13l1,-15l23,9l-3,-26l3,-18l12,-3l5,-23l17,3l10,-15l23,18l15,-24l23,14h15l13,14l14,-1l10,11l11,-9l3,-17l22,-6l14,-8l11,-16h13l17,10l7,-13l31,-4l1,-14l15,-8l22,-4l8,-7l32,4l6,12l17,-3l20,32l19,10l8,15l21,17h15l19,8l6,-11l59,-1l36,3l20,-7l7,10h22l35,-15l38,14l21,1l2,7l26,8l8,-25l-5,-19l7,-12h14l29,8l26,-3l-3,-25l-10,-14l14,-21l-3,-18l-9,-7l2,-13l-15,-21l18,-14l3,-16h18l8,-21l12,-13l13,-4l2,-16l31,-18l11,-13l17,2l-13,-26l4,-10l14,-1l-1,-19l13,-3l12,10l27,-6l13,-14l22,2l11,-21l21,4l9,13l12,2l21,12l4,-5l20,4l-11,-26l25,5l9,-18l37,1l-3,-22l-7,-5l10,-20l10,-2l17,12l8,-3l26,11l24,-4l18,1l10,-5l2,-14l18,8l8,-12l13,3l0,-19l11,-5l4,14l14,6l1,19l13,8l9,-8l21,10l17,-8l9,16l9,-9l19,12l19,-27l15,5l4,9l14,-1l4,-19l23,-5l25,-14l10,14l19,-16l38,1l12,-9l6,21l-26,9l-7,19l15,11l1,-17l31,-13l5,20l24,13l23,-4l22,209l9,-14l13,-7l29,15l6,15l26,-8l9,18h19l13,6l32,-1l19,-4l17,15h11l20,-10h15l32,-11l18,-1l32,-9l30,-13l22,-5h23l20,-3l53,1l51,13l24,12l93,-6l-53,70l-16,11l-51,10l-31,18l-70,45l-11,6l-87,20l-126,28l-347,75l-29,5l-155,33l-81,17l-115,25l-69,13l-45,11l-93,110l-44,55l-98,114l-57,68l-118,139l-110,35l-159,49l-63,21l-282,86l-124,39l-140,42l-98,29l-23,4l-189,-32l-80,-13l-202,-34l-418,-69l-12,3l-68,47l-165,113l-48,35l-206,141l-55,36l-237,162l-53,37l-4,1l-1,38l-33,553l-3,39l-37,239l-10,27l-20,16l-25,5l-70,-3h-128l-31,5l-31,8l-33,-13l-23,8l-82,98l-5,16l7,76l0,82l1,21l29,92l156,514l50,160l8,26l37,54l215,318l51,79l119,174l214,323l225,344l243,379l10,15l73,114l80,125l80,126l448,701l311,486l743,42l33,570l35,658l23,12l4,23l20,-5l9,3l4,21l25,15l5,18l25,6l8,-3l10,13l-11,15l-3,12l8,22l24,-2l7,16l16,-10l17,14l-3,9l13,18l21,18l37,9l16,16l14,21l28,13l14,14l10,3l19,-7l15,-16l11,-32l12,-12l11,13l12,-1l21,-36l11,-5l7,-13l17,4l28,-27l17,-24l21,-20l1,27l38,140l23,108l4,40l8,24l9,46l16,35l7,31l3,29l-5,39l-7,19l15,28l24,11l128,95l123,92l23,16l149,309l-16,200l-6,16l-64,72l-19,34l109,232l2,3l221,153l6,2l116,6l5,2l57,45l20,12l70,19l127,36l49,13l30,4l188,65l196,110l666,373l454,303l583,183l475,432l21,20l11,20l100,605l67,402l53,322l713,107l164,317l109,211l3,11l-27,792l-96,107l-119,133l-31,-15l-39,-47l-45,-106l-2,-79l9,-49l15,-46l55,-138l5,-37l-11,-61l-53,-140l-7,-14l-47,-58l-54,-56l-167,-106l-330,-171l-18,-1l-211,37l-79,9l-157,30l-30,9l-21,13l-218,39l-7,19l-30,22l-122,-51l-137,-92l-57,-143l-48,-80l-17,-65l-57,-88l-10,-108l54,-86l230,-192l-19,-35l-182,-157l-36,-114l-113,2l-110,9l-42,41l-77,25l-152,-7l-108,52l-109,139l42,67l1,28l-40,46l-4,48l-66,12l-86,81l-35,149l9,52l-123,66l-104,37l-56,93l63,90l4,68l16,56l75,50l-13,19l-40,84l-9,68l7,102l-2,47l-20,144l-30,140l-1,69l-9,19l-42,46l-29,8h-41l-37,-6l-54,-33l-65,-17l-75,-39l-159,-120l-185,-123l-33,-19l-36,-11h-74l-65,15l-42,13l-62,22l-63,14l-56,1l-45,-4l-77,-37l-70,-10l-47,-15l-35,-6l-24,5l-33,17l-25,22l-60,71l-37,52l-20,38l-48,38l-32,17l-37,46l-71,90l-36,27l-53,16l-80,-5l-11,-6l-36,-6l-95,-9l-77,4l-93,-26l-47,-20l-135,-47l-47,-4l-59,3l-74,21l-104,11l-47,-2l-42,12l-23,23l-15,4l-22,15l-15,1l-28,-35l-29,-18l-23,-26l-37,-25l-27,-5l-72,26l-71,51l-64,29l-28,4l-40,-1l-84,23l-45,17l-22,26l-18,87l7,28l-28,55l-50,191l-50,100l-36,42l-79,73l-42,28l-73,95l-31,30l-40,61l-33,36l-33,27l-47,15l-126,3l-54,10l-18,7l-17,30l-15,91l-26,67l-26,56l-29,31l-9,26l0,16l11,36l0,52l-8,189l-45,78l-70,87l-14,25l-11,39l-62,53l-3,15l15,63l39,65l3,18l-3,48l-44,119l-4,43l18,40l11,10l24,9l14,16l39,59l7,22l-12,27l-33,49l-37,28l-40,17l-7,11l-2,38l19,67l4,38l14,51l9,31l30,17l4,17l-17,66l3,38l-6,29l3,38l-4,35l-12,12l-11,5l-98,12l-45,21l-21,23l-7,37l12,37l10,15l26,16l62,19l10,8l0,16l-42,28l-85,33l-31,32l-10,23l8,43l27,77l4,27l-13,28l-75,60l-18,29l-20,48l-31,32l-5,25l0,54l-20,27l-15,12l-14,-3l-71,-44l-57,-28l-55,-18l-32,-18l-66,-17l-127,-6l-74,2l-91,27l-54,28l-17,30l-10,59l43,64l46,88l8,36l7,78l-14,38l-44,73l-17,17l-93,35l-54,45l-46,16l-80,-1l-196,-28l-85,13l-64,43l-37,19l-21,24l-30,99l4,41l17,66l-3,31l-9,41l-31,55l-8,25l1,23l-30,88l21,34l129,70l125,79l46,33l23,24l33,24l25,12l43,76l19,63l10,61l2,79l-4,77l20,38l33,41l53,81l42,89l10,77l-2,29l-20,42l1,33l9,12l17,15l34,-3l33,-8l38,15l108,63l62,51l46,22l82,51l103,53l17,14l7,16l-5,20l-32,49l-49,27l-76,32l-40,35l-10,66l-18,18l-50,24l-37,29l-18,26l-42,38l-12,32l-4,69l3,23l16,24l28,16l42,38l10,17l63,48l7,10l3,18l-21,72l-30,36l-55,23l-38,3l-99,-12l-23,-7l-33,-27l-24,-10l-15,-1l-27,16l-12,27l-14,51l-25,36l-40,22l-31,9l-29,15l-30,6l-53,-3l-25,-7l-41,-1l-22,7l-43,41l-16,2l-44,20l-21,17l-38,47l-43,60l-15,29l-2,36l19,134l17,39l24,36l19,19l81,39l10,22l-55,12l-52,1l-81,42l-82,71l-19,32l-43,39l-89,11l-87,-22l-104,-50l-22,-6l-40,-4l-28,3l-28,11l-111,10l-23,6l-41,-4l-65,-22l-82,-63l-30,-71l-26,-16l-24,-8l-56,-2l-27,8l-91,48l-23,27l-5,30l2,14l47,108l17,26l7,24l-1,33l3,16l-76,135l-20,22l-71,39l-43,31l-20,47l-16,27l-7,1l-73,51l-79,71l-55,122l-24,16l2,4l-29,68l-12,43l9,50l-10,18l-22,19l-40,14h-15l-87,-25l-41,-21l-37,-2l-42,19l-28,19l-28,46l-20,74l4,26l21,56l21,17l31,11l51,5l16,13l8,18l0,17l-15,26l2,15l8,7l6,26l45,5l45,19l32,42l7,20l-2,27l-31,75l-42,45l-25,53l13,84l7,84l8,21l65,96l2,22l-29,65l-5,39l-50,47l-32,8l-21,-6l-25,-27l-17,-9l-20,1l-24,14l-44,13l-46,31l-12,18l-5,39l42,146l4,35l-22,20l13,3l-18,28l-15,9l-4,21l6,10l-6,45l-42,37l-31,16l-2,10l-12,17l-29,3l-70,-9l-16,3l-48,30l-72,-2l-47,16l-24,18l-6,22l19,36l16,60l-11,43l-37,21l-24,-2l-27,-30l-13,-25l-19,-6l-37,-25l-7,-11l3,-21l-7,-12l-36,27l-20,-6l-11,-9l-12,3l-20,16l-11,3l-31,-18h-29l-26,-10l-29,26l-26,42l3,73l14,15l25,-5l9,7l5,15l-3,30l-36,51l-2,35l20,19l16,33l18,10l13,19l-2,17l-13,9l-55,-4l-3,20l7,9l19,2l-27,41l-5,26l9,20l15,6l37,-20l15,-15l49,-4l21,31l30,2l18,12l-13,41l-44,44l-13,19l-25,55l-33,17h-18l-25,-7l-32,14l-34,-7l-45,14l-27,-8l-81,-40l-31,-10l-43,-29l-71,-62l-19,-7l-43,-6l-41,-18l-52,24l-60,38l-22,3l-36,-10l-58,-2l-17,-51l-22,4l-15,-7l-32,-4l-21,20l-22,5l-20,16l32,34l10,23l-8,21l-13,-3l-9,-10l-19,-8l-26,10l-7,-19l3,-11l-12,-12l-27,-5l-24,1l-29,27l-61,13l-4,12l-14,13l-12,-8l-20,15l-35,6l-12,-1l-10,-13l-12,-1l-12,12l-9,-5l-9,-20l-9,-3l-30,11l-29,2l-11,12l-6,23l-52,18l-75,8l-19,19l13,20l13,40l39,-5l20,23l8,4l25,-2l11,10l-10,27l-29,12l-1,10l13,6l44,-19l17,12l23,93l-1,22l-21,14l1,15l31,8l22,19l4,21l7,11l23,3l19,11l-18,10l15,17l-2,9l-36,4l-12,7l0,10l21,30l-6,12l-13,10l-27,1l-21,-23l-13,1l-18,-12l-12,23l-45,-3l-17,4l-29,16l-17,29l10,16l54,27l41,2l22,5l23,-5l43,23l35,-16l17,-1l19,39l38,24l17,11l11,66l-5,15l1,16l10,14l25,21l0,14l-31,31l-6,15l4,14h12l27,-10l11,-46l-11,-39l23,-5l31,-12l31,15h17l7,9l-12,45l5,27l30,25l19,4l13,13l7,17l-2,47l17,31l-4,24l-30,32l-12,34l5,28l-10,21l25,-1l28,7l4,6l-11,22l15,13l9,16l54,-4l43,23l17,-19l19,-1l33,12l11,19l-8,21l-25,26l-7,32l5,31l18,20l36,-7l29,1l40,-12l9,5l7,37l5,35l7,24l-4,23l19,3l25,19l46,5l20,9l11,19l-10,53l-13,23l-30,39l-35,17l-18,-4l-19,-12l-36,42l22,20l1,18l-19,20l-29,3l24,18l4,24l-26,39l-31,9l-10,30l-1,17l28,18l8,10l13,-1l27,7l22,16l7,35l11,10l34,4l-2,12l60,12l33,1l32,-12l44,-67l15,-10l28,9l14,16l3,15l36,3l19,9l33,63l48,44l46,16l65,6l22,-5l12,-12l22,-5l14,13l3,12l20,8l14,-10l17,2l22,20l10,19l-11,25l2,8l19,7l4,13l-48,41l2,40l41,32l-3,13l18,8l15,-18l12,9l5,17l15,27l5,25l-36,37l-28,19l5,10l29,14l7,19l40,9l17,10l11,21l-12,27l-1,18l10,9l0,18l-9,24l-12,68l-12,6l3,28l31,25l3,13l-9,26l-14,10l-2,9l10,78l-8,31l-18,20l-7,14l3,20l-11,7l-23,-4l-7,10l16,18l1,25l-25,-6l-14,2l-33,16l-5,9l-3,42l-9,17l8,28l-2,24l-27,20l-27,43l-16,8l-12,89l-27,35l-25,50l4,18l12,12l11,4l60,-43l10,1l25,24l18,-9l8,30l25,7l-10,41l13,47l-10,25l3,25l99,76l6,24l15,26l18,15l25,10l54,12l19,11l39,47l-2,29l-18,62l3,38l-6,38l-24,14l-14,14l-8,15l-24,2l-4,10l16,36l-7,10l-24,3l-22,-5l-20,-16l-16,-2l12,60l6,13l-5,12l-15,6l-21,-17l-9,3l-8,27l-85,29l9,33l31,32l7,22l-24,20l-11,1l-4,35l-15,12l14,20l29,22l9,19l-11,4l8,29l-5,28l8,13l16,1l9,-16l21,12l1,27l-7,30h12l5,-18l12,-6l11,17l-3,13l23,2l0,17l-9,16l-26,11l7,6l25,-5l10,5h25l9,19l0,12l-10,8l-51,2l1,11l20,6l22,-5l11,4l8,15l-24,17l-9,19l-23,-2l-7,18l-23,1l-12,-8l-14,-20l-9,-1l-8,30l-13,6l-7,-6l-38,-2l30,25l9,31l-5,17l-11,3l3,16l18,-15l13,-25l17,3l7,-13l18,-11l33,-5l2,25l11,-1l13,-15l16,14l-2,25l-23,11l-8,10l15,15l3,15l29,-1l11,35l-18,25l5,7l30,-22l12,5l-1,65l7,13l25,-1l-6,-35l21,-27l12,4l12,22l-6,14l19,15l11,36l9,10l9,-10l-3,-32l19,3l7,-22l13,4l5,22l13,-2l1,15l-21,19l3,15l12,1l27,-20l6,10l-27,30l40,7l-21,28l-10,34l5,13l48,-16l10,8l16,-5l34,-22l19,-3l4,37l22,29l19,10l-20,50l2,12l50,-1l21,8l13,19l-9,41l5,16l16,7l27,-4l15,18l2,9l1,4l-19,45l-29,33l31,12l18,-6l15,4l10,19l-9,9l-24,7l0,10l-10,11h-28l-17,33l10,12l27,6l10,10l6,22l-8,6l-2,30l-29,25l-2,11l9,12l33,3l5,8l-10,26l-9,9l1,19l8,7l1,19l-11,15l-10,-1l-15,12l-2,11l21,17l-4,5l-29,65l3,32l8,16l20,15l24,-3l33,4l23,11l9,13l-1,15l-14,20l-1,28l13,3l25,-32l29,-3l19,12l-2,10l11,19l8,-9l6,-23l-1,-14l25,-33l34,-13l16,-3l16,28l3,49l8,13l25,-28l13,-20l15,-1l15,21l7,28h16l18,18l0,25l15,-1l15,7l11,14l53,51l0,25l27,25l12,25l-10,13l-18,-1l-26,14l6,12l14,5l-1,23l27,48l12,41l7,11l-2,13l-39,60l0,20l18,30l-9,49l-13,25l-23,15l-3,27l-42,37l-3,20l3,14l11,9l11,-3l8,-27l12,-8l37,-3l39,-27l15,6l15,23l50,29l10,17l3,20l-21,24l-23,20l-18,30l2,18l7,11l43,29l3,20l13,29l-14,29l23,25l0,9l18,29l27,6l14,-8l14,-1l40,-32l18,-28l26,-13l47,-2l26,-25l17,1l53,36l15,6l27,1l30,-7l27,-18l36,-5l20,-5l22,-17l7,-38l14,-24l23,-10l20,-2l20,2l13,18l1,15l-4,14l12,29l0,11l11,21l-1,17l12,38l11,12l23,31l28,21l26,15l20,6l-2,27l12,24l3,17l12,7l45,38l31,20l13,1l22,10l23,-1l31,11l25,1l39,13l18,21l25,8l8,14l13,8l2,27l69,25l14,1l24,-11h11l26,16l17,-18l26,7l21,24l23,9l26,25l22,7l20,15l48,13l4,17l10,12l26,11l31,4l23,7l11,12l25,11l10,-7l15,4l24,-8l18,-22l95,-48l28,-2l20,-11l27,4h37l16,6l28,6l14,8l60,-19l22,4l16,-2l22,10l32,3l29,18l19,19l28,2l43,-12l18,-2l28,4l15,13l29,2l26,-12l17,-3l12,4l32,22l37,16l18,1l28,-5l29,16l12,25l15,13l9,31l19,20l12,28l14,15l26,31l17,27l74,32l53,37l23,36l27,57l12,35l18,41l17,30l15,20l8,37l2,41l-7,28l-2,39l6,47l-4,38l-13,11l-1,19l-8,6l0,40l6,26l10,23l22,28l7,30l9,5l0,25l6,4l-1,32l14,10l16,33l25,17l12,13l50,39l7,16l18,9l9,12l-2,33l15,22l-3,20l-14,25l-11,11l-16,31l-18,18l-24,13l-27,20l-9,13l-25,7l-8,6l-20,-1l-1,11l-13,9l-16,-3l-20,7l-10,11l-13,35l-13,12l-18,54l4,22l12,15l3,17l-6,12l8,18l21,16l20,21l6,15l13,11l8,16l-4,7l2,23l-2,44l5,23l15,3l8,13l-2,13l26,60l10,3l-5,23l10,14l19,8l-1,9l22,25l-4,24l23,25l13,34l12,8l8,16l1,36l11,8l11,43l-2,16l6,16l14,16l-3,30l-9,7l18,35l-2,9l17,19l3,14l17,19l2,21l65,12l40,15l34,23l3,21h-12l-11,42l5,10l14,4l21,19l8,14l-4,10l3,23l-13,19l-10,30l-10,2l-6,24l-12,10l-13,-5l-10,27l1,13l-22,19l2,21l-17,20l-6,30l-9,6l-6,18l6,5l-14,29l13,17l-2,36l10,12l-8,37l5,13l-6,11l5,25l10,24l-2,44l8,60l-14,34l-6,8l-16,1l-7,19l-18,16l-14,-4l-16,28l2,30l-1,42l-20,41l-20,24l2,33l-29,20h-11l-16,26l-7,-3l-10,13l-6,22l-12,-1l-5,26l-24,40l-25,4l-10,15l-14,-3l-10,10l-11,-2l-9,32l-12,18l-30,17l-24,9l-4,17l-17,1l-11,12l2,9l-22,5l-6,-7l-30,18l-10,2l-12,14l-12,-8l-26,17l-8,17l-17,-4l-7,13l-19,-1l-9,8l-15,-7l-14,9l-18,2l-23,13l-16,1l-46,-10l1,9l-15,10l-13,29l10,4l-21,23l-7,-1l-18,12l-8,-2l-20,19l-24,32l-9,24l-16,34l-29,16l-4,10l-20,14l-8,11l-8,26l-10,4l-7,14l-15,10l-12,14l-2,27l-22,8l-3,15l2,34l-18,8l-17,24h-17l-19,18l-29,8h-12l-18,-10l-12,7l-3,15l-12,17l-10,6l-23,-8l-21,3l-6,25l-24,17l-6,9l-29,9l-17,11l-13,22l-31,-9l-8,3l-15,-26l-16,-5l-13,10l-19,-10l-25,4l-10,-10l-48,-9l-26,-9l-12,3l-16,-7l-30,-23l-25,-7l-18,-2l-28,-46l-14,6l-9,-12l-13,3l-26,-17h-23l-9,33l-16,-1l-45,30l4,10l-29,12l-31,-15l-42,-12l-8,-9l-3,-17l-9,-13l-1,-25l17,-10l-5,-15l-47,-6l-23,-11l-22,-4h-33l-34,22l-16,-11l-28,-3l-15,-12l-14,2l-27,-16l-53,10l2,12l-12,3l-5,12l-15,9l-24,4l-26,20l-17,-16l-1,-15l-16,1l-12,-10l-34,11l-4,-14l-14,-6h-26l-23,-30l0,-21l-9,-20l-26,-19l-32,9l-10,13l-25,20l-12,1l-15,-26l6,-13l-22,-17l-28,14l-35,-2l-24,-24l-4,-10l-21,16l-34,7l-28,20l-12,-6l-8,6l-12,-15l-18,-32l-3,-41l-11,-5l-8,-44l-26,-26l-11,7l-19,-5l1,15l-7,14l-31,-20l-29,-53l-47,-21l-10,8l-18,-1l-7,-16l6,-17l-20,-11l3,-24l-14,-2l-18,-11l-9,7l-3,21l-13,27l-11,4l-14,-17l-13,-48l-9,-8l-11,3l-25,-10l-17,2l-24,-5l-7,8l19,26l-5,11l-32,9l-32,-11l-25,-14l-15,7l-39,1l-8,-15l-13,-12l-24,-12l-17,-14l-32,-12l-24,-20l-3,-18l-10,-6l-15,1l-10,-17l-24,8l-8,18l-45,21l-12,-9l-12,-17l-2,-10l14,-13l-14,-16l-24,4l-18,11l-5,12l0,20l-17,11l-7,13l-15,1l-24,9l-28,-21l-15,4h-28l-13,-6l-20,-22l-17,-10l-13,-15l-7,-17l1,-16l-10,-14l-11,16l-3,19l-14,26h-16l-8,14l11,26l-1,12l10,20l-7,10l-18,1l-14,-9l0,-13l-15,-17l-26,-20l-50,-25l-7,-7l-10,-34l-2,-22l7,-33l-35,-7l-11,-7l-12,-18l-9,-31l-29,-26l-19,-33l-7,-8l-26,-11l-63,1l-13,11l2,15l-13,4l-18,15l2,20l-22,-2l-22,3l-41,-11l-44,-31l-1,-13l5,-33l-1,-31l9,-28l-22,-1l-1,19l-9,15l-12,-1l-9,-13l-31,-2l-41,-17l-18,-12l-29,-10l-35,-3l-24,-29l-22,-51l-18,-17l-22,-10l-15,2l-20,22l-3,-14l5,-14l0,-18l-21,-46l-11,-3l-5,-14l20,-37l0,-17l13,-28l-3,-12l-12,-1l-19,-14l-38,-7l-30,-31l-24,-18l-3,-20l17,-15l13,-22l0,-11l-14,-5l-21,9l-25,-12l-12,-26l-22,-9l-20,-3l-23,-15l-16,13l-16,2l-15,-20l7,-20l-6,-15l-19,-3l-21,3l-8,7l-8,20h-20l-7,-8l4,-17l-22,-22l-21,-12l-8,-28l10,-11l-28,-23l-2,-7l15,-24l-15,-32l-25,-13l-18,4l-5,14l-16,16l14,26l15,19l-23,16l-12,-2l-2,-16l-22,-17l-30,-12l-21,24l-19,3l-16,10l-5,17l-10,5l-13,-7l-2,-16l-17,-18l-36,9l-8,29l-18,12l-53,-7l-16,7l-13,17l-19,2l-26,-8l-20,8l-38,1l-16,9l6,28l1,22l-5,15l-24,8l-32,-5l-7,27l-23,9l1,12l17,24l9,27l-4,19l-13,8l-21,-3l-10,4l-5,14l-12,9l-5,22l-14,9l-8,36l12,43l-1,9l-13,6l-7,27l11,39l-19,34l2,24l-5,19l-17,9l-13,15l-18,37l-8,3l-23,-5l0,-17l-19,-11l-28,11l-1,18l17,9l0,17l-34,3l-10,29l-17,18l-40,25l-20,2l-12,-8l-4,-13l-14,-2l-10,8l-25,-9l-18,3l-19,-3l-35,2l-34,-3h-36l-10,5l20,29h15l21,7l21,16l-1,14l11,42l-15,9l-17,21l-17,8l-6,14l-28,31l-7,14l7,11l21,-2l17,14l4,40l-10,16l-14,1l-6,10l28,16l-6,23l2,17l-8,22l-16,5l-22,-20l-14,-2l-22,-17l-14,-26l-16,9l1,15l-22,18l-7,22l21,62l17,32l34,35l19,16l-6,13l-18,1l-26,-29l-10,-3l-33,4l-7,17l-18,15l-3,17l-16,37l-5,41l6,45h-21l-19,-21l-12,-4l-10,4l-9,14h-15l-25,9l-18,-22l-15,-2l-32,-14l-34,7l-4,13l17,9l3,25l-15,19l-16,28l-13,15l-6,21l4,10l-7,23l27,38l1,36l8,19l-1,40l-16,3l-10,-14l-15,-5l-11,10l-29,-6l-23,6l-19,17l-23,10l5,12l-4,21l-23,4l-18,14l-14,22l-5,24l-15,40l-45,16l-19,9l-12,25l-37,28l5,27l-13,33l-10,14l-23,9l-8,12l8,26l25,12l24,1l6,10l-6,12l-32,11l-22,-3l-11,-15l-5,-19l-42,-2l-11,8l13,14l0,8l-29,49l1,11l11,18l11,36l-1,6l-22,18l-6,-1l-23,-34l-17,-17l-48,-20l-28,41l7,11h16l5,11l-24,29l-18,3l-18,16l-35,-16l-12,10l15,15l0,14l9,10l-6,13l-29,1l-16,-4l-15,6l0,-20l-11,-9l-31,21l-6,9l-5,25l-19,3l-2,15l-16,5l-8,14l-12,6l-21,-5l-17,1l-68,29l2,17l11,17l44,15l-3,19l-12,8l-23,-28l-17,-7l-9,2l4,21l-13,9l-17,1l-17,26l-18,-9l-25,-20l-9,11l-4,22l-14,16l1,26l7,6l24,-6l25,21l33,8l21,10l6,13l-8,12l-61,-4l-23,13l-25,9l-4,14l32,11l23,20l16,18l-13,20l-6,21l-38,15l-20,35l6,13l16,5l6,17l-3,11l-24,25l-23,29l-10,27l-3,19l-9,13l-19,17l-8,29l1,24l10,6l31,-13l11,14l6,18l22,7l9,13l-22,9l-20,-10l-29,-1l-25,-8l-14,5l-15,35l-20,1l-15,-12l-18,-26l-14,-15l-14,-3l-11,18l4,32l14,16l28,13l21,40l7,23l3,30l-7,19l-15,10l-20,7l-35,-13l-5,-20l-8,-13l-38,-13l-6,1l-4,33l17,36l6,43l-13,24l-16,17l-16,-12l-23,-10l-15,-22l-11,-5l-15,3l-27,20l-10,17l-22,18l-39,14l-30,3l-14,-8l3,-34l-8,-12l-22,-6l-59,-10l-9,1l-13,18l-16,11l-38,6l-9,9l-4,16l-13,24l-2,23l5,24l-5,20l0,21l10,6l23,3l27,6l32,12l7,14l-20,32l-30,21l-44,23l-15,14l-1,20l9,18l37,20l19,2l7,-25l12,-13l17,-8l38,3l8,11l-3,39l0,68l-4,14l-12,9l-25,5h-66l-43,-8l-67,28l-23,4l-32,-3l-16,6l-23,39l-7,23l4,15l24,30l-2,20l-22,21l-40,28l-4,20l18,18l48,8l22,6l33,2l11,-3l28,-16h24l28,12l21,12l5,19l-8,7l-45,14l-28,20l-27,32l-16,30l-19,26l-17,13l-31,36l-20,35l-10,25l-42,10l-31,18l-31,6l-12,5l-23,26l-9,24l2,23l-4,28l-16,16l-28,35l-12,10l-30,-2l-57,-13l-31,-19l-44,-22l-4,-13l3,-20l24,-51l41,-36l18,-22l42,-8l26,-17l54,-27l8,-7l5,-24l-9,-26l-14,-21l-33,-23l-32,-15l-51,-27l-37,-3l-53,10h-17l-41,-4l-15,5l-9,19l-25,38l-13,25l-3,16l3,51l-9,25l-5,62l12,50l5,10l28,31l6,22l-5,31l-3,34l4,25l5,82l0,27l-16,19l-40,29l-50,23l-26,9l-10,12l-60,22l-13,6l-6,11l7,25l14,15l37,56l5,12l2,30l-3,38l-11,12l-28,18l-32,14l-17,16l-20,6l-71,-8l-33,1l-54,19l-60,9l-60,21l-12,8l-11,15l2,10l38,39l31,14l31,25l23,23l9,15l21,53l5,25l-5,30l2,22l-15,26l-32,30l-57,22l-22,11l-23,6l-51,7l-17,-2l-31,1l-68,8l-30,8l-32,2l-15,-11l-1,-20l-17,-38l-7,-28l-29,-35l-33,-21l-24,-3l-6,5l-16,32l-34,44l-1,10l9,53l2,92l-2,47l0,58l-3,60l-7,25l-11,13l-21,18l-70,42l-42,18l-15,10l-9,19l-8,47l-9,31l4,48l-6,82l1,53l-13,71l0,36l-10,27l-14,9l-56,12l-59,24l-55,15l-42,5l-36,1l-40,-13l-20,-11l-44,-19l-47,-11l-33,-6l-36,-9l-36,-17l-39,-36l-37,-42l-16,-8l-23,1l-36,19l-30,12l-61,13l-25,4l-48,4l-14,8l-55,44l-57,-79l-62,-71l-48,-75l-32,-47l-20,-31l-19,-24l-13,-29l-36,-58l-17,-19l-23,-16l-26,-21l-31,-41l-21,-51l-17,-66l0,-31l6,-27l23,-49l15,-19l58,-56l12,-31l-2,-102l-2,-41l-8,-35l-42,-116l-31,-109l-10,-69l-2,-170l0,-27l10,-59l20,-97l5,-48l-2,-31l-4,-21l-10,-14l-35,-69l-26,-62l-26,-57l-42,-77l-82,-104l-143,-132l-106,-80l-101,-68l-89,-52l-101,-35l-128,-52l-10,-6l-102,-68l-100,-74l-143,-125l-30,-21l-51,-33l-39,-22l-19,-8l-53,-30l-44,-36l-16,-19l-37,-69l-17,-20l-29,-26l-23,-12l-37,-16l-66,-3l-86,-10l-75,-28l-139,-64l-40,-19l-72,-31l-81,-29l-113,-33l-74,-31l-127,-65l-68,-31l-75,-31l-54,-34l-31,-33l-27,-41l-17,-45l-7,-51l13,-89l2,-38l-10,-42l-18,-52l-17,-59l-25,-74l-28,-66l-19,-33l-40,-24l-38,-18l-46,-26l-50,-31l-31,-38l-9,-27l-2,-20l1,-30l12,-63l17,-63l2,-38l-9,-51l-12,-31l-15,-29l-27,-40l-35,-34l-17,-20l-56,-75l-6,-12l-24,-64l-9,-38l-10,-84l1,-38l16,-74l16,-63l5,-54l16,-87l8,-32l13,-78l6,-54l1,-30l-7,-48l-6,-80l-1,-48l10,-40l35,-94l17,-58l2,-33l-2,-39l3,-54l-5,-42l-16,-32l-20,-27l-41,-23l-44,-11l-36,-14l-82,-49l-131,-78l-91,-36l-78,-23l-319,-76l-121,-24l-176,-13l-38,-12l-37,1l-122,24l-119,8l-110,22l-42,-4l-25,-12l-28,-26l-113,-117l-28,-45l-69,-96l-20,-42l-71,-152l-16,-30l-37,-60l-35,-70l-52,-131l-18,-51l-12,-61l-12,-110l-3,-62l5,-46l16,-53l18,-40l20,-37l67,-109l27,-54l22,-52l19,-61l15,-83l1,-56l12,-68l24,-116l36,-125l16,-64l1,-38l-4,-40l-9,-74l0,-60l14,-97l5,-56l3,-70l5,-58l11,-47l6,-34l-1,-51l3,-45l4,-33l1,-51l4,-34l15,-45l15,-35l23,-36l143,-127l36,-40l56,-94l33,-31l55,-32l50,-33l19,-25l11,-21l11,-36l3,-39l-8,-121l-3,-98l-5,-51l-8,-57l-9,-46l1,-51l-7,-43l-28,-120l-48,-96l-10,-33l-13,-77l-13,-43l-38,-63l-16,-15l-52,-42l-45,-18l-136,-17l-14,-6l-39,-31l-20,-30l-8,-31l-4,-35l3,-50l7,-31l12,-108l0,-54l-4,-44l-24,-94l-15,-86l-1,-46l3,-95l34,-252l20,-102l2,-38l16,-69l32,-104l17,-181l-1,-51l-16,-118l-22,-80l-3,-25l-5,-74l-10,-50l-4,-34l-4,-144l8,-61l13,-28l2,-6l41,-49l19,-29l1,-7l42,-52l18,-27l19,-36l12,-33l3,-33l2,-107l-1,-37l-5,-52l-7,-44l-16,-60l-11,-29l-21,-41l-26,-65l-15,-42l-10,-18l-26,-36l-37,-46l-12,-11l-21,-11l-34,-28l-31,-41l-31,-61l-19,-45l-18,-32l-29,-42l-25,-54l-23,-37l-32,-79l-24,-51l-14,-25l-15,-39l-47,-91l-25,-40l-12,-26l-8,-27l-6,-37l-9,-76l-1,-23l5,-74l0,-40l-3,-35l-6,-26l-15,-91l-14,-56l-17,-54l-7,-40l-5,-27l-21,-73l-3,-28l1,-35l6,-34l-7,-17l-3,-22l3,-14l19,-12l-5,-42l2,-26l-6,-42l-18,-78l-14,-34l-10,-39l-7,-43l-3,-53l-44,-99l-21,-36l-19,-25l-63,-59l-44,-50l-36,-29l-43,-31l-72,-48l-26,-19l-88,-95l-25,-26l-21,-29l-67,-87l-21,-24l-53,-87l-15,-34l-14,-20l-51,-54l-78,-79l-72,-78l-25,-20l-21,-21l-36,-69l-7,-25l-8,-41l-22,-53l-20,-43l-73,-102l-48,-74l-59,-81l-29,-49l-31,-58l-41,-90l-13,-38l-3,-37l7,-83l-4,-54l-8,-52l-13,-40l-16,-37l-19,-31l-57,-84l-55,-68l-13,-20l-25,-52l-19,-67l-32,-117l-25,-85l-22,-55l-26,-51l-31,-70l-46,-187l-19,-57l-10,-44l-15,-48l-32,-67l-18,-44l-5,-17l-4,-15l-7,-55l1,-96l12,-43l18,-35l33,-59l22,-68l-1,-27l13,-71l2,-54l-4,-35l-22,-71l-9,-34l-50,-85l-42,-89l-22,-25l-36,-70l-5,-22l-4,-29l3,-21l25,-91l24,-92l-1,-60l0,-69l5,-47l9,-70l2,-74l-1,-54l-7,-67l-1,-59l-6,-50l-3,-45l-9,-64l-16,-70l-13,-109l-19,-76l-23,-86l-22,-87l-32,-71l-51,-95l-62,-107l-30,-61l-32,-89l-15,-56l-3,-27l2,-61l5,-47l13,-51l17,-44l28,-52l33,-51l43,-54l42,-63l8,-25l26,-52l29,-27l27,-16l29,-10l31,-18l13,-32l13,-24l15,-48l2,-37l6,-24l15,-35l9,-31l2,-37l-1,-34l3,-27l-5,-12l-2,-24l3,-20l22,-32l18,-53l0,-33l-6,-98l0,-64l-7,-39l-21,-27l-35,-23l-54,-40l-21,-23l-35,-150l-7,-39l1,-25l11,-46l30,-83l151,-89l35,-23l44,-39l74,-68l64,-55l25,-37l18,-42l9,-52l15,-126l-1,-72l-28,-227l-1,-45l-23,-54l-14,-13l-16,-24l-62,-61l-55,-30l-48,-31l-54,-70l-40,-81l-25,-75l-27,-82l2,-88l23,-75l63,-99l51,-51l33,-26l26,-28l14,-19l127,-298l16,-52l22,-88l16,-80l15,-68l0,-55l-7,-40l-16,-31l-66,-38l-72,-29l-78,-26l-49,-31l-231,2l-43,2l-49,10l-26,11l-50,35l-39,38l-67,71l-30,40l-15,17l-16,12l-35,14l-12,9l-21,27l-13,5l-38,-4l-25,5l-13,11l-35,19l-23,29l-13,2l-82,-23l-7,1l-21,15l-26,3l-16,-6l-49,-29l-22,-11l-10,-11l-6,-16l-5,-54l-22,-16l-14,-1l-32,15l-34,3l-16,6l-25,16l-45,6l-34,-5l-19,-7l-38,-22l-45,-11l-15,-15l-4,-41l-17,-25l-30,4l-28,-2l-28,-35l-15,-1l-31,13l-30,21l-23,28l-23,42l-22,8l-10,-10l-7,-27l-12,-14l-29,-6l-50,10l-41,19l-27,2l-14,-11l-22,-12l-65,-14l-13,-7l-43,-7l-17,11l-27,4l-12,-3l-34,34l5,12l-21,11l-12,15l-26,38l-6,18l-12,6l-12,-8l-33,9l-16,9l-10,-32l7,-22l-10,-10l-12,-2l-13,-15l-16,-10l-4,-49l-19,-28l-13,-2l-9,-18l-20,-10l1,-7l-26,-2l-24,21l-13,-6l-1,-16l16,-18l-21,-13l-20,-5l-12,-18l9,-18l-2,-24l-5,-10l5,-20l-2,-11l9,-20l-6,-18l-23,9l-12,-2l-21,5l-5,-15h-10l-12,-20l-8,6l-18,-4l-32,5l-14,23l-9,4l-17,-8l-38,-28l-6,-7l-5,-29l-11,-11l-4,-20l-7,-9l-2,-36l-24,-7l-13,11h-11l-14,33l-21,4l-10,9l-26,6l-16,-9l-3,-20l8,-10l-5,-52l-10,-18l-22,-10l-22,6l-9,-7h-26l-25,-8l-12,1l-21,13l-9,11l4,9l-24,7l-8,-6l-1,-23l-21,-14l-18,-26l-14,12l-19,-2l-10,7l-8,-19l-16,-11l-1,-15l-17,-5l-7,-8l-30,8l-6,-35l-9,-9l10,-12l20,-10l6,-41l-3,-15l-13,-28l-11,-11l-1,-18l-10,-21l-9,-8l-8,-29l-1,-29l-11,-11l3,-16l-4,-19l-34,-13l-18,-34l-11,-7l-13,-26l2,-16l-8,-12l4,-22l-10,-16l-10,-40l-9,-8l-39,-27l-1,-19l-84,-447l11,-18l42,-30l20,-7l13,-16l-6,-34l16,-26l-3,-35l19,-27l3,-20l-15,-35l0,-21l-15,-13l-12,-27l6,-22l26,-5l17,7l14,-11l29,6l6,-6l20,-6l5,-35l13,-16l1,-10l19,-17l10,-16l35,-18l9,-24l9,-11l5,-17l36,-8l14,-15l9,-27l17,-11l27,-6l15,10l26,7l21,-10l19,-5l23,3l27,-2l15,32l22,6l14,-16l10,-21l5,-32l10,-45l14,-6h16l23,-11h28l17,-8l30,-2l12,-12l5,-17l-2,-22l11,-43l15,-27l24,-4l0,-25l7,-23l16,1l16,-14l5,-14l10,-8l33,-16l12,-1l21,-26l20,-12l28,2l36,-12l12,-9l0,-10l9,-15l1,-14l-6,-36l-12,-16l-41,-33l0,-22l-11,-30l-9,-14l33,-55l14,-29l-4,-20l3,-13l10,-12l-9,-15l13,-3l39,9l9,-5l6,-15l-30,-10l-10,-20l-14,-5l-18,-20l-24,-15l-17,-20l-30,-2l-26,7l-18,-18l-10,1l-30,25l-23,17l-3,21l-9,2l-20,-11l-35,-38l-2,-10l16,-17l15,-4l-4,-27l2,-22l-7,-17l-31,-34l-26,-15l-63,-20l-16,-22l-28,15l-17,-5l-16,1l-12,-12l-23,18l-14,-6l-12,-41l-33,-32l-29,-16l-20,11l-1,19l-8,2l-13,-16l14,-28l-30,-35l-6,-18l-5,-32l18,-5l-2,-19l-41,-14l-33,-16l-40,-1l-6,-5l-10,-24l-14,35l-57,7l1,-29l-17,-3l-26,-34l-24,-2l-33,-29l-28,-7l-5,-15l-14,2l-10,28l6,18l-4,6l-19,-23l-2,-12l6,-53l12,-18l3,-51l-30,-17h-14l-7,8l-27,19l-24,1l-13,-10l5,-28l7,-5l6,-17l-4,-17l-13,-13l-30,-4l-2,-19l-48,-34l-26,-8l-30,-4l-38,4l-7,-10l-46,-8l-15,12l-24,-1l-20,3l-26,-19l-56,-17l-1,-18l-32,-14l-19,10l-10,16l-32,-10l-18,-17l-23,9l-5,-10l4,-15l-4,-14l-18,-30l-22,-1l-19,-8l-7,-11l9,-24l35,-14l14,-10l1,-14l14,-15l-7,-20l-5,-25l15,-8l-29,-44l-23,-26l-15,-50l-11,-11l-6,-16l-17,-11l6,-48l-30,-26l-13,-6l-28,-2l-4,20l-17,7l-31,-6l-11,-7l-1,-20l8,-13l-9,-9l-27,-1l-10,-9l-18,-29l-21,-14l-27,13l-14,19l-18,18l-14,-12l-18,-2l-14,-23l-15,-6l-6,-10l-13,-2l-18,-12l-20,-8l-18,9l-14,-8l2,-11l-10,-16l25,-26l7,-20l1,-17l10,-6l13,-31l1,-22l19,-19l-27,-23l-9,-18l4,-30l6,-16l-8,-13l9,-12l1,-37l-12,-6l-20,-41l8,-27l-1,-11l11,-19l-7,-15l4,-13l-5,-15l-13,-18l5,-13l-12,-17l-12,-5l-11,-20l3,-9l-12,-8l0,-17l-12,-15l5,-12l-7,-15l8,-13l27,-16l0,-17l9,-14l5,-34l14,-16l-15,-21l8,-6l-16,-28l-25,-15h-16l-6,-8l-37,-16l5,-10l-25,-25l-16,-9l-3,-13l-16,-8l-10,5l-11,-9l-16,-33l-13,-8l24,-13l3,-13l10,-11l0,-11l-12,-21l11,-20l-6,-52l19,-21l5,-36l-10,-35l14,-12l3,-10l31,-15l28,-21l32,-10l-5,-29l16,-16l3,-24l-38,-17l-22,-4l-8,-8l-5,-18l0,-23l-11,-28l-33,-3l-12,-20l3,-31l-10,-17l-2,-43l18,-10l7,-11l-2,-16l10,-17l-19,-14h-11l-14,-18l-5,-29l6,-30l13,-2l10,-10l18,-7l3,-16l15,-4l7,-17l18,-19h25l17,-17l8,8l11,-8l10,3l19,-8l2,-16l14,-13l14,-38l-7,-37l13,-9l-10,-35l11,-14l3,-14l15,-12l0,-13l23,-9l29,-19l14,-23l49,-28l4,-19l-3,-26l-8,-18l0,-12l14,-14l-5,-9l17,-15l-2,-22l1,-35l27,-32l28,-8l16,-18l12,-18l18,-8l14,-23l-1,-23l8,-23l15,-10l13,-22l-2,-11l11,-16l-3,-31l-5,-8l3,-15l-5,-24l6,-10l1,-25l-3,-10l0,-24l14,-28l-4,-48l5,-18l0,-20l20,-8l12,-26l-6,-22l16,-23l9,3l0,-34l-18,-14l-7,2l-15,-25l-2,-23l-12,-22l-4,-44l4,-10l1,-28l-2,-22l-16,-19l-17,-6l-16,-20l-6,-16l5,-18l-4,-33l-14,-37l2,-13l-5,-13l-17,-14l-1,-20l-41,-15l-12,-39l-10,-13l36,-26l21,-7l22,-14l10,-29l13,-23l22,-18l20,-3l25,5l89,34l25,2l27,-18l43,-43l24,-16l13,-4l56,2l28,7l28,10l22,19l23,10l23,17l46,18l18,2l14,-7l33,-41l12,-20l2,-20l8,-16l38,-26l21,-9l22,-3l47,-26l22,-20l37,-52l3,-12l17,-28l35,-36l22,-14l21,-20l27,-7l26,3l43,21l66,-5l28,-7h21l62,9l49,-23l17,-5l38,-1l21,4l15,39l12,11l17,6l11,-3l8,-32l1,-23l-4,-37l6,-24l14,-27l40,-36l10,-17l15,-55l-1,-39l-9,-27l-10,-21l0,-14l15,-19l8,-4l47,4l59,27l23,26l48,35l29,39l13,41l68,72l32,7l27,11l52,3l22,-2l45,-9l47,-19l19,-31l3,-25l-2,-22l-14,-24l-18,-19l-22,-14l-24,-12l-31,-32l5,-27h13l26,-11l27,-22l47,-9l10,6l-16,32l-2,23l16,41l32,38l7,2l18,20l54,15l19,1l25,-16l21,-5l17,9h16l13,-10l28,-8l55,-5l27,4l18,24l9,49l10,12l1,48l-16,37l-7,36l-9,27l5,32l10,4l41,-9l36,11l29,18l13,43l7,64l-4,14l-35,31l-35,2l-17,13l-43,27l-9,32l0,31l9,32l22,28l24,6l13,10l29,-5l14,3l39,-5l19,5l26,19h24l9,-6l64,-4l29,12h18l26,19l1,11l-5,21l30,27l17,5l5,9l22,14l27,3l6,-10l19,7l21,3l1,19l35,7l3,-21l34,-10l17,6l36,-2l16,7l18,-11l24,-3l9,6l31,-4l11,2l37,17l14,30l3,16l20,15l12,1l15,22l3,22l27,21l14,1l28,18l7,12l17,8l17,20l19,-3l27,4l22,-7l11,-10l38,22l8,10l18,6l21,-3l14,5l30,1l9,10l16,1l19,-7l5,10l24,18l59,34l26,19l38,-32l48,-24l49,-24l38,-37l13,-50l0,-89l-4,-204l-15,-87l-5,-68l8,-47l6,-50l5,-73l-32,-97l-33,-71l-35,-69l-36,-93l-54,-126l-34,-64l-58,-81l-116,-136l-57,-89l-45,-62l-69,-65l-37,-25l-20,-14l-52,-27l-125,-57l-230,-107l-34,-11l-72,-29l-36,-29l-32,-43l-21,-53l-22,-82l-18,-47l-27,-80l-22,-58l-27,-43l-35,-30l-70,-51l-41,-34l-43,-31l-36,-39l-26,-43l-18,-40l-10,-40l-5,-53l5,-47l8,-32l19,-55l20,-82l9,-24l18,-31l42,-50l28,-36l16,-29l11,-31l4,-37l7,-102l9,-101l20,-50l16,-26l41,-75l14,-23l52,-54l23,-21l20,-31l4,-52l-9,-86l7,-80l34,-121l46,-97l57,-112l85,-191l42,-75l19,-40l32,-84l8,-13l72,-91l88,-72l74,-77l33,-41l28,-42l12,-26l29,-47l11,-28l18,-50l6,-33l-2,-43l-6,-28l-36,-115l-24,-114l-6,-60l-4,-54l-8,-47l-23,-95l-27,-89l-46,-102l-41,-70l-44,-93l-6,-7l23,-46l10,2l-3,20l33,16l18,-14l0,-20l-17,1l-5,-12l-19,-12l7,-14l-3,-14l-9,-3l-3,-16l-10,-5l-3,-15l12,-5l-7,-38l-15,-18l5,-21l-6,-16l-21,-25l11,-7l0,-16l-14,-5l-13,-16l-5,-14l10,-9l3,-13l15,3l-7,-29l-10,-4l9,-20l-6,-7l12,-12l3,-19l-6,-15l-10,-10l-3,-13l14,-18l5,-16l13,-13l14,-23l-12,-19l8,-10l-1,-15l18,-6l9,-13l16,5l0,-15l21,-5l30,-21l13,-3l0,-14l21,-33l-11,-22l16,-31l-13,-8l14,-11l-33,-31l4,-18l-8,-11l14,-15l23,-36l-4,-8l14,-51l12,-12l-9,-14l-2,-18l-11,2l-11,-13l-14,-8l6,-10l-15,-13l-5,-28l3,-25l-35,-52l-17,-8l-7,-15l-23,-2l7,-12l0,-18l19,-3l2,-14l19,-11l10,-21l5,-36l-3,-13l12,-8h16l4,-9l14,-3l19,-19l-3,-11l16,-6l32,-27l-4,-20l-15,-5l2,-31l8,-4l1,-29l24,-16l-27,-29l11,-18l-9,-19l-11,2l-3,-15l-27,-13l16,-20l0,-29l-17,-21l10,-8l-6,-17l3,-15l26,1l23,-23l-6,-6l14,-18l-12,-27l11,-2l18,-17l-1,-23l-10,-15l21,-9l20,-28l-6,-17l11,-5l11,-28l11,8l9,-5l-4,-18l8,-12l-1,-25l-11,-21l0,-15l8,-9l2,-18l14,-18l-1,-14l14,-14l1,-9l14,-17l21,8l5,10l18,-12l23,-20l-1,-15l27,-10l21,-11l11,-25l-1,-15l17,-3l11,8l13,-14l11,1l10,-36l0,-18l-9,1l-13,-15l11,-32l9,-12l30,-7l7,-16l12,-4l21,12l13,3l6,13l10,3l15,-10l4,-12l-16,-7l2,-14l17,-2l12,-9l4,-15l16,1l12,-18l-24,-21l7,-19l1,-22l-7,-41l3,-18l12,5l0,-21l10,-12l15,-8l1,-9l14,-10l-8,-15l32,-26l-6,-8l-19,-5l3,-17l-4,-12l-15,-13l-1,-25l-14,-17l0,-9l19,-21l19,-34l18,11l5,-13l14,11l35,14l20,-15l2,-11l10,-16l-2,-26l12,-5l22,12l14,-7l21,2l20,-9l-1,-30l15,6l3,-13l27,5l-18,-20l13,-18l1,-23l-9,-26l12,-7l4,-23l-13,-20l10,-10l7,-18l-5,-31l28,-15l7,-18l15,7l17,-17l-11,-16l-12,-5l8,-14l-1,-21l-9,-16l12,-45l2,-15l-9,-14l-14,-10l7,-17l-19,-14l18,-9l-15,-15l-4,-26l11,-12l0,-12l-15,-8l1,-11l-8,-22l17,-6l-10,-11l-15,-6l-8,-16l0,-18l-16,-16l10,-13l25,-9l18,-15l13,-7l10,-45l-1,-25l-6,-16l-8,-7l1,-12l25,-29l15,-39l-8,-9l4,-23l-5,-6l-1,-29l-13,5l-12,-53l-7,-4l9,-17l-9,-9l24,-36l-15,-17l-15,-26l-1,-22l5,-15l-15,-26l7,-15l-2,-34l11,-29l-8,-12l7,-14l-5,-21l16,-11l23,-32l-5,-14l8,-13l-2,-25l9,-20l-2,-21l18,-23l1,-10l18,-12l-1,17l21,-11l10,-22l-12,-20l21,-40l22,-20l11,-33l-12,-3l-2,-21l10,-5l-4,-17l0,-40l5,-33l-10,-10l2,-32l-13,-30l23,-2l-1,-8l18,-18l9,-22l-9,-9l14,-16l23,-49l-7,-10l-17,5l3,-15l-14,-7l-5,-19l6,-16l-2,-24l14,-7l6,-10l18,-10l9,-16l-12,-13l31,-2l16,9l17,5l50,-16l25,7l13,-18l4,-19l17,-10l14,-19l-9,-5l41,-25l-5,-16l-18,-14l-4,15l-17,-13l-11,-22l-12,-11l-1,-15l-17,-8l3,-16l-13,-15l-17,-10l14,-14l-15,-9l-8,-19l10,-5l9,-39l7,-15l-6,-10l-2,-22l-12,-4l3,-27l-12,-19l19,-22l0,-19l16,-19l29,-17l10,-13l20,-18l-3,-10l-16,9l-6,-5l15,-24l-14,1l5,-22l12,-13l-6,-11l17,-11l-16,-11l-3,-17l19,-2l-40,-22l25,-8l6,-19l24,7l7,-13l-7,-10l12,-9l-1,-14l-24,-6l-1,-11l21,-8l1,-7l19,-7l-11,-17l31,-14l16,-15l5,7l24,-6l6,-9l-12,-8l1,-12l19,-12l24,-36l24,-19l0,-8l35,-17l-9,-11l19,-5l7,-12h13l13,15l17,-7l8,8l30,-2l11,-23l18,-2l11,-10l17,-4l8,-8l-12,-11l18,-6l-4,-13l0,-27h-20l7,-12l16,2l5,-21l31,-10l0,-13l39,10l-5,-15l17,-9l15,-30l17,10l8,-10l14,9l-1,16l29,-2l24,14l9,-17l13,-2l5,-10l-5,-17l12,-7l-2,-17l11,-6l8,-20l20,8l9,-4l2,-14l13,-6l9,-18l20,-12l9,-14l51,-22l17,-17l28,-39l47,-6l-5,-9l9,-9l24,2l16,-20l25,-11l36,-10l21,-14l5,-10l34,-25l39,-3l72,-30l20,-27l-3,-13l27,-1l18,-11l9,-13l2,-18l28,-12l16,1l9,-17l22,-19l-15,-13l-18,5l-3,-23l-10,-15l2,-13l-9,-9l8,-23l-17,1l-3,-19l36,-16l20,-33l16,-1l5,-9l17,-7l-8,-10l7,-29l9,-3l5,-15l9,-4l3,-28l-4,-24l-11,-9l-16,-27l-18,-22l0,-13l-22,-6l4,-18l-10,-20l18,-22l-13,-4l-6,-10l14,-15l18,3l8,-6l-19,-15l12,-15l7,-25l16,1l17,-11l31,7l7,-12l25,-25l23,16l0,18l19,3l24,-26l13,-8l0,-27l50,-22l23,15l16,4l11,-24l21,-1l15,5l20,23l-11,25l1,20l12,14l-3,17l16,5l12,12l23,34l7,19l13,9l21,-6l12,-12h18l12,-9l11,-21l9,-3l24,-23l31,-7l7,-20l-13,-8l1,-10l-11,-7l9,-22l-8,-9l10,-17l12,-5l11,23l12,-5l37,-3l15,5l12,-22l15,-1l2,15l12,2l12,-7l9,-15l-14,-15l-25,-4l9,-25l13,-4l70,-42l36,-7l13,-12l46,-26l25,-29l20,-12l12,-12l12,-2l27,-16l21,-5l12,2l15,-17l-8,-20l10,-8l1,-12l-10,-13l-4,-39l1,-37l-10,-28l-11,-4l-9,-18l1,-11l-25,-20l-3,-16l12,-22l2,-24l8,-12l13,-9l42,-10l19,-11l10,-19l18,-12l19,-24l0,-20l21,-19l34,-13l18,-12l-135,-207l-5,11l14,28l-3,20l6,10l-1,18l5,14l-6,13l-10,34l-15,16l-29,9l-17,-3l-48,7l-9,-34l1,-11l-9,-23l-11,-3l-10,-14l-31,-6l-1,-11l-25,-13l0,-20l-16,-3l-5,-14l-28,-12h-17l-15,6l-22,-19l-7,-19l-18,8l-22,-16l-11,-18l-1,-14l-15,-6l-7,-22l-9,-8l6,-21l10,-9l3,-14l13,-31l-7,-5l-5,-18l-13,-7l-20,-29l0,-12l-19,-31l10,-21l-9,-23l11,-18l25,-19l10,-2l3,-50l7,-7l-5,-37l-22,-16l-19,-19l2,-9l-20,-9l-8,-13l7,-13l-16,-8l-3,-12l-11,-4l-18,28l6,13l1,27l-22,19l-11,4l-21,-1l-7,14l-2,18l-7,16l-18,12l-8,14l3,26l-8,11l3,15l12,14l-26,14l-7,9l-20,3l-15,-6l-11,-13l-14,7l-31,-5l-14,3l-19,-6l-23,12l-17,-5l-33,2l-25,-4l-17,28l3,16l-12,30l-14,15l-29,11l-14,-1l-23,11l-13,-2l-22,22l-14,19l-11,7l-23,-3l-29,3l-11,4l-18,-4l-9,88l-33,-18l-30,-20l-26,-11l-19,-1l-14,-13l-17,-5l-19,-11l-3,-9l-24,-17l-4,-11l-28,-18l-12,8l-31,-1l-15,-10l-18,-3l-16,-13l-32,-7l-24,18l-7,19l-14,5l-18,-7l-18,-27l-2,-16l-15,-14l-2,-12l-11,-20l3,-15l18,-35l-4,-27l-12,-23l-1,-15l-18,-18l-5,-19l-13,-31l-1,-22l-10,-15l-4,-21l-13,-9l-19,-25l-8,-5l-15,2l-22,17l-34,7l-24,-9l-40,-1l-15,-48l0,-38l16,-6l52,-60l-8,-51l-9,-23l-24,-31l-9,-46l-1,-22l-8,-40l-16,-24l-37,-37l-29,-22l-167,-171l27,-19l83,-53l65,-43l53,-61l154,-119l107,-77l56,-34l24,-24l12,-31l6,-36l-1,-31l-6,-57l-17,-71l-3,-52l-1,-47l6,-42l17,-78l21,-39l37,-44l33,-25l46,-22l30,-17l29,-22l16,-21l21,-49l30,-103l-14,-71l-46,-82l-158,-146l-42,-59l-26,-25l-42,-55l-28,-71l-11,-69l1,-36l13,-58l12,-35l33,-2l66,8h47l42,-8l65,-5l76,-10l120,3l58,-7l33,-36l14,-64l-3,-55l-25,-59l-34,-25l-85,-33l-94,-41l-26,-30l-8,-19l-4,-45l13,-46l37,-67l15,-53l1,-62l-4,-59l-40,-75l-21,-9l-75,-42l-78,-46l-114,-10l-129,-30l-147,-42l-33,-11l-11,-10l6,-21l47,-45l100,-70l110,-93l119,-64l33,-29l4,-20l-10,-15l-26,-16l-25,-5l-83,12l-33,1l-25,-8l-25,-21l-6,-30l0,-33l16,-31l16,-53l10,-52l7,-58l-2,-30l-9,-38l-13,-34l-24,-24l-26,-17l-16,-17l-26,-46l-27,-29l-41,-34l-17,-29l-9,-31l0,-27l6,-28l11,-23l10,-41l15,-46l17,-25l26,-21l61,-27l59,-14l38,-7l43,-12l72,6l71,-6l16,14l3,58l8,9l24,-6l27,-32l6,-22l0,-27l-5,-46l-14,-62l-26,-77l-95,-116l-23,-19l-26,-14l-56,-17l-19,-15l-15,-21l-24,-40l-4,-25l3,-56l10,-33l10,-19l15,-20l31,-21l29,-7l33,4l32,16l40,33l26,13l19,3l33,-2l29,-8l57,-23l43,-12l31,-11l15,-16l8,-25l2,-84l-14,-31l-55,-67l-25,-45l-38,-57l-39,-99l-7,-30l11,-40l2,-89l6,-19l18,-31l9,-38l18,-37l56,-119l84,-94l11,-13l129,-103l90,-142l53,-112l24,-22l15,-63l2,-75l3,-15l-5,-99l9,-61l16,-41l26,-51l21,-24l22,-32l42,-91l13,-24l31,-68l23,-77l-1,-15l9,-22l41,-60l9,-10l25,-16l37,-16l41,-26l44,-41l23,-42l13,-18l32,-71l14,-43l-4,-40l-8,-21l-12,-22l-15,-14l-27,-16l-15,-26l-10,-45l2,-64l7,-62l22,-49l5,-41l-4,-106l-49,-91l-11,-72l0,-46l17,-42l24,-27l23,-19l22,-25l9,-22l10,-100l9,-28l22,-37l28,-30l30,-28l38,-37l11,-28l-2,-25l-10,-22l-41,-52l-29,-26l-17,-26l-17,-42l-8,-35l7,-55l1,-32l-4,-42l-5,-14l-20,-26l-11,-41l-3,-66l-3,-10l-5,-18l-16,-18l-51,-36l-25,-23l-13,-25l-8,-25l-1,-40l8,-33l-2,-18l-10,-19l-17,-10l-36,-13l-16,-12l-9,-20l-15,-46l-6,-12l1,-25l13,-39l7,-34l4,-49l19,-47l30,-27l42,-31l13,-16l3,-19l-3,-12l-13,-18l-31,-24l-28,-18l-30,-29l-36,-45l-15,-34l-6,-39l6,-26l8,-18l16,-9l53,-11l12,-8l22,-29l8,-21l12,-55l-12,-44l-2,-31l4,-31l28,-82l1,-33l-5,-11l-27,-30l-36,-30l-49,-47l-9,-10l-23,-49l-17,-29l35,-14l1,-15l12,-31l11,-2l20,11l-2,12l9,12l23,-17l1,-12l17,-20l-2,-16l17,8l-5,8l7,46l20,-8l14,-40l18,8l13,13l24,-3l26,4l9,-3l12,21l14,13l37,10l23,4l15,14l30,-3l47,19l55,10l0,28l-5,17l28,16l29,-14l13,-2l11,23l19,3l3,-9l30,17l2,13l18,1l12,-9l3,-14l25,-21l16,-6l16,7l11,-2l26,14l6,10l-8,12l-16,5l0,10l14,7l20,-1l12,-13l3,-19l16,6l-1,11l15,1l6,17l29,-12l20,-17l-5,33l10,7l15,-5l14,7l-2,13l10,13l-16,3l-6,11l25,17l-7,43l22,10l-13,28l10,41l10,-7l17,5l13,-16l8,17l-7,34l5,14l-3,17l-7,11l5,18l-4,11l-24,13l7,37l-9,20l4,14l-10,23l-17,11l-12,17l2,10l22,2l8,6l-8,17l23,10l18,-9l34,-2l38,23l11,2l19,19l17,-35l16,-1l7,-20l16,4l4,19l23,-6l-7,-27l6,-17l11,-15l-19,-23l-14,-4l10,-13l5,-20l14,-8l13,1l9,-33l11,-12l30,11l25,-5l19,14l18,6l39,4l37,-9l28,-25l-5,-34l8,-23l19,-27l-36,-11l-9,7l-12,-7l12,-25l18,-16l-16,-12l-5,-14l4,-11l18,-4l19,21h14l-3,-25l35,-11l-8,-18l-1,-15l20,-7l13,6h23l12,-4l16,20l19,5l11,-7l22,3l35,13l14,-9h21l26,8l24,18l16,6l8,-17l36,10l8,-5l7,-20l19,2l18,10l24,-10l18,-19l-5,-15l32,-22l8,-13l-1,-13l6,-27l13,-32l2,-18l9,-11l2,-14l19,-2l4,8l17,-9l7,-9l20,-39l3,-17l-1,-33l7,-20l-3,-30l1,-10l31,-8l14,-8l7,9l23,12l7,9l21,-7l10,17l22,3l12,11l27,-13l19,-12l-1,25l9,12l22,16l18,2l1,-18l29,2l14,12l-21,8l12,37l9,16l16,14l0,18l8,17l23,39l12,7l31,-16l2,-18l17,1l14,-15l17,17l15,7l5,9l26,-3l23,-38l3,-25l9,-9l13,2l22,20l15,-7l12,-16l13,11l32,1l11,-10l15,-3l3,-9l24,-19l4,-33l-8,-23l15,-2l4,-38l24,-3l12,-8l9,6l10,23l13,6l11,14l2,12l12,2l0,-19l13,-8l1,-20l21,-1l-3,-37l9,-2l7,-25l28,-28l11,-4l16,12l30,-5l16,14l22,-6l19,-13l46,15l28,20l-7,14l16,12l22,-2l30,7l16,-6l12,4l18,-6l12,4l13,-7l45,-10l15,-15l34,-8l19,10l23,-1l31,25l18,6l13,-3l24,3l18,11l17,1l42,14l25,-6l24,-15l16,-21l4,-14l27,-5l19,-12l24,-10l7,-14l-2,-16l10,-18l27,-2l20,-18l53,-22l340,-399l281,-331l564,-662l26,23l5,49l-8,18l1,17l12,16l-3,40l5,13l12,14l12,30l10,13l15,36l14,8l33,41l16,6l23,21l15,8l7,20l15,16l13,-2l18,8l-3,16l4,23l15,11l5,18l-2,13l-16,21l10,33l22,18l14,30l22,33l21,18l27,-5l9,4l6,27l10,7l16,46l2,25l10,9l2,30l5,12l26,-9l7,-8l18,2l-1,22l9,15l18,-6l7,19h15l10,7l1,19l7,20l15,27l4,29l-16,26l20,20l14,28l-18,14l-21,-15l-12,10l-11,20h-31l-16,6l-32,-3l-17,11l1,17l-11,13l-23,-2l-17,11l7,28l-3,16l-28,18l-39,40l-7,15l12,47l-1,27l-13,13l-10,27l-6,31l-15,15l-6,39l13,34l-5,10l-25,7l-4,6l9,17l18,13l3,9l-3,45l-7,29l-21,26l-20,35l-12,13l-18,9l1,11l34,-3l14,23l-3,27l-19,28l2,9l14,21l5,28l14,32l0,15l-10,19l3,15l-6,29l4,18l8,6l19,-2l48,12l5,6l4,32l26,6l13,8l-11,12l-4,14l28,19l26,8l-14,42l-33,52l-8,27l-24,22l-4,33l8,24l10,19l-24,10l-15,36l-34,27h-25l-8,8l7,18l18,5l14,23l-17,41l-1,15l4,48l-20,-2l-19,6l-26,-5l-9,15l-19,-6l-15,1l-5,12l16,4l0,31l-7,10l-18,6l-11,12l8,25l24,6l27,-3l15,8l-4,17l-14,13l-23,8l2,22l14,12l24,6l1,18l-40,10l-4,15l6,9l34,23h17l8,-14l12,4l-10,35l19,13l17,24l-21,3l-6,11l13,40l12,17l3,16l-7,16l-24,-5l-19,3l0,21l-10,21l-19,11l-14,-4l-2,-16l-25,-3l-6,30l-20,13l-2,16l7,8l25,9l7,11l27,16l23,34l13,9l39,-3l14,5l-11,31l1,8l13,16l9,19l10,9l14,-6l45,-3l15,7l-6,25l14,29l-24,2l-29,44l17,-1l14,19l-20,26l5,15l-6,8l-14,-1l-6,16l40,28l3,17l-8,23l-8,13l4,30l38,37l75,29l11,12l-8,33l1,44l10,38l19,-53l17,-18l18,-7l32,-3l29,10l16,12l17,28l17,7l15,-1l11,-7l17,-2l16,-13l89,-37l24,-6l45,-31l23,-22l33,-1l37,13l30,-3l26,-6l51,3l13,-1l28,-12l26,-7l47,-20l16,-29l11,-12l3,-18l-21,-65l-11,-22l-12,-16l-9,-18l2,-15l-8,-29l-18,-26l-2,-48l2,-13l30,-78l-1,-20l3,-19l-3,-51l-4,-21l2,-25l6,-24l-4,-34l8,-31l24,-36l36,-15l12,-15l18,1l24,-5l36,-17l35,-4l36,-12l12,-11h11l17,10l7,21l38,32l13,6h17l49,10l15,11l36,3l37,-10l36,-24l25,-32l28,-10l45,4l20,5l49,18l31,24l32,15l39,7h24l39,-9l25,-14l9,-10l0,-12l-15,-28l-26,-59l-16,-31l-11,-37l-31,-71l-6,-23l10,-57l10,-26l25,-22l43,-9l117,-33l23,-4l51,5l29,8l49,27l18,7l39,5l45,-3l20,-7l21,-19l19,-25l14,-12l28,-43l6,-19l-2,-24l-14,-12l-49,-10l-23,-1l-73,-19l-20,-3l-17,-7l-12,-13l-14,-26l-7,-33l5,-21l28,-36l43,-25l24,-9l39,-37l41,-44l9,-28l1,-28l-6,-20l-13,-25l-5,-22l24,-47l13,-18l15,-30l32,-15l33,1l12,7l34,29l12,32l0,53l6,36l11,20l14,15l67,35l36,17l21,14l53,24l23,3l43,-9l10,15l4,22l-20,58l-4,21l6,14l-14,21l2,10l26,28l15,22l19,12l12,1l27,-15l9,2l19,14l8,37l4,27l9,29l17,13l15,5l40,3l19,-9l11,-31l0,-34l29,-12l20,-20l32,-14l16,-1l20,-9l7,-9l16,-5l6,-21l8,-11l2,-26l8,-6l30,-2l25,14l18,2l13,-9l16,3l36,24l18,-6l30,-24l37,-11l35,-19l8,-20l27,-42l8,3l30,38l26,18l20,9l32,6l28,12l61,10l31,-5l15,-8l12,12l19,2l15,-21l4,-14l-2,-21l-6,-9l13,-18l24,1l48,9l-6,-18l-14,-10l-26,-10l1,-9l21,-34l54,-12l16,5l18,42l3,26l6,10l24,11l7,18l-10,19l3,8l51,26l21,-3l15,11l6,19l-11,21l2,23l-5,39h16l10,13l12,5l35,-6l31,8l27,15l17,-6l6,13l15,7l4,9l25,24l3,16l-29,33l-6,22l4,20l-11,33l3,14l-5,21l3,10l18,11l2,10l22,1l20,6l20,-3l11,5l9,14l4,22l40,-4l40,12l18,27l-16,18l5,14l34,9l-8,20l9,17l46,12l17,-3l21,-22l17,-3l35,4l12,12l9,17l12,6l55,-3l11,-6h34l22,-4h36l21,16l10,18h33l39,12l29,17l12,-10l-4,-21l24,-6l16,-15l24,-6l10,-15l-12,-34l-18,-19l-31,-10l-25,-15l-4,-12l7,-10l44,-20l19,-2l21,-11l16,13l12,1l16,-28l17,-13l14,-4l24,6l8,19l28,36l22,-14l31,-3l18,-34l8,-2l28,16l20,22l27,15l14,3l40,3l35,-4l19,10l18,30l5,42l-1,40l-7,48l-7,5l-27,-15l-19,-1l-13,19l19,19l19,32l45,38l31,6l33,-2l23,14l18,-4l18,4l9,-9l14,-2l10,6l1,13l27,2l16,25l37,10l17,-15l1,-13l-11,-12l-8,-21l9,-22l26,-10l12,10l6,21l-8,18l8,12l15,6l30,29l16,2l25,-15l35,-6l16,-16l-6,-25l5,-37l9,-7l20,4l12,19l10,7l15,-5l17,1l17,21l-5,14l-27,27l-22,12l2,9l47,40l12,27l-11,11l1,13l49,9l20,15l26,8l8,26l14,4l14,-7l17,-19l3,-18l8,-13h31l28,18l24,-3l21,13l10,25l11,5l17,-10l18,-5l11,9l-7,19l8,9l24,1l16,25l4,18l14,4l43,-24l5,34l44,-11l21,2l15,33l33,17l21,19l13,-11l-3,-10l24,-22l9,3l22,33l39,3l22,10l3,11l20,8l8,13l-6,26l8,10l14,1l12,19l0,33l-5,27l16,20l2,15l24,14l16,-4l2,-13l14,-11l26,13l35,-15l10,20l25,8l19,-14l-3,-12l-19,-21l2,-18l16,-4l18,-12l34,-5l13,-14l15,3l2,19l8,25l-11,30l-8,14l12,12l65,21l19,8l-2,16l6,15l21,6l14,9l63,22l15,-9l16,3l17,10l16,3l-6,20l29,17l-1,19l17,12h16l6,11l-3,23l12,15l27,-4l10,10l16,-4l16,8l5,18l14,7l23,18l17,6l20,-17l29,14l7,11l0,20l5,11l-6,30l-12,12l7,28l15,1l19,9l21,16l11,20l21,13l15,4l18,-1l11,16l38,31l11,21l20,5l23,14l17,-6l23,6l12,19l-5,18l18,23l29,22l12,16l16,35l35,20l39,5l26,7l24,-13l22,33l6,-3l7,-25l-12,-38l-10,-3l-2,-30l17,-9l9,-21l13,-4l23,8l26,17l10,-12l-5,-51l25,-22l27,-7l9,11h12l26,11l15,-6l22,1l29,-4l5,10l-4,21l-18,25l6,45l23,-9l0,9l-14,10l7,18l25,4l6,14l21,23l15,-6l-2,-16l9,-6l10,31l15,8l-7,18l-15,9l-11,15l11,11l27,12l20,20l-1,40l-4,8l29,25l29,8l22,-14l14,32l-1,11l12,19l3,31l-9,11l16,14l6,26l15,5l0,22l10,9l10,-7l30,7l22,8l5,16l12,-9l13,9l-12,13l-6,17l-11,9l-3,11l-11,4l1,17l30,16l14,10l-15,19l18,-2l15,10l28,9l632,314l470,-3l682,-4Z"
     transform="matrix(9.9999987e-5,0,0,-9.9999987e-5,-1.4850001e-7,3.3500002e-8)" />
</svg>
